<?xml version="1.0" encoding="utf-8"?>
<!-- Generator: Adobe Illustrator 21.0.0, SVG Export Plug-In . SVG Version: 6.00 Build 0)  -->
<svg version="1.1" id="Layer_1" xmlns="http://www.w3.org/2000/svg" xmlns:xlink="http://www.w3.org/1999/xlink" x="0px" y="0px"
	 viewBox="0 0 164.5 193.6" style="enable-background:new 0 0 164.5 193.6;" xml:space="preserve">
<style type="text/css">
	.st0{fill:#9C824A;stroke:#9C824A;stroke-width:0.793;stroke-miterlimit:282;}
	.st1{fill:#023474;stroke:#023474;stroke-width:0.793;stroke-miterlimit:282;}
	.st2{fill:#FFFFFF;stroke:#FFFFFF;stroke-width:0.793;stroke-miterlimit:282;}
	.st3{fill:#EF0107;stroke:#EF0107;stroke-width:0.793;stroke-miterlimit:282;}
	.st4{fill:#DB0007;stroke:#DB0007;stroke-width:0.793;stroke-miterlimit:282;}
	.st5{fill:#FFFFFF;}
	.st6{fill:#9C824A;}
	.st7{fill:#EF0107;stroke:#EF0107;stroke-width:0.3115;stroke-miterlimit:282;}
	.st8{fill:#DB0007;stroke:#DB0007;stroke-width:0.3115;stroke-miterlimit:282;}
	.st9{fill:#DB0007;}
	.st10{fill:#FFFFFF;stroke:#FFFFFF;stroke-width:0.3115;stroke-miterlimit:282;}
</style>
<g>
	<path class="st0" d="M82.3,0.4c-19.5,0-55.6,5.1-73.9,15.7c-24.2,85.7,8.7,143.9,73.9,177c65.2-33.1,98.1-91.6,73.9-177
		C137.8,5.5,101.8,0.4,82.3,0.4L82.3,0.4z"/>
	<path class="st1" d="M82.3,5.9c-19.2,0-40.8,2.5-69.1,14C-8,94.7,16.5,154.6,82.3,187.3c65.8-32.7,90.2-92.6,69.1-167.4
		C123.1,8.4,101.5,5.9,82.3,5.9L82.3,5.9z"/>
	<path class="st2" d="M82.2,5.8c-19.1,0-39.6,2.8-58.1,9.8C4.8,92.2,19,148.2,82.3,187.3L82.2,5.8L82.2,5.8z M82.3,187.3
		c63.3-39.1,77.4-95,58.2-171.6c-18.5-7-39-9.8-58.1-9.8L82.3,187.3L82.3,187.3z"/>
	<path class="st3" d="M82.3,5.8c-19.2,0-38.7,2.9-54.5,8.4C7.9,94.5,23.9,148.7,82.3,185.7L82.3,5.8L82.3,5.8z"/>
	<path class="st4" d="M82.3,5.8c19.2,0,38.7,2.9,54.5,8.4c19.9,80.3,3.9,134.5-54.5,171.5L82.3,5.8L82.3,5.8z"/>
	<path class="st5" d="M57.5,126.9c-8.5,5.8-15.2,7.9-23.1,10l-4.7-7.3c7.2-3.6,14.7-8.7,22.2-16.1C52.5,120.6,55.8,125.7,57.5,126.9
		L57.5,126.9z"/>
	<path class="st6" d="M56.3,126.6c-8,5.5-19.3,9.4-32.1,11.3l-2.6-4c11-4.1,21.6-10.3,29.8-18.9C52.7,120.5,54.6,124.2,56.3,126.6
		L56.3,126.6z"/>
	<path class="st5" d="M34.9,92.9c0,3.1-2.5,5.6-5.6,5.6c-3.1,0-5.6-2.5-5.6-5.6l0,0c0-3.1,2.5-5.6,5.6-5.6
		C32.4,87.3,34.9,89.8,34.9,92.9L34.9,92.9z"/>
	<path class="st5" d="M34.3,81.9v21.1h16.6c1.1-7.1,5.1-14.6,14.2-21.1H34.3"/>
	<path class="st5" d="M34.9,102.9c-3.7,0.1-6.7-4.6-6.8-10.4c0-5.8,2.9-10.6,6.6-10.7c0,0,0.1,0,0.1,0"/>
	<path class="st6" d="M32.5,92.9c0,2.4-1.7,4.3-3.9,4.3c-2.1,0-3.9-1.9-3.9-4.3l0,0c0-2.4,1.7-4.3,3.9-4.3
		C30.8,88.6,32.5,90.5,32.5,92.9L32.5,92.9z"/>
	<path class="st6" d="M34.7,83v18.9h16.5c1.3-6.3,4.5-13,12.5-18.9H34.7"/>
	<path class="st6" d="M35.3,101.9c-3.5,0.1-6.3-4.1-6.4-9.3c0-5.2,2.8-9.5,6.2-9.6c0,0,0.1,0,0.1,0"/>
	<path class="st5" d="M113.8,107.9c0,17.6-14.2,31.8-31.8,31.8c-17.5,0-31.8-14.2-31.8-31.8l0,0C50.2,90.3,64.4,76,82,76
		C99.5,76,113.8,90.3,113.8,107.9L113.8,107.9L113.8,107.9z"/>
	<path class="st6" d="M112.1,107.9c0,16.7-13.5,30.1-30.1,30.1c-16.6,0-30.1-13.5-30.1-30.1l0,0c0-16.6,13.5-30.1,30.1-30.1
		C98.6,77.7,112.1,91.2,112.1,107.9L112.1,107.9L112.1,107.9z"/>
	<path class="st5" d="M107.1,107.9c0,13.9-11.2,25.1-25.1,25.1c-13.9,0-25.1-11.3-25.1-25.1l0,0C56.9,94,68.1,82.7,82,82.7
		C95.9,82.7,107.1,94,107.1,107.9L107.1,107.9L107.1,107.9z"/>
	<path class="st6" d="M105.4,107.9c0,13-10.5,23.5-23.5,23.5c-12.9,0-23.4-10.5-23.4-23.5l0,0c0-13,10.5-23.5,23.4-23.5
		C94.9,84.4,105.4,94.9,105.4,107.9L105.4,107.9L105.4,107.9z"/>
	<path class="st5" d="M91.8,107.9c0,5.4-4.4,9.8-9.8,9.8c-5.4,0-9.8-4.4-9.8-9.8v0c0-5.4,4.4-9.8,9.8-9.8
		C87.4,98,91.8,102.4,91.8,107.9C91.8,107.9,91.8,107.9,91.8,107.9L91.8,107.9z"/>
	<path class="st6" d="M90.6,107.9c0,4.8-3.8,8.6-8.6,8.6c-4.8,0-8.6-3.8-8.6-8.6v0c0-4.8,3.9-8.6,8.6-8.6
		C86.7,99.2,90.6,103.1,90.6,107.9L90.6,107.9L90.6,107.9z"/>
	<path class="st5" d="M86.4,107.9c0,2.4-2,4.4-4.4,4.4c-2.4,0-4.4-2-4.4-4.4l0,0c0-2.5,2-4.4,4.4-4.4
		C84.4,103.4,86.4,105.4,86.4,107.9L86.4,107.9L86.4,107.9z"/>
	<path class="st6" d="M85.2,107.9c0,1.8-1.4,3.2-3.2,3.2c-1.8,0-3.2-1.4-3.2-3.2l0,0c0-1.8,1.4-3.2,3.2-3.2
		C83.7,104.6,85.2,106.1,85.2,107.9L85.2,107.9L85.2,107.9z"/>
	<rect x="78.6" y="83.8" class="st5" width="6.7" height="15.6"/>
	<rect x="79.7" y="81.6" class="st6" width="4.6" height="19.8"/>
	<polygon class="st5" points="100.6,92.6 104.2,98.2 91.2,106.7 87.5,101.1 	"/>
	<polygon class="st6" points="103,92.3 105.5,96.2 88.9,107 86.4,103.1 	"/>
	<polygon class="st5" points="72.6,109.1 76.2,114.7 63,123.1 59.5,117.4 	"/>
	<polygon class="st6" points="74.9,108.8 77.3,112.7 60.6,123.3 58.1,119.4 	"/>
	<rect x="78.6" y="116.8" class="st5" width="6.7" height="15.6"/>
	<rect x="79.7" y="114.6" class="st6" width="4.6" height="19.8"/>
	<path class="st7" d="M75.5,115.1c0.9,0.8,1.9,1.4,3.1,2l0,13.9c-6.3-0.8-11.1-3.9-14.7-8.3L75.5,115.1"/>
	<path class="st8" d="M88.5,115.2c-0.9,0.7-1.9,1.4-3.1,2l0,13.9c6.3-0.8,11.1-3.9,14.7-8.3L88.5,115.2"/>
	<path class="st9" d="M91.6,109.3l13.8-1.7c0.1,3.4-0.7,6.5-1.9,9.4L91.6,109.3"/>
	<path class="st10" d="M91.7,109.3c0.1-0.2,0-0.4,0.1-1l13.6-1.8c0.1,0.6,0,0.9,0,1.2L91.7,109.3L91.7,109.3z"/>
	<path class="st5" d="M111.8,97.8h17.8c-0.6,2.1-1.1,4.3-3.7,5.2c-4.1,1.5-12.6,3-12.6,3C113.2,103.7,112.7,100.6,111.8,97.8
		L111.8,97.8z"/>
	<path class="st5" d="M99.4,81.6l46.6,0.1l-1.6,17l-31.9,1.7C110.8,92.7,105,85.4,99.4,81.6L99.4,81.6z"/>
	<path class="st6" d="M101,82.8l59.5,0.1l-2.3,13.9L112.1,99C110.3,92.1,106.1,87,101,82.8L101,82.8z"/>
	<path class="st6" d="M111.8,97.8h16.4c-0.5,1.9-0.9,3.6-3.3,4.4c-3.8,1.4-11.6,2.5-11.6,2.5C113,102.5,112.5,100.2,111.8,97.8
		L111.8,97.8z"/>
	<path class="st6" d="M93.7,56.8c0,0.8-0.2,2.8-0.3,3.4h9.2c-0.6-2.5-0.8-5.9-0.9-8.5c0,0.2-0.2-5.3-0.2-5.3c0-0.4,0.2-1,0.4-1.1
		c0.3-0.4,0.7-0.4,1-0.4c0.4-0.2,1.1-0.2,1.2,1.3l0.2,5.7c0.1,2.7,0.1,6.2-0.2,8.3h8.9c-0.1-0.8-0.3-2.7-0.4-3.2
		c1.1,2.5,3.5,3.8,6.8,3.8c1.9,0,3.4-0.7,4.5-1.5c0,0.2,0.5,0.9,0.5,0.9h16.5c-0.7-2.5-1.2-5.9-1.4-8.5l-2.3-18.5l-8.5-1.5
		c0.7,2.5,1.2,6,1.5,8.5l1.3,11.9c0.2,2.1,0.4,4.4,0.4,6.8v0.2l-0.3-0.8c-0.6-1.5-1-3.4-1.2-6.2l-0.3-3.8c-0.5-6-3.8-8.7-11-8.7
		c-1.2,0-4.2,0.2-6.1,0.8l0.5,6.8l1.9-1.1c1.6-1,2.8-1.3,4.2-1.3c1.1,0,1.9,0.4,2.2,1.1c-1.4,0.2-2.9,0.6-4.6,1.3
		c-2.6,1.1-4.2,2.9-4.9,4.7v-0.2l-0.3-6.2c-0.1-4-2.7-6.6-6.7-6.6c-1.8,0-3.4,0.6-4.8,1.5c-0.1-0.2-0.2-0.4-0.3-0.6l-0.3-0.8
		l-7.4-0.4c0.3,1.3,0.8,5.1,0.9,6.4c-0.4-1.9-1.4-4-3.4-5.5c-1.5-1-3.4-1.5-5.4-1.5c-2.7,0-5.5,1.1-7.4,3c-1.9,1.9-2.9,4.5-3,7.5
		c-0.7-0.8-1.7-1.5-2.8-1.9l-3.4-1.7h-0.2c-0.8-0.4-0.9-0.6-0.9-0.7c0.1-0.4,0.9-0.8,1.9-0.8c1.4,0,3.4,0.8,5.1,1.7l0.2-6.1
		c-1.2-0.6-2.9-0.9-5.3-0.9c-1.3,0-3.7,0.2-5.8,1.3c-0.6,0.4-1,0.8-1.5,1.1l0.1-1.7c-1.9-0.4-4-0.4-6.6,2.1
		c-0.1-0.2-0.3-1.1-0.4-1.5L46.9,40c0.6,2.3,0.6,5.5,0.5,8.3l-0.2,3v0.4c-0.1,1.5-0.2,3.2-0.3,4.7c-0.6-2.1-1.4-4.9-1.9-7.2
		l-3.9-17.8l-11.2,1.7c0.1,0.2,0.2,0.8,0.3,1.3c0.1,0.8,0.1,2.3-1,5.5c-1.8,5.1-4.4,12.9-6.9,18.3c-0.3,0.8-1,1.9-1,1.9h8.8
		c0.2-1.3,0.7-3.6,1.3-5.3c1.2,0,4.3,0,5.8-0.2c0.3,1.3,0.6,3,0.7,4.2l0.1,1.3h17.5c-0.4-2.8-0.2-6.6-0.1-8.7
		c0.2-2.5,0.6-4.2,1.7-5.1c0.8-1,1.7-1.1,2.3-1.1c-0.1,3.4,2.1,4.9,4,5.9l3.4,1.7c1.2,0.8,1.2,0.9,1.2,1.3c-0.1,0.6-1,0.8-1.9,0.8
		c-1.8,0-4.3-1.1-7.1-4.2L59,58.7c2.2,1.1,4.9,1.7,7.3,1.7c4,0,8.3-1.9,9.4-5.5c2,3.8,5.9,5.5,9.8,5.5
		C88.9,60.4,91.5,59.3,93.7,56.8L93.7,56.8z M33.5,49c0.5-1.3,0.9-2.5,1.6-4.5c0.5,2.1,0.7,3.4,1,4.4C35.1,49,34.6,49,33.5,49
		L33.5,49z M82.6,47c0-2.6,1-3.8,1.9-3.8c0.3,0,1-0.2,1.4,1.1c0.2,0.6,0.2,0.9,0.2,1.1c0,0.8-0.4,1-0.9,1v0.2c0,0-1.4,0.4-2.6,1
		C82.6,47.4,82.6,47.2,82.6,47L82.6,47z M91.7,52.5c-1.7,1.5-2.9,2.5-4.9,2.5c-1.6-0.2-2.6-1.1-3.1-2.5c1.7-0.6,8.2-3,10-3.8
		c0,1.5,0.1,3.2,0.1,3.2v3.2L91.7,52.5L91.7,52.5z M121.7,55.1c-1.5,0-1.8-1.1-1.9-1.9c0.1-0.8,0.3-1.9,2.7-2.7
		c0.1,0.9,0.2,1.7,0.2,1.7V53c0.1,0.6,0.1,1.1,0.1,1.7C122.5,54.9,122.1,54.9,121.7,55.1"/>
	<path class="st5" d="M73,40.2c-0.8-0.2-2-0.6-3.9-0.6c-1.5,0-3.5,0.4-5.1,1.1c-1.8,1.1-3,2.6-3.1,4.4c-0.2,2.6,1.2,3.8,3.2,4.7
		c1.4,0.8,2.7,1.5,3.4,1.9c1,0.6,2,1.1,1.9,2.5c-0.1,1.3-1.3,2.3-3.3,2.3c-1.7,0-4.1-1.1-5.8-2.7l-0.1,4c1.4,0.8,3.8,1.1,5.9,1.1
		c3.7,0,8.3-1.7,8.3-5.9c0.1-3.2-2.2-4.4-3.5-5.1c-1.4-0.6-2.7-1.3-3.4-1.5c-0.6-0.4-1.9-0.8-1.8-2.3c0.1-1.3,1.7-1.9,3.3-1.9
		c1.4,0,2.7,0.4,3.8,1"/>
	<path class="st5" d="M40.1,33.2l-8.5,1.1c0.2,1.1-0.2,3.4-1,6c-1.8,5.1-4.6,13.6-6.9,18.5h5.3c0.3-1.7,0.7-3.2,1.5-5.3l7.9-0.2
		c0.3,1.5,0.9,4,1,5.5h7.1c-0.9-2.1-2-6.4-2.7-9.5L40.1,33.2L40.1,33.2z M31.5,50.4l3.9-11.1l2.3,11"/>
	<path class="st5" d="M60.4,40.2L60.3,44c-1.3-0.2-2.9,0.2-4.2,1.5c-1.1,1.1-1.8,2.8-2,5.9c-0.2,2.5-0.2,5.3-0.1,7.6h-6
		c0.4-2.3,0.6-4.9,0.6-7.4l0.2-3c0.2-2.5,0.2-4.9-0.2-7.2l5.3-0.2c0.2,0.8,0.4,2.1,0.3,3.4C56.5,40.9,58.8,40.2,60.4,40.2"/>
	<path class="st5" d="M136.1,34.3l-5.5-1c0.6,2.5,0.7,4.2,1,6.6l1.3,11.9c0.3,2.5,0.5,4.7,0.4,7h5.9c-0.6-2.3-0.8-4.6-1-7"/>
	<path class="st5" d="M111.6,58.9c-0.3-2.3-0.5-4.6-0.6-7l-0.2-6.2c-0.2-3.4-2.1-5.3-5.3-5.3c-1.8,0-3.8,0.6-5.6,2.8
		c-0.1-0.6-0.3-2.1-0.7-2.8l-4.8-0.2c0.4,2.3,0.6,4.5,0.6,7l0.1,4.7c0.1,2.5,0,4.7-0.2,7h6c-0.3-2.3-0.5-4.6-0.6-7l-0.2-5.3
		c-0.1-1.9,1.4-3.2,2.8-3.2c1.7,0,2.5,1.1,2.6,2.8l0.3,5.7c0.1,2.5,0.1,4.7-0.1,7"/>
	<path class="st5" d="M130.4,58.9c-0.7-1.9-1.1-4.2-1.3-6.6l-0.3-3.8c-0.3-4.5-2.2-7.6-9.6-7.6c-1.3,0-3.1,0.2-4.6,0.6l0.2,3.4
		c1.5-0.9,3.1-1.7,5-1.7c2,0,3.7,0.9,3.8,3.8c-1.9,0.2-3.7,0.6-5.7,1.5c-2.2,0.9-4.6,2.8-4.3,5.9c0.2,3.4,2.8,4.9,6,4.9
		c2.5,0,4.2-1.1,5.1-2.3c0.2,0.8,0.4,1.3,0.6,1.9H130.4L130.4,58.9L130.4,58.9z M121.7,56.4c-1.8,0-3.2-1-3.3-3
		c0-2.1,1.3-3.8,5.4-4.4l0.2,3.2c0.1,1.1,0.1,1.9,0.3,2.8C123.7,55.9,122.7,56.2,121.7,56.4"/>
	<path class="st5" d="M89.5,40.7c-1.4-1-3-1.3-4.7-1.3c-3.9,0-9.2,2.8-9,10c0.1,7.4,5.7,9.6,9.6,9.6c3.4,0,5.5-1.3,7.2-3l-1.2-1.7
		c-0.9,0.8-2.3,1.9-4.7,1.9c-2.5-0.2-4.1-1.9-5-4.5l10.9-4C92.4,44.1,91.2,42.1,89.5,40.7L89.5,40.7z M85.7,47.7l-4.3,1.7
		c-0.1-0.8-0.2-1.5-0.2-2.5c0-4.4,2.4-5.1,3.2-5.1c1.3-0.2,2.4,0.6,2.8,2.1C87.7,45.7,87.6,47.2,85.7,47.7"/>
	<polygon class="st5" points="60,97 63.7,91.4 76.7,99.9 73.1,105.5 	"/>
	<polygon class="st6" points="58.8,95 61.4,91.2 77.9,102 75.4,105.9 	"/>
	<polygon class="st5" points="87.8,114.7 91.5,109.1 104.5,117.7 100.9,123.3 	"/>
	<polygon class="st6" points="86.6,112.8 89.2,109 105.7,119.8 103.2,123.7 	"/>
</g>
</svg>
