<?xml version="1.0" encoding="utf-8"?>
<!-- Generator: Adobe Illustrator 21.0.0, SVG Export Plug-In . SVG Version: 6.00 Build 0)  -->
<svg version="1.1" id="Layer_1" xmlns="http://www.w3.org/2000/svg" xmlns:xlink="http://www.w3.org/1999/xlink" x="0px" y="0px"
	 width="240.9px" height="315.8px" viewBox="0 0 240.9 315.8" style="enable-background:new 0 0 240.9 315.8;" xml:space="preserve"
	>
<g>
	<defs>
		<rect id="SVGID_1_" x="0" y="0" width="240.9" height="315.8"/>
	</defs>
	<clipPath id="SVGID_2_">
		<use xlink:href="#SVGID_1_"  style="overflow:visible;"/>
	</clipPath>
	<polyline style="clip-path:url(#SVGID_2_);fill:#FFFFFF;" points="120.4,157.4 120.4,157.5 120.4,157.3 120.4,157.4 	"/>
</g>
<g>
	<defs>
		<path id="SVGID_3_" d="M10.9,36.2v79.4c16.9,138.2,110.1,192,110.1,192s101.7-69.4,108.8-192V36.2H10.9z"/>
	</defs>
	<clipPath id="SVGID_4_">
		<use xlink:href="#SVGID_3_"  style="overflow:visible;"/>
	</clipPath>
	<polygon style="clip-path:url(#SVGID_4_);fill:#8A181A;" points="-80.1,230 311.8,381 -80.1,381 	"/>
	<polygon style="clip-path:url(#SVGID_4_);fill:#8A181A;" points="-80.1,226.2 320.9,380.6 320.9,381 311.8,381 -80.1,230 	"/>
	<polygon style="clip-path:url(#SVGID_4_);fill:#8C181B;" points="-80.1,222.3 320.9,376.7 320.9,380.6 -80.1,226.2 	"/>
	<polygon style="clip-path:url(#SVGID_4_);fill:#8D181B;" points="-80.1,218.4 320.9,372.9 320.9,376.7 -80.1,222.3 	"/>
	<polygon style="clip-path:url(#SVGID_4_);fill:#8E181B;" points="-80.1,214.6 320.9,369 320.9,372.9 -80.1,218.4 	"/>
	<polygon style="clip-path:url(#SVGID_4_);fill:#8F191B;" points="-80.1,210.7 320.9,365.1 320.9,369 -80.1,214.6 	"/>
	<polygon style="clip-path:url(#SVGID_4_);fill:#90191B;" points="-80.1,206.8 320.9,361.3 320.9,365.1 -80.1,210.7 	"/>
	<polygon style="clip-path:url(#SVGID_4_);fill:#91191C;" points="-80.1,203 320.9,357.4 320.9,361.3 -80.1,206.8 	"/>
	<polygon style="clip-path:url(#SVGID_4_);fill:#92191C;" points="-80.1,199.1 320.9,353.5 320.9,357.4 -80.1,203 	"/>
	<polygon style="clip-path:url(#SVGID_4_);fill:#93191C;" points="-80.1,195.2 320.9,349.7 320.9,353.5 -80.1,199.1 	"/>
	<polygon style="clip-path:url(#SVGID_4_);fill:#94191C;" points="-80.1,191.4 320.9,345.8 320.9,349.7 -80.1,195.2 	"/>
	<polygon style="clip-path:url(#SVGID_4_);fill:#951A1D;" points="-80.1,187.5 320.9,341.9 320.9,345.8 -80.1,191.4 	"/>
	<polygon style="clip-path:url(#SVGID_4_);fill:#961A1D;" points="-80.1,183.6 320.9,338.1 320.9,341.9 -80.1,187.5 	"/>
	<polygon style="clip-path:url(#SVGID_4_);fill:#971A1D;" points="-80.1,179.8 320.9,334.2 320.9,338.1 -80.1,183.6 	"/>
	<polygon style="clip-path:url(#SVGID_4_);fill:#981A1D;" points="-80.1,175.9 320.9,330.3 320.9,334.2 -80.1,179.8 	"/>
	<polygon style="clip-path:url(#SVGID_4_);fill:#9A1A1D;" points="-80.1,172 320.9,326.5 320.9,330.3 -80.1,175.9 	"/>
	<polygon style="clip-path:url(#SVGID_4_);fill:#9B1A1E;" points="-80.1,168.2 320.9,322.6 320.9,326.5 -80.1,172 	"/>
	<polygon style="clip-path:url(#SVGID_4_);fill:#9C1B1E;" points="-80.1,164.3 320.9,318.7 320.9,322.6 -80.1,168.2 	"/>
	<polygon style="clip-path:url(#SVGID_4_);fill:#9D1B1E;" points="-80.1,160.4 320.9,314.9 320.9,318.7 -80.1,164.3 	"/>
	<polygon style="clip-path:url(#SVGID_4_);fill:#9E1B1E;" points="-80.1,156.6 320.9,311 320.9,314.9 -80.1,160.4 	"/>
	<polygon style="clip-path:url(#SVGID_4_);fill:#9F1B1E;" points="-80.1,152.7 320.9,307.1 320.9,311 -80.1,156.6 	"/>
	<polygon style="clip-path:url(#SVGID_4_);fill:#A01B1F;" points="-80.1,148.9 320.9,303.3 320.9,307.1 -80.1,152.7 	"/>
	<polygon style="clip-path:url(#SVGID_4_);fill:#A11B1F;" points="-80.1,145 320.9,299.4 320.9,303.3 -80.1,148.9 	"/>
	<polygon style="clip-path:url(#SVGID_4_);fill:#A21B1F;" points="-80.1,141.1 320.9,295.5 320.9,299.4 -80.1,145 	"/>
	<polygon style="clip-path:url(#SVGID_4_);fill:#A31C1F;" points="-80.1,137.3 320.9,291.7 320.9,295.5 -80.1,141.1 	"/>
	<polygon style="clip-path:url(#SVGID_4_);fill:#A51C1F;" points="-80.1,133.4 320.9,287.8 320.9,291.7 -80.1,137.3 	"/>
	<polygon style="clip-path:url(#SVGID_4_);fill:#A61C20;" points="-80.1,129.5 320.9,283.9 320.9,287.8 -80.1,133.4 	"/>
	<polygon style="clip-path:url(#SVGID_4_);fill:#A71C20;" points="-80.1,125.7 320.9,280.1 320.9,283.9 -80.1,129.5 	"/>
	<polygon style="clip-path:url(#SVGID_4_);fill:#A81C20;" points="-80.1,121.8 320.9,276.2 320.9,280.1 -80.1,125.7 	"/>
	<polygon style="clip-path:url(#SVGID_4_);fill:#A91C20;" points="-80.1,117.9 320.9,272.3 320.9,276.2 -80.1,121.8 	"/>
	<polygon style="clip-path:url(#SVGID_4_);fill:#AA1D20;" points="-80.1,114.1 320.9,268.5 320.9,272.3 -80.1,117.9 	"/>
	<polygon style="clip-path:url(#SVGID_4_);fill:#AB1D20;" points="-80.1,110.2 320.9,264.6 320.9,268.5 -80.1,114.1 	"/>
	<polygon style="clip-path:url(#SVGID_4_);fill:#AC1D21;" points="-80.1,106.3 320.9,260.8 320.9,264.6 -80.1,110.2 	"/>
	<polygon style="clip-path:url(#SVGID_4_);fill:#AD1D21;" points="-80.1,102.5 320.9,256.9 320.9,260.8 -80.1,106.3 	"/>
	<polygon style="clip-path:url(#SVGID_4_);fill:#AF1D21;" points="-80.1,98.6 320.9,253 320.9,256.9 -80.1,102.5 	"/>
	<polygon style="clip-path:url(#SVGID_4_);fill:#B01D21;" points="-80.1,94.7 320.9,249.2 320.9,253 -80.1,98.6 	"/>
	<polygon style="clip-path:url(#SVGID_4_);fill:#B11D21;" points="-80.1,90.9 320.9,245.3 320.9,249.2 -80.1,94.7 	"/>
	<polygon style="clip-path:url(#SVGID_4_);fill:#B21D21;" points="-80.1,87 320.9,241.4 320.9,245.3 -80.1,90.9 	"/>
	<polygon style="clip-path:url(#SVGID_4_);fill:#B31E22;" points="-80.1,83.1 320.9,237.6 320.9,241.4 -80.1,87 	"/>
	<polygon style="clip-path:url(#SVGID_4_);fill:#B41E22;" points="-80.1,79.3 320.9,233.7 320.9,237.6 -80.1,83.1 	"/>
	<polygon style="clip-path:url(#SVGID_4_);fill:#B61E22;" points="-80.1,75.4 320.9,229.8 320.9,233.7 -80.1,79.3 	"/>
	<polygon style="clip-path:url(#SVGID_4_);fill:#B71E22;" points="-80.1,71.5 320.9,226 320.9,229.8 -80.1,75.4 	"/>
	<polygon style="clip-path:url(#SVGID_4_);fill:#B81E22;" points="-80.1,67.7 320.9,222.1 320.9,226 -80.1,71.5 	"/>
	<polygon style="clip-path:url(#SVGID_4_);fill:#B91E22;" points="-80.1,63.8 320.9,218.2 320.9,222.1 -80.1,67.7 	"/>
	<polygon style="clip-path:url(#SVGID_4_);fill:#BA1E23;" points="-80.1,59.9 320.9,214.4 320.9,218.2 -80.1,63.8 	"/>
	<polygon style="clip-path:url(#SVGID_4_);fill:#BB1E23;" points="-80.1,56.1 320.9,210.5 320.9,214.4 -80.1,59.9 	"/>
	<polygon style="clip-path:url(#SVGID_4_);fill:#BD1E23;" points="-80.1,52.2 320.9,206.6 320.9,210.5 -80.1,56.1 	"/>
	<polygon style="clip-path:url(#SVGID_4_);fill:#BE1E23;" points="-80.1,48.3 320.9,202.8 320.9,206.6 -80.1,52.2 	"/>
	<polygon style="clip-path:url(#SVGID_4_);fill:#BF1F23;" points="-80.1,44.5 320.9,198.9 320.9,202.8 -80.1,48.3 	"/>
	<polygon style="clip-path:url(#SVGID_4_);fill:#C01F23;" points="-80.1,40.6 320.9,195 320.9,198.9 -80.1,44.5 	"/>
	<polygon style="clip-path:url(#SVGID_4_);fill:#C11F23;" points="-80.1,36.7 320.9,191.2 320.9,195 -80.1,40.6 	"/>
	<polygon style="clip-path:url(#SVGID_4_);fill:#C21F24;" points="-80.1,32.9 320.9,187.3 320.9,191.2 -80.1,36.7 	"/>
	<polygon style="clip-path:url(#SVGID_4_);fill:#C41F24;" points="-80.1,29 320.9,183.4 320.9,187.3 -80.1,32.9 	"/>
	<polygon style="clip-path:url(#SVGID_4_);fill:#C51F24;" points="-80.1,25.1 320.9,179.6 320.9,183.4 -80.1,29 	"/>
	<polygon style="clip-path:url(#SVGID_4_);fill:#C61F24;" points="-80.1,21.3 320.9,175.7 320.9,179.6 -80.1,25.1 	"/>
	<polygon style="clip-path:url(#SVGID_4_);fill:#C71F24;" points="-80.1,17.4 320.9,171.8 320.9,175.7 -80.1,21.3 	"/>
	<polygon style="clip-path:url(#SVGID_4_);fill:#C91F24;" points="-80.1,13.5 320.9,168 320.9,171.8 -80.1,17.4 	"/>
	<polygon style="clip-path:url(#SVGID_4_);fill:#CA1F24;" points="-80.1,9.7 320.9,164.1 320.9,168 -80.1,13.5 	"/>
	<polygon style="clip-path:url(#SVGID_4_);fill:#CB2025;" points="-80.1,5.8 320.9,160.2 320.9,164.1 -80.1,9.7 	"/>
	<polygon style="clip-path:url(#SVGID_4_);fill:#CC2025;" points="-80.1,1.9 320.9,156.4 320.9,160.2 -80.1,5.8 	"/>
	<polygon style="clip-path:url(#SVGID_4_);fill:#CD2025;" points="-80.1,-1.9 320.9,152.5 320.9,156.4 -80.1,1.9 	"/>
	<polygon style="clip-path:url(#SVGID_4_);fill:#CF2025;" points="-80.1,-5.8 320.9,148.6 320.9,152.5 -80.1,-1.9 	"/>
	<polygon style="clip-path:url(#SVGID_4_);fill:#D02025;" points="-80.1,-9.7 320.9,144.8 320.9,148.6 -80.1,-5.8 	"/>
	<polygon style="clip-path:url(#SVGID_4_);fill:#D12025;" points="-80.1,-13.5 320.9,140.9 320.9,144.8 -80.1,-9.7 	"/>
	<polygon style="clip-path:url(#SVGID_4_);fill:#D22025;" points="-80.1,-17.4 320.9,137 320.9,140.9 -80.1,-13.5 	"/>
	<polygon style="clip-path:url(#SVGID_4_);fill:#D32025;" points="-80.1,-21.2 320.9,133.2 320.9,137 -80.1,-17.4 	"/>
	<polygon style="clip-path:url(#SVGID_4_);fill:#D52126;" points="-80.1,-25.1 320.9,129.3 320.9,133.2 -80.1,-21.2 	"/>
	<polygon style="clip-path:url(#SVGID_4_);fill:#D62126;" points="-80.1,-29 320.9,125.4 320.9,129.3 -80.1,-25.1 	"/>
	<polygon style="clip-path:url(#SVGID_4_);fill:#D72126;" points="-80.1,-32.8 320.9,121.6 320.9,125.4 -80.1,-29 	"/>
	<polygon style="clip-path:url(#SVGID_4_);fill:#D92126;" points="-80.1,-36.7 320.9,117.7 320.9,121.6 -80.1,-32.8 	"/>
	<polygon style="clip-path:url(#SVGID_4_);fill:#DA2126;" points="-71.5,-37.3 320.9,113.8 320.9,117.7 -80.1,-36.7 -80.1,-37.3 	
		"/>
	<polygon style="clip-path:url(#SVGID_4_);fill:#DB2126;" points="-61.4,-37.3 320.9,110 320.9,113.8 -71.5,-37.3 	"/>
	<polygon style="clip-path:url(#SVGID_4_);fill:#DC2126;" points="-51.4,-37.3 320.9,106.1 320.9,110 -61.4,-37.3 	"/>
	<polygon style="clip-path:url(#SVGID_4_);fill:#DE2126;" points="-41.4,-37.3 320.9,102.3 320.9,106.1 -51.4,-37.3 	"/>
	<polygon style="clip-path:url(#SVGID_4_);fill:#DF2126;" points="-31.3,-37.3 320.9,98.4 320.9,102.3 -41.4,-37.3 	"/>
	<polygon style="clip-path:url(#SVGID_4_);fill:#E12126;" points="-21.3,-37.3 320.9,94.5 320.9,98.4 -31.3,-37.3 	"/>
	<polygon style="clip-path:url(#SVGID_4_);fill:#E22227;" points="-11.2,-37.3 320.9,90.7 320.9,94.5 -21.3,-37.3 	"/>
	<polygon style="clip-path:url(#SVGID_4_);fill:#E42227;" points="-1.2,-37.3 320.9,86.8 320.9,90.7 -11.2,-37.3 	"/>
	<polygon style="clip-path:url(#SVGID_4_);fill:#E62227;" points="8.8,-37.3 320.9,82.9 320.9,86.8 -1.2,-37.3 	"/>
	<polygon style="clip-path:url(#SVGID_4_);fill:#E82227;" points="18.9,-37.3 320.9,79.1 320.9,82.9 8.8,-37.3 	"/>
	<polygon style="clip-path:url(#SVGID_4_);fill:#EA2227;" points="28.9,-37.3 320.9,75.2 320.9,79.1 18.9,-37.3 	"/>
	<polygon style="clip-path:url(#SVGID_4_);fill:#EC2227;" points="38.9,-37.3 320.9,71.3 320.9,75.2 28.9,-37.3 	"/>
	<polygon style="clip-path:url(#SVGID_4_);fill:#EC2227;" points="320.9,71.3 38.9,-37.3 320.9,-37.3 	"/>
	
		<rect x="-45.6" y="20.9" transform="matrix(0.3594 -0.9332 0.9332 0.3594 -83.2412 222.4386)" style="clip-path:url(#SVGID_4_);fill:none;" width="331.9" height="301.8"/>
</g>
<g>
	<defs>
		<rect id="SVGID_5_" x="0" y="0" width="240.9" height="315.8"/>
	</defs>
	<clipPath id="SVGID_6_">
		<use xlink:href="#SVGID_5_"  style="overflow:visible;"/>
	</clipPath>
	<path style="clip-path:url(#SVGID_6_);fill:#FFFFFF;" d="M143.1,149L143.1,149c1.5,0.1,3.1,0.2,4.7,0.2
		C146.1,149.2,144.6,149.1,143.1,149"/>
</g>
<g>
	<defs>
		<rect id="SVGID_7_" x="0" y="0" width="240.9" height="315.8"/>
	</defs>
	<clipPath id="SVGID_8_">
		<use xlink:href="#SVGID_7_"  style="overflow:visible;"/>
	</clipPath>
	<polygon style="clip-path:url(#SVGID_8_);fill:#FFFFFF;" points="139.6,148.6 139.6,148.6 139.6,148.6 	"/>
</g>
<g>
	<defs>
		<rect id="SVGID_9_" x="0" y="0" width="240.9" height="315.8"/>
	</defs>
	<clipPath id="SVGID_10_">
		<use xlink:href="#SVGID_9_"  style="overflow:visible;"/>
	</clipPath>
	<path style="clip-path:url(#SVGID_10_);fill:#FFFFFF;" d="M95.7,139.6L71.2,139l-0.4,9.8c0,0-3.6-0.2-7.4,0c-3.8,0.2-4,5.5-4,5.5
		s-3-0.2-6.1,0.6c-3.2,0.9-2.8,5.7-2.8,5.7s-8.3,0.2-11,3.4c-2.8,3.2-3.2,9.8-0.4,13.6c2.7,3.8,18.4,26.3,22.5,35.2
		c4,8.9,4.7,39,4.7,39l0.2,0.7l0,0c14.1,17.4,31.8,34.1,54.2,49.1c7.6-5.1,14.6-10.4,21.2-15.8l-40.8-47.1l2.5-2.2l0.8,0
		c0.3,0,0.5,0,0.8,0c1.5,0,2.9,0.2,4.6,0.2c2.6,0,5.7-0.4,9.7-2.5c1.6-0.9,2.7-2.1,3.4-3.6c0.7-1.5,1.1-3.2,1-4.9
		c0-1.8-0.4-3.5-0.9-4.5c-0.8-1.6-2.5-2.8-4.4-3.6c-1.9-0.8-3.8-1.1-4.5-1.2c-0.2,0-0.3,0-0.3,0h-0.1l-2.3-0.4l-7.7-8.5l3.6-3.1
		l6.5,7.2l0.5,0.1c0.5,0.1,2.3,0.3,4.5,1l-9-10.4l3.6-3.2l54,62.3c0.6-0.7,1.3-1.4,1.9-2.1l-53.7-62l3.6-3.1l53.3,61.5
		c0.6-0.7,1.2-1.5,1.8-2.2l-53-61.1l1.3-1.1c0,0,1.8,0.5,4.7,0.6l50,57.8c0.6-0.8,1.2-1.5,1.8-2.3l-48.1-55.6c1.7-0.1,3.5-0.4,5.5-1
		l45.6,52.6c0.6-0.8,1.1-1.6,1.7-2.4L139,189.7c1.6-0.8,2.8-1.9,3.6-3.2l43.7,50.5c0.5-0.8,1.1-1.6,1.6-2.4l-44.1-50.9
		c0.8-2.8,0.6-5.7,0.4-6.9l46.4,53.5c0.5-0.8,1-1.7,1.6-2.5l-50.3-58v-7.3l52.9,61c0.6-1,1.1-2,1.7-3l-63.1-73.1
		c-0.6-0.2-1.3-0.4-1.9-0.5c-2.6-0.8-5.1-1.7-7.5-2.7c-0.5-0.2-0.9-0.4-1.4-0.7c-1.5-0.7-3-1.5-4.5-2.4c-0.5-0.3-1-0.6-1.5-0.9
		c-1.4-0.9-2.8-1.8-4.1-2.8c-0.4-0.3-0.8-0.6-1.3-0.9c-1.6-1.2-3.1-2.6-4.5-4l-0.3-0.2C100.6,133.1,95.7,139.6,95.7,139.6"/>
</g>
<g>
	<defs>
		<rect id="SVGID_11_" x="0" y="0" width="240.9" height="315.8"/>
	</defs>
	<clipPath id="SVGID_12_">
		<use xlink:href="#SVGID_11_"  style="overflow:visible;"/>
	</clipPath>
	<path style="clip-path:url(#SVGID_12_);fill:#FFFFFF;" d="M17.3,145.4c2.6,13.6,6.6,28.8,12.7,44.6c0.5,1.2,1,2.4,1.5,3.6
		c-0.5-1.2-1-2.4-1.5-3.6C23.9,174.2,19.9,159.1,17.3,145.4"/>
</g>
<g>
	<defs>
		<rect id="SVGID_13_" x="0" y="0" width="240.9" height="315.8"/>
	</defs>
	<clipPath id="SVGID_14_">
		<use xlink:href="#SVGID_13_"  style="overflow:visible;"/>
	</clipPath>
	<path style="clip-path:url(#SVGID_14_);fill:#010101;" d="M0,17.1v33.3h0l0.1,46c0,1,0,2.1,0,3.3c0,1.1,0,2.4,0,3.6v0.2h0
		c0.1,4.6,0.3,10,0.8,16.1c1.6,19.8,6,46.4,17.2,75.1c15.5,39.9,44.3,83.9,96.4,118.4l5.9,3.7l6-3.7c4.9-3.2,9.6-6.6,14.1-9.9
		c40.3-30.5,64.7-66.8,79.3-100.8l0.1-0.1l0.1-0.3c1-2.4,2-4.8,3-7.2c1-2.5,1.9-5.1,2.8-7.6c13-36.9,15.2-69.5,15.3-87.4
		c0-0.7,0-1.3,0-1.9l0,0V57.8v-7.4V17.1C162.2-5.7,78.7-5.7,0,17.1 M196.5,213.7L179,194.2v-57.8c8.9-9.5,13.2-22.5,12.9-36.8
		c-0.2-13.3-4.1-25.9-12.9-35.7V44.7c5,0.7,12.5,2,17.5,2.9L196.5,213.7L196.5,213.7z M160.7,172.9l-1.6-1.7L143,152.5
		c0.7,0,1.4,0,2,0c4.9-0.3,11.3-2.3,15.7-3.9V172.9z M145.3,282.8l-35.7-41.3c1.1,0,2.3-0.1,3.6-0.3l34.3,39.7
		C146.7,281.5,146,282.2,145.3,282.8 M151,277.7l-32.7-37.8c0.9-0.3,1.8-0.7,2.7-1.2l32.1,37.1C152.4,276.4,151.7,277.1,151,277.7
		 M156.5,272.4l-31.7-36.6c0.7-0.7,1.2-1.5,1.7-2.3l32,37C157.9,271.1,157.2,271.8,156.5,272.4 M161.9,267l-33.6-38.8
		c0.1-0.8,0.2-1.6,0.2-2.5c0-0.6,0-1.2-0.1-1.8l35.5,41C163.2,265.6,162.6,266.3,161.9,267 M194.8,223.4l-52.9-61v7.3l50.3,58
		c-0.5,0.8-1,1.7-1.6,2.5l-46.4-53.5c0.2,1.1,0.4,4-0.4,6.9l44.1,50.9c-0.5,0.8-1.1,1.6-1.6,2.4l-43.7-50.5c-0.8,1.3-2,2.4-3.6,3.2
		l44.4,51.3c-0.6,0.8-1.1,1.6-1.7,2.4l-45.6-52.6c-2,0.6-3.8,0.9-5.5,1l48.1,55.6c-0.6,0.8-1.2,1.5-1.8,2.3l-50-57.8
		c-2.9-0.1-4.7-0.6-4.7-0.6l-1.3,1.1l53,61.1c-0.6,0.7-1.2,1.5-1.8,2.2l-53.3-61.5l-3.6,3.1l53.7,62c-0.6,0.7-1.2,1.4-1.9,2.1
		l-54-62.3l-3.6,3.2l9,10.4c-2.2-0.7-4-0.9-4.5-1l-0.5-0.1l-6.5-7.2l-3.6,3.1l7.7,8.5l2.3,0.4h0.1c0,0,0.1,0,0.3,0
		c0.7,0.1,2.6,0.4,4.5,1.2c1.9,0.8,3.7,2,4.4,3.6c0.5,0.9,0.9,2.7,0.9,4.5c0,1.7-0.3,3.4-1,4.9c-0.7,1.5-1.8,2.7-3.4,3.6
		c-4,2.1-7.1,2.5-9.7,2.5c-1.6,0-3.1-0.2-4.6-0.2c-0.3,0-0.5,0-0.8,0l-0.8,0l-2.5,2.2l40.8,47.1c-6.5,5.4-13.6,10.7-21.2,15.8
		c-22.4-15-40.1-31.7-54.2-49.1l0,0c-15.8-19.4-26.9-39.6-34.8-58.9c-0.5-1.2-1-2.4-1.5-3.6c-6.2-15.8-10.1-31-12.7-44.6
		c-2.9-15.3-4-28.6-4.3-38.7V54.3c47.8-12.3,98.9-16,147.7-11.6v7.8c-6-2.4-14-4.7-20.5-4.8c-28.8-0.2-51.1,24-50.7,53.2
		c0.4,27.9,21.4,51,48.2,53.3l58.8,68.2C195.9,221.5,195.4,222.4,194.8,223.4 M214,181.6l0.3,0V51c4.7,1,9,2.1,13.7,3.3v52.5l0,0
		C227.4,124.3,224.5,151.5,214,181.6"/>
</g>
<g>
	<defs>
		<rect id="SVGID_15_" x="0" y="0" width="240.9" height="315.8"/>
	</defs>
	<clipPath id="SVGID_16_">
		<use xlink:href="#SVGID_15_"  style="overflow:visible;"/>
	</clipPath>
	<path style="clip-path:url(#SVGID_16_);fill:#FFFFFF;" d="M101.6,123l18.5,5.3l11.1,16.7c3.3,0.8,6.8,1.2,10.3,1.3
		c3.5,0,6.9-0.4,10.1-1.1l10.3-16.2l18.7-5.3c3.4-5.9,5.5-12.6,6-19.8l-12.1-15.3l0.5-19.9c-0.7-0.8-1.5-1.7-2.2-2.5
		c-4.1-4.2-9-7.6-14.4-10l-17.8,6.7l-18.4-7.1c-5.5,2.3-10.3,5.7-14.4,10c-0.7,0.7-1.4,1.5-2,2.3l1.2,19.5L95,103.1
		C95.7,110.3,98,117.1,101.6,123 M140.8,79.4l19.9,14.8l-7.1,23.6l-24.3-0.2l-7.8-23.7L140.8,79.4z"/>
</g>
<g>
	<defs>
		<rect id="SVGID_17_" x="0" y="0" width="240.9" height="315.8"/>
	</defs>
	<clipPath id="SVGID_18_">
		<use xlink:href="#SVGID_17_"  style="overflow:visible;"/>
	</clipPath>
	<polygon style="clip-path:url(#SVGID_18_);fill:#010101;" points="160.6,93.9 140.8,79.2 121.4,93.6 129.2,117.3 153.5,117.5 	"/>
</g>
<g>
	<defs>
		<rect id="SVGID_19_" x="0" y="0" width="240.9" height="315.8"/>
	</defs>
	<clipPath id="SVGID_20_">
		<use xlink:href="#SVGID_19_"  style="overflow:visible;"/>
	</clipPath>
	<path style="clip-path:url(#SVGID_20_);fill:#FFFFFF;" d="M109.6,241.5l35.7,41.3c0.7-0.6,1.4-1.3,2.1-1.9l-34.3-39.7
		C111.8,241.4,110.6,241.5,109.6,241.5"/>
</g>
<g>
	<defs>
		<rect id="SVGID_21_" x="0" y="0" width="240.9" height="315.8"/>
	</defs>
	<clipPath id="SVGID_22_">
		<use xlink:href="#SVGID_21_"  style="overflow:visible;"/>
	</clipPath>
	<path style="clip-path:url(#SVGID_22_);fill:#FFFFFF;" d="M118.3,239.9l32.7,37.8c0.7-0.6,1.4-1.3,2.1-1.9L121,238.7
		C120.1,239.2,119.2,239.6,118.3,239.9"/>
</g>
<g>
	<defs>
		<rect id="SVGID_23_" x="0" y="0" width="240.9" height="315.8"/>
	</defs>
	<clipPath id="SVGID_24_">
		<use xlink:href="#SVGID_23_"  style="overflow:visible;"/>
	</clipPath>
	<path style="clip-path:url(#SVGID_24_);fill:#FFFFFF;" d="M124.8,235.8l31.7,36.6c0.7-0.7,1.3-1.3,2-2l-32-37
		C126,234.3,125.5,235.1,124.8,235.8"/>
</g>
<g>
	<defs>
		<rect id="SVGID_25_" x="0" y="0" width="240.9" height="315.8"/>
	</defs>
	<clipPath id="SVGID_26_">
		<use xlink:href="#SVGID_25_"  style="overflow:visible;"/>
	</clipPath>
	<path style="clip-path:url(#SVGID_26_);fill:#FFFFFF;" d="M128.4,224c0.1,0.6,0.1,1.2,0.1,1.8c0,0.8-0.1,1.6-0.2,2.5l33.6,38.8
		c0.6-0.7,1.3-1.4,2-2.1L128.4,224z"/>
</g>
<g>
	<defs>
		<path id="SVGID_27_" d="M19.7,26.7c0-0.2,0.1-0.4,0.3-0.4c0.2,0,0.2,0.1,0.3,0.3c0.5,2,0.9,3.9,1.4,5.9c-1.1,0.2-2.2,0.5-3.3,0.7
			C18.8,31,19.3,28.9,19.7,26.7 M20.1,23.1c-1.5,0.3-3.2,1.1-3.7,3.3c-1.1,4.9-2.2,9.8-3.3,14.7l0,0.1c0,0.2,0.2,0.3,0.4,0.3
			c1-0.2,2.1-0.5,3.1-0.7c0.2-0.1,0.4-0.3,0.4-0.5c0.3-1.3,0.5-2.6,0.8-3.9c1.5-0.4,3-0.7,4.5-1c0.3,1.2,0.5,2.3,0.8,3.5
			c0,0.2,0.2,0.4,0.4,0.3c1-0.2,2.1-0.4,3.1-0.7c0.2,0,0.4-0.2,0.4-0.4l0-0.1c-1.1-4.4-2.2-8.8-3.3-13.2c-0.4-1.4-1.3-1.9-2.3-1.9
			C21,22.9,20.5,23,20.1,23.1"/>
	</defs>
	<clipPath id="SVGID_28_">
		<use xlink:href="#SVGID_27_"  style="overflow:visible;"/>
	</clipPath>
	
		<linearGradient id="SVGID_29_" gradientUnits="userSpaceOnUse" x1="-177.199" y1="-263.0295" x2="-176.199" y2="-263.0295" gradientTransform="matrix(119.8945 89.6408 -89.6408 119.8945 -2307.4373 47456.3984)">
		<stop  offset="0" style="stop-color:#A7986E"/>
		<stop  offset="0.4417" style="stop-color:#FFE4C7"/>
		<stop  offset="1" style="stop-color:#A7986E"/>
	</linearGradient>
	<polygon style="clip-path:url(#SVGID_28_);fill:url(#SVGID_29_);" points="4.1,34.9 18.1,16.2 36,29.6 22,48.3 	"/>
</g>
<g>
	<defs>
		<path id="SVGID_30_" d="M38.7,19.6c-0.8,0-1.9,0-4.3,0.5c-2.9,0.5-5.4,1.8-5.4,5.9v11.6c0,0.3,0.2,0.4,0.4,0.4
			c1-0.2,1.9-0.4,2.9-0.6c0.2,0,0.4-0.3,0.4-0.5v-6.5c1.9-0.4,3.8-0.7,5.8-1.1c0.2,0,0.4-0.3,0.4-0.5v-2.1c0-0.2-0.2-0.4-0.4-0.4
			c-1.9,0.3-3.9,0.7-5.8,1.1v-2c0-1.2,0.4-1.6,1.4-1.8c1.5-0.3,3-0.6,4.5-0.8c0.2,0,0.4-0.3,0.4-0.5V20C39.1,19.7,39,19.6,38.7,19.6
			L38.7,19.6"/>
	</defs>
	<clipPath id="SVGID_31_">
		<use xlink:href="#SVGID_30_"  style="overflow:visible;"/>
	</clipPath>
	
		<linearGradient id="SVGID_32_" gradientUnits="userSpaceOnUse" x1="-177.199" y1="-263.0295" x2="-176.199" y2="-263.0295" gradientTransform="matrix(119.8777 89.6283 -89.6283 119.8777 -2300.4478 47440.8984)">
		<stop  offset="0" style="stop-color:#A7986E"/>
		<stop  offset="0.4417" style="stop-color:#FFE4C7"/>
		<stop  offset="1" style="stop-color:#A7986E"/>
	</linearGradient>
	<polygon style="clip-path:url(#SVGID_31_);fill:url(#SVGID_32_);" points="20.1,31.4 32.6,14.8 47.9,26.2 35.5,42.9 	"/>
</g>
<g>
	<defs>
		<path id="SVGID_33_" d="M48.2,17.7c-3.4,0.5-6.6,2.9-6.6,8.2v2.8c0,5.3,3.2,6.6,6.6,6c1.6-0.3,2.9-0.7,3.3-0.9
			c0.3-0.1,0.5-0.3,0.5-0.6v-2.2c0-0.3-0.1-0.4-0.4-0.4l-0.1,0c-0.9,0.2-2.1,0.5-3.3,0.7c-1.5,0.3-2.8-0.4-2.8-3.3v-2.8
			c0-3,1.2-4,2.8-4.2c1.2-0.2,2.5-0.3,3.3-0.3l0.1,0c0.3,0,0.4-0.2,0.4-0.5V18c0-0.3-0.2-0.4-0.5-0.4c-0.2,0-0.5-0.1-1-0.1
			C49.9,17.5,49.1,17.6,48.2,17.7"/>
	</defs>
	<clipPath id="SVGID_34_">
		<use xlink:href="#SVGID_33_"  style="overflow:visible;"/>
	</clipPath>
	
		<linearGradient id="SVGID_35_" gradientUnits="userSpaceOnUse" x1="-177.199" y1="-263.0295" x2="-176.199" y2="-263.0295" gradientTransform="matrix(120.3012 89.9445 -89.9445 120.3012 -2302.8752 47600.6562)">
		<stop  offset="0" style="stop-color:#A7986E"/>
		<stop  offset="0.4417" style="stop-color:#FFE4C7"/>
		<stop  offset="1" style="stop-color:#A7986E"/>
	</linearGradient>
	<polygon style="clip-path:url(#SVGID_34_);fill:url(#SVGID_35_);" points="33,28.9 45.3,12.5 60.6,23.9 48.3,40.3 	"/>
</g>
<g>
	<defs>
		<path id="SVGID_36_" d="M64.1,25.2c0.8-0.1,1.7-0.2,2.5-0.3c1.8-0.2,2.4,0.6,2.4,1.7v0.2c0,1.3-0.7,2.1-3.1,2.3
			c-0.3,0-1.5,0.2-1.8,0.2C64.1,28,64.1,26.6,64.1,25.2 M64.1,18.6c0.3-0.1,1.3-0.2,1.7-0.2c2.3-0.3,3.1,0.2,3.1,1.4v0.3
			c0,1-0.5,1.8-2.3,2c-0.8,0.1-1.7,0.2-2.5,0.3C64.1,21.2,64.1,19.9,64.1,18.6 M65.5,15.3c-1.4,0.2-3.3,0.5-4,0.7
			c-0.9,0.2-1.2,0.6-1.2,1.6v13.6c0,1,0.3,1.3,1.2,1.3c0.9,0,2.6-0.1,4.1-0.2c3.9-0.5,7.1-1.9,7.1-5.8v-0.3c0-1.5-0.8-2.7-2-3.1
			c1.2-0.7,1.9-2,1.9-3.5v-0.4c0-2.9-2-4-5-4C66.9,15.2,66.3,15.2,65.5,15.3"/>
	</defs>
	<clipPath id="SVGID_37_">
		<use xlink:href="#SVGID_36_"  style="overflow:visible;"/>
	</clipPath>
	
		<linearGradient id="SVGID_38_" gradientUnits="userSpaceOnUse" x1="-177.199" y1="-263.0295" x2="-176.199" y2="-263.0295" gradientTransform="matrix(119.4591 89.3149 -89.3149 119.4591 -2278.1553 47256.5312)">
		<stop  offset="0" style="stop-color:#A7986E"/>
		<stop  offset="0.4417" style="stop-color:#FFE4C7"/>
		<stop  offset="1" style="stop-color:#A7986E"/>
	</linearGradient>
	<polygon style="clip-path:url(#SVGID_37_);fill:url(#SVGID_38_);" points="51.9,26.4 64.8,9.2 81.1,21.4 68.3,38.6 	"/>
</g>
<g>
	<defs>
		<path id="SVGID_39_" d="M78.8,23.8v-2.7c0-2.7,0.9-3.9,2.8-4.1c1.9-0.2,2.8,0.9,2.8,3.6v2.7c0,2.7-0.9,3.9-2.8,4.1
			c-0.1,0-0.2,0-0.4,0C79.6,27.4,78.8,26.3,78.8,23.8 M81.6,13.6c-3.7,0.3-6.7,2.6-6.7,7.8v2.7c0,5.2,2.9,6.9,6.7,6.6
			c3.7-0.3,6.7-2.5,6.7-7.7v-2.7c0-4.8-2.5-6.7-5.9-6.7C82.1,13.6,81.9,13.6,81.6,13.6"/>
	</defs>
	<clipPath id="SVGID_40_">
		<use xlink:href="#SVGID_39_"  style="overflow:visible;"/>
	</clipPath>
	
		<linearGradient id="SVGID_41_" gradientUnits="userSpaceOnUse" x1="-177.199" y1="-263.0295" x2="-176.199" y2="-263.0295" gradientTransform="matrix(119.8571 89.613 -89.613 119.8571 -2279.9451 47405.7383)">
		<stop  offset="0" style="stop-color:#A7986E"/>
		<stop  offset="0.4417" style="stop-color:#FFE4C7"/>
		<stop  offset="1" style="stop-color:#A7986E"/>
	</linearGradient>
	<polygon style="clip-path:url(#SVGID_40_);fill:url(#SVGID_41_);" points="66.6,24.8 79.7,7.2 96.6,19.9 83.5,37.4 	"/>
</g>
<g>
	<defs>
		<path id="SVGID_42_" d="M103.5,12.5c-1,0-2,0.1-2.9,0.1c-0.2,0-0.5,0.2-0.5,0.4v10c0,2.3-0.6,3.3-2.7,3.4c-2,0.1-2.6-0.8-2.6-3.1
			v-10c0-0.2-0.2-0.4-0.5-0.4c-1,0.1-2,0.1-3,0.2c-0.2,0-0.4,0.2-0.4,0.4v10c0,5.1,2.9,6.3,6.5,6.1c3.6-0.2,6.5-1.6,6.5-6.7v-10
			C104,12.7,103.8,12.5,103.5,12.5L103.5,12.5"/>
	</defs>
	<clipPath id="SVGID_43_">
		<use xlink:href="#SVGID_42_"  style="overflow:visible;"/>
	</clipPath>
	
		<linearGradient id="SVGID_44_" gradientUnits="userSpaceOnUse" x1="-177.199" y1="-263.0295" x2="-176.199" y2="-263.0295" gradientTransform="matrix(119.3945 89.2666 -89.2666 119.3945 -2264.3938 47214.4688)">
		<stop  offset="0" style="stop-color:#A7986E"/>
		<stop  offset="0.4417" style="stop-color:#FFE4C7"/>
		<stop  offset="1" style="stop-color:#A7986E"/>
	</linearGradient>
	<polygon style="clip-path:url(#SVGID_43_);fill:url(#SVGID_44_);" points="82.7,23.6 95.6,6.3 112.3,18.7 99.3,36.1 	"/>
</g>
<g>
	<defs>
		<path id="SVGID_45_" d="M110.9,19.7v-4.3c0.3,0,1.4-0.1,1.8-0.1c1.9,0,3,0.6,3,2v0.3c0,1.5-0.7,2.1-3.1,2.2c-0.1,0-0.3,0-0.5,0
			C111.6,19.7,111.1,19.7,110.9,19.7 M112.7,12.1c-1.6,0-3.5,0.2-4.6,0.4c-0.7,0.1-1,0.3-1,1.1v15c0,0.2,0.2,0.4,0.5,0.4
			c1,0,2,0,2.9-0.1c0.2,0,0.5-0.2,0.5-0.5v-5.7c0.2,0,0.5,0,0.8,0c0.3,0,0.5,0,0.8,0l0.3,0c1,1.9,2,3.7,3,5.6
			c0.1,0.2,0.2,0.4,0.4,0.4c1.2,0,2.3,0,3.5,0c0.2,0,0.3-0.1,0.3-0.3c0-0.1,0-0.2-0.1-0.2c-1.1-2.1-2.3-4.2-3.4-6.3
			c1.6-0.7,2.9-2.1,2.9-4.5v-0.3c0-3.9-2.8-5.2-6.6-5.2L112.7,12.1"/>
	</defs>
	<clipPath id="SVGID_46_">
		<use xlink:href="#SVGID_45_"  style="overflow:visible;"/>
	</clipPath>
	
		<linearGradient id="SVGID_47_" gradientUnits="userSpaceOnUse" x1="-177.199" y1="-263.0295" x2="-176.199" y2="-263.0295" gradientTransform="matrix(119.8262 89.5893 -89.5893 119.8262 -2266.9011 47376.9648)">
		<stop  offset="0" style="stop-color:#A7986E"/>
		<stop  offset="0.4417" style="stop-color:#FFE4C7"/>
		<stop  offset="1" style="stop-color:#A7986E"/>
	</linearGradient>
	<polygon style="clip-path:url(#SVGID_46_);fill:url(#SVGID_47_);" points="98.9,23 111.7,5.8 128.2,18.2 115.4,35.3 	"/>
</g>
<g>
	<defs>
		<path id="SVGID_48_" d="M123.2,12.2c-0.5,0-0.8,0.4-0.8,0.8v15.4c0,0.3,0.2,0.5,0.5,0.5c0.9,0,1.8,0,2.7,0c0.2,0,0.5-0.2,0.5-0.4
			v-9.1c0-0.1,0-0.2,0.1-0.2c0.1,0,0.1,0,0.2,0.2c1.7,3,3.4,5.9,5.1,8.9c0.4,0.6,0.7,0.7,1.2,0.7c0.7,0,1.5,0,2.2,0.1
			c0.5,0,0.9-0.3,0.9-0.8c0-5.1,0-10.3,0-15.4c0-0.2-0.2-0.4-0.4-0.4c-0.9,0-1.8-0.1-2.7-0.1c-0.2,0-0.5,0.2-0.5,0.4v9.5
			c0,0.2-0.1,0.2-0.1,0.2c-0.1,0-0.1,0-0.2-0.2c-1.8-3.1-3.6-6.2-5.4-9.3c-0.3-0.5-0.5-0.7-0.9-0.7C124.8,12.2,124,12.2,123.2,12.2
			L123.2,12.2"/>
	</defs>
	<clipPath id="SVGID_49_">
		<use xlink:href="#SVGID_48_"  style="overflow:visible;"/>
	</clipPath>
	
		<linearGradient id="SVGID_50_" gradientUnits="userSpaceOnUse" x1="-177.199" y1="-263.0295" x2="-176.199" y2="-263.0295" gradientTransform="matrix(120.3141 89.9541 -89.9541 120.3141 -2271.0613 47562.4219)">
		<stop  offset="0" style="stop-color:#A7986E"/>
		<stop  offset="0.4417" style="stop-color:#FFE4C7"/>
		<stop  offset="1" style="stop-color:#A7986E"/>
	</linearGradient>
	<polygon style="clip-path:url(#SVGID_49_);fill:url(#SVGID_50_);" points="114.3,23 127.2,5.8 143.8,18.3 130.9,35.5 	"/>
</g>
<g>
	<defs>
		<path id="SVGID_51_" d="M138.8,17.2v7.4c0,4.1,2.6,4.9,5.5,5.1c2.4,0.1,3.6,0,4.4,0c0.3,0,0.4-0.1,0.4-0.4v-2.1
			c0-0.2-0.2-0.5-0.4-0.5c-1.5-0.1-3.1-0.2-4.6-0.3c-1.1,0-1.4-0.4-1.4-1.6v-2.4c1.9,0.1,3.9,0.2,5.8,0.3c0.2,0,0.4-0.2,0.4-0.4
			v-2.1c0-0.2-0.2-0.5-0.4-0.5c-1.9-0.1-3.9-0.2-5.8-0.3v-2c0-1.2,0.4-1.5,1.4-1.5c1.5,0.1,3.1,0.2,4.6,0.3c0.2,0,0.4-0.2,0.4-0.4
			v-2.1c0-0.3-0.1-0.4-0.4-0.5c-0.8-0.2-1.9-0.4-4.4-0.5c-0.3,0-0.5,0-0.8,0C140.9,12.6,138.8,13.4,138.8,17.2"/>
	</defs>
	<clipPath id="SVGID_52_">
		<use xlink:href="#SVGID_51_"  style="overflow:visible;"/>
	</clipPath>
	
		<linearGradient id="SVGID_53_" gradientUnits="userSpaceOnUse" x1="-177.199" y1="-263.0295" x2="-176.199" y2="-263.0295" gradientTransform="matrix(119.8477 89.6057 -89.6057 119.8477 -2256.7537 47371.4102)">
		<stop  offset="0" style="stop-color:#A7986E"/>
		<stop  offset="0.4417" style="stop-color:#FFE4C7"/>
		<stop  offset="1" style="stop-color:#A7986E"/>
	</linearGradient>
	<polygon style="clip-path:url(#SVGID_52_);fill:url(#SVGID_53_);" points="130.5,23.6 142.5,7.7 157.3,18.8 145.4,34.7 	"/>
</g>
<g>
	<defs>
		<path id="SVGID_54_" d="M151.9,14v15.6c0,0.2,0.2,0.3,0.4,0.3c1,0.1,2,0.1,3,0.2c0.2,0,0.4-0.2,0.4-0.4v-9.3
			c0-0.2,0.1-0.2,0.1-0.2c0.1,0,0.1,0.1,0.2,0.2c0.7,1.3,1.4,2.6,2,3.9c0.2,0.3,0.4,0.4,0.7,0.4c0.6,0,1.2,0.1,1.8,0.1
			c0.3,0,0.5-0.1,0.7-0.3c0.7-1.2,1.3-2.3,2-3.5c0.1-0.1,0.1-0.1,0.2-0.1c0.1,0,0.1,0,0.1,0.2v9.4c0,0.3,0.2,0.5,0.4,0.5
			c1,0.1,2,0.2,3,0.3c0.2,0,0.4,0,0.4-0.3V15.4c0-0.5-0.3-0.8-0.8-0.9c-0.7-0.1-1.4-0.1-2.1-0.2c-0.5,0-0.8,0.2-1,0.5
			c-1.1,2-2.3,4-3.4,6.1c-0.1,0.2-0.2,0.3-0.2,0.3c-0.1,0-0.2-0.1-0.2-0.3c-1.2-2.2-2.3-4.5-3.4-6.7c-0.2-0.4-0.5-0.6-1-0.7
			c-0.7-0.1-1.4-0.1-2.1-0.2l-0.1,0C152.2,13.3,151.9,13.6,151.9,14"/>
	</defs>
	<clipPath id="SVGID_55_">
		<use xlink:href="#SVGID_54_"  style="overflow:visible;"/>
	</clipPath>
	
		<linearGradient id="SVGID_56_" gradientUnits="userSpaceOnUse" x1="-177.199" y1="-263.0295" x2="-176.199" y2="-263.0295" gradientTransform="matrix(120.2816 89.9298 -89.9298 120.2816 -2260.3918 47535.9297)">
		<stop  offset="0" style="stop-color:#A7986E"/>
		<stop  offset="0.4417" style="stop-color:#FFE4C7"/>
		<stop  offset="1" style="stop-color:#A7986E"/>
	</linearGradient>
	<polygon style="clip-path:url(#SVGID_55_);fill:url(#SVGID_56_);" points="143.3,24.8 157.4,6 175.7,19.7 161.7,38.5 	"/>
</g>
<g>
	<defs>
		<path id="SVGID_57_" d="M176.5,29.1c-1.9-0.2-2.8-1.5-2.8-4.2v-2.7c0-2.7,0.9-3.7,2.8-3.5c1.9,0.2,2.8,1.5,2.8,4.2v2.7
			c0,2.4-0.7,3.5-2.3,3.5C176.9,29.2,176.7,29.1,176.5,29.1 M169.9,21.9v2.7c0,5.2,2.9,7.5,6.7,8c3.7,0.5,6.6-1.1,6.6-6.3v-2.7
			c0-5.2-2.9-7.6-6.6-8.1c-0.4,0-0.8-0.1-1.1-0.1C172.2,15.4,169.9,17.2,169.9,21.9"/>
	</defs>
	<clipPath id="SVGID_58_">
		<use xlink:href="#SVGID_57_"  style="overflow:visible;"/>
	</clipPath>
	
		<linearGradient id="SVGID_59_" gradientUnits="userSpaceOnUse" x1="-177.199" y1="-263.0295" x2="-176.199" y2="-263.0295" gradientTransform="matrix(119.8693 89.6217 -89.6217 119.8693 -2246.9045 47366.1562)">
		<stop  offset="0" style="stop-color:#A7986E"/>
		<stop  offset="0.4417" style="stop-color:#FFE4C7"/>
		<stop  offset="1" style="stop-color:#A7986E"/>
	</linearGradient>
	<polygon style="clip-path:url(#SVGID_58_);fill:url(#SVGID_59_);" points="161.4,26.6 174.6,9 191.6,21.7 178.4,39.3 	"/>
</g>
<g>
	<defs>
		<path id="SVGID_60_" d="M185.8,17.3v10c0,5.1,2.9,6.9,6.5,7.4c3.6,0.6,6.5-0.3,6.5-5.4v-10c0-0.2-0.2-0.5-0.5-0.5
			c-1-0.2-1.9-0.3-2.9-0.5c-0.2,0-0.4,0.1-0.4,0.4v10c0,2.3-0.6,3.1-2.6,2.8c-2-0.3-2.6-1.4-2.6-3.7v-10c0-0.2-0.2-0.5-0.4-0.5
			c-1-0.1-2-0.3-2.9-0.4l-0.1,0C186,16.9,185.8,17.1,185.8,17.3"/>
	</defs>
	<clipPath id="SVGID_61_">
		<use xlink:href="#SVGID_60_"  style="overflow:visible;"/>
	</clipPath>
	
		<linearGradient id="SVGID_62_" gradientUnits="userSpaceOnUse" x1="-177.199" y1="-263.0295" x2="-176.199" y2="-263.0295" gradientTransform="matrix(120.264 89.9166 -89.9166 120.264 -2250.126 47515.6875)">
		<stop  offset="0" style="stop-color:#A7986E"/>
		<stop  offset="0.4417" style="stop-color:#FFE4C7"/>
		<stop  offset="1" style="stop-color:#A7986E"/>
	</linearGradient>
	<polygon style="clip-path:url(#SVGID_61_);fill:url(#SVGID_62_);" points="177.1,28.7 190.5,10.7 207.6,23.5 194.1,41.5 	"/>
</g>
<g>
	<defs>
		<path id="SVGID_63_" d="M200.8,19.7V22c0,0.2,0.2,0.5,0.5,0.5c1.2,0.2,2.4,0.4,3.6,0.7v13c0,0.3,0.2,0.5,0.4,0.5
			c1,0.2,1.9,0.4,2.9,0.6c0.2,0,0.5-0.1,0.4-0.4v-13c1.2,0.2,2.4,0.5,3.6,0.7c0.2,0.1,0.5-0.1,0.5-0.3V22c0-0.2-0.2-0.5-0.5-0.5
			c-3.7-0.8-7.4-1.4-11-2.1l-0.1,0C200.9,19.3,200.8,19.5,200.8,19.7"/>
	</defs>
	<clipPath id="SVGID_64_">
		<use xlink:href="#SVGID_63_"  style="overflow:visible;"/>
	</clipPath>
	
		<linearGradient id="SVGID_65_" gradientUnits="userSpaceOnUse" x1="-177.199" y1="-263.0295" x2="-176.199" y2="-263.0295" gradientTransform="matrix(119.4507 89.309 -89.309 119.4507 -2229.6926 47189.0586)">
		<stop  offset="0" style="stop-color:#A7986E"/>
		<stop  offset="0.4417" style="stop-color:#FFE4C7"/>
		<stop  offset="1" style="stop-color:#A7986E"/>
	</linearGradient>
	<polygon style="clip-path:url(#SVGID_64_);fill:url(#SVGID_65_);" points="192.1,30.9 205.1,13.6 221.4,25.8 208.5,43.1 	"/>
</g>
<g>
	<defs>
		<path id="SVGID_66_" d="M214.9,22.4v15.8c0,0.2,0.2,0.5,0.4,0.5c1,0.2,1.9,0.4,2.9,0.6c0.2,0,0.4-0.1,0.4-0.4v-6.5
			c1.8,0.4,3.6,0.8,5.5,1.2v6.5c0,0.3,0.2,0.5,0.4,0.6c1,0.2,1.9,0.5,2.9,0.7c0.2,0.1,0.4-0.1,0.4-0.3V25.3c0-0.2-0.2-0.5-0.4-0.5
			c-1-0.2-1.9-0.5-2.9-0.7c-0.2-0.1-0.4,0.1-0.4,0.3v6c-1.8-0.4-3.6-0.8-5.5-1.2v-6c0-0.2-0.2-0.5-0.4-0.5c-1-0.2-1.9-0.4-2.9-0.6
			l-0.1,0C215,22.1,214.9,22.2,214.9,22.4"/>
	</defs>
	<clipPath id="SVGID_67_">
		<use xlink:href="#SVGID_66_"  style="overflow:visible;"/>
	</clipPath>
	
		<linearGradient id="SVGID_68_" gradientUnits="userSpaceOnUse" x1="-177.199" y1="-263.0295" x2="-176.199" y2="-263.0295" gradientTransform="matrix(119.4527 89.3101 -89.3101 119.4527 -2225.9199 47185.0586)">
		<stop  offset="0" style="stop-color:#A7986E"/>
		<stop  offset="0.4417" style="stop-color:#FFE4C7"/>
		<stop  offset="1" style="stop-color:#A7986E"/>
	</linearGradient>
	<polygon style="clip-path:url(#SVGID_67_);fill:url(#SVGID_68_);" points="205.5,34.6 219.5,15.8 237.2,29 223.2,47.8 	"/>
</g>
</svg>
