<?xml version="1.0" encoding="utf-8"?>
<!-- Generator: Adobe Illustrator 21.0.0, SVG Export Plug-In . SVG Version: 6.00 Build 0)  -->
<svg version="1.1" id="Layer_1" xmlns="http://www.w3.org/2000/svg" xmlns:xlink="http://www.w3.org/1999/xlink" x="0px" y="0px"
	 viewBox="0 0 447.3 447.3" style="enable-background:new 0 0 447.3 447.3;" xml:space="preserve">
<style type="text/css">
	.st0{fill:none;stroke:#21409A;stroke-width:2;stroke-linecap:round;stroke-linejoin:round;stroke-miterlimit:10;}
	.st1{fill:#005BAA;}
	.st2{fill:none;stroke:#005BAA;stroke-width:10;stroke-linecap:round;stroke-linejoin:round;stroke-miterlimit:10;}
	.st3{fill:#FFFFFF;}
	.st4{fill:#FDB913;}
</style>
<g>
	<line class="st0" x1="271.3" y1="205.3" x2="287.3" y2="217.7"/>
	<line class="st0" x1="184.7" y1="214.3" x2="192" y2="219"/>
	<circle class="st1" cx="224.3" cy="223.3" r="156"/>
	<circle class="st2" cx="223.7" cy="223.7" r="218.7"/>
	<g>
		<path d="M153.3,403.4l-4.4,5.7l-5.8-2.4l17.7-21.9l7.4,3l-2.3,28.1l-6.1-2.5l0.7-7.2L153.3,403.4z M161.3,401.7l0.6-5.9
			c0.2-1.7,0.5-3.7,0.7-5.3l-0.1,0c-1,1.3-2.1,3.1-3.1,4.4l-3.6,4.7L161.3,401.7z"/>
		<path d="M181.8,392.4l5.9,1.4l-4.9,21.3l10.5,2.4l-1.1,5l-16.4-3.7L181.8,392.4z"/>
		<path d="M204.1,397.4c1.6-0.2,4.8-0.2,7.9,0c3.7,0.3,6,0.8,7.9,2.1c1.8,1.1,3,3.1,2.8,5.5c-0.2,2.4-1.7,4.5-4.8,5.4l0,0.1
			c3,1,5.1,3.5,4.9,7c-0.2,2.5-1.4,4.3-3.2,5.6c-2.1,1.4-5.4,2.1-10.7,1.7c-3-0.2-5.2-0.6-6.6-0.9L204.1,397.4z M208.6,420
			c0.6,0.1,1.3,0.2,2.3,0.2c2.8,0.2,5.3-0.7,5.5-3.5c0.2-2.7-2.2-3.9-5.2-4.1l-2.1-0.1L208.6,420z M209.4,408.1l2,0.1
			c3.2,0.2,5-1,5.1-3c0.1-2-1.3-3.2-4.1-3.4c-1.4-0.1-2.1-0.1-2.6,0L209.4,408.1z"/>
		<path d="M237,397.6l1.6,26.9l-6.1,0.4L231,398L237,397.6z"/>
		<path d="M271.7,405.2c1.8,8.7-2.4,15-10.2,16.5c-7.8,1.6-13.6-3.4-15.2-11c-1.6-7.9,2.3-14.9,10.1-16.4
			C264.5,392.7,270.2,397.9,271.7,405.2z M252.6,409.4c1.1,5.2,4.2,8.4,8.2,7.6c4-0.8,5.6-5.1,4.5-10.3c-1-4.8-4-8.4-8.1-7.6
			C253.2,400,251.6,404.3,252.6,409.4z"/>
		<path d="M285,415.4l-10.2-25l6.6-2.7l8.9,7c2.6,2,5.3,4.6,7.6,6.9l0.1,0c-1.7-3.2-3.2-6.5-4.7-10.3l-3-7.3l5.2-2.1l10.2,25
			l-5.9,2.4l-9.3-7.5c-2.6-2.1-5.5-4.6-7.9-7.1l-0.1,0.1c1.5,3.3,3,6.8,4.7,10.8l3.1,7.5L285,415.4z"/>
	</g>
	<g>
		<path d="M68.9,98.7c0.8-1.4,2.7-4,4.8-6.3c2.4-2.8,4.2-4.3,6.4-5c2-0.8,4.2-0.5,6.1,1.1c1.8,1.6,2.5,4.1,1.4,7.1l0.1,0.1
			c2.6-1.8,5.9-2,8.5,0.3c1.9,1.6,2.6,3.7,2.5,5.9c-0.1,2.5-1.6,5.6-5.1,9.6c-2,2.3-3.6,3.8-4.6,4.7L68.9,98.7z M80.6,100.9l1.3-1.5
			c2.1-2.4,2.2-4.6,0.7-5.9c-1.5-1.3-3.4-0.9-5.2,1.2c-0.9,1-1.3,1.6-1.6,2.1L80.6,100.9z M89.6,108.8c0.5-0.4,0.9-0.9,1.6-1.7
			c1.8-2.1,2.6-4.6,0.5-6.5c-2-1.8-4.4-0.6-6.4,1.7l-1.4,1.6L89.6,108.8z"/>
		<path d="M87,78.8c1.3-1.5,3.3-3.6,5.7-5.8c3-2.6,5.5-4,8-4.1c2.1-0.1,4,0.8,5.6,2.6c2.2,2.6,2,5.9,0.8,8.1l0.1,0.1
			c1.9-0.7,3.9,0,6,1.4c2.7,1.8,5.6,3.9,6.7,4.3l-4.7,4.1c-0.8-0.3-2.8-1.5-5.5-3.5c-2.8-2.1-4.3-2-6.2-0.3l-1.4,1.2l7,8l-4.5,4
			L87,78.8z M99.1,83.6l1.8-1.6c2.3-2,2.6-4.3,1.1-6.1c-1.6-1.8-3.7-1.7-5.8,0.1c-1.1,1-1.7,1.6-1.9,2L99.1,83.6z"/>
		<path d="M111.5,58.6l15.7,21.9l-4.9,3.5l-15.7-21.9L111.5,58.6z"/>
		<path d="M149.8,65.6c-1.3,1.5-4,4-7.1,5.7c-4.3,2.4-8,3.1-11.3,2.2c-3.3-0.9-6.2-3.3-8.1-6.7c-4.3-7.8-1.2-15.5,6.6-19.8
			c3-1.7,5.7-2.4,7.2-2.5l1.3,4.9c-1.6,0.1-3.4,0.6-6,2c-4.4,2.5-6.4,6.9-3.6,12c2.7,4.9,7.4,6,11.8,3.5c1.2-0.7,2.1-1.4,2.4-1.8
			l-2.8-5l-3.6,2l-2.3-4.2l8.8-4.9L149.8,65.6z"/>
		<path d="M150.2,37.7l3.6,9.7l9.4-3.5l-3.6-9.7l5.7-2.1l9.4,25.3l-5.7,2.1l-3.9-10.6l-9.4,3.5l3.9,10.6l-5.7,2.1l-9.4-25.3
			L150.2,37.7z"/>
		<path d="M179.5,33.9l-7.1,1.5l-1.1-5l20.2-4.4l1.1,5l-7.2,1.6l4.6,21.3l-5.9,1.3L179.5,33.9z"/>
		<path d="M222,36.5c0.7,8.9-4.2,14.6-12.1,15.2c-7.9,0.6-13.1-5-13.7-12.7c-0.6-8.1,4.1-14.5,12-15.1C216.4,23.2,221.4,29,222,36.5
			z M202.6,38.3c0.4,5.3,3.2,8.8,7.2,8.5c4.1-0.3,6.2-4.4,5.7-9.6c-0.4-4.9-3-8.8-7.2-8.5C204.3,29,202.2,33.1,202.6,38.3z"/>
		<path d="M226.1,50.3l2.1-26.9l7.1,0.6l4.8,10.3c1.4,3,2.7,6.4,3.7,9.6l0.1,0c-0.1-3.6,0.1-7.2,0.4-11.3l0.6-7.8l5.6,0.4l-2.1,26.9
			l-6.4-0.5L237,40.7c-1.4-3-2.9-6.6-3.9-9.9l-0.2,0c-0.1,3.6-0.3,7.4-0.6,11.8l-0.6,8.1L226.1,50.3z"/>
		<path d="M276.7,59c-0.4-0.7-0.7-1.5-1.2-2.3c-2.1,0.8-4.7,1.1-7.8,0.2c-6.3-1.8-8-6.3-6.9-9.9c1-3.4,3.6-5.3,7.1-6l0-0.1
			c-0.8-1.6-1.1-3.7-0.6-5.6c0.9-3.3,4.6-6.1,9.8-4.6c4,1.1,6.3,4.4,5.3,8.1c-0.7,2.6-2.9,4.4-7,5.2l-0.1,0.1c1,2.1,2.1,4.5,2.9,6.1
			c1.5-1.4,3-3.5,4-5.7l5.2,1.5c-1.8,3.8-4.1,6.7-7.1,8.6c1,2.1,2,4.2,3.1,6.4L276.7,59z M273.8,52.6c-1.1-2-2.5-5.1-4-8.1
			c-1.3,0.5-2.6,1.3-3.1,3c-0.6,2.2,0.5,4.5,3.2,5.3C271.4,53.3,272.8,53.1,273.8,52.6z M275.9,34.1c-1.5-0.4-2.7,0.6-3.1,2
			c-0.4,1.3-0.1,2.6,0.7,4.2c2.2-0.7,3.5-1.5,3.9-3C277.8,36.1,277.5,34.6,275.9,34.1L275.9,34.1z"/>
		<path d="M310.3,43.6l-4.8,9.2l8.9,4.6l4.8-9.2l5.4,2.8L312.2,75l-5.4-2.8l5.2-10l-8.9-4.6l-5.2,10l-5.4-2.8l12.4-23.9L310.3,43.6z
			"/>
		<path d="M343.9,80.9c-5.3,7.1-12.7,8.2-19.1,3.5c-6.4-4.7-6.6-12.4-2-18.6c4.8-6.5,12.6-8.2,18.9-3.5
			C348.4,67.2,348.3,74.9,343.9,80.9z M328.1,69.5c-3.2,4.3-3.4,8.7-0.1,11.2c3.3,2.5,7.5,0.7,10.7-3.5c2.9-3.9,3.6-8.6,0.2-11.1
			C335.4,63.6,331.2,65.3,328.1,69.5z"/>
		<path d="M342.1,98.4l13-25.1l4.7,4.7l-5.8,10.4c-1.7,2.9-3.2,5.7-5.1,8.5L349,97c2.8-1.8,5.6-3.5,8.5-5l10.6-5.7l4.6,4.6
			l-25.5,12.6L342.1,98.4z"/>
		<path d="M373.5,117.5l-6-7.9l-5.1,3.9l6.7,8.8l-4,3l-10.4-13.7l21.5-16.3l10.1,13.2l-4,3l-6.4-8.4l-4.5,3.4l6,7.9L373.5,117.5z"/>
	</g>
	<g>
		<path class="st3" d="M252.3,275c-0.3,0-31.4-2.5-86.9-18c0,0-0.1,0-0.1,0c-2.2-0.9-4.9-1.3-8-1.3c-10.1,0-22,4.5-23.7,5.2
			c-0.8,0.8-4,3.6-11.9,3.6c-0.8,0-1.6,0-2.4-0.1C99.4,263,89.9,253.7,89,252.7c-1.1-0.8-12.6-10.1-12.1-18.7
			c0.2-3.2,1.9-5.8,5.3-7.9c0.2-0.1,0.3-0.1,0.5-0.1c0,0,0,0,0,0c0.9,0,2,0,3.2,0c14.5,0,51.4-1.6,51.8-1.7
			c0.2,0,23.4-2.2,45.6-10.6c-1.6-2.9-3.1-3.6-5.6-4.9c-0.8-0.4-1.7-0.9-2.8-1.5c-1.1-0.8-3.9-1.6-11.7-1.6
			c-13.9,0-36.7,2.8-48.7,4.7c-13.9,2.2-44.2,5.2-44.5,5.2c-5.3,0.2-10.3,0.3-14.7,0.3c-20,0-31.9-1.9-34.4-5.5
			c-0.7-1-0.5-1.9-0.4-2c0.1-0.4,0.5-0.6,0.9-0.6c0.4,0,44.2-0.8,66.8-4.4c22.6-3.6,74-25.3,74.5-25.5c0.7-0.3,18.1-9.3,34.8-9.3
			c5.5,0,10.4,1,14.4,3c14.6,4.2,52.5,29.3,58.9,33.6c3.4-5.4,22.7-30.8,81.7-32.5c1.3,0,2.6,0,3.9,0c48.7,0,65.7,13.4,66.4,13.9
			c0.3,0.3,0.5,0.8,0.3,1.2c-0.2,0.4-0.5,0.6-0.9,0.6c0,0-0.1,0-0.1,0c-3.2-0.4-43.7-4-46.1-4.2c-1.5,0.2-20.3,2.9-39.5,13.8
			c-14.2,10.9-21.9,14-22.2,14.1c-2.3,0.9-5.5,2.4-7.1,3.9c0.4,0,0.8,0,1.2,0c11.5,0,19.2,7.5,19.5,7.8c0.1,0.1,11.2,10.8,19.3,15.1
			c17,2.5,19.6,13.6,19.7,14.1c0.1,0.3,0,0.6-0.2,0.8c-0.2,0.2-0.5,0.4-0.8,0.4c0,0-26.6-0.7-26.6-0.7c-1.2,0.1-23,2.3-38.9,10.2
			C283.8,274.2,253.6,275,252.3,275C252.3,275,252.3,275,252.3,275C252.3,275,252.3,275,252.3,275z"/>
		<path class="st1" d="M197.7,169.5c5,0,9.8,0.8,14,2.9c15.5,4.4,59.6,34,59.6,34s16.7-31.1,81.4-32.9c1.3,0,2.6,0,3.8,0
			c48.9,0,65.8,13.7,65.8,13.7c-3.4-0.4-46.3-4.3-46.3-4.3s-19.7,2.3-40,14c-14.3,11-22,14-22,14s-8,3-8.7,6
			c1.1-0.1,2.2-0.2,3.2-0.2c11.2,0,18.8,7.5,18.8,7.5s11.3,11,19.7,15.3c16.7,2.3,19,13.3,19,13.3l-26.7-0.7c0,0-22.7,2-39.3,10.3
			c-16.7,10.7-47.7,11.3-47.7,11.3s-30.7-2.3-86.7-18c-2.5-1-5.4-1.4-8.4-1.4c-11.2,0-24.3,5.4-24.3,5.4s-2.6,3.4-11.3,3.4
			c-0.7,0-1.5,0-2.3-0.1C99,262,89.7,252,89.7,252s-21-16.3-7-25c0.9,0,2,0,3.2,0c14.7,0,51.8-1.7,51.8-1.7s24.1-2.2,47-11.1
			c-2.6-5.2-4.8-5.2-9.3-7.8c-1.8-1.3-6.3-1.7-12.2-1.7c-15,0-38.7,3.1-48.8,4.7c-14.1,2.2-44.4,5.2-44.4,5.2
			c-5.5,0.2-10.3,0.3-14.6,0.3c-36.2,0-33.8-6.2-33.8-6.2s44-0.7,67-4.4s74.8-25.5,74.8-25.5S181,169.5,197.7,169.5 M197.7,167.5
			L197.7,167.5c-16.6,0-33.8,8.7-35.3,9.4c-2.2,0.9-52.2,21.8-74.2,25.4c-22.5,3.6-66.3,4.4-66.7,4.4c-0.8,0-1.5,0.5-1.8,1.3
			c-0.1,0.3-0.5,1.5,0.5,2.9c2.7,4,14.6,6,35.2,6c4.5,0,9.4-0.1,14.7-0.3c0,0,0.1,0,0.1,0c0.3,0,30.6-3,44.5-5.2
			c11.9-1.9,34.7-4.7,48.5-4.7c8.2,0,10.5,1,11.1,1.4c0,0,0.1,0.1,0.1,0.1c1.1,0.6,2,1.1,2.8,1.5c2,1,3.3,1.7,4.5,3.5
			c-21.3,7.8-43.1,10-44.2,10.1c-1.6,0.1-37.4,1.7-51.7,1.7c-1.3,0-2.3,0-3.2,0c0,0,0,0-0.1,0c-0.4,0-0.7,0.1-1.1,0.3
			c-3.6,2.2-5.6,5.2-5.7,8.7c-0.5,8.9,11.1,18.4,12.5,19.5c1.2,1.2,11,10.5,30.9,11.8c0.8,0.1,1.7,0.1,2.5,0.1
			c7.9,0,11.3-2.6,12.5-3.7c2.2-0.9,13.5-5.1,23.1-5.1c3,0,5.6,0.4,7.7,1.2c0.1,0,0.1,0,0.2,0.1c55.5,15.5,86.7,18,87.1,18.1
			c0,0,0.1,0,0.2,0c0,0,0,0,0,0c1.3,0,31.6-0.8,48.6-11.6c15.6-7.7,36.7-9.9,38.4-10.1L366,255c0,0,0,0,0,0c0.6,0,1.2-0.3,1.5-0.7
			c0.4-0.5,0.5-1.1,0.4-1.7c-0.1-0.5-2.8-12.2-20.3-14.8c-8-4.3-18.8-14.7-18.9-14.8c-0.3-0.3-7.4-7.3-18.3-8c1.3-0.7,2.8-1.4,4.2-2
			c0.3-0.1,8.1-3.2,22.4-14.2C355.7,188,374,185.3,376,185c3.3,0.3,42.8,3.8,46,4.2c0.1,0,0.2,0,0.2,0c0.8,0,1.5-0.5,1.8-1.2
			c0.3-0.8,0.1-1.8-0.6-2.3c-0.7-0.6-18-14.2-67-14.2c-1.3,0-2.5,0-3.9,0c-34,1-54.7,10-66.1,17.5c-9.1,5.9-13.9,11.8-15.9,14.7
			c-8.3-5.5-44-28.9-58.3-33.1C208.3,168.5,203.3,167.5,197.7,167.5L197.7,167.5L197.7,167.5z"/>
	</g>
	<ellipse cx="320" cy="237.3" rx="3.7" ry="2.7"/>
	<path class="st4" d="M336.7,243.3c0,0,5.5,4.4,2.8,9c3-1,26.5,0.6,26.5,0.6s0.5-0.9-2.2-4.5c-2.7-4.2-10.5-8.5-16.8-8.8
		C340.7,239.3,336.7,243.3,336.7,243.3z"/>
	<path class="st4" d="M336.7,243.3c0,0,5.5,4.4,2.8,9c10.4,0.1,26.5,0.6,26.5,0.6"/>
</g>
</svg>
