<?xml version="1.0" encoding="utf-8"?>
<!-- Generator: Adobe Illustrator 21.0.0, SVG Export Plug-In . SVG Version: 6.00 Build 0)  -->
<svg version="1.1" id="Layer_1" xmlns="http://www.w3.org/2000/svg" xmlns:xlink="http://www.w3.org/1999/xlink" x="0px" y="0px"
	 viewBox="0 0 240 240" style="enable-background:new 0 0 240 240;" xml:space="preserve">
<style type="text/css">
	.st0{fill:#FFFFFF;}
	.st1{fill:#BB8A1A;}
	.st2{fill:#00318A;}
	.st3{fill:#2B2F36;}
	.st4{fill:#9E8644;}
	.st5{fill:#A29165;}
	.st6{fill:#A48C4C;}
	.st7{fill:#FFFFFA;}
	.st8{fill:#A28C51;}
	.st9{fill:#A48C49;}
	.st10{fill:#FFFFFC;}
	.st11{fill:#03317F;}
	.st12{fill:#374041;}
	.st13{fill:#424740;}
	.st14{fill:#E1C278;}
	.st15{fill:#A48C4D;}
	.st16{fill:#323C41;}
	.st17{fill:#2B3B48;}
	.st18{fill:#BA8A1D;}
	.st19{fill:#2A3843;}
	.st20{fill:#1D2F44;}
	.st21{fill:#B3944A;}
	.st22{fill:#514E34;}
	.st23{fill:#596DB1;}
	.st24{fill:#586EB1;}
	.st25{fill:#D3D3D6;}
	.st26{fill:#596DB2;}
	.st27{fill:#D2D3D9;}
	.st28{fill:#CDD3E0;}
	.st29{fill:#B4C8EB;}
	.st30{fill:#D3D3D7;}
	.st31{fill:#5A6DB2;}
	.st32{fill:#EA0E16;}
	.st33{fill:#536EB5;}
	.st34{fill:#5A6EAE;}
	.st35{fill:#D7D3D5;}
	.st36{fill:#FDF7FB;}
	.st37{fill:#FDF8FD;}
	.st38{fill:#C6363B;}
	.st39{fill:#C63136;}
	.st40{fill:#576DB5;}
	.st41{fill:#D2D3D8;}
	.st42{fill:#D2D3D7;}
	.st43{fill:#EF0C14;}
	.st44{fill:#E31219;}
	.st45{fill:#EF0D14;}
	.st46{fill:#DC151B;}
	.st47{fill:#D3D3D8;}
	.st48{fill:#E1131A;}
	.st49{fill:#566DB5;}
	.st50{fill:#E21219;}
	.st51{fill:#F10B13;}
	.st52{fill:#F10C13;}
	.st53{fill:#E11219;}
	.st54{fill:#EB0F16;}
	.st55{fill:#E41118;}
	.st56{fill:#E90F16;}
	.st57{fill:#556DB6;}
	.st58{fill:#F00C14;}
	.st59{fill:#D1D3D8;}
	.st60{fill:#BC7D80;}
	.st61{fill:#C86D70;}
	.st62{fill:#C33539;}
	.st63{fill:#566DAF;}
	.st64{fill:#CE3439;}
	.st65{fill:#CC2B30;}
	.st66{fill:#CA1D23;}
	.st67{fill:#CDD3DF;}
	.st68{fill:#5A6DB1;}
	.st69{fill:#6C81B9;}
	.st70{fill:#FFF3F9;}
	.st71{fill:#FFF2F4;}
	.st72{fill:#F20B13;}
	.st73{fill:#F30B12;}
	.st74{fill:#043083;}
	.st75{fill:#CFD3DE;}
	.st76{fill:#D2D3D6;}
	.st77{fill:#586DB3;}
	.st78{fill:#C8CDE1;}
	.st79{fill:#586EAF;}
	.st80{fill:#4C68A4;}
	.st81{fill:#5A72AE;}
	.st82{fill:#2A3A46;}
	.st83{fill:#FFFFF8;}
	.st84{fill:#A69A77;}
	.st85{fill:#323B38;}
	.st86{fill:#143362;}
	.st87{fill:#9B916E;}
	.st88{fill:#3B4342;}
	.st89{fill:#FFFFF4;}
	.st90{fill:#FFFFF6;}
	.st91{fill:#023185;}
	.st92{fill:#28334A;}
	.st93{fill:#2F3C42;}
	.st94{fill:#FFFFF7;}
	.st95{fill:#FFFFF3;}
	.st96{fill:#06317B;}
	.st97{fill:#374654;}
	.st98{fill:#253C58;}
	.st99{fill:#2A3E55;}
	.st100{fill:#FFFFF5;}
	.st101{fill:#C2B388;}
	.st102{fill:#3E4B53;}
	.st103{fill:#FFFFF9;}
	.st104{fill:#293E58;}
	.st105{fill:#A0936B;}
	.st106{fill:#363A31;}
	.st107{fill:#AB955C;}
	.st108{fill:#464B44;}
	.st109{fill:#3B4544;}
	.st110{fill:#2C3F56;}
	.st111{fill:#2F3D49;}
	.st112{fill:#B0A789;}
</style>
<g>
	<path class="st0" d="M0,0h240v240H0V0 M108.3,5.3C86.8,7.4,65.9,15.8,49,29.2c-18,14.1-31.8,33.7-38.7,55.5
		c-5.1,15.2-6.3,31.5-4.9,47.5c1.6,15.2,6.2,30,13.6,43.4c10.6,19.3,26.9,35.5,46.3,46c16.7,9,35.7,13.9,54.8,13.7
		c18.1,0.2,36.2-4.2,52.4-12.5c15.6-7.9,29.3-19.5,39.8-33.4c10.2-13.5,17.3-29.3,20.7-45.8c2.5-11.5,2.8-23.4,1.8-35.2
		c-2.1-21.7-10.6-42.7-24.2-59.7c-13.7-17.4-32.4-30.8-53.4-37.8C141.5,5.4,124.7,3.8,108.3,5.3 M111.8,42.7
		c16.4-1.8,33.4,1.8,47.6,10.2c14.7,8.6,26.4,22.2,32.7,38.1c6.3,15.7,7.3,33.5,2.7,49.9c-4.5,16.6-14.8,31.4-28.6,41.6
		c-12.9,9.6-29,15.1-45.1,15.2c-16.8,0.4-33.6-5-47.1-15c-14-10.2-24.4-25.2-29-41.8c-4.5-16-3.6-33.5,2.4-49
		c6.8-17.6,20.1-32.5,36.9-41C92.9,46.5,102.3,43.7,111.8,42.7 M124.7,65.2c-2.7,0-5.8,0.3-7.4,2.8l-0.4,0c0,0.4,0.1,1.1,0.1,1.4
		c1.2,0.5,3,0.6,3.4,2.1c0.9,2.3-0.4,4.6-1.5,6.6c-1.2,0.4-2.4,0.9-3.7,0.7c-1.5-0.4-2.6-1.4-3.9-2.2l0.2,0.5c-0.4,1-0.7,2-0.5,3.1
		c0.3,2,2.2,3.1,3.5,4.3c-1.4,2.6-2.9,5.2-4.8,7.5c-2.8-0.1-5.6-0.6-8.5-0.9c-2-1.3-4.3-2.1-6.5-3c-0.7-1-1.3-1.9-2.1-2.8
		c2.3-1.2,4.5-2.5,6-4.7c2.3-3,2.8-7.1,1.5-10.6c-0.8-1.7-1.7-3.8-3.9-4c-2.5-4.3-8.4-6.9-13-4.4c-2.9,1-5.2,3.6-6.1,6.5
		c-1.1,4,0.3,9.1,4.2,11.1c0.6,0.5,1.2,1,1.8,1.4c-0.9,0.4-1.7,0.8-2.5,1.3c1.3,0.3,2.6,0.6,3.9,0.6c0,0.4,0,1.3,0,1.8
		c-1.5-0.1-3.3,0.1-4.1,1.6c-0.7,0.9-0.3,2.1-0.1,3.1c0.6,1.5-1.2,3-0.4,4.5c0.5,1.3,0.9,2.7,1.6,4.1c0.7,0.9,2,1,3.1,1.2
		c0.1,7.5,0.1,14.9,0.1,22.3c-2.5,1.5-5.7,2.8-6.3,5.9c-0.1,0.8-0.8,2,0.2,2.5l0.2-0.7l0.8-0.3c0.8,1.5,0.9,3.2,1.4,4.8l0.2-0.7
		c0.4-0.2,1.3-0.7,1.7-0.9c0.5,2.5,2.1,4.7,1.9,7.3c-0.1,4.3,0.2,8.7-0.2,13c-0.7,0.3-1.4,0.5-2.2,0.8c0,0.9,0.1,1.8,0.1,2.6
		c0,0.4-0.1,1.2-0.1,1.7c0.5,0.2,1.1,0.5,1.7,0.7c-0.8,1.1-1.4,2.4-1.3,3.8c0.8,1.7,2.3,2.8,4.1,3.4c0.4,1.4,1.7,2.2,3,2.7
		c-1.8,2.2-1.2,5.3-1.2,7.9c-0.1,1.1,0.4,2.1,1.1,2.9l0.1,0.4c1.6,0.3,1-2.3,2.2-2.9c0.1,2-0.4,4.7,1.7,5.8c0.8-1.2,1.6-2.3,2.5-3.5
		c0.3,0.2,1,0.7,1.4,0.9c0.2,0.3,0.5,0.8,0.6,1c0.1-0.3,0.3-0.9,0.5-1.2c0.6,1.6,1.6,2.9,3,4c0.8-1.7,1.8-3.4,3.1-4.8
		c0.6,0.5,1.2,0.9,1.8,1.3c1.1,1.1,2.3,2.1,3.6,2.9c0.6-1.3,0.8-2.8,1.6-4c2-0.8,4.8-0.3,6.1-2.4c1.7-2.8,1.7-6.3,3.6-9
		c1.7-2.4,4.7-3.1,7.2-4.4c-1.7-0.7-3.3-1.4-5-2.2c0.5-0.2,1-0.4,1.5-0.6c-1.1-0.4-2.1-0.8-3.2-1.2c0.3-1.4,0.3-3,1.3-4.2
		c1.7-2.1,4.3-3.1,6.6-4.2c1.5,3.1,4.1,5.7,7.4,7c0.8,1.4,2.1,2.3,3.4,3.2c0.3,1.8,0.3,3.6,0,5.3c-0.2,0.8-0.4,2.1-1.5,2.1
		c-3.4,0.6-7.7,0.1-10.2,3.1c-1.4,2.6-1.3,6.2,0.2,8.8c0.2,0.3,0.6,0.9,0.8,1.2c0.4-1.1,0.8-2.3,1.3-3.3c0.5,2.1,0.6,4.4,2.2,5.9
		c0.8-1.7,1.6-3.7,3.6-4.2c0.2,0.3,0.5,0.9,0.7,1.2c0.3-0.3,0.9-0.8,1.3-1c0.8,1.4,1.6,2.8,2.8,3.9c1-1.5,2-2.9,3.3-4.1l0.4,0.4
		c1.2,1,2.4,2,3.6,3c0.5-0.8,1-1.6,1.4-2.4c1.4-0.6,3.3-0.5,4.1-1.9c0.5-2,0-4,0-6c-0.4-6.9,1.5-14.1,6.4-19.1
		c-2,0.2-4.1,0.3-6.1,0.4c0.8-1.2,1.7-2.3,2.6-3.4c-3.4,0.7-7.2,0.9-10.2-1.2c-0.9-2.2-2.1-4.5-1.8-7c0.3,0.2,1,0.6,1.3,0.8
		c1.7,2.4,4.6,3.4,7.3,4.1c4.2,1.1,9.4,0.9,12.6-2.5c2.6-2.4,3-6.4,2-9.7c-1.1-3.9-3.9-6.8-6.4-9.8c-1.2-1.1-1.2-3-0.1-4.1
		c0.9-1.1,2.4-1.1,3.7-1.4c0.2,1.6,0.1,3.1,0.1,4.7c0.8-0.4,1.7-0.6,2.4-1.2l0.5-0.5c0.5,1.4,0.7,3,0.9,4.5c3.4-1.3,6.1-4.8,5.9-8.5
		c0-2.7-1.7-5.2-4.2-6c-1.6-2.3-4-4-6.8-4.4c2-1.8,4.2-3.4,6.2-5.2c2.5-2.3,4.6-5.5,4.4-9c0.1-3-1.4-6.2-4.4-7.2
		c-3.3-5.1-11.2-6-15.7-2.1c-0.9-0.4-1.8-0.8-2.7-1.1c2.7-0.7,4.3-3.2,4.7-5.8c-1.9,1.2-3.9,3.2-6.3,2.5c1-1.8,2.5-3.4,3.3-5.4
		c-0.4-1.6-2.2-2.4-3.3-3.4c-1.7-1.4-3.5-2.6-4.5-4.6c-4.7-0.7-10-0.9-13.6-4.4c-1.6-1.2-2.1-3.3-3.4-4.8
		C126.9,59.3,123.9,61.7,124.7,65.2 M143.6,83.4c0.8-1.1,2-3.5,3.7-2.1c1,0.7,2,1.4,3.1,2.1c0.1,0.8,0,1.6,0.3,2.3
		c0.8,0.6,1.8,1,2.8,1.5c-0.3,1.7-0.4,3.5-0.4,5.3c0.4-0.6,0.8-1.2,1.2-1.9c0.8-0.6,1.6-1.2,2.5-1.7c0.1,2.1,0.1,4.2-0.1,6.3
		c1.3-1.6,2.9-2.9,4.7-3.8c0,1.3-0.4,2.7-1.3,3.7c-3.7,4.4-9.3,7.3-11.8,12.8c-1.8,4.6,0.1,9.8,3,13.5c2.2,3,5.2,5.6,6.3,9.3
		c0.7,2.4,0.1,5.3-2.2,6.6c-2.8,1.6-6.4,0.8-9.1-0.7c-2.3-5.1-3.4-10.6-4.2-16.1c-0.4-3.5-2.9-6.5-2.5-10.1c2.5-0.4,5.6-0.4,7.3-2.5
		c2-2.1,1.4-5.4,0.3-7.7c-0.7,0.3-1.4,0.5-2.1,0.8c-0.1-0.3-0.3-0.8-0.4-1c-0.4-1-0.8-2-1.2-3c-1.3,1.1-2.7,2.2-4.5,2.3
		c-0.4-2.7-1.3-6.3,1.4-8.1c2.3-1.8,4.9,0.5,7,1.6c-0.2-2.1-0.3-4.2-0.5-6.4c-1.1,0-2.2-0.1-3.4-0.1
		C143.6,85.4,143.6,84.4,143.6,83.4 M93.1,102.6c1.8,0.3,3.7,0.6,5.5,1c0.1,0.7,0.3,1.5,0.2,2.3c-0.7,1.1-2,1.6-3,2.3
		c1,0.9,2,1.8,3.1,2.5c1.2,0.9,2.3,1.9,3.4,2.9c-3,2-5.9,4.3-9.1,6C93,114,92.9,108.3,93.1,102.6 M106.9,136.9c5.3-1,9-5,13-8.2
		c0.4,0.6,0.9,1.3,1.3,1.9c-4.7,1.9-8.9,5-12.6,8.5c-2.8,2.8-5.6,6.5-4.8,10.8c0.5,2.2,3.1,3,3.8,5c-0.2,3.4-0.9,7-2.9,9.8
		c-2.7,3-7,1.4-10.5,1.4c-0.1-2.6,0.1-5.2,0.6-7.7c0.6-2.1-1.8-3.3-1.7-5.3c0-3.4-0.1-6.8,0.1-10.2c0.8-1.8,1.7-3.5,2.4-5.3
		c1.6-2.1,4.4-3.3,7.1-3.3C104.2,134.7,105.5,136,106.9,136.9L106.9,136.9z"/>
	<path class="st1" d="M108.3,5.3c16.4-1.5,33.2,0.1,48.9,5.5c21,7.1,39.7,20.4,53.4,37.8c13.5,17.1,22,38.1,24.2,59.7
		c1,11.7,0.6,23.6-1.8,35.2c-3.4,16.5-10.6,32.3-20.7,45.8c-10.5,13.9-24.2,25.5-39.8,33.4c-16.1,8.2-34.2,12.7-52.4,12.5
		c-19,0.2-38-4.7-54.8-13.7c-19.4-10.5-35.7-26.7-46.3-46c-7.4-13.4-12-28.2-13.6-43.4c-1.4-15.9-0.2-32.2,4.9-47.5
		C17.2,62.8,30.9,43.3,49,29.2C65.9,15.8,86.8,7.4,108.3,5.3 M104,8.7c-26.7,3.8-51.8,17.5-69.3,38c-12.6,14.7-21.4,32.6-25,51.7
		c-2.3,10.4-1.8,21.2-1.6,31.7c1.5,19.1,8.4,37.8,19.3,53.5c18.4,27,49.2,45.3,81.8,48.1c5.4,0.3,10.8,0.2,16.2,0.2
		c7.8,0,15.5-1.3,23-3.3c15.5-4,30.1-11.5,42.5-21.6c23.4-18.9,38.8-47.5,40.9-77.6c0.1-9.8,0.7-19.8-1.3-29.5
		c-3-17.2-10.2-33.7-20.8-47.6c-11.2-15.1-26.5-27.2-43.6-34.9c-13.7-6.1-28.7-9.8-43.8-9.5C116.3,8,110.1,7.8,104,8.7 M46.8,187.8
		c1.6-2.9,4.3-4.9,6.6-7.2c2.3,1.9,4.3,4.1,6.5,6.2c-0.6,0.8-1.3,1.5-2,2.2c-1.5-0.8-2.8-2.4-4.7-2.1c0.8,1.3,1.7,2.6,2.6,3.9
		c-0.8,0.6-1.6,1.2-2.5,1.7c-0.9-0.7-1.7-1.9-2.9-2.1c-1.5,1.1-2.6,2.7-4.4,3.4l0.3-0.4c1.3-1.5,2.7-2.8,4.1-4.2
		c1.1,1,2.3,1.9,3.5,2.9c0.3-0.6,0.7-1.2,1-1.8c-0.9-1-1.8-1.9-2.7-2.9c0.6-0.7,1.3-1.3,2-2c1.1,1,2.1,1.9,3.2,2.9
		c0.5-0.5,0.9-0.9,1.4-1.4c-1.6-2.1-3.5-3.9-5.5-5.5C51.1,183.6,49,185.8,46.8,187.8 M185.3,180.7c1.1,0.1,2.2,0.1,3.3,0.1
		c1.8,0.5,2.3,2.7,3.8,3.7c1,0.8,2.3,1.3,2.8,2.6c0.5,1.5,0.5,3.3-0.7,4.5c-1.7,1.9-3.5,3.7-5.4,5.3c-2.5-2.2-4.7-4.7-7.1-7
		c-1-1-2-2.1-3-3.1C181.1,184.7,183,182.5,185.3,180.7 M185.2,181.6c-1.9,1.5-3.5,3.4-5.2,5.1c2.8,3.3,6,6.2,9.1,9.2
		c2.2-2.3,6.2-4.4,5.6-8.1c-0.1-1.7-2.1-2.1-3.3-3.1c-0.9-0.9-1.4-2.2-2.3-3C188,180.9,186.3,180.6,185.2,181.6 M59.4,189.9
		c1.8-0.1,3.6-0.1,5.4,0C63,190.1,61.2,190.1,59.4,189.9 M62,193.4c1.2-0.3,2.5,0.1,3.1,1.2c1,3.2-2.1,7.1-5.5,6.6
		C56.6,199.2,59.3,194.5,62,193.4 M62.6,194c-1.9,0.4-3,2.4-3.8,4.1c-0.6,1.4,0.9,3,2.3,2.5c1.7-0.6,3-2.2,3.7-3.9
		C65.4,195.3,64,193.6,62.6,194 M161.2,200.6c-1.1-2.1,1.9-2.7,3.2-3.6c2,2.7,3.2,5.8,5.2,8.5c1.5,0.5,2.9-0.9,4.3-1.4
		c0.5,1,1.7,2.1,1.1,3.2c-2.3,1.7-4.9,3-7.4,4.3C165.5,207.9,163.2,204.3,161.2,200.6 M161.4,199.3c1.8,4,4.1,7.7,6.5,11.4
		c2.3-1.2,4.5-2.5,6.7-3.8c-0.3-0.7-0.7-1.3-1-2c-1.3,0.7-2.5,1.5-3.8,2c-0.7-0.2-0.9-1.1-1.3-1.6c-1.4-2.5-2.8-4.9-4.3-7.3
		C163.3,198.4,162.4,198.8,161.4,199.3 M72.4,198.3c3.3-0.7,7.6,0.1,8.9,3.7c0.6,2,0.6,4.1,0,6.1c-0.2,0.9-1,1.4-1.5,2
		c1.4-2.7,2.5-6.2,0.5-8.9c-1.6-2.5-4.7-2.6-7.4-2.9L72.4,198.3 M84,202.6c0.3,0,0.8,0,1,0c2.2,0.8,4.4,1.7,6.7,2.4
		c0.6,0.2,1.2,0.4,1.8,0.6c0,1.1-0.2,2.2-0.8,3.2c-0.9-0.1-1.8-0.3-2.6-0.3c-1,0.8-1.2,2.2-1.6,3.3c-0.6,2.1-1.3,4.1-2.3,6.1
		c-1.2-0.3-3.1-0.2-3.8-1.4c0-2.1,0.9-4.2,1.9-6.1c0.3-0.5,0.7-1,1-1.5c-0.9,2.4-1.7,4.8-2.5,7.2c1,0.4,2,0.8,3,1.2
		c1.3-3.3,2.4-6.6,3.7-9.9c1,0.2,2,0.4,3,0.6c0.1-0.7,0.3-1.3,0.4-2c-2.7-1.1-5.5-2.1-8.3-2.9c-0.2,0.4-0.7,1.1-0.9,1.5
		c0.9,0.6,1.7,1.2,2.6,1.8c-0.1,0.2-0.2,0.5-0.3,0.7c-0.9-0.6-1.9-1.2-2.9-1.8C83.4,204.4,83.7,203.5,84,202.6 M59.4,204.9
		c1.5-0.1,3.1-0.2,4.6,0C62.5,205.2,60.9,205,59.4,204.9 M160.4,208.9c1.1,0.1,2.2,0.3,3.2,0.4c-0.4,2.8-1.7,5.7-4.6,6.6
		c-2.2,0.6-5,0.7-6.7-1.2c2.3,0.8,5.1,1.6,7.4,0.2c1.9-1,2.8-3.1,3.2-5.1c-0.6-0.1-1.3-0.1-1.9-0.2c-0.5,0.7-0.9,1.4-1.4,2.1
		C159.9,210.9,160.1,209.9,160.4,208.9L160.4,208.9z"/>
	<path class="st2" d="M104,8.7c6.1-0.9,12.2-0.7,18.4-0.8c15.1-0.3,30,3.4,43.8,9.5c17.1,7.8,32.4,19.8,43.6,34.9
		c10.6,13.9,17.8,30.4,20.8,47.6c2,9.7,1.4,19.7,1.3,29.5c-2.2,30-17.6,58.7-40.9,77.6c-12.4,10.1-27,17.6-42.5,21.6
		c-7.5,1.9-15.2,3.3-23,3.3c-5.4,0-10.8,0.1-16.2-0.2c-32.6-2.8-63.4-21.1-81.8-48.1c-10.9-15.8-17.8-34.4-19.3-53.5
		c-0.3-10.6-0.7-21.3,1.6-31.7c3.6-19,12.5-37,25-51.7C52.2,26.3,77.4,12.5,104,8.7 M114.8,12.8c0,7.9,0,15.7,0,23.6
		c5.3,0.3,10.6,0.4,15.9,0c0.4-2.1,0.4-4.3,0-6.4c-2.3-0.2-4.6-0.3-6.9-0.4c-0.5-5.6,0.2-11.3-0.4-16.9
		C120.6,12.7,117.7,12.7,114.8,12.8 M92.5,16c-0.2,1.5,0,3,0.4,4.5c1.3,6.2,2.3,12.4,3.8,18.6c5-0.7,9.9-1.6,14.7-2.9
		c-0.2-1.7-0.6-3.5-1-5.1c-0.7,0.1-1.4,0.2-2.1,0.3c-1.7,0-3.3-0.1-5-0.2c0.1-0.6,0.2-1.2,0.3-1.8c0.9-0.3,1.8-0.6,2.5-1.3
		c1-0.2,2.1-0.4,3.1-0.5c0-1.9-0.3-3.9-1.1-5.6c-1,0.2-2,0.4-2.9,0.6c-1.4-0.1-2.9-0.2-4.2-0.8c1.1-0.7,2.3-1.2,3.3-2
		c1.2-0.2,2.4-0.5,3.5-0.9c-0.6-1.6-0.3-3.9-1.6-5.1C101.6,14.2,97.1,15.5,92.5,16 M139.9,16.9c-3.3,1.5-4.3,5.7-3.1,8.9
		c1.1,2.3,3.3,3.7,5.1,5.4c-0.4,1.2-1.2,2.1-2.1,2.9c-0.6-1.2-1.3-2.5-1.9-3.7c-1.7,0.2-3.3,0.8-4.8,1.5c0.4,1.5,0.9,3,1.9,4.3
		c2.4,3.2,7,4,10.7,2.7c3-1.1,5-4.4,4.6-7.6c-0.4-1.8-1.4-3.5-2.7-4.7c1.6-0.4,3.2-0.9,4.6-1.7C153.3,18.5,145.2,13.9,139.9,16.9
		 M76.2,22.3c0.6,2.1,1.7,4,2.7,5.9c-0.4,0.7-0.5,1.7-1.2,2.1c-0.7,0.1-1.4,0-2.2,0c-1-2.1-1.9-4.2-2.9-6.2
		c-2.4,0.9-4.8,1.8-6.9,3.4c1.9,4.2,3.9,8.4,5.9,12.5c1.3,2.7,2.4,5.6,4.1,8.2c2.4-0.7,4.6-1.8,6.8-3.2c-0.8-2.1-1.8-4-2.8-6
		c0.1-0.8,0.2-1.5,0.3-2.3c0.8-0.4,1.7-0.8,2.5-1.2c1.2,2.5,2.3,5.1,3.6,7.6c2.5-0.6,4.7-1.9,6.9-3.1c-3-7.1-6.6-13.9-9.8-20.9
		C80.6,19.7,78.4,21.1,76.2,22.3 M160.2,24.6c-2.8,5.9-6,11.5-8.6,17.4c4.3,2.6,8.8,4.8,13.4,6.8c1-1.5,1.8-3.2,2.3-4.9
		c-1.6-0.9-3.3-1.6-4.9-2.5c0-0.9,0.1-1.9,0.2-2.8c1.3,0.3,2.6,0.6,3.9,0.8c0.7,0.4,1.5,0.8,2.2,1.1c1.1-1.5,2-3.2,2.4-5.1
		c-1.5-0.8-3-1.6-4.5-2.4c-0.1-0.6-0.1-1.3-0.2-1.9c1.2,0.2,2.4,0.3,3.6,0.4c0.9,0.5,1.8,0.9,2.7,1.3c1-1.6,2-3.2,2.4-5.1
		c-4.2-2.1-8.3-4.4-12.6-6.3C161.3,21.9,160.9,23.6,160.2,24.6 M53.5,36.1c-5.7,2-9.5,8.8-7.5,14.6c1.2,3.4,3.5,6.4,6.6,8.3
		c6.4,3.5,16.1-0.1,17.4-7.6l0.7,0.1c0.1-2,1.2-5.1-0.7-6.5c-0.1-0.3-0.3-0.8-0.5-1.1c-1.8,0.2-3.5,0.5-5.2,1.1
		c0.4,2.9,0.4,6.5-2.7,7.9c-0.7-0.7-2.1-0.6-2.8,0.1c-2.2-0.9-4.2-2.5-5.3-4.6c-1.1-1.9-1-4.6,0.7-6.1c2,0,3.9-0.2,5.8-0.7
		c0.2,0,0.5,0.1,0.7,0.1c0.4-2,0.8-3.9,0.6-5.9C58.9,35.5,56.1,35.3,53.5,36.1 M184,41.2c-5.4,2.9-11,5.5-16.3,8.6
		c1.1,1.3,2.2,2.9,3.9,3.4c1-0.3,2-0.8,2.9-1.3c1,0.2,2.2,0.1,3,0.9c1,0.9,0.6,2.4,0.7,3.6c-0.2,0.8-1.1,1.8-0.3,2.6
		c1.5,1.8,3.3,3.4,5.3,4.6c1.8-5.3,3.6-10.7,5.3-16c1-3.3,2.4-6.5,3.1-10C188.9,38.4,186.5,39.9,184,41.2 M117.8,39.7
		c-13.2,0.2-26.2,3.9-37.6,10.5c-16.6,9.5-29.7,25.1-36,43.2c-4.1,11.6-5.3,24.1-4,36.2c2,17,9.6,33.4,21.5,45.7
		c12.4,13.3,29.6,22,47.6,24.4c13.9,1.8,28.3,0.1,41.3-5.3c16.4-6.7,30.4-19.1,39.3-34.5c11-18.9,13.5-42.4,7.1-63.3
		c-5.4-18.2-17.7-34.2-33.7-44.4C149.8,43.6,133.7,39.2,117.8,39.7 M24.8,84.8c-5,1.4-8.5,6.7-7.9,11.8c0.4,4.2,3.3,8,7.2,9.4
		c4.2,1.7,9.4,0.4,12.3-3c3.5-3.8,3.8-10,0.7-14.1C34.4,85.1,29.2,83.4,24.8,84.8 M209,84.8c-4.8,1.3-8.5,6.2-8,11.3
		c0,6.3,6.3,11.6,12.5,10.6c5.8-0.5,10.4-6.1,9.8-11.9C223.2,87.8,215.6,82.6,209,84.8 M22.6,135.4c-1.4-0.1-3.3-0.1-4,1.5
		c-0.7,2.1-1.5,4.1-2.4,6.1c-0.7,1.5,0.6,2.8,1.6,3.7c-0.2,1.1-0.6,2.1-0.4,3.2c0.4,1.1,1.5,1.7,2.4,2.4c1.3,0.9,2.4,2.1,3.7,3
		c1.3,0.7,2.7-0.1,4-0.5c1.1,0.7,2.6,1.7,3.9,0.9c1.8-1.2,3.6-2.4,5.5-3.5c1.5-0.9,1.1-2.8,0.9-4.3c1.1-0.7,2.5-1.7,2.2-3.3
		c-0.6-2.2-1.2-4.4-1.7-6.6c-0.4-1.5-2.2-1.7-3.5-2c-0.5-1.3-1.1-3-2.8-3.1c-2.3,0-4.6-0.3-7-0.4C23.7,132.5,23.2,134.2,22.6,135.4
		 M208.2,133.2c-1.1,0.5-1.2,1.8-1.5,2.8c-1.4,0.3-3.3,0.4-3.7,2.1c-0.5,2.2-1.1,4.4-1.7,6.6c-0.3,1.6,1.1,2.6,2.2,3.4
		c-0.1,1.2-0.5,2.8,0.5,3.7c1.1,0.9,2.5,1.5,3.7,2.3c1.3,0.8,2.5,2.1,4.1,1.8c0.8-0.3,1.4-0.9,2.1-1.4c1.3,0.8,2.9,1.6,4.3,0.6
		c1.6-1.4,3.3-2.8,4.9-4.1c1.4-1.1,0.7-3,0.4-4.4c1.1-0.9,2.4-2.2,1.7-3.8c-0.9-2-1.6-4.1-2.5-6.1c-0.7-1.5-2.5-1.4-3.9-1.4
		c-0.5-1.1-0.9-2.5-2.2-2.8c-1.6-0.2-3.2,0.3-4.8,0.3C210.6,132.9,209.3,132.6,208.2,133.2 M185.3,180.7c-2.3,1.8-4.2,4-6.3,6
		c-0.5,0.5-1.1,1-1.6,1.5c-0.7,0.7-1.4,1.4-2.2,2.1c1.3,3.4,5.3,5.5,5.3,9.3c-0.4,0-1.1-0.1-1.5-0.2c-2.2-2.2-3.8-5-5.7-7.4
		c-1.5,0.5-2.7,1.5-3.8,2.5c1.8,2.7,3.5,5.5,6,7.6c0.1,0.2,0.3,0.6,0.4,0.8c2.7,1.9,7.4,1.1,8.3-2.4c1.3-0.2,1.3-3.2,0-3.5
		c-0.2-0.9-0.7-1.7-1.3-2.5c-0.5-1.6-1.2-3.2-0.9-4.9c2.4,2.3,4.7,4.7,7.1,7c1.9-1.7,3.8-3.4,5.4-5.3c1.2-1.2,1.2-3,0.7-4.5
		c-0.5-1.2-1.8-1.8-2.8-2.6c-1.5-1-1.9-3.2-3.8-3.7C188.4,179.4,185.5,179.4,185.3,180.7 M46.8,187.8c-1,0.9-1.9,1.9-2.9,3
		c0.8,0.9,1.7,1.8,2.6,2.7l-0.3,0.4c1.8-0.7,2.9-2.3,4.4-3.4c1.2,0.2,1.9,1.4,2.9,2.1l-0.3,0.2c0.5,0.3,1.1,0.7,1.6,1
		c-0.5,2.2-1.4,4.5-0.1,6.6l0.3-0.6c1.5,3.9,6.6,5.9,10.3,3.7c0.4,0.1,1.3,0.2,1.7,0.3c0.1,2.4,0.4,5.1,2.7,6.4
		c2.7,2.8,7.7,2.9,10.3-0.1c0.5-0.6,1.3-1.2,1.5-2c0.8-1.1,1.9-1.9,3.1-1.1c-0.1,1.1-0.2,2.3-0.2,3.4c-1,1.9-1.8,3.9-1.9,6.1
		c0.7,1.2,2.6,1,3.8,1.4c1-1.9,1.6-4,2.3-6.1c1.2-1.5,2.8-2.5,4.6-2.9l-0.4-0.1c0.6-1,0.7-2.1,0.8-3.2c-0.6-0.2-1.2-0.4-1.8-0.6
		c-1.5-2-4.3-2.4-6.7-2.4c-0.3,0-0.8,0-1,0c-0.9-0.2-1.8-0.4-2.6-0.6c-1.3-3.6-5.6-4.3-8.9-3.7c-0.9,0-1.7,0.5-2.6,0.7
		c0-1.7-0.1-3.4-0.9-5c-0.1,0.3-0.3,0.8-0.4,1c-0.9-1.9-2.2-3.8-4.3-4.3c-1.9-0.4-4.1-0.6-5.8,0.6c-0.7-0.2-1.5-0.3-2.2-0.5
		c0.6-0.6,1.1-1.2,1.7-1.8c0.7-0.7,1.3-1.5,2-2.2c-2.2-2.1-4.1-4.3-6.5-6.2C51,182.9,48.4,185,46.8,187.8 M59.4,189.9
		c1.8,0.2,3.6,0.2,5.4,0C63,189.8,61.2,189.8,59.4,189.9 M161.2,200.6c2,3.8,4.4,7.3,6.4,11c2.5-1.3,5.1-2.6,7.4-4.3
		c0.6-1.1-0.6-2.3-1.1-3.2c-1.4,0.5-2.8,1.9-4.3,1.4c-2-2.7-3.2-5.8-5.2-8.5C163.1,197.9,160.1,198.5,161.2,200.6 M148.6,208.2
		c-0.1,2.1,0.8,4.3,2.6,5.5c0.4,0.4,0.8,0.8,1.2,1.2c1.7,1.8,4.5,1.8,6.7,1.2c2.9-0.9,4.2-3.9,4.6-6.6c-1.1-0.2-2.1-0.3-3.2-0.4
		c-0.3,1-0.5,1.9-0.8,2.9c-0.1,0.2-0.4,0.6-0.6,0.8c-1.1-0.3-2.1-0.5-3.1-1c-1.2-1-1.6-2.7-2.1-4.1c0.6-0.8,1.1-1.6,1.8-2.2
		c1.3,0,2.6,0.4,3.9,0.7c0.8-1,1.4-2.1,1.5-3.3c-1.6-0.8-3.3-1.6-5.1-1.5C152.4,201.6,149.1,204.6,148.6,208.2 M59.4,204.9
		c1.5,0.2,3.1,0.4,4.6,0C62.5,204.7,60.9,204.7,59.4,204.9 M95.3,206.1l0.5,0.1c-0.4,1.2-0.7,2.4-1,3.7c-1,1.3-1.5,2.9-1.1,4.5
		c-0.6,1.9-1.1,3.8-1.1,5.7c-0.1,1,1.7,1.3,2.1,0.5c0.8,0.3,1.6,0.5,2.4,0.7c1.2,1.4,3.6,1.2,4.9,0.1c2-1.6,2.3-4.2,1.9-6.6
		c0.1-0.2,0.2-0.6,0.2-0.8c0.2-0.1,0.7-0.3,0.9-0.4c0.9-2.3-0.1-5.2-2.5-6C100.5,206.1,97.8,205.8,95.3,206.1 M112.4,207.5
		c-1.8,3.2-3.2,6.5-4.9,9.7c-0.9,1.7-1.9,3.4-2.2,5.3c0.1,1.2,2.8,1.2,2.8-0.1c0.8-0.9,1.5-1.8,2.2-2.8c1.9,0.2,2.2,2.2,2.9,3.6
		c1.4,0.1,2.8,0.2,4.3,0.3c-0.6-3-1.7-5.8-2.6-8.7C114.2,212.4,113.7,209.8,112.4,207.5 M129.8,208.5c-0.8,1.5,0,3.2,0.2,4.8
		c0.7,2.9,0.3,6.2,1.9,8.8l0,0.6l0.3,0.5c2.4,0.5,4.8-0.4,7-1.3c0.6-0.1,1.3-0.3,1.9-0.4c-0.2-1.2-0.3-2.4-0.5-3.6
		c-1.3-0.3-2.7-0.3-4.1-0.3c-0.3-1.7-0.5-3.5-0.7-5.3c-0.2-0.8,0-2.1-1.1-2.3c-0.1-0.7-0.2-1.4-0.3-2
		C133,207.2,131.2,207.6,129.8,208.5 M119.5,208.9c0,2-0.3,4.1,0.5,6.1c0,1.2,0.1,2.5,0.1,3.7c-0.9,1.6-0.3,3.5-0.2,5.2
		c3.2,0.3,6.5-0.1,9.6-0.6c0.1-1.2,0.1-2.5,0.1-3.7c-1.6-0.1-3.2-0.1-4.7-0.2c-0.1-3.5,0.2-7-0.3-10.5
		C123,208.5,121.3,208.5,119.5,208.9 M129.7,57.9c1.2,1.5,1.8,3.5,3.4,4.8c3.6,3.5,8.9,3.7,13.6,4.4c1,2,2.9,3.2,4.5,4.6
		c-1.2,3-3.4,5.4-5.2,8c-1.1-0.7-2.1-2.3-3.6-1.6c-2,0.9-3.1,3.3-2.6,5.4c1.3,0.1,2.6,0.1,3.9,0.1c0,1-0.1,2,0,3
		c0.1,1.2,0.2,2.4,0.4,3.6c-2-1.2-4.3-3-6.7-1.9c-2.7,1.4-2.6,5-1.8,7.5c0.4,1.9,2,3.1,3.6,3.8c1.8-0.1,3.2-1.2,4.5-2.3
		c0.4,1,0.8,2,1.2,3c0,1.8-0.1,4-1.6,5.3c-1.8,2-4.7,2-7.2,2.1c-0.5,3.5,2.1,6.2,2.5,9.6c1,5.9,1.8,12.1,4.9,17.4
		c1.6,3.5,4.8,6.2,8.7,7c2.9,0.6,6.4-0.3,8.1-2.8c1.6-2.5,1.6-5.7,0.7-8.5c-1.8-5.1-6.6-8.4-8.8-13.3c-1.3-2.9-1.2-6.4,0.6-9.1
		c2.5-3.7,6.3-6.1,9.5-9.2c1.6-1.5,3.1-3.4,3.4-5.6c0.4-3.9-3.7-7.5-7.5-6.4c-2,0.5-2.9,2.5-3.8,4.1c-0.4,0.6-0.8,1.3-1.2,1.9
		c0-1.8,0-3.6,0.4-5.3c0.6-0.9,1.2-1.7,1.9-2.4c4.5-3.9,12.4-2.9,15.7,2.1c1.2,3.1,1.2,6.8-0.6,9.7c-3,4.8-8.2,7.4-12.3,11.1
		c-1.3,1.2-2.2,2.7-3,4.3c2.8-2,6-3.9,9.6-3.7c2.8,0.3,5.2,2.1,6.8,4.4c1.6,3.5,0.4,7.6-2.5,10.1l-0.5,0.5c0.4-2.3,1.2-5.1-0.5-7.1
		c-2-3-6.9-3.2-9.1-0.4c-1.2,1.3-1.2,3.1-1.1,4.7c2.8,3.9,6.6,7.3,7.7,12.1c1.2,4-0.3,8.8-4.1,10.8c-4.5,2.4-9.9,1.5-14.5-0.3
		c-0.3-0.2-1-0.6-1.3-0.8c-1.3-0.8-2.5-1.6-3.9-2.4c0.6,3.7,2.5,7.2,5.7,9.3c3,2.1,6.8,2,10.2,1.2c-0.9,1.1-1.8,2.2-2.6,3.4
		c-4.3,6-4.1,13.6-3.6,20.6c0.2,2-1.7,2.6-3.3,2.9c-1.4,0.1-1.8,1.6-2.5,2.6l-0.4-0.4l-0.3-0.3c-0.3-0.8-0.5-1.5-0.8-2.3
		c-0.4,0-1.2-0.1-1.6-0.2c-1.9-0.1-2.7,1.6-3.4,3c-0.3,0.3-0.9,0.8-1.3,1c-0.1-1.5-0.2-2.9-0.2-4.4c-1.2,0.1-2.3,0.2-3.5,0.4
		c-1,0.1-1.9,0.6-2.8,1.1c-0.5,1.1-0.8,2.2-1.3,3.3c-0.2-0.3-0.6-0.9-0.8-1.2c0-2.8-1.8-6.7,1.2-8.7c3.4-2.2,7.6-1.4,11.4-1.8
		c1.8-3.1,3.5-6.4,3.4-10.1c-0.1-2.1-0.7-4.3-2.4-5.6c-1.9-0.8-4.1-0.3-6-1.1c-1.7-1.2-2-3.6-3.5-4.9c-1.5-0.5-3.1-0.5-4.6-0.5
		c-3.8,0.5-8.1,2.3-9.8,6c-1,2.4,1,4.7,3.1,5.5c1,0.5,2.1,0.8,3.2,1.2c-0.5,0.2-1,0.4-1.5,0.6c-2,0.8-4.2,1.5-5.5,3.3
		c-2.2,2.8-2.2,6.7-4.1,9.6c-1.3,1.8-3.9,1.2-5.7,2c-1.1,1.1-1.2,2.7-1.7,4.1c-0.4-1.5-0.7-2.9-1.1-4.4c-1.2,0-2.5-0.1-3.7,0
		c-1.5,0.9-2.6,2.2-3.1,3.9c-0.1,0.3-0.3,0.9-0.5,1.2c-0.2-0.3-0.5-0.8-0.6-1c0-1.4,0.2-2.8,0.3-4.2c-1.5,0-3.1,0-4.6,0.1
		c-0.3,0.2-1,0.6-1.3,0.8c-1.3,0.6-0.6,3.2-2.2,2.9l-0.1-0.4c-0.2-2.4-0.6-4.8-0.7-7.2c-0.1-1.3,0.7-2.5,1.9-3
		c4.5-1.7,9.8,1,14.1-1.5c4.6-2.8,5.7-8.5,6.8-13.3c-1.8-1.3-4.5-2.4-4.5-5c-0.3-2,0.7-4,2.2-5.3c5.4-4.8,12.8-6.2,18.7-10.1
		c2-1.3,3.6-3.5,2.9-6c-0.5-2.3-2.7-3.5-4.7-4.4c0.2,1.7,0.6,3.5,0.3,5.2c-1.3,1.9-4,1.8-6,2.5c-0.4-0.6-0.9-1.3-1.3-1.9
		c-1-1.5-1.8-3.2-2.7-4.8c-3.6,4.5-8.1,8.8-13.9,10.1c-1.2-0.9-2.3-2.1-3.8-2.5c-4-0.6-8.8,2.2-8.7,6.7c-0.4,0.1-1.1,0.3-1.4,0.4
		l0-0.5c-0.1-1.4-0.2-2.9-0.3-4.3c-1.5,0.4-2.9,1-4.2,1.7c0.2-1.4,0.4-2.8,0.6-4.2c-0.8,0.2-1.6,0.4-2.4,0.6
		c-0.4,0.2-1.3,0.7-1.7,0.9c0.3-1.6,1-3.1,1.8-4.5c-1.2,0.1-2.3,0.2-3.4,0.5l-0.8,0.3c0.4-2.4,2.6-3.9,4.7-4.6c4.3-1,9,0.2,13-1.9
		c3.2-1.7,6.3-3.7,9.6-5.5c3.8-2.3,7.9-4.2,11.5-6.9c-2.5-0.2-5.1-0.4-7.6-1.2c-0.5-0.9-1-1.8-1.5-2.7c-1.2,1.4-2.5,2.8-4.1,3.6
		c-1.7,0.9-3.7,0.8-5.6,0.9c-1.1-0.8-2.1-1.6-3.1-2.5c1.7-0.5,4.6,0.1,5-2.1c0.6-2-1.2-3.4-2.8-4.1c-2.7-1.1-5.5-1.7-8.3-2.3
		c0,7.1,0,14.2,0,21.2c-0.7,0.1-1.4,0.2-2,0.3c-0.5-7.3,0-14.7-0.2-22c-0.9-0.1-1.7-0.2-2.6-0.3c-1.1-0.1-2.3-0.3-3.1-1.2
		c-0.6-1.3-1-2.7-1.6-4.1c-0.8-1.5,1-2.9,0.4-4.5c-0.2-1-0.6-2.2,0.1-3.1c0.7-1.5,2.6-1.7,4.1-1.6c0.9,0,1.8,0.1,2.8,0.1
		c0-0.4,0-1.3,0-1.7c-0.9-0.1-1.8-0.1-2.7-0.2c-1.3-0.1-2.7-0.3-3.9-0.6c0.8-0.5,1.6-1,2.5-1.3c-0.6-0.5-1.2-0.9-1.8-1.4
		c-2-2.8-3.4-6.2-2.8-9.7c0.3-3.2,2.5-5.7,4.7-8c4.7-2.5,10.5,0.1,13,4.4c2.1,4.7,0.8,10.7-3.3,13.8c-1.3,1.2-3.3,1.7-3.8,3.4
		c0.2,1,0.2,2.1,0.8,2.9c1.4,1,3.1,1.4,4.7,1.9c2.2,0.9,4.5,1.7,6.5,3c2.3,2.1,4.8,4.1,6.6,6.7c1.2,1.8,1.2,4,1.6,6.1
		c2.7-0.5,4.4-3.1,4.6-5.7c0-1.5-0.8-3.1,0.1-4.4c1.8-3.4,4.1-6.7,4.5-10.6c-2.8-1.3-6.2-2.7-7.1-6l-0.2-0.5
		c1.3,0.7,2.4,1.8,3.9,2.2c1.3,0.2,2.5-0.3,3.7-0.7c3.5-0.8,5.8-5.1,4-8.4c-1-2.1-3.7-1.6-5.6-1.7c1.6-2.5,4.7-2.8,7.4-2.8
		c1.1,0,2.2,0,3.3-0.1C128.1,62.6,128.5,60.1,129.7,57.9 M85.9,67.6c-0.6,0.8-1.2,1.5-1.6,2.3c-0.5,1.3,0.4,2.5,0.8,3.6
		c1.5,1.2,3,2.5,3.3,4.5c3.2-1.6,5.7-5.7,4.1-9.2C91.3,66.4,88,66,85.9,67.6 M134.1,71.4c1.4,1.7,4,3.7,6.3,2.4
		c-1.2-0.9-2.3-2-2.8-3.5C136.4,70.6,134.4,69.7,134.1,71.4 M139,70.3c-0.2,1.3,0.5,2.2,1.8,2.4c0.3-0.8,0.7-1.7,1-2.5
		C140.9,70.2,140,70.2,139,70.3 M82.2,86.4c-0.1,1-0.1,2-0.2,3c2.1,0.3,4.1,0.2,6.2-0.1C86.7,87.7,84.8,85.6,82.2,86.4 M82.9,90.9
		c-1.2,0.4-0.7,1.8-0.9,2.8c2.1,0.7,4.5,0.1,6.3-1.1C86.7,91.6,84.8,90.8,82.9,90.9 M82.8,95.4c0,0.5,0,1.4,0,1.9
		c1.7,0,3.3-0.3,4.8-0.9C86.3,95.3,84.5,94.5,82.8,95.4L82.8,95.4z"/>
	<path class="st3" d="M114.8,12.8c2.9-0.1,5.8-0.1,8.7,0c0.6,5.6-0.1,11.3,0.4,16.9c2.3,0,4.6,0.1,6.9,0.4c0.4,2.1,0.4,4.3,0,6.4
		c-5.3,0.4-10.6,0.3-15.9,0C114.8,28.5,114.8,20.7,114.8,12.8 M115.4,13.2c0,7.6,0,15.2,0,22.8c5,0.4,10,0.2,15,0.1
		c0.1-1.5,0.1-3-0.2-4.5c0.1-0.3,0.2-0.8,0.2-1c-2.4-0.1-4.9-0.1-7.3-0.1c-0.3-5.7,0.2-11.4-0.2-17.1c-0.2-0.1-0.6-0.3-0.8-0.4
		C119.8,13,117.6,13,115.4,13.2 M100.7,20.5c1.2-0.3,2.4-0.6,3.6-0.8c-1,0.8-2.2,1.3-3.3,2c1.3,0.7,2.7,0.7,4.2,0.8
		c-1.3,0.3-2.6,0.5-3.8,0.8C101.1,22.3,100.9,21.4,100.7,20.5 M78.9,28.2c0.3,0.6,0.5,1.2,0.8,1.8c-1.1,0.6-2.3,1.2-3.4,1.8
		c-0.3-0.5-0.5-0.9-0.8-1.4c0.7,0,1.4,0.1,2.2,0C78.4,29.9,78.5,28.9,78.9,28.2 M166.3,29.9c1.2,0.5,2.5,1.1,3.7,1.7
		c-1.2-0.2-2.4-0.3-3.6-0.4c0.1,0.6,0.1,1.3,0.2,1.9c-0.5-0.2-1-0.5-1.4-0.8C165.5,31.5,165.9,30.7,166.3,29.9 M174.6,52
		c0.6-0.3,1.2-0.6,1.8-0.9c1,0.8,2,1.6,2.9,2.4c-0.3,1-0.7,1.9-1,2.9c-0.1-1.2,0.3-2.7-0.7-3.6C176.8,52.1,175.6,52.2,174.6,52
		 M53.2,187c1.8-0.3,3.2,1.2,4.7,2.1c-0.6,0.6-1.1,1.2-1.7,1.8c0.7,0.2,1.5,0.3,2.2,0.5c-2.8,1.9-4,5.2-3.6,8.4l-0.3,0.6
		c-1.2-2.1-0.4-4.5,0.1-6.6c-0.5-0.3-1.1-0.7-1.6-1l0.3-0.2c0.9-0.5,1.7-1.1,2.5-1.7C55,189.6,54.1,188.3,53.2,187 M148.6,208.2
		c0.5-3.6,3.8-6.6,7.4-6.8c1.8-0.1,3.5,0.7,5.1,1.5c-0.1,1.3-0.7,2.4-1.5,3.3c-1.3-0.3-2.5-0.7-3.9-0.7c-0.7,0.6-1.3,1.5-1.8,2.2
		c0.6,1.4,0.9,3.1,2.1,4.1c1,0.4,2.1,0.6,3.1,1c-1.4,0-3.3,0.5-4.3-0.9c-1.2-1.7-2.3-4.3-0.7-6c1.3-1.6,3.6-0.6,5.4-0.7
		c0.3-0.6,0.6-1.2,1-1.8c-1.7-0.6-3.5-1.7-5.4-1.1c-2.9,0.6-5.6,3.4-5.3,6.5c0,1.7,0.8,3.3,1.4,4.9
		C149.4,212.5,148.5,210.3,148.6,208.2 M95.3,206.1c2.5-0.3,5.2,0,7.4,1.5c-2.3-0.5-4.6-0.8-6.9-1.4L95.3,206.1 M129.8,208.5
		c1.4-0.8,3.2-1.3,4.7-0.5c-1.5,0.3-2.9,0.6-4.4,0.9c0.2,4.5,1.4,8.8,1.7,13.3c-1.6-2.7-1.2-5.9-1.9-8.8
		C129.8,211.7,129,210,129.8,208.5 M119.5,208.9c1.7-0.3,3.5-0.3,5.2,0c0.5,3.5,0.2,7,0.3,10.5c1.6,0,3.2,0.1,4.7,0.2
		c0,1.2,0,2.5-0.1,3.7c-3.2,0.5-6.4,0.9-9.6,0.6c-0.2-1.7-0.7-3.6,0.2-5.2l0.5-0.3c0,1.4,0,2.8,0.1,4.2c0.4,1.7,2.7,0.7,3.9,0.4
		c1.3,0,2.6-0.1,3.9-0.1l0.7,0c-0.1-1-0.1-1.9-0.2-2.9c-1.6,0-3.1,0-4.7-0.1c0-3.5,0-7.1-0.5-10.6c-1.3,0-2.7,0-4,0
		c0,1.9,0,3.7,0,5.6C119.2,213,119.5,210.9,119.5,208.9 M98.9,209.6c1.1,0.1,2.6,0.7,2.3,2.1c0.1,1.4-1.7,1-2.6,1.2
		C98.7,211.8,98.8,210.7,98.9,209.6L98.9,209.6z"/>
	<path class="st4" d="M115.4,13.2c2.2-0.2,4.4-0.2,6.7-0.2c0,0.6-0.1,1.3-0.1,1.9c-1.7-0.6-3.6-0.7-5.3-0.5c0,6.8,0,13.6,0,20.4
		l0,0.6c4.2,0.3,8.5,0.7,12.6-0.3c0.3-1.1,0.6-2.2,0.9-3.4c0.3,1.5,0.3,3,0.2,4.5c-5,0.1-10,0.3-15-0.1
		C115.4,28.4,115.4,20.8,115.4,13.2L115.4,13.2z"/>
	<path class="st5" d="M122,13c0.2,0.1,0.6,0.3,0.8,0.4c0.4,5.7-0.1,11.4,0.2,17.1c2.4,0,4.9,0,7.3,0.1c-0.1,0.3-0.2,0.8-0.2,1
		c-0.3,1.1-0.6,2.2-0.9,3.4c-0.1-1-0.2-2.1-0.3-3.1c-2.4-0.1-4.7-0.2-7.1-0.2c-0.2-5.6-0.2-11.2,0.1-16.8C122,14.2,122,13.6,122,13
		L122,13z"/>
	<path class="st6" d="M92.5,16c4.6-0.5,9.1-1.8,13.7-2.4c1.3,1.2,1,3.5,1.6,5.1c-1.1,0.4-2.3,0.7-3.5,0.9c-1.2,0.2-2.4,0.5-3.6,0.8
		c0.2,0.9,0.4,1.9,0.6,2.8c1.3-0.3,2.6-0.5,3.8-0.8c1-0.2,2-0.4,2.9-0.6c0.8,1.8,1.1,3.7,1.1,5.6c-1,0.2-2.1,0.3-3.1,0.5
		c-1.2,0.2-2.4,0.5-3.7,0.8c0.2,1.2,0.3,2.3,0.5,3.5c1.8-0.1,3.6-0.5,5.3-0.9c0.7-0.1,1.4-0.2,2.1-0.3c0.4,1.7,0.8,3.4,1,5.1
		c-4.8,1.3-9.8,2.3-14.7,2.9c-1.5-6.1-2.5-12.4-3.8-18.6C92.5,19,92.3,17.5,92.5,16 M93.8,17.2c0.1,1.2,0.2,2.5,0.5,3.7
		c1.2,5.5,2.1,11.1,3.4,16.7c3.9-0.4,7.7-1.3,11.5-2.1c1.3-0.3,0.3-2,0.3-2.9c-2.5,0.2-4.9,0.9-7.4,1.1c-0.4-1.9-0.8-3.9-1.2-5.9
		c2.3-0.5,4.6-1,6.9-1.5c-0.2-0.9-0.4-1.9-0.6-2.8c-2.3,0.2-4.7,0.7-7,1c-0.5-1.7-0.8-3.4-0.8-5.2c2.2-0.4,4.5-0.9,6.7-1.4
		c-0.2-0.9-0.4-1.9-0.6-2.8C101.6,15.6,97.7,16.5,93.8,17.2 M160.2,24.6c0.7-1,1-2.7,2.3-3c4.3,1.9,8.4,4.2,12.6,6.3
		c-0.5,1.8-1.4,3.5-2.4,5.1c-0.9-0.4-1.8-0.9-2.7-1.3c-1.2-0.6-2.4-1.2-3.7-1.7c-0.4,0.8-0.8,1.6-1.2,2.4c0.5,0.3,1,0.5,1.4,0.8
		c1.5,0.8,3,1.6,4.5,2.4c-0.4,1.9-1.3,3.6-2.4,5.1c-0.7-0.4-1.5-0.8-2.2-1.1c-1.3-0.7-2.6-1.4-3.9-2c-0.6,1.1-1.1,2.2-1.7,3.2
		c0.5,0.3,1,0.5,1.5,0.8c1.6,0.8,3.3,1.6,4.9,2.5c-0.5,1.8-1.3,3.4-2.3,4.9c-4.6-2-9.1-4.2-13.4-6.8
		C154.2,36.1,157.4,30.5,160.2,24.6 M162.6,23c-3.2,6.1-6.4,12.3-9.4,18.5c3.6,2.2,7.4,3.9,11.2,5.9c0.4-0.9,0.8-1.8,1.2-2.7
		c-2.1-1.1-4.2-2.2-6.3-3.3c0.6-1.9,1.6-3.8,2.7-5.4c2.1,1,4.2,2.1,6.4,3c0.4-0.9,0.8-1.8,1.2-2.7c-2-1.1-4-2.1-6-3.2
		c0.6-1.6,1.4-3.2,2.2-4.7c2.2,0.9,4.3,2,6.5,3c0.4-0.9,0.8-1.8,1.1-2.8C169.8,26.6,166.2,24.8,162.6,23 M184,41.2
		c2.5-1.3,4.9-2.8,7.6-3.7c-0.6,3.4-2,6.6-3.1,10c-1.7,5.4-3.5,10.7-5.3,16c-2-1.2-3.8-2.8-5.3-4.6c-0.8-0.8,0.2-1.8,0.3-2.6
		c0.4-0.9,0.7-1.9,1-2.9c-1-0.8-1.9-1.6-2.9-2.4c-0.6,0.3-1.2,0.6-1.8,0.9c-1,0.5-1.9,1-2.9,1.3c-1.7-0.5-2.7-2.1-3.9-3.4
		C173,46.7,178.6,44.2,184,41.2 M185.8,41.8c-5.3,2.8-10.6,5.6-15.9,8.3c0.6,0.7,1.2,1.4,1.8,2.1c1.6-0.7,3.2-1.4,4.7-2.3
		c1.5,1,2.8,2.2,4,3.5c-0.5,1.6-1.1,3.1-1.6,4.7c1.1,1.2,2.4,2.4,3.9,3.2c2.2-7.1,4.8-14,6.8-21.2C188.3,40.5,187,41.1,185.8,41.8
		 M95.7,206.2c2.3,0.6,4.6,0.9,6.9,1.4c2.4,0.8,3.5,3.8,2.5,6c-0.2,0.1-0.7,0.3-0.9,0.4c0.4-1.6,0.9-3.8-0.7-5
		c-2.2-1.4-4.9-1.7-7.4-2.1c-0.9,4.2-2.2,8.3-2.8,12.5c2.5,0.6,5.2,1.9,7.8,1.3c2.4-1,1.9-4,2.8-6c0.4,2.4,0.1,5-1.9,6.6
		c-1.6-0.1-3.3-0.1-4.9-0.1c-0.8-0.1-1.6-0.4-2.4-0.7c-0.7-0.3-1.4-0.7-2.1-0.5c0-2,0.5-3.9,1.1-5.7c0.4-1.5,0.8-3,1.1-4.5
		C95,208.6,95.4,207.4,95.7,206.2L95.7,206.2z"/>
	<path class="st7" d="M116.6,14.4c1.8-0.2,3.6-0.2,5.3,0.5c-0.3,5.6-0.3,11.2-0.1,16.8c2.4,0,4.7,0,7.1,0.2c0.1,1,0.2,2.1,0.3,3.1
		c-4.2-0.3-8.4-0.1-12.7-0.2C116.6,28,116.6,21.2,116.6,14.4 M93.8,17.2c3.9-0.7,7.8-1.6,11.8-2.2c0.2,0.9,0.4,1.9,0.6,2.8
		c-2.2,0.5-4.4,1-6.7,1.4c0,1.8,0.3,3.5,0.8,5.2c2.3-0.3,4.6-0.8,7-1c0.2,0.9,0.4,1.9,0.6,2.8c-2.3,0.5-4.6,1-6.9,1.5
		c0.3,2,0.7,3.9,1.2,5.9c2.5-0.2,4.9-0.9,7.4-1.1c-0.1,0.9,1,2.6-0.3,2.9c-3.8,0.8-7.6,1.7-11.5,2.1c-1.3-5.5-2.2-11.1-3.4-16.7
		C94,19.7,93.9,18.4,93.8,17.2 M140.1,18.3c4-2.4,10-0.1,10.9,4.7c-0.8,0.3-1.6,0.6-2.4,0.9c-0.7-1.5-1.3-3.7-3.3-3.7
		c-2.1-0.5-3.4,2.1-2.4,3.7c1.2,2,3.4,3,4.8,4.9c1.9,2.2,1.4,5.9-0.8,7.7c-2.4,2.1-6.1,2-8.8,0.6c-1.8-0.9-2.9-2.8-3.6-4.7
		c0.8-0.1,1.7-0.6,2.5-0.3c1,1.3,1.9,3.3,3.9,3.1c2.1,0.1,3.5-2.7,2.3-4.3c-1.7-2.2-4.6-3.5-5.4-6.3
		C137.3,22.3,137.9,19.5,140.1,18.3 M162.6,23c3.6,1.9,7.2,3.6,10.7,5.5c-0.3,1-0.7,1.9-1.1,2.8c-2.2-1-4.3-2.2-6.5-3
		c-0.9,1.5-1.6,3.1-2.2,4.7c2,1.1,4,2.1,6,3.2c-0.4,0.9-0.8,1.8-1.2,2.7c-2.2-0.9-4.2-2-6.4-3c-1.1,1.7-2.1,3.5-2.7,5.4
		c2.1,1.1,4.2,2.2,6.3,3.3c-0.4,0.9-0.8,1.8-1.2,2.7c-3.7-1.9-7.6-3.7-11.2-5.9C156.2,35.2,159.4,29.1,162.6,23 M48.2,42.2
		c2.2-4.3,7.4-6.1,11.9-5.2c-0.1,1-0.2,2-0.3,3c-2.2,0-4.7-0.1-6.4,1.5c-2,1.6-2.6,4.5-1.5,6.7c1.4,3,4,5.8,7.4,6.2
		c2.2,0.3,4.4-0.8,5.5-2.7c1.1-1.6,0.8-3.7,1-5.5c0.6-0.9,1.9-0.4,2.9-0.6c0.1,2.3,0.3,4.8-0.6,7c-1.4,3.8-5.4,6.4-9.5,6.4
		C50.6,59.9,43.7,49.3,48.2,42.2 M185.8,41.8c1.2-0.7,2.5-1.2,3.8-1.7c-2,7.1-4.7,14.1-6.8,21.2c-1.5-0.8-2.8-1.9-3.9-3.2
		c0.5-1.5,1-3.1,1.6-4.7c-1.2-1.3-2.5-2.5-4-3.5c-1.5,0.8-3.1,1.6-4.7,2.3c-0.6-0.7-1.3-1.4-1.8-2.1
		C175.2,47.3,180.5,44.6,185.8,41.8 M178.7,48.6c0.8,0.8,1.7,1.5,2.6,2.2c0.6-1.3,1-2.7,1.3-4.1C181.2,47.2,179.9,47.9,178.7,48.6
		L178.7,48.6z"/>
	<path class="st8" d="M139.9,16.9c5.2-3,13.3,1.6,12.1,7.9c-1.6,0.1-3.1,0.1-4.7,0.2c-0.4-1.1-0.8-2.2-1.2-3.3
		c-0.8,0-1.5-0.1-2.3-0.1c-0.2,2.4,2,3.5,3.5,4.9c1.4,1.2,2.4,2.9,2.7,4.7c0.4,3.2-1.5,6.5-4.6,7.6c-3.6,1.3-8.2,0.5-10.7-2.7
		c-1-1.2-1.5-2.8-1.9-4.3c1.5-0.7,3.2-1.2,4.8-1.5c0.6,1.3,1.2,2.5,1.9,3.7c1.2,0,2.2-0.4,3.1-1.2c-0.3-0.6-0.6-1.2-1-1.7
		c-1.8-1.7-4-3.1-5.1-5.4C135.6,22.6,136.6,18.4,139.9,16.9 M140.1,18.3c-2.2,1.2-2.7,4-2.3,6.3c0.9,2.8,3.7,4.1,5.4,6.3
		c1.2,1.7-0.1,4.5-2.3,4.3c-2,0.2-2.9-1.8-3.9-3.1c-0.8-0.2-1.7,0.2-2.5,0.3c0.8,1.8,1.8,3.7,3.6,4.7c2.7,1.4,6.4,1.5,8.8-0.6
		c2.2-1.8,2.7-5.5,0.8-7.7c-1.4-1.8-3.7-2.9-4.8-4.9c-1-1.7,0.3-4.2,2.4-3.7c2,0,2.6,2.2,3.3,3.7c0.8-0.3,1.6-0.6,2.4-0.9
		C150.1,18.2,144,15.8,140.1,18.3L140.1,18.3z"/>
	<path class="st9" d="M76.2,22.3c2.2-1.2,4.4-2.6,6.9-3c3.2,7,6.8,13.8,9.8,20.9c-2.2,1.2-4.4,2.5-6.9,3.1c-1.3-2.5-2.4-5.1-3.6-7.6
		c-1.4-0.5-2.6,0.5-3.8,1c0.3,0.8,0.7,1.6,1.1,2.4c1,2,2,3.9,2.8,6c-2.1,1.3-4.4,2.5-6.8,3.2c-1.7-2.6-2.7-5.4-4.1-8.2
		c-2-4.2-4-8.3-5.9-12.5c2-1.6,4.5-2.5,6.9-3.4c1.1,2,1.9,4.2,2.9,6.2c0.2,0.5,0.5,0.9,0.8,1.4c1.2-0.6,2.3-1.2,3.4-1.8
		c-0.3-0.6-0.5-1.2-0.8-1.8C77.9,26.3,76.8,24.4,76.2,22.3 M77.9,22.9c0.9,2.7,2.3,5.1,3.3,7.7c-1.8,1-3.7,1.9-5.6,2.7
		c-1.4-2.4-2.4-5-3.7-7.4c-1.6,0.6-3.1,1.3-4.6,2c2.8,6.4,5.9,12.6,9,18.9c1.5-0.6,3-1.4,4.5-2.2c-1.2-2.8-2.6-5.5-3.8-8.3
		c1.9-1,3.8-1.9,5.7-2.6c1.5,2.7,2.5,5.6,4.2,8.2c1.5-0.7,2.9-1.4,4.3-2.2c-2.9-6.3-5.8-12.6-9-18.7C80.7,21.4,79.3,22.1,77.9,22.9
		L77.9,22.9z"/>
	<path class="st10" d="M77.9,22.9c1.4-0.8,2.9-1.4,4.3-2c3.2,6.1,6.1,12.4,9,18.7c-1.4,0.8-2.9,1.5-4.3,2.2
		c-1.7-2.6-2.7-5.5-4.2-8.2c-2,0.7-3.9,1.6-5.7,2.6c1.2,2.8,2.6,5.5,3.8,8.3c-1.4,0.9-2.9,1.6-4.5,2.2c-3-6.3-6.2-12.5-9-18.9
		c1.5-0.8,3-1.5,4.6-2c1.3,2.4,2.3,5,3.7,7.4c1.9-0.7,3.8-1.6,5.6-2.7C80.2,27.9,78.8,25.5,77.9,22.9L77.9,22.9z"/>
	<path class="st11" d="M143.9,21.6c0.8,0,1.5,0.1,2.3,0.1c0.4,1.1,0.8,2.2,1.2,3.3c1.6-0.1,3.1-0.2,4.7-0.2c-1.5,0.8-3,1.3-4.6,1.7
		C145.9,25.1,143.7,24,143.9,21.6L143.9,21.6z"/>
	<path class="st12" d="M102.4,28.8c1.2-0.3,2.4-0.6,3.7-0.8c-0.7,0.7-1.6,1-2.5,1.3c-0.1,0.6-0.2,1.2-0.3,1.8c1.7,0.1,3.3,0.1,5,0.2
		c-1.8,0.4-3.5,0.8-5.3,0.9C102.7,31.1,102.6,29.9,102.4,28.8L102.4,28.8z"/>
	<path class="st13" d="M141.9,31.2c0.3,0.6,0.7,1.1,1,1.7c-0.9,0.8-1.9,1.2-3.1,1.2C140.7,33.3,141.5,32.4,141.9,31.2L141.9,31.2z"
		/>
	<path class="st14" d="M116.6,34.7c4.2,0.1,8.4,0,12.7,0.2c-4.1,1-8.4,0.6-12.6,0.3L116.6,34.7L116.6,34.7z"/>
	<path class="st15" d="M53.5,36.1c2.6-0.9,5.4-0.6,8.1-0.3c0.1,2-0.3,4-0.6,5.9c-0.2,0-0.5-0.1-0.7-0.1c-2-0.3-4.1-0.7-5.8,0.7
		c-1.8,1.5-1.9,4.2-0.7,6.1c1.1,2.1,3.1,3.7,5.3,4.6c0.8,0.5,2,0.6,2.8-0.1c3.1-1.4,3.1-5.1,2.7-7.9c1.7-0.6,3.4-0.9,5.2-1.1
		c0.1,0.3,0.3,0.8,0.5,1.1c0.2,2.1,0.2,4.2,0,6.3c-1.4,7.5-11,11.2-17.4,7.6c-3.1-1.8-5.5-4.9-6.6-8.3C44,44.9,47.7,38.1,53.5,36.1
		 M48.2,42.2c-4.5,7.1,2.4,17.7,10.6,16.8c4-0.1,8-2.6,9.5-6.4c0.9-2.2,0.7-4.7,0.6-7c-0.9,0.2-2.3-0.3-2.9,0.6
		c-0.3,1.8,0,3.9-1,5.5c-1.1,1.9-3.3,3-5.5,2.7c-3.4-0.4-6-3.3-7.4-6.2c-1.1-2.3-0.5-5.1,1.5-6.7c1.7-1.6,4.2-1.4,6.4-1.5
		c0.1-1,0.2-2,0.3-3C55.6,36.1,50.4,37.9,48.2,42.2 M130.1,208.8c1.5-0.3,2.9-0.6,4.4-0.9c0.1,0.7,0.2,1.4,0.3,2
		c0.3,2.9,0.7,5.8,1.4,8.6c1.5-0.2,3-0.5,4.4-0.8c0.2,1.2,0.4,2.4,0.5,3.6c-0.6,0.2-1.2,0.3-1.9,0.4c-2.4,0.3-4.9,0.4-7.3,0.9l0-0.6
		C131.5,217.7,130.4,213.3,130.1,208.8 M130.7,209.4c0.6,4.2,1.3,8.4,2,12.6c2.6-0.2,5.2-0.7,7.8-1.2c-0.2-0.7-0.3-1.4-0.5-2
		c-1.4,0.2-2.8,0.5-4.3,0.7c-0.9-3.5-1.1-7.2-1.9-10.7C132.7,208.9,131.7,209.1,130.7,209.4L130.7,209.4z"/>
	<path class="st16" d="M78.5,36.7c1.2-0.5,2.5-1.5,3.8-1c-0.8,0.4-1.6,0.8-2.5,1.2c-0.1,0.8-0.2,1.5-0.3,2.3
		C79.2,38.3,78.9,37.5,78.5,36.7L78.5,36.7z"/>
	<path class="st17" d="M160.9,40.7c0.5-1.1,1.1-2.2,1.7-3.2c1.3,0.6,2.6,1.3,3.9,2c-1.3-0.3-2.6-0.5-3.9-0.8
		c-0.1,0.9-0.1,1.9-0.2,2.8C161.8,41.2,161.3,40.9,160.9,40.7L160.9,40.7z"/>
	<path class="st18" d="M117.8,39.7c15.9-0.6,32,3.9,45.4,12.5c16,10.2,28.3,26.2,33.7,44.4c6.4,20.9,3.9,44.4-7.1,63.3
		c-8.8,15.4-22.8,27.8-39.3,34.5c-13,5.4-27.4,7.1-41.3,5.3c-18-2.4-35.2-11-47.6-24.4c-11.9-12.4-19.5-28.7-21.5-45.7
		c-1.4-12.2-0.2-24.7,4-36.2c6.3-18.1,19.4-33.7,36-43.2C91.6,43.7,104.6,39.9,117.8,39.7 M111.8,42.7c-9.5,0.9-18.9,3.8-27.4,8.1
		c-16.8,8.6-30.2,23.5-36.9,41c-6,15.5-6.9,33-2.4,49c4.6,16.7,15,31.7,29,41.8c13.5,10,30.3,15.3,47.1,15
		c16.1-0.2,32.2-5.6,45.1-15.2c13.8-10.2,24.1-25.1,28.6-41.6c4.5-16.3,3.6-34.1-2.7-49.9c-6.3-15.8-18-29.4-32.7-38.1
		C145.2,44.5,128.2,40.9,111.8,42.7 M177.3,188.2c2.1,1.9,3.8,4.2,5.5,6.4c0.6,0.7,1.1,1.5,1.3,2.5c0,1.2,0,2.3,0,3.5
		c-0.9,3.5-5.7,4.3-8.3,2.4c1.7,0.2,3.5,0.9,5.1,0.2c2.5-0.9,3.9-4.3,2.4-6.5c-1.6-2.7-3.6-5.1-5.6-7.5c-0.6,0.5-1.1,1.1-1.7,1.6
		c1.7,2.6,3.9,4.9,5.4,7.6c0.8,1.6-1.7,3.3-2.9,1.9c-2.2-2.2-3.7-5-5.8-7.3c-0.9,0.7-1.7,1.3-2.6,2c1.7,2.4,3.7,4.7,5.1,7.3
		c-2.4-2.1-4.2-4.9-6-7.6c1.2-1,2.4-2,3.8-2.5c2,2.4,3.5,5.1,5.7,7.4c0.4,0,1.1,0.1,1.5,0.2c0.1-3.8-4-5.9-5.3-9.3
		C175.9,189.6,176.6,188.9,177.3,188.2 M112.4,207.5c1.3,2.3,1.8,4.9,2.6,7.4c0.8,2.9,2,5.7,2.6,8.7c-1.4-0.1-2.8-0.2-4.3-0.3
		c-0.7-1.4-1.1-3.4-2.9-3.6c-0.8,0.9-1.5,1.8-2.2,2.8c-0.9-0.1-1.9-0.1-2.8,0.1c0.2-1.9,1.3-3.6,2.2-5.3
		C109.2,214,110.6,210.7,112.4,207.5 M112.3,209.3c-2.2,4.2-4.6,8.4-6.2,12.8c0.5,0,1.4,0,1.9,0c0.5-1,1-1.9,1.5-2.9
		c1,0.1,2,0.3,3.1,0.5c0.3,1,0.7,1.9,1,2.9c1,0.1,2.1,0.2,3.2,0.3C115.5,218.3,114.2,213.6,112.3,209.3L112.3,209.3z"/>
	<path class="st19" d="M54.3,42.3c1.7-1.4,3.9-1,5.8-0.7C58.3,42.2,56.3,42.3,54.3,42.3L54.3,42.3z"/>
	<path class="st20" d="M70,45.1c1.8,1.4,0.8,4.4,0.7,6.5L70,51.4C70.2,49.3,70.2,47.2,70,45.1L70,45.1z"/>
	<path class="st21" d="M178.7,48.6c1.2-0.8,2.5-1.4,3.9-1.9c-0.3,1.4-0.7,2.8-1.3,4.1C180.4,50.1,179.5,49.4,178.7,48.6L178.7,48.6z
		"/>
	<path class="st22" d="M58.9,53c0.7-0.7,2.1-0.8,2.8-0.1C60.9,53.7,59.7,53.5,58.9,53L58.9,53z"/>
	<path class="st23" d="M124.7,65.2c-0.9-3.5,2.2-5.9,4.9-7.4c-1.1,2.3-1.6,4.8-1.6,7.3C126.9,65.2,125.8,65.2,124.7,65.2 M116.9,68
		l0.4,0c1.9,0.1,4.6-0.4,5.6,1.7c1.8,3.3-0.5,7.6-4,8.4c1.1-2,2.4-4.2,1.5-6.6c-0.4-1.5-2.2-1.6-3.4-2.1
		C117,69.1,116.9,68.4,116.9,68L116.9,68z"/>
	<path class="st24" d="M77.3,68.2c0.8-3,3.1-5.6,6.1-6.5c-2.2,2.2-4.4,4.8-4.7,8c-0.6,3.5,0.8,6.9,2.8,9.7
		C77.6,77.3,76.2,72.2,77.3,68.2 M93.6,175.4c1.5-0.1,3.1-0.1,4.6-0.1c-0.1,1.4-0.3,2.8-0.3,4.2c-0.3-0.2-1-0.7-1.4-0.9
		C96,177,95.5,175.4,93.6,175.4L93.6,175.4z"/>
	<path class="st25" d="M96.4,66.1c2.1,0.2,3.1,2.3,3.9,4c1.3,3.5,0.7,7.6-1.5,10.6c-1.5,2.1-3.8,3.5-6,4.7c-1.1-0.8-2.2-1.4-3.4-2.1
		c0.6-1.8,2.6-2.3,3.8-3.4C97.3,76.8,98.5,70.8,96.4,66.1 M171.7,112.8c2.5,0.9,4.2,3.4,4.2,6c0.3,3.8-2.5,7.2-5.9,8.5
		c-0.1-1.5-0.4-3.1-0.9-4.5C172,120.4,173.2,116.3,171.7,112.8 M118.4,164.1c1.4-1.8,3.5-2.5,5.5-3.3c1.6,0.8,3.3,1.5,5,2.2
		c-2.5,1.3-5.5,2-7.2,4.4c-1.9,2.7-1.9,6.2-3.6,9c-1.3,2.1-4.1,1.6-6.1,2.4c-0.8,1.2-1,2.7-1.6,4c-1.3-0.8-2.5-1.8-3.6-2.9
		c0.6-1.3,0.6-3,1.7-4.1c1.9-0.8,4.4-0.2,5.7-2C116.2,170.7,116.2,166.9,118.4,164.1L118.4,164.1z"/>
	<path class="st26" d="M85.9,67.6c2.1-1.6,5.4-1.2,6.6,1.3c1.7,3.5-0.8,7.6-4.1,9.2c-0.4-2-1.8-3.3-3.3-4.5c1.8-0.1,4.5,0.1,4.7-2.3
		C90.2,68.8,87.7,68,85.9,67.6L85.9,67.6z"/>
	<path class="st27" d="M85.9,67.6c1.8,0.4,4.3,1.3,3.9,3.6c-0.2,2.4-2.9,2.2-4.7,2.3c-0.5-1.1-1.3-2.3-0.8-3.6
		C84.7,69,85.3,68.3,85.9,67.6L85.9,67.6z"/>
	<path class="st28" d="M134.1,71.4c0.3-1.7,2.3-0.9,3.5-1c0.4,1.5,1.6,2.5,2.8,3.5C138.1,75.1,135.5,73.2,134.1,71.4L134.1,71.4z"/>
	<path class="st29" d="M139,70.3c0.9-0.1,1.9-0.1,2.8-0.2c-0.3,0.8-0.7,1.7-1,2.5C139.6,72.5,138.8,71.6,139,70.3L139,70.3z"/>
	<path class="st30" d="M151.1,71.6c1.2,1,2.9,1.8,3.3,3.4c-0.8,2-2.2,3.6-3.3,5.4c-1-0.3-2-0.6-3-0.8c-0.4,0.5-0.7,1.1-0.9,1.7
		c-1.6-1.4-2.8,1-3.7,2.1c-1.3,0.1-2.6,0.1-3.9-0.1c-0.5-2.1,0.6-4.5,2.6-5.4c1.4-0.7,2.5,0.9,3.6,1.6
		C147.7,77,149.9,74.6,151.1,71.6 M131.5,178c0.9-0.5,1.8-1,2.8-1.1c0.4,0.1,1.2,0.2,1.6,0.3c0.5,0.9,0.9,1.7,1.4,2.6
		c-2,0.5-2.8,2.5-3.6,4.2C132.1,182.3,132,180,131.5,178L131.5,178z"/>
	<path class="st31" d="M111,80.3c-0.3-1.1,0.1-2.1,0.5-3.1c0.9,3.3,4.3,4.7,7.1,6c-0.4,3.9-2.6,7.3-4.5,10.6
		c-0.9,1.3-0.1,2.9-0.1,4.4c-0.2,2.6-1.8,5.3-4.6,5.7c-0.3-2.1-0.3-4.3-1.6-6.1c-1.8-2.6-4.3-4.6-6.6-6.7c2.8,0.2,5.6,0.7,8.5,0.9
		c1.8-2.3,3.4-4.9,4.8-7.5C113.2,83.4,111.3,82.3,111,80.3 M158,86.5c3.8-1.1,7.9,2.5,7.5,6.4c-0.3,2.2-1.8,4.1-3.4,5.6
		c-3.2,3-7,5.5-9.5,9.2c-1.8,2.6-1.9,6.2-0.6,9.1c2.2,4.9,7,8.2,8.8,13.3c0.9,2.7,0.9,6-0.7,8.5c-1.8,2.6-5.2,3.4-8.1,2.8
		c-3.8-0.7-7-3.5-8.7-7c1,0.8,2,1.6,3,2.3c2.7,1.5,6.2,2.3,9.1,0.7c2.3-1.3,3-4.2,2.2-6.6c-1.1-3.7-4.1-6.3-6.3-9.3
		c-2.9-3.7-4.8-8.9-3-13.5c2.4-5.5,8-8.4,11.8-12.8c0.9-1,1.2-2.4,1.3-3.7c-0.6-2-2.6-3.3-4.7-2.6c-0.8,0.5-1.7,1.1-2.5,1.7
		C155.2,89,156,87,158,86.5 M84.8,98.9c0.9,0.1,1.7,0.2,2.6,0.3c0.2,7.3-0.3,14.7,0.2,22c0.7-0.1,1.4-0.2,2-0.3
		c1.2-0.3,2.4-0.7,3.5-1.3c3.2-1.8,6-4.1,9.1-6c2.6-1.6,5.3-3,7.9-4.7c2.4,0.8,5,1,7.6,1.2c-3.6,2.6-7.7,4.6-11.5,6.9
		c-3.2,1.8-6.3,3.8-9.6,5.5c-4,2.2-8.7,0.9-13,1.9c-2.1,0.7-4.3,2.2-4.7,4.6l-0.2,0.7c-1-0.5-0.3-1.7-0.2-2.5
		c0.7-3.1,3.9-4.4,6.3-5.9C84.9,113.8,84.9,106.3,84.8,98.9 M126.8,123c2,0.9,4.2,2,4.7,4.4c0.7,2.4-1,4.7-2.9,6
		c-5.9,3.9-13.3,5.3-18.7,10.1c-1.6,1.3-2.5,3.3-2.2,5.3c0,2.6,2.7,3.7,4.5,5c-1.1,4.8-2.2,10.5-6.8,13.3c-4.3,2.5-9.6-0.2-14.1,1.5
		c-1.2,0.5-2,1.7-1.9,3c0.1,2.4,0.5,4.8,0.7,7.2c-0.8-0.8-1.2-1.8-1.1-2.9c0-2.7-0.6-5.7,1.2-7.9c1.3-0.9,2.7-1.4,4.2-1.8
		c3.5,0,7.8,1.5,10.5-1.4c2.1-2.8,2.8-6.4,2.9-9.8c-0.7-2-3.4-2.8-3.8-5c-0.8-4.2,2-7.9,4.8-10.8c3.7-3.5,7.9-6.6,12.6-8.5
		c2-0.7,4.6-0.6,6-2.5C127.4,126.4,126.9,124.7,126.8,123 M128.9,147.4c1.5,0,3.1,0,4.6,0.5c1.5,1.4,1.8,3.7,3.5,4.9
		c1.9,0.8,4.1,0.4,6,1.1c1.7,1.3,2.3,3.6,2.4,5.6c0.1,3.6-1.5,7-3.4,10.1c-3.8,0.4-8-0.4-11.4,1.8c-2.9,2-1.1,5.8-1.2,8.7
		c-1.5-2.6-1.6-6.1-0.2-8.8c2.5-3,6.7-2.5,10.2-3.1c1.1-0.1,1.3-1.3,1.5-2.1c0.3-1.8,0.3-3.6,0-5.3c-0.2-0.8-0.4-1.5-0.6-2.3
		c-1-0.3-1.9-0.6-2.9-0.9c-3.2-1.3-5.8-3.9-7.4-7C129.7,149.5,129.3,148.5,128.9,147.4L128.9,147.4z"/>
	<path class="st32" d="M151.1,80.4c2.4,0.8,4.4-1.3,6.3-2.5c-0.5,2.6-2,5.1-4.7,5.8c-0.8-0.1-1.5-0.2-2.2-0.3
		c-1.1-0.6-2.1-1.4-3.1-2.1c0.2-0.6,0.5-1.2,0.9-1.7C149.2,79.8,150.1,80.1,151.1,80.4L151.1,80.4z"/>
	<path class="st33" d="M84.7,82.7c0.9,0.1,1.8,0.1,2.7,0.2c0,0.4,0,1.3,0,1.7c-0.9,0-1.8-0.1-2.8-0.1C84.7,84,84.7,83.1,84.7,82.7
		L84.7,82.7z"/>
	<path class="st34" d="M89.3,83.4c1.2,0.6,2.3,1.3,3.4,2.1c0.8,0.9,1.5,1.8,2.1,2.8c-1.6-0.5-3.3-0.9-4.7-1.9
		C89.5,85.5,89.5,84.4,89.3,83.4L89.3,83.4z"/>
	<path class="st35" d="M150.4,83.4c0.8,0.1,1.5,0.2,2.2,0.3c0.9,0.3,1.8,0.7,2.7,1.1c-0.7,0.8-1.3,1.6-1.9,2.4
		c-0.9-0.5-1.9-0.9-2.8-1.5C150.4,85,150.5,84.2,150.4,83.4L150.4,83.4z"/>
	<path class="st36" d="M24.8,84.8c4.4-1.3,9.6,0.3,12.3,4.1C40.2,93,40,99.2,36.4,103c-3,3.4-8.1,4.7-12.3,3
		c-3.9-1.5-6.8-5.3-7.2-9.4C16.3,91.5,19.8,86.2,24.8,84.8 M23,87.2c0.7,0.3,1.3,1,2.1,0.8c2.3-0.5,4.7-0.8,7-1.1
		C29.3,85.2,25.8,85.6,23,87.2 M20,90c3.8,1.9,7.5,4.1,11.2,6.1c0.2-1,0.5-2,0.7-3.1c-2.9-2.3-6.2-4.2-9.8-5.3
		C21.4,88.5,20.7,89.3,20,90 M26.2,88.3c0.9,0.8,1.9,1.9,3.2,1.7c2.1-0.1,4.2-0.2,6.3-0.3c-0.5-0.6-1-1.2-1.6-1.7
		C31.5,87.4,28.8,87.8,26.2,88.3 M29.9,90.6c0.8,0.7,1.6,1.5,2.6,2c1.6,0.1,3.2,0,4.8,0c-0.3-0.6-0.5-1.3-0.8-1.9
		C34.3,90.3,32,90.3,29.9,90.6 M18.5,94c3.5,2.4,7.4,4.3,11.5,5.5c0.1-1,1.3-2.3,0.2-3.1c-3.3-2.3-6.9-4.2-10.6-5.8
		C19.1,91.8,18.7,92.9,18.5,94 M35.8,93.1c-0.3,4-2,7.7-3.9,11.2c4.4-1.5,6.5-6.4,5.8-10.8C37,93.4,36.4,93.3,35.8,93.1 M28.8,103.2
		c0.3,0.3,1,0.8,1.4,1c3.3-2.6,4.5-6.9,4.9-10.9c-0.6,0-1.7-0.1-2.2-0.1C31.8,96.7,30.5,100,28.8,103.2 M18.3,95
		c0.2,1.4-0.1,3.3,1.3,4.3c2.5,1.9,5.5,3.1,8.6,3.6c0.4-0.9,0.9-1.7,1.3-2.6C25.6,98.8,22,96.8,18.3,95 M20.1,100.8
		c-0.3,0.8,0,1.1,0.8,0.9C21.2,100.9,21,100.6,20.1,100.8 M21.8,101.7c0.1,1.8,1.6,2.6,3.2,3C25,102.8,23.5,101.9,21.8,101.7
		 M25.1,103.1c0.4,0.7,0.8,1.4,1.4,2c1.1,0.4,2.2,0.1,3.3,0.1C28.8,103.5,26.9,103,25.1,103.1L25.1,103.1z"/>
	<path class="st37" d="M209,84.8c6.6-2.2,14.2,3.1,14.3,10c0.6,5.8-4.1,11.4-9.8,11.9c-6.2,1-12.6-4.3-12.5-10.6
		C200.5,91,204.2,86.1,209,84.8 M207.1,87.2c0.7,0.3,1.4,1,2.2,0.8c2.3-0.5,4.7-0.8,7-1.1C213.4,85.2,209.9,85.6,207.1,87.2
		 M204.1,90c3.8,1.9,7.5,4.1,11.2,6.1c0.2-1,0.8-2,0.6-3c-2.8-2.5-6.2-4.1-9.7-5.3C205.6,88.5,204.8,89.3,204.1,90 M210.4,88.3
		c0.8,0.7,1.6,1.7,2.7,1.7c2.2,0,4.5-0.2,6.7-0.2c-0.5-0.6-0.9-1.2-1.5-1.7C215.7,87.4,213,87.8,210.4,88.3 M214,90.6
		c0.8,0.7,1.6,1.5,2.6,2c1.6,0.1,3.2,0,4.8-0.1c-0.3-0.6-0.5-1.2-0.8-1.8C218.5,90.3,216.2,90.3,214,90.6 M203.5,91.1
		c-0.5,1-0.7,2-0.9,3c3.5,2.3,7.3,4.1,11.2,5.5c0.4-0.8,0.8-1.6,1.2-2.5c-2.8-2.2-6-3.9-9.1-5.5C205.1,91.4,204.3,90.6,203.5,91.1
		 M216.6,94.2c-1,3.1-2.2,6.1-3.7,9c0.3,0.3,1,0.8,1.4,1.1c3.3-2.7,4.7-7.1,4.7-11.2C218.2,93.3,216.9,93.1,216.6,94.2 M219.9,93
		c-0.3,4.2-1.8,8.2-4.4,11.6c4.4-1.4,7.2-6.3,6.3-10.8C221.3,93.2,220.5,93.3,219.9,93 M202.5,95.1c0.1,1.3-0.2,3,0.9,3.9
		c2.3,2,5.3,3.2,8.4,3.8c1.1-0.3,1.3-1.7,1.8-2.5C209.8,98.8,206.2,96.9,202.5,95.1 M204.2,100.8c-0.2,0.8,0.1,1.1,0.9,0.9
		C205.4,100.9,205.1,100.6,204.2,100.8 M206,101.7c0.1,1.8,1.6,2.7,3.2,3C209.1,102.9,207.6,101.9,206,101.7 M209.3,103
		c0.4,0.7,0.7,1.5,1.3,2c1,0.4,2,0.3,3,0.3C213.3,103.3,210.9,103.1,209.3,103L209.3,103z"/>
	<path class="st38" d="M23,87.2c2.7-1.6,6.3-2,9.1-0.3c-2.3,0.3-4.7,0.7-7,1.1C24.3,88.2,23.7,87.5,23,87.2L23,87.2z"/>
	<path class="st39" d="M207.1,87.2c2.8-1.5,6.4-1.9,9.2-0.3c-2.3,0.3-4.7,0.7-7,1.1C208.4,88.2,207.8,87.5,207.1,87.2L207.1,87.2z"
		/>
	<path class="st40" d="M82.2,86.4c2.5-0.8,4.5,1.3,6,3c-2.1,0.3-4.1,0.3-6.2,0.1C82.1,88.4,82.2,87.4,82.2,86.4L82.2,86.4z"/>
	<path class="st41" d="M143.6,86.4c1.1,0,2.2,0.1,3.4,0.1c0.2,2.1,0.4,4.2,0.5,6.4c-2.1-1.1-4.7-3.4-7-1.6c-2.7,1.8-1.8,5.4-1.4,8.1
		c-1.7-0.7-3.2-2-3.6-3.8c-0.7-2.5-0.8-6.1,1.8-7.5c2.4-1.1,4.7,0.8,6.7,1.9C143.8,88.8,143.7,87.6,143.6,86.4 M144.8,100.1
		c0.1,0.3,0.3,0.8,0.4,1c0.7-0.3,1.4-0.6,2.1-0.8c1.2,2.4,1.7,5.6-0.3,7.7c-1.8,2.2-4.8,2.1-7.3,2.5c-0.4,3.6,2.1,6.6,2.5,10.1
		c0.8,5.5,1.9,11,4.2,16.1c-1.1-0.7-2.1-1.5-3-2.3c-3-5.3-3.9-11.4-4.9-17.4c-0.4-3.3-3.1-6-2.5-9.6c2.5-0.1,5.4-0.1,7.2-2.1
		C144.7,104.1,144.7,102,144.8,100.1L144.8,100.1z"/>
	<path class="st42" d="M171,86.9c3,1,4.5,4.2,4.4,7.2c0.2,3.5-1.9,6.7-4.4,9c-2,1.8-4.2,3.4-6.2,5.2c-3.6-0.2-6.8,1.7-9.6,3.7
		c0.8-1.6,1.6-3.2,3-4.3c4.1-3.7,9.3-6.3,12.3-11.1C172.3,93.7,172.3,90.1,171,86.9 M157.9,120.6c0.5-1.5,1.3-3.2,3-3.5
		c2.2-0.8,4.4,0.7,5.3,2.7c-1.2,0.3-2.8,0.3-3.7,1.4c-1.1,1.2-1,3.1,0.1,4.1c2.5,3,5.3,5.9,6.4,9.8c1,3.3,0.6,7.3-2,9.7
		c-3.2,3.4-8.4,3.5-12.6,2.5c-2.7-0.8-5.6-1.8-7.3-4.1c4.5,1.8,10,2.7,14.5,0.3c3.8-2,5.3-6.8,4.1-10.8
		C164.5,127.9,160.7,124.5,157.9,120.6 M103.2,134.1c5.8-1.3,10.3-5.6,13.9-10.1c0.9,1.6,1.7,3.2,2.7,4.8c-4,3.1-7.7,7.2-13,8.2
		c-1.4-1-2.6-2.3-4.3-2.6c-2.6,0-5.4,1.1-7.1,3.3c-0.8,1.8-1.7,3.5-2.4,5.3c-0.2,3.4-0.1,6.8-0.1,10.2c-0.1,2,2.4,3.2,1.7,5.3
		c-0.5,2.6-0.7,5.1-0.6,7.7c-1.5,0.4-2.9,0.9-4.2,1.8c-1.3-0.5-2.5-1.3-3-2.7c1.4-0.7,3.2-1.1,3.7-2.7c0.3-1.6-0.3-3.2,0.1-4.7
		c0.3-1.5,0.4-3,0.4-4.5c-0.6-0.7-1.8-1.1-1.8-2.2c-0.2-4.2,0.1-8.4-0.1-12.5c0.4-0.1,1.1-0.3,1.4-0.4c-0.1-4.4,4.6-7.2,8.7-6.7
		C100.9,132,102,133.2,103.2,134.1 M119.1,153.4c1.7-3.7,5.9-5.5,9.8-6c0.4,1.1,0.8,2.1,1.3,3.1c-2.4,1.1-5,2.1-6.6,4.2
		c-1,1.2-1,2.7-1.3,4.2C120.1,158,118.1,155.8,119.1,153.4 M92.3,176.3c0.3-0.2,1-0.6,1.3-0.8c1.9,0,2.5,1.6,2.9,3.2
		c-0.9,1.1-1.7,2.3-2.5,3.5C91.9,180.9,92.4,178.3,92.3,176.3 M99,179.3c0.4-1.7,1.6-3,3.1-3.9c1.2,0.8,2.1,2,3,3.1
		c-1.3,1.4-2.3,3.1-3.1,4.8C100.6,182.2,99.6,180.8,99,179.3 M139.2,179.9c0.7-1.4,1.6-3.1,3.4-3c0.8,0.8,1.6,1.6,2.4,2.5l0.3,0.3
		c-1.3,1.2-2.3,2.6-3.3,4.1C140.9,182.7,140,181.3,139.2,179.9L139.2,179.9z"/>
	<path class="st43" d="M20,90c0.7-0.8,1.4-1.5,2.1-2.2c3.6,1.1,6.9,2.9,9.8,5.3c-0.2,1-0.4,2-0.7,3.1C27.5,94.1,23.9,91.9,20,90
		 M202.5,95.1c3.6,1.8,7.2,3.8,11.1,5.2c-0.6,0.8-0.8,2.2-1.8,2.5c-3-0.6-6-1.7-8.4-3.8C202.3,98,202.6,96.4,202.5,95.1L202.5,95.1z
		"/>
	<path class="st44" d="M26.2,88.3c2.6-0.5,5.3-0.9,7.9-0.3c0.6,0.5,1.1,1,1.6,1.7c-2.1,0.1-4.2,0.2-6.3,0.3
		C28.1,90.2,27.2,89.1,26.2,88.3L26.2,88.3z"/>
	<path class="st45" d="M204.1,90c0.7-0.8,1.4-1.5,2.2-2.2c3.5,1.2,6.9,2.8,9.7,5.3c0.2,1-0.4,2-0.6,3C211.6,94.2,208,91.9,204.1,90
		L204.1,90z"/>
	<path class="st46" d="M210.4,88.3c2.6-0.5,5.3-0.9,8-0.2c0.6,0.5,1,1.1,1.5,1.7c-2.2,0-4.5,0.2-6.7,0.2
		C211.9,90,211.2,88.9,210.4,88.3L210.4,88.3z"/>
	<path class="st47" d="M156.7,89c2.1-0.7,4.1,0.6,4.7,2.6c-1.9,0.8-3.4,2.2-4.7,3.8C156.8,93.2,156.8,91.1,156.7,89L156.7,89z"/>
	<path class="st48" d="M29.9,90.6c2.2-0.3,4.4-0.3,6.6,0.1c0.3,0.6,0.5,1.2,0.8,1.9c-1.6,0.1-3.2,0.2-4.8,0
		C31.5,92.1,30.7,91.3,29.9,90.6L29.9,90.6z"/>
	<path class="st49" d="M82.9,90.9c1.9,0,3.8,0.8,5.5,1.7c-1.8,1.2-4.2,1.8-6.3,1.1C82.2,92.7,81.7,91.2,82.9,90.9L82.9,90.9z"/>
	<path class="st50" d="M214,90.6c2.2-0.3,4.4-0.3,6.6,0.1c0.3,0.6,0.5,1.2,0.8,1.8c-1.6,0.1-3.2,0.2-4.8,0.1
		C215.6,92.1,214.8,91.3,214,90.6L214,90.6z"/>
	<path class="st51" d="M18.5,94c0.2-1.2,0.6-2.3,1.1-3.3c3.7,1.6,7.2,3.5,10.6,5.8c1.1,0.7-0.1,2.1-0.2,3.1
		C25.9,98.4,22,96.4,18.5,94 M26.7,141.9c1.6-1.2,4.2,0.1,4.3,2.1c0.2,2.1-2.3,3.7-4.1,2.6C25,145.7,24.8,142.8,26.7,141.9
		 M31.1,146.7c2.2,0.1,5,1,5.8,3.3c-0.6,1.5-2.4,1.9-3.5,2.8c-1.2,0.6-2.3,2-3.7,1.8c-1.9-1.6-1.1-4.4-0.8-6.6c1.1,0.5,2,1.3,2.9,2
		C31.6,148.9,31.3,147.8,31.1,146.7L31.1,146.7z"/>
	<path class="st52" d="M203.5,91.1c0.8-0.4,1.6,0.4,2.4,0.6c3.2,1.6,6.3,3.3,9.1,5.5c-0.4,0.8-0.8,1.6-1.2,2.5
		c-3.9-1.4-7.7-3.2-11.2-5.5C202.8,93.1,203,92,203.5,91.1 M18.8,149.4c0-2.8,3.9-3.1,6.1-3.2c-0.4,1.1-0.8,2.3-1.3,3.4
		c1-0.6,1.9-1.3,2.9-2c0.7,1.8,0.6,4-0.2,5.8c-0.5,1.1-2.1,0.9-2.8,0.1C22,152,20.2,151,18.8,149.4L18.8,149.4z"/>
	<path class="st53" d="M35.8,93.1c0.6,0.1,1.3,0.3,1.9,0.4c0.6,4.3-1.4,9.3-5.8,10.8C33.8,100.8,35.5,97.2,35.8,93.1L35.8,93.1z"/>
	<path class="st54" d="M216.6,94.2c0.2-1.1,1.5-0.8,2.4-1.1c0,4.1-1.4,8.5-4.7,11.2c-0.3-0.3-1-0.8-1.4-1.1
		C214.4,100.3,215.7,97.3,216.6,94.2L216.6,94.2z"/>
	<path class="st55" d="M219.9,93c0.6,0.2,1.5,0.1,1.9,0.7c0.9,4.5-1.9,9.4-6.3,10.8C218,101.2,219.5,97.2,219.9,93L219.9,93z"/>
	<path class="st56" d="M28.8,103.2c1.7-3.2,3-6.5,4.1-10c0.6,0,1.7,0.1,2.2,0.1c-0.5,4-1.6,8.3-4.9,10.9
		C29.8,104,29.1,103.5,28.8,103.2L28.8,103.2z"/>
	<path class="st57" d="M82.8,95.4c1.7-0.8,3.5-0.1,4.9,1c-1.5,0.6-3.2,0.9-4.8,0.9C82.8,96.8,82.8,95.8,82.8,95.4L82.8,95.4z"/>
	<path class="st58" d="M18.3,95c3.7,1.9,7.3,3.8,11.2,5.2c-0.4,0.9-0.9,1.7-1.3,2.6c-3.1-0.4-6.1-1.6-8.6-3.6
		C18.2,98.3,18.5,96.4,18.3,95 M216.5,146.2c1.9,0.1,3.8,0.4,5.4,1.5c1.1,0.5,0.7,2.1-0.2,2.7c-1.3,1.1-2.7,2.1-3.9,3.2
		c-0.7,0.8-2.4,0.9-2.8-0.3c-0.7-1.6-0.7-3.4-0.7-5.1c1.3-0.6,2.2,0.8,3.3,1.3C217.3,148.4,216.9,147.3,216.5,146.2L216.5,146.2z"/>
	<path class="st59" d="M89.6,99.6c2.8,0.6,5.6,1.3,8.3,2.3c0.2,0.6,0.5,1.1,0.7,1.7c-1.8-0.4-3.7-0.7-5.5-1c-0.2,5.7-0.1,11.3,0,17
		c-1.1,0.5-2.3,1-3.5,1.3C89.5,113.8,89.6,106.7,89.6,99.6L89.6,99.6z"/>
	<path class="st60" d="M20.1,100.8c0.8-0.2,1.1,0.1,0.8,0.9C20.1,101.9,19.8,101.6,20.1,100.8L20.1,100.8z"/>
	<path class="st61" d="M204.2,100.8c0.8-0.2,1.1,0.1,0.9,0.9C204.3,102,204,101.7,204.2,100.8L204.2,100.8z"/>
	<path class="st62" d="M21.8,101.7c1.7,0.2,3.2,1.1,3.2,3C23.4,104.3,21.9,103.5,21.8,101.7L21.8,101.7z"/>
	<path class="st63" d="M97.9,102c1.6,0.7,3.4,2.1,2.8,4.1c-0.4,2.3-3.3,1.6-5,2.1c1-0.7,2.3-1.2,3-2.3c0.1-0.8,0-1.5-0.2-2.3
		C98.4,103.1,98.1,102.5,97.9,102L97.9,102z"/>
	<path class="st64" d="M206,101.7c1.7,0.2,3.1,1.2,3.2,3C207.5,104.4,206,103.5,206,101.7L206,101.7z"/>
	<path class="st65" d="M25.1,103.1c1.8,0,3.7,0.4,4.7,2.1c-1.1,0.1-2.3,0.3-3.3-0.1C25.9,104.5,25.5,103.8,25.1,103.1L25.1,103.1z"
		/>
	<path class="st66" d="M209.3,103c1.6,0.1,4.1,0.3,4.3,2.4c-1-0.1-2.1,0-3-0.3C210,104.5,209.6,103.7,209.3,103L209.3,103z"/>
	<path class="st67" d="M104.4,109.8c1.7-0.8,2.9-2.2,4.1-3.6c0.5,0.9,1,1.8,1.5,2.7c-2.6,1.6-5.3,3-7.9,4.7c-1.1-1-2.2-2-3.4-2.9
		C100.7,110.7,102.7,110.7,104.4,109.8L104.4,109.8z"/>
	<path class="st68" d="M159.1,115.9c2.2-2.8,7.1-2.6,9.1,0.4c1.8,2,0.9,4.7,0.5,7.1c-0.7,0.6-1.6,0.8-2.4,1.2c0-1.6,0.1-3.2-0.1-4.7
		c-0.9-2-3-3.6-5.3-2.7c-1.8,0.3-2.5,2-3,3.5C157.9,119,157.9,117.2,159.1,115.9 M83,131.9c0.8-0.2,1.6-0.4,2.4-0.6
		c-0.2,1.4-0.5,2.8-0.6,4.2c1.4-0.6,2.8-1.2,4.2-1.7c0.1,1.4,0.2,2.9,0.3,4.3c-0.6-0.6-1.2-1.3-1.8-1.9c-0.3,5.4,0,10.8-0.1,16.2
		c-0.1,0.9,0.1,2.1-0.9,2.5c-1.2,0.5-2.6,0.5-3.8,0.7c0-0.9-0.1-1.8-0.1-2.6c0.7-0.3,1.4-0.5,2.2-0.8c0.3-4.3,0.1-8.7,0.2-13
		C85.1,136.6,83.5,134.4,83,131.9L83,131.9z"/>
	<path class="st69" d="M79.7,128.7c1.1-0.3,2.3-0.4,3.4-0.5c-0.8,1.4-1.5,2.9-1.8,4.5l-0.2,0.7C80.6,131.9,80.5,130.2,79.7,128.7
		L79.7,128.7z"/>
	<path class="st70" d="M22.6,135.4c0.6-1.1,1-2.9,2.6-2.9c2.3,0.1,4.6,0.4,7,0.4c1.7,0.1,2.2,1.8,2.8,3.1c1.3,0.3,3.1,0.5,3.5,2
		c0.5,2.2,1.1,4.4,1.7,6.6c0.4,1.5-1,2.6-2.2,3.3c0.1,1.4,0.5,3.4-0.9,4.3c-1.9,1.1-3.7,2.3-5.5,3.5c-1.4,0.9-2.8-0.1-3.9-0.9
		c-1.3,0.4-2.7,1.2-4,0.5c-1.3-0.9-2.4-2.1-3.7-3c-0.9-0.7-2-1.3-2.4-2.4c-0.2-1.1,0.2-2.2,0.4-3.2c-1-0.9-2.3-2.2-1.6-3.7
		c0.9-2,1.7-4,2.4-6.1C19.3,135.2,21.2,135.3,22.6,135.4 M24.2,134.7c-0.3,2.1,1.3,3.8,2.4,5.4c1.5,0.5,1.2-2,1.9-2.8
		c0.4,1,0.7,2.1,1,3.2c1.7-0.6,2.7-2.2,3.5-3.8c0.5-0.8,0.3-2-0.7-2.3c-1.7-0.5-3.5-0.2-5.2-0.4C26.1,134,24.8,133.6,24.2,134.7
		 M18.4,141.4c-0.4,1.1-1.3,2.2-0.6,3.4c1.9,1.3,4.3,0,6.3-0.4c-0.3-1.2-1.3-1.9-2.1-2.8c1-0.1,2.3,0.6,3.1-0.2
		c-0.6-2.1-2.1-4.1-4.1-5C19.4,137.6,19.2,139.7,18.4,141.4 M31.5,142.3c1.1,0,2.2,0.1,3.4,0.1c-0.8,0.9-2.9,1.2-2.3,2.6
		c1.4,0.8,3,1.4,4.6,1.5c1,0,1.9-0.8,1.6-1.8c-0.5-2-1-4.1-1.6-6.1c-0.2-0.9-1.5-1.3-2.2-0.7C33.4,138.9,32,140.4,31.5,142.3
		 M26.7,141.9c-1.9,0.9-1.7,3.9,0.2,4.7c1.8,1.1,4.3-0.6,4.1-2.6C30.9,142,28.3,140.7,26.7,141.9 M18.8,149.4
		c1.3,1.6,3.2,2.6,4.7,4.1c0.7,0.8,2.3,1,2.8-0.1c0.8-1.8,1-4,0.2-5.8c-1,0.7-1.9,1.3-2.9,2c0.4-1.1,0.9-2.3,1.3-3.4
		C22.7,146.3,18.8,146.6,18.8,149.4 M31.1,146.7c0.2,1.1,0.4,2.3,0.7,3.4c-0.9-0.8-1.9-1.5-2.9-2c-0.3,2.1-1.1,5,0.8,6.6
		c1.5,0.2,2.5-1.2,3.7-1.8c1.2-0.9,3-1.3,3.5-2.8C36.2,147.7,33.3,146.8,31.1,146.7L31.1,146.7z"/>
	<path class="st71" d="M208.2,133.2c1.1-0.6,2.4-0.3,3.6-0.4c1.6,0,3.2-0.4,4.8-0.3c1.3,0.2,1.7,1.7,2.2,2.8c1.4,0,3.2-0.1,3.9,1.4
		c0.8,2,1.5,4.1,2.5,6.1c0.7,1.5-0.5,2.9-1.7,3.8c0.3,1.4,1,3.3-0.4,4.4c-1.7,1.3-3.3,2.7-4.9,4.1c-1.4,1.1-3,0.2-4.3-0.6
		c-0.7,0.5-1.3,1.1-2.1,1.4c-1.6,0.3-2.9-1-4.1-1.8c-1.2-0.8-2.5-1.4-3.7-2.3c-1.1-1-0.6-2.5-0.5-3.7c-1.1-0.9-2.4-1.9-2.2-3.4
		c0.6-2.2,1.2-4.4,1.7-6.6c0.4-1.7,2.4-1.8,3.7-2.1C207,135,207.1,133.7,208.2,133.2 M211.2,134.1c-1,0.1-2.5-0.1-3,1
		c-0.1,2.4,1.8,4.2,3.6,5.5c0.4-1.1,0.6-2.3,0.9-3.4c0.4,1,0.8,2,1.2,2.9c1.2,0.2,1.5-1.3,2.2-2c0.7-1.2,1.8-3.2,0.2-4.2
		C214.6,133.9,212.9,134.2,211.2,134.1 M219.3,137c-1.5,1.2-2.6,2.9-3,4.8c1.2,0,2.3-0.1,3.5-0.1c-0.8,0.9-2.5,1.3-2.4,2.7
		c2.1,0.6,5.2,2.1,6.7-0.4c-0.9-2-1.7-4.1-2.5-6.2C221.4,136.8,220.1,136.3,219.3,137 M204,139.3c-0.3,2.4-1.8,4.6-1.2,7
		c2.3,0.6,4.6-0.5,6.5-1.7c-0.9-0.8-2-1.5-3-2.1c1.2,0,2.4-0.1,3.6-0.2c-0.7-1.8-2-3.5-3.7-4.4C205.2,137.1,204.1,138.2,204,139.3
		 M212,141.7c-1.8,0.7-2.1,3.4-0.6,4.5c1.5,1.5,4.4,0.4,4.5-1.7C216.4,142.4,213.9,140.7,212,141.7 M208.6,146.9
		c-1.7,0.7-4.1,1.4-4.1,3.7c1.9,1.3,3.9,2.6,5.9,3.9c0.8,0.6,1.9,0.1,2.3-0.8c0.4-1.8,0.2-3.7-0.1-5.5c-1.1,0.6-2,1.4-3,2.1
		c0.3-1.1,0.6-2.2,1-3.2C209.8,146.8,209.2,146.6,208.6,146.9 M216.5,146.2c0.4,1.1,0.8,2.2,1.2,3.4c-1.1-0.4-2.1-1.9-3.3-1.3
		c0,1.7,0,3.5,0.7,5.1c0.4,1.1,2.1,1.1,2.8,0.3c1.3-1.1,2.6-2.2,3.9-3.2c0.9-0.5,1.3-2.1,0.2-2.7
		C220.3,146.6,218.4,146.3,216.5,146.2L216.5,146.2z"/>
	<path class="st72" d="M24.2,134.7c0.6-1.1,1.9-0.7,2.9-0.7c1.7,0.2,3.5-0.1,5.2,0.4c1,0.3,1.2,1.5,0.7,2.3
		c-0.8,1.5-1.8,3.2-3.5,3.8c-0.3-1.1-0.5-2.2-1-3.2c-0.7,0.8-0.4,3.3-1.9,2.8C25.5,138.5,23.9,136.8,24.2,134.7 M18.4,141.4
		c0.8-1.7,1-3.8,2.6-5c2,1,3.5,2.9,4.1,5c-0.8,0.8-2.1,0.1-3.1,0.2c0.8,0.8,1.8,1.6,2.1,2.8c-2,0.4-4.4,1.7-6.3,0.4
		C17.1,143.7,18,142.5,18.4,141.4 M219.3,137c0.8-0.7,2.1-0.2,2.3,0.8c0.8,2.1,1.6,4.2,2.5,6.2c-1.5,2.4-4.6,1-6.7,0.4
		c-0.2-1.4,1.6-1.8,2.4-2.7c-1.2,0-2.3,0.1-3.5,0.1C216.7,139.9,217.8,138.2,219.3,137 M31.5,142.3c0.4-1.9,1.8-3.4,3.4-4.4
		c0.7-0.6,2-0.2,2.2,0.7c0.6,2,1.1,4.1,1.6,6.1c0.3,1-0.6,1.9-1.6,1.8c-1.6-0.1-3.2-0.8-4.6-1.5c-0.6-1.4,1.6-1.7,2.3-2.6
		C33.8,142.4,32.7,142.4,31.5,142.3 M204,139.3c0-1.1,1.2-2.2,2.3-1.5c1.7,1,3,2.6,3.7,4.4c-1.2,0.1-2.4,0.1-3.6,0.2
		c1,0.7,2,1.3,3,2.1c-1.9,1.2-4.2,2.3-6.5,1.7C202.2,143.9,203.8,141.7,204,139.3 M212,141.7c1.9-1,4.4,0.7,3.9,2.8
		c-0.1,2.1-3,3.2-4.5,1.7C209.9,145.1,210.2,142.4,212,141.7 M208.6,146.9c0.6-0.3,1.2-0.1,1.8,0c-0.3,1.1-0.7,2.1-1,3.2
		c1-0.7,2-1.5,3-2.1c0.3,1.8,0.6,3.7,0.1,5.5c-0.3,0.9-1.4,1.5-2.3,0.8c-1.9-1.3-3.9-2.5-5.9-3.9
		C204.5,148.3,206.9,147.5,208.6,146.9L208.6,146.9z"/>
	<path class="st73" d="M211.2,134.1c1.7,0,3.4-0.3,5.1-0.1c1.6,1,0.5,3-0.2,4.2c-0.6,0.7-1,2.2-2.2,2c-0.4-1-0.8-2-1.2-2.9
		c-0.3,1.1-0.6,2.3-0.9,3.4c-1.7-1.3-3.7-3.1-3.6-5.5C208.8,134,210.2,134.2,211.2,134.1L211.2,134.1z"/>
	<path class="st74" d="M87.5,136.2c0.6,0.6,1.2,1.3,1.8,1.9l0,0.5c0.2,4.2-0.1,8.4,0.1,12.5c0,1.1,1.2,1.5,1.8,2.2
		c0,1.5-0.2,3-0.4,4.5c-0.3,1.6,0.2,3.2-0.1,4.7c-0.6,1.6-2.4,2.1-3.7,2.7c-1.8-0.6-3.2-1.7-4.1-3.4c1.3,0.3,2.6,0.9,4,0.8
		c1.8-0.5,2.3-3.3,0.8-4.4c-1.6-0.8-3.4-0.8-5.1-1c0-0.4,0.1-1.2,0.1-1.7c1.3-0.2,2.6-0.2,3.8-0.7c1-0.4,0.8-1.7,0.9-2.5
		C87.5,147,87.2,141.6,87.5,136.2L87.5,136.2z"/>
	<path class="st75" d="M141.9,140.1c1.3,0.7,2.6,1.5,3.9,2.4c-0.3,2.5,1,4.7,1.8,7C144.4,147.3,142.5,143.8,141.9,140.1L141.9,140.1
		z"/>
	<path class="st76" d="M155.2,154.1c2-0.1,4.1-0.2,6.1-0.4c-4.9,5.1-6.8,12.2-6.4,19.1c0,2,0.6,4,0,6c-0.8,1.4-2.7,1.3-4.1,1.9
		c-0.5,0.8-1,1.6-1.4,2.4c-1.2-1-2.4-2-3.6-3c0.7-1,1.1-2.5,2.5-2.6c1.6-0.3,3.5-0.9,3.3-2.9C151.1,167.7,150.9,160,155.2,154.1
		L155.2,154.1z"/>
	<path class="st77" d="M82.6,157.3c1.7,0.2,3.6,0.2,5.1,1c1.5,1.1,1,3.9-0.8,4.4c-1.4,0-2.7-0.5-4-0.8c-0.1-1.4,0.6-2.7,1.3-3.8
		C83.7,157.8,83.2,157.5,82.6,157.3L82.6,157.3z"/>
	<path class="st78" d="M137.5,157.6c1,0.3,1.9,0.6,2.9,0.9c0.2,0.8,0.4,1.5,0.6,2.3C139.6,159.9,138.3,159,137.5,157.6L137.5,157.6z
		"/>
	<path class="st79" d="M102.1,175.4c1.2,0,2.5,0,3.7,0c0.4,1.5,0.7,2.9,1.1,4.4c-0.6-0.4-1.3-0.8-1.8-1.3
		C104.1,177.4,103.3,176.2,102.1,175.4L102.1,175.4z"/>
	<path class="st80" d="M134.3,176.8c1.1-0.2,2.3-0.3,3.5-0.4c0.1,1.5,0.1,2.9,0.2,4.4c-0.2-0.3-0.5-0.9-0.7-1.2
		c-0.5-0.9-0.9-1.7-1.4-2.6C135.5,177.1,134.7,176.9,134.3,176.8L134.3,176.8z"/>
	<path class="st81" d="M142.7,176.9c0.4,0,1.2,0.1,1.6,0.2c0.2,0.8,0.5,1.5,0.8,2.3C144.3,178.6,143.5,177.8,142.7,176.9
		L142.7,176.9z"/>
	<path class="st82" d="M185.3,180.7c0.2-1.2,3.2-1.3,3.3,0.1C187.5,180.8,186.4,180.8,185.3,180.7L185.3,180.7z"/>
	<path class="st83" d="M185.2,181.6c1.1-1,2.8-0.7,3.9,0.1c1,0.8,1.5,2.1,2.3,3c1.2,0.9,3.1,1.3,3.3,3.1c0.6,3.7-3.4,5.8-5.6,8.1
		c-3.1-3-6.3-5.9-9.1-9.2C181.7,185,183.3,183.1,185.2,181.6 M183.5,185.4c0.9,1.1,1.9,2.1,3,2.9c0.7-1,1.9-2.5,0.8-3.7
		C186.1,183.3,184.5,184.7,183.5,185.4 M189,188.1c-0.3,0.3-0.8,0.8-1,1.1l-0.4-0.3c0.5,1.3,1.5,2.4,2.6,3.2
		c0.8-0.9,2.2-2.2,1.1-3.5C190.8,187.8,189.8,188.1,189,188.1 M46.8,187.8c2.3-2,4.4-4.2,6.6-6.2c2,1.6,3.9,3.4,5.5,5.5
		c-0.5,0.5-0.9,0.9-1.4,1.4c-1.1-1-2.1-1.9-3.2-2.9c-0.6,0.7-1.3,1.3-2,2c0.9,1,1.8,1.9,2.7,2.9c-0.3,0.6-0.7,1.2-1,1.8
		c-1.2-1-2.3-1.9-3.5-2.9c-1.4,1.4-2.8,2.7-4.1,4.2c-0.9-0.9-1.7-1.8-2.6-2.7C44.8,189.8,45.8,188.8,46.8,187.8 M96.2,207
		c2.5,0.4,5.2,0.6,7.4,2.1c1.5,1.2,1.1,3.3,0.7,5c-0.1,0.2-0.2,0.6-0.2,0.8c-0.9,2-0.4,5-2.8,6c-2.7,0.6-5.3-0.7-7.8-1.3
		C93.9,215.3,95.3,211.2,96.2,207 M98.9,209.6c-0.1,1.1-0.2,2.2-0.3,3.3c0.9-0.2,2.7,0.2,2.6-1.2C101.5,210.4,100,209.7,98.9,209.6
		 M97.8,214.7c-0.4,1.2-0.7,2.5-0.8,3.9c1.1-0.1,2.5,0.3,3.1-0.9c0.1-0.8-0.1-1.6-0.2-2.4C99.2,215,98.5,214.8,97.8,214.7
		L97.8,214.7z"/>
	<path class="st84" d="M183.5,185.4c1.1-0.8,2.7-2.2,3.8-0.8c1.1,1.2-0.1,2.6-0.8,3.7C185.4,187.5,184.3,186.6,183.5,185.4
		 M184.6,185.4c0.6,0.7,1.2,1.3,1.9,1.9c0.2-0.3,0.6-1,0.8-1.4c-0.2-0.4-0.6-1.1-0.8-1.4C185.9,184.9,185.2,185.1,184.6,185.4
		L184.6,185.4z"/>
	<path class="st85" d="M184.6,185.4c0.6-0.3,1.3-0.6,2-0.9c0.2,0.4,0.6,1.1,0.8,1.4c-0.2,0.3-0.6,1-0.8,1.4
		C185.8,186.8,185.1,186.1,184.6,185.4L184.6,185.4z"/>
	<path class="st86" d="M177.3,188.2c0.5-0.5,1.1-1,1.6-1.5c1,1,2,2.1,3,3.1c-0.3,1.7,0.5,3.3,0.9,4.9
		C181,192.4,179.4,190.1,177.3,188.2L177.3,188.2z"/>
	<path class="st87" d="M189,188.1c0.8,0,1.8-0.3,2.3,0.5c1,1.3-0.3,2.6-1.1,3.5c-1.1-0.9-2.1-1.9-2.6-3.2l0.4,0.3
		c0.8,0.6,1.6,1.2,2.3,1.8c0.2-0.6,0.4-1.2,0.7-1.8C190.3,188.8,189.6,188.4,189,188.1L189,188.1z"/>
	<path class="st88" d="M188,189.2c0.3-0.3,0.8-0.8,1-1.1c0.7,0.3,1.3,0.7,2,1.1c-0.2,0.6-0.4,1.2-0.7,1.8
		C189.5,190.4,188.8,189.8,188,189.2L188,189.2z"/>
	<path class="st89" d="M176,190.7c0.5-0.5,1.1-1.1,1.7-1.6c2,2.4,4,4.8,5.6,7.5c1.5,2.3,0.1,5.7-2.4,6.5c-1.7,0.7-3.4,0-5.1-0.2
		c-0.1-0.2-0.3-0.6-0.4-0.8c-1.5-2.6-3.4-4.8-5.1-7.3c0.9-0.7,1.7-1.3,2.6-2c2.1,2.3,3.6,5.1,5.8,7.3c1.2,1.4,3.6-0.3,2.9-1.9
		C179.9,195.6,177.6,193.3,176,190.7L176,190.7z"/>
	<path class="st90" d="M58.5,191.3c1.7-1.2,3.9-1,5.8-0.6c2.1,0.5,3.4,2.4,4.3,4.3c0.6,3.2-0.9,6.4-3.4,8.4
		c-3.6,2.2-8.7,0.2-10.3-3.7C54.5,196.5,55.7,193.2,58.5,191.3 M62,193.4c-2.8,1.1-5.4,5.8-2.4,7.9c3.4,0.5,6.4-3.4,5.5-6.6
		C64.5,193.6,63.2,193.1,62,193.4L62,193.4z"/>
	<path class="st91" d="M62.6,194c1.5-0.4,2.9,1.3,2.2,2.7c-0.6,1.7-1.9,3.3-3.7,3.9c-1.5,0.5-2.9-1.1-2.3-2.5
		C59.5,196.4,60.6,194.4,62.6,194L62.6,194z"/>
	<path class="st92" d="M68.6,195.1c0.1-0.3,0.3-0.8,0.4-1c0.8,1.5,0.9,3.3,0.9,5c0.8-0.3,1.7-0.7,2.6-0.7l0.4,0
		c-1.7,1.3-3.6,2.6-4.4,4.8c-1.1,2.3-0.2,4.9,1,7c-2.3-1.3-2.6-4-2.7-6.4c-0.4-0.1-1.3-0.2-1.7-0.3
		C67.7,201.5,69.2,198.3,68.6,195.1L68.6,195.1z"/>
	<path class="st93" d="M184.1,197.1c1.3,0.3,1.3,3.3,0,3.5C184.1,199.4,184.1,198.3,184.1,197.1L184.1,197.1z"/>
	<path class="st94" d="M161.4,199.3c0.9-0.4,1.9-0.9,2.8-1.3c1.5,2.4,2.9,4.9,4.3,7.3c0.4,0.5,0.6,1.4,1.3,1.6
		c1.3-0.5,2.5-1.3,3.8-2c0.3,0.7,0.7,1.3,1,2c-2.2,1.3-4.4,2.7-6.7,3.8C165.6,207,163.2,203.3,161.4,199.3 M84.6,203.1
		c2.8,0.8,5.6,1.8,8.3,2.9c-0.1,0.6-0.3,1.3-0.4,2c-1-0.2-2-0.4-3-0.6c-1.2,3.3-2.3,6.6-3.7,9.9c-1-0.4-2-0.8-3-1.2
		c0.8-2.4,1.6-4.8,2.5-7.2c0.2-0.6,0.5-1.1,0.7-1.7c0.1-0.2,0.2-0.5,0.3-0.7c-0.8-0.6-1.7-1.2-2.6-1.8
		C83.9,204.2,84.4,203.5,84.6,203.1L84.6,203.1z"/>
	<path class="st95" d="M72.9,198.3c2.6,0.2,5.8,0.4,7.4,2.9c2,2.7,0.9,6.2-0.5,8.9c-2.6,3-7.6,2.8-10.3,0.1c-1.2-2.1-2.1-4.7-1-7
		C69.3,200.9,71.1,199.6,72.9,198.3 M74.1,201.8c-2,1.6-3.6,5.1-1.4,7.1c3.1,1.1,5.6-2.8,5.1-5.5C78.1,201.5,75.3,200.5,74.1,201.8
		 M155,202.3c1.9-0.6,3.7,0.5,5.4,1.1c-0.3,0.6-0.6,1.2-1,1.8c-1.8,0-4-0.9-5.4,0.7c-1.6,1.8-0.5,4.4,0.7,6c0.9,1.5,2.8,0.9,4.3,0.9
		c0.1-0.2,0.4-0.6,0.6-0.8c0.5-0.7,1-1.4,1.4-2.1c0.6,0,1.3,0.1,1.9,0.2c-0.4,2-1.3,4.1-3.2,5.1c-2.3,1.4-5,0.6-7.4-0.2
		c-0.4-0.4-0.9-0.7-1.2-1.2c-0.7-1.5-1.4-3.1-1.4-4.9C149.4,205.7,152.1,202.9,155,202.3L155,202.3z"/>
	<path class="st96" d="M74.1,201.8c1.2-1.4,4.1-0.4,3.7,1.6c0.5,2.8-2,6.6-5.1,5.5C70.5,207,72.1,203.4,74.1,201.8L74.1,201.8z"/>
	<path class="st97" d="M81.4,201.9c0.9,0.3,1.7,0.5,2.6,0.6c-0.3,0.9-0.6,1.8-0.9,2.8c1,0.6,1.9,1.2,2.9,1.8
		c-0.2,0.6-0.5,1.1-0.7,1.7c-0.3,0.5-0.7,1-1,1.5c0-1.1,0.1-2.3,0.2-3.4c-1.3-0.8-2.4,0-3.1,1.1C81.9,206,82,203.9,81.4,201.9
		L81.4,201.9z"/>
	<path class="st98" d="M85,202.5c2.4,0,5.2,0.3,6.7,2.4C89.4,204.3,87.2,203.4,85,202.5L85,202.5z"/>
	<path class="st99" d="M90.1,208.4c0.9,0,1.8,0.1,2.6,0.3l0.4,0.1c-1.8,0.5-3.4,1.5-4.6,2.9C88.9,210.6,89.1,209.2,90.1,208.4
		L90.1,208.4z"/>
	<path class="st100" d="M130.7,209.4c1-0.2,2.1-0.4,3.1-0.6c0.8,3.5,1,7.2,1.9,10.7c1.4-0.2,2.8-0.5,4.3-0.7c0.2,0.7,0.3,1.4,0.5,2
		c-2.6,0.5-5.2,1-7.8,1.2C131.9,217.8,131.3,213.6,130.7,209.4 M112.3,209.3c1.9,4.4,3.2,9,4.4,13.6c-1.1-0.1-2.1-0.2-3.2-0.3
		c-0.3-1-0.7-1.9-1-2.9c-1-0.2-2-0.3-3.1-0.5c-0.5,1-1,1.9-1.5,2.9c-0.5,0-1.4,0-1.9,0C107.7,217.6,110.1,213.5,112.3,209.3
		 M111.1,216.1c-1,0.3-0.7,2,0.4,1.8C112.4,217.7,112,216,111.1,216.1L111.1,216.1z"/>
	<path class="st101" d="M120.1,209.3c1.3,0,2.7,0,4,0c0.4,3.5,0.4,7,0.5,10.6c1.6,0,3.1,0,4.7,0.1c0.1,1,0.1,1.9,0.2,2.9l-0.7,0
		c-0.1-0.5-0.4-1.5-0.5-2c-1.4-0.1-2.9-0.2-4.3-0.3c-0.1-3.5-0.2-7-0.3-10.5c-1,0-1.9,0-2.9,0c0,2.8,0.1,5.5,0.1,8.3l-0.5,0.3
		c-0.1-1.2-0.1-2.5-0.1-3.7C120.1,213.1,120.1,211.2,120.1,209.3L120.1,209.3z"/>
	<path class="st102" d="M93.7,214.4c-0.4-1.6,0-3.2,1.1-4.5C94.5,211.4,94.2,212.9,93.7,214.4L93.7,214.4z"/>
	<path class="st103" d="M120.6,210c1,0,1.9,0,2.9,0c0.2,3.5,0.2,7,0.3,10.5c1.4,0.1,2.9,0.2,4.3,0.3c0.1,0.5,0.4,1.5,0.5,2
		c-1.3,0-2.6,0-3.9,0.1c-1.3-0.2-2.6-0.5-3.9-0.4c-0.1-1.4-0.1-2.8-0.1-4.2C120.7,215.6,120.6,212.8,120.6,210L120.6,210z"/>
	<path class="st104" d="M134.8,210c1.1,0.1,0.9,1.5,1.1,2.3c0.2,1.8,0.3,3.5,0.7,5.3c1.4,0,2.7,0,4.1,0.3c-1.5,0.3-2.9,0.6-4.4,0.8
		C135.4,215.8,135.1,212.9,134.8,210L134.8,210z"/>
	<path class="st105" d="M97.8,214.7c0.7,0.2,1.4,0.4,2.1,0.6c0.1,0.8,0.3,1.6,0.2,2.4c-0.6,1.2-2.1,0.8-3.1,0.9
		C97.1,217.2,97.3,215.9,97.8,214.7 M98.3,215.3c-0.2,0.9-0.4,1.7-0.6,2.6c1.3,0.3,2-0.7,2.2-1.8C99.5,215.9,98.7,215.5,98.3,215.3
		L98.3,215.3z"/>
	<path class="st106" d="M98.3,215.3c0.4,0.2,1.2,0.6,1.5,0.8c-0.2,1.1-0.9,2.1-2.2,1.8C97.9,217,98.1,216.2,98.3,215.3L98.3,215.3z"
		/>
	<path class="st107" d="M111.1,216.1c1-0.2,1.4,1.6,0.4,1.8C110.4,218.2,110,216.4,111.1,216.1L111.1,216.1z"/>
	<path class="st108" d="M92.6,220.2c0.7-0.2,1.5,0.1,2.1,0.5C94.3,221.4,92.5,221.2,92.6,220.2L92.6,220.2z"/>
	<path class="st109" d="M97.2,221.3c1.6,0,3.3,0,4.9,0.1C100.8,222.5,98.3,222.7,97.2,221.3L97.2,221.3z"/>
	<path class="st110" d="M131.9,222.7c2.4-0.4,4.9-0.6,7.3-0.9c-2.2,0.9-4.6,1.8-7,1.3L131.9,222.7L131.9,222.7z"/>
	<path class="st111" d="M105.3,222.6c0.9-0.1,1.9-0.2,2.8-0.1C108.2,223.7,105.5,223.7,105.3,222.6L105.3,222.6z"/>
	<path class="st112" d="M120.9,222.5c1.3-0.1,2.6,0.2,3.9,0.4C123.6,223.3,121.3,224.2,120.9,222.5L120.9,222.5z"/>
</g>
</svg>
