<?xml version="1.0" encoding="utf-8"?>
<!-- Generator: Adobe Illustrator 21.0.0, SVG Export Plug-In . SVG Version: 6.00 Build 0)  -->
<svg version="1.1" id="Layer_1" xmlns="http://www.w3.org/2000/svg" xmlns:xlink="http://www.w3.org/1999/xlink" x="0px" y="0px"
	 width="190.4px" height="236.7px" viewBox="0 0 190.4 236.7" style="enable-background:new 0 0 190.4 236.7;" xml:space="preserve"
	>
<g>
	<path style="fill:#FFFFFF;" d="M60.5,187.4c0,0-26.5-13.3-39.4-33.7c0.1,17.5-0.8,39.4-0.8,39.4l40.5,8L60.5,187.4z"/>
	<path style="fill:#FFFFFF;" d="M130.5,187.8c0,0,26.5-12.2,39.4-32.6c-0.1,17.5,0.8,37.9,0.8,37.9l-40.5,8L130.5,187.8z"/>
	<rect x="60.3" y="181.2" style="fill:#FFFFFF;" width="70.5" height="32.2"/>
	<path style="fill:#FFFFFF;" d="M116.5,183.6c0,11.4-9.4,20.6-20.9,20.6c-11.5,0-20.9-9.2-20.9-20.6c0-11.4,9.4-20.6,20.9-20.6
		C107.1,162.9,116.5,172.2,116.5,183.6"/>
	<path style="fill:#FFFFFF;" d="M11.3,194.4v-30.2l-1.8-0.7v-4.1l1.8-0.8v-2.8l-1.8-0.7v-4.9l5.9-5.6v-1.3c0,0,0.2-1.2,1.7-1.2h1.7
		c0,0,1.4,0.2,1.4,1.2v1.2l6.1,5.7l-0.1,4.9l-1.8,0.6v2.8l1.8,0.8v4.5v27.6L11.3,194.4z"/>
	<path style="fill:#FFFFFF;" d="M180.3,194.4v-30.2l1.8-0.7v-4.1l-1.8-0.8v-2.8l1.8-0.7v-4.9l-5.9-5.6v-1.3c0,0-0.2-1.2-1.7-1.2
		h-1.7c0,0-1.4,0.2-1.4,1.2v1.2l-6.1,5.7l0.1,4.9l1.8,0.6v2.8l-1.8,0.8v4.5v27.6L180.3,194.4z"/>
	<path style="fill:#FFFFFF;" d="M93.7,236.7c-14.7,0-24-5-33.9-10.3c-5.2-2.8-10.6-5.7-17-7.8c-18-6-29.8,1.4-30.3,1.7l-2.4-3.7
		c0.6-0.4,14-8.9,34.1-2.2c6.7,2.2,12.3,5.2,17.7,8.1c10.2,5.5,19.8,10.6,35.6,9.7c14.8-0.9,25-5.9,34.8-10.8
		c4.2-2.1,8.2-4,12.4-5.6c0.3-0.1,0.6-0.2,1-0.4c5.3-2.1,21.3-8.4,35.1,2.1l-2.7,3.5c-11.9-9-25.6-3.6-30.8-1.5
		c-0.4,0.2-0.7,0.3-1,0.4c-4,1.5-7.9,3.4-12,5.4c-9.8,4.8-20.8,10.3-36.5,11.2C96.4,236.7,95.1,236.7,93.7,236.7"/>
	<path style="fill:#FFFFFF;" d="M172.2,228.8l-3.1-2c-0.7-0.5-2.5-0.7-4.4-0.4c-0.3,0.1-0.7,0.1-1,0.2c-1.6,0.3-3.5,0.8-5-0.4
		c-0.6-0.5-1.4-1.5-1.4-3.2c0-1.3,0.6-2.5,1.6-3.4c3.4-2.7,11.9-0.8,14.4-0.2c1.7,0.5,3.5,0.4,3.9,0.1c0.9-9.5,4.7-16.4,6.9-19.6
		c-15.6-9.4-39.5-4.3-48.4,1.4c-13.3,8.5-24.5,13.8-38.7,13.9c-12.1,0-22.4-5-33.2-10.3c-6.1-3-12.3-6-19.2-8.4
		c-14.5-4.9-31,0.6-37.3,3.1c2.3,3.2,5.9,9.5,6.3,18.5c0.3,0.4,2.2,0.5,3.8,0.2c2.6-0.5,11.1-2,14.4,0.9c1,0.9,1.5,2.1,1.5,3.4
		c-0.1,1.8-0.9,2.7-1.5,3.2c-1.6,1.1-3.5,0.6-5,0.2c-0.3-0.1-0.7-0.2-1-0.2c-1.8-0.4-3.7-0.2-4.4,0.2l-3.2,1.8l-0.1-5.1
		c-1.3,0.2-4.8,0.7-7-1c-1.1-0.8-1.7-2-1.7-3.4c-0.5-11.5-6.9-17.9-7-18L0,198.2l2.8-1.4c0.9-0.5,23.2-11.1,43.2-4.4
		c7.2,2.4,13.6,5.5,19.8,8.6c10.3,5.1,20.1,9.8,31.1,9.8H97c13.1-0.1,23.6-5.1,36.3-13.2c10.5-6.7,37.9-12.4,55.2,0l2,1.4l-1.6,1.8
		c-0.1,0.1-6.3,7.4-7.3,19c-0.1,1.4-0.8,2.5-1.9,3.3c-2.3,1.6-5.8,0.9-7.1,0.6L172.2,228.8z"/>
	<path style="fill:#FFFFFF;" d="M31.5,219.2c0,0-2.2-2.2-3.1-3.8c-1.8-3.2-15.9,3.1-15.9,3.1l3.8,0.8"/>
	<path style="fill:#FFFFFF;" d="M158.4,220c0,0,2.2-2.1,3.2-3.7c1.9-3.1,15.8,3.5,15.8,3.5l-3.9,0.7"/>
	<path style="fill:#FFFFFF;" d="M10.9,219.3c0,0-0.3-8.7-2.2-12.5c-1.9-3.8-2.7-7.7-2.7-7.7s11.8-5.9,19.5-6.1
		c7.7-0.1,26.9,3.2,32.8,6.5c6,3.3,22.1,12.1,30.4,13.9c8.3,1.8,22.1-0.3,30.8-3.9s14.4-9.7,17.9-11.2s14.8-5.6,22.3-6.3
		c7.6-0.7,16.7,2.4,21.8,3.4s4.4,2.9,4.4,2.9l-6.2,19.7c0,0-9.9-3.4-16.5-3.6c-6.6-0.2-17.9,4.8-21.4,6.1
		c-3.5,1.3-18.9,7.7-23.8,9.7c-4.9,1.9-21.7,6.4-31.2,4.3c-9.5-2.1-28-11.5-32.9-13.9c-4.8-2.4-22.3-8.2-24.7-7.1
		C26.9,214.5,10.9,219.3,10.9,219.3"/>
	<path style="fill:#FFFFFF;" d="M107.5,146.3l0.1,0.1l-0.6,0.1L107.5,146.3z M175.9,31.5c-0.4-1.1-2.2-1.9-9.6-1.9
		c-2.9,0-5.6,0.1-5.6,0.1c-0.1,0-0.2,0-0.3,0.1c-4.6,0.3-8.9,1.4-12.9,3.1c5.2-6.3,13.4-10.2,18.3-12.2c0.3-0.1,1-0.4,1.1-0.7
		c0.2-0.4,0.6-0.7,0.3-1.3c-0.6-1-2.8-1.3-4.3-1.3c-1.6,0-3.9,0.2-6.7,0.6c-1.4,0.2-2.7,0.4-4,0.7l-0.2,0c-5.7,1.3-11,3.8-15.5,7.3
		c-0.6,0.5-1.2,1-1.8,1.5l3.6-6.1c2-3.2,4.1-6.1,6.3-8.8c0.2-0.2,0.3-0.4,0.3-0.6c0.1-0.4,0.6-1.1,0.3-1.5c-0.2-0.2-0.6-0.6-1.3-0.6
		c-0.7,0-2.8,0.2-11.1,6.5c-7.8,5.4-14.4,12.5-19.3,20.4c-2,3.5-5.4,10-6.5,14.6c-0.1-0.5-0.1-0.9-0.2-1.4c-0.2-1.8-0.3-3.7-0.3-6
		c0-2.7,0.1-5.1,0.2-6.7c0-0.7-0.1-2.2-0.7-2.3c-0.6-0.2-1.6,1.1-1.9,1.7c-4,9.3-5.1,16.9-5.3,21.5l-1.5,13.5
		c-0.2,0.9-0.9,5.4-0.9,5.4c-1.1-2-1.9-3.4-2.8-5.5l-0.1-0.2l-1.3-2l-0.1-0.2c-1.9-2.3-3.9-3.5-6.1-4.8c-3.2-1.9-7.1-4.3-13-11.1
		c-3.2-3.7-7-11.3-8.2-16.5c-2.4-10.3-2.2-22.6,0.6-33.7c0.3-0.7,0.4-2.1,0.1-2.5c-0.3-0.3-0.7-0.6-1.2-0.6c-0.9,0-1.6,0.8-7,9.3
		l0,0.1c-3.5,5.6-6,12.1-7.2,18.7c-0.3,1.4-0.5,2.9-0.6,4.3c-1.3-3.1-2.3-6.3-3.1-9.6c-1.7-7-2.3-14.2-1.7-20.7
		c0-0.4,0.1-1.5-0.2-1.8C44.3,0.2,44,0,43.6,0c-1.2,0-3,1.5-6.8,11.7c-3.6,9.7-4.8,18.5-3.7,28.2c-4.1-5.3-6-12.9-7.6-19.6
		c-0.4-1.7-0.8-3.3-1.2-4.9c-0.2-0.8-0.8-2.7-1.5-2.3l-0.1,0.1l0,0l-0.1,0.1l-0.1,0.1c-0.1,0.1-0.7,1.8-0.8,2
		c-0.2,0.4-0.4,1.1-0.5,2l0,0.1c0,0.3,0,0.6,0,0.9c0,0.4,0,0.7,0,1c-0.5,5.1-0.9,18.2,5.9,32l0.2,0.4c0.1,0.2,0.2,0.4,0.3,0.6
		c0.7,1.5,1.6,3,2.4,4.3c0.3,0.5,0.5,0.9,0.8,1.3c0.9,1.6,1.7,2.6,2.6,3.6c-3.8-0.8-9.4-1.9-12.2-2.3c-0.6-0.1-1.2,0.3-1.5,0.8
		c-0.2,0.6,0,1.3,0.5,1.6c2.3,1.5,6.4,5.2,10.7,9.3l-0.1,0l7.7,7.2l0.7,0.7c2.5,2.4,5.1,4.8,7.6,7.1l-5.3-0.5
		c-0.6-0.1-1.1,0.3-1.4,0.8c-0.2,0.5-0.1,1.2,0.4,1.6l12.3,10l0,0l5.4,4.3l0.1,0.1l9.2,7.4c0.2,0.2,0.5,0.3,0.8,0.3l2.4,0.1
		c-5,2.1-9.6,2.2-15,0.4c-4.1-1.4-8.1-3.5-11.4-6.2c-0.5-0.4-1.7-1.1-2.2-0.7c-0.5,0.4-0.1,1.7,0.1,2.3c1,2.6,3,4.8,4.9,6.9
		c-6.4-0.8-12.2-2.6-18.8-5.6c-0.5-0.2-1.5-0.9-1.9-0.4c-0.4,0.5-0.1,1.9,0.2,2.4c3,4.6,5.4,7.8,7.8,10.3c2.5,2.6,5.8,5.3,7.4,6.2
		c0.3,0.2,1.1,0.7,5.1,0.7c1.5,0,3.2-0.1,4.6-0.2c0.2,0,0.3,0,0.5,0c-3.9,1.4-7.6,1.9-10.7,1.5c-0.7-0.1-2.2,0-2.4,0.6
		c-0.2,0.7,1.1,1.7,1.8,2c4.7,1.7,9.3,2.8,13.7,3.4c1.5,0.4,5.6,1.5,10,1.9c0.3,0,0.6,0,0.9,0c0.4,0,0.7,0.1,1.1,0.1
		c1.7,0.2,3.3,0.3,5,0.3c1.4,0,2.8-0.1,4.3-0.3c0,0.2,0.1,0.3,0.1,0.5l0.8,1.5c-0.3,0-0.6,0.2-0.8,0.4c-0.4,0.4-0.5,1-0.2,1.5
		l1.7,3.1l0.1,0.2l0.1,0.1l-0.2,0.1c-0.5,0.3-0.7,0.9-0.5,1.4c0.9,3.5,2.5,4.7,3.8,5.6c0.8,0.6,1.3,1,1.6,1.9
		c0.2,0.6,0.5,1.3,0.8,2.1c0.6,1.6,1.6,4,1,5c-0.8,1.3-1.4,1.7-2.3,2.3c-0.6,0.4-1.3,0.9-2.2,1.6c-2.1,1.9-2.2,4.4-0.4,7.4l0.1,0.2
		c0.3,0.5,0.8,0.7,1.4,0.7c0.6-0.1,1-0.5,1.1-1.1c0.4-2.1,3.9-3.8,4.6-3.9c1.2-0.1,2.4-0.2,3.2-1c1.3-1.3,8.3-1.4,8.3-1.4
		s0.8,0,2.1,0.3c0.2,0.1,0.5,0.2,0.7,0.4c0.2,0.1,0.5,0.2,0.7,0.2c0.2,0,2.5,0.9,2.7,1.2c0.3,0.4,4.3,2.6,4.8,2.8
		c0.3,0.1,2.6,3.2,2.9,3.2c0.5,0.8,0.7,0.6,0.8-0.2c1.5-0.9,2.8-2.9,3.4-5c0.5-2.1,0.2-4.1-0.9-5.8c-0.1-0.1-0.1-0.2-0.2-0.3
		c-0.2-0.2-0.8-0.7-1.6-1.3c-1-0.8-2.6-2-2.9-2.4c-1-1.1-1.5-2.4-1.9-3.8c0.4,0,0.7-0.2,1-0.5c0.3-0.3,0.3-0.7,0.3-1.1l-0.2-0.8
		c-0.3-1.2-0.6-2.5-0.8-4l0-0.1l0.2,0h0c0.7,0,1.3-0.6,1.3-1.3c0-0.2-0.1-0.5-0.2-0.7l-1.5-4c0.1,0.2,0.2,0.3,0.3,0.3
		c0.4,0.4,1.3,1,1.8,0.9c0.5-0.2,0.5-1.1,0.6-1.7c0.2-2.7,2.3-5.4,4.5-7c0.1,0.4,0.2,0.6,0.3,0.7c0.2,0.4,0.2,1.4,0.8,1.4l0,0
		c0.5,0,0.9-0.7,1.6-1.5c0.9-1,1.7-1.8,2.7-2.1l4.6,1.9c0.3,0.8,0.8,2.2,1.9,3c0.9,0.7,1.7,1.2,3.2,2.2c0.2,0.1,0.3,0.2,0.5,0.3
		c-0.1,0.1-0.3,0.1-0.5,0.2c-0.5,0.2-2,0.7-2.1,1.3c0,0.6,1.5,1.1,2,1.3c1,0.4,2.2,0.6,3.3,0.6c2.3,0,4.3-0.8,5.5-2.2
		c1-1.2,1.4-2.7,1.1-4.3c-0.2-1.2-0.7-4.2-0.8-5.2l1.3-4.1c0-0.1,0.1-0.3,0.1-0.4c0-1.9-0.6-4.1-1.6-6.4l-0.1-0.2
		c0-0.2-0.1-0.3-0.2-0.4c-0.1-0.1-0.1-0.2-0.2-0.3c-0.3-0.6-0.6-1.3-1.1-2c-3.3-5.5-8-9.9-8.2-10.1c-0.4-0.4-1.2-1-1.7-0.8
		c-0.5,0.2-0.6,1.3-0.6,1.9l0,0.3c-0.3-0.8-1.6-2.1-1.8-2.5c-0.6-0.9-1-1.8-1.2-2.5c4-18.4,16.2-30.7,16.3-30.8
		c0.2-0.2,0.4-0.5,0.4-0.8c2.6-26.4,32.8-38,33.1-38.1c0.1,0,0.9-0.3,1-0.4C175.8,32.3,175.9,31.7,175.9,31.5"/>
	<path style="fill:#282F6B;" d="M93.8,235.3c-14.4,0-23.6-5-33.3-10.2c-5.3-2.8-10.7-5.7-17.2-7.9c-18.6-6.3-31.2,1.7-31.4,1.8
		l-1-1.6c0.5-0.3,13.5-8.6,33-2c6.6,2.2,12.1,5.2,17.5,8c10.3,5.6,20.1,10.8,36.3,9.8c15-0.9,25.3-6,35.3-10.9
		c4.2-2.1,8.1-4,12.2-5.6c0.3-0.1,0.6-0.2,1-0.4c5.6-2.2,20.6-8.1,33.9,2l-1.1,1.5c-12.4-9.5-26.7-3.8-32.1-1.7
		c-0.4,0.1-0.7,0.3-1,0.4c-4.1,1.5-7.9,3.4-12.1,5.5c-9.6,4.8-20.6,10.2-36,11.1C96.4,235.2,95,235.3,93.8,235.3"/>
	<path style="fill:#1A478E;" d="M91.8,220.5l-0.4,0l-0.1,3.1l0.4,0c1.1,0,1.8-0.4,1.8-1.5C93.5,221,92.9,220.5,91.8,220.5"/>
	<polygon style="fill:#1A478E;" points="101.3,224.6 103.4,224.3 101.9,220.8 	"/>
	<polygon style="fill:#1A478E;" points="69.9,219.1 70.6,215.3 68,218.1 	"/>
	<path style="fill:#1A478E;" d="M31.6,200.1l-0.7,0l-0.2,3.1l0.7,0c1.1,0.1,1.8-0.5,1.8-1.5C33.4,200.7,32.8,200.1,31.6,200.1"/>
	<polygon style="fill:#1A478E;" points="121.9,218.7 123.9,217.9 121.4,214.9 	"/>
	<path style="fill:#1A478E;" d="M173.4,210.7c-0.9,0.1-1.7-0.6-1.8-1.5c-0.1-0.9,0.6-1.7,1.5-1.8c0.9-0.1,1.7,0.6,1.8,1.5
		C175,209.8,174.3,210.6,173.4,210.7 M170.9,201.4c-0.6-0.6-1.3-1-2.2-1.1c-1.6-0.2-2.8,0.9-3,2.9c-0.2,2,0.8,3.3,2.4,3.5
		c0.8,0.1,1.6-0.1,2.4-0.5l0.1,2.8c-1,0.4-2,0.6-3.4,0.4c-3.5-0.4-5.4-2.9-5-6.6c0.4-3.6,2.9-5.8,6.5-5.4c1.2,0.1,2.1,0.5,2.9,1
		L170.9,201.4z M160,209c-0.9,0.1-1.7-0.6-1.8-1.5c-0.1-0.9,0.6-1.7,1.5-1.8c0.9-0.1,1.7,0.6,1.8,1.5C161.6,208.2,160.9,209,160,209
		 M155.1,209.8l-3.4,0.7l-2.4-11.4l7.2-1.5l0.6,2.8l-3.9,0.8l0.4,1.8l2.8-0.6l1,2.7l-3.2,0.7L155.1,209.8z M140.2,215l-4.4-10.8
		l7.1-2.9l1,2.5l-4,1.6l0.6,1.6l3-1.2l1.4,2.3l-3.4,1.4l0.7,1.7l4.1-1.7l1,2.5L140.2,215z M136,217.3c-3.2,1.6-6.1,0.4-7.8-2.9
		c-1.6-3.3-0.6-6.4,2.6-8c1.1-0.5,2-0.7,3-0.7l0.9,2.9c-0.8-0.2-1.6-0.2-2.4,0.2c-1.4,0.7-1.9,2.2-1,4c0.9,1.8,2.4,2.4,3.9,1.7
		c0.7-0.4,1.3-0.9,1.8-1.7l1.6,2.3C138,216,137.2,216.7,136,217.3 M127.2,221.5l-1.5-1.6l-3.3,1.5l0.3,2l-3,1.4l-1.2-12.3l3.5-1.6
		l8.2,8.7L127.2,221.5z M111.3,227.4l-3.4-11.1l3.3-1l2.6,8.3l3.1-1l1.3,2.7L111.3,227.4z M105.5,228.8l-1-2l-3.6,0.5l-0.3,2
		l-3.3,0.5l2.4-12.2l3.8-0.5l5.4,10.7L105.5,228.8z M91.8,226.1l-0.5,0l-0.1,3.5l-3.4-0.1l0.4-11.7l4,0.1c3,0.1,4.8,1.5,4.7,4.2
		C96.7,224.9,94.7,226.2,91.8,226.1 M81.1,228.3l-6.9-2.2l3.6-11.1l3.3,1.1l-2.7,8.3l3.1,1L81.1,228.3z M72.4,225l-3.4-1.1l0.3-2.2
		l-3.3-1.7l-1.4,1.5l-3-1.5l8.9-8.7l3.5,1.7L72.4,225z M56.6,217.3l4.1-7.8l-2.8-1.5l1.3-2.5l8.3,4.4l-0.9,2.8l-2.9-1.5l-4.1,7.8
		L56.6,217.3z M53.1,207.4c2.1,1.8,2.7,3.1,2,4.9c-1.1,2.5-3.3,2.7-5.5,1.8c-1.6-0.7-2.7-1.5-3.7-2.6l1.6-2.4c1,1.2,2.1,2.1,3.2,2.6
		c0.6,0.3,1.1,0.2,1.3-0.2c0.2-0.4,0-0.8-1.2-1.9c-1.9-1.7-2.5-2.9-1.7-4.7c0.9-2.2,3.1-2.6,5.3-1.7c1.6,0.7,2.4,1.3,3.2,2.3
		l-1.6,2.4c-0.9-1.1-1.8-1.9-2.6-2.2c-0.6-0.3-1-0.2-1.2,0.2C51.9,206.1,52,206.4,53.1,207.4 M42.5,211.2l-3.3-0.9l1.1-3.9l-2-8
		l3.7,0.5l0.9,4.9l3.2-3.6l3.5,0.9l-6,6.1L42.5,211.2z M33.1,209.4l-1.9-3.9l-0.5,0l-0.2,3.6L27,209l0.7-11.6l4.5,0.3
		c3,0.2,4.6,1.6,4.5,4.1c-0.1,1.6-0.9,2.6-2.2,3.2l2.3,4.2L33.1,209.4z M22.3,209.8c-3.5,0.7-6-1.2-6.7-4.8c-0.7-3.6,1.1-6.4,4.6-7
		c1.2-0.2,2.2-0.2,3,0.1l0.1,3.1c-0.7-0.4-1.5-0.6-2.4-0.4c-1.6,0.3-2.4,1.7-2,3.6c0.4,2,1.7,2.9,3.3,2.6c0.8-0.2,1.5-0.6,2.2-1.2
		l1,2.7C24.6,209.1,23.7,209.5,22.3,209.8 M134.5,199.5c-13.2,8.4-24,13.5-37.5,13.5c-18.3,0.1-32.4-12-51.7-18.5
		C26,188,3.8,198.8,3.8,198.8s7.1,6.9,7.6,19.4c0,0,12.9-8.4,32.2-1.9c19.3,6.5,29.3,19.4,54.1,17.9c21.6-1.3,33.9-11.3,47.8-16.5
		c4.3-1.6,20.2-9,33.9,1.4c1.3-12.2,7.8-19.8,7.8-19.8C170.8,187.6,144.2,193.3,134.5,199.5"/>
	<path style="fill:#C42030;" d="M23.6,222.4c1,0,1.9,0.1,2.7,0.3c0.4,0.1,0.8,0.2,1.2,0.3c0.9,0.2,2,0.6,2.4,0.3
		c0.1-0.1,0.2-0.4,0.2-0.8c0-0.4-0.1-0.7-0.4-0.9c-1.3-1.1-5.3-1.1-8.7-0.7l0,1.8C21.9,222.5,22.8,222.4,23.6,222.4 M164.4,221.2
		c-1.6,0-2.9,0.2-3.6,0.7c-0.3,0.2-0.4,0.5-0.4,0.9c0,0.4,0.1,0.7,0.2,0.8c0.3,0.3,1.5,0,2.4-0.2c0.4-0.1,0.8-0.2,1.2-0.2
		c1.5-0.2,3.6-0.3,5.3,0.3l0.1-1.8C167.9,221.4,166,221.2,164.4,221.2 M171.1,226.5l-1.3-0.8c-1.1-0.7-3.3-0.9-5.3-0.6
		c-0.3,0.1-0.7,0.1-1.1,0.2c-1.4,0.3-2.9,0.6-3.9-0.2c-0.6-0.5-0.9-1.2-0.9-2.2c0-1,0.4-1.8,1.1-2.3c3.1-2.4,12.2-0.2,13.3,0.1
		c0.9,0.2,3.7,0.8,4.9-0.1c0.3-0.2,0.5-0.6,0.6-1c1-10.5,5.7-17.6,7.4-19.9c-15.8-10.6-41-5.3-50.9,0.7
		c-11.3,6.9-23.5,13.6-37.9,13.6h-0.2c-11.8,0-21.8-4.9-32.5-10.1c-6.1-3-12.4-6.1-19.4-8.4c-16.3-5.5-35,1.8-39.7,3.8
		c2,2.3,6.6,8.9,7,19.1c0,0.5,0.2,0.8,0.5,1c1.2,0.9,4,0.5,4.9,0.3c1.1-0.2,10.3-2,13.3,0.6c0.7,0.6,1.1,1.4,1,2.4
		c-0.1,1-0.4,1.7-1,2.2c-1.1,0.8-2.5,0.4-3.9,0c-0.4-0.1-0.7-0.2-1.1-0.3c-2-0.4-4.2-0.3-5.3,0.4l-1.3,0.8l-0.1-4.4
		c-0.4,0.1-0.8,0.1-1.2,0.2c-0.4,0.1-4.3,0.9-6.4-0.6c-0.8-0.6-1.2-1.4-1.2-2.4c-0.5-12-7.3-18.8-7.4-18.8l-0.9-0.9l1.2-0.6
		c0.9-0.5,22.8-10.9,42.2-4.4c7.1,2.4,13.5,5.5,19.6,8.5c10.5,5.1,20.3,10,31.7,10H97c12.6-0.1,23.5-5.2,37-13.4
		c10.4-6.4,37.3-11.8,53.7-0.1l0.8,0.6l-0.7,0.8c-0.1,0.1-6.5,7.7-7.6,19.7c-0.1,1-0.6,1.8-1.3,2.4c-2.1,1.5-6,0.5-6.4,0.3
		c-0.3-0.1-0.7-0.2-1.1-0.3L171.1,226.5z"/>
	<path style="fill:#C42030;" d="M93.8,235.4c-14.4,0-23.6-4.9-33.3-10.2c-5.3-2.8-10.7-5.8-17.2-7.9c-18.6-6.2-31.3,1.7-31.4,1.8
		l-1-1.5c0.5-0.4,13.5-8.6,33-2c6.6,2.2,12.1,5.2,17.5,8c10.4,5.6,20.1,10.8,36.3,9.8c15.1-0.9,25.3-6,35.3-10.9
		c4.2-2.1,8.1-4,12.2-5.6c0.3-0.1,0.6-0.2,1-0.4c5.6-2.2,20.6-8.1,33.9,2l-1.1,1.4c-12.4-9.5-26.7-3.8-32.1-1.7
		c-0.4,0.1-0.7,0.3-1,0.4c-4.1,1.5-8,3.4-12.1,5.5c-9.6,4.8-20.6,10.2-36,11.1C96.4,235.4,95,235.4,93.8,235.4"/>
	<path style="fill:#C42030;" d="M30.1,221.8c-4.4-3.6-6.1-7-6.1-7.2l1.6-0.8c0,0,1.6,3.3,5.6,6.6L30.1,221.8z"/>
	<path style="fill:#C42030;" d="M160.6,222.2l-1.1-1.5c4.7-3.4,5.3-7,5.3-7.1l1.8,0.3C166.6,214,165.9,218.3,160.6,222.2"/>
	<path style="fill:#274499;" d="M116,125.9c0.1,0.1,0.3,0.3,0.4,0.4C116.4,126.2,116.3,126.1,116,125.9"/>
	<path style="fill:#274499;" d="M106.3,55.1c-0.3-1.3-0.6-3-0.8-4.9C105.7,51.8,105.9,53.4,106.3,55.1"/>
	<path style="fill:#FFFFFF;" d="M106.3,55.1c-0.3-1.3-0.6-3-0.8-4.9C105.7,51.8,105.9,53.4,106.3,55.1"/>
	<rect x="105.5" y="50.2" style="fill:none;" width="0.8" height="4.9"/>
	<path style="fill:#F4F4F4;" d="M119.4,104.5C119.4,104.2,119.4,104.5,119.4,104.5"/>
	<path style="fill:#1A478E;" d="M137.4,138.3c-0.5,0.6-1.3,1.2-2.1,1.5c-0.9,0.4-1.9,0.6-2.6,0.4l0.1,0l0.2-0.1l0.2-0.1
		c1.9-1.2,0.9-3.3-1.1-5.6l0,0l-4.4-3.9l-0.2-0.2l-0.1-0.1l0,0l0.1,0l0,0l0.2-0.1l0.7,0.4l2.3,1.3l0.2,0.1l1,0.6l1.1,0.6l0,0l0,0
		c1-0.2,2.2-0.5,2.3-0.6c0.8-0.2,1.2-0.4,1.4-0.6C136.6,132.1,138.5,136.9,137.4,138.3 M132.4,137.4l-1.6-1.3l-1.2-0.9l-0.3-0.9
		l-0.1-0.2l-0.4-1.2l0,0c1.3,0.8,2.3,2.1,3,3.2c0.1,0.2,0.9,1.6,0.9,1.6L132.4,137.4z M124.1,126.4l-2.1-3.7l-5.2-2.6l4.3,5
		c-2.3-1.3-6.1-3.3-10.3-4.1c0,0,3.5,3.3,5.2,5c0.3,0.2,0.4,0.4,0.4,0.4c-0.1-0.1-0.2-0.2-0.4-0.4c-0.5-0.3-1.6-0.8-4.2-0.9
		c-2.4-0.2-5.3-0.9-7.8-2.3c0,0,0.5,0.8,1.6,1.7l0,0l0,0c1,0.8,2.4,1.8,4.4,2.4c0.2,0.1,2.1,0.9,2.3,0.9c-1.4,0.6-2.6,1.2-3.6,2
		c-1.9,1.5-3.1,3.3-3.8,5.1c-1.2,3.1-2.3,8.8-1.5,12c-2.7-3.6-5.1-8.4-3.8-13.7c-4.1,2.3-6.8,1.6-9.7,1.1c-1.3,1.8-3.1,6.1-3.3,9.7
		c-0.2-0.4-0.5-0.8-0.7-1.2c-1.1-2.3-1.6-4.9-1.7-7.4c-0.1-1-0.1-2,0-2.8v0l9.5-6.7l-13.8-1.2l0,0c0.2-0.2,0.5-0.3,0.7-0.5
		c5.3-3.7,11.8-6.3,18.4-6c0.5,0,1,0.1,1.5,0.1c-4.2-2.4-11.6-2.3-16-0.9c-6,1.9-8.3,2-14.7,0.8c6.7-1.4,6.5-1.5,10.4-3.4
		c3.3-1.8,9.5-5.2,17.3-3.8c-1.9-0.8-3.6-1.6-5.9-2.2c-2.3-0.5-6-1-10-0.2c0,0,2.7-2.9,7.7-3.6c-6.9-6.2-27.2-16-27.2-16
		c28.9,6.8,41.2,20.4,43,22.6c0.1,0.1,0.2,0.2,0.4,0.3c-1.1-2.5-7.5-17.4-25-28.3c-2.4-1.5-5.1-2.6-7.6-4c-4-2.3-7.6-4.9-11-7.7
		l0,0.1C29.3,46.1,41.4,10.4,41.4,10.4c-1.1,8.3,0.3,16.4,2.7,23.6c1.5,4.6,3.4,8.8,5.4,12.5c2.2,4.1,4.4,7.6,6.2,10
		c4.1,5,8.9,9.2,14.5,12.3c0,0-24.7-16.8-10.6-52.6c-0.5,1.5-10.2,30.2,26.2,55.2c0.7,0.5,1.2,0.5,1.4,1c4.8,11.7,23.5,30.2,27,39.2
		c-0.2-1.8-0.3-3.7-0.5-5.5c2.1,2.2,3.7,5,4.6,8c0.2-1.8,0.3-4.5,0.5-6.4c3,1.7,7.5,5.1,11.2,9.1l-0.1-0.1c-0.1-0.1-0.3-0.3-0.4-0.4
		l0.2,0.2l0.1,0.1l0.1,0.1l0.1,0.1l-0.2-2.7l-0.1-1.2c0,0,5.6,6.9,7.5,12.2c0.1,0.3,0.2,0.6,0.3,0.9c0,1.5-0.2,2.5-0.5,3.2
		c-0.2,0.6-1.1,1.5-1.2,1.6c-0.1,0.1-0.2,0.1-0.2,0.1c0.3-0.2,0.3-0.7,0.3-1.1c0-0.6-0.1-1.1-0.3-1.8c-0.2-0.6-0.4-1.2-0.6-1.7
		c-0.2-0.5-0.4-0.8-0.4-0.8c0.1,1.2,0.1,2.1-0.1,2.8l0,0.1c-0.3,1.2-0.8,1.5-1,1.6l0,0c0-0.2-0.1-0.4-0.1-0.6
		c-0.2-0.4-0.3-0.9-0.5-1.3c-0.6-1.6-2.9-5.9-3.7-7.5c-0.7,0.9,0.2,3.1,0.2,3.1c0.3,0.6,1,2,1,2c-0.6,1.5,0.3,3.1,1.6,3.7
		c-0.4,0.2-1.6,0-2.4-0.5c0.3,0.6,1.4,2.1,2,2.6C129.8,131,126.1,128.1,124.1,126.4 M137.8,120.2c0-0.2-0.1-0.2-0.1-0.2
		S137.8,120.1,137.8,120.2c-0.2-0.3-0.3-0.6-0.4-0.9c-0.3-0.6-0.7-1.2-1-1.8c-3.3-5.4-8-9.8-8-9.8l0.1,1.3l0,0l0.1,2
		c0,0-15.3-8.9-21.8-17.1c-5.1-6.4-10.9-13.3-14.3-21.8l-1.3-2c-4.4-5.2-9-4.3-19.1-15.9c-3.5-4-7.3-11.9-8.5-17.1
		c-2.6-11-2.1-23.5,0.6-34.4c0,0,1.3-3.7-5.7,7.4l0,0C55,15.7,52.6,22,51.4,28.5c-0.6,3.3-0.9,6.6-0.8,9.9
		c-2.4-4.7-4.3-9.8-5.6-15.1c-1.7-7-2.4-14.2-1.7-21.1c0,0-1.2-1.2-5.5,10.1c-4.2,11.3-4.9,21-3,31.8c-7.8-6.6-9.5-18.7-12.1-28.2
		l0,0h0l0,0h0l-0.1,0.1c-0.1,0.2-0.2,0.6-0.3,1.5c0,0.7-0.1,1.4-0.1,2.1c-0.5,4.8-0.9,17.8,5.8,31.4c0.1,0.3,0.3,0.6,0.4,1
		c0.9,2,2.1,3.8,3.1,5.6c1.7,3,3,3.7,4.9,6.3c-0.2,0-11.6-2.4-15.8-3.1c2.5,1.7,7.2,5.9,12.4,10.8c0,0,15.8,1.3,28.2,10.4
		c0,0-10.7-5.3-23.6-6.1c0.8,0.7,1.5,1.4,2.3,2.1c3.7,3.5,7.4,6.9,10.6,9.8l0,0l-9.3-0.9l13.4,10.8l2.4,0.1c0,0,4.5-0.2,9,0.8
		c4.7,1.1,7.3,2.6,7.3,2.6c-2.7-0.9-7.1-1-9.7-0.9c-1.9,0.1-3.1,0.7-4.5,0.8l0.8,0.6l8.4,6.8l7.5,0.2c-6.4,4-12.6,5.5-20.6,2.8
		c-4.2-1.4-8.4-3.7-11.9-6.5c1.4,3.5,4.7,6.4,7.2,9.1c-8.4-0.6-15.2-2.6-22.9-6.1c2.9,4.6,5.3,7.7,7.6,10.1c2.3,2.4,5.5,5.1,7.2,6
		c1,0.6,5.7,0.6,8.8,0.3c0.6-0.1,1.1-0.1,1.6-0.2c0.7-0.1,1.6-0.3,2.6-0.5c3.2-0.7,7.1-1.8,6.8-1.7c-1.4,0.9-2.9,1.8-4.5,2.6
		c-0.9,0.5-1.9,0.9-2.9,1.4c-4.5,1.9-9.4,3.1-13.8,2.6c5,1.8,10.2,3.1,15.4,3.6c1.8,0.2,2.5,0.1,4-0.6c2.4-1.1,4.3-2,6.2-2.9
		c0.9-0.5,1.9-0.9,2.8-1.4c1.3-0.7,2.7-1.4,4.2-2.2c-0.9,0.8-1.7,1.6-2.6,2.3c-0.5,0.4-1,0.8-1.5,1.3c-1.8,1.5-3.8,3-6,5
		c5.9,0.4,9.4,1.4,17.3-1.1c0,0-1.6,1.2-3.9,2.5l2.3,4.6l-2.5-1.1l1.7,3.1c0,0,1.2,1.5,2.9,2.7l0.6,1.8c-1.3-0.4-3-1.8-3.8-2.3
		c1.3,5.3,4.5,4.3,5.4,7.5c0.6,2.2,2.9,6.1,1.6,8.1c-1.5,2.4-2.5,2.3-4.7,4.2c-2.5,2.2-0.6,5-0.1,5.9c0.5-2.6,2.5-4.3,3.6-4.7
		c1.7-0.5,3.8-0.1,4.6-0.9c2.7-2.7,8.7-3.4,12.7-0.9c-1.9-3.1-2.9-3-6.6-4.1c6.7,0.4,7.1,1.9,10.3,5.7c0.3-2.2-1.5-4.9-3.1-6.2
		c-0.5-0.4-5.8-1.1-10.9-1.6c-1.8-0.2-2.5-2.5-2.8-3.7c0.3,0.2,1.8,0.9,3.2,0.9c-0.4-1.8-0.9-3.9-1.2-5.1c0.5,0.2,1,0.6,2.2,0.6
		l-0.7-3c-0.3-2.4-1.1-4.2,1.2-7.9c1.3,0.9,1.9,1.3,2.4,1.9c0,0,0.5,2.3,1,3.6c0.1,0.2,2.4,2.2,2.5,2.4l-3.9-1.1c0,0,1.3,3,3.9,4.7
		c1.5,0.5,2.9,1.2,3.4,1.8c0.5,0.6,1.2,2.3,0.9,3.2c-0.3,0.7-2.4-2.4-6.8,1.3c3,0,6.6,0.9,7.4,1.8c1,1.2,1.7,2.3,2.5,2.7
		c3.2,1.9,3.4,2.9,3.2,6.7c2-1.5,1.4-5.5,1.1-6.5c2.6,3.2,2.1,7.4,1.2,9.1c2-1.1,4.4-5.4,2.1-8.9c-0.6-0.6-3.9-3-4.6-3.8
		c-1.7-1.9-2.1-4.1-2.9-6.2c0.6,0,1.3,0.3,1.9,0.3c-0.3-1.3-0.7-3-1-4.8c0-0.2-0.1-0.3-0.1-0.5l0-0.2c0-0.3-0.1-0.6-0.1-0.8l0-0.2
		c0-0.3-0.1-0.6-0.1-0.9c1.1,0.7,1.8,1,1.8,1l-1.9-5v0c0-0.4,0.1-0.8,0.1-1.1l0-0.1c0.1-0.3,0.1-0.7,0.2-1l0-0.2
		c0.1-0.3,0.2-0.6,0.3-0.9l0.1-0.2c0.1-0.4,0.3-0.7,0.4-1.1c-0.8,1.8,1.6,4.4,1.6,4.4c0.3-4,3.9-7.7,6.9-9c-0.2,1.1,0.4,2.2,0.4,2.2
		c0.9-1.9,2.7-2.6,4-2.9l2.4,1l2.6,1l0.7,0.3c0,0,0.5,2,1.6,2.9c1.1,0.9,2.2,1.5,4.9,3.3c-0.2,0.7-0.8,1.3-2,1.8
		c3.9,1.4,8.7-0.3,8.1-4.4c-0.2-1.5-0.9-5.5-0.9-5.5v0l0.9-3l0.3-0.9l0-0.1l0.1-0.4C139.4,124.3,138.7,122.2,137.8,120.2"/>
	<path style="fill:#1A478E;" d="M160.8,31l0.2,0c-6.2,0.4-12.4,2.2-17.5,5.4c4.2-8.2,13.6-13.8,21.8-17.1c0,0,1-1.6-9-0.1
		c-1.3,0.1-2.6,0.4-3.9,0.6l-0.1,0h0c-5.5,1.2-10.7,3.6-15.1,7.1c-2.5,2-4.7,4.2-6.6,6.8c-8.4,11.2-11.2,21-11.2,21
		s-1.2-14.4,17.2-33.5c2-3.4,4.3-6.6,6.8-9.6c0,0,0.4-2.2-10,5.8c-7.5,5.3-14.1,12.2-18.9,20c-1.7,3.1-5.4,9.9-6.4,14.5
		c0,0.1,0,0.3,0,0.4c0,0,0.1,2.7,0.6,6.3c0.6,4.4,2.4,10.4,2.4,10.4c-1.2-2.5-3.4-8-4.1-10.5c-0.4-1.2-0.6-2.4-0.9-3.5
		c-0.2-0.7-0.3-1.4-0.4-2c-0.1-0.4-0.1-0.7-0.2-1.1c-0.1-0.6-0.2-1.2-0.2-1.8c-0.2-2.1-0.3-4.1-0.4-6.1c0-2.7,0.1-5,0.2-6.8
		c-4.8,11-5.2,19.5-5.3,22.8c-0.2,2.2-0.4,3.8-0.5,5.1c1.2,3.5,3.4,8.2,7.4,14.2c0,0-3.6-2-7.7-9.3c-0.2,1.6-0.5,3.4-1.1,6.3
		c4.7,8.1,9.5,14.3,13.8,19v-9.6c1.5,1.5,2.6,2.7,3.3,3.7c0.7-3.1,1.7-6.9,3-10.9c8.4-24.9,18.3-32.4,18.3-32.4
		c-9.1,14.2-17.5,43.1-17.1,56.5c1.8,1.5,3.3,2.7,4.7,3.6c-0.7-1.1-1.3-2.3-1.5-3.2c4.1-19.2,16.7-31.8,16.7-31.8
		c2.8-27.5,33.9-39.2,33.9-39.2C175.8,30.3,160.8,31,160.8,31"/>
	<path style="fill:#D3D2D2;" d="M165.5,189.6v-14.2v-1.4c-1.6,1.3-3.2,2.4-4.6,3.4v1.5v2v1h-2.4v-3c-10.1,6.7-15.1,7.4-15.1,7.4
		c6.8-3.5,11.7-6.9,15.1-9.8v-3.8v-2.1c-12.4,10.7-23.6,16.2-27.7,18c0,0.3,0,1.2,0,2.5h18.3h3c4.3-0.7,8.8-1,13.4-0.9"/>
	<path style="fill:#A8A5A6;" d="M146.2,192.4c-3.3,0.9-6.4,1.9-8.9,3.1v-3.1H146.2z"/>
	<path style="fill:#A8A5A6;" d="M119.4,205.5c-0.8,0.4-2.3,1-2.9,1.3l0-3.2v-6.5h2.9v6.5V205.5z"/>
	<rect x="116.5" y="188.6" style="fill:#A8A5A6;" width="2.9" height="7.4"/>
	<path style="fill:#A8A5A6;" d="M129.6,199.4v-2.3h-2.6v2.3v2.1c0.9-0.5,1.7-1,2.6-1.6L129.6,199.4z"/>
	<rect x="126.9" y="188.6" style="fill:#A8A5A6;" width="2.6" height="7.4"/>
	<path style="fill:#A8A5A6;" d="M122.6,202v-4.9h-2v4.9l0,2.9c0.7-0.3,1.3-0.7,2-1V202z"/>
	<rect x="120.6" y="188.6" style="fill:#A8A5A6;" width="2" height="7.4"/>
	<rect x="123.7" y="188.6" style="fill:#A8A5A6;" width="2" height="7.4"/>
	<path style="fill:#A8A5A6;" d="M125.8,201.5v-4.4h-2v4.4v1.8c0.7-0.4,1.3-0.7,2-1.1V201.5z"/>
	<rect x="116.5" y="182.4" style="fill:#A8A5A6;" width="13.1" height="5.1"/>
	<path style="fill:#A8A5A6;" d="M64.3,200.2c-1-0.5-1.9-0.9-2.9-1.4l0-0.6v-1.1h2.9v1.1V200.2z"/>
	<rect x="61.4" y="188.6" style="fill:#A8A5A6;" width="2.9" height="7.4"/>
	<path style="fill:#A8A5A6;" d="M71.8,203.9c0.9,0.4,1.8,0.8,2.7,1.2l0-5.7v-2.3h-2.7v2.3V203.9z"/>
	<rect x="71.9" y="188.6" style="fill:#A8A5A6;" width="2.6" height="7.4"/>
	<rect x="65.5" y="188.6" style="fill:#A8A5A6;" width="2" height="7.4"/>
	<rect x="68.7" y="188.6" style="fill:#A8A5A6;" width="2" height="7.4"/>
	<rect x="61.4" y="182.4" style="fill:#A8A5A6;" width="13.1" height="5.1"/>
	<path style="fill:#A8A5A6;" d="M68.7,202.3c0.6,0.3,1.4,0.7,2,1v-1.5v-4.8h-2v4.8L68.7,202.3z"/>
	<path style="fill:#A8A5A6;" d="M58.3,197.3c0.7,0.3,1.3,0.6,2,0.9v-1.9v-3.9h-2v3.9L58.3,197.3z"/>
	<path style="fill:#A8A5A6;" d="M65.5,200.8l0.3,0.2c0.6,0.3,1.1,0.5,1.7,0.8v-1.5v-3.1h-2v3.1V200.8z"/>
	<path style="fill:#D3D2D2;" d="M26.1,184.1V174c1.6,1.3,3.2,2.4,4.6,3.4v4.6h2.4v-3c10.1,6.7,15.1,7.4,15.1,7.4
		c-6.8-3.5-11.7-6.9-15.1-9.8v-4.2v-1.7c11.9,10.2,22.7,15.7,27.2,17.8v2.7c0,0-18.1,0.1-18.6,0c-5.3-1.1-10.6-1.2-15.6-0.7"/>
	<path style="fill:#A8A5A6;" d="M53.9,195.4c-2.5-1-6-2.4-7.9-3.1h7.9V195.4z"/>
	<path style="fill:#A8A5A6;" d="M55.1,195.3v-2.8h2v2.8l0,1.5c-0.2-0.1-1-0.4-2-0.9L55.1,195.3z"/>
	<path style="fill:#A8A5A6;" d="M132.9,197.1v-4.7h-2.2v4.7v2.2c0.7-0.5,1.5-0.9,2.2-1.4L132.9,197.1z"/>
	<path style="fill:#A8A5A6;" d="M136.1,195.5v-3.1h-2v3.1l0,1.6c0.6-0.4,1.3-0.7,2-1.1V195.5z"/>
	<path style="fill:#A8A5A6;" d="M115.3,187.4v-3.6c0-11-8.9-19.8-19.8-19.8s-19.8,8.9-19.8,19.8v3.6l3.4,0c-0.2-1.1-0.3-2.2-0.3-3.3
		c0-9.2,7.5-16.7,16.7-16.7c9.2,0,16.7,7.5,16.7,16.7c0,1.1-0.1,2.2-0.3,3.3L115.3,187.4z"/>
	<path style="fill:#D3D2D2;" d="M30.7,173v-4.5l-4.6-4.7v4.1v1.1c0.6,1,2,2.9,4.6,5.4V173z"/>
	<path style="fill:#D3D2D2;" d="M165.5,169.1c-0.6,1-2,2.9-4.6,5.4v-2.3v-3.7l4.6-4.7v3.6V169.1z"/>
	<path style="fill:#A8A5A6;" d="M92.2,203.2c-0.5,0-0.9,0.3-0.9,1c0,0.6,0.3,0.9,0.9,0.9c0.4,0,0.7-0.1,1-0.4v0
		C93.2,203.7,92.8,203.2,92.2,203.2"/>
	<path style="fill:#A8A5A6;" d="M97.2,203.2c-0.7,0-1.1,0.7-1.1,1.9c0,1.2,0.4,1.9,1.1,1.9c0.7,0,1.1-0.7,1.1-1.9
		C98.3,203.9,97.9,203.2,97.2,203.2"/>
	<path style="fill:#A8A5A6;" d="M101.8,207.8c-0.6,0-1.1-0.2-1.5-0.4l0.1-0.8c0.4,0.2,0.9,0.4,1.4,0.4c0.6,0,1-0.3,1-0.9
		c0-0.5-0.3-0.8-0.9-0.8c-0.3,0-0.6,0.1-0.8,0.2l-0.6-0.1l0.2-2.7h2.9l0.1,0.8h-2.2l-0.1,1.2c0.2-0.1,0.4-0.1,0.8-0.1
		c1,0,1.7,0.6,1.7,1.6C103.8,207.1,102.9,207.8,101.8,207.8 M97.2,207.8c-1.2,0-2-1-2-2.7c0-1.7,0.8-2.7,2-2.7c1.2,0,2,1,2,2.7
		C99.2,206.8,98.4,207.8,97.2,207.8 M91.2,207.8l-0.1-0.8c1-0.2,1.8-0.7,2.1-1.5c-0.4,0.2-0.8,0.4-1.2,0.4c-0.9,0-1.5-0.6-1.5-1.6
		c0-1.1,0.8-1.8,1.8-1.8c1.1,0,1.9,0.8,1.9,2.2C94.1,206.4,92.9,207.4,91.2,207.8 M89.1,207.7h-1v-4.2l-1,0.4l-0.1-0.8l1.3-0.6h0.9
		V207.7z M111.4,188.6c-2,7-8.4,12.2-16,12.2c-7.6,0-14.1-5.1-16-12.2l-3.7,0v13.7l0,3.3c6.9,3,13.8,5.2,21.3,5.2h0.1
		c6.5,0,12.4-1.3,18.2-3.5l0-18.7L111.4,188.6z"/>
	<path style="fill:#A8A5A6;" d="M21.6,161.7c0.7,0.1,1.4,0.3,2,0.5v8.9c-0.6-0.2-1.3-0.4-2-0.5V161.7z"/>
	<path style="fill:#A8A5A6;" d="M20.5,170.4c-0.6-0.1-1.3-0.1-2-0.2l0-8.9c0.3,0,0.6,0,1,0c0.3,0,0.7,0.1,1,0.1V170.4z"/>
	<path style="fill:#A8A5A6;" d="M15.3,170.4c0.6-0.1,1.3-0.1,2-0.2v-8.9c-0.7,0-1.3,0.1-2,0.2V170.4z"/>
	<path style="fill:#A8A5A6;" d="M12.2,171.1c0.6-0.2,1.3-0.4,2-0.5v-8.9c-0.7,0.1-1.4,0.3-2,0.5V171.1z"/>
	<path style="fill:#A8A5A6;" d="M10.4,154.5c0.4-0.2,0.9-0.4,1.4-0.5v1.1L10.4,154.5z"/>
	<path style="fill:#A8A5A6;" d="M17.3,157.6c-0.7,0-1.3,0.1-2,0.2v-4.6c0.6-0.1,1.3-0.1,2-0.2V157.6z"/>
	<path style="fill:#A8A5A6;" d="M20.5,153.1c-0.6-0.1-1.3-0.1-2-0.2v4.6c0.7,0,1.3,0.1,2,0.2V153.1z"/>
	<path style="fill:#A8A5A6;" d="M21.6,153.3c0.7,0.1,1.4,0.3,2,0.5v4.6c-0.6-0.2-1.3-0.4-2-0.5V153.3z"/>
	<path style="fill:#A8A5A6;" d="M14.2,158c-0.7,0.1-1.4,0.3-2,0.5v-4.6c0.6-0.2,1.3-0.4,2-0.5V158z"/>
	<path style="fill:#A8A5A6;" d="M24,154c0.5,0.2,0.9,0.3,1.4,0.5L24,155V154z"/>
	<path style="fill:#A8A5A6;" d="M10.4,162.9c0.4-0.2,0.9-0.4,1.4-0.5v1.1L10.4,162.9z"/>
	<path style="fill:#A8A5A6;" d="M24,162.4c0.5,0.2,0.9,0.3,1.4,0.5l-1.4,0.5V162.4z"/>
	<path style="fill:#A8A5A6;" d="M25.4,151.5c-2.1-1-4.7-1.5-7.5-1.5c-2.8,0-5.4,0.6-7.5,1.5v1.9c2.1-1,4.7-1.5,7.5-1.5
		c2.8,0,5.5,0.6,7.5,1.5V151.5z"/>
	<path style="fill:#A8A5A6;" d="M25.4,160c-2.1-1-4.7-1.5-7.5-1.5c-2.8,0-5.4,0.6-7.5,1.5v1.9c2.1-0.9,4.7-1.5,7.5-1.5
		c2.8,0,5.5,0.6,7.5,1.5V160z"/>
	<path style="fill:#A8A5A6;" d="M25.4,150.6c-2.1-1-4.7-1.5-7.5-1.5c-2.8,0-5.4,0.6-7.5,1.5l6-5.7c0.5,0,1-0.1,1.5-0.1s1,0,1.5,0.1
		L25.4,150.6z"/>
	<path style="fill:#A8A5A6;" d="M16.3,143.4v0.9c0.5,0,1-0.1,1.5-0.1c0.5,0,1,0,1.5,0.1v-0.9c0-0.4-0.8-0.4-1-0.4
		c-0.2,0-0.4,0-0.6,0c-0.2,0-0.4,0-0.6,0C17.1,143,16.3,143,16.3,143.4"/>
	<path style="fill:#A8A5A6;" d="M23.6,180.8c-0.6-0.2-1.3-0.4-2-0.5v-8.7c0.7,0.1,1.4,0.3,2,0.5V180.8z"/>
	<path style="fill:#A8A5A6;" d="M20.5,180.1c-0.6-0.1-1.3-0.1-2-0.2v-8.7c0.7,0,1.3,0.1,2,0.2V180.1z"/>
	<path style="fill:#A8A5A6;" d="M17.3,179.9c-0.7,0-1.3,0.1-2,0.1v-8.7c0.6-0.1,1.3-0.1,2-0.2V179.9z"/>
	<path style="fill:#A8A5A6;" d="M14.2,180.3c-0.7,0.1-1.4,0.3-2,0.5v-8.7c0.6-0.2,1.3-0.4,2-0.5V180.3z"/>
	<path style="fill:#A8A5A6;" d="M177.4,161.7c0.7,0.1,1.4,0.3,2,0.5v8.9c-0.6-0.2-1.3-0.4-2-0.5V161.7z"/>
	<path style="fill:#A8A5A6;" d="M176.3,170.4c-0.6-0.1-1.3-0.1-2-0.2v-8.9c0.3,0,0.6,0,1,0c0.3,0,0.7,0.1,1,0.1V170.4z"/>
	<path style="fill:#A8A5A6;" d="M171.1,170.4c0.6-0.1,1.3-0.1,2-0.2v-8.9c-0.7,0-1.3,0.1-2,0.2V170.4z"/>
	<path style="fill:#A8A5A6;" d="M168,171.1c0.6-0.2,1.3-0.4,2-0.5v-8.9c-0.7,0.1-1.4,0.3-2,0.5V171.1z"/>
	<path style="fill:#A8A5A6;" d="M166.2,154.5c0.4-0.2,0.9-0.4,1.4-0.5v1.1L166.2,154.5z"/>
	<path style="fill:#A8A5A6;" d="M173.1,157.6c-0.7,0-1.3,0.1-2,0.2v-4.6c0.6-0.1,1.3-0.1,2-0.2V157.6z"/>
	<path style="fill:#A8A5A6;" d="M176.3,153.1c-0.6-0.1-1.3-0.1-2-0.2v4.6c0.7,0,1.3,0.1,2,0.2V153.1z"/>
	<path style="fill:#A8A5A6;" d="M177.4,153.3c0.7,0.1,1.4,0.3,2,0.5v4.6c-0.6-0.2-1.3-0.4-2-0.5V153.3z"/>
	<path style="fill:#A8A5A6;" d="M170,158c-0.7,0.1-1.4,0.3-2,0.5v-4.6c0.6-0.2,1.3-0.4,2-0.5L170,158z"/>
	<path style="fill:#A8A5A6;" d="M179.8,154c0.5,0.2,0.9,0.3,1.4,0.5l-1.4,0.5V154z"/>
	<path style="fill:#A8A5A6;" d="M166.2,162.9c0.4-0.2,0.9-0.4,1.4-0.5v1.1L166.2,162.9z"/>
	<path style="fill:#A8A5A6;" d="M179.8,162.4c0.5,0.2,0.9,0.3,1.4,0.5l-1.4,0.5V162.4z"/>
	<path style="fill:#A8A5A6;" d="M181.2,151.5c-2.1-1-4.7-1.5-7.5-1.5c-2.8,0-5.4,0.6-7.5,1.5v1.9c2.1-1,4.7-1.5,7.5-1.5
		c2.8,0,5.5,0.6,7.5,1.5V151.5z"/>
	<path style="fill:#A8A5A6;" d="M181.2,160c-2.1-1-4.7-1.5-7.5-1.5c-2.8,0-5.4,0.6-7.5,1.5v1.9c2.1-0.9,4.7-1.5,7.5-1.5
		c2.8,0,5.5,0.6,7.5,1.5V160z"/>
	<path style="fill:#A8A5A6;" d="M181.2,150.6c-2.1-1-4.7-1.5-7.5-1.5c-2.8,0-5.4,0.6-7.5,1.5l6-5.7c0.5,0,1-0.1,1.5-0.1
		c0.5,0,1,0,1.5,0.1L181.2,150.6z"/>
	<path style="fill:#A8A5A6;" d="M172.2,143.4v0.9c0.5,0,1-0.1,1.5-0.1c0.5,0,1,0,1.5,0.1v-0.9c0-0.4-0.8-0.4-1-0.4
		c-0.2,0-0.4,0-0.6,0c-0.2,0-0.4,0-0.6,0C172.9,143,172.2,143,172.2,143.4"/>
	<path style="fill:#A8A5A6;" d="M179.4,180.8c-0.6-0.2-1.3-0.4-2-0.5v-8.7c0.7,0.1,1.4,0.3,2,0.5V180.8z"/>
	<path style="fill:#A8A5A6;" d="M176.3,180.1c-0.6-0.1-1.3-0.1-2-0.2v-8.7c0.7,0,1.3,0.1,2,0.2V180.1z"/>
	<path style="fill:#A8A5A6;" d="M173.1,179.9c-0.7,0-1.3,0.1-2,0.1v-8.7c0.6-0.1,1.3-0.1,2-0.2V179.9z"/>
	<path style="fill:#A8A5A6;" d="M170,180.3c-0.7,0.1-1.4,0.3-2,0.5v-8.7c0.6-0.2,1.3-0.4,2-0.5V180.3z"/>
	<path style="fill:#A8A5A6;" d="M14.2,192.7c-0.7,0.2-1.3,0.4-2,0.6c0-1.2,0-4.4,0-4.4v-7c0,0,1.3-0.4,2-0.5v6.8L14.2,192.7z
		 M17.3,191.8c-0.7,0.2-1.4,0.3-2,0.5c0-0.5,0-4.5,0-4.5v-6.7c0,0,1.3-0.1,2-0.2l0,6.8L17.3,191.8z M20.5,181.2
		c-0.6-0.1-2-0.2-2-0.2v6.8c0,0,0,3.2,0,3.7c0.7-0.1,1.3-0.3,2-0.4L20.5,181.2z M23.6,187.5v-5.7c-0.6-0.2-2-0.5-2-0.5v6.2l0,3.4
		c0,0,1.3-0.2,2-0.3L23.6,187.5z M170,188.7v-7.4c-0.7,0.1-2,0.5-2,0.5v7.7c0,0,0,0.1,0,1c0.7,0.1,1.3,0.1,2,0.2 M173.1,188.3l0-7.3
		c-0.7,0-2,0.2-2,0.2v7.2c0,0,0,1.9,0,2.6c0.7,0.1,1.4,0.2,2,0.3 M176.3,192c-0.7-0.2-1.3-0.3-2-0.5c0-0.5,0-3.1,0-3.1V181
		c0,0,1.3,0.1,2,0.2v7.2L176.3,192z M179.4,192.9c-0.7-0.2-1.3-0.5-2-0.7c0-0.5,0-4.3,0-4.3v-6.7c0,0,1.4,0.3,2,0.5v6.2V192.9z"/>
	<path style="fill:#C42030;" d="M89,189.8c2.7,1.5,5.2,2.2,6.9,2.5l0.1,0c0.1,0,0.2,0,0.3-0.1c0.1-0.1,0.2-0.2,0.2-0.4
		c0.1-2.9-0.5-5.4-0.8-6.3c0-0.1-0.1-0.3-0.3-0.3c-3.4-1.7-6.2-3.5-8.2-5.4c-1.5-1.4-2.6-2.8-3.2-4.3c-0.1-0.2-0.2-0.3-0.4-0.3
		c-0.2,0-0.4,0.1-0.5,0.2c-1.1,1.6-2,3.5-2.4,5.4c0,0.1,0,0.2,0,0.3C82.5,184.8,85.2,187.8,89,189.8"/>
	<path style="fill:#C42030;" d="M88,178.9c0.1,0.1,0.2,0.1,0.4,0.1h0c0.2,0,0.3-0.1,0.4-0.2c4-5.4,8.3-7.4,11.3-8.1
		c0.2-0.1,0.4-0.3,0.4-0.5c0-0.2-0.1-0.5-0.4-0.5c-1.5-0.5-3.1-0.7-4.7-0.7c-2,0-4,0.4-5.9,1.2c-1.8,0.8-3.4,1.8-4.8,3.2
		c-0.1,0.1-0.2,0.3-0.1,0.5C84.9,174.8,85.6,176.6,88,178.9"/>
	<path style="fill:#C42030;" d="M89.5,179.6c-0.2,0.2-0.1,0.6,0.1,0.7c1.6,1.3,3.6,2.5,6,3.7l0.2,0.1c0.2,0,0.3-0.1,0.4-0.2
		c1.4-1.6,5.3-5.5,11.9-6.5c0.2,0,0.3-0.1,0.4-0.3c0.1-0.2,0.1-0.3,0-0.5c-1.2-2.1-2.8-3.8-4.8-5.1c-0.1-0.1-0.2-0.1-0.3-0.1
		c-0.6,0-2.8,0-5.7,1.3C94.7,174,91.9,176.4,89.5,179.6"/>
	<path style="fill:#C42030;" d="M109.5,178.7c-0.1-0.2-0.3-0.4-0.6-0.3c-1.2,0.1-2.3,0.4-3.4,0.7c-0.1,0-0.3,0.1-0.3,0.3
		c-0.1,0.1-0.1,0.3,0,0.4c0.4,1.2,1.1,3.6,1.2,6.5c0.1,1.8-0.1,3.6-0.5,5.2c-0.3,1.1-0.6,2.1-1.1,3c-0.1,0.2,0,0.5,0.2,0.7
		c0.1,0.1,0.2,0.1,0.3,0.1c0.1,0,0.3,0,0.4-0.1c1.6-1.5,2.9-3.3,3.7-5.4C110.8,186.1,110.9,182.2,109.5,178.7"/>
	<path style="fill:#C42030;" d="M96.2,193.6c-0.1-0.1-0.2-0.2-0.3-0.2c-1.6-0.3-4.2-1-6.9-2.3c-3.2-1.6-5.8-3.9-7.6-6.7
		c-0.1-0.2-0.4-0.3-0.6-0.2c-0.2,0.1-0.4,0.3-0.4,0.5c0.1,1.8,0.5,3.6,1.2,5.2c1.1,2.5,2.8,4.6,4.9,6.2c2.1,1.5,4.5,2.5,7.1,2.8
		l0.1,0c0.2,0,0.3-0.1,0.4-0.2c1.1-1.3,1.9-2.9,2.2-4.8C96.3,193.8,96.3,193.7,96.2,193.6"/>
	<path style="fill:#C42030;" d="M104.2,180.2c0-0.1-0.2-0.3-0.3-0.3c-0.1-0.1-0.3-0.1-0.4,0c-3.6,1.6-5.8,3.9-6.6,4.9
		c-0.1,0.1-0.2,0.3-0.1,0.5c0.3,1,0.8,3,0.9,5.4c0,1.5-0.1,2.9-0.4,4.2c-0.3,1.2-0.8,2.4-1.4,3.4c-0.1,0.2-0.1,0.4,0,0.6
		c0.1,0.2,0.3,0.3,0.5,0.3h0c1.5-0.1,3-0.4,4.5-1l0.2-0.1c1.6-1.5,2.7-3.2,3.5-5.2c0.6-1.7,0.9-3.5,1-5.5
		C105.3,184.2,104.6,181.5,104.2,180.2"/>
</g>
</svg>
