<?xml version="1.0" encoding="utf-8"?>
<!-- Generator: Adobe Illustrator 21.0.0, SVG Export Plug-In . SVG Version: 6.00 Build 0)  -->
<svg version="1.1" id="Layer_1" xmlns="http://www.w3.org/2000/svg" xmlns:xlink="http://www.w3.org/1999/xlink" x="0px" y="0px"
	 width="443.6px" height="454px" viewBox="0 0 443.6 454" style="enable-background:new 0 0 443.6 454;" xml:space="preserve">
<path style="fill:#FFFFFF;" d="M443.5,286.1c-0.1-0.3-0.3-0.4-0.5-0.4L415.3,275c0.5-2,1.5-4.6,3.4-7.4l14.3,6.3
	c0.5,0.3,0.9,0.3,1.5,0.3c1.3,0,2.5-0.7,3.2-1.8c0.3-0.6,1.5-2.4,2.4-4.7c1.4-3.7,1.7-7,0.9-9.8c-0.9-2.9-2.9-5.2-6-6.5l-38-17.4
	l-0.3-0.2c-1.5-0.6-4.2-1.4-7.6-0.3c0-1.2,0-2.4,0-3.6c0-2.9-0.1-6-0.3-9.1c-0.2-3.2-0.4-6.4-0.8-9.8c-2.2-19.2-6.7-33.4-8.5-38.6
	l-0.7-1.7c-7.5-20.8-13.3-37.3-13.1-56.9c0.1-14.9,18.6-35.6,25.8-42.4l6.7-6.4L327.8,0.9l-5.6,3.7c-12.9,8.5-29.5,13.1-47,13.1
	c-18.2,0-35.5-5.1-48.6-14.3L221.8,0l-4.9,3.4c-13.1,9.2-30.4,14.3-48.6,14.3c-17.4,0-34.1-4.6-47-13.1l-5.6-3.7l-63.5,58L45.4,65
	l6.6,6.4c7.1,6.8,25.7,27.6,25.8,42.4c0.1,19.7-5.8,36.2-13.2,56.9l-0.6,1.7c-1.8,5.2-6.4,19.3-8.5,38.6c-0.3,3.3-0.6,6.6-0.8,9.8
	c-0.2,3.1-0.3,6.2-0.3,9.1c0,1.2,0,2.4,0.1,3.6c-3.3-1.1-6.1-0.3-7.5,0.3H47l-0.3,0.2l-38,17.4c-3.1,1.4-5.2,3.6-6,6.5
	c-0.9,2.7-0.5,6.1,0.9,9.8c0.9,2.3,2.1,4.1,2.5,4.7c0.6,1.1,1.8,1.8,3.1,1.8c0.5,0,0.9-0.1,1.5-0.3l14.3-6.3
	c1.9,2.7,2.8,5.4,3.4,7.4L0.6,285.6c-0.3,0-0.4,0.2-0.5,0.4c-0.1,0.3-0.1,0.4,0,0.7l1.6,4.2c17.3,43.1,46.6,80.1,84.8,106.7
	c35.5,24.7,77.2,39.2,120.4,41.9l14.3,14.1c0.2,0.2,0.3,0.3,0.6,0.3c0.2,0,0.4-0.1,0.6-0.3l14.3-14.1c43.2-2.7,84.8-17.2,120.3-41.9
	c38.3-26.6,67.7-63.6,84.9-106.7l1.6-4.2C443.6,286.5,443.6,286.3,443.5,286.1"/>
<path style="fill:#274488;" d="M43.8,253.5c-1.4-3.6-1.8-7.3-1.3-10.6c0.1-0.2,0.1-0.4,0.2-0.7l0.3-1.7l-32.5,14.9
	c-1.9,0.9-3.1,2.1-3.5,3.7c-1,3.4,1.1,7.9,2.1,9.7l0.4,0.7l34.7-15.3L43.8,253.5z"/>
<path style="fill:#274488;" d="M399.8,253.5c1.4-3.6,1.8-7.3,1.3-10.6c-0.1-0.2-0.1-0.4-0.2-0.7l-0.4-1.7l32.6,14.9
	c1.9,0.9,3.1,2.1,3.5,3.7c1,3.4-1.1,7.9-2.1,9.7l-0.4,0.7l-34.7-15.3L399.8,253.5z"/>
<path style="fill:#274488;" d="M109.4,376.6l-5.1,4l4.4,2.8l1.7-6.2c0.2-0.8,0.3-1.4,0.5-1.9C110.4,375.7,109.9,376.2,109.4,376.6"
	/>
<path style="fill:#274488;" d="M286.1,395.9c-2.6,0.9-3.6,3.8-2.1,8.2c1.5,4.7,3.9,6.2,6.7,5.2c2.7-0.9,3.7-3.5,2.1-8.2
	C291.2,396.3,288.9,394.9,286.1,395.9"/>
<path style="fill:#274488;" d="M306.1,388.1l-1.4,0.7l2.8,6.1c0.4-0.1,1.4-0.5,1.6-0.7c2.1-0.9,2.7-2.5,1.8-4.6
	C310,387.4,308.3,387.1,306.1,388.1"/>
<path style="fill:#274488;" d="M259.1,209.5c0-0.1-4-1.2-7-1.7c-3.6-0.6-5.8-0.7-6.4-0.8c-0.8-0.2-2.7-0.2-2.7-1.3
	c0-0.8,0.9-0.9,1.7-1c1.3-0.1,4.6,0.3,6.6,0.5c4.7,0.7,7.7,1.6,7.7,1.5v-5.9c0-0.2-6.6-2.4-13.7-3.2c-4.8-0.4-7-0.3-9.9-0.4
	c-0.5,0-1.6,0.2-1.6-0.8c0-0.9,1-1,1.4-1.1c3.6-0.3,8.2-0.4,13.1-0.1c5.3,0.3,10.7,2.2,10.7,2.1v-6.4c-2.1-0.9-5.1-1.9-7.6-2.3
	c-3.2-0.5-7.4-0.8-8-0.8c-0.6,0-0.9-0.3-0.9-0.6c-0.1-0.4,0.2-0.8,0.8-0.9c0.9-0.2,3.3-0.3,6.1-0.2c2.1,0.1,7,0.6,9.5,0.9l-0.1-4.9
	c-4.7-2.5-12-3.7-16.7-4.4c-7.1-1.1-13.7-1.3-14.8-1.3c-0.6-0.1-1.2-0.1-1.3-0.7c0-0.5,0.3-0.9,1.3-0.9c0.9,0,6.4-0.2,15.2,0.6
	c4.2,0.3,12.5,2,16.3,2.7l-0.1-4.8c-4.2-2.1-10.8-3.6-20.4-5c-11.7-1.7-34-0.9-35.2-0.8c-1.6,0.1-1.9-0.3-2-0.9s0.5-0.9,1.7-1.2
	c1.2-0.2,16.5-1.6,28.9-1c9.4,0.4,22.8,3.1,27,3.9l-0.1-3.8c-7-4.8-18.6-5.3-19.4-5.3c-0.8-0.1-1.3-0.4-1.4-0.9
	c-0.1-0.4,0.4-0.8,1-0.9c0.6-0.1,2.3-0.3,5.9,0c2.9,0.2,10.7,1.8,13.8,2.5l-0.1-3.8c-5.2-3.1-17.3-4.9-26.7-5.8c0,0-1.1-0.1-3.2-0.2
	l-0.2,2.5c0,0.8-0.6,1.3-1.4,1.3c-5.5-0.3-7.5-0.3-13,0h-0.1c-0.7,0-1.3-0.5-1.3-1.3l-0.2-2.5c-5,0.2-10.8,0.6-17.3,1.3
	c-0.9,0.1-1.9,0.3-2-0.3c-0.2-0.4,0.1-0.8,1.3-1.1c0.9-0.2,13.9-2,17.2-2.3c0.2,0,0.4,0,0.7,0l-0.9-16c0-0.3,0.2-0.7,0.3-1
	c0.3-0.3,0.6-0.4,0.9-0.4c6.7-0.3,9-0.3,15.5,0c0.3,0,0.7,0.2,0.9,0.4c0.2,0.3,0.3,0.6,0.3,0.9c3,0.1,6,0.3,8.4,0.4
	c5.1,0.3,17,2,20.2,2.4v-3.7c-0.6-0.4-1.5-0.7-2.1-1c-3.3-1.3-16.3-3.5-34.8-3.5c-18.5,0-29.6,2.4-31.3,2.8
	c-1.9,0.5-3.9,1.2-3.9,2.4l0.3,41.8c-0.3,2.8,0.1,14.1,0.2,16.7c0.1,4.4,7,7.1,22,12.4c15.7,5.8,35.5,11.9,50.5,16.1V209.5"/>
<path style="fill:#274488;" d="M246,218.2c-3-0.9-4.6-1.4-7.6-2.3c-0.3-0.1-0.6,0.1-0.6,0.4c0,5.3,0,8,0,13.1c0,0.3,0.3,0.6,0.5,0.8
	c3,1,4.6,1.5,7.6,2.6c0.3,0.2,0.5-0.1,0.5-0.3c0-5.1,0-7.9,0-13.4C246.5,218.6,246.2,218.2,246,218.2"/>
<path style="fill:#274488;" d="M233.3,214.3c-3.1-0.9-4.6-1.4-7.6-2.4c-0.3-0.1-0.5,0.1-0.5,0.3c0,5.1,0,7.6,0,12.7
	c0,0.3,0.3,0.6,0.5,0.7c3,1,4.6,1.6,7.6,2.7c0.3,0.1,0.5,0,0.5-0.3c0-5.1,0-7.7,0-13C233.8,214.7,233.5,214.4,233.3,214.3"/>
<path style="fill:#274488;" d="M207.8,205.9c-3.1-1-4.6-1.5-7.6-2.7c-0.3-0.1-0.5,0.1-0.5,0.3v12.5c0,0.3,0.3,0.6,0.5,0.7
	c3,1,4.6,1.6,7.6,2.7c0.3,0.1,0.5-0.1,0.5-0.3c0-5.1,0-7.6,0-12.5C208.3,206.3,208.1,206.1,207.8,205.9"/>
<path style="fill:#274488;" d="M251.4,113.9c-0.3-0.4-0.4-0.9-0.8-1.6c-3-1.1-10.6-3-16-3.5c-1-0.1-2.6-0.2-2.6-0.9
	c0-0.7,0.6-0.9,2.3-0.9c4.4,0.1,11.4,1.2,14.5,1.8c-0.9-1.9-1.9-4.1-3-6.5c-5.8-2.2-16.9-2.9-18.9-3.1c-2.1-0.3-2.8-0.5-2.7-1.2
	c0.1-0.7,1.5-0.6,4.8-0.7c3.9-0.1,12.4,0.6,14.8,0.9c-0.8-1.7-1.6-3.5-2.5-5.5c-3.3-2.2-9.4-2.7-11.2-2.7c-1.6-0.1-2.2-0.7-2.1-1.2
	c0.1-0.6,0.9-0.8,1.6-0.9c0.6,0,7.7-0.1,8.3-0.2c0.4,0,0.9-0.3,0.5-0.9c-0.7-1.5-1.1-2.5-1.9-4c-1.1-0.5-2.6-0.9-3.8-1.1
	c-1-0.2-4.4-0.3-6.1-0.5c-0.9-0.3-1.1-0.4-1.1-0.8c0-0.4,0.3-0.7,1.1-0.8c2.1-0.2,6.1,0,7-0.1c0.6,0,1.3-0.3,1-0.8
	c-0.4-1-0.9-1.9-1.3-2.8c-0.9-0.4-2.4-0.7-3.6-0.9c-1.5-0.3-4.5-0.6-6.9-0.7c-0.6,0-1.1-0.3-1.1-0.7c0-0.3,0.3-0.7,0.9-0.8
	c1.6-0.3,5.1-0.3,6.4-0.3c1.1-0.1,2.5-0.3,2.1-1.2c-0.8-1.5-1.2-2.7-2-4.1c-1,0-2.8-0.1-4.1-0.3c-0.5-0.1-1.2-0.2-1.2-0.6
	c-0.1-0.4,0.6-0.7,1.2-0.9c0.4-0.2,1.9-0.6,2.9-0.9c-0.5-0.9-0.9-1.8-1.3-2.7c-1.5-0.1-4.1-0.3-6.2-0.3c-0.9,0-1.3-0.4-1.3-0.8
	c0-0.3,0.2-0.6,1.1-0.8c1.5-0.4,4-0.6,5.2-0.7c-1.4-2.9-2.7-5.8-3.9-8.3c-9.4,20.2-26.8,57.4-29.6,63.3c9.8-2.3,23-3.2,29.2-3.2
	C227.6,110.9,241.6,111.8,251.4,113.9"/>
<path style="fill:#274488;" d="M195.1,201.3c-3-1.1-4.6-1.6-7.6-2.8c-0.3-0.1-0.5,0-0.5,0.3v12.6c0,0.3,0.3,0.7,0.5,0.7
	c3.1,1.1,4.6,1.6,7.6,2.7c0.3,0,0.5-0.1,0.5-0.4V202C195.6,201.7,195.4,201.5,195.1,201.3"/>
<path style="fill:#274488;" d="M220.6,210.2c-3.1-0.9-4.6-1.5-7.6-2.6c-0.3-0.1-0.5,0.1-0.5,0.3v12.5c0,0.3,0.3,0.6,0.5,0.7
	c3,1.1,4.6,1.6,7.6,2.7c0.3,0.2,0.5,0,0.5-0.3c0-5.1,0-7.6,0-12.6C221.1,210.7,220.8,210.3,220.6,210.2"/>
<path style="fill:#274488;" d="M195.9,273.6c0-3.3-2.4-5.7-5.6-5.7c-4.5,0-6.4,3.3-6.7,9.1l8.1-0.3
	C194.7,276.8,195.9,275.8,195.9,273.6"/>
<path style="fill:#274488;" d="M278.2,267.7c-5.8,0-8.1,5.3-8.1,13.7c0,9.9,2.9,15.1,8.3,15.1c5.4,0,8.3-4.6,8.3-13.7
	C286.8,273.1,283.7,267.7,278.2,267.7"/>
<path style="fill:#274488;" d="M241.3,140.1c0.7-0.1,3.8-0.1,7.8,0.4c3,0.4,7.4,1.4,9.4,1.8v-3.4c-4.1-1.7-13.6-3.4-18.6-4
	c-3.1-0.4-6.7-0.8-10.2-1l-0.7,13.5c1.8,0.1,3,0.1,3,0.1c2.3,0.2,4.6,0.3,7,0.5c8.9,0.9,16.4,2.6,19.7,3.3v-4.8
	c-5.1-4.2-16.7-4.6-17.4-4.6c-0.7,0-1.4-0.2-1.4-0.9S240.6,140.2,241.3,140.1"/>
<path style="fill:#274488;" d="M186.4,126.1c1.5-0.3,13.4-4.6,35-4.6c21.6,0,34.4,4.7,36,5.4c1.7,0.8,3.3,1.3,4,0
	c0.7-1.3-0.2-2.9-1.4-3.7c-4.7-3-21.3-6.8-38.6-6.5c-17.4,0.1-34.9,4-37.3,5c-2.5,0.9-3.5,2.4-2.7,3.8
	C182.7,127.7,184.9,126.5,186.4,126.1"/>
<path style="fill:#274488;" d="M258.6,221.9c-3-0.9-4.6-1.4-7.6-2.2c-0.3-0.1-0.5,0.1-0.5,0.4c-0.1,5.7-0.1,8.5-0.1,13.6
	c0,0.3,0.3,0.6,0.5,0.8c3.1,1,4.6,1.5,7.6,2.7c0.3,0.1,0.5-0.1,0.5-0.3v-14.1C259.1,222.3,258.9,222,258.6,221.9"/>
<path style="fill:#274488;" d="M217,151.3c3.9-0.1,8.9,0,8.9,0l0.9-17.4c-4.1-0.3-10.9,0.1-10.9,0.1L217,151.3z"/>
<path style="fill:#274488;" d="M315.5,387.3c2.1,4.6-0.3,8.4-4.6,10.4c-0.3,0.2-1.3,0.6-1.6,0.7l2.7,5.8c0.3,0.5,0.2,0.9-0.5,1.2
	l-2.8,1.3c-0.5,0.3-0.9,0.2-1.2-0.4l-8.5-18c-0.3-0.7-0.2-0.9,0.4-1.3l4.6-2.1c3.3-1.5,5.8-2,8.1-1.1
	C313.5,384.4,314.8,385.7,315.5,387.3 M394.2,304.6c-0.3-0.5-0.3-0.9,0-1.5l1.2-1.9c0.3-0.5,0.6-0.6,1.1-0.3l17.7,9.7
	c0.6,0.3,0.7,0.8,0.3,1.2l-1.7,2.7c-0.3,0.7-0.9,0.7-1.5,0.3l-9.4-5.4h-0.1l7.2,10c0.4,0.5,0.3,0.9,0,1.3l-0.6,0.9
	c-0.3,0.5-0.6,0.8-1.3,0.7l-12.5-1.4l-0.1,0.1l9.4,6c0.8,0.4,0.7,0.9,0.3,1.4l-1.4,2.2c-0.3,0.6-0.8,0.8-1.4,0.3l-16.5-11.2
	c-0.6-0.5-0.6-0.9-0.3-1.4l1.2-1.9c0.4-0.7,0.8-0.8,1.5-0.7l15.8,1.6l0.1-0.1L394.2,304.6z M386.2,335.3l-8.5-6.9
	c-0.4-0.4-0.3-0.9,0-1.3l2-2.4c0.4-0.4,0.8-0.6,1.3-0.2l8.7,7.1c5.4,4.6,5.6,9.4,1.6,13.9c-4.1,5-8.8,5-13.9,0.8l-8.7-7.1
	c-0.5-0.4-0.3-0.9,0-1.4l2-2.3c0.4-0.5,0.7-0.6,1.2-0.2l8.4,6.9c3.9,3.2,6,2.7,7.9,0.5C390,340.6,390,338.4,386.2,335.3
	 M361.5,346.5c-0.2-0.5-0.1-1,0.4-1.5l1.5-1.5c0.5-0.4,0.9-0.3,1.2,0l14.5,14l0.1,0.1c0.3,0.4,0.3,0.9-0.1,1.2l-2.3,2.1
	c-0.6,0.6-1,0.4-1.6-0.3l-7.6-7.6l4.2,11.6c0.3,0.6,0,0.9-0.3,1.2l-0.9,0.8c-0.5,0.4-0.8,0.6-1.5,0.3l-11.8-4.6l-0.1,0.1l7.5,8.2
	c0.6,0.7,0.3,0.9-0.2,1.5l-1.9,1.7c-0.5,0.5-0.9,0.6-1.4,0.1l-0.1-0.1l-12.9-15.1c-0.5-0.6-0.4-0.9,0-1.4l1.7-1.5
	c0.5-0.5,0.9-0.5,1.5-0.3l14.8,5.8l0.1-0.1L361.5,346.5z M352.1,377.7l1.3-0.9c0.4-0.3,0.9-0.2,1.1,0.2l0.9,1.4
	c0.3,0.3,0.3,0.7-0.1,0.9l-6.5,4.8c-0.4,0.3-0.9,0.2-1.1-0.1l-0.9-1.4c-0.3-0.4-0.3-0.9,0.1-1.1l1.2-0.9l-9.2-12.4l-1.4,1
	c-0.4,0.3-0.9,0.1-1.1-0.3l-0.9-1.3c-0.3-0.3-0.3-0.8,0.1-1l6.9-5c0.3-0.3,0.8-0.3,1,0.1l1,1.4c0.3,0.4,0.3,0.8-0.2,1.1l-1.4,0.9
	L352.1,377.7z M336,391.6c0.4,0.7,0.3,0.8-0.2,1.1l-3.1,1.8c-0.5,0.3-0.6,0.3-1-0.3l-8.8-14.6l-5,2.9c-0.5,0.3-0.9,0.3-1.2-0.3
	l-1.2-2c-0.3-0.5-0.2-0.9,0.3-1.1l13.2-7.8l1.4-0.9c0.5-0.3,0.8-0.2,1,0.2v0.1l1.1,2.3c0.3,0.5,0,0.9-0.6,1.2l-4.8,2.8L336,391.6z
	 M284.8,391.8c6.4-2.1,11.1,1.5,13.1,7.5c2.3,6.7-0.3,12.2-5.9,14.1c-6,2-10.8-1.1-13-7.6C276.7,399.5,278.9,393.8,284.8,391.8
	 M261.3,417.5l1.5-0.3c0.5,0,0.9,0.3,0.9,0.7l0.3,1.6c0.1,0.4-0.2,0.8-0.6,0.9l-8,1.4c-0.4,0.1-0.9-0.2-0.9-0.5l-0.3-1.7
	c-0.1-0.5,0.2-0.9,0.6-0.9l1.5-0.3l-2.6-15.1l-1.7,0.3c-0.5,0.1-0.8-0.3-0.9-0.7l-0.3-1.6c0-0.3,0.2-0.7,0.6-0.8l8.4-1.5
	c0.4-0.1,0.8,0.3,0.9,0.5l0.3,1.7c0.1,0.5-0.2,0.9-0.6,0.9l-1.7,0.3L261.3,417.5z M235.7,407.9c0.2,1,1.5,1.5,2.2,1.8l3.8,1.4
	c2.6,0.9,4.3,2.4,4.6,5.3c0.3,4.5-3.1,7.4-7.4,7.7c-2.1,0.2-4.6-0.1-6.7-0.6c-0.5-0.1-0.7-0.3-0.7-0.6c0-0.2,0-0.3,0.1-0.5l0.7-2.7
	c0-0.3,0.2-0.6,0.6-0.6c0.1,0,0.3,0,0.5,0.1c1.6,0.5,3.4,0.7,5,0.6c1.4-0.1,2.9-0.9,2.8-2.5c-0.1-1.2-1.1-1.6-2.1-2.1l-4.3-1.6
	c-2.5-0.9-4.1-2.7-4.4-5.3c-0.3-3.9,3.5-6.6,7.2-6.9c2.3-0.2,4.3,0.1,6.4,0.8c0.5,0.2,0.7,0.3,0.8,0.7c0,0.1-0.1,0.3-0.1,0.5
	l-0.9,2.5c-0.1,0.4-0.3,0.5-0.5,0.6c-0.2,0-0.3-0.1-0.6-0.1c-1.4-0.4-3.1-0.9-4.4-0.7C237,405.8,235.6,406.4,235.7,407.9 M42.9,309
	l-10.5,6.4c-0.6,0.3-0.9,0.2-1.3-0.3l-1.5-2.5c-0.4-0.6-0.4-0.9,0.2-1.4l17.1-10.4c0.8-0.4,1-0.2,1.5,0.3l1.4,2.2
	c0.3,0.6,0.3,0.9,0.1,1.5l-5.8,14.6l10.6-6.4c0.6-0.3,1-0.2,1.3,0.3l1.6,2.7c0.4,0.7,0.1,0.9-0.3,1.2L40,327.6
	c-0.7,0.4-0.9,0.3-1.3-0.3l-1.4-2.3c-0.3-0.4-0.3-0.9-0.2-1.5L42.9,309L42.9,309z M52.2,339.9c0.3,0.4,0.1,0.9-0.3,1.1l-1.3,1
	c-0.3,0.2-0.8,0.2-1-0.1l-4.9-6.4c-0.3-0.4-0.2-0.9,0-1l1.4-1c0.4-0.3,0.9-0.3,1.1,0.1l0.9,1.2l12.3-9.4l-1-1.3
	c-0.3-0.4-0.2-0.9,0.2-1.1l1.4-0.9c0.3-0.3,0.7-0.3,0.9,0.1l5.2,6.7c0.3,0.3,0.3,0.8,0,1l-1.4,0.9c-0.4,0.4-0.9,0.3-1.1-0.1
	l-1.1-1.3l-12.3,9.3L52.2,339.9z M67.8,356c0.4,0.4,0.3,0.9-0.1,1.3l-1.7,1.6c-0.5,0.4-0.9,0.3-1.4-0.1l-8.2-8.8
	c-0.4-0.5-0.5-0.9,0.1-1.4l14.8-13.6c0.4-0.3,0.9-0.3,1.3,0.1l2.1,2.3c0.4,0.5,0.5,0.9,0,1.3l-12.4,11.3L67.8,356z M89.5,369.8
	l-2.1-4.2c-1.2-2.3-1.1-4.7,0.5-6.8c2.6-3.2,7.1-2.4,10-0.1c1.7,1.5,3,3,4,4.9c0.3,0.5,0.3,0.8,0.1,0.9c-0.1,0.2-0.3,0.3-0.4,0.3
	l-2.3,1.3c-0.3,0.2-0.6,0.2-0.9,0c-0.1-0.1-0.2-0.3-0.3-0.4c-0.6-1.3-1.6-2.7-2.7-3.4c-0.9-0.9-2.4-1.4-3.3-0.3
	c-0.6,0.9,0,2.1,0.3,2.9l1.8,3.5c1.2,2.4,1.4,4.7-0.4,7c-2.8,3.5-7.3,3.3-10.7,0.6c-1.5-1.3-3.3-3.2-4.4-5c-0.3-0.5-0.3-0.8-0.1-0.9
	c0.1-0.2,0.3-0.3,0.4-0.3l2.2-1.5c0.3-0.2,0.6-0.3,0.9-0.1c0.1,0.2,0.2,0.3,0.3,0.4c0.9,1.5,2.1,2.8,3.3,3.9c1,0.9,2.7,1.4,3.8,0.2
	C90.3,371.7,90,370.7,89.5,369.8 M106.8,386.8l-4.6-3l-0.9-0.6l-3.1,2.5c-0.3,0.3-0.8,0.4-1.3,0.1l-3-2c-0.3-0.2-0.3-0.4-0.2-0.7
	l0.3-0.3l17.4-12.8c0.4-0.3,0.9-0.3,1.3-0.1l2.7,1.8c0.6,0.3,0.7,0.8,0.6,1.2l-4.6,20.9c-0.1,0.3-0.1,0.3-0.2,0.4
	c-0.3,0.3-0.5,0.5-0.9,0.3l-2.9-2c-0.7-0.4-0.7-0.9-0.6-1.4l0.9-3.7L106.8,386.8z M121.1,380.1c-0.5-0.3-0.6-0.7-0.3-1.2l1.1-2.1
	c0.3-0.4,0.6-0.6,1.1-0.3l13.7,7l1.5,0.8c0.5,0.3,0.6,0.6,0.3,0.9v0.1l-1.4,2.1c-0.4,0.5-0.9,0.4-1.4,0.1l-5-2.5l-7.9,14.9
	c-0.3,0.6-0.4,0.7-1,0.4l-3.2-1.7c-0.6-0.3-0.6-0.3-0.3-0.9l7.9-15L121.1,380.1z M144.7,407.1c0.4,0.2,0.5,0.6,0.4,1l-0.7,1.5
	c-0.1,0.3-0.5,0.6-0.9,0.3l-7.5-2.9c-0.4-0.3-0.6-0.7-0.5-0.9l0.7-1.6c0.2-0.5,0.5-0.6,1-0.4l1.3,0.5l5.8-14.3l-1.5-0.6
	c-0.5-0.3-0.6-0.7-0.4-1l0.7-1.5c0.1-0.3,0.4-0.6,0.9-0.4l7.9,3.2c0.4,0.2,0.6,0.5,0.5,0.9l-0.7,1.5c-0.3,0.5-0.6,0.6-1,0.4
	l-1.6-0.6l-5.8,14.3L144.7,407.1z M162.4,401.6l3.1,2.6c2.1,1.8,3.1,3.9,2.2,6.7c-1.3,4.3-5.6,5.8-9.7,4.6c-2-0.6-4.2-1.7-6-3
	c-0.4-0.3-0.5-0.5-0.4-0.8c0-0.2,0.2-0.3,0.3-0.5l1.5-2.1c0.2-0.3,0.4-0.5,0.9-0.4c0.1,0.1,0.3,0.1,0.4,0.3c1.4,0.9,2.9,1.8,4.5,2.3
	c1.3,0.3,3.1,0.2,3.5-1.3c0.3-1.2-0.3-2-1.2-2.7l-3.5-3.1c-1.9-1.7-2.8-4-2.1-6.5c1.2-3.9,5.8-4.9,9.3-3.8c2.1,0.6,4,1.5,5.6,2.9
	c0.4,0.4,0.5,0.7,0.4,0.9c0,0.1-0.1,0.3-0.3,0.3l-1.6,2.1c-0.3,0.4-0.4,0.5-0.8,0.4c-0.1-0.1-0.3-0.2-0.5-0.3
	c-1-0.9-2.6-1.8-3.8-2.1c-1.2-0.4-2.7-0.3-3.2,1.1C160.8,400.1,161.8,401.1,162.4,401.6 M207.1,403.2l-2.5,19.7
	c-0.1,0.8-0.5,0.9-1,0.9l-2.7-0.3c-0.6-0.1-1-0.3-1.3-0.9l-7.8-13.5h-0.1l-1.5,12.1c-0.1,0.7-0.4,0.9-1,0.8l-2.9-0.3
	c-0.7-0.1-1-0.3-0.9-1l2.4-19.8c0.1-0.8,0.5-0.9,1.2-0.8l2.6,0.3c0.7,0.1,0.9,0.3,1.2,0.9l7.8,13.6h0.1l1.5-12.2
	c0.1-0.7,0.4-0.9,1-0.8l3.1,0.3C207.1,402.2,207.1,402.7,207.1,403.2 M440.1,290.2c-17.1,42.8-46.2,79.5-84.2,106
	c-35.4,24.6-76.8,39.1-119.8,41.6c-0.3,0-0.4,0.1-0.6,0.3l-13.8,13.7L208,438.1c-0.2-0.2-0.3-0.3-0.6-0.3
	c-42.9-2.6-84.4-17-119.8-41.6c-37.9-26.4-67.1-63.1-84.2-106L2,286.9l52.4-20.1c1.4-0.6,2.8-0.1,3.6,1.1l0.1,0.1
	c0.3,0.5,1,1.5,2.1,2.5c0.4,1.4,0.9,2.7,1.4,4c-2.7-1-4.7-3.6-5.5-4.7l-0.2-0.3c-0.1-0.1-0.3-0.2-0.4-0.2h-0.2l-3.7,1.5l-1.6,0.7
	l0.3,0.7c0.2,0.3,0.3,0.7,0.3,0.9c1.5,3.9,3.3,7.6,5,11.2c0.3,0.5,0.6,1.1,0.9,1.6l1.6-0.6l6.9-2.5c0.4,0.9,0.9,1.6,1.2,2.4
	l-6.8,2.5l-1.7,0.6c0.3,0.5,0.5,1,0.9,1.5c13.8,26.1,33.6,48.5,58,65.7c27.8,19.3,60,30.4,93.9,32.5l2.9,2.8
	c-35.5-1.5-69.4-13-98.3-33.2c-30.3-21.1-53.6-50.3-67.2-84.5l-0.3-0.8L5.6,288.4l0.3,0.8c16.9,42.4,45.7,78.7,83.2,104.8
	c35.3,24.6,76.7,38.8,119.7,41.1l12.3,12.2l0.6,0.6l12.9-12.8c43-2.3,84.4-16.6,119.7-41.1c37.5-26.2,66.4-62.4,83.3-104.8l0.3-0.8
	l-41.7-16.1l-0.3,0.8c-13.7,34.2-37,63.4-67.3,84.5c-29,20.3-62.9,31.7-98.3,33.2l2.9-2.8c33.8-2.1,66-13.2,93.9-32.5
	c24.5-17.2,44.3-39.6,58-65.7c0.3-0.5,0.6-1,0.9-1.5l-1.7-0.6l-6.8-2.5c0.3-0.8,0.8-1.5,1.1-2.4l7,2.5l1.6,0.6
	c0.3-0.5,0.6-1.1,0.9-1.6c1.7-3.7,3.4-7.4,5-11.2c0.1-0.2,0.3-0.5,0.3-0.9l0.3-0.7l-1.7-0.7l-3.7-1.5c-0.1,0-0.1,0-0.3,0l-0.3,0.2
	l-0.2,0.3c-0.8,1.1-2.7,3.7-5.5,4.8c0.4-1.4,0.9-2.7,1.4-4.1c0.9-0.9,1.7-2,2.1-2.5l0.1-0.1c0.8-1.2,2.2-1.7,3.6-1.1l52.4,20.1
	L440.1,290.2z M25.8,266l-0.4-0.7l-15.5,7c-0.9,0.3-1.9,0-2.3-0.9c-0.3-0.4-1.5-2.1-2.3-4.4c-0.9-2.3-1.7-5.7-0.9-8.7
	c0.7-2.4,2.4-4.3,5-5.4l38.1-17.4l0.3-0.1c0.7-0.3,2-0.8,3.4-0.8c1,0,2.1,0.3,3.3,0.7c0.1,1.1,0.1,2.1,0.2,3.1
	c-1.2-0.7-2.4-1.1-3.6-1.1c-0.8,0-1.5,0.2-2.2,0.5l-0.3,0.1c-1.7,0.9-2.9,2.8-3.4,5.5c-0.5,3,0,6.5,1.5,10l0.3,0.7
	c0.3,0.9-0.1,1.8-0.9,2.2l-18.1,8l0.6,0.9c2.1,3,3.3,5.9,4,8.2l-2.6,1C29.3,272.1,28.1,269,25.8,266 M208.5,386.2
	c-32.8-2.4-64-13.4-90.9-32.2c-24.1-16.8-43.7-39-57.4-64.7l6.9-2.4c0.2,0.4,0.4,0.8,0.6,1.2c1.5,2.7,3.2,5.5,5,8.1
	c0.2,0.3,0.4,0.6,0.8,1l0.1,0.3c30.7,45.9,75.7,74.4,126.9,80.5L208.5,386.2z M222.8,421.2c0.5,0,0.8,0.3,0.8,0.8v1.7
	c0,0.3-0.3,0.7-0.7,0.7l-8.2-0.1c-0.5,0-0.8-0.3-0.8-0.7v-1.7c0-0.6,0.3-0.8,0.8-0.8h1.5l0.2-15.4l-1.6-0.1c-0.5,0-0.8-0.3-0.8-0.8
	v-1.6c0-0.4,0.3-0.8,0.7-0.8l8.5,0.2c0.5,0,0.8,0.3,0.8,0.7v1.7c0,0.5-0.3,0.8-0.8,0.8h-1.7l-0.3,15.4H222.8z M376.6,286.8l6.9,2.4
	C369.8,315,350.2,337.1,326,354c-27,18.8-58.1,29.8-90.9,32.2l8.2-8.2c51.3-6.1,96.3-34.7,126.8-80.5l0.2-0.3
	c0.3-0.4,0.5-0.8,0.8-1.1c1.7-2.5,3.4-5.2,4.9-8C376.2,287.6,376.4,287.2,376.6,286.8 M57.4,220.9c0.2-3.2,0.4-6.4,0.9-9.6
	c2.1-19.1,6.5-32.9,8.3-38l0.6-1.7c7.6-21,13.5-37.7,13.3-57.9c-0.1-15.7-19.2-37.4-26.6-44.4l-4.6-4.3l4.6-4.2l62-56.6l3.8,2.5
	c13.4,8.8,30.6,13.7,48.5,13.7c18.7,0,36.6-5.3,50.1-14.8l3.3-2.3l3.3,2.3c13.6,9.4,31.3,14.8,50.1,14.8c17.9,0,35.1-4.9,48.4-13.7
	l3.8-2.5l66.7,60.8l-4.6,4.4c-7.4,7-26.5,28.6-26.6,44.3c-0.2,20.2,5.8,36.8,13.3,57.9l0.6,1.7c1.8,5.1,6.3,18.9,8.3,38
	c0.3,3.3,0.7,6.4,0.9,9.6c0.1,3,0.3,6.1,0.3,9c0.1,22-4.2,41.1-12.8,56.8c-1.5,2.7-3.1,5.3-4.8,7.7c-0.2,0.3-0.4,0.7-0.8,1.2
	l-0.2,0.2c-30.2,45.3-74.7,73.6-125.4,79.5H242l-20.3,20.3l-20.3-20.3h-0.4c-50.7-5.9-95.2-34.2-125.5-79.5l-0.1-0.2
	c-0.3-0.5-0.6-0.9-0.8-1.1c-1.7-2.5-3.3-5.2-4.8-7.8c-8.6-15.6-12.9-34.8-12.8-56.8C57.2,227,57.3,223.9,57.4,220.9 M389,235.5
	c1.3-0.5,2.5-0.8,3.4-0.8c1.5,0,2.7,0.4,3.4,0.8l0.3,0.1l38.1,17.4c2.6,1.1,4.3,3,5,5.4c0.9,3,0,6.4-0.9,8.7c-0.9,2.2-2,4-2.3,4.4
	c-0.4,0.9-1.5,1.2-2.2,0.9l-15.6-7l-0.4,0.7c-2.2,3-3.4,6.1-4,8.3l-2.5-1c0.6-2.2,1.7-5.2,3.9-8.2l0.6-0.9l-18.1-8
	c-0.9-0.4-1.3-1.4-0.9-2.2l0.3-0.7c1.5-3.4,2.1-7,1.5-10c-0.4-2.7-1.7-4.6-3.4-5.5l-0.2-0.1c-0.8-0.3-1.5-0.5-2.3-0.5
	c-1.2,0-2.4,0.4-3.6,1.2C389,237.4,389,236.5,389,235.5 M443.5,286c-0.1-0.2-0.3-0.3-0.4-0.4L415.4,275c0.5-1.9,1.5-4.6,3.3-7.4
	l14.3,6.4c0.5,0.2,0.9,0.3,1.5,0.3c1.3,0,2.5-0.7,3.2-1.8c0.3-0.6,1.5-2.3,2.4-4.7c1.4-3.7,1.7-7,0.9-9.8c-0.9-2.9-2.9-5.2-6-6.5
	l-38-17.3c0-0.1-0.1-0.2-0.3-0.2c-1.5-0.7-4.2-1.5-7.6-0.3V230c0-3-0.1-6.1-0.3-9.2c-0.2-3.2-0.4-6.4-0.8-9.7
	c-2.2-19.3-6.7-33.4-8.6-38.6l-0.6-1.7c-7.4-20.9-13.3-37.4-13.1-56.9c0.1-14.9,18.6-35.7,25.8-42.5l6.7-6.4L327.8,0.9l-5.6,3.6
	c-12.9,8.5-29.5,13.1-47,13.1c-18.2,0-35.5-5.1-48.6-14.3L221.8,0l-4.9,3.4c-13.1,9.2-30.4,14.3-48.6,14.3c-17.4,0-34.1-4.6-47-13.1
	l-5.6-3.6L52.2,58.8L45.4,65l6.6,6.4c7.1,6.8,25.7,27.6,25.8,42.5c0.1,19.6-5.8,36.1-13.2,56.9l-0.6,1.7c-1.8,5.2-6.4,19.2-8.5,38.6
	c-0.3,3.3-0.6,6.5-0.8,9.7c-0.2,3.1-0.3,6.2-0.3,9.2c0,1.2,0,2.3,0.1,3.5c-3.3-1.1-6.1-0.3-7.5,0.3h-0.1l-0.3,0.2l-38,17.3
	c-3.1,1.4-5.2,3.6-6,6.5c-0.9,2.8-0.5,6.1,0.9,9.8c0.9,2.4,2.1,4.1,2.5,4.7c0.6,1.1,1.8,1.8,3.1,1.8c0.5,0,0.9-0.1,1.5-0.3l14.3-6.4
	c1.9,2.7,2.8,5.5,3.4,7.4L0.6,285.6c-0.3,0.1-0.4,0.3-0.5,0.4c-0.1,0.3-0.1,0.5,0,0.7l1.6,4.2C19,334.1,48.3,371,86.5,397.7
	c35.5,24.8,77.2,39.3,120.4,41.9l14.3,14.2c0.2,0.1,0.3,0.3,0.6,0.3c0.3,0,0.5-0.2,0.6-0.3l14.3-14.2c43.2-2.6,84.8-17.1,120.4-41.9
	c38.2-26.6,67.6-63.5,84.8-106.7l1.6-4.2C443.6,286.5,443.6,286.3,443.5,286"/>
<path style="fill:#274488;" d="M210,330.8c1.9-1.1,3.9-2.5,3.9-5.2c0-2.3-1.7-4.1-4.1-4.1c-2.3,0-4.1,1.7-4.1,4
	C205.6,328,207.5,329.4,210,330.8"/>
<path style="fill:#274488;" d="M339.4,89.4c-2.2,1.4-4.6,1.9-6.2,1.5c0.5-1.8,2.1-3.8,4.3-5.2c2.1-1.4,4.6-1.9,6.2-1.5
	C343.2,86.1,341.6,88.1,339.4,89.4 M335,97.5c-2.1,1.5-4.5,2-6.2,1.5c0.5-1.8,2.1-3.8,4.3-5.2c2.2-1.5,4.6-2,6.3-1.5
	C338.8,94.2,337.3,96.1,335,97.5 M330.8,104.6c-2.5,0.5-4.9,0.1-6.4-0.9c1-1.5,3.2-2.7,5.7-3.3s4.8-0.1,6.3,0.9
	C335.4,102.8,333.3,104.1,330.8,104.6 M328.8,299.2c-2.3,0-4.6,0.1-5.9,0.1c0.7-3.9,0.9-8.3,0.9-13.6v-6.3c0-4.1-0.3-9-6.3-9
	c-2.1,0-4.1,0.9-5.8,2.4c-1.8,1.8-2.3,3.3-2.3,7.8v5.1c0,6.6,0.4,10.6,1.5,13.6c-1.1,0-3.4-0.1-5.7-0.1c-2.4,0-4.6,0.1-5.8,0.1
	c0.6-3.9,0.9-8.3,0.9-13.6V277c0-3.5-0.3-8.8-1.5-12.5c3.2,0,7.6,0,10.6-0.3l-0.3,6.2l2.9-2.5c3.5-2.9,6.4-4.2,10-4.2
	c8.2,0,11.1,4.7,11.1,12.8v9.3c0,6.6,0.4,10.6,1.5,13.6C333.4,299.3,331.1,299.2,328.8,299.2 M277.7,300.4
	c-11.1,0-17.6-6.4-17.6-17.6c0-11,6.7-19.1,19.2-19.1c11.2,0,17.5,6.4,17.5,17.3C296.8,292.9,289.3,300.4,277.7,300.4 M259.3,265
	c-0.3,1-1,4-1.5,5.2c-2.7-0.3-4.4-0.3-6.3-0.3h-3.2c-0.1,2.4-0.2,5.2-0.2,7.3v8.1c0,5.4,0.6,9.4,5.3,9.4c1.5,0,2.7-0.3,4.6-1.3
	c0.3-0.2,1-0.2,0.8,0.9c-0.4,1.5-0.9,3-1.3,4.8c-4.3,1.1-6.1,1.4-8.3,1.4c-6.2,0-10.1-2.6-10.1-11.3v-10.9c0-3.4,0-6-0.1-8.4
	c-1.9,0-4,0.3-4.9,0.4c-0.2,0-0.7,0-0.4-0.8c0-0.3,0.9-3.5,1.3-4.6c0.9,0.1,2.6,0.2,4.3,0.2c0-2.8-0.2-4.3-0.3-6.4
	c2.5-0.8,7-2.8,9-4c0.8-0.5,1.1,0.2,1,0.9c-0.1,0.9-0.6,3.2-0.7,9.5h5c1.7,0,3.6-0.1,5.4-0.5C259.1,264.3,259.5,264.5,259.3,265
	 M245.3,347.8c-4.7,0-8-2.8-8-7c0-3.5,2.1-5.5,5.8-7.6c-2.2-1.4-4.5-3.2-4.5-6.5c0-3.9,3.3-7,7.6-7c4.1,0,7.2,2.7,7.2,6.3
	c0,3.3-2.3,5.1-4.8,6.4c3,1.7,5.7,3.8,5.7,7.5C254.3,344.5,250.5,347.8,245.3,347.8 M225.8,346.9l-0.1,0.2h-0.2c0,0-3.1,0-4.9,0.2
	h-0.1l-0.3-0.7l13.2-22.6h-8.3c-1.3,0-2.9,0.2-4.3,1.2l-0.2,0.1l-0.6-0.3l0.1-0.2c0.4-1.2,0.8-3.3,0.9-4v-0.2h0.2c0.9,0,2,0,3.1,0
	h9.5c1.2,0,1.8,0,2.9,0l0.3-0.1v0.3c0,0.3,0.3,2.1,0.3,2.4l0.1,0.1l-0.1,0.1c-2.1,2.3-4.5,6.6-6.6,10.4
	C227.4,339.9,226.1,343.3,225.8,346.9 M219.9,299.3c-1.1,0-3.4-0.1-5.6-0.1c-2.2,0-4.5,0.1-5.8,0.1c0.7-4,0.9-7.6,0.9-12.6v-8.6
	c0-3.3-0.3-9.5-1.5-13.3c2.7,0,6.9-0.1,9.7-0.3l-0.1,8.2l2.6-3.3c3.2-4.3,5.4-5.6,8.8-5.6c1.2,0,1.8,0.1,3.1,0.7
	c-1,3.6-2.1,7.4-2.7,9.6c-0.2,0.4-0.6,1.1-1.2,0.3c-1.4-1.5-1.6-2.1-3.3-2.1c-2.1,0-3.7,1.1-4.9,3.1c-1,1.6-1.4,3-1.4,6.4v5.8
	C218.5,293.7,218.9,296.3,219.9,299.3 M208.8,347.3c-4.7,0-8-2.9-8-7c0-3.5,2.2-5.5,5.8-7.6c-2.2-1.3-4.5-3.2-4.5-6.4
	c0-3.9,3.3-7,7.7-7c4.1,0,7.1,2.7,7.1,6.3c0,3.3-2.3,5.1-4.8,6.4c3,1.6,5.7,3.7,5.7,7.4C217.8,343.9,214,347.3,208.8,347.3
	 M197.1,346.6c-0.4-0.1-1.3-0.2-2.1-0.2c-0.7,0-1.4,0.1-2.2,0.2h-0.3l0.1-0.3c0.3-2.1,0.4-4.3,0.4-6.7v-12.2c0-3.4-0.3-3.8-1.4-3.8
	c-0.3,0-0.8,0.1-1.4,0.2l-1.9,0.4c-0.6,0.2-0.9,0.3-1.4,0.5h-0.1l-0.5-0.4l0.1-0.2c0.3-0.5,0.6-1.4,0.8-2.1l0.1-0.2h0.1
	c1-0.1,1.7-0.2,2.8-0.4l4-0.9c0.8-0.2,1.6-0.3,2.3-0.6h0.1l0.5,0.4l-0.1,0.1c-0.3,2.3-0.4,4.9-0.4,6.4v13.2c0,2.7,0.3,4.8,0.7,6.2
	l0.1,0.3H197.1z M173.9,282.4c0-11,7-18.5,17-18.5c8.8,0,14.2,5.2,14.2,13.6c0,0.7,0,3.8-1.3,3.8h-8.9c-3.7,0-8.8,0.1-11.2,0.2
	c0.2,8.4,4.6,13.2,12.2,13.2c3,0,4.8-0.7,7.3-2.3c0.6-0.4,1.3-0.1,0.9,1c-0.7,2.5-0.9,3.1-1.5,5.2c-3.2,1.1-7.3,2.1-11,2.1
	C180.7,300.6,173.9,293.2,173.9,282.4 M163.3,292.1c-1,2.5-1.5,4.4-2.1,7.2c-0.8-0.1-2.4-0.1-4-0.1c-1.4,0-3.2,0.1-4.5,0.1
	c-0.5-3.1-1.1-5-2.1-8.2l-4.6-14.2c-1.5-4.3-3.1-8.9-6.2-12.5c4.6,0.2,8.2,0,12.7-0.3c0.3,3.4,1,6.8,2.1,10l2.6,8.9
	c0.7,2.1,2.1,6.9,2.1,6.9c0.4-1.5,1-3.1,1.5-4.4l4-10.6c0.7-1.9,1.6-4.7,1.9-7.6c0-0.9,0.1-1.9,0-3.1c1,0.1,2.8,0.1,4.4,0.1
	c1.4,0,3.7-0.2,4.7-0.3c1-0.1,0.9,0.5,0.5,0.9c-2.4,3.1-4.4,7.3-6.2,11.6L163.3,292.1z M142.2,292c-0.5,1.7-2,7.1-2.1,7.6
	c-7.9-0.3-13.1-0.3-17.8-0.3c-5.8,0-9.6,0-12.8,0c0.5-3.7,0.9-8,0.9-13.3v-22.1c0-3.6-0.2-10.4-1.4-13.6c2.3,0.2,4,0.2,5.8,0.2H128
	c4.7,0,6.6-0.2,11.8-0.2c-0.9,3.3-1.9,6.9-2.3,8.2c-0.3,1.4-1.1,0.3-1.2,0.2c-2.1-3.2-6.4-3.5-10.4-3.5c-1.3,0-2.7,0.1-4.6,0.1
	c-0.1,1.2-0.3,4.6-0.3,7.6v7.1h5.8c4.3,0,8.6-0.3,10.3-0.6c0.7,0,0.5,0.5,0.5,0.5c-0.5,2-1.2,4.5-1.6,6.1c-4.6-0.4-7-0.5-10.1-0.5
	h-5v10c0,6.4,0.7,8.6,8.4,8.6c4.3,0,6.7,0,11.4-3.5C141.6,289.9,142.6,290.3,142.2,292 M107.1,101.4c1.5-1,3.9-1.5,6.4-0.9
	s4.6,1.8,5.7,3.3c-1.5,1-3.9,1.5-6.4,0.9S108.3,102.8,107.1,101.4 M104.2,92.4c1.7-0.4,4,0.1,6.2,1.5c2.2,1.4,3.8,3.3,4.3,5.2
	c-1.6,0.4-4-0.1-6.2-1.5C106.4,96.1,104.7,94.2,104.2,92.4 M99.8,84.2c1.7-0.3,4,0.2,6.3,1.5c2.2,1.5,3.8,3.4,4.3,5.2
	c-1.7,0.3-4-0.2-6.3-1.5C102,88.1,100.4,86.1,99.8,84.2 M100.9,64.9c1.6,0.7,3.3,2.5,4.6,5s1.6,5.1,1.2,7c-1.6-0.7-3.3-2.5-4.6-5
	S100.4,66.8,100.9,64.9 M105.8,58.3c1.3,1.2,2.5,3.5,2.9,6.3c0.4,2.8,0,5.4-0.9,7c-1.4-1.2-2.5-3.5-2.9-6.3
	C104.5,62.5,104.8,59.9,105.8,58.3 M108.3,56.7c0.1-2.9,1-5.3,2.2-6.7c1,1.5,1.7,4,1.5,7c-0.2,2.7-1,5.2-2.2,6.5
	C108.9,62,108.2,59.5,108.3,56.7 M111.2,79.1c1.3,1.2,2.4,3.5,2.8,6.3c0.4,2.8,0.1,5.4-0.9,7c-1.4-1.2-2.5-3.5-2.9-6.4
	C109.9,83.3,110.2,80.8,111.2,79.1 M108.6,85.8c-1.7-0.3-3.8-1.7-5.4-3.9c-1.6-2.2-2.5-4.6-2.4-6.5c1.7,0.3,3.8,1.6,5.3,3.8
	C107.7,81.4,108.6,83.9,108.6,85.8 M107.5,79.2c-0.3-1.7,0.2-4,1.4-6.1c1.2-2.1,2.8-3.7,4.3-4.2c0.3,1.7-0.2,4-1.4,6.2
	C110.7,77.2,108.9,78.8,107.5,79.2 M112.9,63c1.7-1.5,3.7-2.4,5.2-2.3c-0.3,1.7-1.4,3.7-3.2,5.3c-1.7,1.5-3.7,2.4-5.2,2.3
	C110,66.6,111.1,64.6,112.9,63 M115.2,53.9c1.5-2.3,3.3-3.9,5-4.4c0.3,2-0.4,4.6-1.9,6.8c-1.4,2.4-3.3,4-5,4.4
	C113.1,58.8,113.7,56.2,115.2,53.9 M120.2,102.5c-1.6-0.7-3.3-2.5-4.5-5s-1.5-5.2-1-7c1.5,0.7,3.3,2.5,4.5,5
	C120.3,98.1,120.6,100.7,120.2,102.5 M125.7,106.9c-1.2,1.5-3.3,2.6-5.8,2.9c-2.6,0.3-4.9-0.3-6.3-1.4c1.1-1.4,3.3-2.5,5.8-2.8
	C121.9,105.2,124.2,105.7,125.7,106.9 M127.9,102.2c2.1,1.6,3.5,3.7,4,5.5c-1.7,0.3-4-0.3-6.1-2c-2.1-1.5-3.6-3.6-4-5.5
	C123.4,100,125.7,100.7,127.9,102.2 M132.8,109L132.8,109c0.8,0.4,1.5,0.7,2.1,1c0,0,0.8-0.5,2.2-1c1.5-0.6,3.4-0.8,5.5-0.2
	c2.5,0.6,4.5,2,5.5,3.5c-1.5,0.9-3.8,1.2-6.4,0.6c-2.3-0.6-4.3-1.9-5.3-3.3c-0.3,0.3-0.6,0.5-0.9,0.8c2.7,1.6,4.8,3.7,7,6.4
	c-0.9,1.3-1.2,2-2.1,3.3c-1.6-3.6-3.3-6.5-5.5-9c-2.3,2.5-4.3,5.5-5.8,9c-0.9-1.3-1.3-1.9-2.1-3.2c2.1-2.7,4.5-4.9,7.2-6.5
	c-0.3-0.3-0.6-0.5-0.9-0.9c-1.1,1.5-3,2.8-5.4,3.4c-2.5,0.6-4.9,0.3-6.4-0.6c0.9-1.5,3-2.9,5.5-3.5
	C129.3,108.2,131.3,108.4,132.8,109L132.8,109 M141.8,102.2c2.1-1.5,4.4-2.2,6.1-2c-0.4,1.9-1.9,4-4,5.5c-2.1,1.6-4.5,2.3-6.1,2
	C138.2,105.9,139.7,103.9,141.8,102.2 M150.3,105.6c2.5,0.3,4.6,1.5,5.8,2.8c-1.5,1.1-3.8,1.7-6.4,1.4c-2.5-0.3-4.6-1.5-5.8-2.9
	C145.4,105.7,147.8,105.2,150.3,105.6 M150.6,95.5c1.2-2.5,2.8-4.3,4.5-5c0.4,1.8,0.1,4.5-1.1,7c-1.1,2.5-2.8,4.3-4.5,5
	C149.1,100.7,149.4,98.1,150.6,95.5 M149.5,49.5c1.7,0.5,3.6,2.1,5.1,4.4c1.4,2.3,2.1,4.9,1.8,6.8c-1.6-0.4-3.5-2-5-4.4
	C149.9,54.1,149.3,51.5,149.5,49.5 M160,68.3c-1.5,0.1-3.5-0.8-5.3-2.3c-1.8-1.6-2.9-3.6-3.2-5.3c1.5-0.1,3.5,0.8,5.3,2.3
	C158.7,64.6,159.8,66.6,160,68.3 M159.1,50c1.3,1.4,2.1,3.8,2.2,6.7c0.3,2.7-0.4,5.3-1.5,6.8c-1.2-1.4-2.1-3.8-2.3-6.5
	C157.5,54.1,158.1,51.6,159.1,50 M164,58.3c0.9,1.6,1.3,4.2,0.9,7c-0.4,2.7-1.6,5.1-2.9,6.3c-0.9-1.6-1.3-4.2-0.9-7
	C161.5,61.8,162.6,59.5,164,58.3 M168.8,64.9c0.4,1.9,0.1,4.5-1.1,7s-3,4.3-4.6,5c-0.4-1.9-0.1-4.5,1.1-7S167.2,65.6,168.8,64.9
	 M159.3,91c0.5-1.8,2.1-3.8,4.3-5.2c2.2-1.4,4.5-1.9,6.2-1.5c-0.5,1.9-2.1,3.9-4.3,5.2S161,91.3,159.3,91 M158.6,79.1
	c0.9,1.6,1.3,4.2,0.9,7c-0.4,2.8-1.5,5.2-2.9,6.4c-0.9-1.6-1.3-4.2-0.9-7C156.1,82.6,157.2,80.3,158.6,79.1 M163.6,79.2
	c1.6-2.1,3.6-3.5,5.3-3.8c0.1,1.9-0.8,4.3-2.4,6.5c-1.6,2.1-3.6,3.5-5.3,3.9C161.1,83.9,161.9,81.4,163.6,79.2 M162.3,79.2
	c-1.5-0.4-3.2-2-4.4-4.1c-1.2-2.1-1.6-4.5-1.4-6.2c1.5,0.5,3.1,2.1,4.3,4.2C162,75.3,162.5,77.5,162.3,79.2 M162.5,101.4
	c-1,1.5-3.1,2.7-5.7,3.3c-2.5,0.5-4.8,0.1-6.3-0.9c1-1.5,3.1-2.7,5.7-3.3C158.7,99.9,161.1,100.3,162.5,101.4 M161.1,97.5
	c-2.1,1.5-4.6,2-6.2,1.5c0.5-1.8,2.1-3.8,4.3-5.2c2.2-1.5,4.6-2,6.2-1.5C164.9,94.2,163.4,96.1,161.1,97.5 M182.5,117.4l35.2-74.8
	c-1.3-2.8,0.9-6.4,3.6-6.4c2.7,0,5.3,3.5,4,6.3l35.5,74.4c6,2.9,8.7,6.6,8.3,9.1c-0.3,2.7-2.1,4.3-4.4,5.2
	c0.2,13.5-0.4,61.3-0.3,88.6c3,0.7,3,3.9,2.7,14.2c-0.2,9.9,0.7,13.2-5.8,13.2c-0.9,0-2.6-0.1-2.6-0.1v-3.3c-0.1-1.7-0.1-2.2-1-2.6
	c-2.7-1.1-5.7-2.1-8.8-3.3c-2.2-0.8-69.4-24.8-69.4-24.8s-3.1-0.9-3.1-3.9c0-0.3-0.1-2.8-0.1-3.7v-9.6c0-2.5,1.6-3.3,3.1-3.2
	c0.1,0,0.1-0.3,0.1-0.4c-0.1-8.8-0.2-55.1-0.2-60c-3.1-0.9-3.9-3.1-3.9-3.1C174,125.9,175.6,121.1,182.5,117.4 M280,85.7
	c2.1,1.5,3.8,3.4,4.3,5.2c-1.7,0.3-4-0.2-6.2-1.5c-2.2-1.4-3.9-3.3-4.4-5.2C275.4,83.9,277.8,84.4,280,85.7 M274.8,64.9
	c1.6,0.7,3.3,2.5,4.6,5s1.6,5.1,1.2,7c-1.6-0.7-3.3-2.5-4.6-5S274.3,66.8,274.8,64.9 M279.6,58.3c1.4,1.2,2.5,3.5,2.9,6.3
	c0.4,2.8,0.1,5.4-0.9,7c-1.4-1.2-2.5-3.5-2.9-6.3C278.4,62.5,278.7,59.9,279.6,58.3 M282.2,56.7c0.2-2.9,1-5.3,2.2-6.7
	c1.1,1.5,1.7,4,1.5,7c-0.2,2.7-1,5.2-2.2,6.5C282.7,62,282,59.5,282.2,56.7 M286.7,63c1.8-1.5,3.8-2.4,5.4-2.3
	c-0.3,1.7-1.5,3.7-3.2,5.3c-1.8,1.5-3.9,2.4-5.4,2.3C283.8,66.6,285,64.6,286.7,63 M289.1,53.9c1.5-2.3,3.3-3.9,5-4.4
	c0.3,2-0.4,4.6-1.8,6.8c-1.5,2.4-3.3,4-5.1,4.4C287,58.8,287.6,56.2,289.1,53.9 M294.1,102.5c-1.6-0.7-3.3-2.5-4.5-5
	c-1.2-2.5-1.5-5.2-1.1-7c1.6,0.7,3.3,2.5,4.5,5C294.2,98.1,294.5,100.7,294.1,102.5 M287.4,100.4c2.5,0.5,4.6,1.8,5.6,3.3
	c-1.5,1-3.8,1.5-6.3,0.9s-4.6-1.8-5.7-3.3C282.6,100.3,284.9,99.9,287.4,100.4 M288.7,99c-1.7,0.4-4-0.1-6.3-1.5
	c-2.2-1.4-3.8-3.3-4.3-5.2c1.7-0.4,4,0.1,6.2,1.5C286.5,95.3,288.1,97.2,288.7,99 M285.1,79.1c1.4,1.2,2.5,3.5,2.8,6.3
	c0.4,2.8,0.1,5.4-0.9,7c-1.4-1.2-2.5-3.5-2.8-6.4C283.8,83.3,284.1,80.8,285.1,79.1 M282.4,85.8c-1.6-0.3-3.7-1.7-5.3-3.9
	c-1.6-2.2-2.5-4.6-2.4-6.5c1.7,0.3,3.7,1.6,5.3,3.8C281.6,81.4,282.5,83.9,282.4,85.8 M281.4,79.2c-0.3-1.7,0.2-4,1.4-6.1
	c1.2-2.1,2.8-3.7,4.4-4.2c0.3,1.7-0.3,4-1.5,6.2C284.5,77.2,282.8,78.8,281.4,79.2 M299.5,106.9c-1.1,1.5-3.3,2.6-5.8,2.9
	c-2.6,0.3-4.8-0.3-6.3-1.4c1.2-1.4,3.3-2.5,5.8-2.8C295.8,105.2,298.1,105.7,299.5,106.9 M301.8,102.2c2.1,1.6,3.5,3.7,3.9,5.5
	c-1.7,0.3-3.9-0.3-6.1-2c-2.1-1.5-3.6-3.6-4-5.5C297.3,100,299.7,100.7,301.8,102.2 M308.7,110c0.6-0.3,1.3-0.6,2-0.9l0.2-0.1
	c1.5-0.6,3.5-0.8,5.6-0.2c2.5,0.6,4.6,2,5.6,3.5c-1.5,0.9-4,1.2-6.4,0.6s-4.4-1.9-5.4-3.4c-0.3,0.3-0.6,0.6-0.9,0.9
	c2.8,1.6,5.2,3.8,7.3,6.5c-0.9,1.3-1.2,1.9-2.1,3.2c-1.5-3.5-3.5-6.5-5.8-9c-2.2,2.5-4,5.4-5.6,9c-0.8-1.3-1.2-2-2-3.3
	c2.1-2.7,4.2-4.8,6.9-6.4c-0.3-0.3-0.6-0.5-0.9-0.8c-1.1,1.5-3,2.7-5.4,3.3c-2.5,0.6-4.8,0.3-6.4-0.6c1-1.5,3-2.9,5.5-3.5
	c2.1-0.6,4-0.4,5.6,0.2C307.8,109.5,308.7,110,308.7,110 M315.7,102.2c2.1-1.5,4.4-2.2,6.1-2c-0.4,1.9-1.9,4-4,5.5
	c-2.1,1.6-4.5,2.3-6.2,2C312.1,105.9,313.6,103.9,315.7,102.2 M324.2,105.6c2.5,0.3,4.6,1.5,5.8,2.8c-1.4,1.1-3.7,1.7-6.2,1.4
	c-2.6-0.3-4.7-1.5-5.8-2.9C319.3,105.7,321.6,105.2,324.2,105.6 M324.5,95.5c1.2-2.5,2.8-4.3,4.5-5c0.4,1.8,0.1,4.5-1,7
	c-1.2,2.5-2.9,4.3-4.5,5C322.9,100.7,323.3,98.1,324.5,95.5 M323.4,49.5c1.7,0.5,3.6,2.1,5.1,4.4s2.1,4.9,1.9,6.8
	c-1.7-0.4-3.6-2-5.1-4.4C323.8,54.1,323.2,51.5,323.4,49.5 M333.9,68.3c-1.5,0.1-3.5-0.8-5.3-2.3c-1.8-1.6-2.9-3.6-3.2-5.3
	c1.5-0.1,3.5,0.8,5.3,2.3C332.5,64.6,333.7,66.6,333.9,68.3 M333.1,50c1.2,1.4,2.1,3.8,2.2,6.7c0.1,2.7-0.5,5.3-1.5,6.8
	c-1.3-1.4-2.1-3.8-2.2-6.5C331.3,54.1,331.9,51.6,333.1,50 M337.9,58.3c0.9,1.6,1.3,4.2,0.9,7c-0.4,2.7-1.6,5.1-2.9,6.3
	c-0.9-1.6-1.3-4.2-0.9-7C335.4,61.8,336.5,59.5,337.9,58.3 M337.4,79.2c1.6-2.1,3.6-3.5,5.3-3.8c0.1,1.9-0.8,4.3-2.4,6.5
	c-1.6,2.1-3.6,3.5-5.3,3.9C334.9,83.9,335.8,81.4,337.4,79.2 M333.3,86.1c-0.4,2.8-1.5,5.2-2.9,6.4c-0.9-1.6-1.3-4.2-0.9-7
	c0.4-2.7,1.5-5.1,2.9-6.3C333.3,80.8,333.7,83.3,333.3,86.1 M331.8,75.1c-1.2-2.1-1.6-4.5-1.4-6.2c1.5,0.5,3.1,2.1,4.3,4.2
	c1.2,2.1,1.7,4.4,1.4,6.1C334.6,78.8,333,77.2,331.8,75.1 M342.7,64.9c0.4,1.9,0.1,4.5-1.2,7c-1.2,2.5-2.9,4.3-4.5,5
	c-0.4-1.9-0.1-4.5,1.1-7S341,65.6,342.7,64.9 M385.6,65.1L327,11.7c-13.8,9-31.9,14.5-51.7,14.5c-20.7,0-39.5-6-53.5-15.8
	c-14,9.8-32.8,15.8-53.5,15.8c-19.8,0-37.9-5.5-51.6-14.5L57.9,65.1c0,0,28.3,26.9,28.5,48.6c0.1,21.8-6.4,39.4-14.3,61.7
	c-2.9,8.3-6.4,21.5-8,36.7c-0.3,2.9-0.7,6.1-0.9,9.3c-0.2,2.8-0.2,5.8-0.3,8.7c-0.1,18,3,37.3,12.1,53.9c1.4,2.5,2.8,4.9,4.5,7.2
	c4.7,6.8,43.1,70.3,124.6,78.7l0.3,0.3l17.3,17.3l17.3-17.3l0.3-0.3c81.5-8.3,119.9-71.9,124.6-78.7c1.6-2.3,3.2-4.7,4.5-7.2
	c9.1-16.7,12.2-35.9,12.1-53.9c0-2.9-0.1-5.8-0.3-8.7c-0.2-3.2-0.5-6.4-0.8-9.3c-1.7-15.2-5.1-28.3-8.1-36.7
	c-7.9-22.2-14.4-39.8-14.3-61.7C357.3,92,385.6,65.1,385.6,65.1"/>
<path style="fill:#274488;" d="M246.4,331.3c1.9-1.1,3.9-2.5,3.9-5.2c0-2.3-1.7-4.1-4.1-4.1c-2.3,0-4,1.7-4,4
	C242.1,328.5,244,329.9,246.4,331.3"/>
<path style="fill:#274488;" d="M245.3,334.6c-3.2,1.5-4.7,3.6-4.7,6.1c0,2.7,2.1,4.8,5,4.8c2.9,0,5.2-2.1,5.2-4.8
	C250.7,338,248.9,336.6,245.3,334.6"/>
<path style="fill:#274488;" d="M208.8,334c-3.2,1.5-4.7,3.6-4.7,6.1c0,2.7,2.1,4.8,5,4.8s5.2-2.1,5.2-4.8
	C214.2,337.5,212.4,336,208.8,334"/>
</svg>
