<?xml version="1.0" encoding="utf-8"?>
<!-- Generator: Adobe Illustrator 21.0.0, SVG Export Plug-In . SVG Version: 6.00 Build 0)  -->
<svg version="1.1" id="Layer_1" xmlns="http://www.w3.org/2000/svg" xmlns:xlink="http://www.w3.org/1999/xlink" x="0px" y="0px"
	 viewBox="0 0 379 379.1" style="enable-background:new 0 0 379 379.1;" xml:space="preserve">
<style type="text/css">
	.st0{clip-path:url(#SVGID_2_);fill:#00529F;}
	.st1{fill:#FFFFFF;}
	.st2{fill:#00529F;}
	.st3{fill:#EFB310;}
</style>
<g>
	<g>
		<g>
			<g>
				<defs>
					<rect id="SVGID_1_" width="379" height="379.1"/>
				</defs>
				<clipPath id="SVGID_2_">
					<use xlink:href="#SVGID_1_"  style="overflow:visible;"/>
				</clipPath>
				<path class="st0" d="M-0.1,189.5C-0.1,84.8,84.8,0,189.5,0S379,84.8,379,189.5S294.1,379,189.5,379S-0.1,294.2-0.1,189.5"/>
			</g>
		</g>
	</g>
	<path class="st1" d="M10.7,189.5c0-98.7,80-178.7,178.7-178.7s178.7,80,178.7,178.7s-80,178.7-178.7,178.7
		C90.8,368.2,10.7,288.2,10.7,189.5"/>
	<path class="st2" d="M189.5,314.4c33.4,0,64.7-13,88.3-36.6c23.6-23.6,36.6-54.9,36.6-88.3s-13-64.7-36.6-88.3
		s-54.9-36.6-88.3-36.6s-64.7,13-88.3,36.6s-36.6,55-36.6,88.3c0,33.4,13,64.7,36.6,88.3C124.7,301.4,156.1,314.4,189.5,314.4
		 M65.9,189.5c0-33,12.9-64,36.2-87.4c23.3-23.3,54.4-36.2,87.4-36.2s64,12.9,87.4,36.2c23.3,23.3,36.2,54.4,36.2,87.4
		s-12.9,64-36.2,87.4c-23.4,23.3-54.4,36.2-87.4,36.2s-64-12.9-87.4-36.2C78.7,253.5,65.9,222.5,65.9,189.5z"/>
	<path class="st2" d="M155.6,97.2c4.5-4.9,22.8-12.4,22.8-12.4c8.3-4.1,8.4-9,7.7-11.6c-24.5,0.7-47,9.3-65.3,23.3
		c10.4,3.5,27.4,15.8,27.4,15.8C148.6,103.4,151.2,102.1,155.6,97.2"/>
	<path class="st2" d="M201.4,83.1c0,0,18.3,7.6,22.7,12.4c4.4,4.9,7,6.2,7.5,15.1c0,0,14.8-10.8,25.3-15
		c-17.9-13.3-39.8-21.5-63.5-22.3C193.4,75.9,194.7,79.8,201.4,83.1"/>
	<path class="st2" d="M88.2,148.2c3.7-2.3,5.5-3.5,11.5-11.8c0,0,5.8-7,9.5-8.7c0,0-1-8.7-0.8-10.3c0.1-1.6,0.4-6.6,1.7-8.5
		c1.1-1.6,2.1-3.5,1.6-4.8c-13.3,12.6-23.6,28.3-29.9,46.1C82.5,150.3,85.2,150.1,88.2,148.2"/>
	<path class="st2" d="M270.1,115.5c0.1,1.6-0.8,10.3-0.8,10.3c3.7,1.6,9.5,8.7,9.5,8.7c6,8.3,7.8,9.5,11.5,11.8
		c2.8,1.7,5.2,2,6.3,2.1c-6.4-17.2-16.6-32.4-29.7-44.6c0.2,1.1,0.9,2.3,1.6,3.3C269.8,108.9,270,114,270.1,115.5"/>
	<path class="st2" d="M109.6,255.2c-8.8-14.5-2.4-23.8,1-30.7c3.3-6.9,16.8-12.2,16.8-12.2l-1.2-2.9c-3.9,0.9-14.9,3.8-26.7-2.6
		c-12-6.4-12.7-26.3-12.7-26.3c0.7-14.9-5.1-20-7.8-21.6c-2.6,9.7-4,20-4,30.5c0,38,17.9,71.7,45.6,92.9
		C122.2,275.9,117.6,268.4,109.6,255.2"/>
	<path class="st2" d="M303.9,189.5c0-11.9-1.8-23.5-5.1-34.3c-2,2.2-4.4,7.5-3.9,20.5c0,0-0.6,21-12.4,27.4s-22.3,3.4-26.3,2.5
		l-2.4,6c0,0,13.5,5,16.8,11.9s10.8,14.9,2,29.3c-8,13.1-12.6,20.6-11.1,27.1C287.4,258.6,303.9,226,303.9,189.5"/>
	<path class="st2" d="M225,288.9c-12.6,3.2-26.4-11.5-26.4-11.5c-9.1,3.5-15.2,0.4-15.2,0.4c-7.9,14.5-22.3,10.4-37.7,7.4
		c-11.1-2.2-15.5,0.9-17.1,2.9c17.6,11.3,38.5,17.8,60.9,17.8c24.2,0,46.6-7.6,65.1-20.7C247.8,280,236.7,286,225,288.9"/>
	<path class="st2" d="M190.8,74.1c0,0-1.6,6.8-3.2,8.5c-1.6,1.8-8,6.8-11.7,8.2c-3.7,1.4-18.3,8.3-20.6,14s-3.4,11.1-3.4,11.1
		l3.5,3.2c0,0,0.1-8.6,2.9-12.1c2.7-3.5,7.1-8.2,14.2-10.9c7.1-2.6,16.5-10.8,17.8-14.6l0.8-0.1c0,0,4.5,7,6.7,8.2
		c2.3,1.2,7.6,4.7,12.8,6.4c5.3,1.6,10.5,8.1,11.4,9.8c0.8,1.7,3.3,10,3.3,10l3.7-4.1c0,0-3-8.2-6.7-11.8c-3.7-3.6-6.3-5.6-13.1-7.6
		C202.5,90.4,190.8,85.9,190.8,74.1"/>
	<path class="st2" d="M111.2,132.1c0,0-6.9,6.3-10,9.9c-3.1,3.6-8,12.6-21.5,11.6v1.2c0,0,2.6,0.2,4.8,3.1c2.2,3,5.1,5.1,5.4,11.8
		s0.3,39.6,30.6,36.3l-0.5-2.1c0,0-6.6,0.9-13.1-3.7c-6.6-4.6-10.5-8.9-12.3-21.1c0,0-2.3-15.5-6.4-19.1s-2.6-3.7-2.3-4.7
		c0,0,4.9-0.5,10.5-4.8c5.6-4.4,13.1-12.5,14.6-13.6C112.5,135.9,113.8,135,111.2,132.1"/>
	<path class="st2" d="M123.5,286.9c0,0-0.3-0.9,0.8-2.9s3.4-6.1-1.8-15.9c-5.3-9.9-14.3-21.7-11.4-31.9c3-10.2,9.2-16.4,17.5-19.1
		l0.9,4.3c0,0-11.2,4.4-13.6,12s-2.4,13.2,3.3,23.1s8.7,14.5,7.9,24.1c0,0,9.4-2.6,15.5-1.8c6.2,0.8,16.8,2,20.2,0.8s9.1-0.1,13-7.2
		l3.4,2.8c0,0-5.3,9.2-15.1,8.7c-9.9-0.5-18.1-2.5-21.9-2.8S128.3,279.6,123.5,286.9"/>
	<path class="st2" d="M207.3,272.1l-3.8,2.1c0,0,5.7,11.2,18.8,10.3c13.1-0.9,18.3-4.4,21.3-4.6c3-0.1,6.8-2.8,14.3,2.4l1.3-0.5
		c0,0-3.9-7-0.2-13.1c3.7-6.1,11.2-17.8,12.2-26.9c1.1-9.1-1.2-17.1-18.9-25.6l-2.5,4.7c0,0,14.5,4.3,16.4,13.2s2.5,11.7-3.2,22.5
		s-7.6,10.6-7.7,21c0,0-2.5-2.3-12.3-0.3C233.1,279.5,216.6,286,207.3,272.1"/>
	<path class="st2" d="M190.8,274.4c0,0,4.5,0.8,8.6-3.7c0,0,5.1-1.6,7.9-3.6c2.8-2,6.2-4.6,5.8-14.2c0,0,3.6-5.7,5.4-8
		c1.8-2.3,1.6-1.8,6.9-6.7c5.3-4.9,14.4-10.1,16.8-13.2c2.4-3.1,4.1-5.1,8-16.2c0,0,3.1-5.7,6.7-8.7s4.7-3,3.1-6.5
		c0,0-0.2-1.9,2-4.6c2.2-2.7,6.5-6.4,3.3-7.7c-3.1-1.3-4-2.2-5.2-3.4c-1.1-1.2-2-3.3-5.6-5.2c0,0-1.6-1.5-1.2-2.9
		c0.3-1.5,1.8-3.7,2.2-6.2c0.3-2.5,2.7-2.5,3-5.7c0.3-3.1,0.4-11.6,1.2-15.3c0.8-3.6,4-8.4,4.3-11.5s-0.4-4,1.9-11.5
		c0,0,1.4-1.8,0.9-5.3c-0.6-3.4-4.6-14.2-5.7-15c-1.1-0.9-1.5-2.1-5.2-0.3c-3.7,1.8-7.5,4.7-9.1,6.3c-1.6,1.6-8.6,4.3-9.4,5.5
		c-0.8,1.2-6.2,4.8-8,6.7s-4.5,4.8-5.6,6.4c-1.1,1.6-1.7,3.1-6.2,1.8s-14.6-4.2-26.6-4.3c0,0-17.6,0.9-27.3,4.6c0,0-5,2.8-7.2-0.6
		c-2.1-3.5-14.8-13.4-17.2-14c-2.3-0.6-12.8-9.4-21.5-10.9c0,0-6.1,14.3-4.3,21.5c1.7,7.2,3.6,13.5,3.6,14.3
		c0.1,0.8,1.9,4.6,2.7,7.1s1.2,9,1.9,12.8s1.3,5.8,2.2,7.1c1,1.3,0.9,2.9,1.4,3.9c0.6,1,0.9,1.2,1.6,2.5c0.7,1.3,1.9,1.6-1.1,4.9
		c-3,3.2-6.1,8.6-11.8,9l-0.1,1.6c0,0,2.6,2.6,4,4.7c1.4,2,4.2,4.7,1.7,8.6l8.2,6.8c0,0,1.9-0.2,3.9,7s1.5,10.4,7.7,14.8
		c6.2,4.4,8.6,5.6,10.5,7.2c2,1.7,5.5,4,6.5,5.3s3,1.6,4.1,2.3c1.1,0.8,0.8,3,3.6,5.2c2.8,2.3,4.9,4.6,5,6.2s-0.3,3.1,0,5.5
		s2.2,6.4,4.3,7.8c2,1.5,2.6,1.5,5.2,2.5C181.3,270.3,187.9,274.9,190.8,274.4"/>
	<path class="st3" d="M215.7,129.6c0,0-13.5-4.4-25.5-3.9c0,0-23.4,2.2-28.3,5.2c0,0,3.3,3.6,4.3,7l-1.3,1.6
		c0,0-29.6-28.6-45.7-32.7c0,0-3.1,6.6,1.5,22c4.6,15.5,6.2,20.7,6.4,22.3s-0.1,5.8,1.7,8.8s3.7,7,4.4,9.9c0.6,3-0.1,3.2-2.3,5.4
		s-8.3,8.2-8.5,9.5s1.8,4.6,3.3,6.9c1.5,2.3,1.6,2.9,2.2,5.6c0.6,2.6,0.1,2.7,2.8,4.3s2.9,1.9,4,3.7s2.3,4.6,4.7,5.1
		s4.3,1.8,7.1,2.3s4.5,1.2,6.4,2.8c1.8,1.6,2.8,2.6,1.3,3c-1.5,0.3,0,1.2-4.2-0.5c-4.3-1.6-6.7-3.7-8-3c-1.4,0.6-3.5,1.8-2.9,3
		s2.6,4.5,4.7,5.5c2.1,1,1.4,0.9,4.9,2.8c3.5,1.9,4.1,1.9,7.2,5.2c3.1,3.3,1.4,2,4.8,4.5c3.4,2.5,2.8,2.8,5.1,4.8
		c0,0,6.1,7.8,6.2,10.5c0,0,2.6-7.7,2.1-10l3.3-0.5c0,0,2.3-7.3,3.1-11.5c0.8-4.1,2.3-7.9,1.6-11c-0.7-3.2,1.3-8.6,1.8-9.7
		c0.6-1.2,0.3-3.5,0.3-3.5l-2.3-3c0,0,1.9-3.6,2.2-2.7c0.3,0.9,1,2.7,1.8,3.5s2.8,1.9,2.6,2.9s-1.2,2.4-1.5,3.2s-0.9,6.5-0.7,7.8
		s0,5.9,0.5,6.4c0.5,0.4-0.8,1.1-1.9,5.1c-1.2,3.9-3.2,10.4-3,11.1c0.2,0.7-0.8,5.3-1.3,6.1c-0.5,0.8-0.6,1.9-0.6,1.9l-3.1-0.8
		c0,0-0.1,1.3-0.7,3.2c-0.6,1.9-1.2,5.4-1.7,6.7c-0.6,1.3,1.1,8.3,6.6,9s8.6,0.2,9,0.2c0.4-0.1,2-0.3,3.3-0.1
		c1.3,0.3,11.2-0.6,12.1-1.9c0.9-1.4,5.5-6.5,1.9-12.1c0,0-0.1-3.7-0.7-4.2c-0.7-0.5-3,1.3-3.8-0.5c-0.8-1.8-2.1-11.9-3.1-13.6
		c-0.9-1.7-1.5-3.5-2-6.3s-1.1-2.2-1.1-5.1c0-3,0.3-3.3,0.1-6.4c-0.2-3.1-3.1-9.7-2.7-11c0.5-1.3,4.8-6.3,7.8-10.7s6-10.3,15.4-9.3
		c9.5,1,13.2,1.4,15.7,1s5.9-1.1,7-0.3s1.3,0.3,0.6,1.7s-2.1,2.7-4.1,2.4c-1.9-0.3-8.6-0.8-10.8-0.7s-7.1-1.1-10.6-0.1
		s-7.4,4.3-8.8,6.1c-1.4,1.8-6.6,6.8-7.3,10.4c-0.7,3.6,1.5,5.7,1.5,8.1c0,2.4-1.8,3,0,6.1s0.6,3.6,1.3,5.6s1,5.6,1.5,8.2
		c0.5,2.6,0.2,6.4,1.4,6.6c1.3,0.2,2,0.3,3,0.6c0.9,0.3,1.2,2.4,1.3,4.1c0.1,1.7,0,3.4,1.1,3.1c1.1-0.3,1.4-0.2,3.3-2.7
		c1.8-2.4,4.8-5.3,7.8-8.5c2.9-3.3,4.4-5.7,10.6-10c6.2-4.3,10.6-4.5,10.4-8c-0.2-3.5,1.2-4.9-0.8-5.1c-2-0.2-2.1,1-4.7,1.8
		c-2.7,0.8-3.4,2.9-4.8,2.7c-1.4-0.2-4.9,0.8-3.3-1.9c1.6-2.6,4.5-4.8,7.7-6.8s6.1-1.2,8.9-4.5c2.8-3.3,10-6.4,9-8.7s-2.8-3-1.6-4.3
		c1.2-1.3,6.1-4.9,5.4-7.5s-0.6-2.3-2.6-4.1s-5.3-4.5-6.5-5.4c-1.2-0.8-0.4,0.3-0.1-4c0.2-4.4,0.5-5.5,2.2-10.1s1.7-3.9,2.2-8.9
		c0.5-4.9,2.3-12,3.1-13.8c0.8-1.8,1.9-6.5,2.4-9.1s2.4-5.8,2.6-11.2c0.2-5.4-0.1-5.7-0.9-8.3c-0.8-2.6-1-4.8-1.5-4.5
		c0,0-8.7,4-11.5,6.3c-2.8,2.3-5.3,4.3-6.6,4.9c-1.3,0.7-10.8,8.9-11.8,10.1c-1.1,1.2-5,6.4-6.3,7.2s-7.5,5.2-9.1,5.3
		C213.2,138.1,214.9,131.2,215.7,129.6"/>
	<path class="st2" d="M215.4,190.8c0.6,0.1,3.8,3.3,4.1,4.6c0.2,1.3-1,3-4.9,4.2s-4.2-3.9-4.9-5.2c-0.8-1.3,3.8-3.6,3.8-3.6
		C214,190.5,214.7,190.8,215.4,190.8 M214.3,194.2c0,0-0.7-0.3-0.7,0.7c0.1,1,1,1.4,1.3,1C215.1,195.4,216,194.5,214.3,194.2z"/>
	<path class="st2" d="M140.6,187.9c0,0,4.8,5.2,12.5,3.3s10.7-1.9,14.4-0.6c3.8,1.4,8.1,7.5,9.9,8.2c1.8,0.7,2.3-3.2,2.3-3.2
		s-2-3-3.9-4.6s-6.6-4.9-9.5-5.2c-2.9-0.2-10.5,0.4-15.2,1.1c-4.7,0.7-9.9-0.8-10.7-1C139.8,185.8,139.5,187.1,140.6,187.9"/>
	<path class="st2" d="M153.1,193.5c0,0,7.6,6.4,10.6,7.2s6.5,1.4,7.3,1.8c0.8,0.4,1.1,2,0.7,2.2c-0.4,0.3-9.4-0.1-12.7-2.7
		c-3.3-2.7-7.7-5.1-7.7-6.3C151.4,194.5,152.5,193.1,153.1,193.5"/>
	<path class="st2" d="M170.8,197.7c-0.1,1.5-2.2,1.7-4.6,1.7c-2.4,0-2.4-0.6-3.3-3.8c-1-3.2,3.8-3.9,3.8-3.9
		C171,192.6,170.9,196.1,170.8,197.7 M166.5,194.7c0,0-1.1,0.7-0.3,1.2s0.8,1.1,1.2,0.3C167.8,195.4,167.2,194.6,166.5,194.7z"/>
	<path class="st2" d="M261.9,202.2l2-2.8c0,0,6.5,1.5,15.2-5.1s8.9-20.2,9-27.1c0.1-6.8,1.9-9.8,1.9-9.8c1.7-3.9,3.8-3.8,3.6-4.6
		c-0.2-0.9-5.8-2.2-10.2-4.8c-1.7-1-7.8-7.5-9.5-8.8s-6.1-4.5-6.1-4.5l0.5-4.5c0,0,7.1,6.4,8.9,8.7c1.7,2.3,5.6,5.7,7,6.8
		s8.2,4.7,9.7,4.7s3.8-0.6,3.8-0.6l0.3,1.7c0,0-2,0.9-2.8,1.8c-0.8,0.9-3.9,4.6-4.4,7.6c-0.5,2.9-0.2,11.8-0.1,13.8
		s-1.1,16.1-6,20.2C279.7,199.1,277.1,202.4,261.9,202.2"/>
	<path class="st2" d="M245.9,161.2c1.8-0.7,4.1-3.7,4.7-6.4s0.6-5,0.9-6.8s0.6-6.1,2.1-7.7c1.4-1.6,2.2-5.7,2.2-6.7s0.9-4,0.6-6.2
		c-0.3-2.1,0-4.5,0.2-7s0.6-6,1.1-6.7c0.6-0.8-0.7-3.3-0.7-3.3l-0.5-2.3c0,0-0.1,0.2-2.5,1.2s-3.7,2.5-5.2,3.5s-3.2,2.6-4.5,3.1
		c-1.3,0.5-3,1.3-4.9,4.1c-2,2.8-4.8,3.2-6,6.5s-4.8,4.4-4.1,6.2s2,3.4,1.7,5c-0.2,1.6-3,4.6-4,5.9c-1,1.3-1.5-0.7,1.5,3.8
		s6.7,7.7,7.1,8.3c0.4,0.6,3.6,3.5,5.1,4.6C242.3,161.3,245.9,161.2,245.9,161.2"/>
	<path class="st3" d="M232.5,145.1c0,0,4,5.5,5.8,6.8s0.7,2,2.1,2.4c1.4,0.4,2.8,2,3.5,1.9c0.7-0.2,2.5-0.7,2.4-0.8
		c-0.1-0.2,0.4-1.6,0.4-2.8s0.9-4.5,0.9-4.5l3-9.9c0,0,1.4-2.6,1.4-3.5c0-1-0.1-5.8-0.6-6.3c-0.4-0.6,0.6-1.8,0.6-3
		c0-1.1-0.2-2.1,0.6-3.3c0.8-1.2,0.5-3.1,1.2-4.3s1-3.1,1-3.1l0.5-1.9c0,0-1.8-0.1-2.4,1.1c-0.6,1.3-2.3,2.5-2.4,2.6
		c-0.1,0-1.9,2.3-1.9,2.3l-4.6,2.1c0,0-3.4,4-4.1,5.1c-0.7,1.2-3.9,4.3-3.9,4.8s0.3,1.9,0.4,2.6c0.1,0.7-0.5,2.8-0.5,2.8l0.2,2.4
		L232.5,145.1"/>
	<path class="st2" d="M270.5,151.3c0-1.3,0.7-2.4,1.5-2.4s1.5,1.1,1.5,2.4s-0.7,2.4-1.5,2.4S270.5,152.6,270.5,151.3"/>
	<path class="st2" d="M276.7,158.4c0.8,0,1.5-1.1,1.5-2.4c0-1.3-0.7-2.4-1.5-2.4s-1.5,1.1-1.5,2.4
		C275.2,157.3,275.8,158.4,276.7,158.4"/>
	<path class="st2" d="M266.5,156c0-1.3,0.7-2.4,1.5-2.4s1.5,1.1,1.5,2.4c0,1.3-0.7,2.4-1.5,2.4S266.5,157.3,266.5,156"/>
	<path class="st2" d="M232.4,243.3c0-1.3,0.7-2.4,1.5-2.4s1.5,1.1,1.5,2.4c0,1.3-0.7,2.4-1.5,2.4S232.4,244.6,232.4,243.3"/>
	<path class="st2" d="M236.7,238.3c0-1.3,0.7-2.4,1.5-2.4s1.5,1.1,1.5,2.4c0,1.3-0.7,2.4-1.5,2.4S236.7,239.7,236.7,238.3"/>
	<path class="st2" d="M241.1,242.8c0-1.3,0.7-2.4,1.5-2.4s1.5,1.1,1.5,2.4c0,1.3-0.7,2.4-1.5,2.4S241.1,244.1,241.1,242.8"/>
	<path class="st2" d="M267.5,178.6c0,0,4.5-14.5,4.6-17.5c0,0,1.9,13.7,3.7,17.2c0,0-2.9-1.2-3.1,0.4c-0.2,1.6-0.4,2.8-1,3.1
		c0,0-1,0.5-1-2.8C270.8,179,269.9,176.8,267.5,178.6"/>
	<path class="st1" d="M288.7,218.7c0,0-7.3-4.7-9.4-5.4c-2.2-0.7-6.6-2.8-8.3-2.3c-1.7,0.5-2.8,1.3-3.1,2.1c-0.3,0.8-0.8,3,2.5,4.6
		s8,2.7,13.5,3.2c5.5,0.4,5.5,0.6,5.5,0.6L288.7,218.7"/>
	<path class="st2" d="M227.8,218.8l1.2,1.4l0.2,0.5l-2.4,1.1l-2.1,1.1l-2,1.2l-2.3-1.4l-0.8-0.7l2.4-1.1c0,0,0.7-1.1,1.5-1.3
		c0.9-0.2,1.7-0.6,2.3-0.7C226.4,219,227.8,218.8,227.8,218.8"/>
	<path class="st2" d="M242.6,264.2c0,0-4.6-8.3-4.2-16c0,0-1.5,9.7-4.3,15.8c0,0-0.5,1.5,1,0.9s2.3-1.2,2.2,0.8
		c-0.2,3.3,1.6,2.3,1.6,2.3s0-2.6,0.2-2.8c0,0,0.7-1.5,2-0.5C242.5,265.6,242.6,265,242.6,264.2"/>
	<path class="st2" d="M140.1,243.3c0-1.3,0.7-2.4,1.5-2.4s1.5,1.1,1.5,2.4c0,1.3-0.7,2.4-1.5,2.4
		C140.7,245.7,140.1,244.6,140.1,243.3"/>
	<path class="st2" d="M144.4,238.3c0-1.3,0.7-2.4,1.5-2.4s1.5,1.1,1.5,2.4c0,1.3-0.7,2.4-1.5,2.4C145,240.7,144.4,239.7,144.4,238.3
		"/>
	<path class="st2" d="M148.8,242.8c0-1.3,0.7-2.4,1.5-2.4s1.5,1.1,1.5,2.4c0,1.3-0.7,2.4-1.5,2.4S148.8,244.1,148.8,242.8"/>
	<path class="st2" d="M150.3,264.2c0,0-4.6-8.3-4.2-16c0,0-1.5,9.7-4.3,15.8c0,0-0.5,1.5,1,0.9s2.4-1.2,2.3,0.8
		c-0.2,3.3,1.6,2.3,1.6,2.3s0-2.6,0.2-2.8c0,0,0.7-1.5,2-0.5C150.1,265.6,150.3,265,150.3,264.2"/>
	<path class="st2" d="M104.3,158.6c0-1.3,0.7-2.4,1.5-2.4s1.5,1.1,1.5,2.4c0,1.3-0.7,2.4-1.5,2.4C104.9,161,104.3,159.9,104.3,158.6
		"/>
	<path class="st2" d="M108.5,153.7c0-1.3,0.7-2.4,1.5-2.4s1.5,1.1,1.5,2.4c0,1.3-0.7,2.4-1.5,2.4C109.2,156.1,108.5,155,108.5,153.7
		"/>
	<path class="st2" d="M113,158.1c0-1.3,0.7-2.4,1.5-2.4s1.5,1.1,1.5,2.4c0,1.3-0.7,2.4-1.5,2.4C113.6,160.5,113,159.4,113,158.1"/>
	<path class="st2" d="M114.5,179.5c0,0-4.6-8.3-4.2-16c0,0-1.5,9.7-4.3,15.8c0,0-0.5,1.5,1,0.9s2.3-1.2,2.2,0.8
		c-0.2,3.3,1.6,2.3,1.6,2.3s0-2.6,0.2-2.8c0,0,0.7-1.5,2-0.5C114.3,181,114.5,180.4,114.5,179.5"/>
	<path class="st2" d="M184.6,99.1c0-1.3,0.7-2.4,1.5-2.4s1.5,1.1,1.5,2.4s-0.7,2.4-1.5,2.4S184.6,100.4,184.6,99.1"/>
	<path class="st2" d="M188.9,94.2c0-1.3,0.7-2.4,1.5-2.4s1.5,1.1,1.5,2.4s-0.7,2.4-1.5,2.4C189.5,96.6,188.9,95.5,188.9,94.2"/>
	<path class="st2" d="M193.3,98.6c0-1.3,0.7-2.4,1.5-2.4s1.5,1.1,1.5,2.4s-0.7,2.4-1.5,2.4S193.3,99.9,193.3,98.6"/>
	<path class="st2" d="M194,117.8c-1.3-3-3.6-8.7-3.4-13.8c0,0-1.2,8-3.5,14L194,117.8"/>
	<polyline class="st3" points="188.9,270.2 189.9,270.8 192.3,270.6 191.9,269.6 190.4,269.4 188.9,270.2 	"/>
	<path class="st2" d="M190.8,263.7l3.7-0.1l3.6-4.1l2.6-3.9l0.5-3.1l-1.1-3.4l-5.3-1l-6.6,0.1l-3.8,0.2c0,0-2.4,1-2.9,2.7
		c-0.5,1.6-0.1,5.4,1.3,7c1.4,1.6,4.4,4.2,4.4,4.2S187.2,263.7,190.8,263.7"/>
	<path class="st3" d="M192.9,252.1l-3.6,0.2c0,0-3.4-0.9-3.4,1.4s1,3.7,2.3,5.1s1.8,2.2,2.9,2.1c1-0.1,2.8-1,3.9-2.8
		C196,256.2,199.3,252,192.9,252.1"/>
	<path class="st2" d="M171.8,206.5l3.5,7.2l0.9,1.7l0.9,0.4l-0.3,1.5l1.7,8l-0.3,3.4L176,232l0.3,1.6l-0.3,1.6l-1.4,2.2l-1.9,1.9
		c0,0-3.5,1.7-3.6,0.8s1.9-4.1,1.9-4.1l0.2-2.2l0.6-2l2-6.1l1-2.5l-1.1-2l0.1-1.7v-1.4l-1.4-4.5l-1.3-3L171.8,206.5"/>
	<path class="st2" d="M154.3,221.4l5.2,3.2c0,0,2.7-0.8,1.9-2.2C160.5,220.9,158,220.2,154.3,221.4"/>
	<path class="st1" d="M192,298.4c0,0,2.8-3.5,3.5-13.6c0,0,0.7-5.2-3.9-5.2c-3.9,0-3.1,5-2.9,5.2C188.8,285.1,189.4,296.7,192,298.4
		"/>
	<path class="st1" d="M93,225.9c0,0,7.9-0.9,14.4-4.3c4.3-2.2,3.3-4.9,3.3-4.9s-1.7-3.8-7.3-1.3c-5.6,2.5-10.6,6.3-11.6,7.7
		s-1.6,2.4-1.6,2.4L93,225.9"/>
	<path class="st2" d="M121.3,110.8c0,0,10.7,6.1,12.8,7.7c2.1,1.6,11.5,9.3,13,10.9c1.5,1.5,2.6,7.2,3,7.8c0.4,0.5-2,2.8-2,2.8
		s4.2,2.7,5,4.2s0.5,3.5,0.5,3.5l-0.5,1.2c0,0-14.8,13.3-16,14.8s-3.1,1.2-4.4-3.1c-1.3-4.3-1.6-7.1-1.8-8.4
		c-0.2-1.3-1.3-0.7-2.5-3.9c-1.2-3.3-1.6-5.9-2-9c-0.3-3.1-2.1-5.8-2-8.2c0.2-2.5,0.3-3-0.7-5.4c-1-2.5-1.6-3-2-6
		c-0.4-3.1-0.9-6.3-0.9-6.3L121.3,110.8"/>
	<path class="st3" d="M124.4,115c0,0,5.1,2.8,4.9,4.7c-0.1,1.8,2.1,1.5,2.7,2.1c0.7,0.7,0.8,1,3,2.3s2.9-0.2,4.6,2.4
		c1.7,2.6,2.7,3.2,3.5,5.1c0.7,1.9,1.8,3.6,1.8,3.6s0.3-0.1,1,2.1c0.7,2.2-1.2,2.5-0.3,3.9s-0.8,1.8,0.6,2.8c2.9,2,2.4,1.9,2.1,2.3
		c-0.3,0.5-0.1,0.5-0.5,1.5l-1.4,0.7l-1.7,0.2c0,0-3.8,6-3.7,6.4s-2.9,2.3-3.4,2.8s-2-0.5-2-0.5l-1.3-3.1l-1.5-3c0,0,0.9-3,0.3-4.1
		c-0.5-1.1-3-2.8-3-3.3s0-3.8-0.3-4.6s-1.4-2.2-1.8-6.1c-0.4-3.8-0.8-6.9-1-8.6c-0.2-1.6-2.3-8.5-3.5-9.9L124.4,115"/>
	<path class="st2" d="M159.3,168.4c0,0,1.7-2.8,3.9-3.2s3.9-0.3,3.5-1.6s-0.1-1.8,0.6-1.7c0.7,0.2,2.1,1,3.3,0.6
		c1.2-0.5,3.1,0.1,3.1,0.1s0.2,0.3-0.8,1.4c-1,1.1-2,2.2-2,2.2l-0.5,0.8c0,0,0.2-1.6-0.9-1.5c-1.1,0.2-1.7-1.5-5.4,2.3
		C164.2,167.9,164.9,165.7,159.3,168.4"/>
	<path class="st2" d="M209.1,161.2l-2.6,3.1c0,0-0.5-0.3,2.8-0.2c3.3,0.2,5.7,0.7,8,1.4s2.9,1.1,4,0.8c0,0,1.8,0.5-4.4-2.1
		C210.8,161.6,210.7,162.9,209.1,161.2"/>
	<path class="st2" d="M178.5,134.8l10.9,7.7c0,0,0.1,1.8,0,2.5s-0.9,2.4-0.9,2.4l-0.3,0.8l-2.3-2.7l0.4-2.5c0,0-3.3-3.6-4.3-2.5
		L178.5,134.8"/>
	<path class="st2" d="M191.8,147.2l-0.9-3.6c0,0,5-7.5,9.4-9c0,0,1.8-1.5,1.2,0.2s-6.1,7.4-8.4,9.6c-1.5,1.4-0.8,2,0.5,3.8
		L191.8,147.2"/>
	<path class="st2" d="M58.4,146.1L53,167.7l-0.9-0.2c0.3-2.2,0.4-3.3-1.8-3.9l-18.1-4.5c-2.5-0.6-2.9,0.9-3.5,2.5l-0.9-0.2l3.3-13
		l0.9,0.2c-0.5,2.6-0.8,3.8,2.5,4.6l17.6,4.4c1.8,0.4,2.3-0.3,2.9-2.8c1.4-5.6-1.2-8.5-4.9-11.3l0.3-1.1L58.4,146.1"/>
	<path class="st2" d="M38.1,126.1l10.1-19.8l6.9,3.5l-0.4,0.9c-5.3-1.7-7.4,0.3-9.7,4.9c-1,1.9-1.1,2.6,0.3,3.3l8,4.1
		c1.7-3.3,1.7-5.5-2.3-8.2l0.5-0.9l11.6,5.9l-0.5,0.9c-4.5-1.8-6.4-0.6-8.1,2.8l8.3,4.2c1.5,0.8,2.2,0.3,3.4-1.9
		c1.7-3.4,2.6-7.3-1.5-12.1l0.5-1l6.4,5l-10.2,20l-0.9-0.4c0.8-2.1,1.2-3.2-0.9-4.3L43,124.5c-2.3-1.2-3.1,0.3-4,1.8L38.1,126.1"/>
	<path class="st2" d="M84.7,99.9l-8.2,10.7l-0.8-0.6c1.1-1.8,1.9-3,0-4.5L61,94.1c-2-1.6-3.2-0.2-4.3,1.2l-0.8-0.6l8.2-10.6l0.8,0.6
		c-1,1.5-2.1,3-0.1,4.6l14.8,11.2c1.9,1.5,3,0.4,4.4-1.2L84.7,99.9"/>
	<path class="st2" d="M105.3,73.8c0,4.3-0.7,8-4.4,11.3C94.1,91,86.3,89.4,81.6,84c-5.1-5.9-4.9-14,1.2-19.4
		c2.6-2.3,6.1-2.8,6.8-3.5c0.8-0.7,0.5-1.5,0.2-2.5l0.8-0.7l5.9,6.8l-0.7,0.6c-3.2-1.6-8.6-2.9-11.9,0c-4.2,3.7-1.5,9.1,2.8,14
		c1.5,1.7,4.1,4.4,6.8,5.3c3,1,5.7-0.5,6.6-1.3c2.3-2,3.7-4.7,3.7-9.5L105.3,73.8"/>
	<path class="st2" d="M102.4,50.4L122,40l3.6,6.8l-0.8,0.4c-3.3-4.4-6.2-4-10.8-1.6c-1.9,1-2.4,1.4-1.6,2.9l4.1,8
		c3.3-1.7,4.5-3.5,2.8-8l0.9-0.5l6.1,11.5l-0.9,0.5c-2.7-4-4.9-4.1-8.3-2.4l4.3,8.2c0.8,1.5,1.7,1.6,3.9,0.4
		c3.3-1.8,6.3-4.5,5.8-10.7l1-0.5l2.4,7.8l-20,10.6l-0.5-0.9c1.8-1.2,2.8-1.9,1.7-4L107,52c-1.2-2.2-2.6-1.6-4.3-0.8L102.4,50.4"/>
	<path class="st2" d="M153.7,37.5c-1.4-2.4-4.8-6-9.2-4.8c-1.9,0.5-3.6,2.2-3,4.6c0.6,2,1.5,2.6,5,3.3l6.2,1.2
		c1.4,0.3,4.9,1.6,6,5.7c0.9,3.3-0.2,8.4-7,10.3c-3.5,1-5.5,0.2-6.7,0.5c-0.8,0.2-0.8,0.9-0.8,1.6l-1.1,0.3l-2.6-9.1l1.1-0.3
		c1.8,3.5,5.1,7.1,9.8,5.8c4.4-1.3,3.6-5,3.5-5.5c-0.7-2.5-2.7-2.9-5.4-3.3l-2.8-0.5c-7.2-1.3-8.1-4.4-8.6-6.1
		c-0.6-2.3-0.9-7.6,6.1-9.6c3-0.8,5-0.1,6.1-0.4c0.8-0.2,0.9-0.8,0.9-1.6l1.1-0.3l2.3,8L153.7,37.5"/>
	<path class="st2" d="M187.4,51.7l-13.7,0.9l-0.1-1c2.8-0.4,3.7-0.5,3.5-3.8l-1.3-20.2c-2.7,0.3-6.6,0.8-7,7l-1.1,0.1l-0.4-7.7
		l23-1.5l0.6,7.7l-1.1,0.1c-1.2-6.1-5.1-6-7.8-6l1.3,20.2c0.2,3.3,1.1,3.3,4,3.3L187.4,51.7"/>
	<path class="st2" d="M203.4,26l21.9,3.5l-1.2,7.6l-0.9-0.2c0-5.5-2.6-6.9-7.7-7.7c-2.1-0.3-2.8-0.3-3.1,1.3l-1.4,8.8
		c3.6,0.6,5.7-0.1,7.1-4.7l1,0.2L217,47.6l-1-0.2c0.3-4.8-1.5-6.3-5.2-6.9l-1.5,9.2c-0.3,1.7,0.4,2.2,2.8,2.6
		c3.7,0.6,7.8,0.2,11.1-5.1l1.1,0.2l-2.8,7.7l-22.2-3.6l0.1-1c2.2,0.1,3.4,0.2,3.8-2.2l2.9-18.4c0.4-2.5-1.2-2.8-2.9-3.2L203.4,26"
		/>
	<path class="st2" d="M254.6,67.4l-7.3-3l-2.8-14.2l-1-0.4l-2.9,7c-1.2,2.8-0.4,3.3,1.8,4.6l-0.4,0.9l-12-5l0.4-0.9
		c2.5,0.7,3.3,0.9,4.5-2l6.5-15.7c1.3-3.1,0.2-3.6-1.8-4.6l0.4-0.9l11.4,4.7c2.5,1,9.9,4.4,7.4,10.4c-1.8,4.4-5.9,4-8.1,3.8l3,13.1
		c0.2,0.8,0.8,1.1,1.2,1.3L254.6,67.4 M244.1,48.7c4.7,1.9,6.8,1.9,8.8-2.7c1.5-3.6,0.7-5.7-2.2-6.9c-2-0.8-2.2-0.4-2.8,0.6
		L244.1,48.7z"/>
	<path class="st2" d="M292.8,90.5c-4.2,0.5-8.1,0.4-11.8-2.9c-6.7-5.9-6.2-13.8-1.5-19.3c5.1-5.9,13.3-6.7,19.3-1.4
		c2.6,2.3,3.6,5.7,4.3,6.3c0.8,0.7,1.6,0.3,2.5-0.2l0.8,0.7l-5.9,6.8l-0.7-0.6c1.2-3.4,1.7-8.9-1.6-11.8c-4.2-3.7-9.2-0.3-13.5,4.6
		c-1.5,1.7-3.8,4.7-4.3,7.5c-0.6,3.1,1.3,5.6,2.2,6.4c2.3,2,5.2,3,9.9,2.4L292.8,90.5"/>
	<path class="st2" d="M302.6,110.8l-8.2-10.7l0.8-0.6c1.4,1.5,2.5,2.6,4.3,1.2l14.7-11.4c2-1.6,1-3,0-4.5l0.8-0.6l8.2,10.7l-0.7,0.6
		c-1.2-1.4-2.3-2.8-4.4-1.2l-14.7,11.4c-1.9,1.5-1.1,2.8,0.1,4.6L302.6,110.8"/>
	<path class="st2" d="M315.5,133.5l-6.2-12.2l0.9-0.4c1.5,2.4,2,3.2,4.8,1.7l18.1-9.2c-1.4-2.3-3.3-5.8-9.2-3.7l-0.5-1l7-3.4
		l10.4,20.6l-6.9,3.6l-0.5-1c5.1-3.5,3.5-7.1,2.5-9.5l-18.1,9.2c-2.9,1.5-2.6,2.3-1.5,5L315.5,133.5"/>
	<path class="st2" d="M350.7,164.1c-0.3-0.7-0.7-1.7-2.1-2.2l-13.3-4.4l-6.9,1.7c-3.1,0.7-3,1.6-2.6,4.3l-0.9,0.2l-3.1-13l0.9-0.2
		c0.9,2.5,1.2,3.4,4.3,2.7l5.5-1.3l10.8-9.8c0.3-0.3,1.7-1.6,1.3-3.5l0.9-0.2l3,12.5l-0.9,0.2c-0.6-2.6-1-3-2-2.7
		c-0.6,0.1-1.4,1-1.9,1.4l-7.6,6.6l7.9,2.5c0.5,0.2,2.8,0.9,3.8,0.6c1.5-0.4,1.2-1.8,0.9-3.5l0.9-0.2l2,8.2L350.7,164.1"/>
	<path class="st2" d="M228.9,191.8c0,0-2.2-0.4-3.9,1s-2.5,4.9-4.7,5.9s-7.7,1.3-8.7,1.8c-0.6,0.3-2.2,2.2-3.2,3.8
		c0.9,0.3,1.8,0.4,2.8,0.4c0.2-0.2,0.4-0.4,0.6-0.4c1.9-0.6,3.1-0.6,6.1-1.3s5.8-1.8,6.6-3.2s4.3-3.6,4.6-5
		C229.5,193.3,229.4,192.3,228.9,191.8"/>
	<path class="st2" d="M209.4,206.3c-1-0.3,0.1-0.4-1-0.7c-0.6,2.9-4.1,12.8-4.1,13.3c0,0.7-0.2,9.3,0.4,10.7
		c0.7,1.4,1.4,3.9,2.2,5.5c0.8,1.5,2.1,3.4,2.1,5.3c0,1.9,0.2,2.8,0.2,2.8s2.9-0.6,2.8-3.8c-0.1-3.2,0.3-2.2-0.9-5.7
		s-2.7-5.9-3.1-9.3c-0.5-3.4,0.9-8.4,1.8-11.8C210,211.4,209.3,207.7,209.4,206.3"/>
	<path class="st2" d="M52.8,211.3l5.1,21.2l-7.5,1.8l-0.2-0.9c3.7-1.8,5.8-3.3,4.2-9.8c-0.5-2-0.8-2.7-2.4-2.3l-8.7,2.1
		c1,4.7,3.8,4.6,7,4.4l0.2,0.9l-12.6,3.1l-0.2-0.9c3-1.2,5.6-2.4,4.4-7.1l-8.7,2.1c-2.5,0.6-2.2,2.1-1.7,4.8l-0.9,0.2l-3.3-13.5
		l0.9-0.2c0.7,2.1,1.1,3.2,3.5,2.6l18.1-4.4c2.5-0.6,2.2-2.1,1.9-3.9L52.8,211.3"/>
	<path class="st2" d="M61.1,270.3c-7.2,3.7-14.8,1.1-18.4-5.9c-3.6-7-1.2-14.7,6-18.3c7.5-3.8,15-0.7,18.4,5.9
		C70.5,258.6,68.6,266.5,61.1,270.3 M51.8,252.1c-3,1.5-10.9,5.8-7.9,11.7c3,5.9,11.1,1.9,14.1,0.4c5-2.6,10.4-6.9,7.9-11.7
		C63.5,247.7,56.8,249.6,51.8,252.1z"/>
	<path class="st2" d="M86.2,300.6c-6,5.4-14,4.9-19.3-1s-5-13.9,1.1-19.3c6.2-5.6,14.3-4.5,19.3,1C92.3,286.8,92.5,295,86.2,300.6
		 M72.6,285.4c-2.5,2.2-9.1,8.5-4.7,13.3c4.4,4.9,11.3-1,13.8-3.2c4.2-3.8,8.3-9.3,4.7-13.3C82.7,278.2,76.8,281.6,72.6,285.4z"/>
	<path class="st2" d="M102.1,328.4l-11.3-7.8l0.5-0.8c2.4,1.4,3.2,1.9,5.1-0.8l11.5-16.7c-2.3-1.4-5.7-3.5-9.8,1.1l-0.9-0.6l4.5-6.3
		l19,13.1l-4.3,6.4l-0.9-0.6c2.9-5.5-0.3-7.9-2.4-9.5l-11.5,16.7c-1.9,2.7-1.1,3.3,1.1,5.1L102.1,328.4"/>
	<path class="st2" d="M118.8,336.9c2.1,0.6,3.3,0.9,4.1-1.3l6.8-17.3c0.9-2.4-0.6-3-2.2-3.8l0.3-0.9l11.1,4.3c2,0.8,9.3,3.8,7.1,9.4
		c-1.6,4-6,3.3-7.7,3.2v0.1c2.8,1.7,5.9,4.9,4.3,9c-1.2,3-5.1,5.5-12.7,2.7l-11.5-4.5L118.8,336.9 M128.7,338
		c-0.6,1.6-0.2,2.4,1.3,3c3.9,1.5,5.7-1.5,6.5-3.7c2-5.1-0.9-6.9-3.2-7.9l-1.1-0.4L128.7,338z M132.6,327.9c4.8,1.9,6.2,0.7,7.6-3
		c1-2.5,1-4.9-1.9-6.1c-1.8-0.7-2.2,0.2-2.6,1L132.6,327.9z"/>
	<path class="st2" d="M178.9,353.6l-12.3-1.7l0.1-1c2.4,0.1,3.1,0.2,3.3-1.1c0.1-1-0.7-4-1-5.3l-8.6-1.2c-1.4,2.6-2.3,4.1-2.4,4.7
		c-0.2,1.4,1.6,1.8,2.9,2.1l-0.1,1l-7.7-1.1l0.1-1c2.1,0,2.8-1.2,4.4-3.9l11.4-19.7l1.1,0.2l5.7,21.2c1.1,4.3,1.6,5.7,3.4,5.9
		L178.9,353.6 M168.6,343l-2.5-9.8l-4.9,8.8L168.6,343z"/>
	<path class="st2" d="M215.4,351.7l-22.1,2.1l-0.1-1c2.1-0.5,3.3-0.7,3-3l-1.8-18.5c-0.2-2.5-1.8-2.5-3.6-2.4l-0.1-1l13.4-1.3l0.1,1
		c-2.7,0.4-3.9,0.5-3.5,3.9l1.7,18.1c0.2,1.8,1,2.1,3.6,1.8c5.8-0.6,7.6-3.9,9-8.4l1.1-0.1L215.4,351.7"/>
	<path class="st2" d="M252,341.4l-21.1,7.2l-0.3-0.9c2-1,3-1.4,2.3-3.7l-6-17.6c-0.8-2.4-2.3-2-4-1.5l-0.3-0.9l12.7-4.3l0.3,0.9
		c-2.5,1-3.6,1.4-2.5,4.6l5.9,17.2c0.6,1.7,1.5,1.8,3.9,0.9c5.5-1.9,6.5-5.6,6.8-10.3l1-0.4L252,341.4"/>
	<path class="st2" d="M296,308.3c-0.3,4.2-1.2,8-5.1,11c-7.1,5.4-14.8,3.4-19.2-2.3c-4.7-6.2-4-14.3,2.4-19.2c2.7-2.1,6.2-2.4,7-3
		s0.6-1.5,0.3-2.5l0.8-0.6l5.5,7.1l-0.8,0.6c-3.1-1.8-8.4-3.4-11.9-0.8c-4.5,3.4-2.1,9,1.9,14.2c1.4,1.8,3.8,4.6,6.5,5.7
		c3,1.2,5.7-0.2,6.7-0.9c2.4-1.8,4-4.5,4.3-9.3L296,308.3"/>
	<path class="st2" d="M322.9,285.4l-14.1,17.2l-0.7-0.6c1.2-1.8,1.8-2.8,0-4.3l-14.4-11.8c-2-1.6-3-0.4-4.2,0.8l-0.7-0.6l8.5-10.4
		l0.7,0.6c-1.6,2.2-2.3,3.1,0.3,5.2l14.1,11.5c1.4,1.2,2.2,0.7,3.8-1.3c3.7-4.5,2.6-8.2,0.3-12.3l0.7-0.9L322.9,285.4"/>
	<path class="st2" d="M320.2,238.3c-0.6,2-0.7,3,1.6,4.1l11,5.4c2,1,4.9,3,5.7,5.2c1,2.6,0.2,6-0.8,8c-0.7,1.5-2.5,4.7-5.6,6
		c-2,0.8-3.7,1.2-7.4-0.7l-11.6-5.6c-2.9-1.4-3.4-0.5-4.6,1.3l-0.9-0.4l5.7-11.7l0.9,0.4c-1,2.3-1.5,3.4,1.6,4.9l11.6,5.6
		c2,1,6.7,3.3,9.2-1.7c3-6.1-2.3-8.7-4.5-9.8l-10.6-5.1c-2.1-1-3.5-1.2-5.1,1.7l-0.9-0.4l3.7-7.6L320.2,238.3"/>
	<path class="st2" d="M346,236.7c0.2-2.2,0.4-3.4-1.9-3.9l-18.2-4c-2.5-0.5-2.9,1-3.4,2.7l-0.9-0.2l2.6-11.6
		c0.5-2.1,2.3-9.7,8.2-8.4c4.2,0.9,4.2,5.4,4.3,7.1h0.1c1.2-3,4-6.6,8.3-5.6c3.2,0.7,6.3,4.1,4.7,12.1l-2.7,12.1L346,236.7
		 M345.5,226.8c1.7,0.4,2.4-0.2,2.8-1.7c0.9-4.1-2.3-5.4-4.6-5.9c-5.4-1.2-6.7,2-7.3,4.4l-0.3,1.1L345.5,226.8z M335,224.5
		c1.1-5-0.3-6.2-4.1-7.1c-2.6-0.6-5-0.2-5.7,2.8c-0.4,1.9,0.5,2.2,1.4,2.4L335,224.5z"/>
	<path class="st2" d="M31.8,189.2c0-2.7,2.2-4.9,4.9-4.9s4.9,2.2,4.9,4.9s-2.2,4.9-4.9,4.9C34,194.1,31.8,191.9,31.8,189.2"/>
	<path class="st2" d="M337,189.2c0-2.7,2.2-4.9,4.9-4.9c2.7,0,4.9,2.2,4.9,4.9s-2.2,4.9-4.9,4.9C339.2,194.1,337,191.9,337,189.2"/>
</g>
</svg>
