<?xml version="1.0" encoding="utf-8"?>
<!-- Generator: Adobe Illustrator 21.0.0, SVG Export Plug-In . SVG Version: 6.00 Build 0)  -->
<svg version="1.1" id="Layer_1" xmlns="http://www.w3.org/2000/svg" xmlns:xlink="http://www.w3.org/1999/xlink" x="0px" y="0px"
	 viewBox="0 0 382.8 381.5" style="enable-background:new 0 0 382.8 381.5;" xml:space="preserve">
<style type="text/css">
	.st0{fill:#FFFFFF;}
	.st1{fill:none;stroke:#FFFFFF;stroke-width:1.47;stroke-miterlimit:3.864;}
	.st2{fill:#00B6F1;}
	.st3{fill:none;stroke:#00B6F1;stroke-width:4.600000e-02;stroke-miterlimit:3.864;}
	.st4{fill:#EF3E2E;}
	.st5{fill:#BCBDC0;}
	.st6{fill:#F0B83D;}
	.st7{fill-rule:evenodd;clip-rule:evenodd;fill:#F0B83D;}
	.st8{fill-rule:evenodd;clip-rule:evenodd;}
	.st9{clip-path:url(#XMLID_3_);fill:#00B6F1;}
	.st10{clip-path:url(#XMLID_306_);fill:#BCBDC0;}
	.st11{fill-rule:evenodd;clip-rule:evenodd;fill:#FFFFFF;}
</style>
<g id="XMLID_1_">
	<polyline id="XMLID_305_" class="st0" points="304,255.1 304,255.3 304,255.1 	"/>
	<path id="XMLID_304_" class="st1" d="M304,255.1l0,0.3L304,255.1z"/>
	<path id="XMLID_303_" class="st0" d="M304,255.4C304,255.5,304,255.7,304,255.4"/>
	<path id="XMLID_302_" class="st1" d="M304,255.4"/>
	<polyline id="XMLID_301_" class="st0" points="304,255.3 304,255.4 304,255.3 	"/>
	<path id="XMLID_300_" class="st1" d="M304,255.3L304,255.3L304,255.3z"/>
	<line id="XMLID_299_" class="st0" x1="183.7" y1="53.2" x2="183.7" y2="53.2"/>
	<polyline id="XMLID_298_" points="304,255.1 304,255.3 304,255.1 	"/>
	<path id="XMLID_297_" d="M304,255.4C304,255.5,304,255.7,304,255.4"/>
	<polyline id="XMLID_296_" points="304,255.3 304,255.4 304,255.3 	"/>
	<path id="XMLID_254_" d="M371.6,272L371.6,272L371.6,272L371.6,272 M10.4,272.8L10.4,272.8L10.4,272.8L10.4,272.8L10.4,272.8
		 M373.7,275.6L373.7,275.6L373.7,275.6L373.7,275.6 M2.8,294.4L2.8,294.4C2.9,294.4,2.9,294.4,2.8,294.4L2.8,294.4 M322.2,297.1
		L322.2,297.1L322.2,297.1C322.2,297.1,322.2,297.1,322.2,297.1L322.2,297.1 M338.5,297.1L338.5,297.1L338.5,297.1
		C338.6,297.2,338.6,297.2,338.5,297.1L338.5,297.1 M322.2,297.2L322.2,297.2L322.2,297.2L322.2,297.2 M49.2,298.2L49.2,298.2
		L49.2,298.2L49.2,298.2 M379.9,302.3L379.9,302.3L379.9,302.3L379.9,302.3L379.9,302.3 M101.3,311.2L101.3,311.2L101.3,311.2
		L101.3,311.2 M95.9,312.4L95.9,312.4L95.9,312.4L95.9,312.4 M41.3,324.9L41.3,324.9L41.3,324.9L41.3,324.9 M152.3,377.6
		C152.3,377.6,152.3,377.6,152.3,377.6v0.1V377.6 M170.1,73.9c2,0.3,3.6-0.8,4.7-2.5c0.6-0.5,1.6-0.7,1.7-1.4
		c-1-0.7-2.4-0.1-3.5,0.2c-1.7-0.8,0-2.6-0.7-3.8c-1.1-0.1-2-0.7-2.8-1.4c-0.1-0.5,0.2-0.9,0.5-1.3c-0.3-0.2-0.4-0.5-0.6-0.5
		l-0.4,8.4C169.2,72.5,168.8,73.4,170.1,73.9 M169,138.2c0.9,0.6,1.7,0.1,2.5-0.2c0.7-0.3,1.9-0.3,2.6-0.6c0.7-0.3,1.3-4.7,1.5-6.5
		c0.1-1.7,1.6-1.6,1.6-1.6l1.3-8.5l1.6-1.2c0,0,1-16.5,1-17.7c0-1.2-0.4-1.5-1-1.5c-0.6,0-0.9-1.3-0.9-1.3v-1.7
		c-1.7,0.2-3.6-2-4.6-3.5c-1-1.4-3.6-1.6-3.6-1.6v-8.3c1-0.7,3.3-0.6,4.4-0.4c1.2,0.2,2-0.3,2-0.3v-1c-1.6,0.6-8.4,0.4-8.4,0.4
		C167.8,95.5,169,138.2,169,138.2 M208.5,157.7c-0.1,0.7,0.9,3,3.1,4.4c2.2,1.4,9.8,2.9,14.7,2.9s9-1.6,9-1.6
		c-1.2-1.6-1.4-4.4-1.4-4.4c1.4-7.9,4.9-8.4,9.1-9c4.2-0.6,6.5,3.1,6.5,3.1c-0.6-4.2-1.4-6.9-4.2-7.1c-2.9-0.1-7.1,3.3-8.7,5.3
		c-1.6,2-3.3,0.7-3.9,2.4c-0.7,1.8,0.4,6.5,0.4,6.5l-0.7,1l-10.3,1.4c-0.3-0.8-2.4-1.6-3.5-1.4c-1.1,0.3-3.1,0-3.4-0.7
		c-0.3-0.7-0.7-1.2-2.3-1.2c-1.6,0-0.1-2.2-0.1-2.2l6.4-6.2l-1.9-1.1c0,0-2.4,1.1-4.5,1.5c-2,0.4-3.4-0.3-3.4-0.3
		C210.1,154.5,208.6,157,208.5,157.7 M120.3,250.6c0,0,0.3-3.2,0.4-4.2c0.1-1,0.4-1.4,0.6-2.1c0.2-0.7,0.1-1.7-0.4-2.3
		c-0.5-0.6-1.6-2.1-2-3.1c-0.5-1,1.4-1.1,1.4-1.1s0.3-0.2,1-0.8c0.7-0.6-0.5-1.8-1.5-3.1c-1-1.3-0.5-1.7-0.2-1.9
		c0.3-0.2,4.3-2,4.6-2.5c0.4-0.5,5.3-18.5,5.3-18.5c-1.8-2.9-2-8.7-2-8.7c-0.7-1-3.4-2.7-4.2-2.7c-1.2,0-2.4,2.4-3.7,4.5
		c-1.3,2.1-11.2,16.5-12.7,18.2c-1.5,1.7-1.7,2.8-1.7,2.8s3.4,2.5,6.5,6.7C118.9,241.7,120.2,250.3,120.3,250.6
		C120.3,250.6,120.3,250.6,120.3,250.6 M264,231c0.5,0.1,2.1,0.5,2.1,1.7c0,1.3-2.3,1.5-2.3,3.2c0,1.6,2.7,2.3,2.7,2.3l-0.2,1.1
		c-2.8,1.5-2.6,4.7-2.1,6.7c0.5,2,0.7,5.9,0.7,5.9c0.6-14.9,14.9-27.2,14.9-27.2c-3.6-5.8-10.3-14.3-11.6-16.2
		c-1.4-1.9-5.7-9.3-5.7-9.3s-0.1-0.3-2.4,0.8c-2.4,1.1-2.7,3.9-2.8,6.4c-0.1,2.5-1.7,3.9-1.7,3.9s3.3,12.5,4.4,16.5
		C261.1,230.8,263.6,230.9,264,231 M279.8,248.2c-0.3,7.5,6.7,13.9,14.7,13.5c8-0.4,9.5-6.7,9.5-6.7c0-1.1-2-4.9-3.3-7.1
		c-1.2-2.2-11.2-12-11.2-12C285.3,238.5,280.1,240.7,279.8,248.2 M91.2,262.2c14-1.5,14.1-10.9,14.3-12.7c0.1-1.8-0.5-5.5-0.5-5.5
		c-1.9-3.1-9-7.6-9-7.6s-4.8,4.6-6.5,6.1c-1.8,1.5-8.7,10.1-8.3,13.3C81.9,262.1,90.8,262.2,91.2,262.2
		C91.2,262.2,91.2,262.2,91.2,262.2 M285.7,274.2c-0.9,1.1-1.6,2.5-1,3.9c3,3.6,7.3,2,11.7,2.1c6.3-1.1,11.8-5.3,15.8-10.9
		c-0.7-0.2-1.8-0.4-2.5,0.2c-1.5-0.3-3.1-0.8-3.9-2.2c-1.3,1-1.5,2.5-2,3.9c0.3,1.4,1.5,1.8,2.5,2.5c0,0.4-0.4,0.6-0.5,0.7
		c-1-0.2-2.8-0.2-3.1-1.8c-2.4,0.5-4,3.4-6.7,2.6v-0.6c2.4-1.5,5.3-3.7,6.7-6.4l-0.2-0.3C296.8,270.4,290.8,270.4,285.7,274.2
		 M85.4,280c5,0.8,10.7,2.9,15-0.9c0.8-0.9,0.1-2.4-0.2-3.3c-4.6-5-12-3.9-17.6-6.8c0,0.8,0.8,1.4,1.2,2.2c1.3,2,3.4,3.2,5.3,4.2
		c0,0.4,0.2,0.8-0.2,1c-2.4,0.3-4.1-2.3-6.5-2.7v0.4c-0.9,0.8-1.8,1.8-3.3,1.3c-1.2-2.1,2.7-1.1,2.2-3.7c-0.7-1.1-0.8-2.8-2.2-3.3
		c-1.5,1.7-4.3,2.3-6.5,1.7C75.8,274.6,80.5,278,85.4,280 M34.4,283.6L34.4,283.6l0.1-0.1l4.7-13.5l0-0.1l-0.1,0l0,0.1l0,0l0-0.1
		c-1.9-1.2-4.1-2.5-6.4-3.5l0,0.1l0-0.1c-3.5-0.8-7.5-2.6-11.2-0.8l0,0.1l0,0l0-0.1l0,0v0c-0.9,1.1-0.9,2.5-0.8,3.8h0.1c0,0,0,0,0,0
		l-0.1,0l0.1,0h-0.1v0l0,0C23.1,275.8,28.6,280.8,34.4,283.6 M349,284.2l0,0.1l0.1-0.1L349,284.2L349,284.2l0.1,0l3.5-2.2
		c4.5-3.3,10.5-8.8,9.8-15.1v0l-0.1,0h0l0.1,0c-0.5-1.1-1.3-1.3-2.1-1.4c-0.8-0.1-1.7,0-2.5-0.4l0,0h0c-4.8,1.2-9.6,2.1-13.3,5.3
		l0.1,0.1l-0.1-0.1l0,0v0.1C345.5,275.1,347.1,279.9,349,284.2 M20.5,258.1c-3.1,0.6-6.1,3.2-6.7,6.3c-1.4,9.5,6.4,18,14.6,22.6
		c6.5,4,13.7,6.9,21.3,8.4c0.4-0.8,0.8-1.9,0.4-2.5c-6.5-2.2-12.6-4.7-18.6-8.3c-6.2-4.5-14.3-10.5-13.2-19.1
		c0.5-1.3,1.9-2.5,3.3-2.9c5.8-0.6,12.1,1.4,17.2,4.3c1.2,0.7,3.5,1.5,2.9,3.5c-0.6,2.5-1.7,4.9-2.7,7.2c-0.5,2.4-1.6,5.1-1.9,7.4
		c0.8,0.6,2.1,1.4,3.3,1.6c1.5-2.4,1.6-5.4,2.9-8c1-3.9,3.1-7.4,3.7-11.5c-2.4-2.6-5.7-3.4-8.6-4.9c-5.4-1.9-11.4-4.1-17.6-4.1
		C20.7,258.1,20.6,258.1,20.5,258.1 M364.5,265.2c1,2.1,0.8,4.6,0,6.6c-6.9,12.4-19.5,17.5-31.6,21.5c-0.4,0.9,0.7,1.4,0.4,2.3
		l4.1-0.5c8.6-2.8,17.2-6.4,24.2-12.6c5.4-5.3,10.3-12.7,6.9-20.4c-1.7-2.4-4.5-3.5-7-3.6c-8.1,0.8-15.8,3.6-22.8,7.2
		c-4.7,2.6,0.4,7.2,0.6,10.8c1.7,3.4,2.1,7.5,4.1,10.5c1-0.6,2.3-1,3.3-1.7c-1.6-5.1-3-10.1-4.9-15.1l0.6-1.3
		c4.1-3.1,9-4.3,13.9-5.7c1.2,0,2.4-0.2,3.6-0.2C361.5,263,363.2,263.4,364.5,265.2 M162.9,180.4l-0.2,107c0,0,13.7,7.4,15.5,8.8
		c1.8,1.5,2.1,0.7,2.1,0.7V175.9C175.9,178.2,162.9,180.4,162.9,180.4 M204.9,297.6c1.8-1.4,17.2-9.9,17.2-9.9V180.9
		c-0.3-1-3.3-1.4-6.9-1.9c-3.6-0.6-10.3-3.2-10.3-3.2L204.9,297.6 M67.6,301.5L67.6,301.5C67.6,301.5,67.6,301.5,67.6,301.5
		C67.6,301.5,67.6,301.5,67.6,301.5l0.1-0.2c-1.8-1.8-3.8-3.9-6.2-4.7l-0.2-0.1l0.1,0.2C62.2,299,65.2,300.6,67.6,301.5 M67.6,301.5
		L67.6,301.5L67.6,301.5L67.6,301.5 M315.7,301.8l0.3-0.1l0-0.1l0,0l0,0.1c1.6-0.7,3-1.6,4.5-2.6l0-0.1c0,0,0,0,0,0l0,0.1
		c0.7-0.4,1.6-1.1,1.8-2l0-0.2l-0.2,0c-2.5,0.8-5.4,3-6.3,4.5L315.7,301.8 M91.8,304.3L91.8,304.3L91.8,304.3L91.8,304.3L91.8,304.3
		c0.3-0.2,0.8-0.1,1.2-0.1c0.2,0,0.4,0,0.6-0.1c0.2-0.1,0.3-0.3,0.3-0.6v0l-0.1,0l0,0.1c0,0,0,0,0,0l0-0.1c-3-1.8-6.7-1.8-10.3-2
		l-0.3,0l0.2,0.2C85.7,303.4,89.2,303.7,91.8,304.3 M300.6,301.7l0-0.2L300.6,301.7l0-0.2c0,0,0,0,0,0c0,0,0,0,0,0
		c-3.3,0.2-5.8,0.2-8.8,1l0,0.1l0,0l0-0.1l0,0l0,0c-0.3,0.3-0.8,0.4-1.3,0.6c-0.2,0.1-0.4,0.2-0.6,0.3c-0.2,0.2-0.2,0.4-0.1,0.7
		l0,0.1h0.1C293.6,304.6,297.2,303.7,300.6,301.7 M100.4,313.8L100.4,313.8c1.1-0.4,0.7-1.8,1.1-2.6l0.1-0.2l-0.2,0.1
		c-1.8,0.5-3.6,0.6-5.5,1.2l-0.3,0.1l0.3,0.1L100.4,313.8L100.4,313.8L100.4,313.8L100.4,313.8 M282.7,313.8L282.7,313.8
		L282.7,313.8c2,0,4-0.6,5-1.1l0.2-0.1l-0.3-0.1l0,0.1l0-0.1l-5.3-1.2l-0.1,0v0.1C282.3,312,282.2,313.2,282.7,313.8 M123.9,247.8
		c-1.1,2.4,0.3,6.3-0.5,9c-0.3,15.5,8.4,27.5,21.9,35.1c2.1,2,4.8,3,7,4.7c3.7,1.8,6.8,4.3,10.6,5.9c10.2,6.8,21.7,13.2,29.6,23.3
		l0.6-0.2c14-16.7,33.5-24.1,50.1-36.3c13.3-7.8,20-21.7,18.8-37.4c0-1.6,0-3.8-0.8-5.1c-1.5,0.8-3.7,0.8-5.1-0.5l0.7,2.2
		c-1.3,1.8-3.4,0-5.1,0c1.5,12.3-2.8,23.7-12.2,31.9c-14,10.7-30.9,15.9-43.9,28.6c-1.1,0.8-1.1,2.9-2.9,2.8
		c-11.4-11.9-25.7-18.5-39.2-26c-13.7-7.3-21.6-21-19.9-36.9c-1.4,0.4-2.6,0.9-4.1,0.8c-1.2-0.7-0.4-1.9-0.6-2.5l-0.8,0.4
		c-1.1,0.5-2.3,0-3.3,0C124.4,247.6,124.1,247.7,123.9,247.8 M38.7,327.9c0.6,0.3,1.1,0.4,1.4,0.2c0.3-0.2,0.5-0.5,0.6-0.9
		c0.2-0.8,0.2-1.8,0.7-2.2l0,0v0c1.8-5.4,3.6-10.9,5.3-16.4v0l-0.1,0l0.1,0l-0.1,0v0v0l0.1,0c0.7-3.5,2.4-6.8,2.6-10.3v-0.1l-0.1,0
		c-11.8-3.9-24.4-7.6-32.8-18c-2.1-2.6-3.9-5.7-5-8.9l-0.1-0.2l-0.1,0.2l-0.8,1.5v0c-2.2,7.4-5.6,14.2-7.6,21.6h0
		c-2.1,5.9,1.5,11.2,5.4,15.6l0.1-0.1c0,0,0,0,0,0l-0.1,0.1v0C16.9,318.9,27.6,324.2,38.7,327.9L38.7,327.9 M342.7,328.2
		L342.7,328.2L342.7,328.2c1.7,0.1,3-0.5,4.4-0.9v0h0l0-0.1l0,0.1c12.1-5.6,26.6-11.7,32.9-25v0c1.6-10.1-4.2-18-6.3-26.8v0
		c-0.7-1.2-1-2.9-2-3.6l-0.1-0.1l-0.1,0.1c-5.4,14.1-20.2,20.8-33,25.1l0,0c-1.4,0.9-3.4,0.7-4.7,1.4l-0.1,0l0,0.1
		C336.4,308.6,339.2,318.6,342.7,328.2L342.7,328.2C342.8,328.2,342.8,328.2,342.7,328.2L342.7,328.2 M199.7,334.6
		c8.2-0.4,16.2-1.6,24.2-2c27.5-3.5,54.5-9.9,79.9-18.5c7.4-2.9,14.9-5.6,21.3-10.6c2.9-1.9,5.4-5,5.4-8.5c-0.2-1.4-1.1-3-2.5-3.6
		c-11.1-3.8-17.2,8.2-25.7,12.5c-4.8,1.6-11.1,4.7-15.7,1.2c-0.8-0.7-0.2-1.8,0.2-2.5c3.4-3,8.2-3.1,12.3-3.7
		c3.1-1.2,8.6,2.1,10.4-2.7h-10.8c-6,1-12.3,1.1-16.8,5.4c-1,1.2-1,2.9-0.9,4.5c5,6.3,13.1,2.9,19.9,2.2
		c8.4-1.1,12.8-10.9,20.4-14.3c1.4-0.2,3.4-0.5,4.1,1c1,5.8-5.7,6.9-9.2,9.5c-11.7,5.4-24.1,9.8-36.5,12.9
		c-5.6,1.3-10.4,2.8-15.9,4.3c-25.7,6.3-50.3,9.5-77.9,9.4l-0.4,0.4c-9.4-0.9-20.1-1.3-29.4-2.9c-22.3-2.3-42.1-8.7-63-14.2
		c-3.5-0.9-6.8-2.5-9.9-3.4c-8.5-2.9-17-6.1-24.4-11.9l-1-1.7c-0.4-1.1-0.3-2.5,0.6-3.4c4.5-1.5,8.1,2.5,11.3,5.7
		c4.2,4.5,9,7.7,14.6,8.7c5.7,0.8,10.4,2.1,15.8-0.2c1.7-0.7,2.8-2.7,2.4-4.9c-0.6-3.4-4.2-3.8-6.5-5.4c-6.9-1.5-14.7-2.8-22-2
		c0.8,1,1.8,1.6,2.7,2.4c6,0.3,12.7,0,17.9,2.5c1,0.8,3.4,1.8,2.6,3.7c-2.5,2.7-6.8,2.1-10.2,1.3c-11.1-2-17.1-15.4-28.7-15.7
		c-2.3,0.5-4.3,1.3-5.4,3.5c-1.2,7.8,7.8,11.5,13.1,14.6c22.9,10.2,47.3,15.6,71.9,21.1c1.6-0.1,3,0.9,4.5,0.6
		C161.3,333.3,180.4,334.8,199.7,334.6 M240.1,376.8l0-0.1L240.1,376.8c5.8-0.8,12.2-2.1,18.1-2.7c29.1-6.4,57.1-13.2,82.8-27.8
		c3.4-2.9,2.5-8,1.5-11.8c-3.8-10.7-7.5-21.5-10.3-32.6v0l0,0l-0.1,0.1h0l0,0l0.1-0.1l-0.7-0.7l-0.1-0.1l-0.1,0.1l-3.7,4.3
		c-14.9,9.9-32.2,14-49.3,18.7c-14.4,4.1-29.1,7.6-44.3,9.8c-19.5,2-40.3,5.2-60.8,2.5l0,0.1l0-0.1c-14.1-1.4-28.4-2.4-41.3-5.9h0
		v0.1l0,0c0,0,0,0,0,0l0-0.1c-16.3-3.1-31.8-7.9-47.6-12.5l0,0c-11.5-4.1-23.5-7.5-32.5-17.3l-0.1-0.1l-0.1,0.1
		c-1.2,2.2-1.7,4.6-2.4,7.1c-2.9,10.3-6.9,20.1-9.7,30.4c-0.6,3.3,0.1,6.5,3.1,8.7c24,13.5,51.3,20.5,78.4,26.3
		c10.3,1.8,20.4,4,31.2,4.5c7.3,0.8,14.1,1.5,21.7,1.8C195.7,380,219,379.4,240.1,376.8 M117.8,374.7c-3.1-0.5-6.9-1.4-10.3-2.2
		c-16.6-5-33.8-8.5-49.4-15.8c-6-3.2-12.6-5.2-18.1-9.6c-4.4-4.3-2.6-11-0.8-15.9c-1.8-1.4-4.2-1.3-6-3c-2.2-0.6-4.1-1.4-6.1-2.5
		c-10.3-5.3-22.5-12.5-26.9-24c-1-9.4,4.4-17.2,6.7-25.7c1.7-5.3,3.6-10.4,5.8-15.5c2.6-4.4,8-5.5,12.3-4.7c7.3,2,14.8,3.6,21.3,7.6
		H47c1.4,1.3,3.1,3.1,2.4,5.3c-2.8,6.1-4.8,12.6-6.6,19.1c2.3,1.5,5.2,1.8,7.8,2.7c2,0.6,2.8-1.4,4.3-1.8c6.3-1.7,12.7,0.9,17.7,4.5
		c10,0.4,21.6-0.8,29.9,5.4c5.3,4,1.7,10.8,1.1,15.8c3.4,1.4,7.1,1.9,10.5,3.3c13.8,3.6,27.2,6.4,41.6,8.2
		c11.7,1.2,23.3,3.5,35.1,2.6V328c-9.6-11.8-22-19.4-34.7-25.7c-13.9-8.1-32.6-19.3-34.9-37.1c-0.6-1.2-0.3-3-0.9-4
		c-2.4,7.3-4.3,16.2-13,19c-10,4.6-23.1,3.9-31.4-3.8c-7.1-7-10.3-15.7-11.5-25.2c-0.9-0.9-2.4-1.8-2.5-3.3c0.8-0.8,1.7-1.7,2-2.7
		c0.3-1.9-0.5-3.2-1.6-4.5c-1-0.7-2.8-0.7-2.9-2.4c2.4-1.2,4.6-3.5,5.1-6.3c0.1-2.1-0.7-4.2-2.5-5.3c-0.6-0.5-1.4-1.1-0.8-2
		c1.8-0.2,3.7-0.8,4.5-2.5c-4.1-2.3-8.9-2-13.9-1.7c-4.2,0.7-7.7,4.4-8.9,8.2c-2.4,8.1,5.4,15.5,2.3,23.1c0.2,0.9-0.2,2.1-1.2,2.7
		c-0.7-0.5-0.1-1.8-0.5-2.5c-1.8-4.6-7-6.8-9.9-10.4c-0.7,0.4-0.2,2-1.2,1.2c-1.7-2.4,0.1-5.4-0.7-8.2c-0.5-1.2-0.5-2.6-1.6-3.6
		c-0.8-0.4-2.3,1.1-2.4-0.6c2-2.5,2.5-5.5,2.8-8.8c-0.7-1.1-2.4-0.1-2.5-1.5c5.1-3.3,4-10.1,10.3-11.9c-2.4-2.2-2.4-5.1-4.5-7.2
		c-0.2-1.7,2.1-0.8,2.9-1.6c1-0.8,2.4-0.7,3.4-1.6c-2.6-5-3.1-10.8-3.4-16.8v-0.6c0.4,0,0.8,0.1,1,0.4c1-0.9,0.2-3.1,0.7-4.5
		c0.5-1.9,0.7-3.8,1.3-5.6c0.8,0.2,0.8,0.9,1.2,1.4c2.1-3.8,3-8.6,7-11.2c0.6-0.2,0.5,0.6,0.6,0.9c0.1,0.3-0.2,0.7,0.2,0.9
		c2.8-2,4.1-5.3,4.9-8.4c1.1,0.8,1.6,2.7,1.4,4.1c-0.3,3,0.3,6.2-1,9.2c-0.9,8.5-1.1,16.6,2.8,24.2c2.6,6.2,8.5,11.9,14.6,14.8
		c3.1-3.4-5.6-7.6,0.9-9c1.1-0.5,2.2-1.9,2.9-3.1c0.1-2.7-1.4-5-3.1-6.8c0.8-0.8,2.2-0.8,3.1-1.3c2.4-2.3,3.5-5.5,2.9-8.6
		c-0.3-1.6-1.9-2.5-2.3-4.1c1.2-0.3,2.3-0.7,3.4-1.5c3.2-2.4,2.7-6.3,3.3-9.8c-0.7-7.2-6.7-13.6-13.2-16.6c-3.4-2.4-4.8-6-4.7-9.6
		c-1.9-0.5-4.5,0.4-5.3-1.8c2.2,0.1,2.7-2,3.5-3.5c-0.5-1.6,0.8-2.3,0.4-3.9c-1.8-0.1-4.1,0.6-5.1-1.4c1.6-0.3,2.7-1.5,3.5-2.9
		c-1-0.7-3.7,1-3.5-1.6c1.8-0.7,2-2.8,2.9-4.2c-0.6-1-2.4,0.4-2.5-1.2c-0.1-1.2,1.3-1.7,1.4-2.9c-0.5-0.6-1.9-0.3-1.4-1.6
		c3.6-0.9,2.2-5.3,5.7-6.6c-0.3-0.7-1.3-1.3-0.7-2.2c2.8-0.4,1.1-4.1,4.1-3.9c-0.3-0.8-0.6-1.7-0.7-2.7c0.6-0.9,1.7-0.7,2.5-0.9
		c0.3-0.7-0.6-1.7,0-2.5c1.7,0.3,2.4-1,2.4-2.6c1-0.2,2.5-0.2,3.5,0.3c0.8-1.6-1.1-3.4,0.4-4.5c1.1,0,2.1,0.6,3.2,0.7
		c0.7-0.9-0.9-2.1,0.6-2.7c1.8,0.3,3.4,0.8,4.9,1.8c1.4-2.1,2.7-5.3,5.8-5.1c-0.1,2.2-2.6,6,1,7.4h0.6c1.6-3.1,4.9-4.3,5.8-7.7
		c1.5-0.6,1.3,1.8,1.6,2.8c0.2,1.5-0.4,3.4,0.4,4.6c1.2-0.6,2.3-1.1,3.5-1.5c1.4,1.3,0.5,2.9,0.8,4.7c-0.7,1.8-1.8,3.3-3.3,4.7
		c4.4,3.2,5.5,8.7,10.1,11.5c5.2,4.3,10.8,9.6,10.3,16.7c-1,2.7-4.1,2.3-6.2,3.2c-0.3,0.5,0.4,0.9,0.7,1.3c1.2,0.5,1.7-1.5,2.9-0.5
		c1.1,0.5,1.4,2.2,0.9,3.3c-0.3,0.9-0.8,1.5-1.7,1.8c-4.3,1-6-3.4-9.9-2c-5.3-0.2-7.4-8.9-12.8-6.2c0.4,1.6,2.2,2.4,3.4,3.3
		c9.9,4.9,20.9,13.5,24.2,24.8l0.8,1c5.2-6,4.6-20.4,16.4-17.5c6.4,4.6,15.3,4.6,20.2,11.3c4.3,3.6,10.1,5.9,13.3,11
		c0,1.4-1.7,0.5-2.4,1.1c-1.9,3.6-5.3-0.2-7.2,2.9c-3.4-0.6-7-0.3-10.3-0.9l-0.7-0.6c0.5-2.6,0.9-5.4-0.4-7.8
		c-2.7-0.1-3.9-1.7-5.6-3.8c-2.3-1.9-4.9-2.6-7.6-3.1c-2.9,1.3-3.3,4.7-3.2,7.4c2.1-2.7,5.9-3.7,9.2-2.9c3.7,0.7,5.5,4.3,6.3,7.6
		c0.7,2.4-3.5,5.6,0.6,6.2c7.5,1.8,15.8,0.7,22.8-3.1c1.3-1,3.2-2.4,2.6-4.3c-1.4-1.9-1.6-5.1-0.7-7.2l-0.4-0.4
		c-5.4,0.6-10.9,2.2-14.6-2.9c-0.7-1.2-1-2.9-0.7-4.3c0.7-1.6,2.3-2.3,3.5-3.5l-0.2-59.5c-0.4-0.6-0.8-1.4-0.4-2.2l0.6-0.7
		c0.3-7.7,0.3-17,0-24.2c-1.3-1.7,0-3.8,0.4-5.4c-0.4-10.5,0.1-20.3-0.4-31.9c-1.4-1-3.1-2.2-4.1-4c-1.2-2.3-1-5.8,0.7-7.9
		c1.9-2.1,4.6-3.2,7.4-2.7c1.4,0,2.7,1.6,4,2.4c1,1.7,2.1,3.5,1.6,5.4c0.6,0.6,1.8-0.1,2.7-0.2c9.2-1.5,18.4-0.1,26.3,3.5
		c9,4.3,18.4,8.1,28.7,9.4c4.1,1.4,9.9,1.3,15,1.5c7.4-0.6,15.6-0.6,21.8-4.4c0.7,1-0.8,2.3-0.9,3.5c-12.9,17.9-37.9,17.6-57.7,14.8
		c-13.7-0.7-28-7.3-40.6,0.4c-2.7,5.6,3.8,8.4,3.7,13.3c1.8,3.8,5.5,5.7,7.8,9.4c2-1.4,1.6-4.1,3.3-5.9c1-1.5,4.3-1.4,3.4-3.8
		c0-2.2,1.4-3.8,2.6-5.4l0.7,0.7c1.7-3,4.7-3.8,6.6-6.3c0.9-0.6,1.9,0.2,2.7,0.6c2-0.3,4.1,0.4,5.3,2.2c0.2,1.1,1.1,2,2.2,1.6
		c0.9,1.1,1.8,1.6,2,3.1c-2.3,3.1,1.5,7.9-3.7,8.8c-0.2,0.3-0.2,0.7-0.2,1.1c0.8,1,1.7-0.3,2.5,0.4c-0.2,2.7-4.5,3.5-2.9,6.7
		c-2.6,3.6-7.7,6.4-8.3,11c-0.2,3.3-0.7,7.1,0.4,10.1c0.5,1.5,0.9,3.6,2.7,4.1c1.4-1.3-0.6-3.7,1.8-4.3c-0.6-4.5-0.5-10,3.8-12.6
		c2.8-0.6,3.1-4.2,6.1-4.7c2.3-0.9,6-0.3,6.4-3.6c-0.4-0.8-1.7-0.7-1.5-2c0.7-0.8,1.8,0.1,2.7,0c1.2,0.7,2.4,2,3.1,3.2l0.2,3.3
		c1.6-1.5,1.5-4.7,4.3-4.7c1.2-0.1,2.4,0.1,3.6,0.6c0,1.5-2.6,2.7-2.6,4.5c-0.2,2.8,0.8,6.1-2.5,7.4c-1.2,1.6-5.8-0.7-4.4,2.7
		c-0.4,2.2-1.4,3.7-3.2,4.9c-1.1,0.6-3.1,0.6-4.3,0c-2.4-1.6-3.4-4.4-2.9-7.2c1.7,0,1.3,2.6,3.2,3.4c0.9,0.3,1.9-0.3,2.3-1.2
		c-0.2-1.5-0.9-3-2.3-3.9c-2-1-3.6,0.2-5.5,0.8c-2.3,2.2-2.7,5.9-2,9l0.5,0.4l6-0.2c0.8,2.3,0,4.3,0.2,6.5c-0.3,0.6-0.2,1.4-0.8,1.9
		c-4.1-0.6-3.4,5.2-7.2,5.5c-0.5,0.2-0.5,0.8-0.2,1.1c0.8,0.3,0.5,1.4,0.2,2c-2.3,1.2-0.4,3.6-0.9,5.6c0.4,4.3-0.4,9.8,0.9,14.4
		c0.3,0.6,1.1-0.1,1.3,0.6c0.2,3-0.1,6.2,1.4,8.6c2,0.5,1,3.6,1.6,4.9c0.1,1.5,0.5,2.8,1.1,4.1c2.9,2,5.9-0.5,9-0.2
		c2.1,0.1,3.8,0.6,5.6,1.5c1.1,1.4,1.9,2.8,2,4.5l0.4,0.4c5.4-4.2,12.4-4.9,18-8.9c2.8-1.1,6.4-1,8.7,0.9c3.9,4.8,5.2,11,8.4,16.2
		c1.7-1.2,1.4-3.7,2.5-5.3c2.9-6.3,8.5-12.3,14.6-15.8c3.4-3,8.4-4.1,11.2-8c-0.8-1.5-2.1-0.2-3.4-0.6c-3.4,1.5-4.8,5.6-8.2,6.6v0.4
		c-1.7-0.8-3.7,0.2-5.3-0.2c-1.9,1.6-4.3,2.8-6.5,1.6c-1.1-0.6-0.9-1.7-1.4-2.5c0.4-0.8,0.6-2.2,1.8-2.4c0.9-0.3,1.1,1.3,2.2,0.9
		c0.3-0.5,1.2-0.7,0.9-1.5c-2.2-1.1-4.6-0.4-6-2.7c0.5-4.2,0.8-9.1,4.7-12.1c3.5-4,8.3-6.7,10.7-11.3c1.6-1.7,2.9-3.5,4.7-5.1
		c-2.4-2.4-3.9-5.6-2.9-9c1.3-0.8,2.7,0.7,4.1,0.9c0.3-2.4,0-5.2,0.9-7.4c1.5,0.2,1.6,1.9,2.4,2.7c1.6,1.5,2.9,3.1,4.1,4.7
		c1,0.6,2-0.7,2.5-1.5c0.8-2-0.6-3.5-1-5.2c0.7-0.9,1.9-0.2,2.5,0.2c2.7,0.7,2.3,6.7,5.5,3.5c1.1,0.1,1.8-0.9,3.1-0.6l0.2,2.5
		c1.2,0.1,2.1-0.9,3.6-0.5c0.5,1.3-0.2,2.5-0.3,3.8c1.4,0.3,5.3-0.8,4.1,2.3c2.5-0.8,2.2,1.8,2.2,2.9c1.1,0.4,3.3,0.6,2.2,2.3
		c-0.5,0.4-0.6,0.8-0.6,1.4c0.8,0.3,1.8,0.4,2.2,1.4c-0.2,2,3.9,2.6,1.3,4.7c3.5,1.2,2.1,5.6,5.7,6.6c0.2,0.3-0.1,0.7-0.5,1
		c-0.4-0.1-0.7,0-0.9,0.4c-0.2,1.4,2.9,2.8,0.4,3.7H324c0,1.8,1,3.7,2.7,4.9c0.4,1-0.6,1.2-1.2,1.4c-0.8,0.3-1.6-0.6-2.3,0
		c1.1,0.9,1.6,2.9,3.4,2.7c0.5,0.9-0.8,1.1-1.4,1.6c-1.2,0.8-2-0.6-3.3-0.2c0.3,2.3-0.3,5.7,2.5,7.2c0.3,0.3,1.8,0,0.9,0.9
		c-1.3,2.1-4.5-0.1-5.1,2c-0.2,10.6-13.8,10.5-16,20.2c-1.9,3.5-1.8,8.2-0.5,11.7c1.1,2,3,4.3,5.4,4.3c0,2-2.5,3.4-2.3,5.6
		c0,3.1,1.4,5.9,3.5,7.6c0.8,0.8,3.3,0,2.6,1.8c-2.4,1.6-3.2,3.9-2.7,6.5c1.1,1.6,3,3.3,5.1,3.7c0.1,2.6-2.4,4.9-1.8,7.7
		c0.2,0.3,0.7,0.1,1,0.2c5.2-3.4,10.7-7.3,12.8-13.3c2.2-2.3,2.2-5.5,3.5-8.2c2.7-9.6-1.9-19.4-0.6-29.2c0.2-0.6,0.4-1.4,1.2-1.4
		c0.4,3.3,1.8,6.3,4.7,8.3c0.9-0.3-0.5-2.1,1.1-1.7c3.3,3,4.7,7.1,6.5,10.9c0.9,0.3,0.4-0.9,1.1-1.1c1.6,2.8,1.7,6.7,2.2,10.1
		l0.9-0.6c-0.2,5.2,0.2,12.1-3.1,17.2c1.9,1.4,4.4,2,6.5,2.5c-0.7,1.9-2.1,3.6-2.7,5.5l-1.8,2.2c2.5,1.8,5.9,3.9,6.5,7.4
		c0.8,1.9,2.2,3.7,3.8,4.9c-0.6,1.1-2.3,0.2-2.5,1.6c0.5,2.9,0.4,6,2.7,8.2v1c-0.8,0.6-1.7-0.6-2.5,0c-2.8,3.3-0.1,8.3-2.3,11.7
		l-0.9-1.4c-3.6,4.7-10.1,6.5-10.1,13c-1.9-0.9-1.3-3.6-2-5.4c-0.6-8.1,7-16.5,0.9-24c-4.1-6.5-13.6-4.5-19.3-3.5
		c-0.6,0.2-1.5,0.6-1.5,1.3c1,1.5,3,1.8,4.7,2.4c-0.4,2.1-3.2,2.9-3.4,5.1c-0.6,2.7,0.6,5.3,2.9,6.8c0.7,0.5,1.4,0.7,2,1.2
		c-0.3,2.2-3.4,1.9-4,4c-0.8,2.1,0,4.4,1.7,5.9c-0.5,1.6-2.3,1.9-2.9,3.5c-1.1,12.3-7.7,25.2-19.7,29.9c-9.3,3.3-19.1,1.8-26.7-3.9
		c-6.1-3.4-6.5-10.5-8.8-16.2c-0.7,2.3-0.7,4.2-1.5,6.5c-0.9,2.5-1.3,5.2-2.8,7.4c-4.9,10.6-15.4,17.5-24.9,23.4
		c-1.5,1.8-3.7,1.6-5.1,3.5c-1.8,0.6-3.3,1.9-4.9,2.7c-11.2,5.5-22.6,13.2-30.7,23.2c0.2,0.6-0.3,0.9-0.4,1.4l0.4,0.4
		c11.2-0.3,23.2-1.6,35-3.4c3.7-0.6,7.6-1,11.3-1.7c13.3-1.8,25.8-5.6,38.4-9c0.5-5.1-4.4-10.3,0.2-14.8c6.7-6.2,16.8-6,24.8-6.5
		c2.8-1.1,6.6,1.6,8.5-1.6c4.6-2.3,10.1-5.2,15.6-2.7c1.2,1.1,2.8,2.1,4.7,1.4c2.2-0.6,4.4-1.6,6.5-2.4c-0.5-4.9-2.8-9-3.8-13.7
		c-0.2-3.3-4.8-6.2-1.4-9.6c8.6-5.3,19-9,28.7-8.7c9.3,2,8.6,12.5,12.3,19.1c2.2,8.5,6.8,16.4,6.7,25.7
		c-4.5,12.4-17.9,19.5-28.7,25.4c-3.4,1-6.3,3.3-9.8,4l-0.7,0.8c1.7,4.9,3.6,11.6-1,15.7c-8.7,5.7-18.4,10.1-28.2,13.5
		c-2,0.9-4.1,1.5-6.1,2.3c-9.9,3.6-20.5,5.4-30.5,9c-25.5,6-52,9.1-79.6,9.3c-3.7,0.1-7.4,0.1-11.1,0.1
		C164,381.5,140.3,379.7,117.8,374.7"/>
	<path id="XMLID_253_" class="st2" d="M197.5,12l0.2,3.9c-2.7-0.3-5.9-0.7-8.7-1.4c-0.6-1.7-0.7-3.7,0.2-5.1
		C192.1,10.1,195.4,10.2,197.5,12"/>
	<path id="XMLID_252_" class="st3" d="M197.5,12l0.2,3.9c-2.7-0.3-5.9-0.7-8.7-1.4c-0.6-1.7-0.7-3.7,0.2-5.1
		C192.1,10.1,195.4,10.2,197.5,12z"/>
	<path id="XMLID_251_" class="st2" d="M179,10.2c0,1.4,1.1,4.3-0.9,4.5c-3.1,0.1-5.6,1.5-8.6,1.8c-0.9-1.2,0.1-2.8-0.2-4.1
		c0.9-0.9,2.4-0.6,3.4-1.5C174.6,10.5,176.8,9.3,179,10.2"/>
	<path id="XMLID_250_" class="st3" d="M179,10.2c0,1.4,1.1,4.3-0.9,4.5c-3.1,0.1-5.6,1.5-8.6,1.8c-0.9-1.2,0.1-2.8-0.2-4.1
		c0.9-0.9,2.4-0.6,3.4-1.5C174.6,10.5,176.8,9.3,179,10.2z"/>
	<path id="XMLID_249_" class="st2" d="M197.5,25.7l0.2,6.5c-3-0.5-5.8-0.7-9-1.4c-0.9-2.1,0.2-4.4-0.2-7.2c1.2-0.3,2.7-0.3,3.9,0
		C194.4,23.8,195.9,24.7,197.5,25.7"/>
	<path id="XMLID_248_" class="st3" d="M197.5,25.7l0.2,6.5c-3-0.5-5.8-0.7-9-1.4c-0.9-2.1,0.2-4.4-0.2-7.2c1.2-0.3,2.7-0.3,3.9,0
		C194.4,23.8,195.9,24.7,197.5,25.7z"/>
	<path id="XMLID_247_" class="st2" d="M178.8,23.6c0.9,2.5-0.1,4.5,0.2,7.2c-3.3,0.8-6.7,1.4-9.9,2.5v-6.7
		C171.9,24.3,175,23.9,178.8,23.6"/>
	<path id="XMLID_246_" class="st3" d="M178.8,23.6c0.9,2.5-0.1,4.5,0.2,7.2c-3.3,0.8-6.7,1.4-9.9,2.5v-6.7
		C171.9,24.3,175,23.9,178.8,23.6z"/>
	<path id="XMLID_245_" class="st4" d="M186.4,10.2c0.7,2.2-0.9,6.2,2.2,6.7c3.2,0.8,6.6,0.7,9.2,2.7l-0.2,3c-3.4-0.7-6.7-1.9-10.3-2
		c-1.4,1.7-0.6,4.7-0.8,6.6l-0.4,3.4c-2-0.8-6,1.8-5.1-2.2c-0.2-2.2,1.8-5.9-1.1-7.6c-3.6,0.6-7.3,1-10.6,2.3v-3.6
		c3.6-1.5,7.2-2.6,11.3-2.7l0.6-0.6V9.9c1.3-1,3.3-0.4,4.9-0.6L186.4,10.2"/>
	<path id="XMLID_244_" class="st4" d="M260.1,22.6l3.9-0.7v0.4c-7.1,9-17.5,10.9-27.7,12.7c-12.8,2.1-24.4-1.1-36.5-2.5
		c-0.7-1.4-0.3-2.6-0.4-4.3c0-4.9-0.2-9,0.2-14.8l0.6-0.8C218.4,21,239.2,26.9,260.1,22.6"/>
	<path id="XMLID_243_" class="st5" d="M104.1,103.1c5.1,6.4,14.2,10.7,14.4,19.3c-1.2,0.8-2.7,2.4-4.7,1.6c-1.8-1.2-3.5-4.4-6.2-3.2
		c-1.4,0.8-2.2,2.5-1.6,4.1c0.6,0.6,0.6,1.3,0.7,2c-1.5-0.3-2.1-1.9-2.2-3.1c0.4-1-0.6-2.6-1.6-3.4c-1.2-0.2-2.4-0.4-3.4-1.1
		c-1.2-1.4,1.9-4.3-1.1-3.9c-2,2.1-2.2,6.6-6.1,5.4c-1.1-1.9-3.4,0.7-4.2-1.9c-1.3,0.4-2.7,0.1-3.8-0.7c-1.8-1.9-2.1-4.3-3.3-6.4
		h-0.4c0.1,4.4,2.1,8.9,6.4,11.4l0.2,0.7c-0.8,1-2.9-0.5-3.1,0.9c1.7,0.9,3.7,1.5,5.6,0.9c-0.4,1.3-3.6,0.7-1.7,2.2
		c1.7,0.2,3.2-0.9,4.9-0.6v0.6c-0.4,0-0.6,0.5-0.8,0.7c0,0.3,0.4,0.5,0.7,0.7c1.3,0.2,2.4-2,3.7-0.4c12.3,5.2,23.7,17.1,26.2,30.2
		c3.7,3.9,4.1,9.4,4.9,14.3c0.2,3.7-0.2,7-1.1,10.1c-0.5-3.3,0.7-7.5,0-10.7c-0.3-1.3-0.2-3.2-1.6-3.8c-1.5,1.2-0.3,2.3-0.4,3.8
		c-0.3,2.8,0.8,6.5-1.8,8c-1.6,0-1.4-1.7-2-2.7c0.1-3.6,1.1-9.6-2.3-11.9c-0.7,0.9,0.4,2.2,0.6,3.1c0.1,3.4-0.1,6.6-0.6,9.6
		c0.1,1.6,1.2,2.6,2.2,3.8c5.2,5.2,11.9,11.1,16,17.3c3.5,6.8-1.9,13.7,0.7,20.9c0.1,3.1-0.7,6.4-1.6,9.4c0,4.9,2.2,13.2-3.1,16.4
		c1.8-4.2,2.8-9.3,2.3-13.9c-0.4-0.1-0.7-0.7-0.9-0.2c-0.9,1.7-1.3,3.7-2,5.4c-0.2-2.3,2.3-4.2,0.6-6.5c-0.8,0-1.6,0-2.2,0.7
		c0.1,0.1-0.1-0.8-0.6-1c-1.4,0.3-2.2,2.2-3.5,2.5c-0.8,0-1.4,0.8-2.2,0.8c2.1-2.2,5-3.9,6.4-6.7c0.9,0.1,2.2-0.1,2-1.2
		c-0.5-1.3-0.7-2.8-1.3-4c1.7-5.2,4.3-11.4,0.7-16.6c0.9-6.8-6.1-9.1-10.5-11.5c-2.3-0.3-4.7-1.5-6.7-3.1l-0.8,0.9
		c-0.9-0.5-1.5-1.9-2.7-2c-0.9-2.6-2.4-5.8-5.2-6.8c-3.3,0.7-6.1-0.9-8.7-2.3c-0.7,0.4-0.5,1.2-0.3,1.6c1.4,4.1,6.6,1.3,8.1,5.4
		c2.2,3.8,5.1,6.8,9.4,7.9c1.7,1,3.8,1.1,5.6,2.1c-3.7,2.8-9,3.3-13.5,2.3c-4.2,0-8.6-1.2-12.6-2.5c-1-0.7-2.5-0.7-3.5-1.7
		c-2.3-1.7-5.7-3.4-5.9-6.7c-0.5-2.3,0.7-3.9,1.4-6.1c4,4.7,10.1,6.4,16.4,6.8c0.1-0.2,0.5-0.3,0.4-0.6c-2.5-1.7-5.9-1.4-8.6-2.5
		c-3-1.2-6.7-3.4-7.8-6.8c-0.1-2.7,0.8-5.1,0.7-7.8c4.9,1,10.1-0.4,12.7-4.7c1.1-2.9,0.6-7-1.8-9.6c-1.6-1-3.2-2-5.1-2.2
		c1.6-0.6,3.5-0.2,5.1,0.7c2.2,0.4,2.2,5.6,4.1,2c0.3-2.1-0.4-4.1-1.6-5.8c2.1-0.7,0.1-2.5,0.2-3.8c-1.2-1.5-3.4-2.4-2.7-4.5
		c-1.7-3.3-5.3-5.9-8.8-5.6c0.7-0.4,1.8,0.1,2.3-0.7c-1.8-4.3-7.4-0.4-9.6-4.7c-8.2-7.7-8.1-17.9-5.4-28.1c1.3-3.3,4.1-6.2,7.2-8.5
		c2.2-0.7,5.3,0,6.8-2.8c3.8-1.7,7,1.9,10.1,3.8C101.7,99.9,103.8,101.2,104.1,103.1"/>
	<path id="XMLID_242_" class="st5" d="M153.7,143.9c3.9,2.3,5.2,6.3,9.4,7.8c2.5,1.5,5.2,3.5,7.2,5.6c-0.9,0.3-1.4,1.2-2.3,1.2
		c-1.7-2.7-4.3-4.9-6.8-6.5c-0.4,2,2.4,3,3.1,4.7l1.2,2c-0.7,0.2-2.2,1.7-2.3-0.2c-1.2-2.5-2.3-5.2-4.7-7.2c-0.5,0-1.1,0-1.2,0.6
		l2.3,7.6l-0.4,0.5c-1.4-2.6-0.6-7-3.5-8.8c-1,1.4,0.1,3,0.6,4.3c0.3,1.4,0.6,2.9,0.9,4.2c-0.5,0.8-1.4,0.1-2.2,0
		c0.3-3.4-0.4-6.8-2.9-9.3c-2.8,0.6-3.1-3.2-5.6-4.3c-3-1.8-6.9-4.1-10.3-1.8c-1.3,1.8-5.2,1-3.8,4.3l0.9,2.5
		c-1.4,6.7-1,13.5-3.3,19.9c-0.7-2.3-1-4.9-2-7.2c-0.3-2.8-2.8-5.4-1.3-8.3c1.5-4.3,2.3-9,3.7-13.5c0.4-2.4,2.8-4.3,5.1-4.9
		C142.3,137.5,147.3,142.4,153.7,143.9"/>
	<path id="XMLID_241_" class="st5" d="M252.3,138.5c0,0.2-0.1,0.5,0.2,0.6l0.2-0.4c2.8,3.8,2.7,9.1,4.9,13.3c0.2,2.3,2,4.6,0.9,6.8
		c-1.9,3.7-2.3,7.9-3.1,12c-2.2-6.4-2.6-13.9-3.8-20.6c0.7-1.3,1.6-3,0.7-4.5c-0.4-0.5-0.9-0.6-1.6-0.5c-2.2-1.5-4.7-2.7-7.6-1.8
		c-3.7,1.4-6.6,4-8.9,7.2c-0.3-0.4-0.9-0.2-1.3-0.2c-2.4,2.4-3.1,5.8-2.6,9c-0.6,0.6-1.4,0.8-2.1,0.7c-0.2-3.2,1.6-5.5,1.8-8.5
		l-0.7-0.6c-2.5,2.2-2.1,5.8-3.1,8.8l-0.4,0.3c0-2.7,1.7-5.4,2-8.3c-0.3-0.5-0.8-0.4-1.2-0.4c-2.2,2.3-3.7,5.2-4.9,8.1
		c-0.5,0.3-1.3-0.2-1.8-0.5c0.5-0.9,1.2-2,1.7-2.9c0.4-1.2,3.2-2.2,2.1-3.8c-2.4,2-5.2,4-6.7,6.8c-0.7-0.4-1.2-0.9-2-1.1
		c0.8-1.7,2.6-2.7,3.9-4c1.2-0.1,1.5-1.2,2.5-1.8c2.7-1.2,5-3.2,6.7-5.7c1.1-0.8,2.6-1.8,3.6-2.8c7.2-1.1,13-9.9,20.4-5.6
		L252.3,138.5"/>
	<path id="XMLID_240_" class="st6" d="M190.1,151.5c0.4,1.5,1.1,2.8,1.2,4.5c0.2,2.1-0.4,3.7-1,5.4c-2.2,6.5-9.3,10.8-15.2,13.1
		c-10.2,3.3-22.1,3.8-31.8-1c-3.8-2.7-8.2-6.2-7.7-11.5c-0.6-2.2,1-3.7,1.4-5.6c0.8-1.5,2.5-2.9,4.3-3.1c2-0.6,3.3,0.9,4.7,1.5
		c1.3,1.1,1.5,2.7,2,4.1c0.7,2.5-4.9,5.8,0,7.2c0.9,0.2,1.9,0.4,2.9,0.6c2.3,0.9,5.2,0.7,7.8,1c7.7-0.6,16.3-1.8,20.9-8.8
		c1.3-2.2-1.7-3.7-1.2-5.6c-0.3-1.5,0.4-2.5,1-3.9c1.3-2,3.7-2.2,5.8-1.8C187,148.5,189.2,149.5,190.1,151.5"/>
	<path id="XMLID_239_" class="st6" d="M206.5,150.7c0,2,0.2,4.5-1.4,6c-0.6,2.9,2.2,4.7,4.1,6.5c8.2,4.6,20.7,6.2,29.4,1.8
		c0.5-1.9-0.7-2.5-1.3-3.9c-0.1-2.4-0.7-4.1,1.1-6.1c1.8-1.7,4.4-2.4,6.8-1.5c3.7,2.5,4.5,7.3,3.7,11.5c-1.6,5.2-6.7,8.5-11.6,10.1
		c-0.8,0-2,0.6-3,0.9c-14.6,2.6-30.7-0.5-39.2-12.7c-2.2-3.8-1.7-9.9,1-13.5c1.9-1.9,4.6-2.8,7.2-2.2
		C204.5,148.6,206,149.3,206.5,150.7"/>
	<path id="XMLID_238_" class="st6" d="M194.6,146.8v0.8c-4.9,1.2-8.6-2.9-11.2-6.4c1.4-1.2,3.3-0.2,4.9-0.2
		C191,141.9,193.4,144.3,194.6,146.8"/>
	<path id="XMLID_237_" class="st6" d="M202.6,144.3c-1.6,0.2-3.3,1.2-5.1,1.4l-3.1-3.8c1.3-0.7,3.4-1.7,5.1-0.7
		C200.9,141.7,201.9,143.1,202.6,144.3"/>
	<path id="XMLID_236_" class="st6" d="M182.2,144.5c-2,0-2.7,1.5-4.5,1.8l-4.5-4.7l0.2-0.6C177,140.3,180.2,141.7,182.2,144.5"/>
	<path id="XMLID_235_" class="st6" d="M223.3,143.3c0.6,0.8,0.6,2.4,0,3.3c-1,0.8-2.1,2-3.4,1.1c-2.5-1.3-3.3-3.7-4.9-5.8
		c1.9-0.9,3.6-0.7,5.5-0.7C221.4,141.8,222.7,142.1,223.3,143.3"/>
	<path id="XMLID_234_" class="st6" d="M213.6,144.7c0,1,1.7,1.4,1.3,2.5c-1.8,1.2-4.1,1-6,0.2c-2.2-1-3.5-3.6-4.5-5.6
		c2-1.2,3-0.1,5.2-0.2C211.1,142.2,212.5,143.2,213.6,144.7"/>
	<path id="XMLID_233_" class="st6" d="M173.9,146.2v0.6c-3.6,0.8-8.1,1.3-10.3-2c-0.4-0.9-0.1-2.1,0.4-2.9
		C168,140,171.5,143,173.9,146.2"/>
	<path id="XMLID_232_" class="st5" d="M180.8,86.7c0.6,1-0.4,2.6,0.7,3.4c2.3-0.3,6.3,1.6,7.2-1.6v-1.6c1.7-0.6,3.7-0.4,5.5-0.2
		c0.8,1-0.2,3.3,1.5,3.4c2-0.8,5.5,1,6.3-1.6v-1.8c2.2-0.9,4.9,0.2,7.2-0.2c0.5,0.7,0.8,1.7,0.4,2.5c-1,0.4-2.5,0-2.9,1.4
		c0,1.6-1.1,3-2.3,3.7c-1,0.9-3.4-0.3-3.3,1.8c-0.2,0.7,0.3,1.7-0.5,2.2c-5.7,0.7-12.1,0.3-17.5-0.2c-0.7-0.9,0.1-3-1.8-3.6
		c-1.6-0.5-3.7-0.2-4.7-1.9c-0.3-0.9-0.1-2-1.1-2.6c-0.6-0.5-1.6,0.3-2-0.6C172.5,84.7,178.5,86.7,180.8,86.7"/>
	<path id="XMLID_231_" class="st5" d="M200.4,101.9c-0.4,1.2,1.1,4.1-1.3,3.6l-15-0.2c-0.9-1.1-0.1-2.5,0-3.7
		c4.9-0.3,10.7-0.3,15.9,0L200.4,101.9"/>
	<path id="XMLID_230_" class="st5" d="M200.6,108.2l0.5,13.7c-4.9,0.2-11.5,0-17.8-0.2c0.2-4.5-0.5-10.1,0.6-14.2l0.7-0.4l15.6,0.2
		L200.6,108.2"/>
	<path id="XMLID_229_" class="st5" d="M202.4,123.8c0.9,1.5,0.3,3.8,0.7,5.4l-0.7,0.4l-21.3-0.2c-0.4-1.8,0-3.7,0.4-5.4
		C188.9,123.2,195.3,123.9,202.4,123.8"/>
	<path id="XMLID_228_" class="st5" d="M205.3,132.7c0.6,1,0.6,2.8,0,3.8c-8.5-0.5-18,0.2-26.7-0.6c-0.5-0.9,0-2.3,0.4-3.4
		C188,132.3,197,132.3,205.3,132.7"/>
	<path id="XMLID_227_" class="st6" d="M179.6,65.4c-1.5,1.7,2.1,4-0.8,4.1c-0.7-3.8-6.3,0.4-4.9-4.3c-0.4-0.7-2.1-0.7-1.7-1.5
		c0.9-0.3,2-1,2.5-2c-1-2-3,0.8-4.1-0.4c0.3,0,2.5,0.2,3.1-1c-0.2-2.2-3-0.6-4.3-1.3l-0.4,0.6c-0.7-3,1.1-5.3,0.8-8
		c-0.7-0.9,0.4-1.6,0.6-2.3C172.3,55,181.4,58.4,179.6,65.4"/>
	<path id="XMLID_226_" class="st6" d="M220.6,64.5c0.2,0.8-0.3,2-1,2.7c-1.6,1.4-4.6,1-5.1,3.3c1.7,1.4,2.9-0.7,4.5-0.7
		c1.3,0.1,2.6-0.1,3.7-0.7c1.5-1.3,2-3,2.7-4.7c0.5-0.4,1.1-0.2,1.7-0.2c-2.3,2.7,0.8,8.1-3.3,9.7c-1.3,0.6-3.3,0.3-4.5-0.7
		c-0.8-0.8-1.6-1.9-2.7-1.8c-1.1,2,2.4,3,2.2,5.1c0.3,1.9-0.6,3.6-2.2,4.5h-2.7c0.9-0.6,2.5-0.7,3.1-2.2c0.8-1.9-0.7-3.3-0.9-4.9
		c-1.4-1.8-3.8-2.5-5.4-2.2c-2.6,0.7-5.9,2.1-6.5,5.1c-0.4,2.2-0.4,5.1-0.6,6.8c-1.6-2.8-1.4-7.1,0.6-9.9c1.2-2.2,4.3-1.6,4.9-4.3
		c3.1-2.9,8.9-1.1,10.3-6.1C220.1,63.3,220.1,64.1,220.6,64.5"/>
	<path id="XMLID_225_" class="st6" d="M183.5,71c-0.3,1.3-1.1,3.2,0,4.4c1.4,0.2,2-1.6,3.2-2.1l4.2-0.8c-1.9,1.2-3.7,3.1-5.6,4.1
		c-0.7,0.4-0.8-0.6-1.4-0.6c-1.1,0.7-0.8,2.4-2.3,2.9c0.5-0.8,0.9-1.9,0.7-2.7c-0.3-0.2-0.5-0.6-0.8-0.4c-1,0.9-1,2.3-2.2,3.1
		c-0.3-0.6,0-1.7-0.9-2.2c-1.6,0.2-0.8,4.3-2.7,1.8c-1-0.1-1.5,1.2-2.3,1.5c0.4-0.3,0.4-1.9-0.8-2.1l-2,1.5l-0.2-1.8
		c-1.5-0.7-2.4,1.2-3.6,1.8c-0.6-1,3.4-1.7,1.2-3.1c-1.2-0.2-1.8,1.3-2.9,1.3c0.6-1.8,2.7-1.1,3.3-2.7c1.7,1,4.2,0.7,5.8-0.4
		C176.5,71.8,180.2,71.1,183.5,71"/>
	<path id="XMLID_224_" class="st6" d="M194.1,75c-0.6,2.1-0.7,5.3,0.2,7.4v1.4c-2.5,0.5-6-0.2-7.9,0.6c-0.5,1.3,0.2,2.3-0.6,3.6
		l-2.3-0.2c-0.7-1.2,0.8-3.5-1.3-3.9c-0.5,0.2-1.2,0.2-1.6-0.4c-0.2-1.7,1.4-2.1,2.5-2.7c1.8-2.3,4.6-3,6.5-5.1
		c1.5-0.3,2.8-1.5,3.7-3C195.1,72.6,193.5,74.2,194.1,75"/>
	<path id="XMLID_223_" class="st6" d="M201.5,42.1c0.7-0.4,0.6-1.4,1.5-1c1.9,1.2,0.8,5.4,4.1,4.3c1.1,2-4,1.6-2,3.9
		c0.7-0.2,1.6-0.4,1.8,0.6c-0.1,0.9,0.2,2.2-0.9,2.5h-0.5c0-0.7,1-1.7-0.2-2.2c-0.8-0.2-1.1,0.5-1.5-0.4c0.1-0.5,0.9-0.9,0.4-1.6
		c-1-0.2-2-2-3.1-0.7c-0.7-0.4-0.3-1.5-1.2-1.4c-0.7-0.2-1.6,0.4-2.2,1c-0.3-2.4-0.5-4.4,0.2-7C199.3,40.4,200.1,42,201.5,42.1"/>
	<path id="XMLID_222_" class="st6" d="M169.4,45.8c-2.2,0.8,0.5,3.4-1.5,4.5c0.1,1.6,0.6,2.9-0.4,4.3c-1.4-0.9-2.1-2.6-2.7-4.1
		c0.6-1.9,1-4,2.3-5.4l0.5-1.4C168.5,43.9,168.8,45.1,169.4,45.8"/>
	<path id="XMLID_221_" class="st6" d="M193.6,46.6c0,0.3,0,1,0.7,1.3h0.6c0.2,0.6-0.6,0.5-0.6,0.9c-0.1,0.9,0.7,1.8,1.5,2
		c0.7,0.1,1.1,0,1.6-0.4c-0.7,0.3-1.8,1.1-2.7,0.7c-1.4-0.7,0.4-3.1-1.6-3.3c-1.3,1.1-0.6,3.3-1.5,4.3c-0.4,1.6-1.9,3-1,4.9
		c-0.5,1.9-2.2,2.1-3.7,2.7c-1.7,0.4-3.5,0.4-4.9,1.1c0.7-3.9,6.4-2.2,7.4-6.4c-1.3-1-2.3,0.9-3.6,1.3l-2,0.7
		c-0.2-0.9,0.7-1.8,1.2-2.5c1.1-0.4,2.4-1.7,3.7-0.8c1-0.1,0.6-1.4,0.5-2c-1-0.9-0.7-2.2-0.2-3.3l0.4-0.4c0.5,0.7,1.2,1.5,2.2,1.6
		c1.1-1.1-0.7-3.1,0.7-4.3C193,45.4,194.4,45.1,193.6,46.6"/>
	<path id="XMLID_220_" class="st6" d="M193.9,60.4c-1.5,2-2.8,3.6-2.8,5.9c0.4,0.5,0.8,0.7,1.4,0.6c-1.3,3-4.8,2.5-6.8,4.5
		c0.1-2.7,4.3-3.9,4.5-7c-0.3-0.4-0.6-0.5-0.9-0.4c-1.6,1.9-3.7,3.8-5.1,5.8c-1.1-2.4,4.2-4.3,3.5-8
		C189.9,62.1,191.7,56.8,193.9,60.4"/>
	<path id="XMLID_219_" class="st6" d="M185.4,62.2c0.7,2.7-3.1,3.7-3.7,6c-0.9-1.2-0.7-2.3-0.3-3.8
		C182.1,62.6,183.9,62.3,185.4,62.2"/>
	<path id="XMLID_218_" class="st6" d="M197.3,55.5c-0.1,0.5-0.6,0.7-0.7,1h-0.8c-0.2-0.6,0.4-0.8,0.5-1.2
		C196.6,55.4,197.1,55.2,197.3,55.5"/>
	<path id="XMLID_217_" class="st6" d="M204.6,57.5c0.3,0.6-0.4,0.6-0.6,0.7c-1,0-1.1-1.1-1.4-1.9c0-0.4,0.1-1,0.6-0.8
		C203.2,56.4,203.8,57.2,204.6,57.5"/>
	<path id="XMLID_216_" class="st6" d="M201.7,58.9c0.8,0.7,1.6,1.5,1.5,2.7l-0.4-0.2c-0.1,0.6,0.4,1.1-0.4,1.7c-1-1-0.3-3.7-2.2-4.2
		c-1.2,0.8-0.1,2.2-0.2,3.3c-0.8-0.9-2.7-1.4-2-2.9c0.9-0.6,1.3-2.1,2.5-2.3L201.7,58.9"/>
	<path id="XMLID_215_" class="st6" d="M198.6,65.3c-0.9-0.8-0.7-2.2-1.8-2.9C197.7,62.8,198.7,64,198.6,65.3"/>
	<path id="XMLID_214_" class="st6" d="M196.8,68.2l-0.6,1.2c0.5-2-3.3-3.6-0.3-5.1C196.5,65.5,197.3,66.9,196.8,68.2"/>
	<path id="XMLID_213_" class="st6" d="M194.3,54.7l-0.9-0.7c0,0-0.2,0.8,0.2,1.3C194.1,55.9,194.3,54.7,194.3,54.7"/>
	<path id="XMLID_212_" class="st7" d="M199.3,53.9c0,0,1.1-0.8,2-0.9c-0.3,0-1.2,0.1-1.2,0.1s-0.4-0.7-0.4-2.1
		c-0.3,1.5-0.7,2.4-0.7,2.4L199.3,53.9"/>
	<path id="XMLID_211_" class="st5" d="M299,96.7c4,1.2,7.8,5.4,9.2,9.4c2.7,10.5,1.8,22.3-7.4,29.2c-2.7,0.7-6.4,0-7.6,3
		c0.3,1.2,1.6,0,2.2,0.9c-3.2-0.4-5.9,1.9-8.1,4.3c-0.2,1-1.1,2.1-0.7,3.1c-1.9,1.6-3.4,3.4-3.1,5.8c0.2,0.4,0.6,0.5,0.9,0.5
		c-1.4,2-2.3,4.7-1.1,6.7c0.2,0.3,0.4,0.6,0.7,0.5c1.2-2.2,2.7-3.7,5.1-4.3h2.9c-2.5,0.7-5.6,1.8-6.6,4.7c-1.2,2.2-1.2,5.2,0,7.4
		c2.2,3.2,6,5.2,10.3,4.9l2-0.6c0.2,3.7,2.2,8.2-1,10.9c-3.7,4.2-8.9,4.8-13.9,5.9c-0.2,0.2-0.6,0.4-0.6,0.7
		c1.4,1.1,3.1-0.5,4.9-0.2c4.3-1.3,8.6-2.5,11.9-6.3c1,2.4,2.2,5.7,0.6,8.2c-1.9,2.2-4.5,4.3-7.2,5.3c-6.6,3.1-14.5,4.7-22.2,3.5
		h-0.6c-0.4-0.5-1.3-0.5-2-0.7c-0.7-0.9-2.6-0.3-2.5-1.8c6.3-1.4,12.7-4.7,15.7-10.7c1.8-2.9,7-1.1,7.4-5.7c-1-0.7-2,0.7-3,1
		c-2.2,0.6-4,1.4-6.4,0.9c-2.8,1.1-4.2,4.2-4.9,6.8c-1.2,0.1-1.8,1.5-2.7,2c-1.4-2.1-2.8,1.3-4.3,1.6c-1.4,0.4-2.2,0.1-3.6,0.7
		c-3.6,2.2-8.7,3.8-9.9,8.5c0.4,4.1-3,7.5-1.7,11.2c0.4,3.9,4.2,8,1.1,11.9c-0.4,0.8,0.6,1.5,1.1,1.6c1.2-0.5,1.3,0.8,1.8,1.3
		c1.6,1.9,3.8,3.4,5.7,5.1c-2.2,0.2-4.2-1.6-5.5-3.1c-0.3,0.3-0.9,0.3-0.9,0.7c1.4,2.4,2.5,5.7,5.4,6.7c0.4,0.3,0.1,0.8,0.6,0.9
		c0.2-1,1.4-0.4,2-0.4c0.2,0.3,0.5,0.4,0.4,0.7c-4.4,1.2-6-3.6-8.2-6.3c0.1-0.8-0.3-1.6-0.9-2c-0.8,0-1.8,0-2,0.7
		c0.9,4.7,2.2,9.7,6.4,13.1c-5.2-2.3-4.8-8.6-7.2-12.8c-0.6-0.3-1,0.4-1.1,0.7c0.2,4.8,0.7,9.5,2.9,13.4c-3-0.6-3.2-4-3.8-6.4
		c-0.5-5.4,1.2-10.7-1-15.5c0.1-5.7,0.7-12.5-0.6-18.3c0.5-2.5,0.4-5.3,1.6-7.6c2.2-2.8,4.3-5.5,6.9-7.9l0.3,0.2l0.7-1.5l9-9
		c0.5-3.8-0.8-8.4,0.2-12.5c0-0.7,1.1-1.4,0.2-2c-1.6,0.7-1.8,2.5-2.3,3.9c-0.4,3.7,0.7,7.2-1,10.3c-1.4,0.7-2-0.1-2.3-1.4
		c0-2.9-0.8-5.5,0-8.2c0.1-0.7-0.1-1.2-0.6-1.8c-2,0.5-1,2.8-1.5,4.1v10.3c-2.3-8.6-1.6-17.8,3.8-25.3c2.2-11.4,11.3-22.6,22.2-27.4
		c2.1-0.7,4.1-3.8,6.5-1.7c0.4,0,0.7-0.1,0.9-0.4c0.2-0.8-0.7-0.7-0.9-1.2c1.4-1.3,3.3,1,5.4,0.2c0.4-0.1,0.2-0.5,0.2-0.7
		c-0.7-0.6-1.5-0.5-2.2-1.2c2.1,0.7,4.4-0.1,5.5-1.5c-1-0.7-2.1,0.5-2.9-0.4c0.6-1.2,2.1-2.5,3.3-3.6c1.2-2.7,3.9-5.3,2.9-8.5
		c-1.5,0.5-1.2,2.3-1.8,3.5c-0.9,1.2-1,3.2-2.9,3.5c-1.6,0-2.9-0.1-4.1,1.4c-1.5-1.2-2.6,1.6-4.2,0.6c-3-0.7-2.6-4.4-5.1-5.6
		c-1.3,1.4,0.9,4.5-2,4.9c-1.4,0.3-3,0.8-3.6,2.3c0.1,1.8,0.2,3.8-1.7,4.5l-0.7-0.2c0.7-1.2,1.7-2.5,1-4.1c-0.2-1-1.4-1.5-2.2-2
		c-3.9-0.5-6.3,6.7-10.1,2.2c-0.7-10.8,12.6-14.2,15.9-23c3-2.8,6.5-6,10.8-5.7C294.9,95.1,296.4,97,299,96.7"/>
	<path id="XMLID_210_" class="st5" d="M302.7,200.4c-6.6,7.1-15.7,10-25,9.4c-2.3-0.5-3.9-1.1-6.2-2c-2.4-1.2-3.3-3.8-4.5-6
		c10.1,2.2,20.4,0.1,28.7-4.9c1.9-1.6,3.8-3.1,5.8-4.7C302.4,194.8,304.6,197.7,302.7,200.4"/>
	<path id="XMLID_209_" class="st5" d="M306.4,203.8c0.7,1.3,0.7,3.2,0.4,4.7c-3.1,5.7-9.7,8.1-15.7,9.1c-6.7-0.1-15.4,1.5-18.2-6.6
		l-0.2-0.2c1.8-0.2,4.2,1.2,6.7,0.9c9.7,0.7,19-3.3,25.1-10.5C305.9,201.5,305.5,203.1,306.4,203.8"/>
	<path id="XMLID_208_" class="st5" d="M310.3,213.4c0.7,2.8-1.6,4.4-2.7,6.4c-6.8,5.2-17.3,8.6-25.4,3.7c-1-1.5-2.2-2.9-3.1-4.5
		c4.4,0.4,10.2,1.9,15,0.2c4.3-0.9,8-3.2,11.5-6c0.9-1,1.9-2.6,3.1-3L310.3,213.4"/>
	<path id="XMLID_207_" class="st5" d="M313.4,221.3c-0.8,5-6.4,9-10.9,10.3c-4.5,1.3-10.5,2.1-14.2-1.3l-2.3-2.7
		c3.7-0.1,9,0.4,12.8-1.2c3-0.7,6-2.7,8.8-4.3c1.6-1.4,2.4-3.6,4.3-4.7C312.7,218.5,312.6,220.1,313.4,221.3"/>
	<path id="XMLID_206_" class="st5" d="M315.4,227.1c0.7,2.2,0.4,4.9-1.2,6.5c-3.7,5.1-10.1,6.6-16.3,5.4c-2.5-0.7-4.1-2.2-5.7-4.2
		c8.4,0.9,18-2,21.8-10.2C314.9,225,314.8,226.4,315.4,227.1"/>
	<path id="XMLID_205_" class="st5" d="M316.5,240.3c-3.6,4.6-10.1,5.1-15.2,4.1c-1.4-0.6-2.3-2-3.1-3.2c6.9,1,14.6-1.4,18.6-8
		C317.8,235.3,318,238.3,316.5,240.3"/>
	<path id="XMLID_204_" class="st5" d="M317.9,247.7c-3.8,2.6-9.4,3.4-13.7,1.6c-1-0.4-1.1-1.6-1.7-2.3c5.5,0.2,11.9-0.5,15.6-5.7
		C318.9,243.1,319.1,246,317.9,247.7"/>
	<path id="XMLID_203_" class="st5" d="M317.3,254.7c-2.9,1.8-7.5,1.6-10.8,0.2c-0.6-0.8-1.5-1.8-1.1-2.7c4.6,0.8,9.3-0.4,13-2.7
		C318.1,250.8,319.3,253.7,317.3,254.7"/>
	<path id="XMLID_202_" class="st5" d="M317,259.8c-2.6,2.2-6.8,1.7-9.6,0.4c-1.1-0.8-0.7-1.6-0.8-2.9c3.2,0.9,7.9,1.7,11-0.6
		C317.6,257.6,317.4,258.8,317,259.8"/>
	<path id="XMLID_201_" class="st5" d="M315.9,262.5c-0.5,1.9-1.5,3.5-2.5,5.1c-2.2,0.4-4.7,0.5-6.2-1.3c-0.6-1.4-1.3-2.4-0.5-3.9
		C309.6,263.2,313,263.9,315.9,262.5"/>
	<path id="XMLID_200_" class="st5" d="M284.7,278.1c-0.6-1.4,0.1-2.8,1-3.9c5.1-3.7,11.1-3.7,16.8-6.1l0.2,0.3
		c-1.3,2.6-4.2,4.9-6.7,6.4v0.6c2.6,0.8,4.2-2.1,6.7-2.6c0.3,1.6,2.1,1.6,3.1,1.8c0.2-0.2,0.5-0.4,0.5-0.7c-1-0.7-2.2-1.1-2.5-2.5
		c0.5-1.4,0.7-2.9,2-3.9c0.8,1.3,2.4,1.9,3.9,2.2c0.7-0.6,1.8-0.4,2.5-0.2c-4,5.5-9.6,9.8-15.8,10.9c-2.1,0-4.1,0.3-6.1,0.3
		C288.2,280.5,286.3,280,284.7,278.1"/>
	<path id="XMLID_199_" class="st5" d="M290,88.9l-1.1-1.1l-0.6,0.7c0.3,0.2,0.1,0.6,0.2,0.8c-0.7-1.7-1.2-3.7-1-5.4
		C288.7,85.3,289.8,86.9,290,88.9"/>
	<path id="XMLID_198_" class="st5" d="M285.6,90.7c0.2,0.4-1.1-0.8-1.4,0.4V92c-0.8-0.9-1.7-2.2-1.1-3.5
		C284.1,88.7,285.1,89.6,285.6,90.7"/>
	<path id="XMLID_197_" class="st6" d="M252.6,170.8c0.6,4.2,2.6,7.8,3.5,11.9c-1.9,1.6-4.3-0.9-5.6,1.6c-3.1,3.8,1.5,10.2-3.3,13.4
		c-2.7,5.9-0.8,13.4-0.7,19.1c-0.7,4.3-0.6,9.3,0.8,13.9c-4.3-17.2-12.7-35.6-4.9-53.4c2.1-3.4,5.3-7,9.6-7L252.6,170.8"/>
	<path id="XMLID_196_" class="st6" d="M299,86.5c0.6,1.9-1.9,3.6-0.2,4.7c2.1-1.5,2-5.4,5.2-5.6c0,2.2-1.3,4.2-1.7,6.4l0.4,0.5
		c2.3-1.4,2.3-4.5,5.3-5c0.2,2.4-1.6,4.5-2.3,6.7c1.5,0.7,2-1.3,3.3-2c0.8-0.3,1.5-1,2.5-0.7c-0.7,2-3.4,3.4-2.9,5.4
		c1.9,0,2.7-3.1,4.9-2.9c-0.9,2.1-3.9,3.2-3.1,5.4c2.1-0.4,3.1-3.2,5.4-2.7c-0.6,2-4.6,3.3-3.3,5.7c1.4-0.4,2.3-2.2,4-1.8
		c-1.4,1.1-4.2,2.3-3.7,4.5c2.1-0.6,3.7-3.1,6-2.2c-0.3,0.7-1.5,0.9-1.3,2c0.2,1,1.3,0.7,2,1.3c-1.6-0.8-3.3-0.1-4.5,0.8
		c0.4,1.5,2.2,0.2,2.9,1.1c-0.5,0.2-1.1,0-1.4,0.6c0.5,1.4,2.2,1.8,3.7,1.8c1.6,0.7,2.3,2.3,3.1,3.7c-2.6,0-3.8-2.3-6.2-2.5
		c-0.6,0-0.8,0.8-0.4,1.1c2.2,2.3,6.3,3.7,6.4,7.2c-2.3-1.1-4.4-3-7.2-3.1c-0.8,1.9,1.8,2,2.7,2.9c1.3,1.2,2.4,2.5,2.7,4.1
		c-1.7-1.7-3.9-3.7-6.4-3.6c-0.4,0.3-0.2,0.8-0.2,1.2c0.3,0.8,1.2,0.4,1.7,0.7c4,2.6,3.4,7.6,5.2,11.3c-3.9-1.3-3.7-6.2-7.5-7.6
		c-1.3,1.3,1.4,2.5,1.8,3.8c1.9,3.4,3.1,8.1,1.2,11.7c-5.3,5.2-13.2,7.7-14.8,15.4c-2.3,5.3-10.5,4.4-10.2,11.2
		c-1.3-1.1-0.5-3-0.2-4.3c2.1-3.9,7.7-2.3,8.8-6.7c-0.3-0.5-0.8-0.4-1.2-0.4c-3.5,2.8-9.7,3.5-10.3,9c-0.2,1.4,0.7,2.4,1,3.7
		c-1.8-0.8-3.1-3-3.4-4.9c0.2-2.6,1.4-4.9,3.9-6.1c3.7-0.9,8-1.7,11.1-4.7c0.1-0.4,0-0.7-0.4-0.9c-2.4,0.8-5.3,1.7-8,0.7
		c-2.8-1.1-6,0.3-8.4,1.8c0-1.5,1.4-2.6,2.5-3.6c4.8-1.8,9.5,1.5,14.7,0.7c0.6-0.6,1.1-1.3,0.9-2.3c0.9-0.4,2.2-0.8,2.5-1.8
		c-0.9-0.5-2.7,0-3.9-0.4c-3.3-1.2-3-5.8-7-5.9h-3.5c1.2-1.1,3.1-1.1,4.7-0.7c4.3,1.5,5.3,8.3,10.9,5.8c0.7-0.5,1.7-0.2,2.2-1.1
		l-0.7-0.7c-1.9-0.3-4.1,0.5-5.6-0.7c-1.8-2.2-2-5.3-4.7-7c1.4-0.2,2.9,0.4,4.3,1c2.6,3,5.5,6.6,9.9,5.1c0.6-0.4,1.4-0.4,1.9-1.2
		l-0.2-0.6c-2.7-0.4-6.9,0.6-8.3-2.9c-0.5-0.7,0-1.3,0.2-2c2,2.1,5,4.8,8.6,3.8c0.9-0.8,3-0.6,3.1-2.3c-1.2-1.6-2.2,0.5-3.6,0.4
		c-1.6,0.1-3.2,0-4.2-1.2c-2-5.1,4.1-8.2,3.5-13.6c2-10.4-0.5-23.1-10.3-29.7c-2.5-1.4-5.3-2.6-8.1-3.5c-0.7-1.5,1.3-2.5,2-3.6
		c0.3-1,1-2,0.8-3.3C298.3,84.7,298.7,85.7,299,86.5"/>
	<path id="XMLID_195_" class="st6" d="M299.5,150.4c-3.9,1.1-7.2-5.2-11.9-2.6c1.8-2,4.5-1.8,6.8-1.3
		C296.5,147.2,297.2,150.2,299.5,150.4"/>
	<path id="XMLID_194_" class="st6" d="M306.2,174.1c-0.7,2.8-2.2,6.9-0.2,9.7c0.8,1.9,2.5,3.2,3.9,4.5c-1.5,2.5-2.8,5.6-0.8,8.2
		c1.2,2.2,5.8,2.3,3,5.4c-0.7,1.7-0.7,3.1-0.7,5.1c-5.2-11.3-10-23.6-9.4-36.6C303.3,171.7,304.6,173.5,306.2,174.1"/>
	<path id="XMLID_193_" class="st6" d="M317.5,214.1c-0.4,2.2-2.5,4.2-1.2,6.7c1,1.9,2.7,3.6,4.5,4.5c-0.8,1.6-1.3,3.5-2,5.3
		c-2.4-6.8-3.7-14.1-6.4-20.7C313.9,211.6,315.8,212.7,317.5,214.1"/>
	<path id="XMLID_192_" class="st6" d="M322.4,238.1l-2,2.2c-0.5-1.9-0.6-3.9-0.8-5.9C320.3,236,321.8,236.3,322.4,238.1"/>
	<path id="XMLID_191_" class="st8" d="M250.5,167.5c-0.6,0.2,0.7-1,0.8-1.6c0.1-0.7,0.4,1.6,0.4,1.6S251.1,167.4,250.5,167.5"/>
	<polyline id="XMLID_190_" class="st5" points="286.1,150.9 286.9,150.4 287.4,150.4 286.1,150.9 	"/>
	<path id="XMLID_189_" class="st6" d="M297.2,165.7c0.8,1.3,0.3,3,0.5,4.5c-0.6,0.8-1.4,0-2,0c-1.1-0.7-1.8-2.1-1.2-3.4
		c0.5-0.7,0.7-1.7,1.4-2.1C296.8,164.4,296.7,165.6,297.2,165.7"/>
	<path id="XMLID_188_" d="M290.8,101c1-0.4,2.2-0.1,3.1,0.6c0.5,1-0.7,1.1-1.1,1.6c-3.9,0.9-7,5.1-11.5,2.9c0.2-1,1-1.9,1.5-2.9
		c0.7-1,1.8-2,3-2.3C287.4,100.9,289.3,103.3,290.8,101"/>
	<path id="XMLID_187_" class="st5" d="M318.5,218.8c-0.7-2.5,6.1-6.2,0-6.7c-1.1-0.7-2.5-1.5-3.1-2.9c3.7-0.8,7.4-1.4,11.3-1.8
		c0.6,0.4,1.4,0.2,1.9,0.8c1.1,0.6,0.8,2.2,0.7,3.3c-1,1-2.2,2.3-3.2,2.9c0,0.4-0.7,0.9,0,1.2C323.8,217.1,319.2,218.6,318.5,218.8"
		/>
	<path id="XMLID_186_" class="st6" d="M331.9,160.7c1.8,1.8,3,4.1,5.4,5.2c0.6-0.1,0.8-0.7,1-1.1c2.5,2.9,3.6,6.9,5.1,10.5
		c0.4,0,0.8,0.1,1.1-0.4c1,2.7,0.4,5.2,0.6,8.3c1.9,3.1,0.7,7.3-0.4,10.4c-0.7,2.6-3.8,3.2-4.5,5.8c0.9,1.1,1.7,0,2.7-0.2
		c2.2-0.4,3.9,0.5,5.5,1.6c-0.7,2.3-2.2,4.9-4.7,6c-0.6,0.2-0.7,0.8-0.6,1.4c1.9,1.4,4.6,0.8,6.2,3.1c2,2.1,2.7,4.6,3.7,7
		c-1.9,0.9,0.1,2.6-0.2,4c-0.3,2.2,2.6,4.9,0.2,6.7c-0.7,2.4-1.5,4.8-1.4,7.4c-2.1,2.4-2.7,5.4-5.8,6.8c-1.7,1-3.3,2.8-4.5,4.3
		c-0.9-1.9,0.8-3.9,0.7-6.1c1.4-4.5,4.2-8.9,2.3-14.2c-1.2-4.9-5.3-8.6-10.1-9.8c-4.7-0.6-9.6-0.6-13.7,0.7
		c-0.8,0.2-1.6,0.4-2.3,0.6c3.7-1.3,5.3-2.1,7.6-3.1c2.1-1.4,5.1-2.7,5.5-5.5c-0.3-1.1-0.4-2.4-1-3.5c-2.3-2.2-5-0.7-7.8-1.2
		l-4.1,0.5c7.4-5,13-13.1,14.4-22.1c0.9-7.6-0.7-15.7-1.5-23.2H331.9"/>
	<path id="XMLID_185_" d="M335.4,166.5c3.5,10.3,2.2,22.1-2,31.6c-0.4,0.7-1.2,1.7-2.1,1c-0.7-1.5,0.7-3.1,1.5-4.5
		c2.8-7.6,4.7-16.3,2.2-24.6c-0.5-1.3-0.8-2.7-0.4-4.1C334.9,165.9,335.2,166.3,335.4,166.5"/>
	<path id="XMLID_184_" d="M342.1,181.5v0.7h-0.6v-1C341.8,181.1,342.1,181.2,342.1,181.5"/>
	<path id="XMLID_183_" d="M339.7,195.2c-1.4,1.8-2.1,4.7-4.7,5.1c-1.1-2.4,2.4-3.5,2.9-5.8c2.1-3.2,2.5-7,3.4-10.8l0.6-0.4
		C342.1,187.4,340.9,191.4,339.7,195.2"/>
	<path id="XMLID_182_" d="M348.2,217c2.1,3.4,3.1,8,2.1,11.9c-0.7-1-0.1-2-0.6-3.1c-0.8-4.8-3.1-9.3-7.6-12.5
		c-0.1-0.7,0.3-1.5,1.2-1.2C345.2,213.5,346.8,215.1,348.2,217"/>
	<path id="XMLID_181_" d="M347.3,232c-0.8,4.3-2,9-4.3,12.9c-0.3-0.2-0.4-0.7-0.4-1.2c0.4-0.9,0.9-1.9,1-3.1
		c0.9-3.4,2.2-6.7,2.5-10.3c-0.2-4.2-2.3-8.1-5.3-11.3c-0.2-0.5,0-1,0.6-1.1C346.2,221,348,226.9,347.3,232"/>
	<g id="XMLID_178_">
		<defs>
			<path id="XMLID_179_" d="M344.5,270.5c3.7-3.1,8.4-4,13.2-5.2c0.9,0.4,1.8,0.4,2.5,0.4c0.8,0.1,1.5,0.3,2,1.3l0,0
				c0.7,6.1-5.2,11.6-9.7,14.9l0,0l-3.4,2.1C347.3,279.8,345.7,275.1,344.5,270.5"/>
		</defs>
		<clipPath id="XMLID_3_">
			<use xlink:href="#XMLID_179_"  style="overflow:visible;"/>
		</clipPath>
		<rect id="XMLID_180_" x="344.5" y="265.3" class="st9" width="18.4" height="18.7"/>
	</g>
	<path id="XMLID_175_" class="st0" d="M349.1,284l3.4-2.1l0,0c4.5-3.3,10.4-8.8,9.7-14.9l0,0c-0.5-1-1.2-1.2-2-1.3
		c-0.8-0.1-1.6,0-2.5-0.4c-4.8,1.2-9.5,2.1-13.2,5.2C345.7,275.1,347.3,279.8,349.1,284 M349,284.2c-1.9-4.2-3.5-9-4.7-13.7v-0.1
		l0,0l0.1,0.1l-0.1-0.1c3.8-3.2,8.6-4.1,13.3-5.3h0l0,0c0.8,0.4,1.7,0.3,2.5,0.4c0.8,0.1,1.6,0.3,2.1,1.4l-0.1,0h0l0.1,0v0
		c0.8,6.3-5.3,11.8-9.8,15.1l-3.5,2.2L349,284.2L349,284.2l0.1,0l-0.1,0.1L349,284.2"/>
	<path id="XMLID_170_" class="st2" d="M338.6,297.2C338.6,297.2,338.6,297.2,338.6,297.2L338.6,297.2L338.6,297.2 M379.9,302.3
		L379.9,302.3L379.9,302.3 M334,298.6c1.2-0.6,3.2-0.4,4.6-1.4l0,0c12.8-4.3,27.6-10.9,33.1-25.1c0.8,0.7,1.2,2.3,1.8,3.5l0,0
		c2.1,8.8,7.8,16.7,6.3,26.6h0c-6.1,13.2-20.6,19.3-32.7,24.9l0,0c-1.4,0.4-2.7,0.9-4.2,0.9C339.3,318.5,336.6,308.6,334,298.6
		 M342.8,328.2L342.8,328.2L342.8,328.2C342.8,328.2,342.8,328.2,342.8,328.2"/>
	<path id="XMLID_163_" class="st0" d="M371.7,272L371.7,272L371.7,272L371.7,272 M373.7,275.6L373.7,275.6L373.7,275.6L373.7,275.6
		 M338.6,297.2L338.6,297.2L338.6,297.2L338.6,297.2L338.6,297.2 M380,302.3L380,302.3L380,302.3L380,302.3L380,302.3 M342.9,328.1
		c1.5,0,2.8-0.5,4.2-0.9l0,0c12.1-5.6,26.6-11.7,32.7-24.9h0c1.6-10-4.2-17.8-6.3-26.6l0,0c-0.6-1.2-1-2.8-1.8-3.5
		c-5.5,14.1-20.3,20.7-33.1,25.1l0,0c-1.4,0.9-3.4,0.8-4.6,1.4C336.6,308.6,339.3,318.5,342.9,328.1 M342.8,328.3L342.8,328.3
		L342.8,328.3l0.1-0.1L342.8,328.3c-3.6-9.7-6.3-19.7-8.9-29.7l0-0.1l0.1,0c1.3-0.7,3.3-0.5,4.7-1.4l0,0c12.8-4.3,27.6-11,33-25.1
		l0.1-0.1l0.1,0.1c1,0.7,1.3,2.4,2,3.6v0c2.1,8.8,7.9,16.7,6.3,26.8v0c-6.2,13.2-20.8,19.3-32.9,25l0-0.1l0,0.1h0v0
		C345.8,327.7,344.4,328.3,342.8,328.3L342.8,328.3"/>
	<path id="XMLID_159_" class="st2" d="M322.2,297.2C322.2,297.1,322.2,297.1,322.2,297.2L322.2,297.2L322.2,297.2 M320.4,299
		L320.4,299C320.4,299.1,320.4,299.1,320.4,299L320.4,299 M322.1,297.3c-0.3,0.7-1.1,1.4-1.7,1.8l0,0.1l0-0.1h0
		c-1.4,0.9-2.7,1.8-4.2,2.4C317.2,300,319.8,298,322.1,297.3"/>
	<path id="XMLID_156_" class="st2" d="M322.3,297.2L322.3,297.2l-0.1-0.1L322.3,297.2L322.3,297.2L322.3,297.2 M315.8,301.6
		c1-1.5,3.9-3.8,6.3-4.5l0.2,0l0,0.2c-0.2,0.9-1.2,1.6-1.8,2l-0.1-0.2c0.6-0.4,1.4-1,1.7-1.8c-2.2,0.7-4.9,2.7-5.9,4.2
		c1.5-0.6,2.8-1.5,4.2-2.4h0l0,0.1l-0.1-0.1l0.1,0.2c-1.5,0.9-2.9,1.9-4.5,2.6L315.8,301.6L315.8,301.6l0.1,0.1l-0.3,0.1
		L315.8,301.6"/>
	<path id="XMLID_133_" class="st2" d="M332.1,301.8L332.1,301.8L332.1,301.8L332.1,301.8 M84.2,318.1L84.2,318.1L84.2,318.1
		L84.2,318.1 M131.8,330.5C131.8,330.5,131.8,330.5,131.8,330.5L131.8,330.5L131.8,330.5 M321.1,340.9l-5.7-12.9
		c-0.3-0.5-0.6-1.2,1.1-1.9c4.4-2,7.4,3.3,8.5,5.6c2.7,6.1,1.2,8.8-1.7,10.1c-0.4,0.2-0.7,0.3-1,0.3
		C321.8,342,321.5,341.6,321.1,340.9 M138.5,357.1l3.5-6.4l2,7.1L138.5,357.1 M152.3,377.6L152.3,377.6L152.3,377.6
		C152.3,377.6,152.3,377.6,152.3,377.6 M311.4,330.2l5.6,12.7c0.4,1,0.3,1.9-1.4,2.6l0.3,0.6l8.1-3.6c6.4-3.1,7.4-8.4,5.3-13.1
		c-1.8-4-6.1-7.4-13.3-4.2l-7.8,3.5l0.3,0.6c0.5-0.2,1-0.3,1.4-0.3C310.5,329,311,329.3,311.4,330.2 M60.6,327.9l5.9,18.8l0.7,0.3
		l6.2-15.3c0.5-1.3,0.9-1.8,2.9-1.3l0.3-0.6l-5.6-2.3l-0.3,0.6c2,1,2,2,1.4,3.6l-3.2,7.9l0,0l-4.5-14.8l-5.5-2.2l-0.3,0.6
		c0.3,0.1,0.7,0.4,1.5,2.8l-5,12.3c-0.7,1.7-1.5,1.6-3.1,1.2l-0.3,0.7l5.9,2.4l0.3-0.6c-1.8-1-2.2-1.7-1.4-3.6L60.6,327.9
		L60.6,327.9 M294.7,336.4l4.4,12.9c0.6,1.7-0.2,2-1.7,2.7l0.2,0.7l15.5-5.3l-0.8-5.9l-0.7,0.3c-0.3,4.6-2.8,6.2-5.4,7.1
		c-1.7,0.6-2.3,0.4-2.7-0.7l-2.2-6.4c2.6-0.9,4.3-0.6,5.7,2.6l0.7-0.2l-3.1-9l-0.7,0.2c0.7,3.4-0.4,4.6-3,5.4l-2.1-6.2
		c-0.4-1.1,0.1-1.4,1.5-1.9c3.6-1.2,5.7-1.2,7.6,2.4l0.7-0.2l-1.8-5.3l-15.3,5.3l0.2,0.7c0.5-0.1,1-0.3,1.4-0.3
		C293.8,335,294.3,335.3,294.7,336.4 M70.9,348l15.6,5.1l2.9-5.2l-0.7-0.2c-3,3.5-6,3.3-8.6,2.4c-1.7-0.6-2.1-1.1-1.7-2.2l2.1-6.5
		c2.6,0.9,3.7,2.1,3,5.5l0.7,0.2l2.9-9l-0.7-0.2c-1.5,3.2-3.1,3.4-5.6,2.6l2-6.2c0.4-1.2,0.9-1.1,2.4-0.6c3.6,1.2,5.3,2.5,4.7,6.5
		l0.7,0.2l1.7-5.4l-15.4-5l-0.2,0.7c1.2,0.5,2.3,0.9,1.7,2.7l-4.2,12.9c-0.5,1.7-1.4,1.5-3,1.1L70.9,348 M284.1,352.9
		c0.6,2.3,0,2.5-2,3.2l0.2,0.7l9.7-2.6l-0.2-0.7c-2,0.4-2.7,0.5-3.3-1.8l-3.8-14.3c1.9-0.4,4.7-1,6.4,3.2l0.8-0.2l-1.5-5.5
		l-16.3,4.4l1.4,5.5l0.8-0.2c-0.6-4.5,2.2-5.4,4-6L284.1,352.9 M105,344.7l1.6,13.9l0.7,0.2l9.3-15.2c0.6-0.9,1.3-1.5,2.3-1.3
		l0.2-0.7l-5-1.2L114,341c0.9,0.3,1.9,0.5,1.6,1.6c-0.1,0.6-0.3,0.8-0.5,1.1l-5.2,8.6l0,0l-0.8-9.8c0-0.5-0.1-1.3,0-1.6
		c0.2-0.9,1-0.8,2.2-0.6l0.2-0.7l-8.6-2l-0.2,0.7c1.3,0.4,1.5,0.7,1.8,1.4l0.4,2.9l-5.1,7.6l-0.1,0l-1-10.6c0-0.3-0.1-0.6,0-1
		c0.2-1,1-0.9,2-0.7l0.2-0.7l-8.1-1.8l-0.2,0.7c1.1,0.4,1.3,0.8,1.5,2.2l2,17.8l0.8,0.2l7.9-11.7L105,344.7 M267,343.5l2.8,13.3
		c0.4,1.7-0.7,2-2.2,2.5l0.2,0.7l9.6-2.1l-0.1-0.7c-1.5,0.2-2.7,0.4-3-1.4l-2.8-13.3c-0.4-1.9,0.9-2.2,2.2-2.5l-0.1-0.7l-9.6,2.1
		l0.2,0.7c0.4-0.1,0.8-0.1,1.2-0.1C266.1,342,266.8,342.3,267,343.5 M117.1,350.9c-0.8,5.2,2,10.3,8.4,11.3c3.5,0.6,6-0.8,8.4-2.8
		l-0.7-0.8c-2.7,2.2-4.9,2.7-7.1,2.4c-0.9-0.1-3-0.9-3.8-3.1c-0.7-1.9-0.5-4.6-0.2-6.3c0.7-4.7,2.5-8.8,6.6-8.1
		c3.2,0.5,5,4.1,5.6,6.7l0.7,0.1l1-6.5l-0.7-0.1c-0.4,0.6-0.7,1.2-1.5,1.1c-0.7-0.1-2.6-1.8-5.1-2.2c-0.6-0.1-1.2-0.1-1.8-0.1
		C121.8,342.4,117.9,345.9,117.1,350.9 M247.7,347l2.1,13.2c0.3,1.8-0.5,2.2-2.1,2.6l0.1,0.7l6.3-1l-0.1-0.7
		c-2.1,0.1-2.7-0.3-3.1-2.3l-1.7-11.1l0,0l14.8,13.1l0.8-0.1l-2.6-16.4c-0.2-1.3-0.1-2,1.8-2.6l-0.1-0.7l-6,0.9l0.1,0.7
		c2.3-0.2,2.8,0.7,3,2.3l1.3,8.4h-0.1l-11.5-10.3l-5.9,0.9l0.1,0.7c0.1,0,0.1,0,0.2,0C245.5,345.4,246.1,345.6,247.7,347
		 M225.6,346.9l0.1,0.7c1.6,0,2.3,0,2.6,2.3l1,9.3c0.3,3,1.2,3.9,2.5,4.9c2,1.4,4.6,1.3,5.9,1.2c1.7-0.2,4.1-1,5.3-2.6
		c1-1.4,1.2-3.9,1-5.6l-0.9-8.9c-0.2-1.8,0.4-2.2,1.9-2.6l-0.1-0.7l-6.2,0.6l0.1,0.7c2.4-0.1,2.8,0.8,3,2.5l0.9,8.5
		c0.2,1.8,0.6,6.1-4.3,6.6c-4,0.4-4.4-3.4-4.6-5l-1-9.3c-0.3-2.5,0.6-2.6,2.5-2.9l-0.1-0.7L225.6,346.9 M142.6,364.3l9.1,1.1
		l0.1-0.7c-1.3-0.1-1.7-1.1-2.6-4.3l-4.4-15.4l-0.8-0.1l-8.1,14.5c-1.1,2-1.6,2.9-3.1,2.9l-0.1,0.7l5.7,0.7l0.1-0.7
		c-0.9-0.2-2.3-0.4-2.1-1.5c0.1-0.5,0.6-1.5,1.7-3.5l6.3,0.8c0.3,0.9,0.9,3.1,0.8,3.9c-0.1,0.9-0.6,0.9-2.4,0.8L142.6,364.3
		 M154.4,365c0.9,0.1,2.1,1.1,4.7,1.3c5.2,0.4,7.2-2.9,7.4-5.4c0.2-3.1-1.8-4.8-2.7-5.4l-4-2.3c-2.3-1.4-2.8-2-2.7-3.5
		c0.1-1.8,1.7-2.5,3.2-2.4c3.3,0.2,4.8,3.6,5.1,5.6l0.8,0.1l0.4-6.1l-0.8-0.1c-0.2,0.5-0.4,0.9-1,0.9c-0.8-0.1-2.1-1.1-4.3-1.2
		c-5.3-0.4-6.5,3.4-6.6,5.1c-0.1,1.3-0.3,3.7,4.4,6.4l1.8,1c1.8,1,3,1.8,2.9,3.6c0,0.4-0.4,3.1-3.7,2.9c-3.6-0.3-5-3.5-5.3-6.4
		l-0.8-0.1l-0.5,6.9l0.8,0C153.6,365.5,153.8,365,154.4,365C154.3,365,154.3,365,154.4,365 M173.7,363.4c-0.1,2.4-0.8,2.4-2.8,2.5
		l0,0.7l10,0.4l0-0.7c-2.1-0.2-2.7-0.3-2.6-2.7l0.5-14.8c1.9,0.2,4.8,0.4,5.2,4.9l0.8,0l0.2-5.6l-16.9-0.6l-0.3,5.6l0.8,0
		c0.7-4.5,3.6-4.5,5.6-4.5L173.7,363.4 M202.5,348.1l0,0.7c1.3,0,2.5,0,2.6,1.9l0.7,13.6c0.1,1.7-0.8,1.9-2.4,2.1l0,0.7l16.4-0.9
		l0.8-5.9l-0.8,0c-1.5,4.3-4.4,5.2-7.1,5.4c-1.8,0.1-2.4-0.2-2.4-1.5l-0.4-6.8c2.8-0.1,4.3,0.6,4.8,4.1l0.7,0l-0.5-9.5l-0.7,0
		c-0.2,3.5-1.6,4.3-4.3,4.4l-0.4-6.5c-0.1-1.2,0.4-1.4,2-1.4c3.8-0.2,5.8,0.4,6.7,4.4l0.7,0l-0.3-5.6L202.5,348.1 M185.7,348.9
		c1.3,0.1,2.4,0.1,2.4,2v13.6c0,1.7-0.8,1.8-2.4,2v0.7H202l1.2-6.4h-0.8c-1.3,3.2-2.9,5.5-7.1,5.5c-1.9,0-2.5-0.2-2.5-1.6v-13.3
		c0-2.5,0.9-2.5,2.8-2.6v-0.7h-9.8V348.9 M173.9,379.2c-7.5-0.3-14.3-0.9-21.6-1.8h0v0.1v-0.1c-10.8-0.5-20.9-2.7-31.2-4.5
		c-27.1-5.8-54.4-12.8-78.3-26.3c-3-2.1-3.6-5.3-3.1-8.5c2.8-10.3,6.8-20.1,9.8-30.4c0.6-2.4,1.1-4.8,2.3-6.9
		c9,9.8,21,13.1,32.5,17.3h0c15.7,4.6,31.3,9.4,47.6,12.5v0c13,3.5,27.3,4.5,41.4,5.9l0-0.1l0,0.1c20.5,2.6,41.4-0.5,60.9-2.5
		c15.2-2.2,29.9-5.6,44.4-9.7c17.1-4.8,34.4-8.8,49.3-18.8v0h0l-0.1-0.1l0.1,0.1l3.7-4.2l0.7,0.7c2.8,11.1,6.5,21.9,10.3,32.6l0,0
		c0.9,3.8,1.9,8.9-1.5,11.6l0,0c-25.7,14.6-53.7,21.5-82.7,27.8c-5.9,0.6-12.3,1.9-18.1,2.7l0,0.1l0-0.1c-16.3,2-33.9,2.8-51,2.8
		C183.9,379.4,178.9,379.4,173.9,379.2"/>
	<path id="XMLID_127_" class="st0" d="M342.5,334.4L342.5,334.4 M173.2,336.4L173.2,336.4L173.2,336.4 M240.1,376.6
		c5.8-0.8,12.2-2.1,18.1-2.7c29.1-6.4,57.1-13.2,82.7-27.8l0,0c3.3-2.7,2.4-7.8,1.5-11.6l0,0c-3.8-10.7-7.5-21.5-10.3-32.6l-0.7-0.7
		l-3.7,4.2l-0.1-0.1l0.1,0.1h0v0c-14.9,9.9-32.3,14-49.3,18.8c-14.4,4.1-29.2,7.6-44.4,9.7c-19.5,2-40.3,5.2-60.9,2.5l0-0.2
		c20.5,2.6,41.3-0.6,60.8-2.5c15.2-2.2,29.9-5.6,44.3-9.8c17.1-4.8,34.4-8.8,49.3-18.7l3.7-4.3l0.1-0.1l0.1,0.1l0.7,0.7l-0.1,0.1
		l0,0l0.1-0.1l0,0v0c2.8,11.2,6.5,21.9,10.3,32.6c0.9,3.8,1.9,8.9-1.5,11.8c-25.7,14.6-53.7,21.5-82.8,27.8
		c-5.9,0.6-12.3,1.9-18.1,2.7L240.1,376.6 M84.2,318.1L84.2,318.1L84.2,318.1L84.2,318.1 M173.9,379.4L173.9,379.4L173.9,379.4
		c-7.5-0.3-14.3-0.9-21.7-1.8c-10.8-0.5-20.9-2.7-31.2-4.5l0-0.1l0,0.1c-27.1-5.8-54.4-12.8-78.4-26.3l0.1-0.1l-0.1,0.1
		c-3-2.2-3.7-5.4-3.1-8.7c2.8-10.3,6.8-20.1,9.7-30.4c0.7-2.4,1.1-4.9,2.4-7.1l0.1-0.1l0.1,0.1c9,9.8,21,13.2,32.5,17.3l0,0
		c15.7,4.6,31.3,9.4,47.6,12.5l0,0.1l0,0v-0.1h0c12.9,3.5,27.3,4.5,41.3,5.9l0,0.2c-14.1-1.4-28.4-2.4-41.4-5.9v0
		c-16.3-3.1-31.9-7.9-47.6-12.5h0c-11.5-4.1-23.5-7.5-32.5-17.3c-1.2,2.1-1.6,4.5-2.3,6.9c-2.9,10.3-6.9,20-9.8,30.4
		c-0.5,3.3,0.1,6.4,3.1,8.5c24,13.5,51.3,20.5,78.3,26.3c10.3,1.8,20.4,4,31.2,4.5v0.2l0-0.2l0,0.1v-0.1h0
		c7.3,0.8,14.2,1.5,21.6,1.8c21.7,0.6,45.1,0,66.2-2.6l0,0.2c-16.3,2-34,2.8-51.2,2.8C183.9,379.6,178.8,379.6,173.9,379.4"/>
	<path id="XMLID_124_" class="st2" d="M291.7,302.7L291.7,302.7L291.7,302.7L291.7,302.7 M289.8,304.1c-0.1-0.5,0.1-0.6,0.6-0.7
		c0.4-0.2,1-0.2,1.3-0.6c2.9-0.8,5.3-0.8,8.4-1c-2.8,1.6-5.8,2.4-9,2.4C290.7,304.1,290.3,304.1,289.8,304.1"/>
	<path id="XMLID_120_" class="st2" d="M300.5,301.6L300.5,301.6L300.5,301.6L300.5,301.6 M300.1,301.8c-3.1,0.2-5.5,0.2-8.4,1
		c-0.3,0.4-0.9,0.5-1.3,0.6c-0.5,0.2-0.7,0.2-0.6,0.7C293.5,304.3,296.9,303.6,300.1,301.8 M289.8,304.3L289.8,304.3L289.8,304.3
		c-0.2-0.4-0.2-0.6,0-0.8c0.2-0.2,0.4-0.2,0.6-0.3c0.5-0.1,1-0.2,1.3-0.6l0,0l0,0l0,0.1l0,0l0-0.1c3-0.8,5.5-0.8,8.8-1c0,0,0,0,0,0
		c0,0,0,0,0,0v0.1l0,0.1c-3,1.7-6.1,2.6-9.4,2.6C290.7,304.3,290.3,304.3,289.8,304.3"/>
	<path id="XMLID_119_" class="st2" d="M282.8,313.6c-0.4-0.5-0.3-1.5-0.3-2.1l4.9,1.1C286.3,313.1,284.5,313.6,282.8,313.6
		C282.8,313.6,282.8,313.6,282.8,313.6"/>
	<path id="XMLID_116_" class="st2" d="M287.3,312.7l-4.9-1.1c0,0.6-0.1,1.6,0.3,2.1C284.5,313.6,286.3,313.1,287.3,312.7
		 M282.7,313.8L282.7,313.8c-0.5-0.6-0.4-1.8-0.4-2.4v-0.1l0.1,0l5.3,1.2l0,0.1l0-0.1l0.3,0.1l-0.2,0.1
		C286.7,313.2,284.6,313.8,282.7,313.8L282.7,313.8"/>
	<path id="XMLID_115_" class="st6" d="M332.9,293.3c12.1-3.9,24.7-9.1,31.6-21.5c0.8-2.1,1-4.6,0-6.6c-2.2-2.9-5.3-2.1-8.3-2
		c-4.9,1.4-9.7,2.6-13.9,5.7l-0.6,1.3c1.9,5,3.3,10,4.9,15.1c-0.9,0.7-2.3,1.1-3.3,1.7c-2.1-3-2.4-7.1-4.1-10.5
		c-0.2-3.6-5.2-8.2-0.6-10.8c7-3.7,14.7-6.5,22.8-7.2c2.5,0.1,5.3,1.1,7,3.6c3.5,7.8-1.4,15.2-6.9,20.4c-7,6.2-15.6,9.7-24.2,12.6
		l-4.1,0.5C333.6,294.7,332.5,294.2,332.9,293.3"/>
	<path id="XMLID_114_" class="st6" d="M142.5,330c-1.5,0.4-2.9-0.7-4.5-0.6c-24.6-5.5-49-10.9-71.9-21.1
		c-5.3-3.1-14.3-6.8-13.1-14.6c1.1-2.2,3.2-3,5.4-3.5c11.6,0.4,17.6,13.8,28.7,15.7c3.4,0.8,7.7,1.4,10.2-1.3c0.7-2-1.6-2.9-2.6-3.7
		c-5.3-2.5-11.9-2.3-17.9-2.5c-0.9-0.7-1.9-1.3-2.7-2.4c7.3-0.8,15.1,0.5,22,2c2.3,1.6,5.9,2.1,6.5,5.4c0.4,2.2-0.7,4.1-2.4,4.9
		c-5.4,2.3-10.1,0.9-15.8,0.2c-5.6-1-10.4-4.2-14.6-8.7c-3.3-3.2-6.8-7.2-11.3-5.7c-0.8,0.8-0.9,2.3-0.6,3.4l1,1.7
		c7.4,5.8,15.8,9,24.4,11.9c3.1,0.9,6.5,2.4,9.9,3.4c20.9,5.5,40.7,12,63,14.2c9.3,1.6,20,2,29.4,2.9l0.4-0.4
		c27.6,0.1,52.2-3.1,77.9-9.4c5.5-1.5,10.3-3,15.9-4.3c12.4-3.1,24.8-7.4,36.5-12.9c3.5-2.6,10.2-3.7,9.2-9.5
		c-0.7-1.5-2.7-1.2-4.1-1c-7.6,3.4-12,13.1-20.4,14.3c-6.7,0.7-14.9,4.1-19.9-2.2c-0.1-1.6-0.1-3.3,0.9-4.5
		c4.5-4.3,10.8-4.4,16.8-5.4h10.8c-1.8,4.8-7.3,1.5-10.4,2.7c-4.1,0.6-8.9,0.7-12.3,3.7c-0.4,0.7-1,1.8-0.2,2.5
		c4.6,3.5,10.9,0.4,15.7-1.2c8.4-4.3,14.6-16.3,25.7-12.5c1.4,0.5,2.4,2.2,2.5,3.6c-0.1,3.5-2.5,6.6-5.4,8.5
		c-6.4,5-13.9,7.7-21.3,10.6c-25.4,8.5-52.5,14.9-79.9,18.5c-8,0.4-16,1.6-24.2,2c-1,0-2,0-3.1,0C178.4,334.7,160.4,333.1,142.5,330
		"/>
	<path id="XMLID_111_" class="st2" d="M20.8,269.5L20.8,269.5L20.8,269.5C20.8,269.5,20.8,269.5,20.8,269.5 M20.9,269.5L20.9,269.5
		c-0.1-1.3-0.1-2.7,0.7-3.6c3.6-1.7,7.6,0,11.1,0.9l0-0.1l0,0.1c2.2,0.9,4.4,2.2,6.3,3.4l-4.6,13.3
		C28.6,280.6,23.3,275.7,20.9,269.5"/>
	<path id="XMLID_108_" class="st0" d="M32.8,266.6L32.8,266.6L32.8,266.6 M34.4,283.6c-5.8-2.8-11.3-7.8-13.6-14.1l0,0v0h0.1l-0.1,0
		l0.1,0h-0.1c-0.1-1.3-0.1-2.7,0.8-3.8v0l0,0l0,0.1l0,0l0-0.1c3.7-1.8,7.8,0,11.2,0.8l-0.1,0.2c-3.5-0.8-7.5-2.6-11.1-0.9
		c-0.8,1-0.8,2.3-0.7,3.6v0c2.3,6.2,7.7,11.2,13.4,14l4.6-13.3c-1.8-1.2-4.1-2.5-6.3-3.4l0.1-0.2c2.3,0.9,4.5,2.3,6.4,3.5l0,0.1l0,0
		l0-0.1l0.1,0l0,0.1l-4.7,13.5L34.4,283.6L34.4,283.6"/>
	<path id="XMLID_104_" class="st2" d="M10.4,272.8L10.4,272.8L10.4,272.8L10.4,272.8 M8.2,309.9C8.2,309.9,8.2,309.9,8.2,309.9
		L8.2,309.9L8.2,309.9 M38.8,327.7L38.8,327.7L38.8,327.7L38.8,327.7L38.8,327.7c-11.2-3.6-21.7-9-30.5-17.9
		c-3.8-4.3-7.4-9.6-5.3-15.4l0,0l-0.1,0l0.1,0l-0.1,0c0,0,0,0,0,0l0.1,0c2-7.4,5.4-14.2,7.6-21.6l0,0l0.7-1.3c1.1,3.1,2.9,6.2,5,8.8
		c8.5,10.4,21,14.1,32.8,18c-0.3,3.4-1.9,6.8-2.6,10.2l0.1,0v0v0l-0.1,0c-1.7,5.5-3.5,11-5.3,16.4c-0.6,0.5-0.6,1.5-0.7,2.3
		c-0.1,0.4-0.2,0.7-0.4,0.8c-0.1,0-0.2,0.1-0.3,0.1C39.5,328,39.2,327.9,38.8,327.7"/>
	<path id="XMLID_98_" class="st0" d="M10.4,272.8L10.4,272.8L10.4,272.8L10.4,272.8L10.4,272.8 M16.4,280.2L16.4,280.2L16.4,280.2
		 M49.2,298.2L49.2,298.2L49.2,298.2L49.2,298.2 M41.3,325L41.3,325L41.3,325L41.3,325 M38.7,327.9L38.7,327.9
		c-11.1-3.7-21.8-9-30.6-17.9v0l0.1-0.1l0.1-0.1l-0.1,0.1c-3.8-4.3-7.4-9.7-5.4-15.6h0c2-7.4,5.4-14.3,7.6-21.6v0l0.8-1.5l0.1-0.2
		l0.1,0.2c1.1,3.2,2.9,6.3,5,8.9c8.4,10.4,21,14,32.8,18l0.1,0v0.1c-0.3,3.5-1.9,6.9-2.6,10.3l-0.2,0c0.7-3.4,2.3-6.8,2.6-10.2
		c-11.8-3.9-24.3-7.6-32.8-18c-2.1-2.6-3.9-5.6-5-8.8l-0.7,1.3l0,0c-2.2,7.4-5.6,14.2-7.6,21.6l-0.1,0l0.1,0l-0.1,0l0.1,0l0,0
		c-2,5.7,1.5,11.1,5.3,15.4c8.8,8.9,19.4,14.2,30.5,17.9L38.7,327.9l0.1-0.1l0-0.1h0c0.6,0.3,1,0.4,1.2,0.2s0.4-0.4,0.4-0.8
		c0.2-0.8,0.2-1.8,0.7-2.3c1.8-5.4,3.6-10.9,5.3-16.4l0.2,0.1l-0.1,0l0.1,0v0c-1.7,5.5-3.5,11-5.3,16.4v0l0,0
		c-0.5,0.4-0.5,1.4-0.7,2.2c-0.1,0.4-0.2,0.7-0.6,0.9c-0.1,0.1-0.2,0.1-0.4,0.1C39.4,328.2,39.1,328.1,38.7,327.9"/>
	<path id="XMLID_95_" class="st2" d="M61.6,296.9c2.2,0.7,4,2.6,5.6,4.3C65,300.3,62.4,298.8,61.6,296.9 M67.6,301.5L67.6,301.5
		C67.6,301.5,67.6,301.5,67.6,301.5C67.6,301.5,67.6,301.5,67.6,301.5"/>
	<path id="XMLID_91_" class="st2" d="M67.2,301.2c-1.7-1.7-3.5-3.5-5.6-4.3C62.4,298.8,65,300.3,67.2,301.2 M61.4,296.8l-0.1-0.2
		l0.2,0.1c2.5,0.8,4.4,2.9,6.2,4.7l-0.1,0.1l0,0.1C65.2,300.6,62.2,299,61.4,296.8 M67.6,301.5L67.6,301.5L67.6,301.5L67.6,301.5"/>
	<path id="XMLID_88_" class="st2" d="M93.8,303.4L93.8,303.4C93.8,303.4,93.8,303.4,93.8,303.4L93.8,303.4 M83.8,301.6
		c3.5,0.2,7,0.2,9.9,1.9c0,0.5-0.3,0.5-0.7,0.5c-0.4,0-0.9-0.1-1.2,0.1C89.2,303.5,86,303.3,83.8,301.6"/>
	<path id="XMLID_85_" class="st2" d="M91.8,304.1c0.4-0.2,0.8-0.1,1.2-0.1c0.4,0,0.6,0,0.7-0.5c-2.9-1.7-6.4-1.7-9.9-1.9
		C86,303.3,89.2,303.5,91.8,304.1 M91.8,304.3c-2.6-0.6-6.1-0.8-8.4-2.7l-0.2-0.2l0.3,0c3.6,0.2,7.3,0.2,10.3,2l0,0.1h0l0-0.1l0.1,0
		v0c0,0.3-0.1,0.5-0.3,0.6c-0.2,0.1-0.4,0.1-0.6,0.1C92.6,304.1,92.1,304.1,91.8,304.3L91.8,304.3L91.8,304.3L91.8,304.3L91.8,304.3
		"/>
	<path id="XMLID_84_" class="st2" d="M96.2,312.4c1.6-0.5,3.3-0.7,5-1.1c-0.3,0.9,0,2-0.8,2.3L96.2,312.4"/>
	<path id="XMLID_79_" class="st2" d="M101.4,311.2L101.4,311.2L101.4,311.2L101.4,311.2 M95.9,312.5L95.9,312.5L95.9,312.5
		L95.9,312.5 M100.4,313.6c0.8-0.3,0.5-1.4,0.8-2.3c-1.6,0.4-3.3,0.6-5,1.1L100.4,313.6 M100.4,313.8L100.4,313.8L100.4,313.8
		L100.4,313.8L100.4,313.8l-4.5-1.3l-0.3-0.1l0.3-0.1c1.8-0.6,3.7-0.8,5.5-1.2l0.2-0.1l-0.1,0.2C101.1,312,101.5,313.4,100.4,313.8
		L100.4,313.8"/>
	<path id="XMLID_78_" class="st6" d="M28.4,287c-8.3-4.6-16-13-14.6-22.6c0.6-3.1,3.6-5.7,6.7-6.3c6.3-0.1,12.4,2.2,17.9,4.1
		c2.9,1.5,6.2,2.2,8.6,4.9c-0.6,4.1-2.7,7.6-3.7,11.5c-1.3,2.5-1.4,5.5-2.9,8c-1.2-0.2-2.4-1-3.3-1.6c0.3-2.4,1.4-5.1,1.9-7.4
		c1-2.3,2.2-4.7,2.7-7.2c0.6-2-1.7-2.7-2.9-3.5c-5.1-2.9-11.3-4.9-17.2-4.3c-1.4,0.4-2.8,1.6-3.3,2.9c-1.1,8.6,7,14.6,13.2,19.1
		c5.9,3.5,12.1,6.1,18.6,8.3c0.5,0.6,0,1.8-0.4,2.5C42.1,294,35,291.1,28.4,287"/>
	<path id="XMLID_77_" d="M66.5,346.8l-5.9-18.8l-0.1,0l-4.2,10.4c-0.8,1.9-0.4,2.6,1.4,3.6l-0.3,0.6l-5.9-2.4l0.3-0.7
		c1.6,0.5,2.4,0.6,3.1-1.2l5-12.3c-0.7-2.4-1.1-2.6-1.5-2.8l0.3-0.6l5.5,2.2l4.5,14.8l0,0l3.2-7.9c0.6-1.6,0.7-2.6-1.4-3.6l0.3-0.6
		l5.6,2.3l-0.3,0.6c-2-0.5-2.4,0-2.9,1.3L67.2,347L66.5,346.8"/>
	<path id="XMLID_76_" d="M70.9,348l0.2-0.7c1.6,0.3,2.4,0.5,3-1.1l4.2-12.9c0.6-1.8-0.5-2.2-1.7-2.7l0.2-0.7l15.4,5l-1.7,5.4
		l-0.7-0.2c0.6-4-1.1-5.3-4.7-6.5c-1.5-0.5-2-0.5-2.4,0.6l-2,6.2c2.6,0.8,4.2,0.6,5.6-2.6l0.7,0.2l-2.9,9l-0.7-0.2
		c0.8-3.5-0.3-4.7-3-5.5l-2.1,6.5c-0.4,1.2,0,1.7,1.7,2.2c2.6,0.8,5.6,1,8.6-2.4l0.7,0.2l-2.9,5.2L70.9,348"/>
	<path id="XMLID_75_" d="M106.7,358.5l-1.6-13.9l-0.2,0l-7.9,11.7l-0.8-0.2l-2-17.8c-0.2-1.4-0.4-1.8-1.5-2.2l0.2-0.7l8.1,1.8
		l-0.2,0.7c-1-0.1-1.8-0.3-2,0.7c-0.1,0.3-0.1,0.6,0,1l1,10.6l0.1,0l5.1-7.6l-0.4-2.9c-0.2-0.7-0.4-1-1.8-1.4l0.2-0.7l8.6,2
		l-0.2,0.7c-1.2-0.2-2-0.4-2.2,0.6c-0.1,0.3,0,1,0,1.6l0.8,9.8l0,0l5.2-8.6c0.2-0.3,0.3-0.5,0.5-1.1c0.3-1.1-0.7-1.4-1.6-1.6
		l0.2-0.7l5,1.2l-0.2,0.7c-1-0.1-1.7,0.4-2.3,1.3l-9.3,15.2L106.7,358.5"/>
	<path id="XMLID_74_" d="M125.6,362.3c-6.5-1-9.3-6.1-8.4-11.3c0.9-5.6,5.6-9.3,11.4-8.4c2.5,0.4,4.4,2.1,5.1,2.2
		c0.8,0.1,1.1-0.4,1.5-1.1l0.7,0.1l-1,6.5l-0.7-0.1c-0.6-2.6-2.4-6.2-5.6-6.7c-4.1-0.6-5.8,3.5-6.6,8.1c-0.3,1.7-0.5,4.4,0.2,6.3
		c0.8,2.2,3,3,3.8,3.1c2.2,0.3,4.4-0.2,7.1-2.4l0.7,0.8c-2,1.7-4.1,2.9-6.8,2.9C126.6,362.4,126.1,362.4,125.6,362.3"/>
	<path id="XMLID_71_" d="M138.5,357.1l5.4,0.7l-2-7.1L138.5,357.1 M142.6,364.3l0.1-0.7c1.7,0.1,2.3,0.1,2.4-0.8
		c0.1-0.7-0.5-2.9-0.8-3.9l-6.3-0.8c-1,1.9-1.6,3-1.7,3.5c-0.1,1.1,1.2,1.3,2.1,1.5l-0.1,0.7l-5.7-0.7l0.1-0.7c1.5,0,2-0.9,3.1-2.9
		l8.1-14.5l0.8,0.1l4.4,15.4c0.9,3.1,1.2,4.1,2.6,4.3l-0.1,0.7L142.6,364.3"/>
	<path id="XMLID_70_" d="M159.1,366.3c-2.7-0.2-3.9-1.2-4.7-1.3c-0.6,0-0.8,0.5-0.9,0.9l-0.8,0l0.5-6.9l0.8,0.1
		c0.4,2.9,1.8,6.2,5.3,6.4c3.4,0.2,3.7-2.5,3.7-2.9c0.1-1.9-1.1-2.6-2.9-3.6l-1.8-1c-4.6-2.6-4.5-5.1-4.4-6.4
		c0.1-1.7,1.3-5.5,6.6-5.1c2.3,0.2,3.5,1.2,4.3,1.2c0.6,0.1,0.8-0.4,1-0.9l0.8,0.1l-0.4,6.1l-0.8-0.1c-0.4-2-1.8-5.3-5.1-5.6
		c-1.5-0.1-3.1,0.6-3.2,2.4c-0.1,1.5,0.4,2.2,2.7,3.5l4,2.3c0.9,0.5,2.9,2.3,2.7,5.4c-0.2,2.3-2,5.4-6.6,5.4
		C159.6,366.4,159.4,366.4,159.1,366.3"/>
	<path id="XMLID_69_" d="M170.8,366.6l0-0.7c2.1-0.1,2.7-0.1,2.8-2.5l0.5-14.8c-2,0-4.9,0.1-5.6,4.5l-0.8,0l0.3-5.6l16.9,0.6
		l-0.2,5.6l-0.8,0c-0.4-4.5-3.3-4.8-5.2-4.9l-0.5,14.8c-0.1,2.4,0.6,2.5,2.6,2.7l0,0.7L170.8,366.6"/>
	<path id="XMLID_68_" d="M185.7,367.2v-0.7c1.6-0.2,2.4-0.3,2.4-2v-13.6c0-1.9-1.2-1.9-2.4-2v-0.7h9.8v0.7c-2,0.1-2.8,0.1-2.8,2.6
		v13.3c0,1.4,0.6,1.6,2.5,1.6c4.3,0,5.8-2.3,7.1-5.5h0.8l-1.2,6.4H185.7"/>
	<path id="XMLID_67_" d="M203.5,366.4c1.6-0.3,2.5-0.4,2.4-2.1l-0.7-13.6c-0.1-1.9-1.3-1.9-2.6-1.9l0-0.7l16.2-0.9l0.3,5.6l-0.7,0
		c-0.8-3.9-2.9-4.5-6.7-4.4c-1.5,0.1-2.1,0.2-2,1.4l0.4,6.5c2.7-0.1,4.1-0.9,4.3-4.4l0.7,0l0.5,9.5l-0.7,0c-0.5-3.5-2-4.3-4.8-4.1
		l0.4,6.8c0.1,1.2,0.6,1.5,2.4,1.5c2.8-0.2,5.6-1,7.1-5.4l0.8,0l-0.8,5.9l-16.4,0.9L203.5,366.4"/>
	<path id="XMLID_66_" d="M231.7,364.1c-1.3-0.9-2.1-1.8-2.5-4.9l-1-9.3c-0.2-2.4-1-2.3-2.6-2.3l-0.1-0.7l9.4-1l0.1,0.7
		c-1.8,0.3-2.7,0.4-2.5,2.9l1,9.3c0.2,1.6,0.6,5.5,4.6,5c4.9-0.5,4.5-4.8,4.3-6.6l-0.9-8.5c-0.2-1.7-0.6-2.6-3-2.5l-0.1-0.7l6.2-0.6
		l0.1,0.7c-1.5,0.4-2.1,0.8-1.9,2.6l0.9,8.9c0.2,1.6,0,4.2-1,5.6c-1.2,1.7-3.6,2.5-5.3,2.6c-0.3,0-0.8,0.1-1.3,0.1
		C234.9,365.4,233.1,365.1,231.7,364.1"/>
	<path id="XMLID_65_" d="M247.7,362.8c1.6-0.5,2.4-0.8,2.1-2.6l-2.1-13.2c-1.9-1.7-2.3-1.7-2.7-1.6l-0.1-0.7l5.9-0.9l11.5,10.3h0.1
		l-1.3-8.4c-0.3-1.7-0.7-2.5-3-2.3l-0.1-0.7l6-0.9l0.1,0.7c-2,0.6-2,1.2-1.8,2.6l2.6,16.4l-0.8,0.1l-14.8-13.1l0,0l1.7,11.1
		c0.3,2,1,2.4,3.1,2.3l0.1,0.7l-6.3,1L247.7,362.8"/>
	<path id="XMLID_64_" d="M267.7,359.3c1.5-0.4,2.5-0.8,2.2-2.5l-2.8-13.3c-0.4-1.8-1.7-1.6-3-1.4l-0.2-0.7l9.6-2.1l0.1,0.7
		c-1.3,0.3-2.6,0.6-2.2,2.5l2.8,13.3c0.4,1.7,1.5,1.6,3,1.4l0.1,0.7l-9.6,2.1L267.7,359.3"/>
	<path id="XMLID_63_" d="M282.1,356.1c1.9-0.7,2.6-0.9,2-3.2l-3.8-14.3c-1.9,0.6-4.6,1.5-4,6l-0.8,0.2l-1.4-5.5l16.3-4.4l1.5,5.5
		l-0.8,0.2c-1.7-4.2-4.5-3.6-6.4-3.2l3.8,14.3c0.6,2.3,1.3,2.2,3.3,1.8l0.2,0.7l-9.7,2.6L282.1,356.1"/>
	<path id="XMLID_62_" d="M297.4,352c1.5-0.7,2.3-1,1.7-2.7l-4.4-12.9c-0.6-1.7-1.7-1.4-3-1.1l-0.2-0.7l15.3-5.3l1.8,5.3l-0.7,0.2
		c-1.9-3.6-4-3.6-7.6-2.4c-1.5,0.5-1.9,0.8-1.5,1.9l2.1,6.2c2.6-0.9,3.7-2,3-5.4l0.7-0.2l3.1,9l-0.7,0.2c-1.5-3.2-3.1-3.5-5.7-2.6
		l2.2,6.4c0.4,1.2,1,1.3,2.7,0.7c2.6-0.9,5.1-2.5,5.4-7.1l0.7-0.3l0.8,5.9l-15.5,5.3L297.4,352"/>
	<path id="XMLID_59_" d="M316.5,326.1c-1.6,0.7-1.3,1.4-1.1,1.9l5.7,12.9c0.5,1,0.9,1.4,2.1,0.8c2.9-1.3,4.4-3.9,1.7-10.1
		c-0.9-2-3.2-6-6.5-6C317.8,325.7,317.1,325.8,316.5,326.1 M315.6,345.5c1.6-0.7,1.8-1.7,1.4-2.6l-5.6-12.7
		c-0.7-1.6-1.9-1.1-2.9-0.8l-0.3-0.6l7.8-3.5c7.2-3.2,11.5,0.2,13.3,4.2c2.1,4.7,1.1,10-5.3,13.1l-8.1,3.6L315.6,345.5"/>
	<path id="XMLID_58_" d="M96.5,101.9c1-1,2.5-1,3.7-0.4c1.4,1.1,2.4,3.1,3.3,4.7c-2.1-0.1-5,1.2-6.8-0.4c-1.7-1.7-3.7-2.2-5.8-3.1
		c-0.1-0.3-0.4-0.8,0-1c0.6-0.7,1.5-0.7,2.5-0.7C94.4,101.4,95.3,102.8,96.5,101.9"/>
	<path id="XMLID_57_" d="M114,116.2c-0.1,0.3-0.5,0.4-0.4,0.7c0.8-0.1,2,0.1,2.7,0.6c1,1,0.3,2.2,0.3,3.5c-0.6,0.7-1.6,0.5-2.2,0.2
		c-0.9-0.5-0.8-1.5-1.6-2.1c-0.4,0.4-0.1,1.5-0.9,1.3c-0.8-1.3-1.7-2.6-2.2-4.1c0.5,0.1,1.4,0.7,2.2,0.2c0.5-0.6,1.1-1,1.9-1.1
		C114.2,115.4,114,115.9,114,116.2"/>
	<path id="XMLID_56_" class="st0" d="M101,105.4l-1.9,0.2c-0.5,0.1-1.1-0.1-1.7-0.6c-0.2-0.1-0.3-0.4-0.5-0.5c0.2,0,0.4-0.1,0.6-0.3
		c0,0,0.2,1.1,1.4,1.1c0.8,0,1.2-0.9,1.2-0.9L101,105.4"/>
	<path id="XMLID_55_" d="M274.4,116h0.6c-0.4,1.2-1.6,2.5-2,3.9c-0.9,0.3-0.9-0.8-1.1-1.4c-0.7,0.8-0.8,2.1-2,2.5
		c-0.7,0.2-1.4,0-2-0.6c0.4-1.2-0.8-3.3,1-3.7c0.5-0.1,0.9-0.3,1.5-0.2l0.5,0.4c0.3-0.5-0.4-1.1-0.3-1.8
		C272.3,114.5,272.9,117.6,274.4,116"/>
	<path id="XMLID_54_" class="st0" d="M283.1,105.3c0,0,0.8,0.4,1.5,0.4c0.6,0,1.6-0.2,2.2-0.7c0.2-0.1,0.3-0.4,0.5-0.5
		c-0.2,0-0.4-0.1-0.6-0.3c0,0-0.2,1.1-1.4,1c-0.8,0-1.2-0.9-1.2-0.9L283.1,105.3"/>
	<path id="XMLID_53_" class="st5" d="M99.6,152.1c-0.8-0.8-2.1-1.3-2.9-2C97.8,150.6,98.9,151.2,99.6,152.1"/>
	<path id="XMLID_52_" class="st6" d="M89.8,90.1V91c-7.1,2-15,7.6-17.2,15.2c-3.2,9-2.8,21.1,2.7,29.1c0.3,1.8-0.3,2.9-1.5,3.8
		c-1.8,0.7-4.2,0.5-5.7-0.6c-0.5-0.1-1.1,0-1.1,0.6c0.3,2.2,2.8,2.1,4.5,2.5c3,0,5.7-1.8,7.2-4.3c0.7,0.9,0.1,1.8,0,2.7
		c-1.6,3.4-6,1.7-8.4,2.9c1.1,2.4,4,1.3,5.9,1.4c4.1-1,5.4-7.2,10.3-6c-4,1.8-2.1,8.1-7.4,8c-1.3,0-2.7-0.9-3.7,0.2
		c1.4,1.4,3.7,2.2,5.9,1.6c4-1.3,5.3-8.1,10.7-6.1c0.5,0.2,0.8,0.6,1.4,0.6c-2.2,0-4.5,0-6.5,1.4c-1.8,1.6-2.2,5.2-5.3,4.9
		c-1,0.5-2.6-1-2.9,0.6c0.7,1.4,3.7,0.7,2.7,2.9c2.3,1.9,5.7,0.7,8.2,0.2l0.2,0.3c1.3-0.4,2.5-0.9,3.9-1c2.2,0.5,4.8,0.8,5.8,3.3
		l0.3,1c-2.9-1.9-7.3-3-10.4-1.4c-2.5,0.1-4.1-0.5-6.4-1.1c-0.6,0.2-0.6,0.8-0.2,1.1c4.4,5.6,16.6,1.8,14.8,12.1
		c-0.7,1.3-1.6,2.8-3,3.4c0.8-1.5,1-3.4,0.7-5.1c-1.7-4.9-7-4.8-10.4-7.7c-0.4,0-0.7,0.1-0.9,0.5c-0.4,1.5,1.5,2.1,2.3,2.7
		c2.3,1.2,5.7,1.2,6.8,4.5c0.1,1,0.6,2.6-0.4,3.5c-0.1-2.3-2.2-5.1-4.7-6.5c-3.6-1-6.3-4-7-7.8c-2.8-6.3-10.3-6.9-14.1-12.5
		c-2.3-5.2,0.6-10.1,3.8-14.1c0-0.5-0.1-1.1-0.7-1.1c-3.6,1.5-3.5,6.6-7.4,7.6c1.9-4,1.3-10.4,6.6-11.7c0.2-0.4,0.5-0.7,0.4-1.2
		c-1.6-1.2-3.4,0.7-4.9,1.4c-0.7,0.6-1.3,1.6-2.2,1.8c0.9-2.2,2.9-4.8,5.2-5.4c0.5-0.3,0.7-0.8,0.8-1.2c-0.9-0.8-2,0-3,0l-4.4,2.7
		c-0.3-3.8,4.5-5,6.4-8c-1.5-0.7-3.1,1-4.7,1.6l-2.2,0.6c0.1-0.9,1.3-2,2-2.9c1.5-0.9,3.3-1.3,4.9-2c0.2-0.6-0.3-0.8-0.6-1.2h-0.9
		c0.8-0.7,2.6-0.2,3.1-1.1c-1.2-0.9-2.7-1.5-4.3-1c0-0.1,2.2-0.3,1.8-1.7c-0.5-0.4-0.8-1-1.4-1.2v-0.4c2.3-0.6,4.2,1.5,6.1,2.3
		c0.3-0.2,0.4-0.6,0.4-0.9c-0.7-1.8-2.6-2.5-4.1-3.6c1.4-0.6,2.7,1,4.1,1.6c1.2-2.6-2.4-3.1-3.3-5.3c2.2-1.2,3.6,2,5.4,2.5
		c0.7-0.3,0.3-1.1,0.2-1.6c-0.8-1.6-2.3-2.3-3.3-3.9c2-0.5,2.9,2.2,4.9,3c0.4-0.6,0-1.7-0.5-2.3c-1.1-0.8-1.7-2.2-2.5-3.4
		c2.4-0.2,3.7,2.3,5.7,3.1c0.1-2.3-2.6-4.1-2.2-6.9c3,0.1,3.2,3.8,5.4,4.9c0.4-2.3-1.3-4.3-1.6-6.7c0.9-0.6,2,0.7,3,1.1
		c1.1,1.3,0.7,4.8,3.1,3.8c-0.7-2.1-1.2-4.8,0.4-6.7C87.2,86.3,88,88.7,89.8,90.1"/>
	<path id="XMLID_51_" class="st6" d="M96.9,148c0.1,0.2-0.5-0.1-1.1,0c-1.8-0.5-3.8,0.3-5.6,1.1c-1.5,0.7-2.9,2.1-4.5,1.6
		c2.8-1.6,4.9-5.9,9.6-3.9L96.9,148"/>
	<path id="XMLID_50_" class="st6" d="M90.3,166.9c0.3,1.3,0.3,3-1,3.6c-0.6,0.5-1.1,0.7-2,0.6c-0.4-2.1-0.2-4.5,1.4-5.8
		C89.6,165.3,89.9,166.2,90.3,166.9"/>
	<path id="XMLID_49_" class="st5" d="M88.9,197c4.8,3.1,10.1,5.6,16,5.6c4.2,1.3,9.2,0.1,13.2-0.4c-1.2,3.8-4.6,6.7-8.3,7.6
		c-8,1.2-16.1,0.1-22.7-4.3c-2.7-2.4-6.7-4.8-5.4-9.1c0.8-1,0.7-3.8,2.5-3.2C85.6,194.8,87.1,196.2,88.9,197"/>
	<path id="XMLID_48_" class="st5" d="M109.8,212l2.5-0.9c0,1.7-2.2,2.9-2.9,4.5c-4.8,3-11,3.5-16.8,2.3c-5.6-1.2-11.8-3.3-14.4-8.8
		c-0.9-2.6,0.6-5.2,2.1-7.2C88,210.5,98.9,213.5,109.8,212"/>
	<path id="XMLID_47_" class="st5" d="M101.4,220.2c1-0.4,2.4-0.2,3.4-0.3c0.3-0.1,0.1-0.5,0.6-0.4h0.6c-1.7,4-5.4,6.7-9.7,6.8
		c-7.1,0.3-13.8-1.8-19.1-6.5c-0.9-1.8-3.2-3.4-2.3-5.8c0.8-1,0.6-2.5,1.8-3.5C82.7,217.9,91.7,222.1,101.4,220.2"/>
	<path id="XMLID_46_" class="st5" d="M73.5,218.2c6.2,8.1,15.7,11,25.5,9.7c-2.1,3.9-6,5.7-10.3,5.4c-6.2-0.1-13.2-2.9-16.4-8.8
		c-1.9-2.2,0.4-4,0.8-6.4H73.5"/>
	<path id="XMLID_45_" class="st5" d="M92.8,235.4c-1.9,3.2-4.8,4.3-8.1,4.9c-6.3,0.3-12.5-2.3-15.4-8c-0.7-2.3,0.5-4.8,1.1-7
		C74.9,233.5,83.8,236.3,92.8,235.4"/>
	<path id="XMLID_44_" class="st5" d="M86.7,242c-2,4.4-7,3.5-11.3,3.3c-3.6-0.8-7.3-3.4-8.2-7c0.4-1.3,0-3,0.9-4.1
		C72.3,240.6,79.9,242.9,86.7,242"/>
	<path id="XMLID_43_" class="st5" d="M82.4,247.7c-0.4,1.1-1.2,2.4-2.5,2.7c-3.2,1.2-7.3,0.8-10.5-0.2c-1.1-0.7-2.6-1.6-3.1-2.9
		c-0.5-1.8-0.1-3.7,0.4-5.3C70.3,247.2,76.5,247.9,82.4,247.7"/>
	<path id="XMLID_42_" class="st5" d="M79.7,252.9c0,1.2-0.6,2.2-1.5,2.9c-2.5,0.8-6.2,1.9-9,0.7c-1.3-0.3-2-1.4-2.7-2.3v-3.7
		C70.2,253,75.2,253.6,79.7,252.9"/>
	<path id="XMLID_41_" class="st5" d="M78.6,258c0.1,1.3-0.1,2.6-1.4,3.2c-2.9,1.3-6.4,1.8-9-0.5c-0.9-0.8-0.6-2.1-0.9-3.1
		C70.6,259.2,75,259.7,78.6,258"/>
	<path id="XMLID_40_" class="st5" d="M78.8,263.9c0.5,1.3-0.9,1.9-0.8,3.1c-1.2,0.8-2.4,2-4,1.8c-0.7-0.2-1.7-0.3-2.5-0.4
		c-0.7-1.7-1.9-3.1-2.2-5c2.9,1.5,6.2,0.7,9.2-0.2L78.8,263.9"/>
	<g id="XMLID_37_">
		<defs>
			<path id="XMLID_38_" d="M85.4,280c-5-2-9.6-5.5-12.7-9.9c2.2,0.6,5,0,6.5-1.7c1.3,0.4,1.4,2.2,2.2,3.3c0.6,2.5-3.4,1.6-2.2,3.7
				c1.5,0.4,2.3-0.6,3.3-1.3v-0.4c2.4,0.5,4,3,6.5,2.7c0.4-0.2,0.2-0.6,0.2-1c-1.9-1-3.9-2.3-5.3-4.2c-0.4-0.7-1.2-1.3-1.2-2.2
				c5.6,2.9,13,1.9,17.6,6.8c0.3,0.9,1,2.4,0.2,3.3c-1.9,1.7-4.1,2.2-6.4,2.2C91.2,281.3,88.2,280.5,85.4,280"/>
		</defs>
		<clipPath id="XMLID_306_">
			<use xlink:href="#XMLID_38_"  style="overflow:visible;"/>
		</clipPath>
		<rect id="XMLID_39_" x="72.7" y="268.4" class="st10" width="28.6" height="12.9"/>
	</g>
	<path id="XMLID_36_" class="st5" d="M58.9,216.5l0.2-0.2c-1-2.4-5.2-3.4-3.6-6.7c2-2.2,4.4-0.5,7-0.7c2.2,0.7,4.7,0.4,6.8,0.9
		c-0.9,2.5-4,2.8-5.6,4.5c0.2,2.1,3.3,2.8,2.5,5.2C64.9,218.9,60.5,217,58.9,216.5"/>
	<path id="XMLID_35_" class="st5" d="M97.3,84.2c-0.1,1.9-0.5,3.3-1,4.7c-0.2,0.4,0.4-0.9-0.4-0.8c-0.6-0.3-1,0.4-1.2,0.8
		c-0.5-1.6,1.5-3.1,2.2-4.7H97.3"/>
	<path id="XMLID_34_" class="st5" d="M101.6,88.7c0.5,1.3-0.3,2.5-1.1,3.5v-1.3H99C99.7,90.1,100.4,88.8,101.6,88.7"/>
	<path id="XMLID_33_" class="st6" d="M51.2,174.6c-0.5,9.4,0.7,18.3,7.2,25.3c2.3,2.4,4.7,4.7,7.4,6.7c-3.7,0.3-8.1-1.5-11.6,0.7
		c-1.1,1.2-1.1,3.2-0.8,4.7c1.4,2.2,3.3,3.6,5.5,4.5c1,0.1,5.6,1.9,7.4,3.1c-6.3-1.8-14.9-2.6-20.7,0.8c-5.2,3.1-6.3,9-5.8,14.2
		c0.8,4.9,3.7,9,3.7,14.2c-2.9-4.3-9.6-5.9-10.7-11.6c0.1-3.2-0.8-6-2.3-8.4c0.6-2.5,1.1-5.2,1.7-7.8c0.1-0.7-0.1-1.2-0.6-1.6h-0.2
		v-0.6c1.5-4.2,4.5-8.9,9.6-9.2c1.7-2.1-2.1-2.2-2.7-3.7c-1.1-1.2-1.4-2.7-2.2-4.1c1.7-1.4,4.1-2.2,6.3-1.4c0.4,0.2,0.7,0.6,1.3,0.5
		c0.9-0.5,0.4-1.2,0.2-1.8c-4.6-2.9-5.9-8.8-5.4-13.9c2-2.4,0-6.3,1.2-9.4c0.2-0.4,0.7,0.6,1.3,0.2c1.3-3.6,2.8-7.1,4.7-10.5
		l0.6-0.2c0,0.5,0.2,0.8,0.7,1.1h0.8l5.1-5.2C53.5,165.6,51.1,169.9,51.2,174.6"/>
	<path id="XMLID_32_" class="st6" d="M74.5,205.1l-0.9,2.3c0.9-3.3-4.6-7.4,0.7-8.9c1.3-0.8,2-2.2,2.5-3.6c1.2-3.1-4.6-6,0-7.8
		c2.8-2.6,3.7-7,2.3-10.3c-0.6-0.5-0.4-1.3-0.9-1.8c1.8-1.2,3.2-2.8,4.7-4.5C83.1,183.4,79.3,194.5,74.5,205.1"/>
	<path id="XMLID_31_" d="M49.9,166.7c-0.3,6.3-2.9,12.7-0.7,19.3c0.5,4.7,2.3,8.7,4.4,12.7c0.2,0.7-0.2,1.2-0.7,1.3
		c-1.5,0.2-1.7-1.5-2.3-2.3c-4.2-9.5-4.6-21-1.1-31H49.9"/>
	<path id="XMLID_30_" d="M43.1,182.3v0.6c-0.3,0-0.7,0.2-0.7-0.2c-0.1-0.4,0-0.8,0.4-0.9C42.8,182.1,43.2,181.9,43.1,182.3"/>
	<path id="XMLID_29_" d="M43.3,184.5c1,5.6,2.5,11.1,6.8,15.4c0.2,0.6-0.4,1-0.7,1.2c-1.8-0.2-2.6-2.2-3.6-3.4
		c-2.3-3.9-3.1-8.6-3.5-13.4C42.7,183.9,42.9,184.3,43.3,184.5"/>
	<path id="XMLID_28_" d="M42.7,213.5c0,1.5-1.5,1.3-2.2,2.5c-4.1,3.6-5.3,8.7-6.1,13.9h-0.4c-1-7.1,1.9-13.3,7.4-17
		C42,212.8,42.3,213.3,42.7,213.5"/>
	<path id="XMLID_27_" d="M41.3,223.1c-5.4,7.2-0.7,15.4,0.7,22.8c-1-0.2-1.2-1.5-1.6-2.3c-2.5-6.7-5.8-16.3,0-22.6
		c0.9-0.7,1.6-2,2.7-2.3C45,220.5,41.7,221.5,41.3,223.1"/>
	<path id="XMLID_26_" class="st5" d="M161.8,160.1c-0.3-0.3-0.9-0.9-0.7-1.6C161.4,159,161.7,159.6,161.8,160.1"/>
	<path id="XMLID_25_" class="st5" d="M223.5,160.1c-0.5-0.3-0.1-1,0.4-1.4C223.8,159.2,223.7,159.7,223.5,160.1"/>
	<path id="XMLID_24_" class="st5" d="M105.1,229.9c0.7,3,1.9,6.4,1.1,9.6c0.3,0.2,0.5,0.5,0.8,0.4c2-2.5,1-6.3,0.8-9
		c3.5,4.2,3.8,10.1,4.1,15.6c0.2,0.5,0.6,0.5,0.9,0.3c2-2.3,0.2-5.4,0.7-8.2c2.8,4.1,2.7,10.1,2.3,14.8c0.3,0.2,0.5,0.6,0.8,0.4
		c0.7-0.7,1-1.5,1.1-2.5c0.9,4.8,0.2,10.2-1.6,14.9c0.8-13.1-8.1-24.3-18.7-31.4c0.2-1.3,1.5-2.9,2.9-3.6c0.3,1.5-0.7,3.6,0.6,4.5
		c2.2-2.2-0.7-7,2.5-8.4L105.1,229.9"/>
	<path id="XMLID_23_" class="st5" d="M284.3,235c1-1.4-0.4-3,0.4-4.5c1.2,0.8,2.4,1.9,2.9,3.3c-10.6,7.5-19.5,18.4-18.7,31.8
		c-1.8-4-2.5-9.8-1.6-15.4c0.2,1.1,0.4,2.3,1.4,2.9c1.6-0.9-0.7-3.3,0.4-5.1c0-3.6,0.3-7.5,2.7-10.3c0,3-1,6.4,0.7,8.5
		c0.5,0.2,0.8-0.2,1-0.6c-0.7-5.2,0.6-10.8,3.7-15c0.2,3-1.4,6.6,1.4,8.5l0.4-0.4c-0.3-4.3,0-9,2.7-12.3
		C284.7,228.6,281.7,233,284.3,235"/>
	<path id="XMLID_22_" class="st0" d="M123.2,240.1l-1.1-0.2c1.1-0.9,3-0.6,4.3-1.6c1.6-1.4,2.2-3.3,3.7-4.9
		C128.5,236.1,126.8,239.8,123.2,240.1"/>
	<path id="XMLID_21_" class="st0" d="M127.3,242c-1.1-1.2,1.1-1.8,1.6-3C129,240.4,127.6,240.9,127.3,242"/>
	<path id="XMLID_20_" class="st0" d="M127.1,245.3c1.9-1.8,3.5-4.3,4.5-6.8C131.7,241.2,129.2,243.6,127.1,245.3"/>
	<path id="XMLID_19_" class="st0" d="M258.2,242c-0.8-1.2-1.7-2.3-2.2-3.7C256.5,239.8,259.4,240.1,258.2,242"/>
	<path id="XMLID_18_" class="st0" d="M260.9,242.4v0.7c-0.3,0.1-0.4-0.2-0.6-0.4V242C260.6,241.9,260.7,242.2,260.9,242.4"/>
	<path id="XMLID_17_" class="st0" d="M124.6,243.7c-0.5-0.2,0-0.7,0.2-1.1h0.4L124.6,243.7"/>
	<path id="XMLID_16_" class="st8" d="M135,167.8c0.6,0.3-0.5-1.1-0.5-1.8c0-0.7-0.7,1.5-0.7,1.5S134.4,167.6,135,167.8"/>
	<path id="XMLID_15_" class="st11" d="M167.1,56.5c0.1,5.2-0.1,11.1-0.2,15.9c-0.2,0.4-0.6,0.2-0.9,0.2c-0.3-5.9-0.3-11.2,0-16.8
		C166.4,55.9,167.1,56,167.1,56.5"/>
	<path id="XMLID_14_" class="st11" d="M108.4,125.2c0,0,2.3,0.2,3.1,1.3c0.8,1.1,3,4.5,5.9,3c0,0,0.9,1.5-1.8,1.5
		c-2.5,0-4-1.9-4.7-3.2c-0.7-1.3-1.6-1.7-2.3-1.8L108.4,125.2"/>
	<path id="XMLID_13_" class="st11" d="M276.4,125c0,0-0.8,1.6-2.1,2.1c-1.3,0.5-1.1,1.4-1.3,1.6c0,0-2.1,2.1-3.9,2.1
		c-1.8,0-1.6-0.3-1.7-0.9c-0.2-0.6,0.6-0.8,1.1-0.5c0.5,0.3,1.5,0.9,3.1-1.2C273,126.1,275.5,124.7,276.4,125"/>
	<path id="XMLID_12_" class="st6" d="M144.3,181.5c4.6,17.2-2.1,33.3-6.1,49c0.7-3.5,1.2-7.6,1-11.3c-2.1-6,2.2-11.6-0.4-17.2
		c0.2-2.4-1.1-4.8-2.9-6.7c-0.2-4.2,0.6-8.9-2.2-12.1c-1.5,0.2-3.5,0.7-4.7-0.4c1-4.3,2.5-8.3,3.8-12.5
		C138.7,171.1,142.8,176.4,144.3,181.5"/>
	<path id="XMLID_11_" class="st11" d="M171,5.2c0.7,0.8,0.5,2.2,0.2,3.2c-0.5,0.6-0.9,0.8-1.5,0.9c0.3-1.2,1.1-2.3,0.6-3.7
		c-1-1.2-2.2-2.8-3.9-2.8c-1.6,0.2-3,1.2-3.8,2.5c-1.5,2.3,0.9,4.2,1.1,6.1c-1.1-0.6-2-1.4-2.5-2.5c-0.5-1.7-0.2-3.5,0.7-4.9
		c2.1-1.1,4.6-2.9,7-1.4C169.8,3.5,170.5,4.2,171,5.2"/>
	<path id="XMLID_10_" class="st11" d="M167.4,7.3l-0.5,2.5c0.2,10.5,0.6,20.6,0.5,31.4c-0.5,0.5-0.6,1.5-1.4,1.4
		c-0.1-13-0.7-24.3-0.2-36.1C166.4,6.6,167.4,6.5,167.4,7.3"/>
	<path id="XMLID_9_" class="st6" d="M66.1,231.1c-0.7-1.7-0.9-3.5-2.2-4.9c2.3-1.1,4.9-3.6,4.9-6.5c0.2-1.8-1-3.1-1.6-4.7
		c1.5-1.6,3.8-2.6,5.1-4.7C69.6,217,68.2,224.4,66.1,231.1"/>
	<path id="XMLID_8_" class="st6" d="M64.5,240.8c-0.6,0-1.4-1.6-2.2-2.2c0.9-0.8,2.2-2.2,2.9-3.5C65.1,237.1,65.1,239.1,64.5,240.8"
		/>
	<path id="XMLID_7_" class="st6" d="M162.9,302.5c-3.8-1.6-6.9-4.1-10.6-5.9c-2.3-1.7-4.9-2.7-7-4.7c-13.4-7.6-22.1-19.6-21.9-35.1
		c0.7-2.7-0.6-6.5,0.5-9c1.1-0.6,2.8,0.5,4.2-0.2l0.8-0.4c0.2,0.6-0.6,1.9,0.6,2.5c1.5,0.1,2.7-0.4,4.1-0.8
		c-1.7,15.9,6.2,29.6,19.9,36.9c13.5,7.5,27.8,14.1,39.2,26c1.8,0.1,1.8-2,2.9-2.8c13-12.6,29.9-17.9,43.9-28.6
		c9.4-8.2,13.7-19.6,12.2-31.9c1.7,0,3.7,1.8,5.1,0l-0.7-2.2c1.4,1.2,3.6,1.3,5.1,0.5c0.8,1.2,0.8,3.5,0.8,5.1
		c1.2,15.7-5.5,29.6-18.8,37.4c-16.7,12.2-36.2,19.6-50.1,36.3l-0.6,0.2C184.6,315.7,173.1,309.2,162.9,302.5"/>
	<path id="XMLID_6_" class="st0" d="M178.1,296.2c-1.8-1.5-15.5-8.8-15.5-8.8l0.2-107c0,0,13.1-2.2,17.3-4.5V297
		c0,0-0.1,0.2-0.3,0.2C179.6,297.1,179,297,178.1,296.2"/>
	<path id="XMLID_5_" class="st0" d="M204.8,175.9c0,0,6.7,2.6,10.3,3.2c3.6,0.5,6.6,0.9,6.9,1.9v106.8c0,0-15.4,8.6-17.2,9.9
		L204.8,175.9"/>
	<path id="XMLID_4_" class="st0" d="M166.7,82.2l0.1,51.7l-0.6,4.6c0,0-0.6-7.8-0.6-11.9c0-4.2,0-43,0-43S165.7,82.2,166.7,82.2"/>
</g>
</svg>
