<?xml version="1.0" encoding="utf-8"?>
<!-- Generator: Adobe Illustrator 21.0.0, SVG Export Plug-In . SVG Version: 6.00 Build 0)  -->
<svg version="1.1" id="Layer_1" xmlns="http://www.w3.org/2000/svg" xmlns:xlink="http://www.w3.org/1999/xlink" x="0px" y="0px"
	 viewBox="0 0 205.5 231.5" style="enable-background:new 0 0 205.5 231.5;" xml:space="preserve">
<style type="text/css">
	.st0{fill:#4C4C4C;}
	.st1{fill:#898989;}
	.st2{fill:#211E1F;}
	.st3{fill:none;stroke:#FFFFFF;stroke-width:2.356;}
	.st4{fill:#FFFFFF;}
	.st5{fill:#ED1A3B;}
	.st6{fill:#00AEEF;}
	.st7{fill:none;stroke:#211E1F;stroke-width:1.441;}
	.st8{fill:#FFC40D;}
	.st9{fill:none;stroke:#FFC40D;stroke-width:0.571;}
	.st10{fill:#22B24C;}
	.st11{fill:none;stroke:#211E1F;stroke-width:5.901;}
	.st12{fill:#FFC20E;}
	.st13{fill:none;stroke:#211E1F;stroke-width:4.704;}
	.st14{fill:none;stroke:#211E1F;stroke-width:2.000000e-03;}
	.st15{fill:none;stroke:#211E1F;stroke-width:9.436;}
</style>
<g>
	<g>
		<path class="st0" d="M22.4,447l1.2,6c0.3,1.3,0.5,2.7,0.7,3.9h0.1c0.2-1.3,0.5-2.7,0.8-3.9l1.4-6.1h1.5l1.4,5.9
			c0.3,1.4,0.6,2.7,0.8,4.1h0.1c0.2-1.3,0.4-2.6,0.7-4l1.2-6h2L31,459.3h-1.6l-1.4-6c-0.3-1.2-0.5-2.3-0.7-3.7h-0.1
			c-0.2,1.5-0.4,2.6-0.7,3.8l-1.5,5.9h-1.7l-3-12.3H22.4z"/>
		<path class="st0" d="M38.6,447l1.2,6c0.3,1.3,0.5,2.7,0.7,3.9h0.1c0.2-1.3,0.5-2.7,0.8-3.9l1.4-6.1h1.5l1.4,5.9
			c0.3,1.4,0.6,2.7,0.8,4.1h0.1c0.2-1.3,0.4-2.6,0.7-4l1.2-6h2l-3.1,12.3h-1.6l-1.4-6c-0.3-1.2-0.5-2.3-0.7-3.7h-0.1
			c-0.2,1.5-0.4,2.6-0.7,3.8l-1.5,5.9h-1.7l-3-12.3H38.6z"/>
		<path class="st0" d="M54.9,447l1.2,6c0.3,1.3,0.5,2.7,0.7,3.9h0.1c0.2-1.3,0.5-2.7,0.8-3.9L59,447h1.5l1.4,5.9
			c0.3,1.4,0.6,2.7,0.8,4.1h0.1c0.2-1.3,0.4-2.6,0.7-4l1.2-6h2l-3.1,12.3h-1.6l-1.4-6c-0.3-1.2-0.5-2.3-0.7-3.7h-0.1
			c-0.2,1.5-0.4,2.6-0.7,3.8l-1.5,5.9h-1.7l-3-12.3H54.9z"/>
		<path class="st0" d="M68.3,458c0-0.9,0.6-1.5,1.3-1.5c0.8,0,1.3,0.6,1.3,1.5c0,0.9-0.5,1.5-1.3,1.5
			C68.9,459.5,68.3,458.9,68.3,458z"/>
		<path class="st0" d="M74.7,441.7h2v17.6h-2V441.7z"/>
		<path class="st0" d="M88.4,453.1c0,4.8-2.2,6.4-4.1,6.4c-2.2,0-4-2-4-6.3c0-4.5,2-6.4,4.1-6.4C86.6,446.8,88.4,448.9,88.4,453.1z
			 M82.3,453.1c0,2,0.4,4.8,2.1,4.8c1.7,0,2-2.9,2-4.8c0-1.9-0.4-4.8-2.1-4.8C82.6,448.3,82.3,451.2,82.3,453.1z"/>
		<path class="st0" d="M99.3,457.7c0,3.2-0.4,4.5-1.2,5.4c-0.7,0.8-1.9,1.3-3.3,1.3c-1,0-2.1-0.3-2.7-0.6l0.5-1.5
			c0.5,0.3,1.3,0.5,2.3,0.5c1.6,0,2.5-1,2.5-3.8v-1.2h-0.1c-0.4,1-1.3,1.5-2.4,1.5c-2.2,0-3.6-2.5-3.6-6.1c0-4.5,2.1-6.4,3.9-6.4
			c1.3,0,1.9,0.9,2.3,1.6h0.1l0.1-1.4h1.7c0,0.8-0.1,1.9-0.1,3.9V457.7z M97.4,451.2c0-0.3,0-0.6-0.1-0.9c-0.2-0.8-0.7-1.9-1.8-1.9
			c-1.4,0-2.2,1.9-2.2,4.6c0,3.1,1,4.6,2.2,4.6c0.6,0,1.4-0.3,1.8-1.8c0.1-0.4,0.1-0.8,0.1-1.1V451.2z"/>
		<path class="st0" d="M110.9,453.1c0,4.8-2.2,6.4-4.1,6.4c-2.2,0-4-2-4-6.3c0-4.5,2-6.4,4.1-6.4
			C109.1,446.8,110.9,448.9,110.9,453.1z M104.8,453.1c0,2,0.4,4.8,2.1,4.8c1.7,0,2-2.9,2-4.8c0-1.9-0.4-4.8-2.1-4.8
			C105.1,448.3,104.8,451.2,104.8,453.1z"/>
		<path class="st0" d="M115.7,453.3c0,3.8,1.5,4.6,2.9,4.6c0.9,0,1.6-0.2,2-0.5l0.3,1.4c-0.7,0.4-1.7,0.6-2.7,0.6
			c-3,0-4.5-2.4-4.5-6.2c0-4,1.7-6.5,4.2-6.5c2.5,0,3.5,2.7,3.5,5.4c0,0.5,0,0.8-0.1,1.1H115.7z M119.6,451.9c0-2.4-0.9-3.5-1.8-3.5
			c-1.3,0-1.9,1.9-2,3.5H119.6z"/>
		<path class="st0" d="M124.9,450.8c0-1.9-0.1-3-0.1-3.9h1.7l0.1,1.6h0.1c0.7-1.3,1.7-1.8,2.6-1.8c2.2,0,3.6,2.3,3.6,6.3
			c0,4.6-1.9,6.4-3.8,6.4c-1.2,0-1.8-0.7-2.2-1.4h-0.1v6.1h-1.9V450.8z M126.8,454.8c0,0.4,0,0.7,0.1,1c0.4,1.8,1.3,2.1,1.8,2.1
			c1.6,0,2.2-2.2,2.2-4.7c0-2.5-0.6-4.7-2.2-4.7c-0.9,0-1.7,1.1-1.8,2.2c-0.1,0.3-0.1,0.6-0.1,0.9V454.8z"/>
		<path class="st0" d="M136,457.3c0.4,0.3,1.2,0.6,2,0.6c1.1,0,1.8-0.7,1.8-1.8c0-0.9-0.3-1.6-1.6-2.4c-1.6-1-2.5-2.1-2.5-3.5
			c0-2,1.5-3.4,3.4-3.4c1,0,1.7,0.3,2.2,0.6l-0.5,1.5c-0.5-0.3-1-0.6-1.7-0.6c-1,0-1.6,0.8-1.6,1.6c0,0.8,0.3,1.3,1.5,2.1
			c1.4,0.9,2.6,2,2.6,3.7c0,2.5-1.7,3.7-3.7,3.7c-0.9,0-1.9-0.3-2.4-0.7L136,457.3z"/>
		<path class="st0" d="M144.5,458c0-0.9,0.6-1.5,1.3-1.5c0.8,0,1.3,0.6,1.3,1.5c0,0.9-0.5,1.5-1.3,1.5
			C145.1,459.5,144.5,458.9,144.5,458z"/>
		<path class="st0" d="M156.9,459c-0.4,0.3-1.2,0.5-2,0.5c-2.7,0-4.5-2.2-4.5-6.2c0-3.5,1.8-6.4,4.9-6.4c0.7,0,1.4,0.2,1.7,0.4
			l-0.4,1.6c-0.3-0.1-0.8-0.3-1.4-0.3c-2,0-2.9,2.3-2.9,4.8c0,2.9,1.1,4.6,2.9,4.6c0.5,0,1-0.1,1.4-0.3L156.9,459z"/>
		<path class="st0" d="M167.3,453.1c0,4.8-2.2,6.4-4.1,6.4c-2.2,0-4-2-4-6.3c0-4.5,2-6.4,4.1-6.4
			C165.5,446.8,167.3,448.9,167.3,453.1z M161.1,453.1c0,2,0.4,4.8,2.1,4.8c1.7,0,2-2.9,2-4.8c0-1.9-0.4-4.8-2.1-4.8
			C161.5,448.3,161.1,451.2,161.1,453.1z"/>
		<path class="st0" d="M170.7,450.2c0-1.5-0.1-2.2-0.1-3.2h1.7l0.1,1.5h0.1c0.5-1,1.5-1.7,2.8-1.7c1.1,0,2.1,0.5,2.6,1.9h0.1
			c0.3-0.6,0.8-1.1,1.2-1.4c0.5-0.3,1.1-0.5,1.7-0.5c1.7,0,3,1.2,3,4.4v8.2h-1.9v-7.7c0-1.6-0.2-3.2-1.7-3.2c-0.8,0-1.5,0.7-1.8,1.9
			c-0.1,0.3-0.1,0.7-0.1,1.1v7.9h-1.9v-8.1c0-1.4-0.2-2.8-1.7-2.8c-0.8,0-1.6,0.7-1.8,2c-0.1,0.3-0.1,0.7-0.1,1v7.8h-1.9V450.2z"/>
	</g>
	<g>
		<path class="st1" d="M-166.6,435.6v-1.1l1.2-1.6c1.7-2.4,3.7-5.1,3.7-7.7c0-1.6-0.7-2.6-2-2.6c-1,0-1.7,0.5-2.1,0.8l-0.4-1.3
			c0.5-0.4,1.5-1,2.8-1c2.4,0,3.4,1.8,3.4,3.9c0,2.7-1.7,5.3-3.5,7.7l-0.9,1.3v0h4.8v1.5H-166.6z"/>
		<path class="st1" d="M-149.9,428.4c0,5.2-1.6,7.3-3.7,7.3c-2.2,0-3.6-2.6-3.6-7.3c0-4.8,1.4-7.3,3.8-7.3
			C-151.1,421.1-149.9,423.8-149.9,428.4z M-155.4,428.4c0,3.5,0.6,5.9,2,5.9c1.4,0,1.9-2.4,1.9-5.9c0-3.3-0.6-5.9-1.9-5.9
			C-154.8,422.6-155.4,425-155.4,428.4z"/>
		<path class="st1" d="M-140.3,428.4c0,5.2-1.7,7.3-3.7,7.3c-2.2,0-3.6-2.6-3.6-7.3c0-4.8,1.4-7.3,3.8-7.3
			C-141.5,421.1-140.3,423.8-140.3,428.4z M-145.9,428.4c0,3.5,0.6,5.9,2,5.9c1.4,0,1.9-2.4,1.9-5.9c0-3.3-0.5-5.9-1.9-5.9
			C-145.3,422.6-145.9,425-145.9,428.4z"/>
		<path class="st1" d="M-138.2,438.3c0.5-1.3,1.1-3.6,1.3-5.1l1.9-0.2c-0.5,1.8-1.4,4.2-2,5.2L-138.2,438.3z"/>
		<path class="st1" d="M-125.3,428.4c0,5.2-1.7,7.3-3.7,7.3c-2.2,0-3.6-2.6-3.6-7.3c0-4.8,1.4-7.3,3.8-7.3
			C-126.6,421.1-125.3,423.8-125.3,428.4z M-130.9,428.4c0,3.5,0.6,5.9,2,5.9c1.4,0,1.9-2.4,1.9-5.9c0-3.3-0.5-5.9-1.9-5.9
			C-130.3,422.6-130.9,425-130.9,428.4z"/>
		<path class="st1" d="M-115.8,428.4c0,5.2-1.6,7.3-3.7,7.3c-2.2,0-3.6-2.6-3.6-7.3c0-4.8,1.4-7.3,3.8-7.3
			C-117,421.1-115.8,423.8-115.8,428.4z M-121.4,428.4c0,3.5,0.6,5.9,2,5.9c1.4,0,1.9-2.4,1.9-5.9c0-3.3-0.6-5.9-1.9-5.9
			C-120.8,422.6-121.4,425-121.4,428.4z"/>
		<path class="st1" d="M-106.2,428.4c0,5.2-1.6,7.3-3.7,7.3c-2.2,0-3.6-2.6-3.6-7.3c0-4.8,1.4-7.3,3.8-7.3
			C-107.4,421.1-106.2,423.8-106.2,428.4z M-111.8,428.4c0,3.5,0.6,5.9,2,5.9c1.4,0,1.9-2.4,1.9-5.9c0-3.3-0.6-5.9-1.9-5.9
			C-111.2,422.6-111.8,425-111.8,428.4z"/>
		<path class="st1" d="M-97.3,423.8v5.2h5.1v1.2h-5.1v5.3h-1.3v-5.3h-5v-1.2h5v-5.2H-97.3z"/>
		<path class="st1" d="M-84.6,420.3h1.7v5.9h0c0.6-1.1,1.3-1.4,2.3-1.4c1.7,0,2.9,1.9,2.9,5.4c0,3.8-1.6,5.6-3.2,5.6
			c-1.1,0-1.7-0.7-2.1-1.6h-0.1l-0.1,1.4h-1.4c0-0.6,0.1-1.8,0.1-2.6V420.3z M-82.9,431.8c0,0.2,0,0.5,0.1,0.7
			c0.4,1.6,1.1,1.8,1.6,1.8c1.4,0,1.8-1.8,1.8-4.1c0-2.1-0.5-4-1.9-4c-0.8,0-1.4,1-1.6,1.9c0,0.2,0,0.5,0,0.7V431.8z"/>
		<path class="st1" d="M-74.7,427.7c0-0.9-0.1-2-0.1-2.8h1.5l0.1,1.7h0c0.4-1,1.3-1.8,2.2-1.8c0.1,0,0.2,0,0.4,0v1.7
			c-0.1,0-0.2,0-0.4,0c-1.1,0-1.9,1-2,2.2c0,0.3-0.1,0.6-0.1,1v5.9h-1.7V427.7z"/>
		<path class="st1" d="M-62.6,433.2c0,0.8,0,1.7,0.1,2.4h-1.5l-0.1-1.1h-0.1c-0.5,0.8-1.2,1.3-2.1,1.3c-1.4,0-2.5-1.2-2.5-3
			c0-2.7,2.1-3.9,4.5-3.9v-0.3c0-1.4-0.4-2.4-1.7-2.4c-0.7,0-1.3,0.2-1.8,0.5l-0.4-1.2c0.5-0.3,1.4-0.7,2.5-0.7c2.1,0,3,1.4,3,3.8
			V433.2z M-64.3,430.1c-0.9,0-2.9,0.2-2.9,2.5c0,1.4,0.7,1.9,1.3,1.9c0.7,0,1.4-0.5,1.6-1.6c0-0.2,0.1-0.4,0.1-0.6V430.1z"/>
		<path class="st1" d="M-59.2,427.7c0-1.3-0.1-1.9-0.1-2.8h1.5l0.1,1.3h0c0.5-0.9,1.3-1.5,2.4-1.5c1.5,0,2.6,1.1,2.6,3.7v7.2h-1.7
			v-6.8c0-1.3-0.2-2.5-1.5-2.5c-0.7,0-1.4,0.6-1.6,1.7c-0.1,0.3-0.1,0.6-0.1,1v6.7h-1.7V427.7z"/>
		<path class="st1" d="M-42.7,420.3V433c0,0.7,0.1,1.9,0.1,2.6h-1.5l-0.1-1.3h-0.1c-0.4,0.7-1.1,1.5-2.2,1.5c-1.8,0-3.1-1.9-3.1-5.5
			c0-3.8,1.6-5.5,3.2-5.5c0.8,0,1.5,0.4,2,1.3h0v-5.7H-42.7z M-44.4,429c0-0.2,0-0.5,0-0.7c-0.1-1.1-0.8-2.1-1.6-2.1
			c-1.4,0-1.9,2-1.9,4.1c0,2.2,0.6,4,1.8,4c0.5,0,1.3-0.3,1.6-1.8c0-0.2,0.1-0.4,0.1-0.7V429z"/>
		<path class="st1" d="M-34.7,420.3h1.7v15.2h-1.7V420.3z"/>
		<path class="st1" d="M-22.9,430.3c0,4.1-1.9,5.5-3.5,5.5c-1.9,0-3.5-1.7-3.5-5.5c0-3.9,1.7-5.5,3.6-5.5
			C-24.4,424.8-22.9,426.6-22.9,430.3z M-28.2,430.3c0,1.8,0.3,4.2,1.8,4.2c1.5,0,1.8-2.5,1.8-4.2c0-1.6-0.3-4.1-1.8-4.1
			C-27.9,426.1-28.2,428.6-28.2,430.3z"/>
		<path class="st1" d="M-13.5,434.2c0,2.8-0.4,3.9-1.1,4.6c-0.6,0.7-1.6,1.1-2.8,1.1c-0.9,0-1.8-0.2-2.3-0.5l0.4-1.3
			c0.4,0.2,1.1,0.5,2,0.5c1.3,0,2.2-0.8,2.2-3.3v-1.1h0c-0.4,0.8-1.1,1.3-2,1.3c-1.9,0-3.1-2.1-3.1-5.3c0-3.9,1.8-5.5,3.4-5.5
			c1.1,0,1.6,0.7,2,1.3h0l0.1-1.2h1.5c0,0.7-0.1,1.7-0.1,3.3V434.2z M-15.1,428.6c0-0.3,0-0.6-0.1-0.8c-0.2-0.7-0.6-1.6-1.5-1.6
			c-1.2,0-1.9,1.7-1.9,4c0,2.7,0.9,3.9,1.9,3.9c0.5,0,1.2-0.2,1.5-1.5c0.1-0.3,0.1-0.7,0.1-1V428.6z"/>
		<path class="st1" d="M-3.5,430.3c0,4.1-1.9,5.5-3.5,5.5c-1.9,0-3.5-1.7-3.5-5.5c0-3.9,1.7-5.5,3.6-5.5
			C-5,424.8-3.5,426.6-3.5,430.3z M-8.8,430.3c0,1.8,0.3,4.2,1.8,4.2c1.5,0,1.8-2.5,1.8-4.2c0-1.6-0.3-4.1-1.8-4.1
			C-8.5,426.1-8.8,428.6-8.8,430.3z"/>
		<path class="st1" d="M-0.8,433.8c0.4,0.2,1,0.5,1.7,0.5c0.9,0,1.6-0.6,1.6-1.5c0-0.8-0.3-1.4-1.4-2.1c-1.4-0.9-2.1-1.8-2.1-3
			c0-1.7,1.3-2.9,2.9-2.9c0.8,0,1.5,0.3,1.9,0.5l-0.4,1.3c-0.4-0.3-0.9-0.5-1.4-0.5c-0.9,0-1.4,0.7-1.4,1.4c0,0.7,0.3,1.1,1.3,1.8
			c1.2,0.8,2.2,1.8,2.2,3.2c0,2.1-1.5,3.2-3.2,3.2c-0.8,0-1.6-0.2-2.1-0.6L-0.8,433.8z"/>
		<path class="st1" d="M13.4,422.2c0,0.7-0.4,1.1-1,1.1c-0.5,0-1-0.4-1-1.1c0-0.7,0.4-1.1,1-1.1C13,421.1,13.4,421.5,13.4,422.2z
			 M11.5,435.6v-10.6h1.7v10.6H11.5z"/>
		<path class="st1" d="M16.7,427.7c0-1.3-0.1-1.9-0.1-2.8h1.5l0.1,1.3h0c0.5-0.9,1.3-1.5,2.4-1.5c1.5,0,2.6,1.1,2.6,3.7v7.2h-1.7
			v-6.8c0-1.3-0.2-2.5-1.5-2.5c-0.7,0-1.4,0.6-1.6,1.7c-0.1,0.3-0.1,0.6-0.1,1v6.7h-1.7V427.7z"/>
		<path class="st1" d="M32.1,424.9l1.3,6c0.2,0.7,0.3,1.7,0.5,2.6H34c0.1-0.9,0.3-1.8,0.4-2.6l1.3-6h1.7l-2.8,10.6h-1.5l-2.8-10.6
			H32.1z"/>
		<path class="st1" d="M40.9,430.4c0,3.3,1.3,4,2.5,4c0.7,0,1.3-0.2,1.8-0.4l0.3,1.2c-0.6,0.3-1.5,0.5-2.4,0.5
			c-2.6,0-3.9-2.1-3.9-5.3c0-3.4,1.5-5.6,3.6-5.6c2.2,0,3,2.3,3,4.7c0,0.4,0,0.7,0,1H40.9z M44.2,429.2c0-2.1-0.8-3.1-1.6-3.1
			c-1.1,0-1.7,1.6-1.7,3.1H44.2z"/>
		<path class="st1" d="M54,435.3c-0.4,0.2-1,0.4-1.8,0.4c-2.3,0-3.9-1.9-3.9-5.4c0-3.1,1.5-5.5,4.2-5.5c0.6,0,1.2,0.2,1.5,0.3
			l-0.3,1.4c-0.2-0.1-0.7-0.3-1.2-0.3c-1.7,0-2.5,2-2.5,4.1c0,2.5,0.9,4,2.5,4c0.4,0,0.8-0.1,1.2-0.3L54,435.3z"/>
		<path class="st1" d="M58.9,422.4v2.5h2v1.3h-2v6.3c0,1.4,0.5,1.8,1.1,1.8c0.3,0,0.5,0,0.7-0.1l0.1,1.3c-0.3,0.1-0.7,0.2-1.3,0.2
			c-0.7,0-1.3-0.2-1.7-0.6c-0.4-0.5-0.6-1.2-0.6-2.7v-6.2h-1.3v-1.3h1.3v-1.8L58.9,422.4z"/>
		<path class="st1" d="M69.9,430.3c0,4.1-1.9,5.5-3.5,5.5c-1.9,0-3.5-1.7-3.5-5.5c0-3.9,1.7-5.5,3.6-5.5
			C68.4,424.8,69.9,426.6,69.9,430.3z M64.6,430.3c0,1.8,0.3,4.2,1.8,4.2c1.5,0,1.8-2.5,1.8-4.2c0-1.6-0.3-4.1-1.8-4.1
			C64.9,426.1,64.6,428.6,64.6,430.3z"/>
		<path class="st1" d="M72.9,427.7c0-0.9-0.1-2-0.1-2.8h1.5l0.1,1.7h0c0.4-1,1.3-1.8,2.2-1.8c0.1,0,0.2,0,0.4,0v1.7
			c-0.1,0-0.2,0-0.4,0c-1.1,0-1.9,1-2,2.2c0,0.3-0.1,0.6-0.1,1v5.9h-1.7V427.7z"/>
		<path class="st1" d="M84.4,435.6v-9.4H83v-1.3h1.3v-0.6c0-1.2,0.2-2.3,0.9-3.2c0.6-0.7,1.5-0.9,2.1-0.9c0.6,0,1,0.1,1.3,0.3
			l-0.3,1.3c-0.2-0.1-0.5-0.2-0.9-0.2c-1.2,0-1.5,1.3-1.5,2.7v0.7H88v1.3h-1.9v9.4H84.4z"/>
		<path class="st1" d="M96.6,430.3c0,4.1-1.9,5.5-3.5,5.5c-1.9,0-3.5-1.7-3.5-5.5c0-3.9,1.7-5.5,3.6-5.5
			C95.1,424.8,96.6,426.6,96.6,430.3z M91.3,430.3c0,1.8,0.3,4.2,1.8,4.2c1.5,0,1.8-2.5,1.8-4.2c0-1.6-0.3-4.1-1.8-4.1
			C91.6,426.1,91.3,428.6,91.3,430.3z"/>
		<path class="st1" d="M99.6,427.7c0-0.9-0.1-2-0.1-2.8h1.5l0.1,1.7h0c0.4-1,1.3-1.8,2.2-1.8c0.1,0,0.2,0,0.4,0v1.7
			c-0.1,0-0.2,0-0.4,0c-1.1,0-1.9,1-2,2.2c0,0.3-0.1,0.6-0.1,1v5.9h-1.7V427.7z"/>
		<path class="st1" d="M106.2,427.7c0-1.3-0.1-1.9-0.1-2.8h1.5l0.1,1.3h0c0.5-0.9,1.3-1.5,2.4-1.5c1,0,1.8,0.5,2.2,1.6h0
			c0.3-0.5,0.7-1,1.1-1.2c0.4-0.3,0.9-0.4,1.5-0.4c1.4,0,2.6,1,2.6,3.8v7h-1.7v-6.7c0-1.4-0.2-2.7-1.5-2.7c-0.7,0-1.3,0.6-1.6,1.6
			c0,0.3-0.1,0.6-0.1,0.9v6.8H111v-7c0-1.2-0.2-2.4-1.5-2.4c-0.7,0-1.4,0.6-1.6,1.7c0,0.3-0.1,0.6-0.1,0.9v6.8h-1.7V427.7z"/>
		<path class="st1" d="M126.5,433.2c0,0.8,0,1.7,0.1,2.4h-1.5l-0.1-1.1h-0.1c-0.5,0.8-1.2,1.3-2.1,1.3c-1.4,0-2.5-1.2-2.5-3
			c0-2.7,2.1-3.9,4.5-3.9v-0.3c0-1.4-0.4-2.4-1.7-2.4c-0.7,0-1.3,0.2-1.8,0.5l-0.4-1.2c0.5-0.3,1.4-0.7,2.5-0.7c2.1,0,3,1.4,3,3.8
			V433.2z M124.9,430.1c-0.9,0-2.9,0.2-2.9,2.5c0,1.4,0.7,1.9,1.3,1.9c0.7,0,1.4-0.5,1.6-1.6c0-0.2,0.1-0.4,0.1-0.6V430.1z"/>
		<path class="st1" d="M131.9,422.4v2.5h2v1.3h-2v6.3c0,1.4,0.5,1.8,1.1,1.8c0.3,0,0.5,0,0.7-0.1l0.1,1.3c-0.3,0.1-0.7,0.2-1.3,0.2
			c-0.7,0-1.3-0.2-1.7-0.6c-0.4-0.5-0.6-1.2-0.6-2.7v-6.2h-1.3v-1.3h1.3v-1.8L131.9,422.4z"/>
		<path class="st1" d="M146.7,433.2c0,0.8,0,1.7,0.1,2.4h-1.5l-0.1-1.1h-0.1c-0.5,0.8-1.2,1.3-2.1,1.3c-1.4,0-2.5-1.2-2.5-3
			c0-2.7,2.1-3.9,4.5-3.9v-0.3c0-1.4-0.4-2.4-1.7-2.4c-0.7,0-1.3,0.2-1.8,0.5l-0.4-1.2c0.5-0.3,1.4-0.7,2.5-0.7c2.1,0,3,1.4,3,3.8
			V433.2z M145,430.1c-0.9,0-2.9,0.2-2.9,2.5c0,1.4,0.7,1.9,1.3,1.9c0.7,0,1.4-0.5,1.6-1.6c0-0.2,0.1-0.4,0.1-0.6V430.1z"/>
		<path class="st1" d="M150.8,424.9l1.3,6c0.2,0.7,0.3,1.7,0.5,2.6h0.1c0.1-0.9,0.3-1.8,0.4-2.6l1.3-6h1.7l-2.8,10.6h-1.5l-2.8-10.6
			H150.8z"/>
		<path class="st1" d="M164.1,433.2c0,0.8,0,1.7,0.1,2.4h-1.5l-0.1-1.1h-0.1c-0.5,0.8-1.2,1.3-2.1,1.3c-1.4,0-2.5-1.2-2.5-3
			c0-2.7,2.1-3.9,4.5-3.9v-0.3c0-1.4-0.4-2.4-1.7-2.4c-0.7,0-1.3,0.2-1.8,0.5l-0.4-1.2c0.5-0.3,1.4-0.7,2.5-0.7c2.1,0,3,1.4,3,3.8
			V433.2z M162.5,430.1c-0.9,0-2.9,0.2-2.9,2.5c0,1.4,0.7,1.9,1.3,1.9c0.7,0,1.4-0.5,1.6-1.6c0-0.2,0.1-0.4,0.1-0.6V430.1z"/>
		<path class="st1" d="M169.4,422.2c0,0.7-0.4,1.1-1,1.1c-0.5,0-1-0.4-1-1.1c0-0.7,0.4-1.1,1-1.1C169,421.1,169.4,421.5,169.4,422.2
			z M167.6,435.6v-10.6h1.7v10.6H167.6z"/>
		<path class="st1" d="M172.7,420.3h1.7v15.2h-1.7V420.3z"/>
		<path class="st1" d="M183.7,433.2c0,0.8,0,1.7,0.1,2.4h-1.5l-0.1-1.1h-0.1c-0.5,0.8-1.2,1.3-2.1,1.3c-1.4,0-2.5-1.2-2.5-3
			c0-2.7,2.1-3.9,4.5-3.9v-0.3c0-1.4-0.4-2.4-1.7-2.4c-0.7,0-1.3,0.2-1.8,0.5l-0.4-1.2c0.5-0.3,1.4-0.7,2.5-0.7c2.1,0,3,1.4,3,3.8
			V433.2z M182,430.1c-0.9,0-2.9,0.2-2.9,2.5c0,1.4,0.7,1.9,1.3,1.9c0.7,0,1.4-0.5,1.6-1.6c0-0.2,0.1-0.4,0.1-0.6V430.1z"/>
		<path class="st1" d="M187.1,420.3h1.7v5.9h0c0.5-1.1,1.3-1.4,2.3-1.4c1.7,0,2.9,1.9,2.9,5.4c0,3.8-1.6,5.6-3.2,5.6
			c-1.1,0-1.7-0.7-2.1-1.6h-0.1l-0.1,1.4H187c0-0.6,0.1-1.8,0.1-2.6V420.3z M188.8,431.8c0,0.2,0,0.5,0.1,0.7
			c0.4,1.6,1.1,1.8,1.6,1.8c1.4,0,1.8-1.8,1.8-4.1c0-2.1-0.5-4-1.9-4c-0.8,0-1.4,1-1.6,1.9c0,0.2,0,0.5,0,0.7V431.8z"/>
		<path class="st1" d="M197,420.3h1.7v15.2H197V420.3z"/>
		<path class="st1" d="M203.5,430.4c0,3.3,1.3,4,2.5,4c0.7,0,1.3-0.2,1.8-0.4l0.3,1.2c-0.6,0.3-1.5,0.5-2.4,0.5
			c-2.6,0-3.9-2.1-3.9-5.3c0-3.4,1.5-5.6,3.6-5.6c2.2,0,3,2.3,3,4.7c0,0.4,0,0.7,0,1H203.5z M206.9,429.2c0-2.1-0.8-3.1-1.6-3.1
			c-1.1,0-1.7,1.6-1.7,3.1H206.9z"/>
		<path class="st1" d="M218,422.4v2.5h2v1.3h-2v6.3c0,1.4,0.5,1.8,1.1,1.8c0.3,0,0.5,0,0.7-0.1l0.1,1.3c-0.3,0.1-0.7,0.2-1.3,0.2
			c-0.7,0-1.3-0.2-1.7-0.6c-0.4-0.5-0.6-1.2-0.6-2.7v-6.2h-1.3v-1.3h1.3v-1.8L218,422.4z"/>
		<path class="st1" d="M229,430.3c0,4.1-1.9,5.5-3.5,5.5c-1.9,0-3.5-1.7-3.5-5.5c0-3.9,1.7-5.5,3.6-5.5
			C227.5,424.8,229,426.6,229,430.3z M223.7,430.3c0,1.8,0.3,4.2,1.8,4.2c1.5,0,1.8-2.5,1.8-4.2c0-1.6-0.3-4.1-1.8-4.1
			C224,426.1,223.7,428.6,223.7,430.3z"/>
		<path class="st1" d="M243,420.3V433c0,0.7,0.1,1.9,0.1,2.6h-1.5l-0.1-1.3h-0.1c-0.4,0.7-1.1,1.5-2.2,1.5c-1.8,0-3.1-1.9-3.1-5.5
			c0-3.8,1.6-5.5,3.2-5.5c0.8,0,1.5,0.4,2,1.3h0v-5.7H243z M241.3,429c0-0.2,0-0.5,0-0.7c-0.1-1.1-0.8-2.1-1.6-2.1
			c-1.4,0-1.9,2-1.9,4.1c0,2.2,0.6,4,1.8,4c0.5,0,1.3-0.3,1.6-1.8c0-0.2,0.1-0.4,0.1-0.7V429z"/>
		<path class="st1" d="M253,430.3c0,4.1-1.9,5.5-3.5,5.5c-1.9,0-3.5-1.7-3.5-5.5c0-3.9,1.7-5.5,3.6-5.5
			C251.5,424.8,253,426.6,253,430.3z M247.7,430.3c0,1.8,0.3,4.2,1.8,4.2c1.5,0,1.8-2.5,1.8-4.2c0-1.6-0.3-4.1-1.8-4.1
			C248,426.1,247.7,428.6,247.7,430.3z"/>
		<path class="st1" d="M256.7,424.9l1,5.2c0.2,1.1,0.4,2.3,0.6,3.4h0.1c0.2-1.1,0.4-2.3,0.7-3.3l1.2-5.3h1.3l1.2,5.1
			c0.3,1.2,0.5,2.3,0.7,3.5h0.1c0.1-1.1,0.3-2.2,0.6-3.4l1-5.2h1.7l-2.7,10.6h-1.4l-1.2-5.2c-0.3-1-0.4-2-0.6-3.2h0
			c-0.2,1.3-0.4,2.2-0.6,3.3l-1.3,5.1h-1.4l-2.6-10.6H256.7z"/>
		<path class="st1" d="M269.4,427.7c0-1.3-0.1-1.9-0.1-2.8h1.5l0.1,1.3h0c0.5-0.9,1.3-1.5,2.4-1.5c1.5,0,2.6,1.1,2.6,3.7v7.2h-1.7
			v-6.8c0-1.3-0.2-2.5-1.5-2.5c-0.7,0-1.4,0.6-1.6,1.7c-0.1,0.3-0.1,0.6-0.1,1v6.7h-1.7V427.7z"/>
		<path class="st1" d="M279.4,420.3h1.7v15.2h-1.7V420.3z"/>
		<path class="st1" d="M291.2,430.3c0,4.1-1.9,5.5-3.5,5.5c-1.9,0-3.5-1.7-3.5-5.5c0-3.9,1.7-5.5,3.6-5.5
			C289.7,424.8,291.2,426.6,291.2,430.3z M285.9,430.3c0,1.8,0.3,4.2,1.8,4.2c1.5,0,1.8-2.5,1.8-4.2c0-1.6-0.3-4.1-1.8-4.1
			C286.2,426.1,285.9,428.6,285.9,430.3z"/>
		<path class="st1" d="M299.8,433.2c0,0.8,0,1.7,0.1,2.4h-1.5l-0.1-1.1h-0.1c-0.5,0.8-1.2,1.3-2.1,1.3c-1.4,0-2.5-1.2-2.5-3
			c0-2.7,2.1-3.9,4.5-3.9v-0.3c0-1.4-0.4-2.4-1.7-2.4c-0.7,0-1.3,0.2-1.8,0.5l-0.4-1.2c0.5-0.3,1.4-0.7,2.5-0.7c2.1,0,3,1.4,3,3.8
			V433.2z M298.2,430.1c-0.9,0-2.9,0.2-2.9,2.5c0,1.4,0.7,1.9,1.3,1.9c0.7,0,1.4-0.5,1.6-1.6c0-0.2,0.1-0.4,0.1-0.6V430.1z"/>
		<path class="st1" d="M309.7,420.3V433c0,0.7,0.1,1.9,0.1,2.6h-1.5l-0.1-1.3h-0.1c-0.4,0.7-1.1,1.5-2.2,1.5c-1.8,0-3.1-1.9-3.1-5.5
			c0-3.8,1.6-5.5,3.2-5.5c0.8,0,1.5,0.4,2,1.3h0v-5.7H309.7z M308.1,429c0-0.2,0-0.5,0-0.7c-0.1-1.1-0.8-2.1-1.6-2.1
			c-1.4,0-1.9,2-1.9,4.1c0,2.2,0.6,4,1.8,4c0.5,0,1.3-0.3,1.6-1.8c0-0.2,0.1-0.4,0.1-0.7V429z"/>
		<path class="st1" d="M318.1,435.6v-9.4h-1.3v-1.3h1.3v-0.6c0-1.2,0.2-2.3,0.9-3.2c0.6-0.7,1.5-0.9,2.1-0.9c0.6,0,1,0.1,1.3,0.3
			l-0.3,1.3c-0.2-0.1-0.5-0.2-0.9-0.2c-1.2,0-1.5,1.3-1.5,2.7v0.7h1.9v1.3h-1.9v9.4H318.1z"/>
		<path class="st1" d="M330.4,430.3c0,4.1-1.9,5.5-3.5,5.5c-1.9,0-3.5-1.7-3.5-5.5c0-3.9,1.7-5.5,3.6-5.5
			C328.8,424.8,330.4,426.6,330.4,430.3z M325.1,430.3c0,1.8,0.3,4.2,1.8,4.2c1.5,0,1.8-2.5,1.8-4.2c0-1.6-0.3-4.1-1.8-4.1
			C325.3,426.1,325.1,428.6,325.1,430.3z"/>
		<path class="st1" d="M333.3,427.7c0-0.9-0.1-2-0.1-2.8h1.5l0.1,1.7h0c0.4-1,1.3-1.8,2.2-1.8c0.1,0,0.2,0,0.4,0v1.7
			c-0.1,0-0.2,0-0.4,0c-1.1,0-1.9,1-2,2.2c0,0.3-0.1,0.6-0.1,1v5.9h-1.7V427.7z"/>
		<path class="st1" d="M344.8,435.6v-9.4h-1.3v-1.3h1.3v-0.6c0-1.2,0.2-2.3,0.9-3.2c0.6-0.7,1.5-0.9,2.1-0.9c0.6,0,1,0.1,1.3,0.3
			l-0.3,1.3c-0.2-0.1-0.5-0.2-0.9-0.2c-1.2,0-1.5,1.3-1.5,2.7v0.7h1.9v1.3h-1.9v9.4H344.8z"/>
		<path class="st1" d="M350.5,427.7c0-0.9-0.1-2-0.1-2.8h1.5l0.1,1.7h0c0.4-1,1.3-1.8,2.2-1.8c0.1,0,0.2,0,0.4,0v1.7
			c-0.1,0-0.2,0-0.4,0c-1.1,0-1.9,1-2,2.2c0,0.3-0.1,0.6-0.1,1v5.9h-1.7V427.7z"/>
		<path class="st1" d="M358,430.4c0,3.3,1.3,4,2.5,4c0.7,0,1.3-0.2,1.8-0.4l0.3,1.2c-0.6,0.3-1.5,0.5-2.4,0.5
			c-2.6,0-3.9-2.1-3.9-5.3c0-3.4,1.5-5.6,3.6-5.6c2.2,0,3,2.3,3,4.7c0,0.4,0,0.7,0,1H358z M361.4,429.2c0-2.1-0.8-3.1-1.6-3.1
			c-1.1,0-1.7,1.6-1.7,3.1H361.4z"/>
		<path class="st1" d="M367.1,430.4c0,3.3,1.3,4,2.5,4c0.7,0,1.3-0.2,1.8-0.4l0.3,1.2c-0.6,0.3-1.5,0.5-2.4,0.5
			c-2.6,0-3.9-2.1-3.9-5.3c0-3.4,1.5-5.6,3.6-5.6c2.2,0,3,2.3,3,4.7c0,0.4,0,0.7,0,1H367.1z M370.4,429.2c0-2.1-0.8-3.1-1.6-3.1
			c-1.1,0-1.7,1.6-1.7,3.1H370.4z"/>
	</g>
</g>
<g>
	<path class="st2" d="M175.3,165.3c-17.2,20.4-42.9,33.4-71.7,33.4c-28.5,0-54-12.7-71.2-32.8l-20.4,24.5
		c22.9,24.6,55.5,39.9,91.7,39.9c36.4,0,69.2-15.5,92.1-40.4L175.3,165.3"/>
	<path class="st3" d="M175.3,165.3c-17.2,20.4-42.9,33.4-71.7,33.4c-28.5,0-54-12.7-71.2-32.8l-20.4,24.5
		c22.9,24.6,55.5,39.9,91.7,39.9c36.4,0,69.2-15.5,92.1-40.4L175.3,165.3z"/>
	<path class="st2" d="M159.1,71.5v108.8c0,3.1-2,5.9-4.8,6.9l-50.5,19.6l-50.5-19.6c-2.8-1-4.8-3.8-4.8-6.9l0-108.8H159.1"/>
	<path class="st3" d="M159.1,71.5v108.8c0,3.1-2,5.9-4.8,6.9l-50.5,19.6l-50.5-19.6c-2.8-1-4.8-3.8-4.8-6.9l0-108.8H159.1z"/>
	<polyline class="st4" points="51.2,155.5 51.2,88.4 156.5,88.4 156.5,155.5 51.2,155.5 	"/>
	<path class="st5" d="M156.5,149.2c-0.9,1.5-3.2,2.5-5.8,2.5c-2.7,0-5-1-5.9-2.5c-0.9,1.5-3.2,2.5-5.9,2.5c-2.7,0-4.9-1-5.8-2.5
		c-0.9,1.5-3.2,2.5-5.8,2.5c-2.7,0-4.9-1-5.9-2.5h0c-0.9,1.5-3.2,2.5-5.8,2.5c-2.7,0-4.9-1-5.8-2.5c-0.9,1.5-3.2,2.5-5.9,2.5
		c-2.7,0-4.9-1-5.9-2.5h0c-0.9,1.5-3.2,2.5-5.8,2.5c-2.7,0-4.9-1-5.9-2.5c-0.9,1.5-3.2,2.5-5.9,2.5c-2.6,0-4.9-1-5.8-2.5h0
		c-0.9,1.5-3.2,2.5-5.8,2.5c-2.7,0-4.9-1-5.9-2.5v0c-0.9,1.5-3.2,2.5-5.8,2.5c-2.7,0-4.9-1-5.9-2.5V149l0,29.6c0,3,1.9,5.6,4.6,6.6
		l48.1,18.7l48.1-18.7c2.7-1,4.6-3.6,4.6-6.6V149L156.5,149.2"/>
	<path class="st6" d="M156.5,146.1c-0.9,1.5-3.2,2.5-5.8,2.5c-2.7,0-5-1.1-5.9-2.5c-0.9,1.5-3.2,2.5-5.9,2.5c-2.7,0-4.9-1.1-5.8-2.5
		c-0.9,1.5-3.2,2.5-5.8,2.5c-2.7,0-4.9-1.1-5.9-2.5h0c-0.9,1.5-3.2,2.5-5.8,2.5c-2.7,0-4.9-1.1-5.8-2.5c-0.9,1.5-3.2,2.5-5.9,2.5
		c-2.7,0-4.9-1.1-5.9-2.5h0c-0.9,1.5-3.2,2.5-5.8,2.5c-2.7,0-4.9-1.1-5.9-2.5c-0.9,1.5-3.2,2.5-5.9,2.5c-2.6,0-4.9-1.1-5.8-2.5h0
		c-0.9,1.5-3.2,2.5-5.8,2.5c-2.7,0-4.9-1.1-5.9-2.5v0c-0.9,1.5-3.2,2.5-5.8,2.5c-2.7,0-4.9-1.1-5.9-2.5v-3.7
		c0.9,1.5,3.2,2.5,5.9,2.5c2.6,0,4.9-1,5.8-2.5c0.9,1.5,3.2,2.5,5.9,2.5c2.6,0,4.9-1.1,5.8-2.5h0c0.9,1.5,3.2,2.5,5.8,2.5
		c2.7,0,4.9-1,5.9-2.5c0.9,1.5,3.2,2.5,5.9,2.5c2.6,0,4.9-1.1,5.8-2.5h0c0.9,1.5,3.2,2.5,5.9,2.5c2.6,0,4.9-1,5.9-2.5
		c0.9,1.5,3.2,2.5,5.8,2.5c2.7,0,4.9-1.1,5.8-2.5h0c0.9,1.5,3.2,2.5,5.9,2.5c2.6,0,4.9-1,5.8-2.5c0.9,1.5,3.2,2.5,5.8,2.5
		c2.7,0,4.9-1.1,5.9-2.5c0.9,1.5,3.2,2.5,5.9,2.5c2.6,0,4.9-1,5.8-2.5V146.1"/>
	<path class="st6" d="M156.5,139.5c-0.9,1.5-3.2,2.5-5.8,2.5c-2.7,0-5-1-5.9-2.5c-0.9,1.5-3.2,2.5-5.9,2.5c-2.7,0-4.9-1-5.8-2.5
		c-0.9,1.5-3.2,2.5-5.8,2.5c-2.7,0-4.9-1-5.9-2.5h0c-0.9,1.5-3.2,2.5-5.8,2.5c-2.7,0-4.9-1-5.8-2.5c-0.9,1.5-3.2,2.5-5.9,2.5
		c-2.7,0-4.9-1-5.9-2.5h0c-0.9,1.5-3.2,2.5-5.8,2.5c-2.7,0-4.9-1-5.9-2.5c-0.9,1.5-3.2,2.5-5.9,2.5c-2.6,0-4.9-1-5.8-2.5h0
		c-0.9,1.5-3.2,2.5-5.8,2.5c-2.7,0-4.9-1-5.9-2.5v0c-0.9,1.5-3.2,2.5-5.8,2.5c-2.7,0-4.9-1-5.9-2.5v-3.7c0.9,1.5,3.2,2.5,5.9,2.5
		c2.6,0,4.9-1,5.8-2.5c0.9,1.5,3.2,2.5,5.9,2.5c2.6,0,4.9-1.1,5.8-2.5h0c0.9,1.5,3.2,2.5,5.8,2.5c2.7,0,4.9-1,5.9-2.5
		c0.9,1.5,3.2,2.5,5.9,2.5c2.6,0,4.9-1.1,5.8-2.5h0c0.9,1.5,3.2,2.5,5.9,2.5c2.6,0,4.9-1,5.9-2.5c0.9,1.5,3.2,2.5,5.8,2.5
		c2.7,0,4.9-1.1,5.8-2.5h0c0.9,1.5,3.2,2.5,5.9,2.5c2.6,0,4.9-1,5.8-2.5c0.9,1.5,3.2,2.5,5.8,2.5c2.7,0,4.9-1.1,5.9-2.5
		c0.9,1.5,3.2,2.5,5.9,2.5c2.6,0,4.9-1,5.8-2.5V139.5"/>
	<path class="st2" d="M111.6,182.9c0,0,5.2,8.1,2.5,5.8c-2-1.7-4.7-5.6-6.7-8.9l-10.6,4.1c0,0-6.1,7.4-4.7,4.1c1-2.4,4-6.2,6.4-9.1
		l-7.3-8.8c0,0-8.9-3.5-5.4-3.2c2.3,0.2,7.1,1.9,10.6,3.3l6-9.6c0,0,0.6-9.6,1.4-6.1c0.6,2.4,0.4,7.5,0.1,11.3l11.1,2.7
		c0,0,9.3-2.4,6.2-0.6c-2.1,1.3-6.7,2.7-10.4,3.6L111.6,182.9"/>
	<path class="st7" d="M111.6,182.9c0,0,5.2,8.1,2.5,5.8c-2-1.7-4.7-5.6-6.7-8.9l-10.6,4.1c0,0-6.1,7.4-4.7,4.1c1-2.4,4-6.2,6.4-9.1
		l-7.3-8.8c0,0-8.9-3.5-5.4-3.2c2.3,0.2,7.1,1.9,10.6,3.3l6-9.6c0,0,0.6-9.6,1.4-6.1c0.6,2.4,0.4,7.5,0.1,11.3l11.1,2.7
		c0,0,9.3-2.4,6.2-0.6c-2.1,1.3-6.7,2.7-10.4,3.6L111.6,182.9z"/>
	<path class="st4" d="M103.1,180.8c0.1,0.2,0.2,0.3,0.3,0.3c0.1,0,0.2-0.1,0.3-0.3c0.1-0.3,0.2-0.9,0.2-2.3c0,0,0.1-4.5,3.4,0.3
		c9.5,13.6-4,13.7-4,13.7h0.1c0,0-13.5-0.1-4-13.7c3.4-4.9,3.4-0.3,3.4-0.3C102.9,179.9,103,180.5,103.1,180.8L103.1,180.8"/>
	<path class="st7" d="M103.1,180.8l0.3,0.3l0.3-0.3c0.1-0.3,0.2-0.9,0.2-2.3c0,0,0.1-4.5,3.4,0.3c9.5,13.6-4,13.7-4,13.7h0.1
		c0,0-13.5-0.1-4-13.7c3.4-4.9,3.4-0.3,3.4-0.3C102.9,179.9,103,180.5,103.1,180.8L103.1,180.8L103.1,180.8z"/>
	<path class="st4" d="M96.2,175.3c-0.1,0.1-0.2,0.2-0.1,0.3c0,0.1,0.2,0.2,0.3,0.2h0c0.3,0,0.9,0,2.2-0.5c0,0,4.3-1.3,0.8,3.3
		c-10.1,13.2-14.3,0.5-14.3,0.5v0.1c0,0-4.1-12.8,11.8-8c5.7,1.7,1.4,3.2,1.4,3.2C97,174.8,96.4,175.1,96.2,175.3"/>
	<path class="st7" d="M96.2,175.3c-0.1,0.1-0.1,0.3-0.1,0.3l0.3,0.2h0c0,0,0.9,0,2.2-0.5c0,0,4.3-1.3,0.8,3.3
		c-10.1,13.2-14.3,0.5-14.3,0.5v0.1c0,0-4.1-12.8,11.8-8c5.7,1.7,1.4,3.2,1.4,3.2C97,174.8,96.4,175.1,96.2,175.3z"/>
	<path class="st4" d="M99.2,167c-0.1-0.1-0.3-0.1-0.4,0c-0.1,0.1-0.1,0.2-0.1,0.4v0c0.1,0.3,0.3,0.9,1.2,2c0,0,2.6,3.7-3,1.7
		c-15.7-5.5-4.8-13.4-4.8-13.4l-0.1,0c0,0,10.9-7.8,11.3,8.8c0.1,5.9-2.6,2.3-2.6,2.3C100,167.6,99.5,167.1,99.2,167"/>
	<path class="st7" d="M99.2,167h-0.4l-0.1,0.4v0c0,0,0.3,0.9,1.2,2c0,0,2.6,3.7-3,1.7c-15.7-5.5-4.8-13.4-4.8-13.4l-0.1,0
		c0,0,10.9-7.8,11.3,8.8c0.1,5.9-2.6,2.3-2.6,2.3C100,167.6,99.5,167.1,99.2,167z"/>
	<path class="st4" d="M108.1,167.3c0-0.1,0-0.3-0.1-0.4c-0.1-0.1-0.3,0-0.4,0c-0.3,0.1-0.7,0.6-1.5,1.7c0,0-2.7,3.6-2.6-2.3
		c0.4-16.6,11.3-8.8,11.3-8.8l-0.1-0.1c0,0,10.8,8-4.9,13.4c-5.6,1.9-2.9-1.7-2.9-1.7C107.8,168.2,108.1,167.6,108.1,167.3"/>
	<path class="st7" d="M108.1,167.3l-0.1-0.4l-0.4,0c-0.3,0.1-0.7,0.6-1.5,1.7c0,0-2.7,3.6-2.6-2.3c0.4-16.6,11.3-8.8,11.3-8.8
		l-0.1-0.1c0,0,10.8,8-4.9,13.4c-5.6,1.9-2.9-1.7-2.9-1.7C107.8,168.2,108.1,167.3,108.1,167.3z"/>
	<path class="st4" d="M110.5,175.9c0.2,0,0.3-0.1,0.3-0.2c0.1-0.1,0-0.2-0.1-0.3c-0.2-0.2-0.8-0.5-2.1-0.9c0,0-4.3-1.5,1.4-3.2
		c15.9-4.8,11.8,8,11.8,8l0-0.1c0,0-4.2,12.8-14.3-0.5c-3.6-4.7,0.7-3.3,0.7-3.3C109.6,175.8,110.2,175.9,110.5,175.9"/>
	<path class="st7" d="M110.5,175.9l0.3-0.2c0,0,0-0.2-0.1-0.3c-0.2-0.2-0.8-0.5-2.1-0.9c0,0-4.3-1.5,1.4-3.2c15.9-4.8,11.8,8,11.8,8
		l0-0.1c0,0-4.2,12.8-14.3-0.5c-3.6-4.7,0.7-3.3,0.7-3.3C109.6,175.8,110.5,175.9,110.5,175.9z"/>
	<path class="st2" d="M94.2,160.6c0,0-1,0.7-1.9,1c-0.9,0.3-1.3,0.9-1.4,1.1c0,0-0.5,1.2-0.8,0.7c-0.3-0.5,0.3-1.3,0.3-1.3
		c0.1-0.2,0.5-0.8,1.4-1.1c0.9-0.3,1.9-0.9,1.9-0.9c0,0,1-0.8,1.5-1.5c0.5-0.8,1.3-0.9,1.5-0.9c0,0,1-0.4,1.4,0.1
		c0.3,0.5-0.9,0.6-0.9,0.6c-0.2,0.1-0.9,0.2-1.5,1C95.2,159.8,94.2,160.6,94.2,160.6"/>
	<path class="st2" d="M112.6,160.6c0,0-1-0.8-1.5-1.5c-0.5-0.7-1.3-0.9-1.5-1c0,0-1.3-0.1-0.9-0.6c0.4-0.5,1.4-0.1,1.4-0.1
		c0.2,0,0.9,0.2,1.5,0.9c0.5,0.7,1.5,1.5,1.5,1.5c0,0,1,0.7,1.9,0.9c0.8,0.3,1.2,0.9,1.3,1.1c0,0,0.7,0.9,0.4,1.4
		c-0.3,0.5-0.8-0.7-0.8-0.7c-0.1-0.2-0.5-0.8-1.4-1.1C113.7,161.3,112.6,160.6,112.6,160.6"/>
	<path class="st2" d="M118.3,178.1c0,0,0.4-1.2,1-1.9c0.6-0.7,0.5-1.5,0.5-1.7c0,0-0.3-1.2,0.3-1c0.5,0.2,0.5,1.3,0.5,1.3
		c0,0.2,0.1,1-0.4,1.7c-0.6,0.7-1,1.9-1,1.9s-0.3,1.2-0.3,2.1c0,0.9-0.5,1.5-0.6,1.7c0,0-0.6,0.9-1.2,0.7c-0.6-0.2,0.4-1,0.4-1
		c0.1-0.2,0.6-0.8,0.6-1.6C118,179.3,118.3,178.1,118.3,178.1"/>
	<path class="st2" d="M103.4,188.9c0,0,1.2,0,2.1,0.3c0.9,0.3,1.5,0,1.7-0.1c0,0,1.1-0.7,1-0.1c0,0.5-1,0.9-1,0.9
		c-0.2,0.1-0.9,0.4-1.7,0.1c-0.9-0.3-2.1-0.4-2.1-0.4s-1.3,0.1-2.1,0.4c-0.9,0.3-1.5,0-1.8-0.1c0,0-1.1-0.4-1.1-0.9
		c0-0.6,1.1,0.1,1.1,0.1c0.2,0.1,0.9,0.4,1.8,0.1C102.2,189,103.4,188.9,103.4,188.9"/>
	<path class="st2" d="M88.6,178.1c0,0,0.3,1.2,0.3,2.1c0,0.9,0.5,1.5,0.6,1.6c0,0,0.9,0.8,0.4,1c-0.5,0.2-1.2-0.7-1.2-0.7
		c-0.1-0.2-0.6-0.7-0.6-1.7c0-0.9-0.3-2.1-0.3-2.1s-0.4-1.2-1-1.9c-0.5-0.7-0.5-1.5-0.5-1.7c0,0,0-1.1,0.5-1.3c0.5-0.2,0.2,1,0.2,1
		c0,0.2-0.1,1,0.5,1.7C88.1,176.9,88.6,178.1,88.6,178.1"/>
	<path class="st8" d="M103.4,170.2c-1.7,0-3,1.4-3,3c0,1.7,1.4,3,3,3c1.7,0,3.1-1.3,3.1-3C106.4,171.6,105.1,170.2,103.4,170.2"/>
	<path class="st9" d="M103.4,170.2c-1.7,0-3,1.4-3,3c0,1.7,1.4,3,3,3c1.7,0,3.1-1.3,3.1-3C106.4,171.6,105.1,170.2,103.4,170.2z"/>
	<path class="st2" d="M109.1,115.2l0.4,8.2l6.9-4.5l2.2,3.6l-8.2,4.7v1.7c0,0,9.5,5.3-2.1,5.1l0,0.1c-4.1,3.4-7.9,0-7.9,0
		c-11.6,0.2-2.1-5.1-2.1-5.1v-1.7l-7.2-5.6l1.7-3.7l6.5,5.5l0.4-8.2L109.1,115.2"/>
	<path class="st10" d="M117.7,122.2c6.7,7.7,11.6-0.4,11.6-0.4c8.5-2.1,3.4-8.1,3.4-8.1c8.8-5.8-1.5-10.3-1.5-10.3
		c-0.1-7.7-6.6-7.1-6.6-7.1c-6.9-6-13.4,0.7-13.4,0.7c-10.3-8.6-18.1,1.3-18.1,1.3s-6.6-4.5-9.5,2.6c0,0-10.5-0.3-6.5,10.3
		c0,0-8.1,8.1,2.5,12.1c0,0,5.6,10.4,13.3,0.5c0,0,4.7,0.3,4-6.4c0,0,6,2.5,11.7-0.3c0,0,1.8,4.1,5.7,1.8c0,0-0.6,2.6,3.2,3.2
		L117.7,122.2"/>
	<path class="st11" d="M117.7,122.2c6.7,7.7,11.6-0.4,11.6-0.4c8.5-2.1,3.4-8.1,3.4-8.1c8.8-5.8-1.5-10.3-1.5-10.3
		c0-7.7-6.6-7.1-6.6-7.1c-6.9-6-13.4,0.7-13.4,0.7c-10.3-8.6-18.1,1.3-18.1,1.3s-6.6-4.5-9.5,2.6c0,0-10.5-0.3-6.5,10.3
		c0,0-8.1,8.1,2.5,12.1c0,0,5.6,10.4,13.3,0.5c0,0,4.7,0.3,4-6.4c0,0,6,2.5,11.7-0.3c0,0,1.8,4.1,5.7,1.8c0,0-0.6,2.6,3.2,3.2
		L117.7,122.2z"/>
	<path class="st12" d="M27.9,188.4l0.5,0.4c-1.7,3.1-2,5.3-0.8,6.4c0.9,0.8,2,0.4,3.1-0.7c0.4-0.5,0.7-1.1,0.7-1.5
		c0-0.7-0.5-1.4-1-2.5c-1-2.1-1-3.8,0.8-5.9c1.8-2.1,4.3-2.8,5.8-1.5c0.7,0.6,1,1.4,1.1,2.5l1.2-0.4l0.4,0.4l-3.7,4.5l-0.4-0.4
		c1.4-3,1.7-4.8,0.7-5.7c-0.8-0.7-1.9-0.5-2.9,0.6c-1.2,1.4-0.5,2.2,0.4,3.9c0.5,0.9,0.9,1.7,0.7,2.8c-0.2,1-0.8,2.2-1.8,3.3
		c-2,2.3-4.3,3-5.9,1.6c-0.8-0.7-1.2-1.6-1.1-2.9l-1.5,0.5l-0.4-0.4L27.9,188.4"/>
	<path class="st12" d="M41.6,189.9c1.7-0.8,3.1-0.8,4.3,0.1c1.3,0.9,1.8,2.1,1.6,4.1c-0.1,1.7-0.9,3.6-2.3,5.6
		c-1.3,1.9-2.6,3.2-4.3,3.9c-1.8,0.8-3.3,0.8-4.5,0c-1.2-0.8-1.7-2.1-1.5-4.1c0.2-1.9,0.9-3.5,2.2-5.5
		C38.5,192,40.1,190.6,41.6,189.9 M37.2,202.5c1.3,0.9,3.2-0.6,5.9-4.5c2.7-3.9,3.4-6.2,2.1-7.1c-1.3-0.9-3.2,0.6-5.9,4.5
		C36.6,199.3,35.9,201.6,37.2,202.5z"/>
	<path class="st12" d="M55.2,197.4l-0.6-0.3c-0.5-0.3-0.7-0.1-1.1,0.7l-3.8,7c-1.4,2.5-1.4,4,0,4.8c0.7,0.3,1.3,0.3,1.9,0
		c1-0.5,1.6-1.6,2.5-3.4l2.7-5.1c0.8-1.5,0.9-2.3-0.1-2.8c0,0-0.1,0-0.1,0l0.5-1l3.2,1.7l-0.5,1c-1-0.3-1.5,0.2-2.3,1.6l-2.8,5.2
		c-0.8,1.5-1.4,2.7-2.4,3.5c-1.4,1.2-2.8,1.3-4.2,0.5c-2.3-1.2-2.6-3.4-1-6.5l4.1-7.6c0.4-0.8,0.4-1.1,0-1.3l-0.6-0.3l0.5-1l4.4,2.3
		L55.2,197.4"/>
	<path class="st12" d="M67.4,202.9c-0.4-0.2-0.7,0-1,0.8l-4.2,10.5c-0.3,0.8-0.3,1.1,0.2,1.3l0.6,0.3l-0.4,1.1L58,215l0.4-1.1
		l0.6,0.3c0.5,0.2,0.7,0,1-0.8l4.2-10.5c0.3-0.8,0.3-1.1-0.1-1.2c-1-0.4-2.4,0.9-3.8,3.8l-0.6-0.2l2.4-5.4l8,3.2l-2,5.6l-0.6-0.2
		C68.5,205.2,68.4,203.3,67.4,202.9"/>
	<path class="st12" d="M74.3,219.3c0.5,0.2,0.7-0.1,0.9-0.9l1.3-5l-3.3-0.9l-1.3,5c-0.2,0.8-0.2,1.1,0.3,1.3l0.6,0.2l-0.3,1.1
		l-4.8-1.3l0.3-1.1l0.6,0.1c0.5,0.2,0.7-0.1,0.9-0.9l2.9-10.8c0.2-0.9,0.2-1.2-0.3-1.3l-0.6-0.2l0.3-1.1l4.8,1.3l-0.3,1.1l-0.6-0.2
		c-0.5-0.2-0.7,0.1-1,0.9l-1.2,4.5l3.4,0.9l1.2-4.5c0.2-0.8,0.2-1.2-0.3-1.3l-0.6-0.2l0.3-1.1l4.8,1.3l-0.3,1.1l-0.7-0.2
		c-0.5-0.1-0.7,0.1-0.9,1L77.5,219c-0.2,0.8-0.2,1.1,0.3,1.3l0.6,0.2l-0.3,1.1l-4.8-1.3l0.3-1.1L74.3,219.3"/>
	<path class="st12" d="M87,221.9l0.7,0c0.3,0,0.4-0.1,0.4-0.4c0-0.2,0-0.4,0-0.6l-0.2-2.5l-3.3-0.5l-0.5,1.1
		c-0.1,0.4-0.3,0.8-0.3,1.1c-0.2,1,0.2,1.3,1.2,1.6l-0.2,1.1l-3.7-0.5l0.2-1.1c0.8-0.1,1.4-1,2.1-2.6l4.8-11.4l1,0.1l1.5,14.3
		c0.1,0.7,0.2,0.9,0.7,1l-0.2,1.1l-4.4-0.6L87,221.9 M85.1,216.5l2.7,0.4l-0.5-5.4L85.1,216.5z"/>
	<path class="st12" d="M96.7,220.1c-0.1,2,0.2,2.8,1.4,2.8l0,1.2l-3.8-0.1v-1.2c1.2,0,1.4-0.8,1.5-2.8l0.2-9.5
		c0-0.8-0.1-1.2-0.6-1.2l-0.7,0l0-1.1l4.2,0.1l1.8,9.5l2.1-9.4l4.2,0.1l0,1.2l-0.7,0c-0.5,0-0.7,0.3-0.7,1.1l-0.3,11.2
		c0,0.9,0.1,1.2,0.6,1.2l0.7,0l0,1.2l-4.9-0.1l0-1.1h0.6c0.6,0,0.7-0.3,0.7-1.1l0.3-11.8l-3.2,14l-0.6,0L97,210L96.7,220.1"/>
	<path class="st12" d="M114.5,222.5l0.8-0.1l0.1,1.1l-5.2,0.5l-0.1-1.2l0.7-0.1c0.6-0.1,0.6-0.3,0.6-1.2l-1.1-11.1
		c-0.1-0.9-0.2-1.1-0.8-1.1l-0.7,0.1l-0.1-1.1l5.7-0.5c2.4-0.2,3.7,1.2,4,4.1c0.3,3.1-1,4.7-3.9,4.9c-0.4,0.1-0.8,0.1-1.3,0.1
		l0.4,4.5C113.8,222.3,114,222.5,114.5,222.5 M113.2,215.8c0.1,0,0.4,0,0.6,0c1.8-0.2,2.4-0.9,2.2-3.5c-0.2-2.5-0.9-3.3-2.5-3.1
		c-0.8,0.1-1,0.3-0.9,1.5L113.2,215.8z"/>
	<path class="st12" d="M126.1,207c-0.5,0.1-0.5,0.4-0.3,1.2l2.3,11.1c0.2,0.9,0.3,1.1,0.9,1l0.6-0.1l0.2,1.1l-4.9,1l-0.2-1.1
		l0.6-0.1c0.6-0.1,0.6-0.4,0.4-1.2l-2.3-11.1c-0.2-0.8-0.3-1.1-0.8-1c-1,0.2-1.5,2.1-1.1,5.2l-0.6,0.1l-1-5.8l8.4-1.8l1.4,5.8
		l-0.6,0.1C128.3,208.3,127.1,206.8,126.1,207"/>
	<path class="st12" d="M132.3,206.4c0.4-1.8,1.2-2.9,2.7-3.4c1.5-0.5,2.8-0.1,4.2,1.2c1.3,1.2,2.3,2.9,3,5.2c0.7,2.2,0.9,4,0.6,5.8
		c-0.4,1.9-1.3,3.1-2.7,3.6c-1.4,0.5-2.7,0.1-4.2-1.3c-1.4-1.2-2.3-2.8-3-5C132.1,210.2,131.9,208.1,132.3,206.4 M139.7,217.6
		c1.5-0.5,1.5-2.9,0-7.4c-1.5-4.5-2.9-6.5-4.4-6c-1.5,0.5-1.5,2.9,0,7.4C136.8,216.1,138.2,218.1,139.7,217.6z"/>
	<path class="st12" d="M147.6,214.5c1-0.7,0.9-1.4,0.1-3.1l-4-8.6l-0.4-0.3c-0.4-0.3-0.7-0.5-1.2-0.3l-0.1,0.1l-0.5-1l3-1.4l8.7,6.8
		l-2.5-5.3c-0.9-1.9-1.4-2.4-2.6-1.9l-0.5-1.1l3.5-1.6l0.5,1c-1,0.5-0.9,1.3,0,3.1l5.1,10.9l-0.8,0.4l-10.7-8.4l3.3,7.3
		c0.8,1.8,1.4,2.4,2.6,1.9l0.5,1l-3.4,1.6L147.6,214.5"/>
	<path class="st12" d="M167.3,193.1l-0.5,0.4c-2.3-2.5-3.7-2.9-5.4-1.8c-0.6,0.4-0.7,0.6-0.1,1.5l2.6,3.8c0.1,0,0.1-0.1,0.2-0.1
		c1-0.7,0.9-1.6-0.2-3.6l0.5-0.4l4.1,6l-0.5,0.4c-1.4-1.7-2.3-2.1-3.2-1.5c0,0-0.1,0.1-0.1,0.1l2.9,4.3c0.5,0.7,0.7,0.9,1.2,0.6
		l0.8-0.5l0.6,1l-4.3,3l-0.6-1l0.5-0.4c0.5-0.3,0.4-0.6-0.1-1.3l-6.3-9.2c-0.5-0.7-0.7-0.9-1.2-0.6l-0.6,0.4l-0.6-0.9l7.1-4.8
		L167.3,193.1"/>
	<path class="st12" d="M180,196.3c-0.9,0.7-2,1-3.2,0.7c-1.9-0.4-4-1.7-5.8-3.9c-1.4-1.7-2.4-3.4-2.8-5.1c-0.4-1.9,0-3.3,1.1-4.3
		c0.7-0.6,1.6-0.8,2.7-0.6l-0.2-1.3l0.4-0.4l4.3,4.7l-0.5,0.5c-2.8-2.4-4.8-3.1-5.9-2.1c-1.3,1.1-0.4,3.3,2.7,6.9
		c3.1,3.7,5,4.8,6.5,3.6c1.1-1,0.9-2.8-0.8-5.5l0.8-0.2C181.5,192.4,181.7,194.9,180,196.3"/>
	<path class="st4" d="M11.9,63.9l2.5,5.2l-7,1.9l2.2,4.4l7-1.9l2.2,4.4l-7,1.9l2.2,4.3l7-1.9l2.2,4.4l-7.1,1.9l2.2,4.3l7.1-1.9
		l3.1,6c1.3-0.4,2.6-0.8,3.9-1.4L16,62.7C14.8,63.2,13.5,63.6,11.9,63.9"/>
	<path class="st4" d="M31.2,65.7c-0.5-2.3,4.8-5.1,9-8.5l-5.6-11.2c-2.2,1.2-4.7,3.1-7.1,5.9c-0.7,0.7-1.2,1.4-1.8,2.1L31.2,65.7"/>
	<path class="st5" d="M43.8,45.7c-1.4-1.9-4.9-2.1-9.2,0.2l5.6,11.2C44.1,54,47.1,50.2,43.8,45.7"/>
	<path class="st5" d="M16,62.7l16.4,32.8c4.6-1.9,8.4-4.6,9.7-6.6l-7.1-15l-3.5-7.5c-0.2-0.2-0.3-0.5-0.3-0.7l-5.5-11.8
		C22.9,57.3,20.5,60.8,16,62.7"/>
	<path class="st5" d="M11.9,63.9c-2.2,0.4-4.8,0.5-7.9,0.2l3.4,6.9l7-1.9L11.9,63.9"/>
	<polyline class="st5" points="16.6,73.4 9.6,75.3 11.8,79.6 18.8,77.7 16.6,73.4 	"/>
	<polyline class="st5" points="21,82.1 13.9,84 16.1,88.3 23.2,86.4 21,82.1 	"/>
	<path class="st5" d="M18.3,92.7l2.6,5.2c2.5,0.1,5.1-0.3,7.6-1l-3.1-6L18.3,92.7"/>
	<path class="st4" d="M40.1,57.2l3.1,6.2c2.2-1.9,4.6-4.1,7.1-6.2l-5.8-10.4C46.6,50.9,43.8,54.3,40.1,57.2"/>
	<path class="st5" d="M31.5,66.4c0.2,0.2,0.4,0.4,0.7,0.7c3.1,2.2,6.8,0,11-3.6l-3.1-6.2C35.5,61,29.6,63.9,31.5,66.4"/>
	<path class="st13" d="M31.5,66.4C28,61.8,51.1,55.6,43.8,45.7c-2.1-2.8-9.1-2-16.3,6.1C21.8,58,19.4,65.4,4,64.1l16.9,33.8
		c8.5,0.4,18.9-5.4,21.2-9L31.5,66.4z"/>
	<path class="st13" d="M50.4,57.3c-7.2,6.1-13.3,13.1-18.1,9.8c-0.3-0.2-0.6-0.4-0.7-0.7c-3.4-4.4,17.8-10.2,13-19.5L50.4,57.3z"/>
	<path class="st4" d="M193.6,63.9l-2.5,5.2l7,1.9l-2.2,4.4l-7-1.9l-2.2,4.4l7,1.9l-2.2,4.3l-7-1.9l-2.2,4.4l7.1,1.9l-2.2,4.3
		l-7.1-1.9l-3.1,6c-1.3-0.4-2.6-0.8-3.9-1.4l16.4-32.8C190.7,63.2,192,63.6,193.6,63.9"/>
	<path class="st4" d="M174.3,65.7c0.5-2.3-4.8-5.1-9-8.5l5.6-11.2c2.2,1.2,4.7,3.1,7.2,5.9c0.6,0.7,1.2,1.4,1.8,2.1L174.3,65.7"/>
	<path class="st5" d="M161.7,45.7c1.4-1.9,4.9-2.1,9.2,0.2l-5.6,11.2C161.3,54,158.3,50.2,161.7,45.7"/>
	<path class="st5" d="M189.5,62.7l-16.4,32.8c-4.6-1.9-8.4-4.6-9.7-6.6L174,66.4c0.2-0.2,0.3-0.5,0.3-0.7l5.5-11.8
		C182.6,57.3,185,60.8,189.5,62.7"/>
	<path class="st5" d="M193.6,63.9c2.2,0.4,4.8,0.5,7.9,0.2l-3.5,6.9l-7-1.9L193.6,63.9"/>
	<polyline class="st5" points="188.9,73.4 195.9,75.3 193.7,79.6 186.7,77.7 188.9,73.4 	"/>
	<polyline class="st5" points="184.5,82.1 191.5,84 189.3,88.3 182.3,86.4 184.5,82.1 	"/>
	<path class="st5" d="M187.2,92.7l-2.6,5.2c-2.5,0.1-5.1-0.3-7.6-1l3.1-6L187.2,92.7"/>
	<path class="st4" d="M165.3,57.2l-3.1,6.2c-2.2-1.9-4.6-4.1-7.1-6.2l5.8-10.4C158.8,50.9,161.7,54.3,165.3,57.2"/>
	<path class="st5" d="M174,66.4c-0.2,0.2-0.4,0.4-0.7,0.7c-3.2,2.2-6.8,0-11-3.6l3.1-6.2C170,61,175.9,63.9,174,66.4"/>
	<path class="st13" d="M174,66.4c3.5-4.5-19.6-10.7-12.3-20.7c2.1-2.8,9.1-2,16.4,6.1c5.6,6.2,8.1,13.6,23.5,12.3l-16.9,33.8
		c-8.5,0.4-18.9-5.4-21.2-9L174,66.4z"/>
	<path class="st13" d="M155.1,57.3c7.2,6.1,13.3,13.1,18.1,9.8c0.3-0.2,0.5-0.4,0.7-0.7c3.4-4.4-17.8-10.2-13-19.5L155.1,57.3z"/>
	<path class="st4" d="M123.9,56.1c-1.5,1.2-4.1,3-7.1,4.8v23.4c3.3-2,6.7-4.2,9.8-5.9V54.2C125.5,54.9,124.6,55.6,123.9,56.1"/>
	<path class="st4" d="M139.6,49.8c-0.1,0-0.3,0-0.4,0l-3.3,25.2c0.1,0,0.3,0,0.4,0c2.7,0,5.3,0.9,7.7,2.3l7.5-22.9
		C147.7,51.7,143.8,49.8,139.6,49.8"/>
	<path class="st4" d="M173.2,67c-3.1,2.2-6.8,0-10.9-3.5l-9.7,20.3c4,3.4,7.5,6.2,10.8,5L174,66.4C173.8,66.6,173.5,66.8,173.2,67"
		/>
	<path class="st4" d="M32.2,67c-0.3-0.2-0.6-0.4-0.7-0.7l10.6,22.5c3.3,1.2,6.8-1.6,10.8-5l-9.7-20.3C39,67,35.4,69.2,32.2,67"/>
	<path class="st4" d="M102.7,67c-1,0-2.3-0.3-3.7-0.9v23.5c1.4,0.5,2.6,0.8,3.7,0.8c1.1,0,2.4-0.3,3.7-0.8V66.1
		C105,66.6,103.7,67,102.7,67"/>
	<path class="st4" d="M65.9,49.8c-4.2,0-8.1,2-11.8,4.6l7.5,22.9c2.4-1.3,4.9-2.3,7.7-2.3c0.1,0,0.3,0,0.4,0l-3.3-25.2
		C66.1,49.8,66,49.8,65.9,49.8"/>
	<path class="st4" d="M81.6,56.1c-0.7-0.6-1.6-1.2-2.7-2v24.2c3.2,1.7,6.5,3.9,9.8,5.9V60.9C85.7,59.1,83.1,57.4,81.6,56.1"/>
	<path class="st5" d="M88.7,60.9v23.4c3.7,2.2,7.3,4.3,10.3,5.3V66.1C95.9,65,92.1,63,88.7,60.9"/>
	<path class="st5" d="M66.3,49.8l3.3,25.2c2.6,0.1,5.8,1.5,9.3,3.3V54.2C75.7,52.2,71.1,50,66.3,49.8"/>
	<path class="st5" d="M43.2,63.6l9.7,20.3c2.7-2.3,5.5-4.8,8.7-6.6l-7.5-22.9C50.1,57.2,46.5,60.8,43.2,63.6"/>
	<path class="st5" d="M106.5,66.1v23.5c3.1-1,6.7-3.1,10.3-5.3V60.9C113.4,63,109.5,65,106.5,66.1"/>
	<path class="st5" d="M126.6,54.2v24.2c3.4-1.9,6.6-3.2,9.2-3.3l3.3-25.2C134.4,50,129.8,52.2,126.6,54.2"/>
	<path class="st5" d="M151.4,54.4l-7.5,22.9c3.1,1.8,6,4.3,8.7,6.6l9.7-20.3C159,60.8,155.4,57.2,151.4,54.4"/>
	<path class="st13" d="M102.7,90.4c8.5,0,24.6-15.3,33.5-15.3c11.8,0,19.9,16.6,27.1,13.8L174,66.4c-0.2,0.2-0.4,0.4-0.7,0.7
		c-7.9,5.6-19.2-17.2-33.6-17.2c-6.7,0-13,4.2-15.7,6.3c-4.2,3.3-16.4,10.8-21.1,10.8c-4.7,0-17-7.5-21.1-10.8
		c-2.8-2.2-9-6.3-15.7-6.3c-14.4,0-25.7,22.8-33.6,17.2c-0.3-0.2-0.6-0.4-0.7-0.7l10.6,22.5C49.3,91.6,57.4,75,69.2,75
		C78.1,75,94.3,90.4,102.7,90.4z"/>
	<path class="st2" d="M103.1,44c21.8,0,39.5-9.6,39.5-21.4c0-11.8-17.7-21.4-39.5-21.4c-21.8,0-39.5,9.6-39.5,21.4
		C63.6,34.4,81.3,44,103.1,44"/>
	<path class="st3" d="M103.1,44c21.8,0,39.5-9.6,39.5-21.4c0-11.8-17.7-21.4-39.5-21.4c-21.8,0-39.5,9.6-39.5,21.4
		C63.6,34.4,81.3,44,103.1,44z"/>
	<path class="st12" d="M103.1,40.5c19.4,0,35.2-8,35.2-17.9c0-9.9-15.8-17.9-35.2-17.9c-19.4,0-35.1,8-35.1,17.9
		C68,32.5,83.7,40.5,103.1,40.5"/>
	<path class="st14" d="M103.1,40.5c19.4,0,35.2-8,35.2-17.9c0-9.9-15.8-17.9-35.2-17.9c-19.4,0-35.1,8-35.1,17.9
		C68,32.5,83.7,40.5,103.1,40.5z"/>
	<path class="st4" d="M103.2,36.2c15.8,0,28.6-5.1,28.6-11.5c0-6.3-12.8-11.4-28.6-11.4c-15.8,0-28.6,5.1-28.6,11.4
		C74.6,31.1,87.4,36.2,103.2,36.2"/>
	<path class="st15" d="M103.2,36.2c15.8,0,28.6-5.1,28.6-11.5c0-6.3-12.8-11.4-28.6-11.4c-15.8,0-28.6,5.1-28.6,11.4
		C74.6,31.1,87.4,36.2,103.2,36.2z"/>
	<path class="st4" d="M103.1,16.6c-15.2,0-27.5,12.3-27.5,27.5c0,15.2,12.3,27.5,27.5,27.5h-0.3c15.2,0,27.5-12.3,27.5-27.5
		c0-15.2-12.3-27.5-27.5-27.5H103.1"/>
	<path class="st13" d="M103.1,16.6c-15.2,0-27.5,12.3-27.5,27.5c0,15.2,12.3,27.5,27.5,27.5h-0.3c15.2,0,27.5-12.3,27.5-27.5
		c0-15.2-12.3-27.5-27.5-27.5H103.1z"/>
	<path class="st2" d="M98.5,67l-5.7-9.6l-10.4-1.7l-2.6,3.3c0.1,0.2,0.2,0.3,0.3,0.5l0.4,0.6c3.5,4.9,8.5,8.6,14.4,10.4l1.1,0.2
		L98.5,67"/>
	<polyline class="st2" points="91.4,40.4 95.9,54.1 109.9,54.1 114.4,40.4 102.9,32 91.4,40.4 	"/>
	<path class="st2" d="M102.9,26.5L102.9,26.5l8.6-5.6v-2.8c-2.7-0.9-5.6-1.4-8.6-1.4c-3,0-5.8,0.5-8.5,1.4v2.8L102.9,26.5"/>
	<path class="st2" d="M87,36l0.3-10.9l-2.2-1.7c-1.2,1-2.3,2.1-3.2,3.3l-0.1,0.1c-3.1,3.8-5.2,8.5-5.9,13.7l2.5,1.1L87,36"/>
	<path class="st2" d="M113,57.3l-5.7,9.6l2.5,3.8l1-0.2c6-1.8,11.1-5.7,14.6-10.7l0.2-0.3c0.1-0.2,0.2-0.4,0.4-0.6l-2.6-3.3
		L113,57.3"/>
	<path class="st2" d="M118.8,36l8.7,5.5l2.5-1.1c-0.7-5.2-2.8-9.9-6-13.7l0,0c-1-1.2-2.1-2.3-3.3-3.3l-2.2,1.7L118.8,36"/>
</g>
</svg>
