<?xml version="1.0" encoding="utf-8"?>
<!-- Generator: Adobe Illustrator 21.0.0, SVG Export Plug-In . SVG Version: 6.00 Build 0)  -->
<svg version="1.1" id="Layer_1" xmlns="http://www.w3.org/2000/svg" xmlns:xlink="http://www.w3.org/1999/xlink" x="0px" y="0px"
	 viewBox="0 0 368.8 432.3" style="enable-background:new 0 0 368.8 432.3;" xml:space="preserve">
<style type="text/css">
	.st0{fill-rule:evenodd;clip-rule:evenodd;fill:#FFFFFF;}
	.st1{fill-rule:evenodd;clip-rule:evenodd;fill:#1B449C;}
	.st2{fill-rule:evenodd;clip-rule:evenodd;fill:#E03A3E;}
	.st3{fill-rule:evenodd;clip-rule:evenodd;fill:#E03A3E;stroke:#E03A3E;stroke-width:0.6565;}
	.st4{fill:none;stroke:#1B449C;stroke-width:0.7493;}
	.st5{fill:none;stroke:#1B449C;stroke-width:0.7567;}
	.st6{fill-rule:evenodd;clip-rule:evenodd;fill:#1B449C;stroke:#1B449C;stroke-width:0.6274;}
	.st7{fill-rule:evenodd;clip-rule:evenodd;fill:#1B449C;stroke:#1B449C;stroke-width:0.6755;}
</style>
<g>
	<path class="st0" d="M362.5,295.4l-0.1-0.1l-17.8-15.6l-3.8-3.5c-3.6-3.6-9.1-8-18.7-7.7c-1.6,0-3.1,0.1-4.7,0.4
		c1.6-7.6,2.9-15.6,3.6-24c0.5-5.8,0.8-11.6,0.8-17.2c0-0.1,0-2.2,0-2.2l-0.1-4.6l0,0.4V0H46.9v221.3l0-0.4l-0.1,4.6l0,2.2
		c0,5.6,0.3,11.4,0.8,17.2c0.7,8.4,2,16.4,3.6,23.9c-1.5-0.3-3-0.4-4.5-0.4c-9.5-0.3-15.1,4.1-18.7,7.7l-3.8,3.5L6.5,295.3l-0.1,0.1
		c-6.2,6.1-6.8,12.1-6.2,16.1c1.6,11.2,15.9,19.5,17.3,20.2l8.3-6.5c5.9-2.3,9.3,0.9,9.3,0.9c0.6,0.3,2.6,2,3.8,8.5l0.7,3.8
		c-4.6,4-7.9,6.9-7.9,6.9l2.8,4.1c8.2,12,11.4,15.7,16.7,21.7c35.6,40.1,81.5,61.3,132.7,61.3h0.8c51.2,0,97-21.2,132.7-61.3
		c5.3-6,8.5-9.7,16.7-21.7l2.8-4.1c0,0-3.2-2.8-7.7-6.7l0.7-3.9c1.2-6.5,3.2-8.2,3.8-8.5c0,0,3.4-3.2,9.3-0.9l8.3,6.5
		c1.4-0.8,15.7-9.1,17.3-20.2C369.2,307.5,368.6,301.5,362.5,295.4L362.5,295.4z"/>
	<path class="st1" d="M341,282.7c0,0,9,19.3-18.3,21.3l28.2,22.1c0,0,22.6-13.2,8.4-27.4L341,282.7L341,282.7z"/>
	<path class="st2" d="M335.4,295.3c5-5.3,0.2-14.1,0.2-14.1s-4.3-8.1-13.1-7.7c-2.1,0-4.3,0.3-6.5,1c-1.8,7.1-4,13.8-6.6,20l0,0
		c-0.4,0.9-3.4,8.4-9.6,18.6c0.7,0.6,1.9,1.6,3.3,2.8l21.2,18.3c2.6-17.9,12.7-13.6,12.7-13.6l-23.8-18.9
		C331.4,301.1,335.4,295.3,335.4,295.3L335.4,295.3z"/>
	<path class="st1" d="M27.6,283c0,0-9,19.3,18.3,21.3l-28.2,22.1c0,0-22.6-13.2-8.4-27.4L27.6,283L27.6,283z"/>
	<path class="st2" d="M33.2,295.5c-5-5.3-0.2-14.1-0.2-14.1s4.3-8.1,13.1-7.7c2.1,0,4.3,0.3,6.5,1c1.8,7.1,4,13.8,6.6,20l0,0
		c0.4,0.9,3.4,8.4,9.6,18.6c-0.7,0.6-1.9,1.6-3.3,2.8l-21.2,18.3c-2.6-18-12.7-13.6-12.7-13.6L55.3,302
		C37.2,301.3,33.2,295.5,33.2,295.5L33.2,295.5z"/>
	<path class="st1" d="M292.7,314.3c7.7-12.1,11.4-21.2,11.6-21.8l-0.1,0.3c5.8-13.8,9.6-30,11.2-48.3c0.5-5.6,0.8-11.3,0.8-16.7
		c0-0.8,0-1.5,0-2.2c0-1.6,0-3-0.1-4.2c0-0.4,0-215.8,0-215.8H52.5c0,0,0,215.4,0,215.8c-0.1,1.2-0.1,2.6-0.1,4.2c0,0.7,0,1.4,0,2.2
		c0,5.5,0.3,11.1,0.8,16.7c1.6,18.2,5.4,34.3,11.1,48.1c0.5,1.2,4.1,10.1,11.6,21.8l-36.8,31.8c8.2,11.9,11.2,15.4,16.3,21.1
		c34.5,38.9,79,59.4,128.5,59.4h0.8c49.5,0,94-20.6,128.5-59.4c5.1-5.7,8.1-9.2,16.3-21.1L292.7,314.3L292.7,314.3z"/>
	<path class="st0" d="M184.3,17.7H64.6v203.9c0,0-1.9,36.1,11,66.4c0,0,30.7,78.3,108.3,78.3h0.4c77.7,0,108.8-78.3,108.8-78.3
		c12.9-30.3,11-66.4,11-66.4V17.7H184.3L184.3,17.7z"/>
	<polygon class="st2" points="162.1,133.6 206.3,133.6 206.3,306.3 162.1,306.3 162.1,133.6 	"/>
	<path class="st2" d="M125.8,68.3V39.1c-6,0.3-11.5,1.7-16.9,4.1l3.5-10.8h42.9l-4.6,9.6c-3.7-1.9-7.8-2.8-12.7-2.9v29.1
		c0,4.6,0.6,8.7,2.5,12.6h-17.1C125.2,76.9,125.8,72.9,125.8,68.3L125.8,68.3z"/>
	<path class="st2" d="M208.4,68.3V45.1c0-4.6-0.6-8.7-2.5-12.6H223c-1.8,3.9-2.5,8-2.5,12.6v9.3l14.8-16.7c1.5-1.7,2.2-3.1,2.2-4.6
		c0-0.2-0.1-0.4-0.1-0.6h19.1c-4.5,2.8-8.1,5.4-10.4,7.9l-12.7,13.7l17.2,20.3c1.6,1.9,3.8,4,6.7,6.5h-19c0.1-0.6,0.2-1.2,0.2-1.7
		c0-1.9-0.9-3.5-2.4-5.3l-15.5-18.6v13c0,4.6,0.6,8.7,2.5,12.6H206C207.8,76.9,208.4,72.9,208.4,68.3L208.4,68.3z"/>
	<path class="st2" d="M262.1,68.3V45.1c0-4.6-0.6-8.7-2.5-12.6h33l-5.5,9.5c-3.5-1.3-7.7-2-12.9-2.2v13.3h16.7l-6.2,8.7
		c-2.4-1.5-5.5-2.1-9.4-2.1c-0.4,0-0.7,0-1.1,0v13.9c1.6,0.1,3.2,0.1,4.8,0.1c6.9,0,12.7-0.8,17.5-2.6l-4.6,9.6h-32.3
		C261.4,76.9,262.1,72.9,262.1,68.3L262.1,68.3z"/>
	<path class="st3" d="M148.1,96.5c-6.6,0-11.3,4.4-11.3,11.3c0,7,4.9,11.4,12.2,11.4c4.1,0,7.2-1.4,9.9-4.3l-1.1,7.3
		c-3.5,1.3-7.2,2-11.2,2c-4.4,0-8.2-1-11.4-3.1c-4.6-3-6.9-7.1-6.9-12.2c0-5.4,2.5-10,7.1-13.2c4-2.8,8.8-4.3,14.2-4.3
		c2.7,0,5.6,0.4,8.6,1.3v8C155.1,97.9,151.7,96.5,148.1,96.5L148.1,96.5L148.1,96.5z"/>
	<path class="st3" d="M165.1,115.4V100c0-3.1-0.4-5.8-1.6-8.4h11c-1.2,2.6-1.6,5.3-1.6,8.4v15.4c0,3.1,0.4,5.8,1.6,8.4h-11
		C164.7,121.2,165.1,118.5,165.1,115.4L165.1,115.4L165.1,115.4z"/>
	<path class="st3" d="M188.2,115.4V96.1c-3.9,0.2-7.4,1.1-10.9,2.8l2.2-7.2h27.6l-3,6.4c-2.4-1.2-5-1.9-8.1-2v19.4
		c0,3.1,0.4,5.8,1.6,8.4h-11C187.8,121.2,188.2,118.5,188.2,115.4L188.2,115.4L188.2,115.4z"/>
	<path class="st3" d="M231.2,123.8h-11c1.2-2.6,1.6-5.3,1.6-8.4v-6.7L213.5,97c-1.3-1.9-2.8-3.6-4.4-5.3H220
		c-0.1,0.3-0.1,0.5-0.1,0.7c0,0.8,0.2,1.5,0.5,2l5.6,8.3l4.6-7.7c0.4-0.8,0.7-1.6,0.7-2.4c0-0.3-0.1-0.6-0.1-1h10
		c-1.9,1.7-3.5,3.5-4.8,5.5l-6.9,10.3v8C229.6,118.5,230,121.2,231.2,123.8L231.2,123.8L231.2,123.8z"/>
	<path class="st2" d="M177.5,38c-7.8,0-11.4,9.1-11.4,18.5c0,9.5,3.6,18.5,11.4,18.5c7.8,0,11.4-9.1,11.4-18.5
		C189,47,185.3,38,177.5,38L177.5,38z M202.7,56.7c0,16-11.3,24.6-25.2,24.6c-13.9,0-25.2-8.2-25.2-24.6c0-13.6,11.3-24.6,25.2-24.6
		C191.5,32.2,202.7,43.2,202.7,56.7L202.7,56.7L202.7,56.7z"/>
	<path class="st1" d="M165.3,341.5c0-5.5,1.2-8.3,3.9-8.3c2.6,0,3.9,2.8,3.9,8.3c0,5.5-1.4,8.2-3.9,8.2
		C166.4,349.7,165.3,347.1,165.3,341.5L165.3,341.5z M173.9,331.4c3.5-1.1,5.4-4,5.4-8c0-5.7-3.5-8.8-9.8-8.8
		c-6.6,0-10.4,3.6-10.4,8.8c0,4,1.9,6.9,5.4,7.9v0.4c-4.4,1.2-6.7,4.7-6.7,10.1c0,6.8,4.1,9.7,11.4,11.1c7.3,1.4,11.4-2.1,11.4-9
		c0-5-2.4-11.2-6.7-12.3V331.4L173.9,331.4z M165.5,323.9c0-4.2,1.2-6.4,3.7-6.4c2.6,0,3.6,2,3.6,6.4c0,4.3-1.2,6.4-3.6,6.4
		C166.7,330.3,165.5,328.2,165.5,323.9L165.5,323.9L165.5,323.9z"/>
	<path class="st4" d="M165.3,341.5c0-5.5,1.2-8.3,3.9-8.3c2.6,0,3.9,2.8,3.9,8.3c0,5.5-1.4,8.2-3.9,8.2
		C166.4,349.7,165.3,347.1,165.3,341.5L165.3,341.5L165.3,341.5z M173.9,331.4c3.5-1.1,5.4-4,5.4-8c0-5.7-3.5-8.8-9.8-8.8
		c-6.6,0-10.4,3.6-10.4,8.8c0,4,1.9,6.9,5.4,7.9v0.4c-4.4,1.2-6.7,4.7-6.7,10.1c0,6.8,4.1,9.7,11.4,11.1c7.3,1.4,11.4-2.1,11.4-9
		c0-5-2.4-11.2-6.7-12.3V331.4L173.9,331.4z M165.5,323.9c0-4.2,1.2-6.4,3.7-6.4c2.6,0,3.6,2,3.6,6.4c0,4.3-1.2,6.4-3.6,6.4
		C166.7,330.3,165.5,328.2,165.5,323.9L165.5,323.9L165.5,323.9z"/>
	<path class="st1" d="M191.7,332.9c0-0.1,0-0.1,0-0.2c0-9.2,1.9-14.6,6.1-14.6c2,0,3.5,1.1,4.9,3.3l0.3-0.1c0.1-1.7,0.3-3.5,0.6-5.5
		c-1.9-0.9-5.8-1.3-7.7-1.3c-9.1,0-12.2,10.4-12.2,24.5c0,10.8,4.1,16,11.7,14.8c6.9-1.1,11.1-5,11.1-13.2c0-6.7-3.3-10.7-8.5-10.7
		C195.2,329.9,192.9,331.1,191.7,332.9L191.7,332.9z M198.8,342.1c0,5.8-1.1,8.7-3.4,8.7c-2.4,0-3.6-2.9-3.6-8.9
		c0-5.3,1.2-7.9,3.5-7.9C197.9,334,198.8,336.6,198.8,342.1L198.8,342.1L198.8,342.1z"/>
	<path class="st5" d="M191.7,332.9v-0.2c0-9.2,1.9-14.6,6.1-14.6c2,0,3.5,1.1,4.9,3.3l0.3-0.1c0.1-1.7,0.3-3.5,0.6-5.5
		c-1.9-0.9-5.8-1.3-7.7-1.3c-9.1,0-12.2,10.4-12.2,24.5c0,10.8,4.1,16,11.7,14.8c6.9-1.1,11.1-5,11.1-13.2c0-6.7-3.3-10.7-8.5-10.7
		C195.2,329.9,192.9,331.1,191.7,332.9L191.7,332.9L191.7,332.9z M198.8,342.1c0,5.8-1.1,8.7-3.4,8.7c-2.4,0-3.6-2.9-3.6-8.9
		c0-5.3,1.2-7.9,3.5-7.9C197.9,334,198.8,336.6,198.8,342.1L198.8,342.1L198.8,342.1z"/>
	<path class="st6" d="M211.2,343.6c1.2,2.3,4.5,2.5,4.5,2.5c6.7-0.3,5.9-10.8,5.9-10.8c-0.7-5.4-4.8-4.8-8.1-4.5
		c-0.5,0-1.3,0.1-1.8,0.2l0.1-4c0.3,0,0.7,0,1.1,0c3.5-0.3,6-1.4,6.6-4.9c0.4-2.1,0-5.5-3.6-5.4c-4.1,0.1-4.7,3.1-5.9,4.7l-0.5-0.3
		l-0.4-4.7c2.1-2.5,7.4-2.9,7.4-2.9c5.5-0.5,9.7,2.5,10.1,6.9c0.3,3.2-0.9,4.5-4.7,6.3l0,0.3c4.6-0.3,6.3,1.2,7.4,4.4
		c1.7,5.1,1.2,18.3-21.3,19.4c0,0,1.8-2,2.4-7.1L211.2,343.6L211.2,343.6z"/>
	<path class="st7" d="M154.1,349c-3.7-1.4-9.4-4.4-9.4-4.4c0.3-3,1-9.5,1-20.2c0-1.2-0.1-2-0.2-3.7c-1.8,0.7-1.1,0.1-2.9,1.2l-2-3
		c4.8-1.6,6.8-1.8,11.5-4.3l0.9,0.5c-0.1,9.7-0.1,15.1-0.1,18.2c0,4,0.5,10.4,0.9,14.3C153.9,348.2,154.1,349,154.1,349L154.1,349z"
		/>
	<path class="st2" d="M120.2,329.6c-3.4-3-6.8-6.4-10-10c-16-17.7-23.3-35.9-23.3-36.1l-0.1-0.2l-0.1-0.1
		c-9.1-21.4-10.1-46.6-10.1-56.6c0-2.8,0.1-4.4,0.1-4.4l0-0.3c0,0,0-37.4,0-130.8H120L120.2,329.6L120.2,329.6z"/>
	<path class="st2" d="M248.4,329.6c3.4-3,6.8-6.4,10-10c15.9-17.7,23.3-35.9,23.3-36.1l0.1-0.2l0.1-0.1
		c9.1-21.4,10.1-46.6,10.1-56.6c0-2.8-0.1-4.4-0.1-4.4l0-0.3c0,0,0-37.4,0-130.8h-43.4L248.4,329.6L248.4,329.6z"/>
	<path class="st0" d="M147.6,396.1c0.4,0.2,0.9,0.3,1.3,0.4c6.5,1.7,10.5-0.3,11.9-6c1.3-5.1-0.8-7.9-6.2-9.3
		c-2.3-0.6-4.5-0.9-6.5-1.4c-0.7-0.2-1.6-0.5-2.7-0.9c-0.9,5.1-2,9.6-3.1,13.6c-0.9,3.6-2.1,8-3.9,13.3c1.4,0.2,2.5,0.5,3.4,0.7
		c0.9,0.2,2,0.6,3.3,1.1c0.6-3.3,1-5.3,1.1-6L147.6,396.1L147.6,396.1z M148.3,393.3l1.6-6c0.3-1,0.5-1.8,0.6-2.2
		c0-0.2,0.2-0.8,0.5-1.8c0.7,0.1,1.1,0.2,1.3,0.2c2.6,0.7,3.5,2.6,2.7,5.8C153.9,393.1,152,394.2,148.3,393.3L148.3,393.3
		L148.3,393.3z"/>
	<path class="st0" d="M165.6,398.7c0,9.1,4.9,14,13.6,14c9,0,14.2-5.5,14.2-15.1c0-8.9-5-13.8-13.6-13.8
		C170.9,383.9,165.6,389.3,165.6,398.7L165.6,398.7z M172.1,398.4c0-7.6,2.9-11.8,7.3-11.9c4.4,0,7.3,4.2,7.3,11.8
		c0,7.6-3,11.8-7.3,11.8C175,410.1,172.1,406,172.1,398.4L172.1,398.4L172.1,398.4z"/>
	<path class="st0" d="M209.1,385.7c0.2,2.3,0.6,4.2,0.8,5.7c0.1,0.6,0.2,1.2,0.3,1.6c1,5.9,2,11.4,3.3,16.7
		c-1.6,0.1-2.7,0.3-3.4,0.4c-0.9,0.2-2,0.4-3.3,0.8c-0.5-5-1.1-9.6-1.9-13.8c-0.4-2.2-1.1-5.7-2-10.3c-2.2,0.4-4.3,0.9-6.4,1.6
		c-0.1-0.8-0.1-1.5-0.2-2.1c-0.1-0.4-0.2-0.9-0.4-1.7c3.9-0.5,7.1-0.9,9.6-1.4c2.3-0.4,5.5-1.1,9.5-1.9c0.1,0.9,0.1,1.4,0.2,1.8
		c0.1,0.6,0.3,1.3,0.5,2.1C213.5,385.2,211.3,385.4,209.1,385.7L209.1,385.7z"/>
	<path class="st0" d="M232.3,379c0.6,2.2,1.3,4,1.8,5.5c0.2,0.6,0.4,1.1,0.6,1.6c2,5.6,3.8,10.9,6,15.9c-1.5,0.4-2.7,0.7-3.3,0.9
		c-0.8,0.3-1.9,0.7-3.2,1.3c-1.3-4.9-2.7-9.3-4.1-13.3c-0.7-2.1-2-5.4-3.7-9.8c-2.1,0.7-4.1,1.6-6,2.6c-0.2-0.8-0.4-1.5-0.6-2
		c-0.1-0.4-0.4-0.9-0.7-1.7c3.8-1.1,6.9-2.1,9.2-2.9c2.2-0.8,5.2-2,9-3.5c0.2,0.8,0.4,1.4,0.5,1.7c0.2,0.6,0.5,1.3,0.8,2
		C236.5,377.7,234.3,378.2,232.3,379L232.3,379z"/>
	<path class="st0" d="M250.2,384.9c-0.4-0.8-0.9-1.6-1.4-2.5c-0.3-0.5-0.5-1-0.8-1.5c-2-3.6-3.9-7.1-6.3-10.5
		c3.1-1.5,5.2-2.6,6.3-3.2c1.7-0.9,3.9-2.2,6.6-3.8c0.3,0.7,0.5,1.3,0.8,1.7c0.2,0.4,0.6,0.9,1,1.5c-1.8,0.8-3.5,1.6-5.1,2.5
		c-0.7,0.4-1.4,0.8-2,1.2c0.9,1.8,1.8,3.6,2.8,5.3l1,1.9c1.7-1,4-2.4,6.8-4.1c0.3,0.8,0.6,1.4,0.8,1.8c0.2,0.3,0.5,0.8,1,1.6
		c-2.5,1.1-4.8,2.3-7.1,3.5l2.1,3.9c1,1.8,1.9,3.3,2.8,4.7c2.2-1.2,4.4-2.5,6.7-4.2c0.3,0.7,0.6,1.3,0.8,1.7c0.2,0.3,0.6,0.9,1,1.6
		c-3.7,1.9-6.4,3.3-8.1,4.2c-1.2,0.7-2.8,1.6-4.7,2.8C253.6,391.2,251.9,388,250.2,384.9L250.2,384.9z"/>
	<path class="st0" d="M276.3,381.3c1-0.9,1.8-1.6,2.4-2.2c0.6-0.5,1.5-1.1,2.7-1.8c-1.7-1.9-3.4-3.9-5-5.9l-3.3-4.2
		c6.4,2.5,10.9,4.6,13.4,6.1c1-0.9,1.9-1.7,2.7-2.4c0.7-0.5,1.8-1.3,3.2-2.3c-4.1-1.4-9.1-3.4-14.8-6c2.5-2.4,2.6-5.8,0.2-8.9
		c-3.1-4-6.5-4.1-10.8-0.7c-2.1,1.6-3.8,3.3-5.6,4.7c-0.7,0.5-1.4,1-2.3,1.6c3.5,3.8,6.5,7.5,8.9,10.7c0.3,0.4,0.6,0.7,0.9,1.1
		C271.1,374,273.6,377.2,276.3,381.3L276.3,381.3z M271.8,365.6l-3.5-4.4c-0.7-0.9-1.7-2.1-2.7-3.7c0.4-0.3,0.7-0.5,0.7-0.5
		c2.6-2,4.7-1.9,6.8,0.8c2.3,3,1.9,5.3-1.2,7.8C271.9,365.5,271.9,365.6,271.8,365.6L271.8,365.6L271.8,365.6z"/>
	<path class="st0" d="M292.5,356.8l0.4-0.5c3,1.9,5.5,1.7,7.5-0.6c1.8-2.1,1.8-4.4-0.1-6c-1.8-1.6-3.6-0.9-6.8,0.3
		c-4.6,1.8-7.5,2.5-10.9-0.5c-3.9-3.4-4.2-8.3-0.3-12.7c1.6-1.8,3.4-3.1,5.6-3.7c0.9,1.6,1.9,3.2,3.1,4.6l-0.3,0.3
		c-2.9-1.2-5-1-6.6,0.9c-1.7,1.9-1.5,4.1,0,5.4c1.8,1.6,3.6,0.6,7.3-0.8c4.3-1.6,7.1-2.4,10.6,0.7c4.3,3.8,4.4,9,0.1,13.9
		c-1.6,1.8-3.4,3.2-5.3,3.9C295.2,360.2,293.8,358.4,292.5,356.8L292.5,356.8z"/>
	<path class="st2" d="M103.6,56.1c-1.7-1.2-5.7-3.1-10.5-5.8c-3.8-2.2-6.6-4-6.5-6.6c0.1-2.8,2.6-5.3,7-5.1c4.5,0.1,9,3.1,12.4,7.2
		l-0.2-12.1c-3-0.9-6.1-1.4-9.3-1.5c-13.1-0.4-21.3,5-21.6,13.6c-0.2,5.5,3.4,9.1,10.2,12.9c6.2,3.5,11.4,5,11.6,9.3h0
		c-0.1,3.2-3,5.9-7.6,5.7c-4.7-0.2-9.4-3.4-12.9-8l0.1,13.6c3.2,1,7.2,1.6,10.6,1.7c13.7,0.5,22-5.7,22.4-15.4
		C109.4,61.9,107.5,58.9,103.6,56.1L103.6,56.1z"/>
	<path class="st0" d="M84.1,341.1c-1.7,1.5-3.1,2.8-4.2,3.9c-0.4,0.4-0.8,0.8-1.2,1.2c-4.3,4.1-8.3,8.1-11.9,12.2
		c-1-1.2-1.8-2.1-2.2-2.6c-0.6-0.6-1.5-1.4-2.5-2.3c3.9-3.2,7.3-6.4,10.3-9.3c1.6-1.6,4.1-4.1,7.4-7.5c-1.5-1.6-3.2-3-4.9-4.3
		c0.6-0.5,1.2-0.9,1.6-1.4c0.3-0.3,0.6-0.7,1.2-1.4c2.6,2.9,4.8,5.4,6.5,7.1c1.7,1.7,4,3.9,6.9,6.7c-0.7,0.5-1.1,0.9-1.4,1.2
		c-0.4,0.4-0.9,1-1.4,1.6C87,344.3,85.6,342.7,84.1,341.1L84.1,341.1z"/>
	<path class="st0" d="M85.3,360c0.4-0.4,0.7-0.9,1-1.2c2.6-3.1,5.5-6.7,8.5-11c1,1.1,1.8,1.9,2.4,2.3c0.7,0.6,1.7,1.2,2.8,2
		c-1.5,1.6-3,3.2-4.3,4.9l-2.8,3.4c1.8,1.6,2.9,2.6,3.6,3.2c1.1,0.9,2.5,2,4.1,3.2l2.8-3.4c1.4-1.7,2.7-3.4,3.9-5.2
		c1.1,1.1,1.9,1.9,2.5,2.4c0.6,0.5,1.5,1.1,2.7,1.9c-3.6,3.8-6.5,7.3-9.2,10.5c-0.3,0.4-0.6,0.8-1,1.2c-2.1,2.5-4.7,5.7-7.5,9.8
		c-1-1-1.8-1.7-2.4-2.3c-0.7-0.6-1.6-1.2-2.8-2c1.4-1.5,2.8-2.9,4.1-4.5l4.6-5.6c-1.5-1.4-2.8-2.5-3.9-3.4c-0.8-0.6-2-1.6-3.8-2.9
		l-4.6,5.6c-1.3,1.6-2.5,3.2-3.7,4.9c-1-1-1.8-1.8-2.5-2.3c-0.7-0.5-1.6-1.2-2.7-2C80.6,365.7,83.2,362.6,85.3,360L85.3,360z"/>
	<path class="st0" d="M110.6,380.8c0.4-0.8,0.9-1.6,1.3-2.5c0.3-0.5,0.5-1,0.8-1.5c1.9-3.6,3.8-7.1,5.4-11c3,1.7,5,2.9,6.1,3.5
		c1.7,0.9,4,2.1,6.8,3.4c-0.4,0.6-0.8,1.1-1,1.5c-0.2,0.4-0.4,0.9-0.7,1.6c-1.7-1.1-3.3-2.1-4.9-3c-0.7-0.4-1.4-0.8-2.1-1.1
		c-1,1.8-2,3.5-2.9,5.2l-1,1.9c1.8,0.9,4.2,2,7.1,3.4c-0.5,0.7-0.8,1.3-1,1.6c-0.2,0.3-0.4,0.9-0.8,1.7c-2.3-1.5-4.6-2.8-6.8-4.1
		l-2.1,3.9c-1,1.8-1.8,3.4-2.4,4.9c2.2,1.2,4.5,2.3,7.1,3.3c-0.4,0.6-0.7,1.2-1,1.6c-0.2,0.3-0.4,0.9-0.8,1.7
		c-3.6-2.1-6.2-3.6-7.9-4.5c-1.2-0.7-2.9-1.5-4.9-2.4C107.1,387.2,108.9,383.9,110.6,380.8L110.6,380.8z"/>
</g>
</svg>
