<?xml version="1.0" encoding="utf-8"?>
<!-- Generator: Adobe Illustrator 21.0.0, SVG Export Plug-In . SVG Version: 6.00 Build 0)  -->
<svg version="1.1" id="Layer_1" xmlns="http://www.w3.org/2000/svg" xmlns:xlink="http://www.w3.org/1999/xlink" x="0px" y="0px"
	 width="333.1px" height="333.1px" viewBox="0 0 333.1 333.1" style="enable-background:new 0 0 333.1 333.1;" xml:space="preserve"
	>
<path style="fill:#FFFFFF;" d="M325.7,166.5c0,89.7-73,162.6-162.6,162.6c-89.7,0-162.6-73-162.6-162.6c0-89.7,73-162.6,162.6-162.6
	C252.7,3.9,325.7,76.8,325.7,166.5z"/>
<path d="M325.1,166.5c0,87.4-71.1,158.5-158.5,158.5C79.1,325.1,8,253.9,8,166.5S79.1,8,166.5,8S325.1,79.1,325.1,166.5z M166.5,0
	C74.7,0,0,74.7,0,166.5S74.7,333,166.5,333S333,258.3,333,166.5C333.1,74.7,258.4,0,166.5,0z"/>
<path d="M134.2,195c-14.2,23.4-44.3,25-74.7,13.1c0,0,12.1-0.3,22.8-6.2c9.4-5.2,10.3-8.1,19.6-19.5c26.6-32.7,50.7-47.4,75.4-23.9
	C177.3,158.6,155.1,160.5,134.2,195z"/>
<path d="M166.4,215.2c-14.2,23.4-44.3,24.9-74.7,13.1c0,0,12.1-0.3,22.8-6.2c9.4-5.2,10.3-8.1,19.6-19.5
	c26.6-32.7,50.8-47.4,75.4-23.9C209.6,178.7,187.4,180.6,166.4,215.2z"/>
<path d="M271.5,181.8c1.3,13.2-6.9,25.1-33.5,40.9c0,0,41-34.8-9.3-59.3c-31.3-15.3-55-28.5-63.4-48c-5.8-13.5-0.2-36.3,16.8-44
	c0,0,18.8-9.2,52.8,3.4c0,0,18.9,6.7,8.7,19.6c0,0,2.6,4.5,5.3,9.9c2,4.2,1.5,6.3-2.9,3.6c0,0-49.4-43.1-62.5-17.7
	c0,0-4.8,9.1,1.4,20.2c5.1,6.7,9.1,8.6,17,13.2c12.2,6.4,20.5,10.8,35.7,19.2C237.5,142.7,269.3,158.3,271.5,181.8z"/>
<path d="M201.5,233.7c-14.2,23.4-44.3,24.9-74.7,13.1c0,0,12.1-0.3,22.8-6.2c9.4-5.2,10.4-8.1,19.6-19.5
	c26.6-32.7,50.7-47.4,75.4-23.9C244.6,197.2,222.4,199.2,201.5,233.7z"/>
<path d="M54.2,226.5c-0.1-1.7-0.3-2.6-1-4c-0.7-1.5-2.2-3.1-4.2-2.1c-3.7,1.8,1.2,9.6-5.1,12.7c-4.1,2-7.2-0.4-9.1-4.2
	c-0.7-1.3-0.9-2.8-1.1-4.3l2.7-1c0.1,1.1,0.3,3,1,4.4c0.8,1.6,2.7,3.3,5,2.2c4.3-2.1-0.9-9.7,5.1-12.6c3.4-1.7,6.5,0.2,8.2,3.6
	c0.6,1.3,1.1,2.9,1.3,4.4L54.2,226.5z"/>
<path d="M58.2,228.9l2,2.7l-11.5,15l0.1,0.1l17.3-7.3l2.6,3.5l-11.8,14.6v0.1l17.7-6.9l2,2.6l-21,7.5l-2.4-3.2l12.1-14.9l0,0
	l-17.7,7.4l-2.4-3.3L58.2,228.9z"/>
<path d="M84.4,259.5l2.4,2.1l-7.1,22l-2.5-2.2l1.9-5.5l-7.9-6.8l-5.2,2.7l-2.4-2.1L84.4,259.5z M83.6,262.7l-10.1,5.2l6.4,5.5
	L83.6,262.7z"/>
<path d="M97,269.6l3.6,2.1l-0.5,19.6h0.1l8.6-14.8l2.6,1.5l-10.7,18.4l-3.4-2l0.5-20h-0.1l-8.8,15.2l-2.6-1.5L97,269.6z"/>
<path d="M124.9,286.9c-1.2-1.1-1.9-1.7-3.4-2.3c-1.6-0.6-3.7-0.8-4.5,1.3c-1.5,3.8,7.4,6.2,4.9,12.8c-1.6,4.2-5.6,4.7-9.5,3.1
	c-1.4-0.5-2.6-1.5-3.7-2.4l1.3-2.5c0.8,0.8,2.3,2,3.8,2.6c1.6,0.6,4.3,0.6,5.2-1.7c1.7-4.4-7.3-6.5-4.9-12.7
	c1.4-3.5,4.9-4.3,8.5-2.9c1.3,0.5,2.8,1.3,4,2.4L124.9,286.9z"/>
<path d="M132.1,285.8l11.6,2.8l-0.6,2.6l-8.6-2.1l-1.5,6l7.9,1.9l-0.6,2.6l-7.9-1.9l-1.6,6.8l8.6,2.1l-0.6,2.6l-11.6-2.8
	L132.1,285.8z"/>
<path d="M156,290.1l3.2,0.2l7.4,21.9l-3.3-0.2l-1.8-5.5l-10.4-0.8l-2.6,5.2l-3.2-0.2L156,290.1z M157.3,293.1l-5,10.2l8.5,0.6
	L157.3,293.1z"/>
<path d="M196,290.9c-1.5-0.6-3-0.7-4.5-0.4c-4.8,0.8-7.5,4.9-6.7,9.6c0.9,4.9,5,7.6,9.3,6.9c1.5-0.3,3.4-1,4.4-1.8l0.7,2.9
	c-1.5,0.9-3.4,1.4-4.7,1.6c-6.6,1.1-11.8-2.4-12.9-9c-1.1-6.5,2.8-11.6,9.3-12.7c1.6-0.3,3.3-0.3,4.9,0.1L196,290.9z"/>
<path d="M199.7,286.1l2.9-0.9l6,20.5l-2.9,0.9L199.7,286.1z"/>
<path d="M213.2,284.3l-6.1,2.5l-1-2.5l15.1-6.2l1,2.5l-6.1,2.5l7.1,17.2l-2.8,1.2L213.2,284.3z"/>
<path d="M236,283.9l-13.6-6.3l3.1-1.9l10.4,4.9l0.3-11.4l3.1-1.9l-0.7,14.9l4.6,7.6l-2.6,1.6L236,283.9z"/>
<path d="M253.9,254.6l2.2-2.3l21.5,8.5l-2.3,2.4L270,261l-7.3,7.4l2.3,5.3l-2.2,2.3L253.9,254.6z M257,255.5l4.5,10.4l6-6L257,255.5
	z"/>
<path d="M264.5,242.8l6.6-9.2l2.2,1.6l-4.8,6.7l5.1,3.6l4.6-6.4l2.2,1.6l-4.6,6.4l7.9,5.7l-1.8,2.5L264.5,242.8z"/>
<path d="M283.5,218.1c-1.3,0.8-2.4,2-3.1,3.4c-2.3,4.4-0.6,8.9,3.6,11.1c4.4,2.3,9.1,0.6,11.1-3.3c0.7-1.4,1.3-3.3,1.2-4.6l2.7,1.2
	c-0.2,1.7-1,3.5-1.6,4.7c-3.1,6-9,8-15,4.9c-5.8-3-7.5-9.3-4.5-15c0.8-1.5,1.7-2.8,3-3.8L283.5,218.1z"/>
</svg>
