<?xml version="1.0" encoding="utf-8"?>
<!-- Generator: Adobe Illustrator 21.0.0, SVG Export Plug-In . SVG Version: 6.00 Build 0)  -->
<svg version="1.1" id="Layer_1" xmlns="http://www.w3.org/2000/svg" xmlns:xlink="http://www.w3.org/1999/xlink" x="0px" y="0px"
	 viewBox="0 0 79.5 162.4" style="enable-background:new 0 0 79.5 162.4;" xml:space="preserve">
<style type="text/css">
	.st0{fill:#001C58;}
	.st1{fill:#FFFFFF;}
	.st2{fill:none;stroke:#FFFFFF;stroke-width:0.343;}
	.st3{clip-path:url(#SVGID_2_);fill:none;stroke:#FFFFFF;stroke-width:0.343;stroke-linecap:round;stroke-linejoin:round;}
	.st4{fill:none;stroke:#FFFFFF;stroke-width:0.343;stroke-linecap:round;stroke-linejoin:round;}
</style>
<g>
	<path class="st0" d="M24.1,102.1c-0.3-0.1-0.8,0-1.4,0.5c-0.9,0.9-1.3,2.2-1.2,3.7c0,0.4,0.1,0.6,0.2,0.9c0.2,0.6,0.7,0.9,1,1
		c0.4,0.1,0.9-0.2,1.3-0.7c1-1.2,1.4-3.2,0.9-4.6C24.7,102.5,24.4,102.2,24.1,102.1 M44.3,117.5c0.5,1,1.3,1.6,2,1.8
		c0.8,0.3,3,0.7,4.7,0.9c2,0.2,3.5-0.9,4.4-3.1c-0.7,0-1.4-0.1-2.1-0.2c-0.1,0.5-0.3,0.9-0.5,1.3c-0.2,0.3-0.5,0.4-0.8,0.2
		c-0.3-0.2-0.4-0.6-0.2-0.9c0.1-0.2,0.3-0.5,0.4-0.8c-0.4-0.1-0.8-0.1-1.2-0.2c-0.1,0.5-0.3,1-0.4,1.4c-0.1,0.3-0.5,0.5-0.8,0.3
		c-0.3-0.2-0.5-0.5-0.3-0.8c0.1-0.3,0.2-0.7,0.3-1.1c-0.2,0-0.4-0.1-0.6-0.1c-0.2-0.1-0.4-0.1-0.6-0.1c-0.1,0.3-0.2,0.7-0.4,1.1
		c-0.1,0.3-0.5,0.4-0.8,0.3c-0.3-0.1-0.5-0.5-0.3-0.8c0.1-0.3,0.2-0.6,0.3-0.9c-1-0.3-2.1-0.6-3.2-0.9
		C43.8,116,44.1,116.9,44.3,117.5z M55.8,115.9c0.2-1.2,0-2.1-0.3-2.6c-0.4-0.7-1-1.2-1.7-1.3l-0.8-0.2c-0.7-0.1-1.8-0.3-3.4-0.7
		c-2.1-0.5-4,0.4-5,2.6c1,0.3,2.1,0.6,3.1,0.8c0.2-0.8,0.2-1.3,0.2-1.3c0-0.3,0.3-0.6,0.6-0.6c0.4,0,0.6,0.3,0.6,0.6
		c0,0.1,0,0.7-0.2,1.6c0.2,0,0.4,0.1,0.6,0.1c0.2,0,0.4,0.1,0.6,0.1c0.2-0.9,0.3-1.6,0.3-1.6c0-0.3,0.4-0.6,0.7-0.5
		c0.4,0.1,0.6,0.4,0.5,0.7c0,0.1-0.1,0.8-0.3,1.7c0.4,0.1,0.8,0.2,1.2,0.2c0.1-0.8,0.2-1.3,0.2-1.4c0-0.3,0.3-0.6,0.7-0.6
		c0.3,0,0.6,0.3,0.6,0.6c0,0-0.1,0.7-0.2,1.5C54.4,115.9,55.2,115.9,55.8,115.9z M59.4,108.2c-0.1-2.2-0.5-4.4-1.3-6.4
		c-0.9-2.5-4.1-4.2-8.2-5.1c-7.6-1.7-17.6,1.1-23.9,6.4c0.2,1,0.2,2.1-0.2,3.2c4.6,2.4,11.2,5.1,17.5,7c1.5-3.4,4.3-4,6.5-3.5
		c1.6,0.4,2.6,0.6,3.3,0.7l0.8,0.2c1,0.3,2,1,2.5,1.9c0.4,0.7,0.8,1.8,0.5,3.2c0.8,0,1.1-0.2,1.2-0.3
		C59.1,113.3,59.5,110.8,59.4,108.2z M50.9,121.5c-1.7-0.2-4-0.7-5-1c-1.1-0.4-2.1-1.3-2.7-2.5c-0.2-0.5-0.4-1.1-0.5-1.9
		c0-0.5,0-1,0.2-1.5c-6.3-1.9-12.9-4.6-17.6-7c-0.2,0.3-0.3,0.6-0.6,0.8c-0.4,0.4-0.7,0.7-1.1,0.9c0.4,3.8,1.8,7.6,3.9,10.9
		c2.8,4.4,6.7,7.4,10.8,8.3c1.5,0.3,3.4,0.7,5.1,0.4c6.4-1.4,11.6-5.8,14.1-11.7c-0.3,0.1-0.6,0.1-1,0.1
		C55.2,121.5,52.2,121.6,50.9,121.5z M21.2,103.5c0.2-0.5,0.5-0.9,0.8-1.3c0.2-0.3,0.5-0.5,0.8-0.7c0.7-3.5,2.3-6.6,4.6-9
		c-3.5,2.4-6.1,5.9-7.5,10C20.1,102.7,20.6,103.1,21.2,103.5z M20.8,104.7c-0.5-0.4-0.9-0.7-1.2-1c-0.5,2-0.8,4-0.7,6.1
		c0,0.4,0.1,0.9,0.1,1.3c0.3-1.2,0.9-2.5,1.8-3.9C20.6,106.4,20.6,105.5,20.8,104.7z M22.4,109.3c-0.5-0.1-0.8-0.4-1.1-0.8
		c-1.5,2.3-2.2,4.4-1.6,6.3c2.3,7.8,9.2,13.6,17.5,14.4C29.3,126.7,23.4,118.5,22.4,109.3"/>
	<path class="st1" d="M30.3,0.9c-7.9,0-9.8,4.1-9.8,4.1s9.1-0.7,9.1,8.4c0,4-2.2,6.8-4.6,9.7c-2.7,3.4-5.8,7.2-5.8,13.7
		c0,10.7,6.9,15.7,12.9,20.1c5.3,3.8,10.2,7.5,10.2,14.3c0,6.9-3,12.2-4.4,13.6c-2.3,2.3-4.4,2.7-6.1,3.1c-1.7,0.3-3.3,0.7-3.7,3.1
		c-6.4,3.8-10.2,10.6-10.2,18c0,0.3,0,0.6,0,0.9c0.2,5.6,2.6,10.8,6.7,14.6c4.1,3.8,9.5,5.7,15.1,5.5c5.6-0.2,10.8-2.6,14.6-6.7
		c3.8-4.1,5.8-9.5,5.5-15.1c-0.3-8.6-5.8-16-13.8-18.9l0,0l-0.1-0.1l-0.2,0c-1-0.4-2.2-0.8-2.2-3.4c0-2.5,1.2-2.8,3.4-3.2
		c1.4-0.3,3-0.6,4.7-1.6c2.9-1.8,3.4-3.9,2.9-4.4c-0.7-0.7-1.5,0.8-4.5,1.7c-1,0.3-2.1,0.5-2.8,0.5c-0.6,0-1,0-1.4-0.1
		c1.5-2.9,3.3-5.2,3.3-5.3l0.4-0.5l-0.4-0.5c-0.6-0.6-0.9-1.8-0.9-3.5c0-2.1,0.5-4.7,1.7-7.7c1.4-3.4,7.1-14.7,20.1-14.7h0.7v-0.7
		c0-4.7-0.4-9-1.2-12.7l-0.2-0.7c0,0-1.3,0.3-2.3,0.6c-0.1,0-1.1,0.3-1.2,0.1c-0.1-0.2,0.7-0.6,1-0.7c1-0.5,2.2-1,2.2-1l-0.2-0.6
		c-0.9-3.2-1.8-4.8-1.9-4.8L67,25.4l-0.5,0.2C55.6,29,53.3,36.2,51.9,40.5c-0.7,2.1-1.1,3.3-1.9,3.3c-2.2,0-4.1-1.9-4.7-2.5
		c-6.8-6.7-6.3-11.6-5.5-19c0.3-2.6,0.6-5.5,0.6-8.9C40.5,4.8,37.3,0.9,30.3,0.9"/>
	<path class="st2" d="M30.3,0.9c-7.9,0-9.8,4.1-9.8,4.1s9.1-0.7,9.1,8.4c0,4-2.2,6.8-4.6,9.7c-2.7,3.4-5.8,7.2-5.8,13.7
		c0,10.7,6.9,15.7,12.9,20.1c5.3,3.8,10.2,7.5,10.2,14.3c0,6.9-3,12.2-4.4,13.6c-2.3,2.3-4.4,2.7-6.1,3.1c-1.7,0.3-3.3,0.7-3.7,3.1
		c-6.4,3.8-10.2,10.6-10.2,18c0,0.3,0,0.6,0,0.9c0.2,5.6,2.6,10.8,6.7,14.6c4.1,3.8,9.5,5.7,15.1,5.5c5.6-0.2,10.8-2.6,14.6-6.7
		c3.8-4.1,5.8-9.5,5.5-15.1c-0.3-8.6-5.8-16-13.8-18.9l0,0l-0.1-0.1l-0.2,0c-1-0.4-2.2-0.8-2.2-3.4c0-2.5,1.2-2.8,3.4-3.2
		c1.4-0.3,3-0.6,4.7-1.6c2.9-1.8,3.4-3.9,2.9-4.4c-0.7-0.7-1.5,0.8-4.5,1.7c-1,0.3-2.1,0.5-2.8,0.5c-0.6,0-1,0-1.4-0.1
		c1.5-2.9,3.3-5.2,3.3-5.3l0.4-0.5l-0.4-0.5c-0.6-0.6-0.9-1.8-0.9-3.5c0-2.1,0.5-4.7,1.7-7.7c1.4-3.4,7.1-14.7,20.1-14.7h0.7v-0.7
		c0-4.7-0.4-9-1.2-12.7l-0.2-0.7c0,0-1.3,0.3-2.3,0.6c-0.1,0-1.1,0.3-1.2,0.1c-0.1-0.2,0.7-0.6,1-0.7c1-0.5,2.2-1,2.2-1l-0.2-0.6
		c-0.9-3.2-1.8-4.8-1.9-4.8L67,25.4l-0.5,0.2C55.6,29,53.3,36.2,51.9,40.5c-0.7,2.1-1.1,3.3-1.9,3.3c-2.2,0-4.1-1.9-4.7-2.5
		c-6.8-6.7-6.3-11.6-5.5-19c0.3-2.6,0.6-5.5,0.6-8.9C40.5,4.8,37.3,0.9,30.3,0.9"/>
	<path class="st0" d="M24.1,102.1c-0.3-0.1-0.8,0-1.4,0.5c-0.9,0.9-1.3,2.2-1.2,3.7c0,0.4,0.1,0.6,0.2,0.9c0.2,0.6,0.7,0.9,1,1
		c0.4,0.1,0.9-0.2,1.3-0.7c1-1.2,1.4-3.2,0.9-4.6C24.7,102.5,24.4,102.2,24.1,102.1 M55.8,115.9c0.2-1.2,0-2.1-0.3-2.6
		c-0.4-0.7-1-1.2-1.7-1.3l-0.8-0.2c-0.7-0.1-1.8-0.3-3.4-0.7c-2.1-0.5-4,0.4-5,2.6c1,0.3,2.1,0.6,3.1,0.8c0.2-0.8,0.2-1.3,0.2-1.3
		c0-0.3,0.3-0.6,0.6-0.6c0.4,0,0.6,0.3,0.6,0.6c0,0.1,0,0.7-0.2,1.6c0.2,0,0.4,0.1,0.6,0.1c0.2,0,0.4,0.1,0.6,0.1
		c0.2-0.9,0.3-1.6,0.3-1.6c0-0.3,0.4-0.6,0.7-0.5c0.4,0.1,0.6,0.4,0.5,0.7c0,0.1-0.1,0.8-0.3,1.7c0.4,0.1,0.8,0.2,1.2,0.2
		c0.1-0.8,0.2-1.3,0.2-1.4c0-0.3,0.3-0.6,0.7-0.6c0.3,0,0.6,0.3,0.6,0.6c0,0-0.1,0.7-0.2,1.5C54.4,115.9,55.2,115.9,55.8,115.9z
		 M44.3,117.5c0.5,1,1.3,1.6,2,1.8c0.8,0.3,3,0.7,4.7,0.9c2,0.2,3.5-0.9,4.4-3.1c-0.7,0-1.4-0.1-2.1-0.2c-0.1,0.5-0.3,0.9-0.5,1.3
		c-0.2,0.3-0.5,0.4-0.8,0.2c-0.3-0.2-0.4-0.6-0.2-0.9c0.1-0.2,0.3-0.5,0.4-0.8c-0.4-0.1-0.8-0.1-1.2-0.2c-0.1,0.5-0.3,1-0.4,1.4
		c-0.1,0.3-0.5,0.5-0.8,0.3c-0.3-0.2-0.5-0.5-0.3-0.8c0.1-0.3,0.2-0.7,0.3-1.1c-0.2,0-0.4-0.1-0.6-0.1c-0.2-0.1-0.4-0.1-0.6-0.1
		c-0.1,0.3-0.2,0.7-0.4,1.1c-0.1,0.3-0.5,0.4-0.8,0.3c-0.3-0.1-0.5-0.5-0.3-0.8c0.1-0.3,0.2-0.6,0.3-0.9c-1-0.3-2.1-0.6-3.2-0.9
		C43.8,116,44.1,116.9,44.3,117.5z M58.1,101.8c-0.9-2.5-4.1-4.2-8.2-5.1c-7.6-1.7-17.6,1.1-23.9,6.4c0.2,1,0.2,2.1-0.2,3.2
		c4.6,2.4,11.2,5.1,17.5,7c1.5-3.4,4.3-4,6.5-3.5c1.6,0.4,2.6,0.6,3.3,0.7l0.8,0.2c1,0.3,2,1,2.5,1.9c0.4,0.7,0.8,1.8,0.5,3.2
		c0.8,0,1.1-0.2,1.2-0.3c0.8-2.3,1.2-4.9,1.1-7.5C59.3,105.9,58.8,103.8,58.1,101.8z M50.9,121.5c-1.7-0.2-4-0.7-5-1
		c-1.1-0.4-2.1-1.3-2.7-2.5c-0.2-0.5-0.4-1.1-0.5-1.9c0-0.5,0-1,0.2-1.5c-6.3-1.9-12.9-4.6-17.6-7c-0.2,0.3-0.3,0.6-0.6,0.8
		c-0.4,0.4-0.7,0.7-1.1,0.9c0.4,3.8,1.8,7.6,3.9,10.9c2.8,4.4,6.7,7.4,10.8,8.3c1.5,0.3,3.4,0.7,5.1,0.4c6.4-1.4,11.6-5.8,14.1-11.7
		c-0.3,0.1-0.6,0.1-1,0.1C55.2,121.5,52.2,121.6,50.9,121.5z M21.2,103.5c0.2-0.5,0.5-0.9,0.8-1.3c0.2-0.3,0.5-0.5,0.8-0.7
		c0.7-3.5,2.3-6.6,4.6-9c-3.5,2.4-6.1,5.9-7.5,10C20.1,102.7,20.6,103.1,21.2,103.5z M20.8,104.7c-0.5-0.4-0.9-0.7-1.2-1
		c-0.5,2-0.8,4-0.7,6.1c0,0.4,0.1,0.9,0.1,1.3c0.3-1.2,0.9-2.5,1.8-3.9C20.6,106.4,20.6,105.5,20.8,104.7z M22.4,109.3
		c-0.5-0.1-0.8-0.4-1.1-0.8c-1.5,2.3-2.2,4.4-1.6,6.3c2.3,7.8,9.2,13.6,17.5,14.4C29.3,126.7,23.4,118.5,22.4,109.3z M32.2,13.4
		c0-1.1-0.1-2.2-0.4-3.1c0,0,1.8-0.1,1.8-2.3c0-1.8-1.2-3.1-1.5-3.1c-0.3,0-0.3,0.3-0.9,0.3c-1.4,0-1.5-1.8-1.5-1.8
		c0.2,0,0.4,0,0.6,0c4,0,7.7,1.2,7.7,10c0,3.2-0.3,6.1-0.6,8.7c-0.3,2.5-0.5,4.8-0.4,7.1c0,0-6.9-0.8-6.9-6
		C30.1,19.7,32.2,18.9,32.2,13.4z M43.2,71.2c0,6.8-2.9,12.4-4.6,14.1C33.4,90.5,29,86.7,29,92c-2.4,2.2-4.1,5.4-4.9,9.2
		c0.1,0,0.1,0,0.1,0c0.5,0.1,0.9,0.4,1.3,0.8c6.6-5.4,16.9-8.2,24.7-6.5c2.5,0.6,4.6,1.5,6.2,2.9c-2.4-3.9-6.1-6.9-10.4-8.4
		c-1-0.4-2.9-0.8-2.9-4.1c0-6.2,6.8-1.4,11.3-8.2c0.2-0.3-0.1-0.6-0.4-0.4c-1.3,1.3-4.7,2.3-6.5,2.3c-1.8,0-2.4-0.4-2.4-0.4
		c1.7-3.3,3.8-6.1,3.8-6.1c-4.2-4.2,2.9-27.1,21.4-27.1c0-5.3-0.6-9.5-1.3-12.6c-0.4,0.1-3.9,0.9-4.1,0.2c-0.1-0.6,2.6-2.1,3.5-2.5
		c-0.9-3.2-1.8-4.7-1.8-4.7c-15.9,5-12.7,18.2-16.6,18.2c-2.5,0-4.5-2-5.2-2.7c-9.5-9.5-5.1-15.8-5.1-28.5c0-8.5-3.3-11.7-9.4-11.7
		c-6.1,0-8.3,2.6-8.3,2.6s8.4,0.3,8.4,9.1c0,9.2-10.4,11.7-10.4,23.4C20.1,56.2,43.2,55.8,43.2,71.2"/>
	<path class="st1" d="M8.1,126.7c1.6,1,3.2,1.9,3.2,1.9l-0.6,1.5c-0.2-0.9-1.1-1.4-2.3-2.1l-3.8,5.5c-0.5,0.7-1.4,2.1-1.4,2.7
		c0,0-0.6-0.4-1.2-0.8c-0.6-0.5-1.2-0.9-1.2-0.9c0.6-0.1,1.6-1.6,2.1-2.4l3.7-5.3c-1.4-1.1-1.9-1.3-2.9-1.3l1.3-1
		C5.2,124.6,6.4,125.6,8.1,126.7"/>
	<g>
		<defs>
			<rect id="SVGID_1_" width="79.5" height="162.4"/>
		</defs>
		<clipPath id="SVGID_2_">
			<use xlink:href="#SVGID_1_"  style="overflow:visible;"/>
		</clipPath>
		<path class="st3" d="M8.1,126.7c1.6,1,3.2,1.9,3.2,1.9l-0.6,1.5c-0.2-0.9-1.1-1.4-2.3-2.1l-3.8,5.5c-0.5,0.7-1.4,2.1-1.4,2.7
			c0,0-0.6-0.4-1.2-0.8c-0.6-0.5-1.2-0.9-1.2-0.9c0.6-0.1,1.6-1.6,2.1-2.4l3.7-5.3c-1.4-1.1-1.9-1.3-2.9-1.3l1.3-1
			C5.2,124.6,6.4,125.6,8.1,126.7"/>
	</g>
	<path class="st1" d="M68.2,145.3l0.1,0.1c-0.1,0-0.2,0-0.3,0.1l0.3,0.6c0.1,0.1,0.2,0.3,0.2,0.3c0,0-0.1,0-0.1,0.1
		c-0.1,0-0.1,0.1-0.1,0.1c0-0.1,0-0.1-0.1-0.3l-0.3-0.7c-0.1,0.1-0.2,0.1-0.3,0.2l0-0.2c0,0,0.2-0.1,0.4-0.2
		C68,145.3,68.2,145.3,68.2,145.3"/>
	<path class="st4" d="M68.2,145.3l0.1,0.1c-0.1,0-0.2,0-0.3,0.1l0.3,0.6c0.1,0.1,0.2,0.3,0.2,0.3c0,0-0.1,0-0.1,0.1
		c-0.1,0-0.1,0.1-0.1,0.1c0-0.1,0-0.1-0.1-0.3l-0.3-0.7c-0.1,0.1-0.2,0.1-0.3,0.2l0-0.2c0,0,0.2-0.1,0.4-0.2
		C68,145.3,68.2,145.3,68.2,145.3"/>
	<path class="st1" d="M14.9,131.2c-1.7-0.8-3,1.1-4,3.2c-1,2.1-1.7,4.3,0.1,5.1c1.7,0.8,3-1.1,4-3.2C16,134.2,16.6,132,14.9,131.2
		 M10.6,140.3c-2.6-1.2-3-4.1-1.7-6.9c1.3-2.7,3.8-4.2,6.4-3c2.6,1.3,3,4.1,1.7,6.9C15.7,140,13.2,141.6,10.6,140.3"/>
	<path class="st4" d="M14.9,131.2c-1.7-0.8-3,1.1-4,3.2c-1,2.1-1.7,4.3,0.1,5.1c1.7,0.8,3-1.1,4-3.2C16,134.2,16.6,132,14.9,131.2z
		 M10.6,140.3c-2.6-1.2-3-4.1-1.7-6.9c1.3-2.7,3.8-4.2,6.4-3c2.6,1.3,3,4.1,1.7,6.9C15.7,140,13.2,141.6,10.6,140.3"/>
	<path class="st1" d="M22.4,133.2c1.8,0.5,3.2,0.8,3.2,0.8l-0.2,1.6c-0.5-0.7-0.7-0.9-2.2-1.2l-1.8,6.2c-0.1,0.6-0.9,2.7-0.6,3.1
		c0,0-0.5-0.1-1.3-0.3c-0.9-0.3-1.4-0.4-1.4-0.4c0.5-0.3,1.1-2.2,1.3-2.9l1.9-6.2c-1.6-0.5-1.9-0.6-2.7-0.2l0.9-1.4
		C19.4,132.2,20.4,132.7,22.4,133.2"/>
	<path class="st4" d="M22.4,133.2c1.8,0.5,3.2,0.8,3.2,0.8l-0.2,1.6c-0.5-0.7-0.7-0.9-2.2-1.2l-1.8,6.2c-0.1,0.6-0.9,2.7-0.6,3.1
		c0,0-0.5-0.1-1.3-0.3c-0.9-0.3-1.4-0.4-1.4-0.4c0.5-0.3,1.1-2.2,1.3-2.9l1.9-6.2c-1.6-0.5-1.9-0.6-2.7-0.2l0.9-1.4
		C19.4,132.2,20.4,132.7,22.4,133.2"/>
	<path class="st1" d="M29.7,134.9c1.7,0.3,3.4,0.4,3.4,0.4l0.1,1.6c-0.7-0.6-0.9-0.8-2.6-1l-1,6.4c-0.1,0.6-0.5,2.8-0.2,3.1
		c0,0-0.6-0.1-1.4-0.2c-0.8-0.1-1.3-0.2-1.3-0.2c0.4-0.3,0.7-2.4,0.8-3l1-6.4c-1.5-0.3-1.8-0.2-2.5,0.2l0.7-1.5
		C26.6,134.3,28,134.6,29.7,134.9"/>
	<path class="st4" d="M29.7,134.9c1.7,0.3,3.4,0.4,3.4,0.4l0.1,1.6c-0.7-0.6-0.9-0.8-2.6-1l-1,6.4c-0.1,0.6-0.5,2.8-0.2,3.1
		c0,0-0.6-0.1-1.4-0.2c-0.8-0.1-1.3-0.2-1.3-0.2c0.4-0.3,0.7-2.4,0.8-3l1-6.4c-1.5-0.3-1.8-0.2-2.5,0.2l0.7-1.5
		C26.6,134.3,28,134.6,29.7,134.9"/>
	<path class="st1" d="M36.2,140.9l-0.1,4.3c2.2,0,3.8-0.1,4.5-1.1l-0.3,1.9c0,0-1.2,0-3.1,0c-2,0-3.6-0.1-3.6-0.1
		c0.3-0.3,0.4-2.4,0.4-3l0.2-4.2c0-1.1,0.1-2.9-0.3-3.3c1.6,0.1,1.4,0.1,2.9,0.2c2,0.1,3.1,0,3.1,0l0.2,1.6
		c-0.8-0.6-1.9-0.7-3.8-0.7l-0.1,3.6h2.9c0.3,0,0.3,0.2,0.3,0.4c0,0.3,0,0.4-0.3,0.4H36.2"/>
	<path class="st4" d="M36.2,140.9l-0.1,4.3c2.2,0,3.8-0.1,4.5-1.1l-0.3,1.9c0,0-1.2,0-3.1,0c-2,0-3.6-0.1-3.6-0.1
		c0.3-0.3,0.4-2.4,0.4-3l0.2-4.2c0-1.1,0.1-2.9-0.3-3.3c1.6,0.1,1.4,0.1,2.9,0.2c2,0.1,3.1,0,3.1,0l0.2,1.6
		c-0.8-0.6-1.9-0.7-3.8-0.7l-0.1,3.6h2.9c0.3,0,0.3,0.2,0.3,0.4c0,0.3,0,0.4-0.3,0.4H36.2"/>
	<path class="st1" d="M48.7,142.2c0.2,1.6,0.3,2.7,0.7,2.9c-0.1,0.2-0.4,0.4-0.7,0.4c-0.5,0-0.8-0.2-1.1-0.5l-5.1-5.8l0.2,3.7
		c0.1,0.6,0.1,2.8,0.5,3.1l-1.7,0.1c0.3-0.4,0.2-2.5,0.2-3l-0.2-4.2c-0.1-0.6-0.2-2.9-0.5-3.2l1.6-0.1l5.2,6.2l-0.4-3.5
		c-0.1-0.6-0.4-2.7-0.7-3c0,0,0.2,0,0.8-0.1c0.6-0.1,0.8-0.1,0.8-0.1c-0.3,0.4,0,2.5,0.1,3.1L48.7,142.2"/>
	<path class="st4" d="M48.7,142.2c0.2,1.6,0.3,2.7,0.7,2.9c-0.1,0.2-0.4,0.4-0.7,0.4c-0.5,0-0.8-0.2-1.1-0.5l-5.1-5.8l0.2,3.7
		c0.1,0.6,0.1,2.8,0.5,3.1l-1.7,0.1c0.3-0.4,0.2-2.5,0.2-3l-0.2-4.2c-0.1-0.6-0.2-2.9-0.5-3.2l1.6-0.1l5.2,6.2l-0.4-3.5
		c-0.1-0.6-0.4-2.7-0.7-3c0,0,0.2,0,0.8-0.1c0.6-0.1,0.8-0.1,0.8-0.1c-0.3,0.4,0,2.5,0.1,3.1L48.7,142.2"/>
	<path class="st1" d="M58.3,140c0.2,0.7,0.5,2.6,1.1,2.9c0,0-0.8,0.2-1.3,0.4c-0.4,0.1-1.4,0.4-1.4,0.4c0.2-0.4-0.3-2.6-0.4-3.2
		l-0.5-1.9l-3.2,0.8l0.4,2c0.1,0.6,0.4,2.8,0.9,3c0,0-0.4,0.1-1.4,0.3c-0.8,0.2-1.3,0.3-1.3,0.3c0.2-0.4-0.1-2.4-0.2-3l-0.8-4.2
		c-0.1-0.8-0.5-2.7-0.9-3c0,0,0.4-0.1,1.3-0.3c0.9-0.2,1.4-0.3,1.4-0.3c-0.2,0.5,0.2,2.4,0.3,3l0.2,1.3l3.2-0.8l-0.4-1.3
		c-0.2-0.7-0.6-2.4-1-2.8c0,0,0.4-0.1,1.3-0.4c0.9-0.3,1.2-0.4,1.2-0.4c-0.2,0.5,0.3,2.2,0.5,3L58.3,140"/>
	<path class="st4" d="M58.3,140c0.2,0.7,0.5,2.6,1.1,2.9c0,0-0.8,0.2-1.3,0.4c-0.4,0.1-1.4,0.4-1.4,0.4c0.2-0.4-0.3-2.6-0.4-3.2
		l-0.5-1.9l-3.2,0.8l0.4,2c0.1,0.6,0.4,2.8,0.9,3c0,0-0.4,0.1-1.4,0.3c-0.8,0.2-1.3,0.3-1.3,0.3c0.2-0.4-0.1-2.4-0.2-3l-0.8-4.2
		c-0.1-0.8-0.5-2.7-0.9-3c0,0,0.4-0.1,1.3-0.3c0.9-0.2,1.4-0.3,1.4-0.3c-0.2,0.5,0.2,2.4,0.3,3l0.2,1.3l3.2-0.8l-0.4-1.3
		c-0.2-0.7-0.6-2.4-1-2.8c0,0,0.4-0.1,1.3-0.4c0.9-0.3,1.2-0.4,1.2-0.4c-0.2,0.5,0.3,2.2,0.5,3L58.3,140"/>
	<path class="st1" d="M63.6,136.8l-2.8-3.9l0.2,4.9L63.6,136.8 M64.2,137.5l-3.2,1.2l0.1,1.7c0.1,0.6,0.1,1.1,0.2,1.4
		c0.1,0.1,0.2,0.3,0.3,0.3c0,0-0.3,0.1-0.9,0.3c-0.6,0.2-0.8,0.3-0.8,0.3c0.2-0.3,0.2-0.8,0.2-1.3l-0.3-8.2c0-0.3,0-0.6-0.2-0.8
		c-0.1-0.2-0.2-0.3-0.3-0.4c0.3-0.2,0.8-0.5,1.3-0.7c0.7-0.3,1-0.3,1.6,0.3l4.6,5.7c0.9,1.1,1.6,1.8,2.1,2c0,0-0.5,0.2-1.4,0.6
		c-0.9,0.4-1.5,0.6-1.5,0.6c0.1-0.2,0.1-0.4-0.1-0.7c-0.1-0.3-0.6-0.8-0.9-1.3L64.2,137.5"/>
	<path class="st4" d="M63.6,136.8l-2.8-3.9l0.2,4.9L63.6,136.8z M64.2,137.5l-3.2,1.2l0.1,1.7c0.1,0.6,0.1,1.1,0.2,1.4
		c0.1,0.1,0.2,0.3,0.3,0.3c0,0-0.3,0.1-0.9,0.3c-0.6,0.2-0.8,0.3-0.8,0.3c0.2-0.3,0.2-0.8,0.2-1.3l-0.3-8.2c0-0.3,0-0.6-0.2-0.8
		c-0.1-0.2-0.2-0.3-0.3-0.4c0.3-0.2,0.8-0.5,1.3-0.7c0.7-0.3,1-0.3,1.6,0.3l4.6,5.7c0.9,1.1,1.6,1.8,2.1,2c0,0-0.5,0.2-1.4,0.6
		c-0.9,0.4-1.5,0.6-1.5,0.6c0.1-0.2,0.1-0.4-0.1-0.7c-0.1-0.3-0.6-0.8-0.9-1.3L64.2,137.5"/>
	<path class="st1" d="M77.4,134.5c-0.6,0.4-1.1,0.8-1.1,0.8c0-0.6-1.3-2.2-1.6-2.6l-2.7-3.5l2.2,7c-0.1,0.1-0.2,0.3-0.4,0.4
		c-0.4,0.3-0.9,0.3-1.2,0l-5.2-4.3l1.8,3.3c0.4,0.9,1.3,2.6,1.9,2.8c0,0-0.4,0.2-0.8,0.4c-0.5,0.2-0.7,0.3-0.7,0.3
		c0.1-0.5-0.7-1.9-1.2-2.9l-2-3.8c-0.6-1.1-1.3-2.3-1.8-2.5c0.4-0.2,0.6-0.3,1.2-0.6c0.5-0.3,1-0.5,1-0.5l5.8,4.9l-2.3-7
		c0,0,0.3-0.2,0.9-0.6c0.6-0.4,1.1-0.8,1.1-0.8c0,0.6,1.2,2.2,1.7,2.8l2.5,3.2c0.5,0.6,1.5,2.1,2.2,2.3
		C78.6,133.7,78,134.1,77.4,134.5"/>
	<path class="st4" d="M77.4,134.5c-0.6,0.4-1.1,0.8-1.1,0.8c0-0.6-1.3-2.2-1.6-2.6l-2.7-3.5l2.2,7c-0.1,0.1-0.2,0.3-0.4,0.4
		c-0.4,0.3-0.9,0.3-1.2,0l-5.2-4.3l1.8,3.3c0.4,0.9,1.3,2.6,1.9,2.8c0,0-0.4,0.2-0.8,0.4c-0.5,0.2-0.7,0.3-0.7,0.3
		c0.1-0.5-0.7-1.9-1.2-2.9l-2-3.8c-0.6-1.1-1.3-2.3-1.8-2.5c0.4-0.2,0.6-0.3,1.2-0.6c0.5-0.3,1-0.5,1-0.5l5.8,4.9l-2.3-7
		c0,0,0.3-0.2,0.9-0.6c0.6-0.4,1.1-0.8,1.1-0.8c0,0.6,1.2,2.2,1.7,2.8l2.5,3.2c0.5,0.6,1.5,2.1,2.2,2.3
		C78.6,133.7,78,134.1,77.4,134.5"/>
	<path class="st1" d="M69.5,145l0.3,0.4c0.1,0.1,0.2,0.2,0.3,0.3c0,0-0.1,0-0.1,0.1c-0.1,0-0.1,0.1-0.1,0.1c0-0.1-0.1-0.2-0.2-0.3
		l-0.3-0.4l0.3,0.8c0,0-0.1,0-0.1,0c-0.1,0.1-0.1,0-0.2,0l-0.6-0.5l0.2,0.4c0,0.1,0.1,0.3,0.2,0.3c0,0,0,0-0.1,0.1
		c0,0-0.1,0.1-0.1,0.1c0-0.1-0.1-0.3-0.2-0.4l-0.2-0.4c-0.1-0.1-0.2-0.2-0.2-0.3c0,0,0.1,0,0.1-0.1c0,0,0.1-0.1,0.1-0.1l0.7,0.6
		l-0.3-0.8c0,0,0.1,0,0.1-0.1c0.1,0,0.1-0.1,0.1-0.1C69.3,144.7,69.4,144.9,69.5,145"/>
	<path class="st4" d="M69.5,145l0.3,0.4c0.1,0.1,0.2,0.2,0.3,0.3c0,0-0.1,0-0.1,0.1c-0.1,0-0.1,0.1-0.1,0.1c0-0.1-0.1-0.2-0.2-0.3
		l-0.3-0.4l0.3,0.8c0,0-0.1,0-0.1,0c-0.1,0.1-0.1,0-0.2,0l-0.6-0.5l0.2,0.4c0,0.1,0.1,0.3,0.2,0.3c0,0,0,0-0.1,0.1
		c0,0-0.1,0.1-0.1,0.1c0-0.1-0.1-0.3-0.2-0.4l-0.2-0.4c-0.1-0.1-0.2-0.2-0.2-0.3c0,0,0.1,0,0.1-0.1c0,0,0.1-0.1,0.1-0.1l0.7,0.6
		l-0.3-0.8c0,0,0.1,0,0.1-0.1c0.1,0,0.1-0.1,0.1-0.1C69.3,144.7,69.4,144.9,69.5,145"/>
	<path class="st1" d="M17.8,147.3c0.5,0.2,1.2,0.4,1.2,0.4c-0.6,0.4-1.1,2.1-1.5,3l-1.4,3.7c-0.3,1-1,2.5-0.8,3c0,0-0.8-0.3-1.4-0.5
		c-0.5-0.2-0.8-0.3-1.4-0.5c0.7-0.2,1.3-2.4,1.5-2.9l0.6-1.7l-3.2-1.4l-0.9,2c-0.3,0.7-1,2.3-0.9,2.8c0,0-0.6-0.2-1.4-0.6
		c-1-0.5-1.2-0.6-1.2-0.6c0.7-0.3,1.1-1.5,1.6-2.6l1.7-3.8c0.6-1.3,1.1-2.4,1-3.1c0,0,0.3,0.2,1.1,0.6c0.7,0.3,1,0.4,1.4,0.6
		c-0.5,0.2-1.3,2.1-1.6,2.9l-0.5,1.1l3.2,1.3l0.5-1.2c0.2-0.6,1-2.4,0.9-3.1C16.4,146.8,17.1,147,17.8,147.3"/>
	<path class="st4" d="M17.8,147.3c0.5,0.2,1.2,0.4,1.2,0.4c-0.6,0.4-1.1,2.1-1.5,3l-1.4,3.7c-0.3,1-1,2.5-0.8,3c0,0-0.8-0.3-1.4-0.5
		c-0.5-0.2-0.8-0.3-1.4-0.5c0.7-0.2,1.3-2.4,1.5-2.9l0.6-1.7l-3.2-1.4l-0.9,2c-0.3,0.7-1,2.3-0.9,2.8c0,0-0.6-0.2-1.4-0.6
		c-1-0.5-1.2-0.6-1.2-0.6c0.7-0.3,1.1-1.5,1.6-2.6l1.7-3.8c0.6-1.3,1.1-2.4,1-3.1c0,0,0.3,0.2,1.1,0.6c0.7,0.3,1,0.4,1.4,0.6
		c-0.5,0.2-1.3,2.1-1.6,2.9l-0.5,1.1l3.2,1.3l0.5-1.2c0.2-0.6,1-2.4,0.9-3.1C16.4,146.8,17.1,147,17.8,147.3"/>
	<path class="st1" d="M24,149.9c-1.8-0.5-2.7,1.6-3.3,3.8c-0.6,2.2-0.8,4.5,1,4.9c1.8,0.5,2.7-1.6,3.3-3.8
		C25.6,152.7,25.8,150.4,24,149.9 M21.5,159.5c-2.8-0.7-3.7-3.5-3-6.3c0.8-2.9,2.9-4.8,5.7-4c2.8,0.7,3.7,3.5,3,6.3
		C26.4,158.3,24.3,160.2,21.5,159.5"/>
	<path class="st4" d="M24,149.9c-1.8-0.5-2.7,1.6-3.3,3.8c-0.6,2.2-0.8,4.5,1,4.9c1.8,0.5,2.7-1.6,3.3-3.8
		C25.6,152.7,25.8,150.4,24,149.9z M21.5,159.5c-2.8-0.7-3.7-3.5-3-6.3c0.8-2.9,2.9-4.8,5.7-4c2.8,0.7,3.7,3.5,3,6.3
		C26.4,158.3,24.3,160.2,21.5,159.5"/>
	<path class="st1" d="M29.1,160.5c0,0,0.2-0.2,0.3-0.6c0.2-0.6,0.3-1.6,0.4-2.5l0.8-6.1c-1.7-0.2-2.1-0.1-2.8,0.4l0.7-1.6
		c0.5,0.1,1.7,0.2,3.1,0.4c0.9,0.1,3.8,0.4,3.8,0.4l0.1,1.6c-0.6-0.7-1.3-0.8-2.7-0.9l-0.8,6.1c-0.1,0.6-0.4,2.6-0.1,3.1
		c-0.3,0-0.9-0.1-1.4-0.1C30,160.6,29.4,160.5,29.1,160.5"/>
	<path class="st4" d="M29.1,160.5c0,0,0.2-0.2,0.3-0.6c0.2-0.6,0.3-1.6,0.4-2.5l0.8-6.1c-1.7-0.2-2.1-0.1-2.8,0.4l0.7-1.6
		c0.5,0.1,1.7,0.2,3.1,0.4c0.9,0.1,3.8,0.4,3.8,0.4l0.1,1.6c-0.6-0.7-1.3-0.8-2.7-0.9l-0.8,6.1c-0.1,0.6-0.4,2.6-0.1,3.1
		c-0.3,0-0.9-0.1-1.4-0.1C30,160.6,29.4,160.5,29.1,160.5"/>
	<path class="st1" d="M42.5,158.4c0,1.8-1.5,3.2-3.8,3.1c-1.8,0-2.7-0.8-3.1-1.1l0.4-1.7c0.5,1.1,1.5,1.9,2.5,1.9
		c1.1,0,1.9-0.6,2-1.7c0-0.8-0.4-1.2-2.2-2.2c-1.7-0.9-2.4-1.8-2.4-3.1c0-1.8,1.6-2.7,3.4-2.7c1.4,0,2.3,0.4,2.9,0.7l-0.4,1.6
		c-0.8-1.1-1.6-1.5-2.5-1.5c-0.9,0-1.5,0.5-1.5,1.4c0,1,1.1,1.5,2.6,2.4C42.1,156.4,42.5,157.4,42.5,158.4"/>
	<path class="st4" d="M42.5,158.4c0,1.8-1.5,3.2-3.8,3.1c-1.8,0-2.7-0.8-3.1-1.1l0.4-1.7c0.5,1.1,1.5,1.9,2.5,1.9
		c1.1,0,1.9-0.6,2-1.7c0-0.8-0.4-1.2-2.2-2.2c-1.7-0.9-2.4-1.8-2.4-3.1c0-1.8,1.6-2.7,3.4-2.7c1.4,0,2.3,0.4,2.9,0.7l-0.4,1.6
		c-0.8-1.1-1.6-1.5-2.5-1.5c-0.9,0-1.5,0.5-1.5,1.4c0,1,1.1,1.5,2.6,2.4C42.1,156.4,42.5,157.4,42.5,158.4"/>
	<path class="st1" d="M50.9,152.7c0.1,0.2,0.1,0.5,0.1,0.7c0,0.2,0,0.4,0,0.7c0,0.6-0.3,1.3-0.8,1.8c-0.7,0.8-1.7,1.1-2.9,1.2
		c-0.5,0-0.6-0.1-0.6-0.4l0-0.1c0,0,0-0.1,0.1-0.1h0.1c0.4,0,0.9-0.2,1.3-0.7c0.4-0.5,0.6-1.3,0.5-2c-0.1-0.8-0.3-1.4-0.9-1.8
		c-0.5-0.4-1-0.5-1.6-0.4c0,0-0.2,0-0.5,0.1c0,0-0.1,0-0.1,0.2l0.6,6.3c0,0.6,0.2,2.5,0.7,2.9c0,0-0.5,0.1-1.5,0.1
		c-0.7,0.1-1.3,0.1-1.3,0.1c0.2-0.5,0.2-1.2,0.1-2l-0.5-5c0-0.6-0.1-2.5-0.6-3c0,0,1.3-0.2,3.6-0.4c1.2-0.1,2.2,0,3.1,0.6
		C50.3,151.6,50.7,152.1,50.9,152.7"/>
	<path class="st4" d="M50.9,152.7c0.1,0.2,0.1,0.5,0.1,0.7c0,0.2,0,0.4,0,0.7c0,0.6-0.3,1.3-0.8,1.8c-0.7,0.8-1.7,1.1-2.9,1.2
		c-0.5,0-0.6-0.1-0.6-0.4l0-0.1c0,0,0-0.1,0.1-0.1h0.1c0.4,0,0.9-0.2,1.3-0.7c0.4-0.5,0.6-1.3,0.5-2c-0.1-0.8-0.3-1.4-0.9-1.8
		c-0.5-0.4-1-0.5-1.6-0.4c0,0-0.2,0-0.5,0.1c0,0-0.1,0-0.1,0.2l0.6,6.3c0,0.6,0.2,2.5,0.7,2.9c0,0-0.5,0.1-1.5,0.1
		c-0.7,0.1-1.3,0.1-1.3,0.1c0.2-0.5,0.2-1.2,0.1-2l-0.5-5c0-0.6-0.1-2.5-0.6-3c0,0,1.3-0.2,3.6-0.4c1.2-0.1,2.2,0,3.1,0.6
		C50.3,151.6,50.7,152.1,50.9,152.7"/>
	<path class="st1" d="M60.4,154.7c0.5,2.2-0.5,4.1-2.8,4.6c-1.6,0.4-3.9-0.2-4.6-3l-0.8-3.3c-0.2-0.9-0.5-2.6-1.1-3
		c0,0,0.6-0.1,1.6-0.3c0.9-0.2,1.4-0.3,1.4-0.3c-0.3,0.4,0,1.9,0.3,3.1l1,4.2c0.2,0.8,0.4,1.3,0.9,1.6c0.3,0.2,0.8,0.3,1.2,0.2
		c0.4-0.1,0.8-0.3,1-0.7c0.2-0.4,0.2-1.1,0.1-1.8l-1.1-4.2c-0.3-1.2-0.7-2.6-1-2.9c0,0,0.5-0.1,1.3-0.4c0.7-0.2,1-0.3,1.3-0.4
		c-0.3,0.6,0.4,2.6,0.5,3.1L60.4,154.7"/>
	<path class="st4" d="M60.4,154.7c0.5,2.2-0.5,4.1-2.8,4.6c-1.6,0.4-3.9-0.2-4.6-3l-0.8-3.3c-0.2-0.9-0.5-2.6-1.1-3
		c0,0,0.6-0.1,1.6-0.3c0.9-0.2,1.4-0.3,1.4-0.3c-0.3,0.4,0,1.9,0.3,3.1l1,4.2c0.2,0.8,0.4,1.3,0.9,1.6c0.3,0.2,0.8,0.3,1.2,0.2
		c0.4-0.1,0.8-0.3,1-0.7c0.2-0.4,0.2-1.1,0.1-1.8l-1.1-4.2c-0.3-1.2-0.7-2.6-1-2.9c0,0,0.5-0.1,1.3-0.4c0.7-0.2,1-0.3,1.3-0.4
		c-0.3,0.6,0.4,2.6,0.5,3.1L60.4,154.7"/>
	<path class="st1" d="M70.6,153.9c0.2,0.1,0.5,0.1,0.7,0c0,0.1-0.2,0.4-0.4,0.6c-0.9,1-1.8,0.8-2.1,0.7c-1.6-0.6-4.2-3-4.4-3.2
		c0,0,0-0.1,0.1-0.1l0.1,0c0.4-0.2,0.9-0.7,1.1-1.1c0.3-0.7,0.3-1.2,0-2c-0.3-0.7-0.9-1.2-1.3-1.3c-0.6-0.2-1.1,0-1.4,0.1
		c0,0-0.4,0.2-0.5,0.3c0,0-0.1,0.1,0,0.3l2,5.8c0.3,0.8,0.8,2.5,1.3,2.8c0,0-0.5,0.2-1.4,0.5c-0.8,0.3-1.3,0.5-1.3,0.5
		c0.2-0.7-0.5-2.4-0.6-2.9l-1.3-3.9c-0.3-0.9-0.9-2.6-1.4-2.9c0,0,1-0.3,3.1-1.2c1.1-0.5,2.2-0.7,3.2-0.4c0.6,0.2,1,0.5,1.3,1
		c0.1,0.2,0.2,0.4,0.3,0.6c0.1,0.2,0.1,0.4,0.1,0.6c0.1,0.6,0,1.2-0.3,1.8c0,0-0.3,0.6-1,1C66.6,151.4,68.7,153.2,70.6,153.9"/>
	<path class="st4" d="M70.6,153.9c0.2,0.1,0.5,0.1,0.7,0c0,0.1-0.2,0.4-0.4,0.6c-0.9,1-1.8,0.8-2.1,0.7c-1.6-0.6-4.2-3-4.4-3.2
		c0,0,0-0.1,0.1-0.1l0.1,0c0.4-0.2,0.9-0.7,1.1-1.1c0.3-0.7,0.3-1.2,0-2c-0.3-0.7-0.9-1.2-1.3-1.3c-0.6-0.2-1.1,0-1.4,0.1
		c0,0-0.4,0.2-0.5,0.3c0,0-0.1,0.1,0,0.3l2,5.8c0.3,0.8,0.8,2.5,1.3,2.8c0,0-0.5,0.2-1.4,0.5c-0.8,0.3-1.3,0.5-1.3,0.5
		c0.2-0.7-0.5-2.4-0.6-2.9l-1.3-3.9c-0.3-0.9-0.9-2.6-1.4-2.9c0,0,1-0.3,3.1-1.2c1.1-0.5,2.2-0.7,3.2-0.4c0.6,0.2,1,0.5,1.3,1
		c0.1,0.2,0.2,0.4,0.3,0.6c0.1,0.2,0.1,0.4,0.1,0.6c0.1,0.6,0,1.2-0.3,1.8c0,0-0.3,0.6-1,1C66.6,151.4,68.7,153.2,70.6,153.9"/>
	<path class="st0" d="M8.1,126.7c1.6,1,3.2,1.9,3.2,1.9l-0.6,1.5c-0.2-0.9-1.1-1.4-2.3-2.1l-3.8,5.5c-0.5,0.7-1.4,2.1-1.4,2.7
		c0,0-0.6-0.4-1.2-0.8c-0.6-0.5-1.2-0.9-1.2-0.9c0.6-0.1,1.6-1.6,2.1-2.4l3.7-5.3c-1.4-1.1-1.9-1.3-2.9-1.3l1.3-1
		C5.2,124.6,6.4,125.6,8.1,126.7"/>
	<path class="st0" d="M68.2,145.3l0.1,0.1c-0.1,0-0.2,0-0.3,0.1l0.3,0.6c0.1,0.1,0.2,0.3,0.2,0.3c0,0-0.1,0-0.1,0.1
		c-0.1,0-0.1,0.1-0.1,0.1c0-0.1,0-0.1-0.1-0.3l-0.3-0.7c-0.1,0.1-0.2,0.1-0.3,0.2l0-0.2c0,0,0.2-0.1,0.4-0.2
		C68,145.3,68.2,145.3,68.2,145.3"/>
	<path class="st0" d="M14.9,131.2c-1.7-0.8-3,1.1-4,3.2c-1,2.1-1.7,4.3,0.1,5.1c1.7,0.8,3-1.1,4-3.2C16,134.2,16.6,132,14.9,131.2
		 M10.6,140.3c-2.6-1.2-3-4.1-1.7-6.9c1.3-2.7,3.8-4.2,6.4-3c2.6,1.3,3,4.1,1.7,6.9C15.7,140,13.2,141.6,10.6,140.3"/>
	<path class="st0" d="M22.4,133.2c1.8,0.5,3.2,0.8,3.2,0.8l-0.2,1.6c-0.5-0.7-0.7-0.9-2.2-1.2l-1.8,6.2c-0.1,0.6-0.9,2.7-0.6,3.1
		c0,0-0.5-0.1-1.3-0.3c-0.9-0.3-1.4-0.4-1.4-0.4c0.5-0.3,1.1-2.2,1.3-2.9l1.9-6.2c-1.6-0.5-1.9-0.6-2.7-0.2l0.9-1.4
		C19.4,132.2,20.4,132.7,22.4,133.2"/>
	<path class="st0" d="M29.7,134.9c1.7,0.3,3.4,0.4,3.4,0.4l0.1,1.6c-0.7-0.6-0.9-0.8-2.6-1l-1,6.4c-0.1,0.6-0.5,2.8-0.2,3.1
		c0,0-0.6-0.1-1.4-0.2c-0.8-0.1-1.3-0.2-1.3-0.2c0.4-0.3,0.7-2.4,0.8-3l1-6.4c-1.5-0.3-1.8-0.2-2.5,0.2l0.7-1.5
		C26.6,134.3,28,134.6,29.7,134.9"/>
	<path class="st0" d="M36.2,140.9l-0.1,4.3c2.2,0,3.8-0.1,4.5-1.1l-0.3,1.9c0,0-1.2,0-3.1,0c-2,0-3.6-0.1-3.6-0.1
		c0.3-0.3,0.4-2.4,0.4-3l0.2-4.2c0-1.1,0.1-2.9-0.3-3.3c1.6,0.1,1.4,0.1,2.9,0.2c2,0.1,3.1,0,3.1,0l0.2,1.6
		c-0.8-0.6-1.9-0.7-3.8-0.7l-0.1,3.6h2.9c0.3,0,0.3,0.2,0.3,0.4c0,0.3,0,0.4-0.3,0.4H36.2"/>
	<path class="st0" d="M48.7,142.2c0.2,1.6,0.3,2.7,0.7,2.9c-0.1,0.2-0.4,0.4-0.7,0.4c-0.5,0-0.8-0.2-1.1-0.5l-5.1-5.8l0.2,3.7
		c0.1,0.6,0.1,2.8,0.5,3.1l-1.7,0.1c0.3-0.4,0.2-2.5,0.2-3l-0.2-4.2c-0.1-0.6-0.2-2.9-0.5-3.2l1.6-0.1l5.2,6.2l-0.4-3.5
		c-0.1-0.6-0.4-2.7-0.7-3c0,0,0.2,0,0.8-0.1c0.6-0.1,0.8-0.1,0.8-0.1c-0.3,0.4,0,2.5,0.1,3.1L48.7,142.2"/>
	<path class="st0" d="M58.3,140c0.2,0.7,0.5,2.6,1.1,2.9c0,0-0.8,0.2-1.3,0.4c-0.4,0.1-1.4,0.4-1.4,0.4c0.2-0.4-0.3-2.6-0.4-3.2
		l-0.5-1.9l-3.2,0.8l0.4,2c0.1,0.6,0.4,2.8,0.9,3c0,0-0.4,0.1-1.4,0.3c-0.8,0.2-1.3,0.3-1.3,0.3c0.2-0.4-0.1-2.4-0.2-3l-0.8-4.2
		c-0.1-0.8-0.5-2.7-0.9-3c0,0,0.4-0.1,1.3-0.3c0.9-0.2,1.4-0.3,1.4-0.3c-0.2,0.5,0.2,2.4,0.3,3l0.2,1.3l3.2-0.8l-0.4-1.3
		c-0.2-0.7-0.6-2.4-1-2.8c0,0,0.4-0.1,1.3-0.4c0.9-0.3,1.2-0.4,1.2-0.4c-0.2,0.5,0.3,2.2,0.5,3L58.3,140"/>
	<path class="st0" d="M63.6,136.8l-2.8-3.9l0.2,4.9L63.6,136.8 M64.2,137.5l-3.2,1.2l0.1,1.7c0.1,0.6,0.1,1.1,0.2,1.4
		c0.1,0.1,0.2,0.3,0.3,0.3c0,0-0.3,0.1-0.9,0.3c-0.6,0.2-0.8,0.3-0.8,0.3c0.2-0.3,0.2-0.8,0.2-1.3l-0.3-8.2c0-0.3,0-0.6-0.2-0.8
		c-0.1-0.2-0.2-0.3-0.3-0.4c0.3-0.2,0.8-0.5,1.3-0.7c0.7-0.3,1-0.3,1.6,0.3l4.6,5.7c0.9,1.1,1.6,1.8,2.1,2c0,0-0.5,0.2-1.4,0.6
		c-0.9,0.4-1.5,0.6-1.5,0.6c0.1-0.2,0.1-0.4-0.1-0.7c-0.1-0.3-0.6-0.8-0.9-1.3L64.2,137.5"/>
	<path class="st0" d="M77.4,134.5c-0.6,0.4-1.1,0.8-1.1,0.8c0-0.6-1.3-2.2-1.6-2.6l-2.7-3.5l2.2,7c-0.1,0.1-0.2,0.3-0.4,0.4
		c-0.4,0.3-0.9,0.3-1.2,0l-5.2-4.3l1.8,3.3c0.4,0.9,1.3,2.6,1.9,2.8c0,0-0.4,0.2-0.8,0.4c-0.5,0.2-0.7,0.3-0.7,0.3
		c0.1-0.5-0.7-1.9-1.2-2.9l-2-3.8c-0.6-1.1-1.3-2.3-1.8-2.5c0.4-0.2,0.6-0.3,1.2-0.6c0.5-0.3,1-0.5,1-0.5l5.8,4.9l-2.3-7
		c0,0,0.3-0.2,0.9-0.6c0.6-0.4,1.1-0.8,1.1-0.8c0,0.6,1.2,2.2,1.7,2.8l2.5,3.2c0.5,0.6,1.5,2.1,2.2,2.3
		C78.6,133.7,78,134.1,77.4,134.5"/>
	<path class="st0" d="M69.5,145l0.3,0.4c0.1,0.1,0.2,0.2,0.3,0.3c0,0-0.1,0-0.1,0.1c-0.1,0-0.1,0.1-0.1,0.1c0-0.1-0.1-0.2-0.2-0.3
		l-0.3-0.4l0.3,0.8c0,0-0.1,0-0.1,0c-0.1,0.1-0.1,0-0.2,0l-0.6-0.5l0.2,0.4c0,0.1,0.1,0.3,0.2,0.3c0,0,0,0-0.1,0.1
		c0,0-0.1,0.1-0.1,0.1c0-0.1-0.1-0.3-0.2-0.4l-0.2-0.4c-0.1-0.1-0.2-0.2-0.2-0.3c0,0,0.1,0,0.1-0.1c0,0,0.1-0.1,0.1-0.1l0.7,0.6
		l-0.3-0.8c0,0,0.1,0,0.1-0.1c0.1,0,0.1-0.1,0.1-0.1C69.3,144.7,69.4,144.9,69.5,145"/>
	<path class="st0" d="M17.8,147.3c0.5,0.2,1.2,0.4,1.2,0.4c-0.6,0.4-1.1,2.1-1.5,3l-1.4,3.7c-0.3,1-1,2.5-0.8,3c0,0-0.8-0.3-1.4-0.5
		c-0.5-0.2-0.8-0.3-1.4-0.5c0.7-0.2,1.3-2.4,1.5-2.9l0.6-1.7l-3.2-1.4l-0.9,2c-0.3,0.7-1,2.3-0.9,2.8c0,0-0.6-0.2-1.4-0.6
		c-1-0.5-1.2-0.6-1.2-0.6c0.7-0.3,1.1-1.5,1.6-2.6l1.7-3.8c0.6-1.3,1.1-2.4,1-3.1c0,0,0.3,0.2,1.1,0.6c0.7,0.3,1,0.4,1.4,0.6
		c-0.5,0.2-1.3,2.1-1.6,2.9l-0.5,1.1l3.2,1.3l0.5-1.2c0.2-0.6,1-2.4,0.9-3.1C16.4,146.8,17.1,147,17.8,147.3"/>
	<path class="st0" d="M24,149.9c-1.8-0.5-2.7,1.6-3.3,3.8c-0.6,2.2-0.8,4.5,1,4.9c1.8,0.5,2.7-1.6,3.3-3.8
		C25.6,152.7,25.8,150.4,24,149.9 M21.5,159.5c-2.8-0.7-3.7-3.5-3-6.3c0.8-2.9,2.9-4.8,5.7-4c2.8,0.7,3.7,3.5,3,6.3
		C26.4,158.3,24.3,160.2,21.5,159.5"/>
	<path class="st0" d="M29.1,160.5c0,0,0.2-0.2,0.3-0.6c0.2-0.6,0.3-1.6,0.4-2.5l0.8-6.1c-1.7-0.2-2.1-0.1-2.8,0.4l0.7-1.6
		c0.5,0.1,1.7,0.2,3.1,0.4c0.9,0.1,3.8,0.4,3.8,0.4l0.1,1.6c-0.6-0.7-1.3-0.8-2.7-0.9l-0.8,6.1c-0.1,0.6-0.4,2.6-0.1,3.1
		c-0.3,0-0.9-0.1-1.4-0.1C30,160.6,29.4,160.5,29.1,160.5"/>
	<path class="st0" d="M42.5,158.4c0,1.8-1.5,3.2-3.8,3.1c-1.8,0-2.7-0.8-3.1-1.1l0.4-1.7c0.5,1.1,1.5,1.9,2.5,1.9
		c1.1,0,1.9-0.6,2-1.7c0-0.8-0.4-1.2-2.2-2.2c-1.7-0.9-2.4-1.8-2.4-3.1c0-1.8,1.6-2.7,3.4-2.7c1.4,0,2.3,0.4,2.9,0.7l-0.4,1.6
		c-0.8-1.1-1.6-1.5-2.5-1.5c-0.9,0-1.5,0.5-1.5,1.4c0,1,1.1,1.5,2.6,2.4C42.1,156.4,42.5,157.4,42.5,158.4"/>
	<path class="st0" d="M50.9,152.7c0.1,0.2,0.1,0.5,0.1,0.7c0,0.2,0,0.4,0,0.7c0,0.6-0.3,1.3-0.8,1.8c-0.7,0.8-1.7,1.1-2.9,1.2
		c-0.5,0-0.6-0.1-0.6-0.4l0-0.1c0,0,0-0.1,0.1-0.1h0.1c0.4,0,0.9-0.2,1.3-0.7c0.4-0.5,0.6-1.3,0.5-2c-0.1-0.8-0.3-1.4-0.9-1.8
		c-0.5-0.4-1-0.5-1.6-0.4c0,0-0.2,0-0.5,0.1c0,0-0.1,0-0.1,0.2l0.6,6.3c0,0.6,0.2,2.5,0.7,2.9c0,0-0.5,0.1-1.5,0.1
		c-0.7,0.1-1.3,0.1-1.3,0.1c0.2-0.5,0.2-1.2,0.1-2l-0.5-5c0-0.6-0.1-2.5-0.6-3c0,0,1.3-0.2,3.6-0.4c1.2-0.1,2.2,0,3.1,0.6
		C50.3,151.6,50.7,152.1,50.9,152.7"/>
	<path class="st0" d="M60.4,154.7c0.5,2.2-0.5,4.1-2.8,4.6c-1.6,0.4-3.9-0.2-4.6-3l-0.8-3.3c-0.2-0.9-0.5-2.6-1.1-3
		c0,0,0.6-0.1,1.6-0.3c0.9-0.2,1.4-0.3,1.4-0.3c-0.3,0.4,0,1.9,0.3,3.1l1,4.2c0.2,0.8,0.4,1.3,0.9,1.6c0.3,0.2,0.8,0.3,1.2,0.2
		c0.4-0.1,0.8-0.3,1-0.7c0.2-0.4,0.2-1.1,0.1-1.8l-1.1-4.2c-0.3-1.2-0.7-2.6-1-2.9c0,0,0.5-0.1,1.3-0.4c0.7-0.2,1-0.3,1.3-0.4
		c-0.3,0.6,0.4,2.6,0.5,3.1L60.4,154.7"/>
	<path class="st0" d="M70.6,153.9c0.2,0.1,0.5,0.1,0.7,0c0,0.1-0.2,0.4-0.4,0.6c-0.9,1-1.8,0.8-2.1,0.7c-1.6-0.6-4.2-3-4.4-3.2
		c0,0,0-0.1,0.1-0.1l0.1,0c0.4-0.2,0.9-0.7,1.1-1.1c0.3-0.7,0.3-1.2,0-2c-0.3-0.7-0.9-1.2-1.3-1.3c-0.6-0.2-1.1,0-1.4,0.1
		c0,0-0.4,0.2-0.5,0.3c0,0-0.1,0.1,0,0.3l2,5.8c0.3,0.8,0.8,2.5,1.3,2.8c0,0-0.5,0.2-1.4,0.5c-0.8,0.3-1.3,0.5-1.3,0.5
		c0.2-0.7-0.5-2.4-0.6-2.9l-1.3-3.9c-0.3-0.9-0.9-2.6-1.4-2.9c0,0,1-0.3,3.1-1.2c1.1-0.5,2.2-0.7,3.2-0.4c0.6,0.2,1,0.5,1.3,1
		c0.1,0.2,0.2,0.4,0.3,0.6c0.1,0.2,0.1,0.4,0.1,0.6c0.1,0.6,0,1.2-0.3,1.8c0,0-0.3,0.6-1,1C66.6,151.4,68.7,153.2,70.6,153.9"/>
</g>
</svg>
