<?xml version="1.0" encoding="utf-8"?>
<!-- Generator: Adobe Illustrator 21.0.0, SVG Export Plug-In . SVG Version: 6.00 Build 0)  -->
<svg version="1.1" id="Layer_1" xmlns="http://www.w3.org/2000/svg" xmlns:xlink="http://www.w3.org/1999/xlink" x="0px" y="0px"
	 viewBox="0 0 346.1 390.1" style="enable-background:new 0 0 346.1 390.1;" xml:space="preserve">
<style type="text/css">
	.st0{fill:#ED2127;}
	.st1{fill:#FBEE23;}
</style>
<g id="g3" transform="matrix(11.576693,0,0,11.576693,-25336.222,-14858.668)">
	<polygon id="polygon5" class="st0" points="2203.5,1317.2 2218.5,1302.2 2213.6,1290.9 2216.4,1290.9 2216.4,1283.5 2190.7,1283.5 
		2190.7,1290.9 2193.5,1290.9 2188.6,1302.2 	"/>
	<path id="path7" class="st1" d="M2192.1,1284.9c0,1.4,0,3.2,0,4.6c0.7,0,22.2,0,22.9,0c0-1.4,0-3.2,0-4.6
		C2212.6,1284.9,2194.5,1284.9,2192.1,1284.9L2192.1,1284.9z"/>
	<path id="path9" d="M2203.5,1290.9h-8.5c-1.3,3-4.3,9.8-4.8,11c1.1,1.1,11.7,11.7,13.3,13.3V1290.9L2203.5,1290.9z"/>
	<path id="path11" class="st1" d="M2212,1290.9h-8.5v24.3c1.6-1.6,12.2-12.2,13.3-13.3C2216.3,1300.8,2213.3,1293.9,2212,1290.9
		L2212,1290.9z"/>
	<polygon id="polygon13" points="2195.4,1286.6 2195.9,1288.9 2196.5,1288.9 2197.3,1285.7 2196.7,1285.7 2196.2,1288.2 
		2195.7,1285.7 2195.1,1285.7 2194.6,1288.2 2194.1,1285.7 2193.5,1285.7 2194.2,1288.9 2194.9,1288.9 	"/>
	<path id="path15" d="M2198.4,1287.8l0.4-1.1l0.4,1.1H2198.4L2198.4,1287.8z M2199.5,1288.9h0.6l-1-2.8h-0.6l-1,2.8h0.6l0.2-0.7h1
		L2199.5,1288.9L2199.5,1288.9z"/>
	<polygon id="polygon17" points="2200.1,1286.1 2200.1,1286.6 2200.9,1286.6 2200.9,1288.9 2201.5,1288.9 2201.5,1286.6 
		2202.2,1286.6 2202.4,1286.1 	"/>
	<polygon id="polygon19" points="2202.9,1286.1 2202.9,1288.9 2203.5,1288.9 2203.5,1287.7 2204.3,1287.7 2204.3,1287.2 
		2203.5,1287.2 2203.5,1286.6 2204.5,1286.6 2204.6,1286.1 	"/>
	<path id="path21" d="M2206.3,1288.6c-0.6,0-0.7-0.5-0.7-1s0.1-1,0.7-1c0.6,0,0.7,0.5,0.7,1S2206.8,1288.6,2206.3,1288.6
		L2206.3,1288.6z M2206.3,1286.1c-1,0-1.4,0.7-1.4,1.5s0.4,1.5,1.4,1.5s1.4-0.7,1.4-1.5C2207.6,1286.7,2207.2,1286.1,2206.3,1286.1
		L2206.3,1286.1z"/>
	<path id="path23" d="M2209.4,1287.3h-0.4v-0.7h0.4c0.2,0,0.4,0,0.4,0.3S2209.5,1287.3,2209.4,1287.3L2209.4,1287.3z M2209.7,1287.7
		L2209.7,1287.7c0.2,0,0.7-0.2,0.7-0.8c0-0.6-0.5-0.8-1-0.8h-1.1v2.8h0.6v-1.2l0,0c0.2,0,0.9,1.2,0.9,1.2h0.7L2209.7,1287.7
		L2209.7,1287.7z"/>
	<path id="path25" d="M2212.2,1288.5h-0.5v-1.9h0.5c0.4,0,0.6,0.4,0.6,0.9C2212.8,1288.1,2212.6,1288.5,2212.2,1288.5L2212.2,1288.5
		z M2212.2,1286.1h-1v2.8h1c0.9,0,1.3-0.6,1.3-1.4S2213.1,1286.1,2212.2,1286.1L2212.2,1286.1z"/>
	<path id="path27" d="M2198.7,1293.2c0,0.1,0,0.1,0,0.2s0,0.1,0,0.2c0,0.4-0.1,0.6-0.2,0.6l0,0l0,0c-0.1-0.2-0.3-0.3-0.7-0.3
		s-0.7,0.3-0.7,0.7c0,0.6,0.2,1.1,0.3,1.5c0.1,0.2,0.1,0.4,0.1,0.6c0,0.1-0.1,0.2-0.1,0.2c-0.2,0-0.2-0.1-0.3-0.2s-0.4-0.4-0.8-0.4
		c-0.2,0-0.7,0.1-0.7,0.7c0,0.3,0.1,0.5,0.2,0.7c0.1,0.2,0.2,0.5,0.2,0.8c0,0,0,0.3-0.1,0.3c-0.3,0-0.4-0.2-0.6-0.5
		c-0.1-0.3-0.3-0.6-0.8-0.6c-0.7,0-0.7,1.1-0.7,1.4c0,2.2,2.1,3,3.5,3c0.3,0,0.4,0,0.6,0c0.2,0,0.3,0,0.6,0c0.9,0,1.5,0.2,1.9,0.5
		c-0.2-0.1-0.5-0.1-0.8-0.1c-0.7,0-1,0.2-1.3,0.4c-0.1,0.1-0.2,0.1-0.3,0.2l-1.1,0.3l1.1,0.2c0.4,0.1,0.7,0.5,1,0.8
		c0.3,0.4,0.6,0.8,1.2,0.8c0.1,0,0.1,0,0.2,0c-0.1,0.3-0.1,0.6-0.1,1c0,0.6,0.1,0.8,0.3,1l0.1,0.1c0.1,0.1,0.2,0.2,0.3,0.4
		c0.3,0.4,0.6,0.8,0.6,1.3c0,0.3,0,0.5,0,0.7s0,0.4,0,0.7c0,0.8,0.5,1,0.8,1.1h0.1c0.1,0.3,0.3,0.4,0.5,0.4h0.1h0.1
		c0.1,0,0.2,0.1,0.4,0.1c0.5,0,0.8-0.4,0.8-0.7l0,0c0.2-0.1,0.7-0.3,0.7-1c0-0.4,0-0.6-0.1-0.9c0-0.2-0.1-0.3-0.1-0.5
		c0-0.4,0.2-0.7,0.4-1c0.3-0.4,0.7-0.9,0.7-2.1c0-0.4,0-0.7-0.1-1c0.1,0,0.1,0,0.2,0c0.8,0,1-0.5,1.2-0.8c0.4-0.7,1.1-0.7,1.1-0.7
		s-0.6-1-1.9-1c-0.4,0-0.7,0.1-0.9,0.2c0.1-0.3,0.3-0.4,0.4-0.5c0.4-0.2,0.9-0.2,1.4-0.2c0.3,0,0.5,0,0.7,0s0.4,0,0.6,0
		c1.9,0,2.4-0.6,3-1.3c0.5-0.5,0.8-1.1,0.8-1.9c0-0.6-0.2-1.1-0.6-1.1c-0.4,0-0.6,0.4-0.7,0.7c-0.2,0.3-0.3,0.5-0.4,0.5
		c-0.2,0-0.4-0.2-0.4-0.5c0-0.2,0.2-0.5,0.3-0.8c0.2-0.3,0.4-0.7,0.4-1c0-0.2-0.1-0.4-0.2-0.5c-0.1-0.1-0.3-0.2-0.4-0.2
		c-0.3,0-0.6,0.3-0.9,0.6c-0.2,0.2-0.4,0.4-0.5,0.4c0,0-0.1-0.1-0.1-0.2c0-0.2,0.1-0.6,0.2-0.9c0.1-0.4,0.2-0.7,0.2-1
		c0-0.6-0.4-0.9-0.7-0.9s-0.5,0.1-0.7,0.3c-0.1,0.1-0.2,0.1-0.3,0.1l0,0v-0.3c0-0.1,0-0.2,0-0.3c0-0.6,0-1.1-0.3-1.3
		c-0.1-0.1-0.3-0.2-0.5-0.2c-0.9,0-1.3,1.2-1.3,2.3c0,0.5,0,1,0,1.5c0,0.4,0,0.8,0,1.3c0,1.1-0.2,1.9-0.4,2.4
		c-0.1-0.5-0.2-1.3-0.7-1.3s-0.6,0.6-0.7,1.4c-0.1,0.7-0.3,1.5-0.7,1.5c-0.3,0-0.4-0.6-0.5-1.4s-0.2-1.7-0.9-1.7
		c-0.8,0-0.8,1-0.9,1.7c0,0.1,0,0.2,0,0.3c-0.2-0.4-0.4-1-0.4-1.6c0-0.7,0-1.3,0.1-1.9c0-0.5,0.1-1.1,0.1-1.8c0-1.5-0.4-1.9-0.7-2.2
		l0,0c-0.2-0.2-0.4-0.5-0.7-0.5C2199,1292.3,2198.7,1292.7,2198.7,1293.2L2198.7,1293.2z"/>
	<path id="path29" class="st0" d="M2205.6,1305.5L2205.6,1305.5c0,0.1-0.3,0-0.6,0c-0.4,0-0.6,0.3-0.6,0.3s0.1-0.1,0.4-0.1
		c0.4,0,0.7,0.2,0.7,0.3c0,0.1-0.1,0.1-0.2,0.1c0,0.2-0.2,0.4-1,0.4c0,0.4,0.2,0.6,0.2,0.7c-0.2,0-0.2,0.2-0.2,0.5
		c0,0-0.3-1-0.3-1.5c0-0.6,0.2-1.1,0.8-1.1C2205.2,1305.3,2205.6,1305.5,2205.6,1305.5L2205.6,1305.5z M2207.2,1303.5
		c0.1,0,0.2,0,0.2,0c-0.7,0.1-0.7,1-1.2,1c-0.1,0-0.2-0.1-0.2-0.1c0.1-0.2,0.3-0.2,0.3-0.4c-0.2,0-0.3,0-0.5,0.1
		C2205.8,1304,2206.3,1303.5,2207.2,1303.5L2207.2,1303.5z M2202.5,1307.9v-0.4c0-0.1-0.1-0.2-0.2-0.2l0.3-0.7v-0.1
		c-0.5,0-1-0.1-1-0.5h-0.1c0,0-0.1,0-0.1-0.1c0,0,0.2-0.2,0.6-0.2c0.3,0,0.5,0.1,0.5,0.1s-0.2-0.4-0.6-0.4c-0.3,0-0.4,0-0.4,0
		s0.2-0.2,0.4-0.2c0.7,0,0.9,0.4,0.9,1.2C2202.8,1307.3,2202.5,1307.9,2202.5,1307.9L2202.5,1307.9z M2200.6,1304.1
		c0,0.1,0.2,0.1,0.4,0.1c0,0.1-0.2,0.2-0.3,0.2c-0.6,0-0.3-0.9-1.5-1.1c0,0,0.1,0,0.2,0c0.9,0,1.2,0.7,1.7,0.7
		C2200.9,1304,2200.6,1304,2200.6,1304.1L2200.6,1304.1z M2212.2,1298.2c-0.5,0-0.4,1.2-1.1,1.2c-0.4,0-0.7-0.3-0.7-0.8
		c0-0.6,0.7-1.3,0.7-1.9c0-0.2-0.2-0.4-0.4-0.4c-0.5,0-0.9,1-1.4,1c-0.2,0-0.3-0.3-0.3-0.5c0-0.5,0.4-1.4,0.4-1.9
		c0-0.4-0.2-0.6-0.4-0.6c-0.4,0-0.6,0.4-1,0.4c-0.2,0-0.3-0.2-0.3-0.3c0-1.1,0.1-1.8-0.5-1.8c-0.7,0-1,1-1,2s0.1,1.8,0.1,2.7
		c0,1.4-0.3,2.6-0.6,2.9c0,0-0.1,0.8,0.3,0.8c0.7,0,1.7-1.9,3.1-1.9c0.6,0,0.6,0.4,0.6,0.5c0,0.5-0.7,0.7-0.7,1
		c0,0.2,0.2,0.2,0.5,0.2c0.9,0,1.5-0.5,1.5-0.5s-0.6,0.7-1.6,0.7c-0.4,0-0.8-0.1-0.8-0.4c0-0.4,0.8-0.7,0.8-1.1
		c0-0.1-0.1-0.3-0.4-0.3c-1.1,0-2.2,2.1-3.1,2.1c-0.2,0-0.4-0.1-0.4-0.6c0-0.4,0-2.1-0.5-2.1c-0.6,0-0.3,2.9-1.4,2.9
		c-1.2,0-0.5-3.1-1.4-3.1c-0.6,0-0.5,0.8-0.6,1.6c-0.1,0.6-0.3,1.2-0.6,1.2c-0.5,0-0.9-0.2-1.3-0.5c-0.3-0.2-0.6-0.3-0.8-0.5
		c-0.4-0.3-0.6-0.6-1-0.6c-0.2,0-0.4,0.1-0.4,0.3c0,0.4,0.4,0.6,0.4,0.9c0,0.2-0.3,0.4-0.6,0.4c-1,0-1.6-0.7-1.6-0.9
		c0,0,0.5,0.7,1.7,0.7c0.3,0,0.3-0.1,0.3-0.2c0-0.2-0.4-0.4-0.4-0.9c0-0.3,0.2-0.5,0.5-0.5c0.4,0,0.7,0.3,1.1,0.6
		c0.6,0.4,1.4,0.9,2,0.9c0.2,0,0.4-0.1,0.4-0.3c0-0.2-0.7-0.9-0.7-2.1c0-1.5,0.2-2.3,0.2-3.6c0-1.4-0.3-1.7-0.6-2.1
		c-0.2-0.3-0.4-0.4-0.5-0.4c-0.3,0-0.4,0.4-0.4,0.6c0,0.1,0,0.2,0,0.4c0,0.5-0.1,0.9-0.4,0.9c-0.4,0-0.2-0.4-0.8-0.4
		c-0.3,0-0.4,0.2-0.4,0.4c0,1,0.4,1.7,0.4,2.1c0,0.2-0.1,0.5-0.4,0.5c-0.6,0-0.5-0.5-1.1-0.5c-0.3,0-0.4,0.2-0.4,0.4
		c0,0.5,0.4,0.8,0.4,1.5c0,0.3-0.1,0.5-0.4,0.5c-0.9,0-0.8-1.1-1.3-1.1c-0.3,0-0.4,0.4-0.4,1.2c0,2.1,2,2.8,3.3,2.8
		c0.5,0,0.6-0.1,1.2-0.1c2.8,0,2.6,1.7,2.6,1.7s-0.4-0.8-1.5-0.8s-1,0.4-1.5,0.6c1.1,0.2,1.2,1.7,2.1,1.7c0.4,0,0.6-0.3,0.6-0.3
		s-0.2,0.6-0.2,1.6c0,0.7,0.2,0.7,0.4,1c0.4,0.6,0.9,1,0.9,1.8c0.1,0,0.2-0.6,0.3-0.6c0,0,0.1,0.1,0.1,0.2c0,0.3-0.3,0.8-0.3,1.8
		c0,0.6,0.4,0.8,0.6,0.9c0.1,0,0.4-0.8,0.4-0.8c-0.2,0.6-0.2,0.9-0.2,1c0,0.2,0.2,0.2,0.4,0.3c0.1,0,0.2,0.1,0.4,0.1
		c0.5,0,0.5-0.4,0.5-0.6s-0.2-0.5-0.2-0.7v-0.1c0.1,0,0.3,0.6,0.3,0.6c0.2-0.1,0.6-0.2,0.6-0.8c0-0.6-0.4-1.5-0.4-1.8
		c0-0.1,0-0.1,0.1-0.1s0.2,0.3,0.2,0.3c0.2-0.9,1.2-1,1.2-2.8c0-1.1-0.2-1.5-0.2-1.5s0.3,0.2,0.6,0.2c1.1,0,0.8-1.1,1.7-1.4
		c0-0.1-0.5-0.5-1.2-0.5c-1,0-1.3,0.5-1.3,0.5c0-1.6,1.1-1.6,2.2-1.6c0.6,0,0.8,0.1,1.3,0.1c1.8,0,2.2-0.5,2.8-1.2
		c0.5-0.6,0.7-1,0.7-1.7C2212.5,1298.7,2212.4,1298.2,2212.2,1298.2L2212.2,1298.2z"/>
	<path id="path31" class="st0" d="M2204.4,1306.3L2204.4,1306.3c0,0.1,0,0.2,0.2,0.2c0.4,0,0.5-0.3,0.5-0.3s-0.2,0.2-0.5,0.2
		C2204.5,1306.3,2204.4,1306.3,2204.4,1306.3L2204.4,1306.3z"/>
	<path id="path33" class="st0" d="M2204.8,1306.2L2204.8,1306.2c-0.1,0.1-0.2,0-0.2,0C2204.6,1306.1,2204.7,1306.1,2204.8,1306.2
		C2204.8,1306.1,2204.8,1306.1,2204.8,1306.2L2204.8,1306.2z"/>
	<path id="path35" class="st0" d="M2202,1306c0,0,0.1,0.2,0.3,0.2c0.1,0,0.2-0.1,0.2-0.1s0.1,0,0.1,0.1c0,0-0.1,0.1-0.3,0.1
		C2202.1,1306.3,2201.9,1306.1,2202,1306C2201.9,1306,2201.9,1306,2202,1306L2202,1306z"/>
	<path id="path37" class="st0" d="M2202.3,1306.1L2202.3,1306.1c-0.1,0-0.1,0-0.1,0C2202.2,1306,2202.2,1306,2202.3,1306.1
		C2202.3,1306,2202.3,1306,2202.3,1306.1L2202.3,1306.1z"/>
</g>
</svg>
