<?xml version="1.0" encoding="utf-8"?>
<!-- Generator: Adobe Illustrator 21.0.0, SVG Export Plug-In . SVG Version: 6.00 Build 0)  -->
<svg version="1.1" id="Layer_1" xmlns="http://www.w3.org/2000/svg" xmlns:xlink="http://www.w3.org/1999/xlink" x="0px" y="0px"
	 viewBox="0 0 232.2 258.3" style="enable-background:new 0 0 232.2 258.3;" xml:space="preserve">
<style type="text/css">
	.st0{fill:#1DAFE5;}
	.st1{fill:#7A2638;}
	.st2{fill:#D1A340;}
	.st3{fill:#F5D44C;}
	.st4{fill:#C7A13D;}
	.st5{fill:#FFFFFF;}
</style>
<g id="mdx">
</g>
<g id="XMLID_1_">
	<path id="XMLID_98_" class="st0" d="M232.2,8.4L232.2,8.4C196.9,3,157.6,0,116.1,0C74.6,0,35.3,3,0,8.4v0.2l0,96.7
		c0,81.9,47.5,127.9,114.2,152.4l1.9,0.6l0,0l1.9-0.6c66.7-24.5,114.2-70.5,114.2-152.4L232.2,8.4L232.2,8.4 M116.1,124.7
		L116.1,124.7l0.1,0.1L116.1,124.7z"/>
	<path id="XMLID_97_" class="st1" d="M224.2,16.4L224.2,16.4c-32.8-5-69.5-7.8-108.1-7.8C77.5,8.6,40.9,11.4,8,16.4v0.2l0,91.6
		c0,76.2,44.2,119.1,106.3,141.9l1.8,0.6l0,0l1.8-0.6c62.1-22.8,106.3-65.7,106.3-141.9L224.2,16.4L224.2,16.4"/>
	<path id="XMLID_96_" class="st2" d="M169.4,208.6c1.7,1.7,4.4-0.1,7.3-2.9c2.8-2.8,4.6-5.5,2.9-7.3L72.4,93.9
		c-1.7-1.7-4.8-1.4-6.8,0.6c-2.1,2.1-2.3,5.1-0.6,6.8L169.4,208.6"/>
	<path id="XMLID_95_" class="st3" d="M75.8,92.3L84.5,82c0,0,0.8-1.1-0.5-2.7c-3.4-4.1-10.2-10.1-10.2-10.1c-1-0.7-1.6-0.6-2.7,0.5
		c-5.4,5.1-19,18.3-19.8,19.2c-1,1.1-1.5,1.8-1.2,3.6c0.3,1.8,1.3,4.9-0.4,7.9l-9.2,14.5c-1.2,1.8-1.5,3.3-0.6,4.2
		c0.5,0.5,1.6,1,4-0.7c1.1-0.8,13.7-9.2,17.7-12.5c2.3-1.9,4.1-3.7,4.1-3.7l7.6-7.4C73.3,94.8,74.9,93.2,75.8,92.3"/>
	<path id="XMLID_94_" class="st2" d="M44,117.5c-2.6,1.8-2.6,2-2.2,2c0.6-0.1,1.3-0.4,2.2-1.1c1.1-0.8,13.7-9.2,17.7-12.5
		c1.7-1.4,3-2.6,3.7-3.3c-2.1,0.4-4.7,1.4-6.3,2.8C56.9,107.2,47.8,115,44,117.5"/>
	<path id="XMLID_93_" class="st2" d="M75.8,92.3L84.5,82c0,0,0.5-0.7,0.1-1.7c0,0-0.7-0.8-3.3,2.1c-2.1,2.5-3.1,3.4-4.9,5.6
		c-1.4,1.7-2.4,4.4-2.8,6.5C74.1,94,75.2,93,75.8,92.3"/>
	<path id="XMLID_92_" class="st2" d="M63,208.6c-1.7,1.7-4.4-0.1-7.3-2.9c-2.8-2.8-4.6-5.5-2.9-7.3L160,93.9
		c1.7-1.7,4.8-1.4,6.8,0.6c2.1,2.1,2.3,5.1,0.6,6.8L63,208.6"/>
	<path id="XMLID_91_" class="st3" d="M62,207.6l100-102.7c1.7-1.7,1.4-4.8-0.6-6.8c-1.1-1.1-2.4-1.7-3.7-1.7L52.8,198.4
		c-1.6,1.6-0.1,4.2,2.5,6.9C57.9,207.7,60.4,209.1,62,207.6"/>
	<path id="XMLID_90_" class="st3" d="M156.7,92.3L148,82c0,0-0.8-1.1,0.5-2.7c3.4-4.1,10.2-10.1,10.2-10.1c1-0.7,1.6-0.6,2.7,0.5
		c5.4,5.1,19,18.3,19.8,19.2c1,1.1,1.5,1.8,1.2,3.6c-0.3,1.8-1.3,4.9,0.4,7.9l9.2,14.5c1.2,1.8,1.5,3.3,0.6,4.2
		c-0.5,0.5-1.6,1-4-0.7c-1.1-0.8-13.7-9.2-17.7-12.5c-2.3-1.9-4.1-3.7-4.1-3.7l-7.6-7.4C159.1,94.8,157.6,93.2,156.7,92.3"/>
	<path id="XMLID_89_" class="st2" d="M188.5,117.5c2.6,1.8,2.6,2,2.2,2c-0.6-0.1-1.3-0.4-2.2-1.1c-1.1-0.8-13.7-9.2-17.7-12.5
		c-1.7-1.4-3-2.6-3.7-3.3c2.1,0.4,4.7,1.4,6.3,2.8C175.6,107.2,184.7,114.9,188.5,117.5"/>
	<path id="XMLID_88_" class="st2" d="M156.7,92.3L148,82c0,0-0.5-0.7-0.1-1.7c0,0,0.7-0.8,3.2,2.1c2.1,2.5,3.1,3.4,4.9,5.6
		c1.4,1.7,2.4,4.4,2.8,6.5C158.3,94,157.3,93,156.7,92.3"/>
	<path id="XMLID_87_" class="st2" d="M173.6,95.3c-0.8,0.8-2.2,0.8-3,0l-4.5-4.5c-0.8-0.8-0.8-2.2,0-3c0.8-0.8,2.2-0.8,3,0l4.5,4.5
		C174.4,93.1,174.4,94.5,173.6,95.3"/>
	<path id="XMLID_86_" class="st4" d="M166.7,90.8c-0.8-0.8-0.8-2.2,0-3c0.3-0.3,0.8-0.5,1.2-0.6c-0.6-0.1-1.3,0.1-1.8,0.6
		c-0.8,0.8-0.8,2.2,0,3l4.5,4.5c0.5,0.5,1.2,0.7,1.8,0.6c-0.4-0.1-0.9-0.3-1.2-0.6L166.7,90.8"/>
	<polyline id="XMLID_85_" class="st2" points="168.7,92.4 168.4,92.4 168.4,92.1 170.4,90.1 170.8,90.1 170.8,90.4 168.7,92.4 	"/>
	<polyline id="XMLID_84_" class="st2" points="169.4,93.1 169.1,93.1 169.1,92.8 169.4,92.8 169.4,93.1 	"/>
	<polyline id="XMLID_83_" class="st2" points="168,91.7 167.7,91.7 167.7,91.4 168,91.4 168,91.7 	"/>
	<polyline id="XMLID_82_" class="st2" points="169.6,88.9 168.9,88.2 168.6,88.2 168.6,88.5 168.7,88.7 168.7,88.8 166.9,90.6 
		166.9,91 167.2,91 169,89.1 169.2,89.1 169.3,89.3 169.6,89.3 169.6,88.9 	"/>
	<polyline id="XMLID_81_" class="st2" points="173.4,92.7 173.1,92.7 171.9,93.5 171.7,93.5 171.7,93.4 171.9,92.9 171.9,92.7 
		171.9,92.7 171.9,92.6 171.9,92.6 171.9,92.6 171.9,92.6 171.9,92.6 171.6,92.6 171.1,92.8 171,92.8 171,92.6 171.9,91.5 
		171.8,91.1 171.5,91.2 169.8,93.5 169.8,93.8 169.8,93.8 169.8,93.8 170.1,93.9 170.9,93.5 171,93.5 171.1,93.6 170.6,94.5 
		170.7,94.7 170.7,94.7 170.7,94.7 171,94.8 173.3,93 173.4,92.7 	"/>
	<path id="XMLID_80_" class="st3" d="M75.5,96.9c-1.3,0-2.7,0.5-3.8,1.6c-1.9,1.9-2.2,4.8-0.6,6.4l42.8,43.9l7.3-7.3L75.5,96.9"/>
	<path id="XMLID_79_" class="st3" d="M179.6,198.4l-54-52.7c-0.8,0.4-1.6,0.9-2.3,1.6c-2.8,2.8-3,7.2-0.7,10.3l48.3,49.5
		c1.6,1.6,4.1-0.1,6.7-2.7c0.4-0.4,0.9-0.9,1.2-1.3C180.3,201.3,180.8,199.6,179.6,198.4"/>
	<polyline id="XMLID_78_" class="st3" points="168.6,92.3 168.3,92.3 168.3,92 170.3,90 170.7,90 170.7,90.3 168.6,92.3 	"/>
	<polyline id="XMLID_77_" class="st3" points="169.3,93 169,93 169,92.7 169.3,92.7 169.3,93 	"/>
	<polyline id="XMLID_76_" class="st3" points="167.9,91.6 167.6,91.6 167.6,91.3 167.9,91.3 167.9,91.6 	"/>
	<polyline id="XMLID_75_" class="st3" points="169.5,88.8 168.8,88.1 168.5,88.1 168.5,88.4 168.6,88.6 168.6,88.7 166.8,90.5 
		166.8,90.9 167.1,90.9 168.9,89 169.1,89 169.2,89.2 169.5,89.2 169.5,88.8 	"/>
	<polyline id="XMLID_74_" class="st3" points="173.3,92.6 173,92.6 171.8,93.4 171.6,93.4 171.6,93.3 171.8,92.8 171.8,92.6 
		171.8,92.6 171.8,92.5 171.8,92.5 171.8,92.5 171.8,92.5 171.8,92.5 171.5,92.5 171,92.7 170.9,92.7 170.9,92.5 171.8,91.4 
		171.7,91 171.4,91.1 169.7,93.4 169.7,93.7 169.7,93.7 169.7,93.7 170,93.8 170.8,93.4 170.9,93.4 171,93.5 170.6,94.4 170.6,94.6 
		170.6,94.6 170.6,94.6 170.9,94.7 173.3,93 173.3,92.6 	"/>
	<path id="XMLID_73_" class="st2" d="M66.4,87.9c0.8,0.8,0.8,2.2,0,3l-4.5,4.5c-0.8,0.8-2.2,0.8-3,0c-0.8-0.8-0.8-2.2,0-3l4.5-4.5
		C64.2,87,65.5,87,66.4,87.9"/>
	<path id="XMLID_72_" class="st4" d="M59.2,92.7l4.5-4.5c0.8-0.8,2-0.8,2.8-0.2l-0.2-0.2c-0.8-0.8-2.2-0.8-3,0l-4.5,4.5
		c-0.8,0.8-0.8,2.2,0,3l0.2,0.2C58.4,94.7,58.5,93.5,59.2,92.7"/>
	<polyline id="XMLID_71_" class="st2" points="63.4,93.1 63.4,93.4 63.1,93.4 61,91.3 61,91 61.4,91 63.4,93.1 	"/>
	<polyline id="XMLID_70_" class="st2" points="64.1,92.4 64.1,92.7 63.8,92.7 63.8,92.4 64.1,92.4 	"/>
	<polyline id="XMLID_69_" class="st2" points="62.7,93.8 62.7,94.1 62.4,94.1 62.4,93.8 62.7,93.8 	"/>
	<polyline id="XMLID_68_" class="st2" points="59.9,92.2 59.2,92.9 59.2,93.2 59.5,93.2 59.6,93.1 59.8,93.1 61.6,94.9 61.9,94.9 
		61.9,94.6 60.1,92.7 60.1,92.6 60.2,92.5 60.2,92.2 59.9,92.2 	"/>
	<polyline id="XMLID_67_" class="st2" points="63.7,88.4 63.6,88.7 64.5,89.9 64.5,90.1 64.4,90.1 63.9,89.8 63.6,89.9 63.6,89.9 
		63.6,89.9 63.6,89.9 63.6,89.9 63.6,89.9 63.6,89.9 63.6,90.1 63.8,90.6 63.8,90.8 63.6,90.8 62.4,89.9 62.1,90 62.1,90.3 64.5,92 
		64.8,92 64.8,92 64.8,92 64.8,91.7 64.4,90.9 64.5,90.7 64.6,90.7 65.4,91.1 65.7,91.1 65.7,91.1 65.7,91.1 65.7,90.8 64,88.4 
		63.7,88.4 	"/>
	<polyline id="XMLID_66_" class="st3" points="63.4,92.9 63.4,93.2 63.1,93.2 61,91.1 61,90.8 61.4,90.8 63.4,92.9 	"/>
	<polyline id="XMLID_65_" class="st3" points="64.1,92.2 64.1,92.5 63.8,92.5 63.8,92.2 64.1,92.2 	"/>
	<polyline id="XMLID_64_" class="st3" points="62.7,93.6 62.7,93.9 62.4,93.9 62.4,93.6 62.7,93.6 	"/>
	<polyline id="XMLID_63_" class="st3" points="59.9,91.9 59.2,92.6 59.2,93 59.5,93 59.6,92.8 59.8,92.8 61.6,94.7 61.9,94.7 
		61.9,94.3 60.1,92.5 60.1,92.4 60.2,92.3 60.2,91.9 59.9,91.9 	"/>
	<polyline id="XMLID_62_" class="st3" points="63.7,88.2 63.6,88.5 64.5,89.7 64.5,89.8 64.4,89.9 63.9,89.6 63.6,89.6 63.6,89.6 
		63.6,89.7 63.6,89.7 63.6,89.7 63.6,89.7 63.6,89.7 63.6,89.9 63.8,90.4 63.8,90.6 63.6,90.6 62.4,89.7 62.1,89.8 62.1,90.1 
		64.5,91.8 64.8,91.8 64.8,91.8 64.8,91.7 64.8,91.5 64.4,90.7 64.5,90.5 64.6,90.5 65.4,90.9 65.7,90.9 65.7,90.9 65.7,90.9 
		65.7,90.6 64,88.2 63.7,88.2 	"/>
	<path id="XMLID_61_" class="st5" d="M74,62.1c-4.1,0.4-7.9-2.3-8-6.6c-0.1-3.9-0.2-7.8-0.4-11.8c1.8-0.1,2.8-0.2,4.6-0.3
		c0.1,3.9,0.2,7.8,0.3,11.8c0.1,2,1.4,2.9,3.3,2.8c0.3,0,0.4,0,0.7,0c2-0.1,3.2-1.2,3.2-3.2c-0.1-3.9-0.2-7.8-0.3-11.8
		c1.8-0.1,2.8-0.2,4.6-0.3c0.1,3.9,0.2,7.8,0.2,11.8c0.1,4.3-3.5,7.4-7.6,7.6C74.4,62.1,74.2,62.1,74,62.1"/>
	<path id="XMLID_60_" class="st5" d="M85.5,42.6c2.1-0.1,3.2-0.1,5.3-0.2c2.4,3.9,4.8,7.7,7.2,11.6l0.1,0c0-4-0.1-7.9-0.1-11.9
		c1.8-0.1,2.8-0.1,4.6-0.1c0.1,6.2,0.1,12.4,0.2,18.6c-2.1,0-3.2,0.1-5.3,0.1c-2.4-3.9-4.8-7.7-7.2-11.6l-0.1,0
		c0.1,3.9,0.1,7.9,0.2,11.8c-1.8,0.1-2.7,0.1-4.6,0.2C85.7,55,85.6,48.8,85.5,42.6"/>
	<path id="XMLID_59_" class="st5" d="M105.9,42c1.8,0,2.8,0,4.6-0.1c0,6.2,0,12.4,0.1,18.6c-1.8,0-2.7,0-4.6,0.1
		C106,54.4,106,48.2,105.9,42"/>
	<path id="XMLID_58_" class="st5" d="M119.8,45.8c-2.4,0-3.6,0-5.9,0l0-3.9c5.5,0,11,0,16.5,0.1c0,1.6,0,2.3,0,3.9
		c-2.4-0.1-3.6-0.1-5.9-0.1c0,4.9,0,9.8-0.1,14.7c-1.8,0-2.7,0-4.6,0C119.8,55.6,119.8,50.7,119.8,45.8"/>
	<path id="XMLID_57_" class="st5" d="M133.7,42.1c4.2,0.1,8.3,0.3,12.5,0.5c0,1.6,0,2.3-0.1,3.9c-3.1-0.1-4.7-0.2-7.9-0.3
		c0,1.4,0,2,0,3.4c2.6,0.1,3.8,0.1,6.4,0.3c0,1.6,0,2.3-0.1,3.9c-2.6-0.1-3.8-0.2-6.4-0.2c0,1.4,0,2.1,0,3.5
		c3.3,0.1,4.9,0.2,8.2,0.3c0,1.6,0,2.3-0.1,3.9c-4.2-0.2-8.5-0.3-12.7-0.5C133.6,54.5,133.7,48.3,133.7,42.1"/>
	<path id="XMLID_23_" class="st5" d="M149.7,42.7c2.9,0.2,4.4,0.2,7.4,0.4c5.4,0.2,9.6,4.6,9.4,9.9c-0.1,5.3-4.7,9.2-9.9,8.7
		c-2.9-0.2-4.4-0.3-7.3-0.4C149.5,55.1,149.6,48.9,149.7,42.7 M156.6,57.8c3.2,0.2,5.1-1.5,5.2-5.1c0.1-3.5-1.9-5.5-5-5.7
		c-1-0.1-1.5-0.1-2.6-0.2c-0.1,3.6-0.2,7.2-0.3,10.8C155,57.7,155.5,57.7,156.6,57.8"/>
	<path id="XMLID_22_" class="st5" d="M27,20.9c2.4-0.3,3.6-0.4,6-0.7c1.1,5.3,2.2,10.6,3.2,15.8l0.1,0c1.2-5.5,2.5-11.1,3.7-16.6
		c2.1-0.2,3.1-0.3,5.2-0.5c1.2,5.3,2.4,10.6,3.6,15.9l0.1,0c1.2-5.5,2.3-11,3.5-16.5c2.4-0.2,3.5-0.3,5.9-0.5
		c-2,8-3.9,15.9-5.9,23.9c-2.8,0.2-4.2,0.4-6.9,0.7c-0.9-4.5-1.9-8.9-2.8-13.4l-0.1,0c-0.9,4.7-1.9,9.3-2.8,14
		c-2.8,0.3-4.2,0.5-7,0.8C30.8,36,28.9,28.5,27,20.9"/>
	<path id="XMLID_21_" class="st5" d="M177.6,18c2.6,0.2,3.9,0.3,6.4,0.6c1.7,5,3.4,10,5.1,15.1l0.1,0c1.7-4.7,3.4-9.3,5.1-14
		c2.5,0.3,3.8,0.4,6.4,0.7c1.4,8,2.8,15.9,4.2,23.9c-2.4-0.3-3.5-0.4-5.9-0.7c-0.7-5.2-1.4-10.4-2.1-15.6l-0.1,0
		c-1.7,4.9-3.3,9.9-5,14.8c-2.1-0.2-3.1-0.3-5.2-0.5c-1.7-5.3-3.4-10.6-5.1-15.9l-0.1,0c-0.6,5.1-1.2,10.1-1.8,15.2
		c-2.4-0.2-3.6-0.3-6-0.5C175,33.4,176.3,25.7,177.6,18"/>
	<path id="XMLID_20_" class="st5" d="M60.5,17.6c5.3-0.4,10.5-0.7,15.8-1c-0.1,2-0.2,3-0.3,4.9c-3.3,0.2-6.5,0.4-9.8,0.6
		c0,1.7,0,2.6,0,4.3c3.2-0.2,4.8-0.3,8-0.5v4.9c-3.2,0.2-4.8,0.3-8,0.5c0,1.8,0,2.6,0,4.4c3.4-0.2,6.8-0.4,10.2-0.6c0,2,0,2.9,0,4.9
		c-5.3,0.3-10.6,0.7-16,1.1C60.5,33.2,60.5,25.4,60.5,17.6"/>
	<path id="XMLID_19_" class="st5" d="M103.2,20.5c-3,0-4.4,0.1-7.4,0.2c0-2,0-2.9,0-4.9c6.8-0.2,13.7-0.3,20.5-0.3c0,2,0,2.9,0,4.9
		c-3,0-4.4,0-7.4,0c0,6.2,0,12.3,0,18.5c-2.3,0-3.4,0-5.7,0.1C103.2,32.8,103.2,26.7,103.2,20.5"/>
	<path id="XMLID_18_" class="st5" d="M125.9,15.6c2.3,0,3.4,0,5.7,0.1V25c3.3,0.1,6.6,0.2,9.9,0.3v-9.4c2.3,0.1,3.4,0.1,5.7,0.2
		v23.4c-2.3-0.1-3.4-0.1-5.7-0.2v-9.2c-3.3-0.1-6.6-0.2-9.9-0.3V39c-2.3,0-3.4-0.1-5.7-0.1C125.9,31.1,125.9,23.3,125.9,15.6"/>
	<path id="XMLID_15_" class="st5" d="M164.5,35.6c-3.1-0.2-4.7-0.3-7.9-0.5c-0.6,1.9-0.8,2.9-1.4,4.8c-2.4-0.1-3.5-0.2-5.9-0.3
		c2.4-7.7,4.7-15.4,7.1-23c3.1,0.2,4.6,0.3,7.7,0.5c2.6,8,5.1,16,7.7,23.9c-2.4-0.2-3.5-0.3-5.9-0.4C165.3,38.6,165,37.6,164.5,35.6
		 M160.5,22.2c-0.9,2.8-1.7,5.6-2.6,8.4c2.1,0.1,3.1,0.2,5.2,0.3C162.3,28,161.4,25.1,160.5,22.2L160.5,22.2"/>
	<path id="XMLID_14_" class="st5" d="M87.1,15.6c-4.3,0.2-9.1,2.8-9.1,7.6c0,7.3,11,5.4,11.6,9.4c0.2,1.1-1.1,2-2.6,2
		c-2.9,0-5.3-0.6-7.7-1.8c-0.1,2-0.2,3.1-0.3,4.9c2.5,1.7,5,2,7.8,2.1c4.1,0.1,9.1-2.7,9.1-7.6c0.1-7.3-10.8-5.6-11.6-9.4
		c-0.2-1,1-1.9,2.7-2c2.7-0.2,4.6,0.5,6.1,1.1c0.1-2.3,0.2-2.7,0.3-4.9C92.2,16.3,90.1,15.5,87.1,15.6"/>
	<polyline id="XMLID_13_" class="st5" points="82.2,208.8 85,210.1 81.1,219.1 85.8,221.1 84.7,223.5 77.3,220.2 82.2,208.8 	"/>
	<path id="XMLID_10_" class="st5" d="M96,213.7c3.6,1,5.5,4.4,4.6,7.8c-1,3.5-4.4,5.5-8,4.5c-3.6-1-5.5-4.5-4.5-8
		C89,214.7,92.4,212.8,96,213.7 M93.3,223.4c1.8,0.5,3.7-0.7,4.2-2.7c0.5-2-0.5-3.8-2.3-4.3c-1.8-0.5-3.6,0.6-4.2,2.5
		C90.5,221,91.5,223,93.3,223.4"/>
	<path id="XMLID_9_" class="st5" d="M103.5,215.8l3.1,0.3l2.8,6.1c0.4,0.9,0.8,2.2,0.8,2.2l0,0c0,0,0-1.3,0.1-2.1l0.6-5.8l3,0.3
		l-1.3,12.4l-3-0.3l-2.9-6.1c-0.4-0.9-0.8-2.2-0.8-2.2l0,0c0,0,0,1.3-0.1,2.1l-0.6,5.8l-3-0.3L103.5,215.8"/>
	<path id="XMLID_6_" class="st5" d="M116.1,216.9l4.4-0.2c3.9-0.2,6.5,1.9,6.7,5.8c0.2,3.9-2.2,6.4-6.1,6.6l-4.4,0.2L116.1,216.9
		 M120.9,226.5c2.1-0.1,3.3-1.4,3.2-3.8c-0.1-2.4-1.5-3.5-3.6-3.4l-1.2,0.1l0.4,7.2L120.9,226.5z"/>
	<path id="XMLID_3_" class="st5" d="M133.7,214.7c3.7-0.8,6.9,1.3,7.7,4.8c0.8,3.6-1.3,6.9-4.9,7.7c-3.7,0.8-7-1.4-7.7-4.9
		C128,218.8,130,215.5,133.7,214.7 M135.9,224.5c1.8-0.4,2.9-2.3,2.5-4.3c-0.4-2-2.2-3.2-4-2.8c-1.8,0.4-2.9,2.2-2.5,4.2
		C132.2,223.7,134,224.9,135.9,224.5"/>
	<path id="XMLID_2_" class="st5" d="M141.3,213l2.9-1.1l5.4,4.1c0.8,0.6,1.8,1.6,1.8,1.6l0,0c0,0-0.6-1.2-0.9-1.9l-2.2-5.4l2.8-1.1
		l4.6,11.5l-2.8,1.1l-5.4-4.1c-0.8-0.6-1.8-1.6-1.8-1.6l0,0c0,0,0.6,1.2,0.9,1.9l2.2,5.4l-2.8,1.1L141.3,213"/>
</g>
</svg>
