<?xml version="1.0" encoding="utf-8"?>
<!-- Generator: Adobe Illustrator 21.0.0, SVG Export Plug-In . SVG Version: 6.00 Build 0)  -->
<svg version="1.1" id="Layer_1" xmlns="http://www.w3.org/2000/svg" xmlns:xlink="http://www.w3.org/1999/xlink" x="0px" y="0px"
	 viewBox="0 0 236.8 283" style="enable-background:new 0 0 236.8 283;" xml:space="preserve">
<style type="text/css">
	.st0{fill:#FFFFFF;}
	.st1{fill:#002E6E;}
	.st2{fill:none;stroke:#FFFFFF;stroke-width:1.04;}
	.st3{clip-path:url(#SVGID_2_);}
	.st4{clip-path:url(#SVGID_6_);}
	.st5{fill:#785531;}
	.st6{fill:#3B170B;}
	.st7{fill:#00A562;}
	.st8{fill:#A9383A;}
	.st9{fill:#7A593A;}
</style>
<g>
	<g>
		<path class="st0" d="M4.6,9.7L0,10.6v138.2c0,1.1,0,26.8,14.4,56.3c8.5,17.3,20.2,32.4,34.8,44.7c18.2,15.3,40.9,26.4,67.5,32.9
			l0.5,0.1c0,0,1,0.2,1,0.2l1.2-0.2l0.7-0.2c26.6-6.5,49.3-17.6,67.5-32.9c14.6-12.3,26.3-27.3,34.8-44.7
			c14.4-29.5,14.4-55.2,14.4-56.3V10.6l-4.6-0.9C231.7,9.6,180.6,0,118.4,0C56.2,0,5.1,9.6,4.6,9.7"/>
		<path class="st1" d="M231.6,12.6c-0.5-0.1-51-9.6-113.2-9.6C56.1,3,5.7,12.5,5.2,12.6L3,13v135.7c0,1,0,26.1,14.1,55
			c8.3,17,19.7,31.7,34,43.7c17.8,15,40.1,25.9,66.3,32.3l0.5,0.1l0.3,0.1l0.5-0.1l0.5-0.1c26.1-6.4,48.4-17.3,66.3-32.3
			c14.3-12,25.7-26.7,34-43.7c14.1-28.9,14.1-53.9,14.1-55V36.3V13L231.6,12.6"/>
		<path class="st0" d="M182.1,243.3c-0.4,0.3-0.7,0.6-1.1,0.9V96.1h-26.2v165c-7.2,3.6-14.8,6.7-22.9,9.4V96.1h-28.1v174.1
			c-8.3-2.8-16.2-6.1-23.6-9.9V96.1H54.1v146.7c-8.8-7.5-16.5-16.1-22.9-25.6V96.1H8.4V17.5c10.3-1.8,55.7-9.1,110-9.1
			c54.2,0,99.7,7.3,110,9.1v78.6h-23.7v122.6C198.3,227.8,190.7,236.1,182.1,243.3"/>
		<path class="st1" d="M31.5,44.6h6.4l17.8,40.6h-8.4l-3.8-9.3H25.5l-3.7,9.3h-8.2L31.5,44.6z M40.8,69.7l-6.4-16.5L28,69.7H40.8z"
			/>
		<polygon class="st1" points="58.5,44.6 65.8,44.6 65.8,78.7 83.4,78.7 83.4,85.2 58.5,85.2 		"/>
		<path class="st1" d="M87,44.6H103c6.2,0,12.6,2.8,12.6,10.2c0,4.6-2.9,7.6-7.2,8.9v0.1c5.2,0.6,8.9,4.6,8.9,9.8
			c0,8.8-7.8,11.6-15.6,11.6H87V44.6 M94.3,61.1h6.7c4.9,0,7.3-2.1,7.3-5.1c0-3.5-2.4-5.2-8-5.2h-6.1V61.1z M94.3,79h6.8
			c3.8,0,9-0.6,9-6c0-4.2-2.8-5.7-8.7-5.7h-7.1V79z"/>
		<rect x="121.1" y="44.6" class="st1" width="7.3" height="40.6"/>
		<path class="st1" d="M154.1,43.6c12.9-0.2,22,8.3,22,21.3c0,12.7-9.1,21.2-22,21.4c-12.7,0-21.8-8.5-21.8-21.2
			C132.3,52.1,141.4,43.6,154.1,43.6 M154.1,79.7c8.6,0,14.2-6.4,14.2-15.1c0-8.1-5.7-14.5-14.2-14.5c-8.5,0-14.2,6.4-14.2,14.5
			C140,73.3,145.6,79.7,154.1,79.7"/>
		<polygon class="st1" points="180.1,44.6 189.9,44.6 209.9,74.8 210,74.9 209.9,74.9 210,74.8 210,44.6 217.3,44.6 217.3,85.2 
			208,85.2 187.6,54.1 187.5,54.1 187.5,85.2 180.1,85.2 		"/>
		<polygon class="st1" points="14.3,22.9 17.4,22.9 20.5,34.4 20.5,34.4 24.2,22.9 27,22.9 30.6,34.4 30.6,34.4 33.8,22.9 
			36.7,22.9 32,38.8 29.3,38.8 25.5,26.7 25.5,26.7 21.7,38.8 19.1,38.8 		"/>
		<polygon class="st1" points="39.1,22.9 49.9,22.9 49.9,25.5 42,25.5 42,29.4 49.4,29.4 49.4,31.9 42,31.9 42,36.3 50.3,36.3 
			50.3,38.8 39.1,38.8 		"/>
		<path class="st1" d="M61.6,26.3C61,25.5,59.9,25,58.8,25c-1.3,0-2.7,0.6-2.7,2.1c0,3.2,7.7,1.4,7.7,7.1c0,3.4-2.7,5.1-5.9,5.1
			c-2,0-4-0.6-5.3-2.2l2.2-2.1c0.7,1.1,1.9,1.7,3.2,1.7c1.3,0,2.8-0.7,2.8-2.2c0-3.5-7.7-1.5-7.7-7.2c0-3.3,3-4.8,6-4.8
			c1.7,0,3.4,0.5,4.6,1.6L61.6,26.3"/>
		<polygon class="st1" points="70.7,25.5 65.7,25.5 65.7,22.9 78.6,22.9 78.6,25.5 73.6,25.5 73.6,38.8 70.7,38.8 		"/>
		<path class="st1" d="M88.5,22.9h6.3c2.5,0,5,1.1,5,4c0,1.8-1.1,3-2.8,3.5v0c2,0.2,3.5,1.8,3.5,3.9c0,3.5-3.1,4.6-6.1,4.6h-5.8
			V22.9 M91.3,29.4H94c1.9,0,2.9-0.8,2.9-2c0-1.4-1-2-3.1-2h-2.4V29.4z M91.3,36.4H94c1.5,0,3.5-0.2,3.5-2.3c0-1.7-1.1-2.3-3.4-2.3
			h-2.8V36.4z"/>
		<path class="st1" d="M103.5,22.9h5.6c3.1,0,6,1,6,4.6c0,2.3-1.3,4-3.8,4.3l4.3,7.1h-3.5l-3.8-6.8h-2.1v6.8h-2.9V22.9 M108.7,29.6
			c1.6,0,3.5-0.1,3.5-2.2c0-1.9-1.8-2.1-3.3-2.1h-2.5v4.3H108.7z"/>
		<path class="st1" d="M125.6,22.5c5.1-0.1,8.6,3.2,8.6,8.4c0,5-3.6,8.3-8.6,8.4c-5,0-8.6-3.3-8.6-8.3
			C117.1,25.8,120.6,22.5,125.6,22.5 M125.7,36.7c3.4,0,5.6-2.5,5.6-5.9c0-3.2-2.2-5.7-5.6-5.7c-3.3,0-5.6,2.5-5.6,5.7
			C120.1,34.2,122.3,36.7,125.7,36.7"/>
		<polygon class="st1" points="137,22.9 141.4,22.9 145.7,34.1 150.1,22.9 154.4,22.9 154.4,38.8 151.7,38.8 151.7,25.6 151.6,25.6 
			146.7,38.8 144.7,38.8 139.8,25.6 139.7,25.6 139.7,38.8 137,38.8 		"/>
		<polygon class="st1" points="156.9,22.9 160,22.9 163.1,34.4 163.1,34.4 166.8,22.9 169.6,22.9 173.2,34.4 173.2,34.4 176.4,22.9 
			179.3,22.9 174.6,38.8 171.9,38.8 168.1,26.7 168.1,26.7 164.3,38.8 161.7,38.8 		"/>
		<rect x="181.5" y="22.9" class="st1" width="2.9" height="16"/>
		<path class="st1" d="M199.1,26.6c-1.2-1.2-2.3-1.6-3.4-1.6c-3.3,0-5.6,2.5-5.6,5.7c0,3.4,2.2,5.9,5.6,5.9c1.3,0,2.6-0.6,3.6-1.9
			l2.4,1.7c-1.5,2-3.7,2.8-6,2.8c-5,0-8.6-3.3-8.6-8.3c0-5.1,3.6-8.5,8.6-8.5c2.2,0,4.1,0.7,5.7,2.5L199.1,26.6"/>
		<polygon class="st1" points="204.2,22.9 207.1,22.9 207.1,29.2 214.7,29.2 214.7,22.9 217.6,22.9 217.6,38.8 214.7,38.8 
			214.7,31.8 207.1,31.8 207.1,38.8 204.2,38.8 		"/>
		<path class="st0" d="M166.4,231.7l-0.1-0.5c-0.3-1.2-1.5-4.8-3.4-7.1c4.9-0.7,10.8-2.5,13.5-6.6l0.7-1l-0.7-1
			c-3-4-9.2-5.6-14.1-6.2c1.8-2.4,2.6-5.4,2.7-5.8l0.5-2.4c0,0-1.4,0.4-2.6,0.3c-0.2,0-1,0-1.5,0c-2.2-0.3-5.2,0-5.8,0
			c-2,0.2-3.7,0.7-5.1,1.3c0.6-1.9,0.9-3.7,0.9-5c0-0.2,0-0.4,0-0.6c-0.1-1.5-1.7-6.5-2-7.4l-0.6-1c1.8,0,4.5,0.2,7.9,1
			c0.8,0.2,11.8,3.6,23.6,9.2c0.4,0.2,12.8,6.6,21.8,1.5c0,0,1.1-1,1.6-2l-6.7-3.5c0,0,4.6,0.6,7.5-0.5c-1.1-4.9-4.9-6.7-4.9-6.7
			c3,0.4,4.9-0.7,4.9-0.7c-0.3-0.8-0.8-1.8-0.8-1.8c-0.2-0.2-2.9-5.3-11.7-9c0.2-0.3,0.2-0.5,0.3-0.8c0,0.1,0,0.3,0,0.3
			c0.1-0.2,0.2-0.5,0.2-0.8c0-1.5-1.8-5.5-15.1-11.7l-0.1,0l-0.1,0c-0.4-0.2-8.8-4-15.2-5.5c-3.7-3-31.4-24.9-66.2-32.1
			c-1.4-2-5.3-7.6-7.4-9.7c-0.7-1-7.4-9.4-17.6-9.2c-0.2,0-4.9,0-9.3,2.1c-1.1,0-2.1-0.5-2.1-0.5c-5.4-3-9.5-5.1-9.6-5.1l-0.2-0.1
			l-0.2-0.1c-2.1-0.5-3.1,0.8-3.3,1.2c-0.8,1.4-0.2,2.5,0,3l0,0c0.5,1,2.4,3.5,4.1,5.8c-3.7-0.3-5.7-0.2-6.8,0.2l0,0
			c0,0-0.1,0-0.1,0c0,0,0,0,0,0c-1.2,0.3-1.8,1.1-2,1.6c-0.2,0.4-0.2,0.8-0.2,1.1c0,0.8,0.3,1.4,0.5,1.7l-0.1-0.1
			c0.2,0.3,0.7,1.3,3.9,2.8c3.3,1.5,8.5,4.7,9,5c2.5,1.7,4.9,9.1,5.8,13.3l0,0.1c2.2,8.4,4.3,15,4.8,16.8
			c2.1,7.1,6.7,20.6,19.5,29.8l-0.2,4.1c0,1.2-0.2,4.7-0.4,5.8v0c-0.1,0.4-0.1,0.8-0.1,1.3c0,1.2,0.2,2.7,0.5,4.2
			c-1.3-0.6-2.8-1.2-4.5-1.5c-0.1,0-3.1-0.5-5.4-0.4c-0.5,0-1.1,0-1.3,0c-1-0.1-2.5-0.9-2.5-0.9l0.3,2.8c0.1,0.4,0.6,3.5,2.1,6
			c-4.6,0.4-10.4,1.6-13.5,5.5l-0.7,0.9l0.6,1c2.3,4.3,7.7,6.4,12.1,7.4c-1.9,2.2-2.9,5-3,5.4l-0.6,2c0,0,1.7,0.1,2.7,0.3
			c0.2,0,0.6,0.1,1.1,0.2c2.1,0.6,5.2,0.6,5.4,0.6c2,0,3.9-0.3,5.4-0.8c-0.1,0.4-0.1,0.9-0.1,1.3c0,1.1,0.2,2.1,0.3,3l0.2,1.3
			c0,1.1-0.3,4.5-0.5,5.6l0.1,3.6l2.2-2c0.6-0.5,2.9-1.4,4.6-1.9c3.3-1.1,5.7-2.4,7.5-3.9c-0.3,1.6-0.6,3.3-0.6,5.2
			c0,1.1,0.1,2.2,0.2,3.3c0.2,1.3,0.3,2.8,0.3,3.8c0,0.5,0,0.9-0.1,1.1l-0.4,3.6l3-1.7c1.1-0.7,4.1-2.7,5.1-3.2
			c1.1-0.6,2.9-1.9,4.5-3.5c0.2,1.4,0.6,2.9,1.4,4.5c0,0.1,1.3,2.8,2.8,4.5c0.3,0.4,0.6,0.9,0.7,1.1c0.6,1,1,2.4,1,2.4l1.8-1.6
			c0.3-0.3,2.6-2.5,3.9-5.2c2.9,3.5,7.4,7.5,12.4,7.7l1.1,0.1l0.5-1c0.9-1.7,1.3-3.5,1.3-5.4c0-3-0.9-6.1-2-8.6
			c2.9,0.3,5.9-0.4,6.3-0.6l2.9-0.8c0,0,0.8,0.1,0.6,0c1,0.4,0.9,0.4,2,0.8c1.5,0.5,4.1,1.5,4.8,2.1l2.8,1.7l0-3.2
			c-0.1-1.1-0.4-4.2-0.4-5.5c0-0.1,0-0.2,0-0.3c0-0.1,0-0.1,0-0.2c0-1.2-0.4-3.3-1.2-5.4c1.5,0.5,3.2,0.9,5.1,1
			c0.1,0,3.4,0.2,5.8-0.3c0.6-0.1,0.8-0.2,1-0.1C163.4,231.8,165,231.6,166.4,231.7 M105.3,208.5c-1.2-4.5-3.4-12.7-13.8-18.2l0,0
			l0,0c-1.6-0.7-3.5-1.8-4-2.4l-2.2-2.5c6.2,4.3,14.2,7.6,24.6,8.8c1.3,0.2,5.6,1,9.3,1.5c-2.6,2.5-6.8,6.8-10.2,11.8l-0.8,1.1
			c-0.9,0.1-1.8,0.4-2.6,0.9C105.5,209.2,105.4,208.9,105.3,208.5 M116.1,215c-0.1-1.4-0.7-2.7-1.5-3.7c0.7-0.6,3.6-3.4,6.8-6.1
			c-1.1,3.1-2.3,6.4-3.1,8.2l-0.7,1.4C117.1,214.9,116.6,215,116.1,215 M146.3,189.7c-1,1.7-2.7,2.5-2.7,2.5
			c-3.6,1.5-6.4,3.4-8.5,5.3c0.8-1.2,1.7-2.4,2.4-3.3c0,0,1.4-1.5,1.7-1.8c1-1,4.1-3.7,6.8-3.8l0.1,0l0.2,0c0,0,0.3-0.1,0.9-0.1
			L146.3,189.7z"/>
		<path class="st0" d="M63.6,124.6c12.5,4.3,2-3.1,2-2.9C69.8,125.1,63.6,124.6,63.6,124.6"/>
		<path class="st2" d="M63.6,124.6c12.5,4.3,2-3.1,2-2.9C69.8,125.1,63.6,124.6,63.6,124.6z"/>
		<path class="st0" d="M68.9,120.8c0,0-0.2-2.7,2.8-2.9c2.9-0.3,4.7,1.7,5.2,2.7c0.5,1,1.2,2.8,1.5,3.9c0,0,0.4,1.2-0.7,0.6
			c-1.1-0.6-2.6-1.5-6-1.7C69,123.2,68.9,120.8,68.9,120.8"/>
		<path class="st2" d="M68.9,120.8c0,0-0.2-2.7,2.8-2.9c2.9-0.3,4.7,1.7,5.2,2.7c0.5,1,1.2,2.8,1.5,3.9c0,0,0.4,1.2-0.7,0.6
			c-1.1-0.6-2.6-1.5-6-1.7C69,123.2,68.9,120.8,68.9,120.8z"/>
		<path class="st0" d="M72.6,120.5c0,0.6-0.4,1-0.9,1.1c-0.5,0-1-0.4-1-1c0-0.6,0.4-1,0.9-1.1C72.1,119.5,72.6,119.9,72.6,120.5"/>
		
			<ellipse transform="matrix(0.9987 -5.094936e-02 5.094936e-02 0.9987 -6.0468 3.8067)" class="st2" cx="71.6" cy="120.5" rx="1" ry="1"/>
		<path class="st0" d="M144.1,165.4c13.6,2.1,9.2-4.1,9.1-4.2c7.2,1.7,7.8,4.7,7.9,4.8C152.3,169.5,144.1,165.4,144.1,165.4"/>
		<path class="st2" d="M144.1,165.4c13.6,2.1,9.2-4.1,9.1-4.2c7.2,1.7,7.8,4.7,7.9,4.8C152.3,169.5,144.1,165.4,144.1,165.4z"/>
		<path class="st0" d="M76.3,138.6c0.5,1.2,0.5,2.4,0,2.6c-0.5,0.2-1.3-0.6-1.8-1.8c-0.5-1.2-0.5-2.4,0-2.6
			C74.9,136.6,75.8,137.4,76.3,138.6"/>
		<path class="st2" d="M76.3,138.6c0.5,1.2,0.5,2.4,0,2.6c-0.5,0.2-1.3-0.6-1.8-1.8c-0.5-1.2-0.5-2.4,0-2.6
			C74.9,136.6,75.8,137.4,76.3,138.6z"/>
		<path class="st0" d="M80.9,146.4c0.9,1.3,1.2,2.6,0.7,2.9c-0.5,0.3-1.6-0.4-2.5-1.7c-0.9-1.3-1.2-2.6-0.7-2.9
			C78.9,144.3,80,145.1,80.9,146.4"/>
		<path class="st2" d="M80.9,146.4c0.9,1.3,1.2,2.6,0.7,2.9c-0.5,0.3-1.6-0.4-2.5-1.7c-0.9-1.3-1.2-2.6-0.7-2.9
			C78.9,144.3,80,145.1,80.9,146.4z"/>
		<path class="st0" d="M86.7,154.5c1.2,1.7,1.7,3.4,1.1,3.8c-0.6,0.4-2.1-0.6-3.3-2.2c-1.2-1.7-1.7-3.4-1.1-3.8
			C84,151.9,85.5,152.9,86.7,154.5"/>
		<path class="st2" d="M86.7,154.5c1.2,1.7,1.7,3.4,1.1,3.8c-0.6,0.4-2.1-0.6-3.3-2.2c-1.2-1.7-1.7-3.4-1.1-3.8
			C84,151.9,85.5,152.9,86.7,154.5z"/>
		<path class="st0" d="M93.8,163.2c1.2,1.7,1.7,3.4,1.1,3.8c-0.6,0.4-2.1-0.6-3.3-2.2c-1.2-1.7-1.7-3.4-1.1-3.8
			C91.1,160.5,92.6,161.5,93.8,163.2"/>
		<path class="st2" d="M93.8,163.2c1.2,1.7,1.7,3.4,1.1,3.8c-0.6,0.4-2.1-0.6-3.3-2.2c-1.2-1.7-1.7-3.4-1.1-3.8
			C91.1,160.5,92.6,161.5,93.8,163.2z"/>
		<path class="st0" d="M104.5,180.8c2.2,1.1,3.7,2.7,3.3,3.5c-0.4,0.8-2.6,0.5-4.8-0.6c-2.2-1.1-3.7-2.7-3.3-3.5
			C100.1,179.4,102.3,179.7,104.5,180.8"/>
		<path class="st2" d="M104.5,180.8c2.2,1.1,3.7,2.7,3.3,3.5c-0.4,0.8-2.6,0.5-4.8-0.6c-2.2-1.1-3.7-2.7-3.3-3.5
			C100.1,179.4,102.3,179.7,104.5,180.8z"/>
		<path class="st0" d="M103.2,170.6c2,1.5,3.1,3.4,2.5,4.1c-0.6,0.7-2.6,0-4.6-1.5c-2-1.5-3.1-3.4-2.5-4.1
			C99.2,168.4,101.2,169.1,103.2,170.6"/>
		<path class="st2" d="M103.2,170.6c2,1.5,3.1,3.4,2.5,4.1c-0.6,0.7-2.6,0-4.6-1.5c-2-1.5-3.1-3.4-2.5-4.1
			C99.2,168.4,101.2,169.1,103.2,170.6z"/>
		<path class="st0" d="M114.6,176.9c2.2,1.2,3.6,2.8,3.2,3.6c-0.4,0.8-2.6,0.4-4.8-0.7c-2.2-1.2-3.6-2.8-3.2-3.6
			C110.2,175.4,112.4,175.7,114.6,176.9"/>
		<path class="st2" d="M114.6,176.9c2.2,1.2,3.6,2.8,3.2,3.6c-0.4,0.8-2.6,0.4-4.8-0.7c-2.2-1.2-3.6-2.8-3.2-3.6
			C110.2,175.4,112.4,175.7,114.6,176.9z"/>
	</g>
	<g>
		<defs>
			<path id="SVGID_1_" d="M56.9,116.3l-12.6-0.7l12,6.8l3.6,4.9l7,25.2c0,0,2.3,13.3,12.8,24.6l37.6,15.2c0.2,0,0.3,0,0.5,0
				c10.8,0,10.3-1.3,10.3-1.3l0.8-0.3c0,0,6.4-2.4,6.5-2.7c0.1-0.3,4-4.5,4-4.5l15.4-10.8l-32.8-3.1l-16.5-6.6l-7.6-8.3l-3.4-6.1
				l-1.8-6.4l-4-19.7l-8.1-8.1l-6.9-1.2l-9.8,0.9l-3.4-1.9l-10.9-5.4L56.9,116.3z"/>
		</defs>
		<clipPath id="SVGID_2_">
			<use xlink:href="#SVGID_1_"  style="overflow:visible;"/>
		</clipPath>
		<g class="st3">
			<defs>
				
					<rect id="SVGID_3_" x="57.6" y="70" transform="matrix(0.3756 -0.9268 0.9268 0.3756 -61.9417 182.6936)" width="94" height="134.6"/>
			</defs>
			<clipPath id="SVGID_4_">
				<use xlink:href="#SVGID_3_"  style="overflow:visible;"/>
			</clipPath>
			<g transform="matrix(1 2.980232e-08 0 1 0 0)" style="clip-path:url(#SVGID_4_);">
				
					<image style="overflow:visible;" width="73" height="51" xlink:href="44042D5B4D88394.jpg"  transform="matrix(1.7085 0.6924 -0.6926 1.7091 59.9064 68.4619)">
				</image>
			</g>
		</g>
	</g>
	<g>
		<defs>
			<path id="SVGID_5_" d="M117.3,192.4l-37.6-15.2C87.3,185.2,99.1,192.2,117.3,192.4"/>
		</defs>
		<clipPath id="SVGID_6_">
			<use xlink:href="#SVGID_5_"  style="overflow:visible;"/>
		</clipPath>
		<g class="st4">
			<defs>
				
					<rect id="SVGID_7_" x="68.3" y="125.7" transform="matrix(0.3756 -0.9268 0.9268 0.3756 -127.576 196.5399)" width="27.5" height="134.6"/>
			</defs>
			<clipPath id="SVGID_8_">
				<use xlink:href="#SVGID_7_"  style="overflow:visible;"/>
			</clipPath>
			<g transform="matrix(1 0 -2.980232e-08 1 -1.907349e-06 0)" style="clip-path:url(#SVGID_8_);">
				
					<image style="overflow:visible;" width="73" height="15" xlink:href="44042D5B4D88395.jpg"  transform="matrix(1.7085 0.6924 -0.6878 1.6974 24.862 154.9434)">
				</image>
			</g>
		</g>
	</g>
	<g>
		<path class="st5" d="M63.6,124.6c12.5,4.3,2-3.1,2-2.9C69.8,125.1,63.6,124.6,63.6,124.6"/>
		<path class="st6" d="M68.9,120.8c0,0-0.2-2.7,2.8-2.9c2.9-0.3,4.7,1.7,5.2,2.7c0.5,1,1.2,2.8,1.5,3.9c0,0,0.4,1.2-0.7,0.6
			c-1.1-0.6-2.6-1.5-6-1.7C69,123.2,68.9,120.8,68.9,120.8"/>
		<path class="st0" d="M72.6,120.5c0,0.6-0.4,1-0.9,1.1c-0.5,0-1-0.4-1-1c0-0.6,0.4-1,0.9-1.1C72.1,119.5,72.6,119.9,72.6,120.5"/>
		<path class="st6" d="M73.6,146.3c0.6,1.5,0.7,3,0,3.2c-0.6,0.3-1.7-0.8-2.3-2.3c-0.7-1.5-0.7-3,0-3.2
			C71.9,143.7,73,144.8,73.6,146.3"/>
		<path class="st6" d="M76.3,138.6c0.5,1.2,0.5,2.4,0,2.6c-0.5,0.2-1.3-0.6-1.8-1.8c-0.5-1.2-0.5-2.4,0-2.6
			C74.9,136.6,75.8,137.4,76.3,138.6"/>
		<path class="st6" d="M80.9,146.4c0.9,1.3,1.2,2.6,0.7,2.9c-0.5,0.3-1.6-0.4-2.5-1.7c-0.9-1.3-1.2-2.6-0.7-2.9
			C78.9,144.3,80,145.1,80.9,146.4"/>
		<path class="st6" d="M78.3,156.2c1,1.8,1.3,3.5,0.6,3.9c-0.7,0.4-2-0.8-3-2.6c-1-1.8-1.3-3.6-0.6-3.9
			C75.9,153.2,77.2,154.4,78.3,156.2"/>
		<path class="st6" d="M86.7,154.5c1.2,1.7,1.7,3.4,1.1,3.8c-0.6,0.4-2.1-0.6-3.3-2.2c-1.2-1.7-1.7-3.4-1.1-3.8
			C84,151.9,85.5,152.9,86.7,154.5"/>
		<path class="st6" d="M93.8,163.2c1.2,1.7,1.7,3.4,1.1,3.8c-0.6,0.4-2.1-0.6-3.3-2.2c-1.2-1.7-1.7-3.4-1.1-3.8
			C91.1,160.5,92.6,161.5,93.8,163.2"/>
		<path class="st6" d="M76.3,167.6c1.2,1.9,1.7,3.8,1.2,4.1c-0.5,0.3-1.9-1-3-3c-1.2-1.9-1.7-3.8-1.1-4.1
			C73.8,164.3,75.2,165.6,76.3,167.6"/>
		<path class="st6" d="M84,177.1c1.6,1.6,2.6,3.2,2.1,3.7c-0.5,0.5-2.2-0.4-3.8-2c-1.6-1.6-2.6-3.2-2.1-3.7
			C80.6,174.6,82.3,175.5,84,177.1"/>
		<path class="st6" d="M93.8,184.2c2,1,3.4,2.3,3.1,2.9c-0.3,0.6-2.2,0.2-4.3-0.8c-2-1-3.4-2.4-3.1-2.9
			C89.9,182.8,91.8,183.1,93.8,184.2"/>
		<path class="st6" d="M104.5,180.8c2.2,1.1,3.7,2.7,3.3,3.5c-0.4,0.8-2.6,0.5-4.8-0.6c-2.2-1.1-3.7-2.7-3.3-3.5
			C100.1,179.4,102.3,179.7,104.5,180.8"/>
		<path class="st6" d="M84.5,165.7c1.6,1.9,2.4,3.9,1.7,4.5c-0.7,0.6-2.6-0.5-4.2-2.4c-1.6-1.9-2.4-3.9-1.7-4.5
			C81,162.7,82.9,163.8,84.5,165.7"/>
		<path class="st6" d="M93.3,174.7c1.9,1.6,3,3.4,2.5,4.1c-0.6,0.7-2.6,0-4.6-1.6c-1.9-1.6-3-3.4-2.5-4.1
			C89.3,172.3,91.4,173.1,93.3,174.7"/>
		<path class="st6" d="M103.2,170.6c2,1.5,3.1,3.4,2.5,4.1c-0.6,0.7-2.6,0-4.6-1.5c-2-1.5-3.1-3.4-2.5-4.1
			C99.2,168.4,101.2,169.1,103.2,170.6"/>
		<path class="st6" d="M114.6,176.9c2.2,1.2,3.6,2.8,3.2,3.6c-0.4,0.8-2.6,0.4-4.8-0.7c-2.2-1.2-3.6-2.8-3.2-3.6
			C110.2,175.4,112.4,175.7,114.6,176.9"/>
		<path class="st6" d="M116.6,184.5c2.2,0.4,3.8,1.4,3.7,2.1c-0.2,0.7-2,1-4.2,0.6c-2.2-0.4-3.8-1.4-3.7-2.1
			C112.6,184.3,114.4,184.1,116.6,184.5"/>
		<path class="st6" d="M105.9,188.2c2.2,0.3,3.9,1.1,3.8,1.8c-0.1,0.7-2,1-4.2,0.7c-2.2-0.3-3.9-1.1-3.8-1.8
			C101.9,188.2,103.7,187.8,105.9,188.2"/>
		<path class="st6" d="M126.5,182.5c1.9,0.4,3.4,1.2,3.3,1.7c-0.1,0.6-1.8,0.7-3.7,0.4c-1.9-0.4-3.4-1.2-3.3-1.7
			C122.9,182.3,124.6,182.1,126.5,182.5"/>
		<path class="st6" d="M71.3,157.1c0.7,1.7,0.8,3.2,0.3,3.4c-0.5,0.2-1.4-1.1-2.1-2.8c-0.7-1.7-0.8-3.2-0.4-3.4
			C69.8,154.2,70.7,155.4,71.3,157.1"/>
		<path class="st7" d="M155.5,210.6c0.7-0.8,3.7-0.7,3.7-0.7c2.9-2,4-6.9,4-6.9c-0.4,0.2-2.1,0-2.1,0c-2.2-0.3-5.4,0-5.4,0
			c-6.4,0.6-10.1,4.7-10.1,4.7c0.5-1.8,2-2.8,2-2.8c1.4-2.5,1.9-6.2,1.9-7.7c0-2.1-1.8-6.5-1.8-6.5c-1.3,2.1-3.4,3.2-3.4,3.2
			c-10.2,4.3-13.2,11-15.1,16.4c-0.7,1.8-1.4,3.1-2,4c1.8,0.2,3.7,0.5,5.7,1.2c8.3-0.6,21.2-0.8,34.2,1.5c0,0-16.8-1.1-30.3,0.1
			c1.3,0.7,2.6,1.5,3.9,2.5l0.1,0.1l0.1,0.1c1.1,0.9,2.7,1.9,3.5,2.5l3.3,1.7l-3,1.7c-1,0.5-3.8,1.9-4.8,2.6c-1,0.6-3.1,1.4-5.3,1.9
			c1.1,0.9,2.2,2,3.1,3.3c0.1,0.1,1.6,2.3,2.4,4.2c1.7,1,3.6,2,5.9,2.8c0,0,4,1.3,5.3,2.4c0,0-0.4-4.5-0.4-6
			c0.1-1.5-0.8-5.2-2.4-7.6c0,0-1.6-1-2.2-2.7c0,0,4,3.8,10.4,4.1c0,0,3.3,0.2,5.4-0.3c0,0,1.7-0.2,2.1-0.1c0,0-1.5-4.8-4.5-6.6
			c0,0-2.7,0.1-3.5-0.6c0,0,14.4,0.3,18.8-6.3h0C170.1,210.2,155.5,210.6,155.5,210.6"/>
		<path class="st7" d="M136.2,234.3c-3.4-4.8-8.6-5.9-8.6-5.9c1.8-0.4,3.5,0.3,3.5,0.3c2.9,0,6.5-1.3,7.8-2.1
			c1.3-0.8,5.3-2.8,5.3-2.8c-1.6-0.4-4.6-2.9-4.6-2.9c-8.3-6.2-15.7-5.4-21.4-4.4c-0.8,0.1-1.5,0.2-2.1,0.3c-0.2,1.5-0.9,2.8-2,3.9
			c-0.4,0.4-0.8,0.7-1.3,1c4.5,11.6,16.5,27.8,16.5,27.8c-8.9-9.4-15.2-20.3-18.6-27c-0.3,0.1-0.6,0.1-1,0.2c0.5,1,0.8,2,0.8,3.1
			c0,3.9-3.2,7.1-7.1,7.1c-1.4,0-2.7-0.4-3.8-1.1c-1.4,3.2-2.2,7.1-1.6,12.1c0,0,0.6,4.1,0.2,5.6c0,0,4-2.7,5.3-3.3
			c1.4-0.7,4.4-3.1,5.9-5.5c0,0,0.2-1.8,1.5-3.1c0,0-1.7,5,0.8,10.3c0,0,1.3,2.7,2.6,4.2c0,0,0.9,1.2,1,1.6c0,0,3.7-3.4,4.1-6.7
			c0,0-1.5-2.3-1.2-3.2c0,0,6.7,11.5,14.6,12l0,0c3.7-6.9-3.6-17.9-3.6-17.9c1,0.2,2.2,2.4,2.2,2.4c3,1.4,8,0,8,0
			c-0.3-0.2-0.9-1.7-0.9-1.7C137.9,236.8,136.2,234.3,136.2,234.3"/>
		<path class="st7" d="M96.4,225.8c0-1.1,0.4-2.2,0.9-3.2c-3.6-0.3-6.5-3.3-6.5-7c0-0.3,0-0.6,0.1-0.8c-11.1-1.2-22.5-1-22.5-1
			c8.2-1.1,16.2-1.1,22.9-0.6c1-2.7,3.6-4.6,6.7-4.6c2.2,0,4.3,1.1,5.6,2.9c0.2-0.3,0.4-0.5,0.6-0.7c-0.2-0.5-0.3-1-0.5-1.6
			c-1.5-5.5-3.8-12.3-13-17.2c0,0-3.6-1.7-4.6-2.9c0,0-0.2,4.5-0.4,5.9c-0.2,1.5,0.1,5.3,1.3,7.8c0,0,1.4,1.2,1.7,3
			c0,0-3.2-4.2-9.1-5.2c0,0-3-0.5-5-0.3c0,0-1.6,0-1.9-0.1c0,0,0.8,4.9,3.3,7.1c0,0,2.8,0.1,3.4,0.9c0,0-13.5-1.2-18.4,4.9l0,0
			c3.7,6.9,17,7.3,17,7.3c-0.8,0.7-3.3,0.4-3.3,0.4c-2.9,1.6-4.5,6.4-4.5,6.4c0.4-0.1,1.9,0.2,1.9,0.2c2,0.5,5,0.5,5,0.5
			c6,0.1,9.9-3.5,9.9-3.5c-0.7,1.7-2.2,2.6-2.2,2.6c-1.6,2.3-0.2,6.6-0.2,8.2c0,0.6,0.1,1.4-1,5.1c1.2-1,5.2-2.2,5.2-2.2
			c5.3-1.7,8.1-4.2,9.9-7C97.3,229.7,96.4,227.8,96.4,225.8"/>
		<path class="st8" d="M92,215.5c0,3.2,2.6,5.8,5.8,5.8l0.2,0l1.7-0.2l-0.9,1.2c-0.8,1-1.2,2.2-1.2,3.5c0,3.2,2.6,5.8,5.8,5.8
			c3.2,0,5.8-2.6,5.8-5.8c0-1.2-0.4-2.3-1.1-3.3l-0.8-1.2l1.6,0.2c3.3,0,5.9-2.6,5.9-5.8c0-3.2-2.6-5.8-5.8-5.8
			c-2.1,0-3.9,1.1-5,2.9l-0.6,1l-0.6-1c-1-1.9-3-3-5.1-3C94.6,209.7,92,212.3,92,215.5"/>
		<path class="st0" d="M96.4,213.7c-0.7,1-1.7,1.5-2.2,1.1c-0.5-0.4-0.3-1.5,0.4-2.4c0.7-1,1.7-1.5,2.2-1.1
			C97.3,211.6,97.1,212.7,96.4,213.7"/>
		<path class="st0" d="M107.4,213.9c-0.7,1-1.7,1.5-2.2,1.1c-0.5-0.4-0.3-1.5,0.4-2.4c0.7-1,1.7-1.5,2.2-1.1
			C108.3,211.8,108.2,212.9,107.4,213.9"/>
		<path class="st0" d="M102.1,223.7c-0.7,1-1.7,1.5-2.2,1.1c-0.5-0.4-0.3-1.5,0.4-2.4c0.7-1,1.7-1.5,2.2-1.1
			C103,221.7,102.8,222.7,102.1,223.7"/>
		<path class="st9" d="M203,193.7c0,0-1-5-9.4-8.1c0,0,4.5,1.4,9.5,0.6c0,0-3.9-5.1-13-8.6c0,0-12.5-4.9-13.9-5.5
			c0,0,9.5,2.4,12.5,2.9c0,0,1.5,0.4,1.5-0.3c0,0,0.2-2.9-13.9-9.9c0,0-9-4.1-15.3-5.5c0,0-29.6-24.8-66.5-32.2
			c0,0-5.5-7.9-7.7-10.3c0,0-6.3-8.6-15.9-8.4c0,0-4.7,0-8.8,2.1c-2.1,0.3-3.8-0.8-3.8-0.8c-5.3-3-9.4-5-9.4-5c-1.6-0.4-0.8,1-0.8,1
			c0.9,1.7,7,9.4,7,9.4c-9.5-1.2-11.2-0.4-11.2-0.4c-1,0.2-0.4,1.1-0.4,1.1c0.4,0.7,2.9,1.8,2.9,1.8c3.6,1.7,9.3,5.1,9.3,5.1
			c4.2,2.9,6.7,14.6,6.7,14.6c2.4,9.4,5,16.4,5,16.4c0.4,0.7-0.3-2.7-0.3-2.7c-0.3-0.8-1-3.4-1-3.4c-1.1-4.6-2.4-10.8-2.4-10.8
			c-1.9-10.9-5.7-14.5-5.7-14.5c-1.5-1.8-11.4-6.5-11.4-6.5c2.8-0.3,13.5,1.5,13.5,1.5l-8-9.3l5.4,3.1c1.5,0.9,3,1.4,3,1.4
			s0.6,0.5,1.1,2.4c0,0,0.3,1.8,2.9,1.8c0,0,2.3-0.2,4.6-0.9c0,0,4.9-1.2,9.8,0.8c0,0,4.5,1.3,5.8,3.7c0,0,0.7,1.1-0.6,1.3
			c0,0-2.9,0.4-4.5-0.4l0.1,0.3c0,0,7.5,2.3,6.6,10.4c0,0-0.3,3.5-0.4,4.7c0,0-1.5,7.5,4.1,12.1c0,0-1.1-3.2,0.8-6.8
			c0,0,0.4,15.6,16.4,23.6c0,0,19.9,11,41.6,8c0,0-11.3,3.4-23.8,1.1c0,0-5.4-0.9-6.5-1.2c0,0-6.5-1.2-9.3-1.2c0,0-0.2,0.2,0.4,0.3
			c0,0,8.5,3.2,17.8,5.4c0,0,6.7,1.8,8.1,2.3c0,0,2.6,0.6,1.8,2.3c0,0-4.6,8.9-27.5,8.9c0,0,4.9,1,9.4,1.6c0,0,3,0.4,4.1,1.3
			c0,0-7.2,6.1-12.5,13.9c0,0,1.9,0.6,2.3,1.1c0,0,8.2-7.7,12.8-11.1c0,0-3.7,11.5-5.5,15.5c0,0,2.9-0.3,3.2-0.3
			c0,0,9.1-18.5,14.1-22.9c0,0,4.1-4.2,8.2-4.4c0,0,4.2-0.8,11.2,0.8c0,0,11.5,3.4,24,9.4c0,0,11.7,6.1,19.8,1.6
			c0,0-12.1-6.2-14.3-7.4C186.7,191,193.9,194.2,203,193.7"/>
		<path class="st0" d="M95.4,142.9c0,0,3,2.7,5.1,0.5c0-0.1,1.1,5.7,5,9.7C105.6,153.1,99.2,152.7,95.4,142.9"/>
		<path class="st0" d="M131.4,158.3c2.3,1.4,4.9,5.3,5.1,5.3c-5.8,0.3-14.2-3.9-14.2-3.9c4.1,2.6,6.3,8.5,6.2,8.5
			c-13.4-0.3-24.1-9.5-24.1-9.5l0.4-0.1c8.9,5.1,14.7,5,14.7,4.8c-2.3-5.4-6.3-9.8-6.4-9.8c13,5.2,17.4,2.1,17.5,2.1
			c1-2.7-1-6.1-0.9-6.1c2.3,3.9,15.4,8.2,15.7,8.3C138.4,159.8,131.4,158.2,131.4,158.3"/>
		<path class="st0" d="M144.1,165.4c13.6,2.1,9.2-4.1,9.1-4.2c7.2,1.7,7.8,4.7,7.9,4.8C152.3,169.5,144.1,165.4,144.1,165.4"/>
	</g>
</g>
</svg>
